%TF.GenerationSoftware,KiCad,Pcbnew,6.0.2+dfsg-1*%
%TF.CreationDate,2022-09-01T21:00:27+02:00*%
%TF.ProjectId,vscp-din-esp32-can-z102,76736370-2d64-4696-9e2d-65737033322d,rev?*%
%TF.SameCoordinates,Original*%
%TF.FileFunction,Copper,L2,Bot*%
%TF.FilePolarity,Positive*%
%FSLAX46Y46*%
G04 Gerber Fmt 4.6, Leading zero omitted, Abs format (unit mm)*
G04 Created by KiCad (PCBNEW 6.0.2+dfsg-1) date 2022-09-01 21:00:27*
%MOMM*%
%LPD*%
G01*
G04 APERTURE LIST*
G04 Aperture macros list*
%AMRoundRect*
0 Rectangle with rounded corners*
0 $1 Rounding radius*
0 $2 $3 $4 $5 $6 $7 $8 $9 X,Y pos of 4 corners*
0 Add a 4 corners polygon primitive as box body*
4,1,4,$2,$3,$4,$5,$6,$7,$8,$9,$2,$3,0*
0 Add four circle primitives for the rounded corners*
1,1,$1+$1,$2,$3*
1,1,$1+$1,$4,$5*
1,1,$1+$1,$6,$7*
1,1,$1+$1,$8,$9*
0 Add four rect primitives between the rounded corners*
20,1,$1+$1,$2,$3,$4,$5,0*
20,1,$1+$1,$4,$5,$6,$7,0*
20,1,$1+$1,$6,$7,$8,$9,0*
20,1,$1+$1,$8,$9,$2,$3,0*%
G04 Aperture macros list end*
%TA.AperFunction,ComponentPad*%
%ADD10R,1.700000X1.700000*%
%TD*%
%TA.AperFunction,ComponentPad*%
%ADD11O,1.700000X1.700000*%
%TD*%
%TA.AperFunction,ComponentPad*%
%ADD12R,1.700000X2.500000*%
%TD*%
%TA.AperFunction,ComponentPad*%
%ADD13O,1.700000X2.500000*%
%TD*%
%TA.AperFunction,ComponentPad*%
%ADD14RoundRect,0.250000X0.650000X1.550000X-0.650000X1.550000X-0.650000X-1.550000X0.650000X-1.550000X0*%
%TD*%
%TA.AperFunction,ComponentPad*%
%ADD15O,1.800000X3.600000*%
%TD*%
%TA.AperFunction,ViaPad*%
%ADD16C,0.800000*%
%TD*%
%TA.AperFunction,Conductor*%
%ADD17C,0.250000*%
%TD*%
%TA.AperFunction,Conductor*%
%ADD18C,1.000000*%
%TD*%
G04 APERTURE END LIST*
D10*
%TO.P,J1,1,Pin_1*%
%TO.N,/MISO*%
X142375000Y-81250000D03*
D11*
%TO.P,J1,2,Pin_2*%
%TO.N,/SCK*%
X144915000Y-81250000D03*
%TO.P,J1,3,Pin_3*%
%TO.N,/MOSI*%
X147455000Y-81250000D03*
%TO.P,J1,4,Pin_4*%
%TO.N,+3V3*%
X149995000Y-81250000D03*
%TO.P,J1,5,Pin_5*%
%TO.N,GND*%
X152535000Y-81250000D03*
%TD*%
D10*
%TO.P,J6,1,Pin_1*%
%TO.N,/leda*%
X123250000Y-85100000D03*
D11*
%TO.P,J6,2,Pin_2*%
%TO.N,Net-(R11-Pad2)*%
X123250000Y-82560000D03*
%TO.P,J6,3,Pin_3*%
%TO.N,/ledb*%
X123250000Y-80020000D03*
%TD*%
D10*
%TO.P,J5,1,Pin_1*%
%TO.N,+28V*%
X130350000Y-148000000D03*
D11*
%TO.P,J5,2,Pin_2*%
%TO.N,/USB D-*%
X132890000Y-148000000D03*
%TO.P,J5,3,Pin_3*%
%TO.N,/USB D+*%
X135430000Y-148000000D03*
%TO.P,J5,4,Pin_4*%
%TO.N,GND*%
X137970000Y-148000000D03*
%TD*%
D12*
%TO.P,U4,1,IN*%
%TO.N,+28V*%
X157602500Y-80492500D03*
D13*
%TO.P,U4,2,GND*%
%TO.N,GND*%
X160142500Y-80492500D03*
%TO.P,U4,3,OUT*%
%TO.N,+3V3*%
X162682500Y-80492500D03*
%TD*%
D14*
%TO.P,J4,1,Pin_1*%
%TO.N,Net-(J4-Pad1)*%
X140960000Y-75332500D03*
D15*
%TO.P,J4,2,Pin_2*%
%TO.N,Net-(D3-Pad2)*%
X137150000Y-75332500D03*
%TO.P,J4,3,Pin_3*%
%TO.N,Net-(D3-Pad1)*%
X133340000Y-75332500D03*
%TO.P,J4,4,Pin_4*%
%TO.N,GND*%
X129530000Y-75332500D03*
%TD*%
D10*
%TO.P,J3,1,Pin_1*%
%TO.N,Net-(J3-Pad1)*%
X144200000Y-147850000D03*
D11*
%TO.P,J3,2,Pin_2*%
%TO.N,/rx*%
X146740000Y-147850000D03*
%TO.P,J3,3,Pin_3*%
%TO.N,/tx*%
X149280000Y-147850000D03*
%TO.P,J3,4,Pin_4*%
%TO.N,Net-(J3-Pad4)*%
X151820000Y-147850000D03*
%TO.P,J3,5,Pin_5*%
%TO.N,+3V3*%
X154360000Y-147850000D03*
%TO.P,J3,6,Pin_6*%
%TO.N,GND*%
X156900000Y-147850000D03*
%TD*%
D10*
%TO.P,J2,1,Pin_1*%
%TO.N,Net-(J2-Pad1)*%
X152310000Y-69800000D03*
D11*
%TO.P,J2,2,Pin_2*%
%TO.N,Net-(D3-Pad2)*%
X154850000Y-69800000D03*
%TD*%
D16*
%TO.N,GND*%
X135400000Y-106350000D03*
X137450000Y-108200000D03*
X135350000Y-77100000D03*
X166150000Y-76750000D03*
X132700000Y-96950000D03*
X127650000Y-95100000D03*
X131800000Y-83000000D03*
X130700000Y-88600000D03*
X136000000Y-89700000D03*
X134100000Y-145950000D03*
X141150000Y-146800000D03*
X147850000Y-142100000D03*
X148000000Y-145250000D03*
X150600000Y-145700000D03*
X142750000Y-139250000D03*
%TO.N,+3V3*%
X161800000Y-77850000D03*
X152100000Y-78700000D03*
%TO.N,/MOSI*%
X139350000Y-105800000D03*
%TO.N,/SCK*%
X139300000Y-104650000D03*
%TO.N,/MISO*%
X138550000Y-85474500D03*
%TO.N,GND*%
X141900000Y-114200000D03*
X130600000Y-117800000D03*
X135300000Y-112400000D03*
X127950000Y-145200000D03*
X124200000Y-116900000D03*
X166000000Y-140650000D03*
X138400000Y-141150000D03*
X145800000Y-108100000D03*
X149650000Y-116900000D03*
X151500000Y-140100000D03*
X126300000Y-135000000D03*
X126750000Y-123050000D03*
X158600000Y-110200000D03*
X130500000Y-101900000D03*
X138100000Y-97500000D03*
X161950000Y-83350000D03*
X154700000Y-72650000D03*
X155350000Y-85050000D03*
X155250000Y-81600000D03*
X123750000Y-77250000D03*
X141000000Y-78700000D03*
X131400000Y-77100000D03*
X127900000Y-78100000D03*
%TO.N,/rx*%
X124650000Y-121700000D03*
X146050000Y-137675500D03*
X129000000Y-109250000D03*
%TO.N,/tx*%
X126400000Y-118900000D03*
X149250000Y-141950000D03*
X123550000Y-121650000D03*
%TO.N,/flash*%
X140300000Y-115100000D03*
X136100000Y-119000000D03*
%TO.N,/reset*%
X133150000Y-118800000D03*
X133500000Y-112900000D03*
%TO.N,Net-(R2-Pad1)*%
X133100000Y-94950000D03*
X121950000Y-119700000D03*
%TO.N,Net-(R1-Pad1)*%
X121950000Y-118300000D03*
X127100000Y-96900000D03*
%TO.N,+28V*%
X166250000Y-108100000D03*
X165350000Y-92250000D03*
%TO.N,Net-(L1-Pad1)*%
X152100000Y-109050000D03*
X147000000Y-97550000D03*
%TD*%
D17*
%TO.N,+3V3*%
X152950000Y-77850000D02*
X161800000Y-77850000D01*
X152100000Y-78700000D02*
X152950000Y-77850000D01*
%TO.N,/MOSI*%
X139600103Y-105374511D02*
X144250000Y-100724614D01*
X144250000Y-100724614D02*
X144250000Y-84455000D01*
X144250000Y-84455000D02*
X147455000Y-81250000D01*
%TO.N,/SCK*%
X139300000Y-104650000D02*
X143549511Y-100400489D01*
X143549511Y-100400489D02*
X143549511Y-82615489D01*
X143549511Y-82615489D02*
X144915000Y-81250000D01*
%TO.N,/MISO*%
X142375000Y-81649500D02*
X142375000Y-81250000D01*
X138550000Y-85474500D02*
X142375000Y-81649500D01*
%TO.N,/rx*%
X129000000Y-117350000D02*
X124650000Y-121700000D01*
X129000000Y-109250000D02*
X129000000Y-117350000D01*
X146050000Y-137675500D02*
X146740000Y-138365500D01*
X146740000Y-138365500D02*
X146740000Y-147850000D01*
%TO.N,/tx*%
X126400000Y-118900000D02*
X126300000Y-118900000D01*
X126300000Y-118900000D02*
X123550000Y-121650000D01*
X149250000Y-141950000D02*
X149280000Y-141980000D01*
X149280000Y-141980000D02*
X149280000Y-147850000D01*
%TO.N,/flash*%
X140300000Y-116950000D02*
X140300000Y-115100000D01*
X136850000Y-118250000D02*
X139000000Y-118250000D01*
X139000000Y-118250000D02*
X140300000Y-116950000D01*
%TO.N,Net-(R2-Pad1)*%
X128275489Y-96674511D02*
X128275489Y-114775489D01*
X128275489Y-114775489D02*
X128275489Y-115187032D01*
D18*
%TO.N,Net-(L1-Pad1)*%
X147000000Y-104950000D02*
X151100000Y-109050000D01*
X151100000Y-109050000D02*
X152100000Y-109050000D01*
D17*
%TO.N,/flash*%
X136850000Y-118250000D02*
X136100000Y-119000000D01*
%TO.N,/reset*%
X133150000Y-113250000D02*
X133500000Y-112900000D01*
X133150000Y-118800000D02*
X133150000Y-113250000D01*
%TO.N,Net-(R2-Pad1)*%
X128275489Y-115187032D02*
X123762521Y-119700000D01*
X133100000Y-94950000D02*
X131375489Y-96674511D01*
X123762521Y-119700000D02*
X121950000Y-119700000D01*
X131375489Y-96674511D02*
X128275489Y-96674511D01*
%TO.N,Net-(R1-Pad1)*%
X127100000Y-115726804D02*
X127100000Y-96900000D01*
X121950000Y-118300000D02*
X124526804Y-118300000D01*
X124526804Y-118300000D02*
X127100000Y-115726804D01*
D18*
%TO.N,+28V*%
X166700000Y-93600000D02*
X165350000Y-92250000D01*
X166250000Y-108100000D02*
X166700000Y-107650000D01*
X166700000Y-107650000D02*
X166700000Y-93600000D01*
%TO.N,Net-(L1-Pad1)*%
X147000000Y-97550000D02*
X147000000Y-104950000D01*
%TD*%
%TA.AperFunction,Conductor*%
%TO.N,GND*%
G36*
X158791581Y-66528530D02*
G01*
X161466170Y-66532144D01*
X161534264Y-66552238D01*
X161580684Y-66605957D01*
X161592000Y-66658144D01*
X161592000Y-75416298D01*
X161591998Y-75417068D01*
X161591524Y-75494652D01*
X161593990Y-75503281D01*
X161593991Y-75503286D01*
X161599639Y-75523048D01*
X161603217Y-75539809D01*
X161606130Y-75560152D01*
X161606133Y-75560162D01*
X161607405Y-75569045D01*
X161618021Y-75592395D01*
X161624464Y-75609907D01*
X161631512Y-75634565D01*
X161647274Y-75659548D01*
X161655404Y-75674614D01*
X161667633Y-75701510D01*
X161684374Y-75720939D01*
X161695479Y-75735947D01*
X161709160Y-75757631D01*
X161715888Y-75763573D01*
X161731296Y-75777181D01*
X161743340Y-75789373D01*
X161762619Y-75811747D01*
X161770147Y-75816626D01*
X161770150Y-75816629D01*
X161784139Y-75825696D01*
X161799013Y-75836986D01*
X161818228Y-75853956D01*
X161826354Y-75857771D01*
X161826355Y-75857772D01*
X161832021Y-75860432D01*
X161844966Y-75866510D01*
X161859935Y-75874824D01*
X161884727Y-75890893D01*
X161901650Y-75895954D01*
X161909290Y-75898239D01*
X161926736Y-75904901D01*
X161949948Y-75915799D01*
X161979130Y-75920343D01*
X161995849Y-75924126D01*
X162015536Y-75930014D01*
X162015539Y-75930015D01*
X162024141Y-75932587D01*
X162033116Y-75932642D01*
X162033117Y-75932642D01*
X162039810Y-75932683D01*
X162058556Y-75932797D01*
X162059328Y-75932830D01*
X162060423Y-75933000D01*
X162091298Y-75933000D01*
X162092068Y-75933002D01*
X162165716Y-75933452D01*
X162165717Y-75933452D01*
X162169652Y-75933476D01*
X162170996Y-75933092D01*
X162172341Y-75933000D01*
X166866000Y-75933000D01*
X166934121Y-75953002D01*
X166980614Y-76006658D01*
X166992000Y-76059000D01*
X166992000Y-92161574D01*
X166971998Y-92229695D01*
X166918342Y-92276188D01*
X166848068Y-92286292D01*
X166783488Y-92256798D01*
X166776905Y-92250670D01*
X166030094Y-91503860D01*
X166027925Y-91501691D01*
X165913739Y-91407897D01*
X165739437Y-91314438D01*
X165630781Y-91281218D01*
X165556200Y-91258416D01*
X165556198Y-91258416D01*
X165550302Y-91256613D01*
X165492449Y-91250736D01*
X165359666Y-91237248D01*
X165359661Y-91237248D01*
X165353538Y-91236626D01*
X165229475Y-91248354D01*
X165162771Y-91254659D01*
X165162769Y-91254659D01*
X165156638Y-91255239D01*
X165061871Y-91283490D01*
X164973007Y-91309981D01*
X164973005Y-91309982D01*
X164967104Y-91311741D01*
X164792154Y-91403982D01*
X164638453Y-91528447D01*
X164511854Y-91680396D01*
X164417178Y-91854041D01*
X164358035Y-92042768D01*
X164336676Y-92239388D01*
X164353913Y-92436413D01*
X164355632Y-92442330D01*
X164355633Y-92442335D01*
X164393614Y-92573064D01*
X164409091Y-92626336D01*
X164500108Y-92801926D01*
X164503948Y-92806736D01*
X164594542Y-92920223D01*
X164594549Y-92920230D01*
X164596738Y-92922973D01*
X164599233Y-92925468D01*
X165654595Y-93980829D01*
X165688620Y-94043141D01*
X165691500Y-94069924D01*
X165691500Y-107180076D01*
X165671498Y-107248197D01*
X165654595Y-107269171D01*
X165501691Y-107422075D01*
X165407897Y-107536261D01*
X165314438Y-107710563D01*
X165256613Y-107899698D01*
X165236626Y-108096462D01*
X165247722Y-108213846D01*
X165252827Y-108267842D01*
X165255239Y-108293362D01*
X165311741Y-108482896D01*
X165403982Y-108657846D01*
X165407858Y-108662632D01*
X165407859Y-108662634D01*
X165506330Y-108784235D01*
X165528447Y-108811547D01*
X165680396Y-108938146D01*
X165854041Y-109032822D01*
X165931433Y-109057075D01*
X166036886Y-109090122D01*
X166036889Y-109090123D01*
X166042768Y-109091965D01*
X166048891Y-109092630D01*
X166048895Y-109092631D01*
X166233263Y-109112659D01*
X166233267Y-109112659D01*
X166239388Y-109113324D01*
X166436413Y-109096087D01*
X166442330Y-109094368D01*
X166442335Y-109094367D01*
X166591826Y-109050935D01*
X166626336Y-109040909D01*
X166801926Y-108949892D01*
X166802320Y-108950652D01*
X166865404Y-108931804D01*
X166933618Y-108951484D01*
X166980365Y-109004919D01*
X166992000Y-109057803D01*
X166992000Y-141591000D01*
X166971998Y-141659121D01*
X166918342Y-141705614D01*
X166866000Y-141717000D01*
X160708702Y-141717000D01*
X160707932Y-141716998D01*
X160707078Y-141716993D01*
X160630348Y-141716524D01*
X160621719Y-141718990D01*
X160621714Y-141718991D01*
X160601952Y-141724639D01*
X160585191Y-141728217D01*
X160564848Y-141731130D01*
X160564838Y-141731133D01*
X160555955Y-141732405D01*
X160532605Y-141743021D01*
X160515093Y-141749464D01*
X160507057Y-141751761D01*
X160490435Y-141756512D01*
X160465452Y-141772274D01*
X160450386Y-141780404D01*
X160423490Y-141792633D01*
X160404061Y-141809374D01*
X160389053Y-141820479D01*
X160367369Y-141834160D01*
X160361427Y-141840888D01*
X160347819Y-141856296D01*
X160335627Y-141868340D01*
X160313253Y-141887619D01*
X160308374Y-141895147D01*
X160308371Y-141895150D01*
X160299304Y-141909139D01*
X160288014Y-141924013D01*
X160271044Y-141943228D01*
X160258490Y-141969966D01*
X160250176Y-141984935D01*
X160234107Y-142009727D01*
X160231535Y-142018327D01*
X160226761Y-142034290D01*
X160220099Y-142051736D01*
X160209201Y-142074948D01*
X160204658Y-142104128D01*
X160200874Y-142120849D01*
X160194986Y-142140536D01*
X160194985Y-142140539D01*
X160192413Y-142149141D01*
X160192358Y-142158116D01*
X160192358Y-142158117D01*
X160192203Y-142183546D01*
X160192170Y-142184328D01*
X160192000Y-142185423D01*
X160192000Y-142216298D01*
X160191998Y-142217068D01*
X160191524Y-142294652D01*
X160191908Y-142295996D01*
X160192000Y-142297341D01*
X160192000Y-150091000D01*
X160171998Y-150159121D01*
X160118342Y-150205614D01*
X160066000Y-150217000D01*
X127334000Y-150217000D01*
X127265879Y-150196998D01*
X127219386Y-150143342D01*
X127208000Y-150091000D01*
X127208000Y-148898134D01*
X128991500Y-148898134D01*
X128998255Y-148960316D01*
X129049385Y-149096705D01*
X129136739Y-149213261D01*
X129253295Y-149300615D01*
X129389684Y-149351745D01*
X129451866Y-149358500D01*
X131248134Y-149358500D01*
X131310316Y-149351745D01*
X131446705Y-149300615D01*
X131563261Y-149213261D01*
X131650615Y-149096705D01*
X131672799Y-149037529D01*
X131694598Y-148979382D01*
X131737240Y-148922618D01*
X131803802Y-148897918D01*
X131873150Y-148913126D01*
X131907817Y-148941114D01*
X131936250Y-148973938D01*
X132108126Y-149116632D01*
X132301000Y-149229338D01*
X132509692Y-149309030D01*
X132514760Y-149310061D01*
X132514763Y-149310062D01*
X132609862Y-149329410D01*
X132728597Y-149353567D01*
X132733772Y-149353757D01*
X132733774Y-149353757D01*
X132946673Y-149361564D01*
X132946677Y-149361564D01*
X132951837Y-149361753D01*
X132956957Y-149361097D01*
X132956959Y-149361097D01*
X133168288Y-149334025D01*
X133168289Y-149334025D01*
X133173416Y-149333368D01*
X133178366Y-149331883D01*
X133382429Y-149270661D01*
X133382434Y-149270659D01*
X133387384Y-149269174D01*
X133587994Y-149170896D01*
X133769860Y-149041173D01*
X133793223Y-149017892D01*
X133913616Y-148897918D01*
X133928096Y-148883489D01*
X133970888Y-148823938D01*
X134058453Y-148702077D01*
X134059776Y-148703028D01*
X134106645Y-148659857D01*
X134176580Y-148647625D01*
X134242026Y-148675144D01*
X134269875Y-148706994D01*
X134329987Y-148805088D01*
X134476250Y-148973938D01*
X134648126Y-149116632D01*
X134841000Y-149229338D01*
X135049692Y-149309030D01*
X135054760Y-149310061D01*
X135054763Y-149310062D01*
X135149862Y-149329410D01*
X135268597Y-149353567D01*
X135273772Y-149353757D01*
X135273774Y-149353757D01*
X135486673Y-149361564D01*
X135486677Y-149361564D01*
X135491837Y-149361753D01*
X135496957Y-149361097D01*
X135496959Y-149361097D01*
X135708288Y-149334025D01*
X135708289Y-149334025D01*
X135713416Y-149333368D01*
X135718366Y-149331883D01*
X135922429Y-149270661D01*
X135922434Y-149270659D01*
X135927384Y-149269174D01*
X136127994Y-149170896D01*
X136309860Y-149041173D01*
X136333223Y-149017892D01*
X136453616Y-148897918D01*
X136468096Y-148883489D01*
X136510888Y-148823938D01*
X136598453Y-148702077D01*
X136599640Y-148702930D01*
X136646960Y-148659362D01*
X136716897Y-148647145D01*
X136782338Y-148674678D01*
X136810166Y-148706511D01*
X136867694Y-148800388D01*
X136873777Y-148808699D01*
X137013213Y-148969667D01*
X137020580Y-148976883D01*
X137184434Y-149112916D01*
X137192881Y-149118831D01*
X137376756Y-149226279D01*
X137386042Y-149230729D01*
X137585001Y-149306703D01*
X137594899Y-149309579D01*
X137698250Y-149330606D01*
X137712299Y-149329410D01*
X137716000Y-149319065D01*
X137716000Y-149318517D01*
X138224000Y-149318517D01*
X138228064Y-149332359D01*
X138241478Y-149334393D01*
X138248184Y-149333534D01*
X138258262Y-149331392D01*
X138462255Y-149270191D01*
X138471842Y-149266433D01*
X138663095Y-149172739D01*
X138671945Y-149167464D01*
X138845328Y-149043792D01*
X138853200Y-149037139D01*
X139004052Y-148886812D01*
X139010730Y-148878965D01*
X139104741Y-148748134D01*
X142841500Y-148748134D01*
X142848255Y-148810316D01*
X142899385Y-148946705D01*
X142986739Y-149063261D01*
X143103295Y-149150615D01*
X143239684Y-149201745D01*
X143301866Y-149208500D01*
X145098134Y-149208500D01*
X145160316Y-149201745D01*
X145296705Y-149150615D01*
X145413261Y-149063261D01*
X145500615Y-148946705D01*
X145517550Y-148901531D01*
X145544598Y-148829382D01*
X145587240Y-148772618D01*
X145653802Y-148747918D01*
X145723150Y-148763126D01*
X145757817Y-148791114D01*
X145786250Y-148823938D01*
X145958126Y-148966632D01*
X146151000Y-149079338D01*
X146155825Y-149081180D01*
X146155826Y-149081181D01*
X146215298Y-149103891D01*
X146359692Y-149159030D01*
X146364760Y-149160061D01*
X146364763Y-149160062D01*
X146459862Y-149179410D01*
X146578597Y-149203567D01*
X146583772Y-149203757D01*
X146583774Y-149203757D01*
X146796673Y-149211564D01*
X146796677Y-149211564D01*
X146801837Y-149211753D01*
X146806957Y-149211097D01*
X146806959Y-149211097D01*
X147018288Y-149184025D01*
X147018289Y-149184025D01*
X147023416Y-149183368D01*
X147028366Y-149181883D01*
X147232429Y-149120661D01*
X147232434Y-149120659D01*
X147237384Y-149119174D01*
X147437994Y-149020896D01*
X147619860Y-148891173D01*
X147624237Y-148886812D01*
X147763616Y-148747918D01*
X147778096Y-148733489D01*
X147797135Y-148706994D01*
X147908453Y-148552077D01*
X147909776Y-148553028D01*
X147956645Y-148509857D01*
X148026580Y-148497625D01*
X148092026Y-148525144D01*
X148119875Y-148556994D01*
X148179987Y-148655088D01*
X148326250Y-148823938D01*
X148498126Y-148966632D01*
X148691000Y-149079338D01*
X148695825Y-149081180D01*
X148695826Y-149081181D01*
X148755298Y-149103891D01*
X148899692Y-149159030D01*
X148904760Y-149160061D01*
X148904763Y-149160062D01*
X148999862Y-149179410D01*
X149118597Y-149203567D01*
X149123772Y-149203757D01*
X149123774Y-149203757D01*
X149336673Y-149211564D01*
X149336677Y-149211564D01*
X149341837Y-149211753D01*
X149346957Y-149211097D01*
X149346959Y-149211097D01*
X149558288Y-149184025D01*
X149558289Y-149184025D01*
X149563416Y-149183368D01*
X149568366Y-149181883D01*
X149772429Y-149120661D01*
X149772434Y-149120659D01*
X149777384Y-149119174D01*
X149977994Y-149020896D01*
X150159860Y-148891173D01*
X150164237Y-148886812D01*
X150303616Y-148747918D01*
X150318096Y-148733489D01*
X150337135Y-148706994D01*
X150448453Y-148552077D01*
X150449776Y-148553028D01*
X150496645Y-148509857D01*
X150566580Y-148497625D01*
X150632026Y-148525144D01*
X150659875Y-148556994D01*
X150719987Y-148655088D01*
X150866250Y-148823938D01*
X151038126Y-148966632D01*
X151231000Y-149079338D01*
X151235825Y-149081180D01*
X151235826Y-149081181D01*
X151295298Y-149103891D01*
X151439692Y-149159030D01*
X151444760Y-149160061D01*
X151444763Y-149160062D01*
X151539862Y-149179410D01*
X151658597Y-149203567D01*
X151663772Y-149203757D01*
X151663774Y-149203757D01*
X151876673Y-149211564D01*
X151876677Y-149211564D01*
X151881837Y-149211753D01*
X151886957Y-149211097D01*
X151886959Y-149211097D01*
X152098288Y-149184025D01*
X152098289Y-149184025D01*
X152103416Y-149183368D01*
X152108366Y-149181883D01*
X152312429Y-149120661D01*
X152312434Y-149120659D01*
X152317384Y-149119174D01*
X152517994Y-149020896D01*
X152699860Y-148891173D01*
X152704237Y-148886812D01*
X152843616Y-148747918D01*
X152858096Y-148733489D01*
X152877135Y-148706994D01*
X152988453Y-148552077D01*
X152989776Y-148553028D01*
X153036645Y-148509857D01*
X153106580Y-148497625D01*
X153172026Y-148525144D01*
X153199875Y-148556994D01*
X153259987Y-148655088D01*
X153406250Y-148823938D01*
X153578126Y-148966632D01*
X153771000Y-149079338D01*
X153775825Y-149081180D01*
X153775826Y-149081181D01*
X153835298Y-149103891D01*
X153979692Y-149159030D01*
X153984760Y-149160061D01*
X153984763Y-149160062D01*
X154079862Y-149179410D01*
X154198597Y-149203567D01*
X154203772Y-149203757D01*
X154203774Y-149203757D01*
X154416673Y-149211564D01*
X154416677Y-149211564D01*
X154421837Y-149211753D01*
X154426957Y-149211097D01*
X154426959Y-149211097D01*
X154638288Y-149184025D01*
X154638289Y-149184025D01*
X154643416Y-149183368D01*
X154648366Y-149181883D01*
X154852429Y-149120661D01*
X154852434Y-149120659D01*
X154857384Y-149119174D01*
X155057994Y-149020896D01*
X155239860Y-148891173D01*
X155244237Y-148886812D01*
X155383616Y-148747918D01*
X155398096Y-148733489D01*
X155417135Y-148706994D01*
X155528453Y-148552077D01*
X155529640Y-148552930D01*
X155576960Y-148509362D01*
X155646897Y-148497145D01*
X155712338Y-148524678D01*
X155740166Y-148556511D01*
X155797694Y-148650388D01*
X155803777Y-148658699D01*
X155943213Y-148819667D01*
X155950580Y-148826883D01*
X156114434Y-148962916D01*
X156122881Y-148968831D01*
X156306756Y-149076279D01*
X156316042Y-149080729D01*
X156515001Y-149156703D01*
X156524899Y-149159579D01*
X156628250Y-149180606D01*
X156642299Y-149179410D01*
X156646000Y-149169065D01*
X156646000Y-149168517D01*
X157154000Y-149168517D01*
X157158064Y-149182359D01*
X157171478Y-149184393D01*
X157178184Y-149183534D01*
X157188262Y-149181392D01*
X157392255Y-149120191D01*
X157401842Y-149116433D01*
X157593095Y-149022739D01*
X157601945Y-149017464D01*
X157775328Y-148893792D01*
X157783200Y-148887139D01*
X157934052Y-148736812D01*
X157940730Y-148728965D01*
X158065003Y-148556020D01*
X158070313Y-148547183D01*
X158164670Y-148356267D01*
X158168469Y-148346672D01*
X158230377Y-148142910D01*
X158232555Y-148132837D01*
X158233986Y-148121962D01*
X158231775Y-148107778D01*
X158218617Y-148104000D01*
X157172115Y-148104000D01*
X157156876Y-148108475D01*
X157155671Y-148109865D01*
X157154000Y-148117548D01*
X157154000Y-149168517D01*
X156646000Y-149168517D01*
X156646000Y-147577885D01*
X157154000Y-147577885D01*
X157158475Y-147593124D01*
X157159865Y-147594329D01*
X157167548Y-147596000D01*
X158218344Y-147596000D01*
X158231875Y-147592027D01*
X158233180Y-147582947D01*
X158191214Y-147415875D01*
X158187894Y-147406124D01*
X158102972Y-147210814D01*
X158098105Y-147201739D01*
X157982426Y-147022926D01*
X157976136Y-147014757D01*
X157832806Y-146857240D01*
X157825273Y-146850215D01*
X157658139Y-146718222D01*
X157649552Y-146712517D01*
X157463117Y-146609599D01*
X157453705Y-146605369D01*
X157252959Y-146534280D01*
X157242988Y-146531646D01*
X157171837Y-146518972D01*
X157158540Y-146520432D01*
X157154000Y-146534989D01*
X157154000Y-147577885D01*
X156646000Y-147577885D01*
X156646000Y-146533102D01*
X156642082Y-146519758D01*
X156627806Y-146517771D01*
X156589324Y-146523660D01*
X156579288Y-146526051D01*
X156376868Y-146592212D01*
X156367359Y-146596209D01*
X156178463Y-146694542D01*
X156169738Y-146700036D01*
X155999433Y-146827905D01*
X155991726Y-146834748D01*
X155844590Y-146988717D01*
X155838109Y-146996722D01*
X155733498Y-147150074D01*
X155678587Y-147195076D01*
X155608062Y-147203247D01*
X155544315Y-147171993D01*
X155523618Y-147147509D01*
X155442822Y-147022617D01*
X155442820Y-147022614D01*
X155440014Y-147018277D01*
X155289670Y-146853051D01*
X155285619Y-146849852D01*
X155285615Y-146849848D01*
X155118414Y-146717800D01*
X155118410Y-146717798D01*
X155114359Y-146714598D01*
X155109831Y-146712098D01*
X155040734Y-146673955D01*
X154918789Y-146606638D01*
X154913920Y-146604914D01*
X154913916Y-146604912D01*
X154713087Y-146533795D01*
X154713083Y-146533794D01*
X154708212Y-146532069D01*
X154703119Y-146531162D01*
X154703116Y-146531161D01*
X154493373Y-146493800D01*
X154493367Y-146493799D01*
X154488284Y-146492894D01*
X154414452Y-146491992D01*
X154270081Y-146490228D01*
X154270079Y-146490228D01*
X154264911Y-146490165D01*
X154044091Y-146523955D01*
X153831756Y-146593357D01*
X153758757Y-146631358D01*
X153657975Y-146683822D01*
X153633607Y-146696507D01*
X153629474Y-146699610D01*
X153629471Y-146699612D01*
X153513429Y-146786739D01*
X153454965Y-146830635D01*
X153451393Y-146834373D01*
X153311622Y-146980635D01*
X153300629Y-146992138D01*
X153193201Y-147149621D01*
X153138293Y-147194621D01*
X153067768Y-147202792D01*
X153004021Y-147171538D01*
X152983324Y-147147054D01*
X152902822Y-147022617D01*
X152902820Y-147022614D01*
X152900014Y-147018277D01*
X152749670Y-146853051D01*
X152745619Y-146849852D01*
X152745615Y-146849848D01*
X152578414Y-146717800D01*
X152578410Y-146717798D01*
X152574359Y-146714598D01*
X152569831Y-146712098D01*
X152500734Y-146673955D01*
X152378789Y-146606638D01*
X152373920Y-146604914D01*
X152373916Y-146604912D01*
X152173087Y-146533795D01*
X152173083Y-146533794D01*
X152168212Y-146532069D01*
X152163119Y-146531162D01*
X152163116Y-146531161D01*
X151953373Y-146493800D01*
X151953367Y-146493799D01*
X151948284Y-146492894D01*
X151874452Y-146491992D01*
X151730081Y-146490228D01*
X151730079Y-146490228D01*
X151724911Y-146490165D01*
X151504091Y-146523955D01*
X151291756Y-146593357D01*
X151218757Y-146631358D01*
X151117975Y-146683822D01*
X151093607Y-146696507D01*
X151089474Y-146699610D01*
X151089471Y-146699612D01*
X150973429Y-146786739D01*
X150914965Y-146830635D01*
X150911393Y-146834373D01*
X150771622Y-146980635D01*
X150760629Y-146992138D01*
X150653201Y-147149621D01*
X150598293Y-147194621D01*
X150527768Y-147202792D01*
X150464021Y-147171538D01*
X150443324Y-147147054D01*
X150362822Y-147022617D01*
X150362820Y-147022614D01*
X150360014Y-147018277D01*
X150209670Y-146853051D01*
X150205619Y-146849852D01*
X150205615Y-146849848D01*
X150038414Y-146717800D01*
X150038410Y-146717798D01*
X150034359Y-146714598D01*
X150029835Y-146712101D01*
X150029831Y-146712098D01*
X149978608Y-146683822D01*
X149928636Y-146633390D01*
X149913500Y-146573513D01*
X149913500Y-142619206D01*
X149933502Y-142551085D01*
X149945864Y-142534896D01*
X149984621Y-142491852D01*
X149984622Y-142491851D01*
X149989040Y-142486944D01*
X150084527Y-142321556D01*
X150143542Y-142139928D01*
X150146413Y-142112618D01*
X150162814Y-141956565D01*
X150163504Y-141950000D01*
X150154921Y-141868341D01*
X150144232Y-141766635D01*
X150144232Y-141766633D01*
X150143542Y-141760072D01*
X150084527Y-141578444D01*
X149989040Y-141413056D01*
X149861253Y-141271134D01*
X149706752Y-141158882D01*
X149700724Y-141156198D01*
X149700722Y-141156197D01*
X149538319Y-141083891D01*
X149538318Y-141083891D01*
X149532288Y-141081206D01*
X149438887Y-141061353D01*
X149351944Y-141042872D01*
X149351939Y-141042872D01*
X149345487Y-141041500D01*
X149154513Y-141041500D01*
X149148061Y-141042872D01*
X149148056Y-141042872D01*
X149061113Y-141061353D01*
X148967712Y-141081206D01*
X148961682Y-141083891D01*
X148961681Y-141083891D01*
X148799278Y-141156197D01*
X148799276Y-141156198D01*
X148793248Y-141158882D01*
X148638747Y-141271134D01*
X148510960Y-141413056D01*
X148415473Y-141578444D01*
X148356458Y-141760072D01*
X148355768Y-141766633D01*
X148355768Y-141766635D01*
X148345079Y-141868341D01*
X148336496Y-141950000D01*
X148337186Y-141956565D01*
X148353588Y-142112618D01*
X148356458Y-142139928D01*
X148415473Y-142321556D01*
X148510960Y-142486944D01*
X148515378Y-142491851D01*
X148515379Y-142491852D01*
X148614136Y-142601533D01*
X148644854Y-142665540D01*
X148646500Y-142685843D01*
X148646500Y-146571692D01*
X148626498Y-146639813D01*
X148578683Y-146683453D01*
X148553607Y-146696507D01*
X148549474Y-146699610D01*
X148549471Y-146699612D01*
X148433429Y-146786739D01*
X148374965Y-146830635D01*
X148371393Y-146834373D01*
X148231622Y-146980635D01*
X148220629Y-146992138D01*
X148113201Y-147149621D01*
X148058293Y-147194621D01*
X147987768Y-147202792D01*
X147924021Y-147171538D01*
X147903324Y-147147054D01*
X147822822Y-147022617D01*
X147822820Y-147022614D01*
X147820014Y-147018277D01*
X147669670Y-146853051D01*
X147665619Y-146849852D01*
X147665615Y-146849848D01*
X147498414Y-146717800D01*
X147498410Y-146717798D01*
X147494359Y-146714598D01*
X147489835Y-146712101D01*
X147489831Y-146712098D01*
X147438608Y-146683822D01*
X147388636Y-146633390D01*
X147373500Y-146573513D01*
X147373500Y-138444263D01*
X147374027Y-138433079D01*
X147375701Y-138425591D01*
X147373562Y-138357532D01*
X147373500Y-138353575D01*
X147373500Y-138325644D01*
X147372994Y-138321638D01*
X147372061Y-138309792D01*
X147370922Y-138273537D01*
X147370673Y-138265610D01*
X147365022Y-138246158D01*
X147361014Y-138226806D01*
X147359467Y-138214563D01*
X147358474Y-138206703D01*
X147355556Y-138199332D01*
X147342200Y-138165597D01*
X147338355Y-138154370D01*
X147337721Y-138152187D01*
X147326018Y-138111907D01*
X147321984Y-138105085D01*
X147321981Y-138105079D01*
X147315706Y-138094468D01*
X147307010Y-138076718D01*
X147302472Y-138065256D01*
X147302469Y-138065251D01*
X147299552Y-138057883D01*
X147273573Y-138022125D01*
X147267057Y-138012207D01*
X147248575Y-137980957D01*
X147244542Y-137974137D01*
X147230218Y-137959813D01*
X147217376Y-137944778D01*
X147205472Y-137928393D01*
X147171406Y-137900211D01*
X147162627Y-137892222D01*
X146997122Y-137726717D01*
X146963096Y-137664405D01*
X146960907Y-137650792D01*
X146944232Y-137492135D01*
X146944232Y-137492133D01*
X146943542Y-137485572D01*
X146884527Y-137303944D01*
X146789040Y-137138556D01*
X146661253Y-136996634D01*
X146506752Y-136884382D01*
X146500724Y-136881698D01*
X146500722Y-136881697D01*
X146338319Y-136809391D01*
X146338318Y-136809391D01*
X146332288Y-136806706D01*
X146238888Y-136786853D01*
X146151944Y-136768372D01*
X146151939Y-136768372D01*
X146145487Y-136767000D01*
X145954513Y-136767000D01*
X145948061Y-136768372D01*
X145948056Y-136768372D01*
X145861112Y-136786853D01*
X145767712Y-136806706D01*
X145761682Y-136809391D01*
X145761681Y-136809391D01*
X145599278Y-136881697D01*
X145599276Y-136881698D01*
X145593248Y-136884382D01*
X145438747Y-136996634D01*
X145310960Y-137138556D01*
X145215473Y-137303944D01*
X145156458Y-137485572D01*
X145136496Y-137675500D01*
X145156458Y-137865428D01*
X145215473Y-138047056D01*
X145310960Y-138212444D01*
X145315378Y-138217351D01*
X145315379Y-138217352D01*
X145416447Y-138329599D01*
X145438747Y-138354366D01*
X145593248Y-138466618D01*
X145599276Y-138469302D01*
X145599278Y-138469303D01*
X145761681Y-138541609D01*
X145767712Y-138544294D01*
X145861113Y-138564147D01*
X145948056Y-138582628D01*
X145948061Y-138582628D01*
X145954513Y-138584000D01*
X145980500Y-138584000D01*
X146048621Y-138604002D01*
X146095114Y-138657658D01*
X146106500Y-138710000D01*
X146106500Y-146571692D01*
X146086498Y-146639813D01*
X146038683Y-146683453D01*
X146013607Y-146696507D01*
X146009474Y-146699610D01*
X146009471Y-146699612D01*
X145893429Y-146786739D01*
X145834965Y-146830635D01*
X145765530Y-146903295D01*
X145754283Y-146915064D01*
X145692759Y-146950494D01*
X145621846Y-146947037D01*
X145564060Y-146905791D01*
X145545207Y-146872243D01*
X145503767Y-146761703D01*
X145500615Y-146753295D01*
X145413261Y-146636739D01*
X145296705Y-146549385D01*
X145160316Y-146498255D01*
X145098134Y-146491500D01*
X143301866Y-146491500D01*
X143239684Y-146498255D01*
X143103295Y-146549385D01*
X142986739Y-146636739D01*
X142899385Y-146753295D01*
X142848255Y-146889684D01*
X142841500Y-146951866D01*
X142841500Y-148748134D01*
X139104741Y-148748134D01*
X139135003Y-148706020D01*
X139140313Y-148697183D01*
X139234670Y-148506267D01*
X139238469Y-148496672D01*
X139300377Y-148292910D01*
X139302555Y-148282837D01*
X139303986Y-148271962D01*
X139301775Y-148257778D01*
X139288617Y-148254000D01*
X138242115Y-148254000D01*
X138226876Y-148258475D01*
X138225671Y-148259865D01*
X138224000Y-148267548D01*
X138224000Y-149318517D01*
X137716000Y-149318517D01*
X137716000Y-147727885D01*
X138224000Y-147727885D01*
X138228475Y-147743124D01*
X138229865Y-147744329D01*
X138237548Y-147746000D01*
X139288344Y-147746000D01*
X139301875Y-147742027D01*
X139303180Y-147732947D01*
X139261214Y-147565875D01*
X139257894Y-147556124D01*
X139172972Y-147360814D01*
X139168105Y-147351739D01*
X139052426Y-147172926D01*
X139046136Y-147164757D01*
X138902806Y-147007240D01*
X138895273Y-147000215D01*
X138728139Y-146868222D01*
X138719552Y-146862517D01*
X138533117Y-146759599D01*
X138523705Y-146755369D01*
X138322959Y-146684280D01*
X138312988Y-146681646D01*
X138241837Y-146668972D01*
X138228540Y-146670432D01*
X138224000Y-146684989D01*
X138224000Y-147727885D01*
X137716000Y-147727885D01*
X137716000Y-146683102D01*
X137712082Y-146669758D01*
X137697806Y-146667771D01*
X137659324Y-146673660D01*
X137649288Y-146676051D01*
X137446868Y-146742212D01*
X137437359Y-146746209D01*
X137248463Y-146844542D01*
X137239738Y-146850036D01*
X137069433Y-146977905D01*
X137061726Y-146984748D01*
X136914590Y-147138717D01*
X136908109Y-147146722D01*
X136803498Y-147300074D01*
X136748587Y-147345076D01*
X136678062Y-147353247D01*
X136614315Y-147321993D01*
X136593618Y-147297509D01*
X136512822Y-147172617D01*
X136512820Y-147172614D01*
X136510014Y-147168277D01*
X136359670Y-147003051D01*
X136355619Y-146999852D01*
X136355615Y-146999848D01*
X136188414Y-146867800D01*
X136188410Y-146867798D01*
X136184359Y-146864598D01*
X136148028Y-146844542D01*
X136117210Y-146827530D01*
X135988789Y-146756638D01*
X135983920Y-146754914D01*
X135983916Y-146754912D01*
X135783087Y-146683795D01*
X135783083Y-146683794D01*
X135778212Y-146682069D01*
X135773119Y-146681162D01*
X135773116Y-146681161D01*
X135563373Y-146643800D01*
X135563367Y-146643799D01*
X135558284Y-146642894D01*
X135484452Y-146641992D01*
X135340081Y-146640228D01*
X135340079Y-146640228D01*
X135334911Y-146640165D01*
X135114091Y-146673955D01*
X134901756Y-146743357D01*
X134703607Y-146846507D01*
X134699474Y-146849610D01*
X134699471Y-146849612D01*
X134529100Y-146977530D01*
X134524965Y-146980635D01*
X134509897Y-146996403D01*
X134413729Y-147097037D01*
X134370629Y-147142138D01*
X134263201Y-147299621D01*
X134208293Y-147344621D01*
X134137768Y-147352792D01*
X134074021Y-147321538D01*
X134053324Y-147297054D01*
X133972822Y-147172617D01*
X133972820Y-147172614D01*
X133970014Y-147168277D01*
X133819670Y-147003051D01*
X133815619Y-146999852D01*
X133815615Y-146999848D01*
X133648414Y-146867800D01*
X133648410Y-146867798D01*
X133644359Y-146864598D01*
X133608028Y-146844542D01*
X133577210Y-146827530D01*
X133448789Y-146756638D01*
X133443920Y-146754914D01*
X133443916Y-146754912D01*
X133243087Y-146683795D01*
X133243083Y-146683794D01*
X133238212Y-146682069D01*
X133233119Y-146681162D01*
X133233116Y-146681161D01*
X133023373Y-146643800D01*
X133023367Y-146643799D01*
X133018284Y-146642894D01*
X132944452Y-146641992D01*
X132800081Y-146640228D01*
X132800079Y-146640228D01*
X132794911Y-146640165D01*
X132574091Y-146673955D01*
X132361756Y-146743357D01*
X132163607Y-146846507D01*
X132159474Y-146849610D01*
X132159471Y-146849612D01*
X131989100Y-146977530D01*
X131984965Y-146980635D01*
X131928537Y-147039684D01*
X131904283Y-147065064D01*
X131842759Y-147100494D01*
X131771846Y-147097037D01*
X131714060Y-147055791D01*
X131695207Y-147022243D01*
X131653767Y-146911703D01*
X131650615Y-146903295D01*
X131563261Y-146786739D01*
X131446705Y-146699385D01*
X131310316Y-146648255D01*
X131248134Y-146641500D01*
X129451866Y-146641500D01*
X129389684Y-146648255D01*
X129253295Y-146699385D01*
X129136739Y-146786739D01*
X129049385Y-146903295D01*
X128998255Y-147039684D01*
X128991500Y-147101866D01*
X128991500Y-148898134D01*
X127208000Y-148898134D01*
X127208000Y-142233702D01*
X127208002Y-142232932D01*
X127208421Y-142164322D01*
X127208476Y-142155348D01*
X127206010Y-142146719D01*
X127206009Y-142146714D01*
X127200361Y-142126952D01*
X127196783Y-142110191D01*
X127193870Y-142089848D01*
X127193867Y-142089838D01*
X127192595Y-142080955D01*
X127181979Y-142057605D01*
X127175536Y-142040093D01*
X127170954Y-142024063D01*
X127168488Y-142015435D01*
X127152726Y-141990452D01*
X127144596Y-141975386D01*
X127132367Y-141948490D01*
X127115626Y-141929061D01*
X127104521Y-141914053D01*
X127095630Y-141899961D01*
X127090840Y-141892369D01*
X127068703Y-141872818D01*
X127056659Y-141860626D01*
X127043239Y-141845051D01*
X127043237Y-141845050D01*
X127037381Y-141838253D01*
X127029853Y-141833374D01*
X127029850Y-141833371D01*
X127015861Y-141824304D01*
X127000987Y-141813014D01*
X126988502Y-141801988D01*
X126981772Y-141796044D01*
X126973646Y-141792229D01*
X126973645Y-141792228D01*
X126967979Y-141789568D01*
X126955034Y-141783490D01*
X126940065Y-141775176D01*
X126915273Y-141759107D01*
X126890709Y-141751761D01*
X126873264Y-141745099D01*
X126868827Y-141743016D01*
X126850052Y-141734201D01*
X126820870Y-141729657D01*
X126804151Y-141725874D01*
X126784464Y-141719986D01*
X126784461Y-141719985D01*
X126775859Y-141717413D01*
X126766884Y-141717358D01*
X126766883Y-141717358D01*
X126760190Y-141717317D01*
X126741444Y-141717203D01*
X126740672Y-141717170D01*
X126739577Y-141717000D01*
X126708702Y-141717000D01*
X126707932Y-141716998D01*
X126634284Y-141716548D01*
X126634283Y-141716548D01*
X126630348Y-141716524D01*
X126629004Y-141716908D01*
X126627659Y-141717000D01*
X120334000Y-141717000D01*
X120265879Y-141696998D01*
X120219386Y-141643342D01*
X120208000Y-141591000D01*
X120208000Y-116126000D01*
X120228002Y-116057879D01*
X120281658Y-116011386D01*
X120334000Y-116000000D01*
X125626710Y-116000000D01*
X125694831Y-116020002D01*
X125741324Y-116073658D01*
X125751428Y-116143932D01*
X125721934Y-116208512D01*
X125715807Y-116215093D01*
X125004860Y-116926039D01*
X124301304Y-117629595D01*
X124238992Y-117663621D01*
X124212209Y-117666500D01*
X122658200Y-117666500D01*
X122590079Y-117646498D01*
X122570853Y-117630157D01*
X122570580Y-117630460D01*
X122565668Y-117626037D01*
X122561253Y-117621134D01*
X122406752Y-117508882D01*
X122400724Y-117506198D01*
X122400722Y-117506197D01*
X122238319Y-117433891D01*
X122238318Y-117433891D01*
X122232288Y-117431206D01*
X122138887Y-117411353D01*
X122051944Y-117392872D01*
X122051939Y-117392872D01*
X122045487Y-117391500D01*
X121854513Y-117391500D01*
X121848061Y-117392872D01*
X121848056Y-117392872D01*
X121761113Y-117411353D01*
X121667712Y-117431206D01*
X121661682Y-117433891D01*
X121661681Y-117433891D01*
X121499278Y-117506197D01*
X121499276Y-117506198D01*
X121493248Y-117508882D01*
X121338747Y-117621134D01*
X121334326Y-117626044D01*
X121334325Y-117626045D01*
X121221758Y-117751064D01*
X121210960Y-117763056D01*
X121168717Y-117836223D01*
X121119579Y-117921333D01*
X121115473Y-117928444D01*
X121056458Y-118110072D01*
X121055768Y-118116633D01*
X121055768Y-118116635D01*
X121046355Y-118206197D01*
X121036496Y-118300000D01*
X121037186Y-118306565D01*
X121054235Y-118468774D01*
X121056458Y-118489928D01*
X121115473Y-118671556D01*
X121118776Y-118677278D01*
X121118777Y-118677279D01*
X121137303Y-118709366D01*
X121210960Y-118836944D01*
X121215378Y-118841851D01*
X121215379Y-118841852D01*
X121281863Y-118915690D01*
X121312581Y-118979697D01*
X121303816Y-119050151D01*
X121281863Y-119084310D01*
X121210960Y-119163056D01*
X121115473Y-119328444D01*
X121056458Y-119510072D01*
X121055768Y-119516633D01*
X121055768Y-119516635D01*
X121053118Y-119541852D01*
X121036496Y-119700000D01*
X121037186Y-119706565D01*
X121053955Y-119866109D01*
X121056458Y-119889928D01*
X121115473Y-120071556D01*
X121210960Y-120236944D01*
X121338747Y-120378866D01*
X121493248Y-120491118D01*
X121499276Y-120493802D01*
X121499278Y-120493803D01*
X121607558Y-120542012D01*
X121667712Y-120568794D01*
X121761113Y-120588647D01*
X121848056Y-120607128D01*
X121848061Y-120607128D01*
X121854513Y-120608500D01*
X122045487Y-120608500D01*
X122051939Y-120607128D01*
X122051944Y-120607128D01*
X122138887Y-120588647D01*
X122232288Y-120568794D01*
X122292442Y-120542012D01*
X122400722Y-120493803D01*
X122400724Y-120493802D01*
X122406752Y-120491118D01*
X122561253Y-120378866D01*
X122565668Y-120373963D01*
X122570580Y-120369540D01*
X122571705Y-120370789D01*
X122625014Y-120337949D01*
X122658200Y-120333500D01*
X123666405Y-120333500D01*
X123734526Y-120353502D01*
X123781019Y-120407158D01*
X123791123Y-120477432D01*
X123761629Y-120542012D01*
X123755500Y-120548595D01*
X123599500Y-120704595D01*
X123537188Y-120738621D01*
X123510405Y-120741500D01*
X123454513Y-120741500D01*
X123448061Y-120742872D01*
X123448056Y-120742872D01*
X123361113Y-120761353D01*
X123267712Y-120781206D01*
X123261682Y-120783891D01*
X123261681Y-120783891D01*
X123099278Y-120856197D01*
X123099276Y-120856198D01*
X123093248Y-120858882D01*
X122938747Y-120971134D01*
X122810960Y-121113056D01*
X122715473Y-121278444D01*
X122656458Y-121460072D01*
X122636496Y-121650000D01*
X122656458Y-121839928D01*
X122715473Y-122021556D01*
X122810960Y-122186944D01*
X122815378Y-122191851D01*
X122815379Y-122191852D01*
X122855980Y-122236944D01*
X122938747Y-122328866D01*
X123007566Y-122378866D01*
X123073803Y-122426990D01*
X123093248Y-122441118D01*
X123099276Y-122443802D01*
X123099278Y-122443803D01*
X123196833Y-122487237D01*
X123267712Y-122518794D01*
X123361112Y-122538647D01*
X123448056Y-122557128D01*
X123448061Y-122557128D01*
X123454513Y-122558500D01*
X123645487Y-122558500D01*
X123651939Y-122557128D01*
X123651944Y-122557128D01*
X123738888Y-122538647D01*
X123832288Y-122518794D01*
X123838319Y-122516109D01*
X124000718Y-122443805D01*
X124000722Y-122443803D01*
X124000918Y-122443716D01*
X124000920Y-122443715D01*
X124006752Y-122441118D01*
X124007227Y-122442184D01*
X124069834Y-122426990D01*
X124137908Y-122450911D01*
X124193248Y-122491118D01*
X124199276Y-122493802D01*
X124199278Y-122493803D01*
X124344591Y-122558500D01*
X124367712Y-122568794D01*
X124461113Y-122588647D01*
X124548056Y-122607128D01*
X124548061Y-122607128D01*
X124554513Y-122608500D01*
X124745487Y-122608500D01*
X124751939Y-122607128D01*
X124751944Y-122607128D01*
X124838887Y-122588647D01*
X124932288Y-122568794D01*
X124955409Y-122558500D01*
X125100722Y-122493803D01*
X125100724Y-122493802D01*
X125106752Y-122491118D01*
X125261253Y-122378866D01*
X125389040Y-122236944D01*
X125484527Y-122071556D01*
X125543542Y-121889928D01*
X125560907Y-121724706D01*
X125587920Y-121659050D01*
X125597122Y-121648782D01*
X128445905Y-118800000D01*
X132236496Y-118800000D01*
X132237186Y-118806565D01*
X132255383Y-118979697D01*
X132256458Y-118989928D01*
X132315473Y-119171556D01*
X132410960Y-119336944D01*
X132538747Y-119478866D01*
X132693248Y-119591118D01*
X132699276Y-119593802D01*
X132699278Y-119593803D01*
X132861681Y-119666109D01*
X132867712Y-119668794D01*
X132933365Y-119682749D01*
X133048056Y-119707128D01*
X133048061Y-119707128D01*
X133054513Y-119708500D01*
X133245487Y-119708500D01*
X133251939Y-119707128D01*
X133251944Y-119707128D01*
X133366635Y-119682749D01*
X133432288Y-119668794D01*
X133438319Y-119666109D01*
X133600722Y-119593803D01*
X133600724Y-119593802D01*
X133606752Y-119591118D01*
X133761253Y-119478866D01*
X133889040Y-119336944D01*
X133984527Y-119171556D01*
X134040269Y-119000000D01*
X135186496Y-119000000D01*
X135187186Y-119006565D01*
X135205129Y-119177279D01*
X135206458Y-119189928D01*
X135265473Y-119371556D01*
X135360960Y-119536944D01*
X135365378Y-119541851D01*
X135365379Y-119541852D01*
X135479678Y-119668794D01*
X135488747Y-119678866D01*
X135643248Y-119791118D01*
X135649276Y-119793802D01*
X135649278Y-119793803D01*
X135811681Y-119866109D01*
X135817712Y-119868794D01*
X135886263Y-119883365D01*
X135998056Y-119907128D01*
X135998061Y-119907128D01*
X136004513Y-119908500D01*
X136195487Y-119908500D01*
X136201939Y-119907128D01*
X136201944Y-119907128D01*
X136313737Y-119883365D01*
X136382288Y-119868794D01*
X136388319Y-119866109D01*
X136550722Y-119793803D01*
X136550724Y-119793802D01*
X136556752Y-119791118D01*
X136711253Y-119678866D01*
X136720322Y-119668794D01*
X136834621Y-119541852D01*
X136834622Y-119541851D01*
X136839040Y-119536944D01*
X136934527Y-119371556D01*
X136993542Y-119189928D01*
X136994872Y-119177279D01*
X137010907Y-119024707D01*
X137037920Y-118959050D01*
X137047122Y-118948782D01*
X137075499Y-118920405D01*
X137137811Y-118886379D01*
X137164594Y-118883500D01*
X138921233Y-118883500D01*
X138932416Y-118884027D01*
X138939909Y-118885702D01*
X138947835Y-118885453D01*
X138947836Y-118885453D01*
X139007986Y-118883562D01*
X139011945Y-118883500D01*
X139039856Y-118883500D01*
X139043791Y-118883003D01*
X139043856Y-118882995D01*
X139055693Y-118882062D01*
X139087951Y-118881048D01*
X139091970Y-118880922D01*
X139099889Y-118880673D01*
X139119343Y-118875021D01*
X139138700Y-118871013D01*
X139150930Y-118869468D01*
X139150931Y-118869468D01*
X139158797Y-118868474D01*
X139166168Y-118865555D01*
X139166170Y-118865555D01*
X139199912Y-118852196D01*
X139211142Y-118848351D01*
X139245983Y-118838229D01*
X139245984Y-118838229D01*
X139253593Y-118836018D01*
X139260412Y-118831985D01*
X139260417Y-118831983D01*
X139271028Y-118825707D01*
X139288776Y-118817012D01*
X139307617Y-118809552D01*
X139315543Y-118803794D01*
X139343387Y-118783564D01*
X139353307Y-118777048D01*
X139384535Y-118758580D01*
X139384538Y-118758578D01*
X139391362Y-118754542D01*
X139405683Y-118740221D01*
X139420717Y-118727380D01*
X139430694Y-118720131D01*
X139437107Y-118715472D01*
X139465298Y-118681395D01*
X139473288Y-118672616D01*
X140692247Y-117453657D01*
X140700537Y-117446113D01*
X140707018Y-117442000D01*
X140718259Y-117430030D01*
X140753658Y-117392333D01*
X140756413Y-117389491D01*
X140776135Y-117369769D01*
X140778612Y-117366576D01*
X140786317Y-117357555D01*
X140811159Y-117331100D01*
X140816586Y-117325321D01*
X140822710Y-117314181D01*
X140826346Y-117307568D01*
X140837202Y-117291041D01*
X140844757Y-117281302D01*
X140844758Y-117281300D01*
X140849614Y-117275040D01*
X140867174Y-117234460D01*
X140872391Y-117223812D01*
X140889875Y-117192009D01*
X140889876Y-117192007D01*
X140893695Y-117185060D01*
X140898733Y-117165437D01*
X140905137Y-117146734D01*
X140910033Y-117135420D01*
X140910033Y-117135419D01*
X140913181Y-117128145D01*
X140914420Y-117120322D01*
X140914423Y-117120312D01*
X140920099Y-117084476D01*
X140922505Y-117072856D01*
X140931528Y-117037711D01*
X140931528Y-117037710D01*
X140933500Y-117030030D01*
X140933500Y-117009776D01*
X140935051Y-116990065D01*
X140936980Y-116977886D01*
X140938220Y-116970057D01*
X140934059Y-116926038D01*
X140933500Y-116914181D01*
X140933500Y-115802524D01*
X140953502Y-115734403D01*
X140965858Y-115718221D01*
X141039040Y-115636944D01*
X141134527Y-115471556D01*
X141193542Y-115289928D01*
X141213504Y-115100000D01*
X141193542Y-114910072D01*
X141134527Y-114728444D01*
X141039040Y-114563056D01*
X140911253Y-114421134D01*
X140756752Y-114308882D01*
X140750724Y-114306198D01*
X140750722Y-114306197D01*
X140588319Y-114233891D01*
X140588318Y-114233891D01*
X140582288Y-114231206D01*
X140488888Y-114211353D01*
X140401944Y-114192872D01*
X140401939Y-114192872D01*
X140395487Y-114191500D01*
X140204513Y-114191500D01*
X140198061Y-114192872D01*
X140198056Y-114192872D01*
X140111112Y-114211353D01*
X140017712Y-114231206D01*
X140011682Y-114233891D01*
X140011681Y-114233891D01*
X139849278Y-114306197D01*
X139849276Y-114306198D01*
X139843248Y-114308882D01*
X139688747Y-114421134D01*
X139560960Y-114563056D01*
X139465473Y-114728444D01*
X139406458Y-114910072D01*
X139386496Y-115100000D01*
X139406458Y-115289928D01*
X139465473Y-115471556D01*
X139560960Y-115636944D01*
X139634137Y-115718215D01*
X139664853Y-115782221D01*
X139666500Y-115802524D01*
X139666500Y-116635405D01*
X139646498Y-116703526D01*
X139629595Y-116724501D01*
X138774499Y-117579596D01*
X138712187Y-117613621D01*
X138685404Y-117616500D01*
X136928767Y-117616500D01*
X136917584Y-117615973D01*
X136910091Y-117614298D01*
X136902165Y-117614547D01*
X136902164Y-117614547D01*
X136842014Y-117616438D01*
X136838055Y-117616500D01*
X136810144Y-117616500D01*
X136806210Y-117616997D01*
X136806209Y-117616997D01*
X136806144Y-117617005D01*
X136794307Y-117617938D01*
X136762490Y-117618938D01*
X136758029Y-117619078D01*
X136750110Y-117619327D01*
X136734706Y-117623802D01*
X136730658Y-117624978D01*
X136711306Y-117628986D01*
X136704235Y-117629880D01*
X136691203Y-117631526D01*
X136683834Y-117634443D01*
X136683832Y-117634444D01*
X136650097Y-117647800D01*
X136638869Y-117651645D01*
X136596407Y-117663982D01*
X136589585Y-117668016D01*
X136589579Y-117668019D01*
X136578968Y-117674294D01*
X136561218Y-117682990D01*
X136549756Y-117687528D01*
X136549751Y-117687531D01*
X136542383Y-117690448D01*
X136535968Y-117695109D01*
X136506625Y-117716427D01*
X136496707Y-117722943D01*
X136482915Y-117731100D01*
X136458637Y-117745458D01*
X136444313Y-117759782D01*
X136429281Y-117772621D01*
X136412893Y-117784528D01*
X136396065Y-117804870D01*
X136384712Y-117818593D01*
X136376722Y-117827373D01*
X136149500Y-118054595D01*
X136087188Y-118088621D01*
X136060405Y-118091500D01*
X136004513Y-118091500D01*
X135998061Y-118092872D01*
X135998056Y-118092872D01*
X135917139Y-118110072D01*
X135817712Y-118131206D01*
X135811682Y-118133891D01*
X135811681Y-118133891D01*
X135649278Y-118206197D01*
X135649276Y-118206198D01*
X135643248Y-118208882D01*
X135637907Y-118212762D01*
X135637906Y-118212763D01*
X135619636Y-118226037D01*
X135488747Y-118321134D01*
X135360960Y-118463056D01*
X135265473Y-118628444D01*
X135206458Y-118810072D01*
X135205768Y-118816633D01*
X135205768Y-118816635D01*
X135198793Y-118883003D01*
X135186496Y-119000000D01*
X134040269Y-119000000D01*
X134043542Y-118989928D01*
X134044618Y-118979697D01*
X134062814Y-118806565D01*
X134063504Y-118800000D01*
X134058726Y-118754542D01*
X134044232Y-118616635D01*
X134044232Y-118616633D01*
X134043542Y-118610072D01*
X133984527Y-118428444D01*
X133889040Y-118263056D01*
X133815863Y-118181785D01*
X133785147Y-118117779D01*
X133783500Y-118097476D01*
X133783500Y-113850080D01*
X133803502Y-113781959D01*
X133858251Y-113734973D01*
X133956752Y-113691118D01*
X134111253Y-113578866D01*
X134239040Y-113436944D01*
X134334527Y-113271556D01*
X134393542Y-113089928D01*
X134401424Y-113014940D01*
X134412814Y-112906565D01*
X134413504Y-112900000D01*
X134393542Y-112710072D01*
X134334527Y-112528444D01*
X134239040Y-112363056D01*
X134111253Y-112221134D01*
X133956752Y-112108882D01*
X133950724Y-112106198D01*
X133950722Y-112106197D01*
X133788319Y-112033891D01*
X133788318Y-112033891D01*
X133782288Y-112031206D01*
X133688888Y-112011353D01*
X133601944Y-111992872D01*
X133601939Y-111992872D01*
X133595487Y-111991500D01*
X133404513Y-111991500D01*
X133398061Y-111992872D01*
X133398056Y-111992872D01*
X133311112Y-112011353D01*
X133217712Y-112031206D01*
X133211682Y-112033891D01*
X133211681Y-112033891D01*
X133049278Y-112106197D01*
X133049276Y-112106198D01*
X133043248Y-112108882D01*
X132888747Y-112221134D01*
X132760960Y-112363056D01*
X132665473Y-112528444D01*
X132606458Y-112710072D01*
X132586496Y-112900000D01*
X132587186Y-112906565D01*
X132587186Y-112906569D01*
X132587664Y-112911116D01*
X132572770Y-112984989D01*
X132556305Y-113014940D01*
X132554334Y-113022615D01*
X132554334Y-113022616D01*
X132551267Y-113034562D01*
X132544863Y-113053266D01*
X132536819Y-113071855D01*
X132535580Y-113079678D01*
X132535577Y-113079688D01*
X132529901Y-113115524D01*
X132527495Y-113127144D01*
X132516500Y-113169970D01*
X132516500Y-113190224D01*
X132514949Y-113209934D01*
X132511780Y-113229943D01*
X132512526Y-113237835D01*
X132515941Y-113273961D01*
X132516500Y-113285819D01*
X132516500Y-118097476D01*
X132496498Y-118165597D01*
X132484142Y-118181779D01*
X132410960Y-118263056D01*
X132315473Y-118428444D01*
X132256458Y-118610072D01*
X132255768Y-118616633D01*
X132255768Y-118616635D01*
X132241274Y-118754542D01*
X132236496Y-118800000D01*
X128445905Y-118800000D01*
X129392253Y-117853652D01*
X129400539Y-117846112D01*
X129407018Y-117842000D01*
X129453644Y-117792348D01*
X129456398Y-117789507D01*
X129476135Y-117769770D01*
X129478615Y-117766573D01*
X129486320Y-117757551D01*
X129511159Y-117731100D01*
X129516586Y-117725321D01*
X129520405Y-117718375D01*
X129520407Y-117718372D01*
X129526348Y-117707566D01*
X129537199Y-117691047D01*
X129544758Y-117681301D01*
X129549614Y-117675041D01*
X129552759Y-117667772D01*
X129552762Y-117667768D01*
X129567174Y-117634463D01*
X129572391Y-117623813D01*
X129593695Y-117585060D01*
X129598733Y-117565437D01*
X129605137Y-117546734D01*
X129610033Y-117535420D01*
X129610033Y-117535419D01*
X129613181Y-117528145D01*
X129614420Y-117520322D01*
X129614423Y-117520312D01*
X129620099Y-117484476D01*
X129622505Y-117472856D01*
X129631528Y-117437711D01*
X129631528Y-117437710D01*
X129633500Y-117430030D01*
X129633500Y-117409776D01*
X129635051Y-117390065D01*
X129636980Y-117377886D01*
X129638220Y-117370057D01*
X129634059Y-117326038D01*
X129633500Y-117314181D01*
X129633500Y-109952524D01*
X129653502Y-109884403D01*
X129665858Y-109868221D01*
X129739040Y-109786944D01*
X129834527Y-109621556D01*
X129893542Y-109439928D01*
X129913504Y-109250000D01*
X129896894Y-109091965D01*
X129894232Y-109066635D01*
X129894232Y-109066633D01*
X129893542Y-109060072D01*
X129834527Y-108878444D01*
X129827488Y-108866251D01*
X129742341Y-108718774D01*
X129739040Y-108713056D01*
X129705940Y-108676294D01*
X129615675Y-108576045D01*
X129615674Y-108576044D01*
X129611253Y-108571134D01*
X129456752Y-108458882D01*
X129450724Y-108456198D01*
X129450722Y-108456197D01*
X129288319Y-108383891D01*
X129288318Y-108383891D01*
X129282288Y-108381206D01*
X129188887Y-108361353D01*
X129101944Y-108342872D01*
X129101939Y-108342872D01*
X129095487Y-108341500D01*
X129034989Y-108341500D01*
X128966868Y-108321498D01*
X128920375Y-108267842D01*
X128908989Y-108215500D01*
X128908989Y-97434011D01*
X128928991Y-97365890D01*
X128982647Y-97319397D01*
X129034989Y-97308011D01*
X131296722Y-97308011D01*
X131307905Y-97308538D01*
X131315398Y-97310213D01*
X131323324Y-97309964D01*
X131323325Y-97309964D01*
X131383475Y-97308073D01*
X131387434Y-97308011D01*
X131415345Y-97308011D01*
X131419280Y-97307514D01*
X131419345Y-97307506D01*
X131431182Y-97306573D01*
X131463440Y-97305559D01*
X131467459Y-97305433D01*
X131475378Y-97305184D01*
X131494832Y-97299532D01*
X131514189Y-97295524D01*
X131526419Y-97293979D01*
X131526420Y-97293979D01*
X131534286Y-97292985D01*
X131541657Y-97290066D01*
X131541659Y-97290066D01*
X131575401Y-97276707D01*
X131586631Y-97272862D01*
X131621472Y-97262740D01*
X131621473Y-97262740D01*
X131629082Y-97260529D01*
X131635901Y-97256496D01*
X131635906Y-97256494D01*
X131646517Y-97250218D01*
X131664265Y-97241523D01*
X131683106Y-97234063D01*
X131718876Y-97208075D01*
X131728796Y-97201559D01*
X131760024Y-97183091D01*
X131760027Y-97183089D01*
X131766851Y-97179053D01*
X131781172Y-97164732D01*
X131796206Y-97151891D01*
X131812596Y-97139983D01*
X131840787Y-97105906D01*
X131848777Y-97097127D01*
X133050500Y-95895405D01*
X133112812Y-95861379D01*
X133139595Y-95858500D01*
X133195487Y-95858500D01*
X133201939Y-95857128D01*
X133201944Y-95857128D01*
X133288887Y-95838647D01*
X133382288Y-95818794D01*
X133388319Y-95816109D01*
X133550722Y-95743803D01*
X133550724Y-95743802D01*
X133556752Y-95741118D01*
X133711253Y-95628866D01*
X133839040Y-95486944D01*
X133934527Y-95321556D01*
X133993542Y-95139928D01*
X134013504Y-94950000D01*
X133993542Y-94760072D01*
X133934527Y-94578444D01*
X133839040Y-94413056D01*
X133711253Y-94271134D01*
X133556752Y-94158882D01*
X133550724Y-94156198D01*
X133550722Y-94156197D01*
X133388319Y-94083891D01*
X133388318Y-94083891D01*
X133382288Y-94081206D01*
X133288887Y-94061353D01*
X133201944Y-94042872D01*
X133201939Y-94042872D01*
X133195487Y-94041500D01*
X133004513Y-94041500D01*
X132998061Y-94042872D01*
X132998056Y-94042872D01*
X132911112Y-94061353D01*
X132817712Y-94081206D01*
X132811682Y-94083891D01*
X132811681Y-94083891D01*
X132649278Y-94156197D01*
X132649276Y-94156198D01*
X132643248Y-94158882D01*
X132488747Y-94271134D01*
X132360960Y-94413056D01*
X132265473Y-94578444D01*
X132206458Y-94760072D01*
X132205768Y-94766633D01*
X132205768Y-94766635D01*
X132189093Y-94925293D01*
X132162080Y-94990950D01*
X132152878Y-95001218D01*
X131149989Y-96004106D01*
X131087677Y-96038132D01*
X131060894Y-96041011D01*
X128347282Y-96041011D01*
X128323673Y-96038779D01*
X128323370Y-96038721D01*
X128323366Y-96038721D01*
X128315583Y-96037236D01*
X128259538Y-96040762D01*
X128251627Y-96041011D01*
X128235633Y-96041011D01*
X128219759Y-96043017D01*
X128211899Y-96043759D01*
X128184440Y-96045487D01*
X128163752Y-96046788D01*
X128163751Y-96046788D01*
X128155839Y-96047286D01*
X128148298Y-96049736D01*
X128148002Y-96049832D01*
X128124858Y-96055005D01*
X128124554Y-96055043D01*
X128124549Y-96055044D01*
X128116692Y-96056037D01*
X128109327Y-96058953D01*
X128109323Y-96058954D01*
X128064478Y-96076710D01*
X128057059Y-96079382D01*
X128003614Y-96096747D01*
X127996918Y-96100997D01*
X127996917Y-96100997D01*
X127996658Y-96101161D01*
X127975531Y-96111926D01*
X127975243Y-96112040D01*
X127975238Y-96112043D01*
X127967872Y-96114959D01*
X127961464Y-96119615D01*
X127961458Y-96119618D01*
X127922437Y-96147969D01*
X127915900Y-96152412D01*
X127868471Y-96182511D01*
X127863045Y-96188289D01*
X127863044Y-96188290D01*
X127862830Y-96188518D01*
X127845037Y-96204204D01*
X127840551Y-96207463D01*
X127773682Y-96231319D01*
X127704531Y-96215236D01*
X127692433Y-96207460D01*
X127562094Y-96112763D01*
X127562093Y-96112762D01*
X127556752Y-96108882D01*
X127550724Y-96106198D01*
X127550722Y-96106197D01*
X127388319Y-96033891D01*
X127388318Y-96033891D01*
X127382288Y-96031206D01*
X127288888Y-96011353D01*
X127201944Y-95992872D01*
X127201939Y-95992872D01*
X127195487Y-95991500D01*
X127004513Y-95991500D01*
X126998061Y-95992872D01*
X126998056Y-95992872D01*
X126824167Y-96029834D01*
X126817712Y-96031206D01*
X126813998Y-96032860D01*
X126743968Y-96034860D01*
X126683170Y-95998197D01*
X126651845Y-95934485D01*
X126650000Y-95913000D01*
X126650000Y-88000000D01*
X120334000Y-88000000D01*
X120265879Y-87979998D01*
X120219386Y-87926342D01*
X120208000Y-87874000D01*
X120208000Y-82526695D01*
X121887251Y-82526695D01*
X121887548Y-82531848D01*
X121887548Y-82531851D01*
X121899233Y-82734500D01*
X121900110Y-82749715D01*
X121901247Y-82754761D01*
X121901248Y-82754767D01*
X121921119Y-82842939D01*
X121949222Y-82967639D01*
X122033266Y-83174616D01*
X122149987Y-83365088D01*
X122296250Y-83533938D01*
X122300230Y-83537242D01*
X122304981Y-83541187D01*
X122344616Y-83600090D01*
X122346113Y-83671071D01*
X122308997Y-83731593D01*
X122268724Y-83756112D01*
X122153295Y-83799385D01*
X122036739Y-83886739D01*
X121949385Y-84003295D01*
X121898255Y-84139684D01*
X121891500Y-84201866D01*
X121891500Y-85998134D01*
X121898255Y-86060316D01*
X121949385Y-86196705D01*
X122036739Y-86313261D01*
X122153295Y-86400615D01*
X122289684Y-86451745D01*
X122351866Y-86458500D01*
X124148134Y-86458500D01*
X124210316Y-86451745D01*
X124346705Y-86400615D01*
X124463261Y-86313261D01*
X124550615Y-86196705D01*
X124601745Y-86060316D01*
X124608500Y-85998134D01*
X124608500Y-85474500D01*
X137636496Y-85474500D01*
X137656458Y-85664428D01*
X137715473Y-85846056D01*
X137810960Y-86011444D01*
X137815378Y-86016351D01*
X137815379Y-86016352D01*
X137934325Y-86148455D01*
X137938747Y-86153366D01*
X138093248Y-86265618D01*
X138099276Y-86268302D01*
X138099278Y-86268303D01*
X138200256Y-86313261D01*
X138267712Y-86343294D01*
X138361113Y-86363147D01*
X138448056Y-86381628D01*
X138448061Y-86381628D01*
X138454513Y-86383000D01*
X138645487Y-86383000D01*
X138651939Y-86381628D01*
X138651944Y-86381628D01*
X138738888Y-86363147D01*
X138832288Y-86343294D01*
X138899744Y-86313261D01*
X139000722Y-86268303D01*
X139000724Y-86268302D01*
X139006752Y-86265618D01*
X139161253Y-86153366D01*
X139165675Y-86148455D01*
X139284621Y-86016352D01*
X139284622Y-86016351D01*
X139289040Y-86011444D01*
X139384527Y-85846056D01*
X139443542Y-85664428D01*
X139460907Y-85499206D01*
X139487920Y-85433550D01*
X139497122Y-85423282D01*
X142275000Y-82645405D01*
X142337312Y-82611379D01*
X142364095Y-82608500D01*
X142790011Y-82608500D01*
X142858132Y-82628502D01*
X142904625Y-82682158D01*
X142916011Y-82734500D01*
X142916011Y-100085895D01*
X142896009Y-100154016D01*
X142879106Y-100174990D01*
X139349500Y-103704595D01*
X139287188Y-103738621D01*
X139260405Y-103741500D01*
X139204513Y-103741500D01*
X139198061Y-103742872D01*
X139198056Y-103742872D01*
X139111112Y-103761353D01*
X139017712Y-103781206D01*
X139011682Y-103783891D01*
X139011681Y-103783891D01*
X138849278Y-103856197D01*
X138849276Y-103856198D01*
X138843248Y-103858882D01*
X138688747Y-103971134D01*
X138560960Y-104113056D01*
X138465473Y-104278444D01*
X138406458Y-104460072D01*
X138405768Y-104466633D01*
X138405768Y-104466635D01*
X138398870Y-104532266D01*
X138386496Y-104650000D01*
X138406458Y-104839928D01*
X138465473Y-105021556D01*
X138468776Y-105027278D01*
X138468777Y-105027279D01*
X138518921Y-105114130D01*
X138560960Y-105186944D01*
X138565375Y-105191847D01*
X138565589Y-105192142D01*
X138589447Y-105259010D01*
X138572771Y-105329201D01*
X138520680Y-105419426D01*
X138515473Y-105428444D01*
X138456458Y-105610072D01*
X138455768Y-105616633D01*
X138455768Y-105616635D01*
X138447712Y-105693287D01*
X138436496Y-105800000D01*
X138456458Y-105989928D01*
X138515473Y-106171556D01*
X138610960Y-106336944D01*
X138738747Y-106478866D01*
X138893248Y-106591118D01*
X138899276Y-106593802D01*
X138899278Y-106593803D01*
X139061681Y-106666109D01*
X139067712Y-106668794D01*
X139161112Y-106688647D01*
X139248056Y-106707128D01*
X139248061Y-106707128D01*
X139254513Y-106708500D01*
X139445487Y-106708500D01*
X139451939Y-106707128D01*
X139451944Y-106707128D01*
X139538887Y-106688647D01*
X139632288Y-106668794D01*
X139638319Y-106666109D01*
X139800722Y-106593803D01*
X139800724Y-106593802D01*
X139806752Y-106591118D01*
X139961253Y-106478866D01*
X140089040Y-106336944D01*
X140184527Y-106171556D01*
X140243542Y-105989928D01*
X140263504Y-105800000D01*
X140252686Y-105697071D01*
X140251432Y-105685136D01*
X140264205Y-105615298D01*
X140287647Y-105582871D01*
X140931130Y-104939388D01*
X145986676Y-104939388D01*
X145987213Y-104945523D01*
X145991050Y-104989388D01*
X145991379Y-104994214D01*
X145991500Y-104996686D01*
X145991500Y-104999769D01*
X145991801Y-105002837D01*
X145995690Y-105042506D01*
X145995812Y-105043819D01*
X146003913Y-105136413D01*
X146005400Y-105141532D01*
X146005920Y-105146833D01*
X146032791Y-105235834D01*
X146033126Y-105236967D01*
X146059091Y-105326336D01*
X146061544Y-105331068D01*
X146063084Y-105336169D01*
X146065978Y-105341612D01*
X146106731Y-105418260D01*
X146107343Y-105419426D01*
X146150108Y-105501926D01*
X146153431Y-105506089D01*
X146155934Y-105510796D01*
X146214755Y-105582918D01*
X146215446Y-105583774D01*
X146246738Y-105622973D01*
X146249242Y-105625477D01*
X146249884Y-105626195D01*
X146253585Y-105630528D01*
X146280935Y-105664062D01*
X146285682Y-105667989D01*
X146285684Y-105667991D01*
X146316262Y-105693287D01*
X146325042Y-105701277D01*
X148334329Y-107710563D01*
X150343145Y-109719379D01*
X150352247Y-109729522D01*
X150375968Y-109759025D01*
X150414421Y-109791291D01*
X150418070Y-109794473D01*
X150419883Y-109796117D01*
X150422075Y-109798309D01*
X150455276Y-109825580D01*
X150456164Y-109826318D01*
X150491437Y-109855915D01*
X150522753Y-109882193D01*
X150522756Y-109882195D01*
X150527474Y-109886154D01*
X150532147Y-109888723D01*
X150536262Y-109892103D01*
X150541691Y-109895014D01*
X150541694Y-109895016D01*
X150618180Y-109936028D01*
X150619338Y-109936657D01*
X150648201Y-109952524D01*
X150700787Y-109981433D01*
X150705865Y-109983044D01*
X150710563Y-109985563D01*
X150799498Y-110012753D01*
X150800702Y-110013128D01*
X150889306Y-110041235D01*
X150894597Y-110041828D01*
X150899698Y-110043388D01*
X150992311Y-110052795D01*
X150993431Y-110052915D01*
X151043227Y-110058500D01*
X151046756Y-110058500D01*
X151047739Y-110058555D01*
X151053426Y-110059003D01*
X151073683Y-110061060D01*
X151090336Y-110062752D01*
X151090339Y-110062752D01*
X151096463Y-110063374D01*
X151142112Y-110059059D01*
X151153969Y-110058500D01*
X152149769Y-110058500D01*
X152152825Y-110058200D01*
X152152832Y-110058200D01*
X152211340Y-110052463D01*
X152296833Y-110044080D01*
X152302734Y-110042298D01*
X152302736Y-110042298D01*
X152399324Y-110013136D01*
X152486169Y-109986916D01*
X152660796Y-109894066D01*
X152775800Y-109800271D01*
X152809287Y-109772960D01*
X152809290Y-109772957D01*
X152814062Y-109769065D01*
X152846775Y-109729522D01*
X152936201Y-109621425D01*
X152936203Y-109621421D01*
X152940130Y-109616675D01*
X153034198Y-109442701D01*
X153092682Y-109253768D01*
X153113355Y-109057075D01*
X153103789Y-108951965D01*
X153095989Y-108866251D01*
X153095988Y-108866248D01*
X153095430Y-108860112D01*
X153039590Y-108670381D01*
X152947960Y-108495110D01*
X152824032Y-108340975D01*
X152672526Y-108213846D01*
X152667128Y-108210879D01*
X152667123Y-108210875D01*
X152504608Y-108121533D01*
X152504609Y-108121533D01*
X152499213Y-108118567D01*
X152493346Y-108116706D01*
X152493344Y-108116705D01*
X152316564Y-108060627D01*
X152316563Y-108060627D01*
X152310694Y-108058765D01*
X152156773Y-108041500D01*
X151569924Y-108041500D01*
X151501803Y-108021498D01*
X151480829Y-108004595D01*
X148045405Y-104569171D01*
X148011379Y-104506859D01*
X148008500Y-104480076D01*
X148008500Y-97500231D01*
X148007814Y-97493227D01*
X148002007Y-97434011D01*
X147994080Y-97353167D01*
X147981112Y-97310213D01*
X147941512Y-97179053D01*
X147936916Y-97163831D01*
X147844066Y-96989204D01*
X147773709Y-96902938D01*
X147722960Y-96840713D01*
X147722957Y-96840710D01*
X147719065Y-96835938D01*
X147712724Y-96830692D01*
X147571425Y-96713799D01*
X147571421Y-96713797D01*
X147566675Y-96709870D01*
X147392701Y-96615802D01*
X147203768Y-96557318D01*
X147197643Y-96556674D01*
X147197642Y-96556674D01*
X147013204Y-96537289D01*
X147013202Y-96537289D01*
X147007075Y-96536645D01*
X146924576Y-96544153D01*
X146816251Y-96554011D01*
X146816248Y-96554012D01*
X146810112Y-96554570D01*
X146804206Y-96556308D01*
X146804202Y-96556309D01*
X146699076Y-96587249D01*
X146620381Y-96610410D01*
X146614923Y-96613263D01*
X146614919Y-96613265D01*
X146524147Y-96660720D01*
X146445110Y-96702040D01*
X146290975Y-96825968D01*
X146163846Y-96977474D01*
X146160879Y-96982872D01*
X146160875Y-96982877D01*
X146095752Y-97101338D01*
X146068567Y-97150787D01*
X146066706Y-97156654D01*
X146066705Y-97156656D01*
X146010627Y-97333436D01*
X146008765Y-97339306D01*
X145991500Y-97493227D01*
X145991500Y-104888157D01*
X145990763Y-104901764D01*
X145986676Y-104939388D01*
X140931130Y-104939388D01*
X144642247Y-101228271D01*
X144650537Y-101220727D01*
X144657018Y-101216614D01*
X144703659Y-101166946D01*
X144706413Y-101164105D01*
X144726134Y-101144384D01*
X144728612Y-101141189D01*
X144736318Y-101132167D01*
X144761158Y-101105715D01*
X144766586Y-101099935D01*
X144776346Y-101082182D01*
X144787199Y-101065659D01*
X144794753Y-101055920D01*
X144799613Y-101049655D01*
X144817176Y-101009071D01*
X144822383Y-100998441D01*
X144843695Y-100959674D01*
X144845666Y-100951997D01*
X144845668Y-100951992D01*
X144848732Y-100940056D01*
X144855138Y-100921344D01*
X144860034Y-100910031D01*
X144863181Y-100902759D01*
X144870097Y-100859095D01*
X144872504Y-100847474D01*
X144881528Y-100812325D01*
X144881528Y-100812324D01*
X144883500Y-100804644D01*
X144883500Y-100784383D01*
X144885051Y-100764672D01*
X144886979Y-100752499D01*
X144888219Y-100744671D01*
X144884059Y-100700660D01*
X144883500Y-100688803D01*
X144883500Y-84769594D01*
X144903502Y-84701473D01*
X144920405Y-84680499D01*
X146999549Y-82601355D01*
X147061861Y-82567329D01*
X147113762Y-82566979D01*
X147293597Y-82603567D01*
X147298772Y-82603757D01*
X147298774Y-82603757D01*
X147511673Y-82611564D01*
X147511677Y-82611564D01*
X147516837Y-82611753D01*
X147521957Y-82611097D01*
X147521959Y-82611097D01*
X147733288Y-82584025D01*
X147733289Y-82584025D01*
X147738416Y-82583368D01*
X147743366Y-82581883D01*
X147947429Y-82520661D01*
X147947434Y-82520659D01*
X147952384Y-82519174D01*
X148152994Y-82420896D01*
X148334860Y-82291173D01*
X148371965Y-82254198D01*
X148438666Y-82187729D01*
X148493096Y-82133489D01*
X148505890Y-82115685D01*
X148623453Y-81952077D01*
X148624776Y-81953028D01*
X148671645Y-81909857D01*
X148741580Y-81897625D01*
X148807026Y-81925144D01*
X148834875Y-81956994D01*
X148894987Y-82055088D01*
X149041250Y-82223938D01*
X149213126Y-82366632D01*
X149406000Y-82479338D01*
X149614692Y-82559030D01*
X149619760Y-82560061D01*
X149619763Y-82560062D01*
X149714862Y-82579410D01*
X149833597Y-82603567D01*
X149838772Y-82603757D01*
X149838774Y-82603757D01*
X150051673Y-82611564D01*
X150051677Y-82611564D01*
X150056837Y-82611753D01*
X150061957Y-82611097D01*
X150061959Y-82611097D01*
X150273288Y-82584025D01*
X150273289Y-82584025D01*
X150278416Y-82583368D01*
X150283366Y-82581883D01*
X150487429Y-82520661D01*
X150487434Y-82520659D01*
X150492384Y-82519174D01*
X150692994Y-82420896D01*
X150874860Y-82291173D01*
X150911965Y-82254198D01*
X150978666Y-82187729D01*
X151033096Y-82133489D01*
X151045890Y-82115685D01*
X151163453Y-81952077D01*
X151164640Y-81952930D01*
X151211960Y-81909362D01*
X151281897Y-81897145D01*
X151347338Y-81924678D01*
X151375166Y-81956511D01*
X151432694Y-82050388D01*
X151438777Y-82058699D01*
X151578213Y-82219667D01*
X151585580Y-82226883D01*
X151749434Y-82362916D01*
X151757881Y-82368831D01*
X151941756Y-82476279D01*
X151951042Y-82480729D01*
X152150001Y-82556703D01*
X152159899Y-82559579D01*
X152263250Y-82580606D01*
X152277299Y-82579410D01*
X152281000Y-82569065D01*
X152281000Y-82568517D01*
X152789000Y-82568517D01*
X152793064Y-82582359D01*
X152806478Y-82584393D01*
X152813184Y-82583534D01*
X152823262Y-82581392D01*
X153027255Y-82520191D01*
X153036842Y-82516433D01*
X153228095Y-82422739D01*
X153236945Y-82417464D01*
X153410328Y-82293792D01*
X153418200Y-82287139D01*
X153569052Y-82136812D01*
X153575730Y-82128965D01*
X153700003Y-81956020D01*
X153705313Y-81947183D01*
X153799670Y-81756267D01*
X153803469Y-81746672D01*
X153865377Y-81542910D01*
X153867555Y-81532837D01*
X153868986Y-81521962D01*
X153866775Y-81507778D01*
X153853617Y-81504000D01*
X152807115Y-81504000D01*
X152791876Y-81508475D01*
X152790671Y-81509865D01*
X152789000Y-81517548D01*
X152789000Y-82568517D01*
X152281000Y-82568517D01*
X152281000Y-80977885D01*
X152789000Y-80977885D01*
X152793475Y-80993124D01*
X152794865Y-80994329D01*
X152802548Y-80996000D01*
X153853344Y-80996000D01*
X153866875Y-80992027D01*
X153868180Y-80982947D01*
X153826214Y-80815875D01*
X153822894Y-80806124D01*
X153737972Y-80610814D01*
X153733105Y-80601739D01*
X153617426Y-80422926D01*
X153611136Y-80414757D01*
X153467806Y-80257240D01*
X153460273Y-80250215D01*
X153293139Y-80118222D01*
X153284552Y-80112517D01*
X153098117Y-80009599D01*
X153088705Y-80005369D01*
X152887959Y-79934280D01*
X152877988Y-79931646D01*
X152806837Y-79918972D01*
X152793540Y-79920432D01*
X152789000Y-79934989D01*
X152789000Y-80977885D01*
X152281000Y-80977885D01*
X152281000Y-79933102D01*
X152277082Y-79919758D01*
X152262806Y-79917771D01*
X152224324Y-79923660D01*
X152214288Y-79926051D01*
X152011868Y-79992212D01*
X152002359Y-79996209D01*
X151813463Y-80094542D01*
X151804738Y-80100036D01*
X151634433Y-80227905D01*
X151626726Y-80234748D01*
X151479590Y-80388717D01*
X151473109Y-80396722D01*
X151368498Y-80550074D01*
X151313587Y-80595076D01*
X151243062Y-80603247D01*
X151179315Y-80571993D01*
X151158618Y-80547509D01*
X151077822Y-80422617D01*
X151077820Y-80422614D01*
X151075014Y-80418277D01*
X150924670Y-80253051D01*
X150920619Y-80249852D01*
X150920615Y-80249848D01*
X150753414Y-80117800D01*
X150753410Y-80117798D01*
X150749359Y-80114598D01*
X150713028Y-80094542D01*
X150692554Y-80083240D01*
X150553789Y-80006638D01*
X150548920Y-80004914D01*
X150548916Y-80004912D01*
X150348087Y-79933795D01*
X150348083Y-79933794D01*
X150343212Y-79932069D01*
X150338119Y-79931162D01*
X150338116Y-79931161D01*
X150128373Y-79893800D01*
X150128367Y-79893799D01*
X150123284Y-79892894D01*
X150049452Y-79891992D01*
X149905081Y-79890228D01*
X149905079Y-79890228D01*
X149899911Y-79890165D01*
X149679091Y-79923955D01*
X149466756Y-79993357D01*
X149422018Y-80016646D01*
X149281284Y-80089908D01*
X149268607Y-80096507D01*
X149264474Y-80099610D01*
X149264471Y-80099612D01*
X149111099Y-80214767D01*
X149089965Y-80230635D01*
X149086393Y-80234373D01*
X148978729Y-80347037D01*
X148935629Y-80392138D01*
X148828201Y-80549621D01*
X148773293Y-80594621D01*
X148702768Y-80602792D01*
X148639021Y-80571538D01*
X148618324Y-80547054D01*
X148537822Y-80422617D01*
X148537820Y-80422614D01*
X148535014Y-80418277D01*
X148384670Y-80253051D01*
X148380619Y-80249852D01*
X148380615Y-80249848D01*
X148213414Y-80117800D01*
X148213410Y-80117798D01*
X148209359Y-80114598D01*
X148173028Y-80094542D01*
X148152554Y-80083240D01*
X148013789Y-80006638D01*
X148008920Y-80004914D01*
X148008916Y-80004912D01*
X147808087Y-79933795D01*
X147808083Y-79933794D01*
X147803212Y-79932069D01*
X147798119Y-79931162D01*
X147798116Y-79931161D01*
X147588373Y-79893800D01*
X147588367Y-79893799D01*
X147583284Y-79892894D01*
X147509452Y-79891992D01*
X147365081Y-79890228D01*
X147365079Y-79890228D01*
X147359911Y-79890165D01*
X147139091Y-79923955D01*
X146926756Y-79993357D01*
X146882018Y-80016646D01*
X146741284Y-80089908D01*
X146728607Y-80096507D01*
X146724474Y-80099610D01*
X146724471Y-80099612D01*
X146571099Y-80214767D01*
X146549965Y-80230635D01*
X146546393Y-80234373D01*
X146438729Y-80347037D01*
X146395629Y-80392138D01*
X146288201Y-80549621D01*
X146233293Y-80594621D01*
X146162768Y-80602792D01*
X146099021Y-80571538D01*
X146078324Y-80547054D01*
X145997822Y-80422617D01*
X145997820Y-80422614D01*
X145995014Y-80418277D01*
X145844670Y-80253051D01*
X145840619Y-80249852D01*
X145840615Y-80249848D01*
X145673414Y-80117800D01*
X145673410Y-80117798D01*
X145669359Y-80114598D01*
X145633028Y-80094542D01*
X145612554Y-80083240D01*
X145473789Y-80006638D01*
X145468920Y-80004914D01*
X145468916Y-80004912D01*
X145268087Y-79933795D01*
X145268083Y-79933794D01*
X145263212Y-79932069D01*
X145258119Y-79931162D01*
X145258116Y-79931161D01*
X145048373Y-79893800D01*
X145048367Y-79893799D01*
X145043284Y-79892894D01*
X144969452Y-79891992D01*
X144825081Y-79890228D01*
X144825079Y-79890228D01*
X144819911Y-79890165D01*
X144599091Y-79923955D01*
X144386756Y-79993357D01*
X144342018Y-80016646D01*
X144201284Y-80089908D01*
X144188607Y-80096507D01*
X144184474Y-80099610D01*
X144184471Y-80099612D01*
X144031099Y-80214767D01*
X144009965Y-80230635D01*
X143935968Y-80308069D01*
X143929283Y-80315064D01*
X143867759Y-80350494D01*
X143796846Y-80347037D01*
X143739060Y-80305791D01*
X143720207Y-80272243D01*
X143678767Y-80161703D01*
X143675615Y-80153295D01*
X143588261Y-80036739D01*
X143471705Y-79949385D01*
X143335316Y-79898255D01*
X143273134Y-79891500D01*
X141476866Y-79891500D01*
X141414684Y-79898255D01*
X141278295Y-79949385D01*
X141161739Y-80036739D01*
X141074385Y-80153295D01*
X141023255Y-80289684D01*
X141016500Y-80351866D01*
X141016500Y-82059906D01*
X140996498Y-82128027D01*
X140979595Y-82149001D01*
X138599500Y-84529095D01*
X138537188Y-84563121D01*
X138510405Y-84566000D01*
X138454513Y-84566000D01*
X138448061Y-84567372D01*
X138448056Y-84567372D01*
X138361112Y-84585853D01*
X138267712Y-84605706D01*
X138261682Y-84608391D01*
X138261681Y-84608391D01*
X138099278Y-84680697D01*
X138099276Y-84680698D01*
X138093248Y-84683382D01*
X137938747Y-84795634D01*
X137810960Y-84937556D01*
X137715473Y-85102944D01*
X137656458Y-85284572D01*
X137636496Y-85474500D01*
X124608500Y-85474500D01*
X124608500Y-84201866D01*
X124601745Y-84139684D01*
X124550615Y-84003295D01*
X124463261Y-83886739D01*
X124346705Y-83799385D01*
X124334132Y-83794672D01*
X124228203Y-83754960D01*
X124171439Y-83712318D01*
X124146739Y-83645756D01*
X124161947Y-83576408D01*
X124183493Y-83547727D01*
X124284435Y-83447137D01*
X124288096Y-83443489D01*
X124311450Y-83410989D01*
X124415435Y-83266277D01*
X124418453Y-83262077D01*
X124517430Y-83061811D01*
X124582370Y-82848069D01*
X124611529Y-82626590D01*
X124612610Y-82582359D01*
X124613074Y-82563365D01*
X124613074Y-82563361D01*
X124613156Y-82560000D01*
X124594852Y-82337361D01*
X124540431Y-82120702D01*
X124451354Y-81915840D01*
X124344506Y-81750678D01*
X124332822Y-81732617D01*
X124332820Y-81732614D01*
X124330014Y-81728277D01*
X124179670Y-81563051D01*
X124175619Y-81559852D01*
X124175615Y-81559848D01*
X124008414Y-81427800D01*
X124008410Y-81427798D01*
X124004359Y-81424598D01*
X123963053Y-81401796D01*
X123913084Y-81351364D01*
X123898312Y-81281921D01*
X123923428Y-81215516D01*
X123950780Y-81188909D01*
X123994603Y-81157650D01*
X124129860Y-81061173D01*
X124163791Y-81027361D01*
X124284435Y-80907137D01*
X124288096Y-80903489D01*
X124347594Y-80820689D01*
X124415435Y-80726277D01*
X124418453Y-80722077D01*
X124477928Y-80601739D01*
X124515136Y-80526453D01*
X124515137Y-80526451D01*
X124517430Y-80521811D01*
X124582370Y-80308069D01*
X124611529Y-80086590D01*
X124612864Y-80031961D01*
X124613074Y-80023365D01*
X124613074Y-80023361D01*
X124613156Y-80020000D01*
X124594852Y-79797361D01*
X124540431Y-79580702D01*
X124451354Y-79375840D01*
X124411906Y-79314862D01*
X124332822Y-79192617D01*
X124332820Y-79192614D01*
X124330014Y-79188277D01*
X124179670Y-79023051D01*
X124175619Y-79019852D01*
X124175615Y-79019848D01*
X124008414Y-78887800D01*
X124008410Y-78887798D01*
X124004359Y-78884598D01*
X123984904Y-78873858D01*
X123952136Y-78855769D01*
X123808789Y-78776638D01*
X123803920Y-78774914D01*
X123803916Y-78774912D01*
X123603087Y-78703795D01*
X123603083Y-78703794D01*
X123598212Y-78702069D01*
X123593119Y-78701162D01*
X123593116Y-78701161D01*
X123586598Y-78700000D01*
X151186496Y-78700000D01*
X151187186Y-78706565D01*
X151205335Y-78879239D01*
X151206458Y-78889928D01*
X151265473Y-79071556D01*
X151360960Y-79236944D01*
X151365378Y-79241851D01*
X151365379Y-79241852D01*
X151463994Y-79351375D01*
X151488747Y-79378866D01*
X151643248Y-79491118D01*
X151649276Y-79493802D01*
X151649278Y-79493803D01*
X151785151Y-79554297D01*
X151817712Y-79568794D01*
X151897342Y-79585720D01*
X151998056Y-79607128D01*
X151998061Y-79607128D01*
X152004513Y-79608500D01*
X152195487Y-79608500D01*
X152201939Y-79607128D01*
X152201944Y-79607128D01*
X152302658Y-79585720D01*
X152382288Y-79568794D01*
X152414849Y-79554297D01*
X152550722Y-79493803D01*
X152550724Y-79493802D01*
X152556752Y-79491118D01*
X152711253Y-79378866D01*
X152736006Y-79351375D01*
X152834621Y-79241852D01*
X152834622Y-79241851D01*
X152839040Y-79236944D01*
X152934527Y-79071556D01*
X152993542Y-78889928D01*
X152994666Y-78879239D01*
X153005484Y-78776308D01*
X153010907Y-78724706D01*
X153037920Y-78659050D01*
X153047122Y-78648782D01*
X153175499Y-78520405D01*
X153237811Y-78486379D01*
X153264594Y-78483500D01*
X156683734Y-78483500D01*
X156751855Y-78503502D01*
X156798348Y-78557158D01*
X156808452Y-78627432D01*
X156778958Y-78692012D01*
X156719232Y-78730396D01*
X156697342Y-78734763D01*
X156642184Y-78740755D01*
X156505795Y-78791885D01*
X156389239Y-78879239D01*
X156301885Y-78995795D01*
X156250755Y-79132184D01*
X156244000Y-79194366D01*
X156244000Y-81790634D01*
X156250755Y-81852816D01*
X156301885Y-81989205D01*
X156389239Y-82105761D01*
X156505795Y-82193115D01*
X156642184Y-82244245D01*
X156704366Y-82251000D01*
X158500634Y-82251000D01*
X158562816Y-82244245D01*
X158699205Y-82193115D01*
X158815761Y-82105761D01*
X158903115Y-81989205D01*
X158915190Y-81956994D01*
X158947920Y-81869689D01*
X158990562Y-81812925D01*
X159057123Y-81788225D01*
X159126472Y-81803433D01*
X159157072Y-81826947D01*
X159235734Y-81909406D01*
X159243686Y-81916441D01*
X159420025Y-82047641D01*
X159429062Y-82053245D01*
X159624984Y-82152857D01*
X159634835Y-82156857D01*
X159844740Y-82222034D01*
X159855124Y-82224317D01*
X159870543Y-82226361D01*
X159884707Y-82224165D01*
X159888500Y-82210978D01*
X159888500Y-78776308D01*
X159884527Y-78762777D01*
X159873920Y-78761252D01*
X159756079Y-78785977D01*
X159745883Y-78789037D01*
X159541471Y-78869763D01*
X159531939Y-78874494D01*
X159344038Y-78988516D01*
X159335448Y-78994780D01*
X159169448Y-79138827D01*
X159162033Y-79146453D01*
X159161767Y-79146777D01*
X159161620Y-79146877D01*
X159158313Y-79150278D01*
X159157620Y-79149604D01*
X159103108Y-79186773D01*
X159032138Y-79188707D01*
X158971388Y-79151965D01*
X158946348Y-79111118D01*
X158906268Y-79004205D01*
X158906267Y-79004203D01*
X158903115Y-78995795D01*
X158815761Y-78879239D01*
X158699205Y-78791885D01*
X158562816Y-78740755D01*
X158507658Y-78734763D01*
X158442096Y-78707521D01*
X158401670Y-78649158D01*
X158399215Y-78578204D01*
X158435510Y-78517186D01*
X158499032Y-78485477D01*
X158521266Y-78483500D01*
X161091800Y-78483500D01*
X161159921Y-78503502D01*
X161179147Y-78519843D01*
X161179420Y-78519540D01*
X161184332Y-78523963D01*
X161188747Y-78528866D01*
X161194086Y-78532745D01*
X161302787Y-78611721D01*
X161343248Y-78641118D01*
X161349276Y-78643802D01*
X161349278Y-78643803D01*
X161490245Y-78706565D01*
X161517712Y-78718794D01*
X161592840Y-78734763D01*
X161698056Y-78757128D01*
X161698061Y-78757128D01*
X161704513Y-78758500D01*
X161811977Y-78758500D01*
X161880098Y-78778502D01*
X161926591Y-78832158D01*
X161936695Y-78902432D01*
X161907201Y-78967012D01*
X161886216Y-78986306D01*
X161883739Y-78988112D01*
X161879183Y-78990877D01*
X161871516Y-78997530D01*
X161790097Y-79068182D01*
X161705055Y-79141977D01*
X161691588Y-79158401D01*
X161562260Y-79316127D01*
X161562256Y-79316133D01*
X161558876Y-79320255D01*
X161523303Y-79382749D01*
X161522347Y-79384428D01*
X161471265Y-79433734D01*
X161401635Y-79447596D01*
X161335564Y-79421613D01*
X161308325Y-79392463D01*
X161207650Y-79242925D01*
X161200981Y-79234630D01*
X161049272Y-79075600D01*
X161041314Y-79068559D01*
X160864975Y-78937359D01*
X160855938Y-78931755D01*
X160660016Y-78832143D01*
X160650165Y-78828143D01*
X160440260Y-78762966D01*
X160429876Y-78760683D01*
X160414457Y-78758639D01*
X160400293Y-78760835D01*
X160396500Y-78774022D01*
X160396500Y-82208692D01*
X160400473Y-82222223D01*
X160411080Y-82223748D01*
X160528921Y-82199023D01*
X160539117Y-82195963D01*
X160743529Y-82115237D01*
X160753061Y-82110506D01*
X160940962Y-81996484D01*
X160949552Y-81990220D01*
X161115552Y-81846173D01*
X161122972Y-81838542D01*
X161262326Y-81668589D01*
X161268350Y-81659822D01*
X161302065Y-81600594D01*
X161353147Y-81551288D01*
X161422777Y-81537426D01*
X161488848Y-81563409D01*
X161516087Y-81592559D01*
X161619941Y-81746819D01*
X161623620Y-81750676D01*
X161623622Y-81750678D01*
X161664979Y-81794031D01*
X161779076Y-81913635D01*
X161964042Y-82051254D01*
X161968793Y-82053670D01*
X161968797Y-82053672D01*
X162029648Y-82084610D01*
X162169551Y-82155740D01*
X162174645Y-82157322D01*
X162174648Y-82157323D01*
X162340083Y-82208692D01*
X162389727Y-82224107D01*
X162395016Y-82224808D01*
X162612989Y-82253698D01*
X162612994Y-82253698D01*
X162618274Y-82254398D01*
X162623603Y-82254198D01*
X162623605Y-82254198D01*
X162733466Y-82250073D01*
X162848658Y-82245749D01*
X163074291Y-82198407D01*
X163079250Y-82196449D01*
X163079252Y-82196448D01*
X163283756Y-82115685D01*
X163283758Y-82115684D01*
X163288721Y-82113724D01*
X163294025Y-82110506D01*
X163481257Y-81996890D01*
X163481256Y-81996890D01*
X163485817Y-81994123D01*
X163570557Y-81920590D01*
X163655912Y-81846523D01*
X163655914Y-81846521D01*
X163659945Y-81843023D01*
X163731081Y-81756267D01*
X163802740Y-81668873D01*
X163802744Y-81668867D01*
X163806124Y-81664745D01*
X163808927Y-81659822D01*
X163917532Y-81469029D01*
X163920175Y-81464386D01*
X163998837Y-81247675D01*
X164001832Y-81231114D01*
X164039123Y-81024892D01*
X164039124Y-81024885D01*
X164039861Y-81020808D01*
X164041000Y-80996656D01*
X164041000Y-80034610D01*
X164031586Y-79923660D01*
X164026871Y-79868091D01*
X164026870Y-79868087D01*
X164026420Y-79862780D01*
X164025082Y-79857625D01*
X164025081Y-79857619D01*
X163969843Y-79644797D01*
X163969842Y-79644793D01*
X163968501Y-79639628D01*
X163944218Y-79585720D01*
X163876007Y-79434298D01*
X163873812Y-79429425D01*
X163745059Y-79238181D01*
X163738425Y-79231226D01*
X163661203Y-79150278D01*
X163585924Y-79071365D01*
X163400958Y-78933746D01*
X163396207Y-78931330D01*
X163396203Y-78931328D01*
X163298204Y-78881503D01*
X163195449Y-78829260D01*
X163190355Y-78827678D01*
X163190352Y-78827677D01*
X162980371Y-78762476D01*
X162975273Y-78760893D01*
X162969984Y-78760192D01*
X162752011Y-78731302D01*
X162752006Y-78731302D01*
X162746726Y-78730602D01*
X162741397Y-78730802D01*
X162741395Y-78730802D01*
X162656213Y-78734000D01*
X162517831Y-78739195D01*
X162517830Y-78739195D01*
X162516342Y-78739251D01*
X162516331Y-78738948D01*
X162448919Y-78727831D01*
X162396234Y-78680240D01*
X162377643Y-78611721D01*
X162399047Y-78544028D01*
X162411789Y-78529348D01*
X162411253Y-78528866D01*
X162534621Y-78391852D01*
X162534622Y-78391851D01*
X162539040Y-78386944D01*
X162634527Y-78221556D01*
X162693542Y-78039928D01*
X162695518Y-78021134D01*
X162712814Y-77856565D01*
X162713504Y-77850000D01*
X162711529Y-77831206D01*
X162694232Y-77666635D01*
X162694232Y-77666633D01*
X162693542Y-77660072D01*
X162634527Y-77478444D01*
X162539040Y-77313056D01*
X162522881Y-77295109D01*
X162415675Y-77176045D01*
X162415674Y-77176044D01*
X162411253Y-77171134D01*
X162256752Y-77058882D01*
X162250724Y-77056198D01*
X162250722Y-77056197D01*
X162088319Y-76983891D01*
X162088318Y-76983891D01*
X162082288Y-76981206D01*
X161988887Y-76961353D01*
X161901944Y-76942872D01*
X161901939Y-76942872D01*
X161895487Y-76941500D01*
X161704513Y-76941500D01*
X161698061Y-76942872D01*
X161698056Y-76942872D01*
X161611113Y-76961353D01*
X161517712Y-76981206D01*
X161511682Y-76983891D01*
X161511681Y-76983891D01*
X161349278Y-77056197D01*
X161349276Y-77056198D01*
X161343248Y-77058882D01*
X161337907Y-77062762D01*
X161337906Y-77062763D01*
X161256207Y-77122121D01*
X161188747Y-77171134D01*
X161184332Y-77176037D01*
X161179420Y-77180460D01*
X161178295Y-77179211D01*
X161124986Y-77212051D01*
X161091800Y-77216500D01*
X153028768Y-77216500D01*
X153017585Y-77215973D01*
X153010092Y-77214298D01*
X153002166Y-77214547D01*
X153002165Y-77214547D01*
X152942002Y-77216438D01*
X152938044Y-77216500D01*
X152910144Y-77216500D01*
X152906154Y-77217004D01*
X152894320Y-77217936D01*
X152850111Y-77219326D01*
X152842495Y-77221539D01*
X152842493Y-77221539D01*
X152830652Y-77224979D01*
X152811293Y-77228988D01*
X152809983Y-77229154D01*
X152791203Y-77231526D01*
X152783837Y-77234442D01*
X152783831Y-77234444D01*
X152750098Y-77247800D01*
X152738868Y-77251645D01*
X152704017Y-77261770D01*
X152696407Y-77263981D01*
X152689584Y-77268016D01*
X152678966Y-77274295D01*
X152661213Y-77282992D01*
X152653568Y-77286019D01*
X152642383Y-77290448D01*
X152635968Y-77295109D01*
X152606612Y-77316437D01*
X152596695Y-77322951D01*
X152558638Y-77345458D01*
X152544317Y-77359779D01*
X152529284Y-77372619D01*
X152512893Y-77384528D01*
X152507842Y-77390633D01*
X152507837Y-77390638D01*
X152484706Y-77418598D01*
X152476719Y-77427376D01*
X152302677Y-77601419D01*
X152149501Y-77754595D01*
X152087188Y-77788620D01*
X152060405Y-77791500D01*
X152004513Y-77791500D01*
X151998061Y-77792872D01*
X151998056Y-77792872D01*
X151911112Y-77811353D01*
X151817712Y-77831206D01*
X151811682Y-77833891D01*
X151811681Y-77833891D01*
X151649278Y-77906197D01*
X151649276Y-77906198D01*
X151643248Y-77908882D01*
X151488747Y-78021134D01*
X151360960Y-78163056D01*
X151265473Y-78328444D01*
X151206458Y-78510072D01*
X151205768Y-78516633D01*
X151205768Y-78516635D01*
X151204432Y-78529348D01*
X151186496Y-78700000D01*
X123586598Y-78700000D01*
X123383373Y-78663800D01*
X123383367Y-78663799D01*
X123378284Y-78662894D01*
X123304452Y-78661992D01*
X123160081Y-78660228D01*
X123160079Y-78660228D01*
X123154911Y-78660165D01*
X122934091Y-78693955D01*
X122721756Y-78763357D01*
X122677120Y-78786593D01*
X122589620Y-78832143D01*
X122523607Y-78866507D01*
X122519474Y-78869610D01*
X122519471Y-78869612D01*
X122364049Y-78986306D01*
X122344965Y-79000635D01*
X122341393Y-79004373D01*
X122200351Y-79151965D01*
X122190629Y-79162138D01*
X122187715Y-79166410D01*
X122187714Y-79166411D01*
X122166314Y-79197783D01*
X122064743Y-79346680D01*
X121970688Y-79549305D01*
X121910989Y-79764570D01*
X121887251Y-79986695D01*
X121887548Y-79991848D01*
X121887548Y-79991851D01*
X121896857Y-80153295D01*
X121900110Y-80209715D01*
X121901247Y-80214761D01*
X121901248Y-80214767D01*
X121921119Y-80302939D01*
X121949222Y-80427639D01*
X122033266Y-80634616D01*
X122149987Y-80825088D01*
X122296250Y-80993938D01*
X122468126Y-81136632D01*
X122538595Y-81177811D01*
X122541445Y-81179476D01*
X122590169Y-81231114D01*
X122603240Y-81300897D01*
X122576509Y-81366669D01*
X122536055Y-81400027D01*
X122523607Y-81406507D01*
X122519474Y-81409610D01*
X122519471Y-81409612D01*
X122349239Y-81537426D01*
X122344965Y-81540635D01*
X122190629Y-81702138D01*
X122187715Y-81706410D01*
X122187714Y-81706411D01*
X122160250Y-81746672D01*
X122064743Y-81886680D01*
X122021056Y-81980797D01*
X121984335Y-82059906D01*
X121970688Y-82089305D01*
X121910989Y-82304570D01*
X121887251Y-82526695D01*
X120208000Y-82526695D01*
X120208000Y-76289840D01*
X128122000Y-76289840D01*
X128122225Y-76295149D01*
X128136660Y-76465271D01*
X128138452Y-76475759D01*
X128195801Y-76696711D01*
X128199333Y-76706739D01*
X128293085Y-76914863D01*
X128298265Y-76924169D01*
X128425747Y-77113524D01*
X128432406Y-77121807D01*
X128589971Y-77286978D01*
X128597942Y-77294030D01*
X128781082Y-77430290D01*
X128790119Y-77435894D01*
X128993606Y-77539351D01*
X129003459Y-77543352D01*
X129221461Y-77611044D01*
X129231848Y-77613328D01*
X129258043Y-77616800D01*
X129272207Y-77614604D01*
X129276000Y-77601419D01*
X129276000Y-77599782D01*
X129784000Y-77599782D01*
X129787973Y-77613313D01*
X129798580Y-77614838D01*
X129930840Y-77587087D01*
X129941037Y-77584027D01*
X130153340Y-77500185D01*
X130162876Y-77495451D01*
X130358025Y-77377032D01*
X130366618Y-77370766D01*
X130539027Y-77221158D01*
X130546447Y-77213528D01*
X130691180Y-77037012D01*
X130697206Y-77028245D01*
X130810129Y-76829867D01*
X130814595Y-76820203D01*
X130892481Y-76605632D01*
X130895251Y-76595365D01*
X130936081Y-76369568D01*
X130937016Y-76361338D01*
X130937930Y-76341950D01*
X130938000Y-76338974D01*
X130938000Y-76292512D01*
X131931500Y-76292512D01*
X131946617Y-76470675D01*
X131947957Y-76475839D01*
X131947958Y-76475843D01*
X132005285Y-76696711D01*
X132006668Y-76702040D01*
X132008860Y-76706906D01*
X132064345Y-76830077D01*
X132104843Y-76919980D01*
X132238334Y-77118262D01*
X132242013Y-77122119D01*
X132242015Y-77122121D01*
X132297668Y-77180460D01*
X132403326Y-77291218D01*
X132407603Y-77294401D01*
X132407604Y-77294401D01*
X132441911Y-77319926D01*
X132595100Y-77433902D01*
X132599851Y-77436318D01*
X132599855Y-77436320D01*
X132803414Y-77539814D01*
X132808172Y-77542233D01*
X132898221Y-77570194D01*
X133031349Y-77611532D01*
X133031355Y-77611533D01*
X133036452Y-77613116D01*
X133163883Y-77630006D01*
X133268127Y-77643823D01*
X133268131Y-77643823D01*
X133273411Y-77644523D01*
X133278740Y-77644323D01*
X133278741Y-77644323D01*
X133376509Y-77640652D01*
X133512274Y-77635555D01*
X133612126Y-77614604D01*
X133740984Y-77587567D01*
X133740987Y-77587566D01*
X133746211Y-77586470D01*
X133968533Y-77498671D01*
X134172883Y-77374668D01*
X134237295Y-77318774D01*
X134349386Y-77221507D01*
X134349388Y-77221505D01*
X134353419Y-77218007D01*
X134356802Y-77213881D01*
X134356806Y-77213877D01*
X134483893Y-77058882D01*
X134504978Y-77033167D01*
X134623227Y-76825434D01*
X134704784Y-76600747D01*
X134705734Y-76595495D01*
X134746580Y-76369615D01*
X134746581Y-76369607D01*
X134747318Y-76365531D01*
X134748500Y-76340468D01*
X134748500Y-76292512D01*
X135741500Y-76292512D01*
X135756617Y-76470675D01*
X135757957Y-76475839D01*
X135757958Y-76475843D01*
X135815285Y-76696711D01*
X135816668Y-76702040D01*
X135818860Y-76706906D01*
X135874345Y-76830077D01*
X135914843Y-76919980D01*
X136048334Y-77118262D01*
X136052013Y-77122119D01*
X136052015Y-77122121D01*
X136107668Y-77180460D01*
X136213326Y-77291218D01*
X136217603Y-77294401D01*
X136217604Y-77294401D01*
X136251911Y-77319926D01*
X136405100Y-77433902D01*
X136409851Y-77436318D01*
X136409855Y-77436320D01*
X136613414Y-77539814D01*
X136618172Y-77542233D01*
X136708221Y-77570194D01*
X136841349Y-77611532D01*
X136841355Y-77611533D01*
X136846452Y-77613116D01*
X136973883Y-77630006D01*
X137078127Y-77643823D01*
X137078131Y-77643823D01*
X137083411Y-77644523D01*
X137088740Y-77644323D01*
X137088741Y-77644323D01*
X137186509Y-77640652D01*
X137322274Y-77635555D01*
X137422126Y-77614604D01*
X137550984Y-77587567D01*
X137550987Y-77587566D01*
X137556211Y-77586470D01*
X137778533Y-77498671D01*
X137982883Y-77374668D01*
X138047295Y-77318774D01*
X138159386Y-77221507D01*
X138159388Y-77221505D01*
X138163419Y-77218007D01*
X138166802Y-77213881D01*
X138166806Y-77213877D01*
X138293893Y-77058882D01*
X138314978Y-77033167D01*
X138372054Y-76932900D01*
X139551500Y-76932900D01*
X139551837Y-76936146D01*
X139551837Y-76936150D01*
X139561393Y-77028245D01*
X139562474Y-77038666D01*
X139564655Y-77045202D01*
X139564655Y-77045204D01*
X139570513Y-77062763D01*
X139618450Y-77206446D01*
X139711522Y-77356848D01*
X139716704Y-77362021D01*
X139729373Y-77374668D01*
X139836697Y-77481805D01*
X139842927Y-77485645D01*
X139842928Y-77485646D01*
X139980090Y-77570194D01*
X139987262Y-77574615D01*
X140063139Y-77599782D01*
X140148611Y-77628132D01*
X140148613Y-77628132D01*
X140155139Y-77630297D01*
X140161975Y-77630997D01*
X140161978Y-77630998D01*
X140205031Y-77635409D01*
X140259600Y-77641000D01*
X141660400Y-77641000D01*
X141663646Y-77640663D01*
X141663650Y-77640663D01*
X141759308Y-77630738D01*
X141759312Y-77630737D01*
X141766166Y-77630026D01*
X141772702Y-77627845D01*
X141772704Y-77627845D01*
X141904806Y-77583772D01*
X141933946Y-77574050D01*
X142084348Y-77480978D01*
X142209305Y-77355803D01*
X142238680Y-77308148D01*
X142298275Y-77211468D01*
X142298276Y-77211466D01*
X142302115Y-77205238D01*
X142329788Y-77121807D01*
X142355632Y-77043889D01*
X142355632Y-77043887D01*
X142357797Y-77037361D01*
X142368500Y-76932900D01*
X142368500Y-73732100D01*
X142368163Y-73728850D01*
X142358238Y-73633192D01*
X142358237Y-73633188D01*
X142357526Y-73626334D01*
X142301550Y-73458554D01*
X142208478Y-73308152D01*
X142083303Y-73183195D01*
X142060434Y-73169098D01*
X141938968Y-73094225D01*
X141938966Y-73094224D01*
X141932738Y-73090385D01*
X141851926Y-73063581D01*
X141771389Y-73036868D01*
X141771387Y-73036868D01*
X141764861Y-73034703D01*
X141758025Y-73034003D01*
X141758022Y-73034002D01*
X141711591Y-73029245D01*
X141660400Y-73024000D01*
X140259600Y-73024000D01*
X140256354Y-73024337D01*
X140256350Y-73024337D01*
X140160692Y-73034262D01*
X140160688Y-73034263D01*
X140153834Y-73034974D01*
X140147298Y-73037155D01*
X140147296Y-73037155D01*
X140023281Y-73078530D01*
X139986054Y-73090950D01*
X139835652Y-73184022D01*
X139710695Y-73309197D01*
X139706855Y-73315427D01*
X139706854Y-73315428D01*
X139668507Y-73377639D01*
X139617885Y-73459762D01*
X139615581Y-73466709D01*
X139589037Y-73546738D01*
X139562203Y-73627639D01*
X139551500Y-73732100D01*
X139551500Y-76932900D01*
X138372054Y-76932900D01*
X138433227Y-76825434D01*
X138514784Y-76600747D01*
X138515734Y-76595495D01*
X138556580Y-76369615D01*
X138556581Y-76369607D01*
X138557318Y-76365531D01*
X138558500Y-76340468D01*
X138558500Y-74372488D01*
X138543383Y-74194325D01*
X138508321Y-74059237D01*
X138484673Y-73968125D01*
X138484671Y-73968120D01*
X138483332Y-73962960D01*
X138425750Y-73835133D01*
X138387347Y-73749881D01*
X138387346Y-73749878D01*
X138385157Y-73745020D01*
X138251666Y-73546738D01*
X138086674Y-73373782D01*
X137894900Y-73231098D01*
X137890149Y-73228682D01*
X137890145Y-73228680D01*
X137686586Y-73125186D01*
X137686585Y-73125186D01*
X137681828Y-73122767D01*
X137537375Y-73077913D01*
X137458651Y-73053468D01*
X137458645Y-73053467D01*
X137453548Y-73051884D01*
X137318632Y-73034002D01*
X137221873Y-73021177D01*
X137221869Y-73021177D01*
X137216589Y-73020477D01*
X137211260Y-73020677D01*
X137211259Y-73020677D01*
X137114017Y-73024328D01*
X136977726Y-73029445D01*
X136890816Y-73047681D01*
X136749016Y-73077433D01*
X136749013Y-73077434D01*
X136743789Y-73078530D01*
X136521467Y-73166329D01*
X136317117Y-73290332D01*
X136136581Y-73446993D01*
X136133198Y-73451119D01*
X136133194Y-73451123D01*
X136057702Y-73543193D01*
X135985022Y-73631833D01*
X135866773Y-73839566D01*
X135785216Y-74064253D01*
X135784267Y-74069502D01*
X135784266Y-74069505D01*
X135743420Y-74295385D01*
X135743419Y-74295393D01*
X135742682Y-74299469D01*
X135741500Y-74324532D01*
X135741500Y-76292512D01*
X134748500Y-76292512D01*
X134748500Y-74372488D01*
X134733383Y-74194325D01*
X134698321Y-74059237D01*
X134674673Y-73968125D01*
X134674671Y-73968120D01*
X134673332Y-73962960D01*
X134615750Y-73835133D01*
X134577347Y-73749881D01*
X134577346Y-73749878D01*
X134575157Y-73745020D01*
X134441666Y-73546738D01*
X134276674Y-73373782D01*
X134084900Y-73231098D01*
X134080149Y-73228682D01*
X134080145Y-73228680D01*
X133876586Y-73125186D01*
X133876585Y-73125186D01*
X133871828Y-73122767D01*
X133727375Y-73077913D01*
X133648651Y-73053468D01*
X133648645Y-73053467D01*
X133643548Y-73051884D01*
X133508632Y-73034002D01*
X133411873Y-73021177D01*
X133411869Y-73021177D01*
X133406589Y-73020477D01*
X133401260Y-73020677D01*
X133401259Y-73020677D01*
X133304017Y-73024328D01*
X133167726Y-73029445D01*
X133080816Y-73047681D01*
X132939016Y-73077433D01*
X132939013Y-73077434D01*
X132933789Y-73078530D01*
X132711467Y-73166329D01*
X132507117Y-73290332D01*
X132326581Y-73446993D01*
X132323198Y-73451119D01*
X132323194Y-73451123D01*
X132247702Y-73543193D01*
X132175022Y-73631833D01*
X132056773Y-73839566D01*
X131975216Y-74064253D01*
X131974267Y-74069502D01*
X131974266Y-74069505D01*
X131933420Y-74295385D01*
X131933419Y-74295393D01*
X131932682Y-74299469D01*
X131931500Y-74324532D01*
X131931500Y-76292512D01*
X130938000Y-76292512D01*
X130938000Y-75604615D01*
X130933525Y-75589376D01*
X130932135Y-75588171D01*
X130924452Y-75586500D01*
X129802115Y-75586500D01*
X129786876Y-75590975D01*
X129785671Y-75592365D01*
X129784000Y-75600048D01*
X129784000Y-77599782D01*
X129276000Y-77599782D01*
X129276000Y-75604615D01*
X129271525Y-75589376D01*
X129270135Y-75588171D01*
X129262452Y-75586500D01*
X128140115Y-75586500D01*
X128124876Y-75590975D01*
X128123671Y-75592365D01*
X128122000Y-75600048D01*
X128122000Y-76289840D01*
X120208000Y-76289840D01*
X120208000Y-76059000D01*
X120228002Y-75990879D01*
X120281658Y-75944386D01*
X120334000Y-75933000D01*
X125091298Y-75933000D01*
X125092069Y-75933002D01*
X125169652Y-75933476D01*
X125178281Y-75931010D01*
X125178286Y-75931009D01*
X125198048Y-75925361D01*
X125214809Y-75921783D01*
X125235152Y-75918870D01*
X125235162Y-75918867D01*
X125244045Y-75917595D01*
X125267395Y-75906979D01*
X125284907Y-75900536D01*
X125300937Y-75895954D01*
X125309565Y-75893488D01*
X125334548Y-75877726D01*
X125349614Y-75869596D01*
X125376510Y-75857367D01*
X125395939Y-75840626D01*
X125410947Y-75829521D01*
X125425039Y-75820630D01*
X125432631Y-75815840D01*
X125452182Y-75793703D01*
X125464374Y-75781659D01*
X125479949Y-75768239D01*
X125479950Y-75768237D01*
X125486747Y-75762381D01*
X125491626Y-75754853D01*
X125491629Y-75754850D01*
X125500696Y-75740861D01*
X125511986Y-75725987D01*
X125523012Y-75713502D01*
X125528956Y-75706772D01*
X125541510Y-75680034D01*
X125549824Y-75665065D01*
X125565893Y-75640273D01*
X125573239Y-75615709D01*
X125579901Y-75598264D01*
X125582663Y-75592381D01*
X125590799Y-75575052D01*
X125595343Y-75545870D01*
X125599126Y-75529151D01*
X125605014Y-75509464D01*
X125605015Y-75509461D01*
X125607587Y-75500859D01*
X125607797Y-75466444D01*
X125607830Y-75465672D01*
X125608000Y-75464577D01*
X125608000Y-75433702D01*
X125608002Y-75432932D01*
X125608452Y-75359284D01*
X125608452Y-75359283D01*
X125608476Y-75355348D01*
X125608092Y-75354004D01*
X125608000Y-75352659D01*
X125608000Y-75060385D01*
X128122000Y-75060385D01*
X128126475Y-75075624D01*
X128127865Y-75076829D01*
X128135548Y-75078500D01*
X129257885Y-75078500D01*
X129273124Y-75074025D01*
X129274329Y-75072635D01*
X129276000Y-75064952D01*
X129276000Y-75060385D01*
X129784000Y-75060385D01*
X129788475Y-75075624D01*
X129789865Y-75076829D01*
X129797548Y-75078500D01*
X130919885Y-75078500D01*
X130935124Y-75074025D01*
X130936329Y-75072635D01*
X130938000Y-75064952D01*
X130938000Y-74375160D01*
X130937775Y-74369851D01*
X130923340Y-74199729D01*
X130921548Y-74189241D01*
X130864199Y-73968289D01*
X130860667Y-73958261D01*
X130766915Y-73750137D01*
X130761735Y-73740831D01*
X130634253Y-73551476D01*
X130627594Y-73543193D01*
X130470029Y-73378022D01*
X130462058Y-73370970D01*
X130278918Y-73234710D01*
X130269881Y-73229106D01*
X130066394Y-73125649D01*
X130056541Y-73121648D01*
X129838539Y-73053956D01*
X129828152Y-73051672D01*
X129801957Y-73048200D01*
X129787793Y-73050396D01*
X129784000Y-73063581D01*
X129784000Y-75060385D01*
X129276000Y-75060385D01*
X129276000Y-73065218D01*
X129272027Y-73051687D01*
X129261420Y-73050162D01*
X129129160Y-73077913D01*
X129118963Y-73080973D01*
X128906660Y-73164815D01*
X128897124Y-73169549D01*
X128701975Y-73287968D01*
X128693382Y-73294234D01*
X128520973Y-73443842D01*
X128513553Y-73451472D01*
X128368820Y-73627988D01*
X128362794Y-73636755D01*
X128249871Y-73835133D01*
X128245405Y-73844797D01*
X128167519Y-74059368D01*
X128164749Y-74069635D01*
X128123919Y-74295432D01*
X128122984Y-74303662D01*
X128122070Y-74323050D01*
X128122000Y-74326026D01*
X128122000Y-75060385D01*
X125608000Y-75060385D01*
X125608000Y-70698134D01*
X150951500Y-70698134D01*
X150958255Y-70760316D01*
X151009385Y-70896705D01*
X151096739Y-71013261D01*
X151213295Y-71100615D01*
X151349684Y-71151745D01*
X151411866Y-71158500D01*
X153208134Y-71158500D01*
X153270316Y-71151745D01*
X153406705Y-71100615D01*
X153523261Y-71013261D01*
X153610615Y-70896705D01*
X153632799Y-70837529D01*
X153654598Y-70779382D01*
X153697240Y-70722618D01*
X153763802Y-70697918D01*
X153833150Y-70713126D01*
X153867817Y-70741114D01*
X153896250Y-70773938D01*
X154068126Y-70916632D01*
X154261000Y-71029338D01*
X154469692Y-71109030D01*
X154474760Y-71110061D01*
X154474763Y-71110062D01*
X154582017Y-71131883D01*
X154688597Y-71153567D01*
X154693772Y-71153757D01*
X154693774Y-71153757D01*
X154906673Y-71161564D01*
X154906677Y-71161564D01*
X154911837Y-71161753D01*
X154916957Y-71161097D01*
X154916959Y-71161097D01*
X155128288Y-71134025D01*
X155128289Y-71134025D01*
X155133416Y-71133368D01*
X155138366Y-71131883D01*
X155342429Y-71070661D01*
X155342434Y-71070659D01*
X155347384Y-71069174D01*
X155547994Y-70970896D01*
X155729860Y-70841173D01*
X155888096Y-70683489D01*
X156018453Y-70502077D01*
X156117430Y-70301811D01*
X156182370Y-70088069D01*
X156211529Y-69866590D01*
X156213156Y-69800000D01*
X156194852Y-69577361D01*
X156140431Y-69360702D01*
X156051354Y-69155840D01*
X155930014Y-68968277D01*
X155779670Y-68803051D01*
X155775619Y-68799852D01*
X155775615Y-68799848D01*
X155608414Y-68667800D01*
X155608410Y-68667798D01*
X155604359Y-68664598D01*
X155408789Y-68556638D01*
X155403920Y-68554914D01*
X155403916Y-68554912D01*
X155203087Y-68483795D01*
X155203083Y-68483794D01*
X155198212Y-68482069D01*
X155193119Y-68481162D01*
X155193116Y-68481161D01*
X154983373Y-68443800D01*
X154983367Y-68443799D01*
X154978284Y-68442894D01*
X154904452Y-68441992D01*
X154760081Y-68440228D01*
X154760079Y-68440228D01*
X154754911Y-68440165D01*
X154534091Y-68473955D01*
X154321756Y-68543357D01*
X154123607Y-68646507D01*
X154119474Y-68649610D01*
X154119471Y-68649612D01*
X153949100Y-68777530D01*
X153944965Y-68780635D01*
X153888537Y-68839684D01*
X153864283Y-68865064D01*
X153802759Y-68900494D01*
X153731846Y-68897037D01*
X153674060Y-68855791D01*
X153655207Y-68822243D01*
X153613767Y-68711703D01*
X153610615Y-68703295D01*
X153523261Y-68586739D01*
X153406705Y-68499385D01*
X153270316Y-68448255D01*
X153208134Y-68441500D01*
X151411866Y-68441500D01*
X151349684Y-68448255D01*
X151213295Y-68499385D01*
X151096739Y-68586739D01*
X151009385Y-68703295D01*
X150958255Y-68839684D01*
X150951500Y-68901866D01*
X150951500Y-70698134D01*
X125608000Y-70698134D01*
X125608000Y-66609857D01*
X125628002Y-66541736D01*
X125681658Y-66495243D01*
X125734168Y-66483857D01*
X158791581Y-66528530D01*
G37*
%TD.AperFunction*%
%TD*%
M02*
