%TF.GenerationSoftware,KiCad,Pcbnew,6.0.2+dfsg-1*%
%TF.CreationDate,2022-09-01T21:00:34+02:00*%
%TF.ProjectId,vscp-din-esp32-can-z102,76736370-2d64-4696-9e2d-65737033322d,rev?*%
%TF.SameCoordinates,Original*%
%TF.FileFunction,Legend,Bot*%
%TF.FilePolarity,Positive*%
%FSLAX46Y46*%
G04 Gerber Fmt 4.6, Leading zero omitted, Abs format (unit mm)*
G04 Created by KiCad (PCBNEW 6.0.2+dfsg-1) date 2022-09-01 21:00:34*
%MOMM*%
%LPD*%
G01*
G04 APERTURE LIST*
%ADD10C,0.200000*%
%ADD11C,0.300000*%
G04 APERTURE END LIST*
D10*
X157350000Y-145261904D02*
X157397619Y-145357142D01*
X157397619Y-145500000D01*
X157350000Y-145642857D01*
X157254761Y-145738095D01*
X157159523Y-145785714D01*
X156969047Y-145833333D01*
X156826190Y-145833333D01*
X156635714Y-145785714D01*
X156540476Y-145738095D01*
X156445238Y-145642857D01*
X156397619Y-145500000D01*
X156397619Y-145404761D01*
X156445238Y-145261904D01*
X156492857Y-145214285D01*
X156826190Y-145214285D01*
X156826190Y-145404761D01*
X156397619Y-144785714D02*
X157397619Y-144785714D01*
X156397619Y-144214285D01*
X157397619Y-144214285D01*
X156397619Y-143738095D02*
X157397619Y-143738095D01*
X157397619Y-143500000D01*
X157350000Y-143357142D01*
X157254761Y-143261904D01*
X157159523Y-143214285D01*
X156969047Y-143166666D01*
X156826190Y-143166666D01*
X156635714Y-143214285D01*
X156540476Y-143261904D01*
X156445238Y-143357142D01*
X156397619Y-143500000D01*
X156397619Y-143738095D01*
X154328571Y-145800000D02*
X154328571Y-145038095D01*
X153947619Y-145419047D02*
X154709523Y-145419047D01*
X154947619Y-144657142D02*
X154947619Y-144038095D01*
X154566666Y-144371428D01*
X154566666Y-144228571D01*
X154519047Y-144133333D01*
X154471428Y-144085714D01*
X154376190Y-144038095D01*
X154138095Y-144038095D01*
X154042857Y-144085714D01*
X153995238Y-144133333D01*
X153947619Y-144228571D01*
X153947619Y-144514285D01*
X153995238Y-144609523D01*
X154042857Y-144657142D01*
X154042857Y-143609523D02*
X153995238Y-143561904D01*
X153947619Y-143609523D01*
X153995238Y-143657142D01*
X154042857Y-143609523D01*
X153947619Y-143609523D01*
X154947619Y-143228571D02*
X154947619Y-142609523D01*
X154566666Y-142942857D01*
X154566666Y-142800000D01*
X154519047Y-142704761D01*
X154471428Y-142657142D01*
X154376190Y-142609523D01*
X154138095Y-142609523D01*
X154042857Y-142657142D01*
X153995238Y-142704761D01*
X153947619Y-142800000D01*
X153947619Y-143085714D01*
X153995238Y-143180952D01*
X154042857Y-143228571D01*
X154947619Y-142323809D02*
X153947619Y-141990476D01*
X154947619Y-141657142D01*
X151297619Y-145188095D02*
X151773809Y-145521428D01*
X151297619Y-145759523D02*
X152297619Y-145759523D01*
X152297619Y-145378571D01*
X152250000Y-145283333D01*
X152202380Y-145235714D01*
X152107142Y-145188095D01*
X151964285Y-145188095D01*
X151869047Y-145235714D01*
X151821428Y-145283333D01*
X151773809Y-145378571D01*
X151773809Y-145759523D01*
X151345238Y-144378571D02*
X151297619Y-144473809D01*
X151297619Y-144664285D01*
X151345238Y-144759523D01*
X151440476Y-144807142D01*
X151821428Y-144807142D01*
X151916666Y-144759523D01*
X151964285Y-144664285D01*
X151964285Y-144473809D01*
X151916666Y-144378571D01*
X151821428Y-144330952D01*
X151726190Y-144330952D01*
X151630952Y-144807142D01*
X151345238Y-143950000D02*
X151297619Y-143854761D01*
X151297619Y-143664285D01*
X151345238Y-143569047D01*
X151440476Y-143521428D01*
X151488095Y-143521428D01*
X151583333Y-143569047D01*
X151630952Y-143664285D01*
X151630952Y-143807142D01*
X151678571Y-143902380D01*
X151773809Y-143950000D01*
X151821428Y-143950000D01*
X151916666Y-143902380D01*
X151964285Y-143807142D01*
X151964285Y-143664285D01*
X151916666Y-143569047D01*
X151345238Y-142711904D02*
X151297619Y-142807142D01*
X151297619Y-142997619D01*
X151345238Y-143092857D01*
X151440476Y-143140476D01*
X151821428Y-143140476D01*
X151916666Y-143092857D01*
X151964285Y-142997619D01*
X151964285Y-142807142D01*
X151916666Y-142711904D01*
X151821428Y-142664285D01*
X151726190Y-142664285D01*
X151630952Y-143140476D01*
X151964285Y-142378571D02*
X151964285Y-141997619D01*
X152297619Y-142235714D02*
X151440476Y-142235714D01*
X151345238Y-142188095D01*
X151297619Y-142092857D01*
X151297619Y-141997619D01*
X149697619Y-145811904D02*
X149697619Y-145240476D01*
X148697619Y-145526190D02*
X149697619Y-145526190D01*
X149697619Y-145002380D02*
X148697619Y-144335714D01*
X149697619Y-144335714D02*
X148697619Y-145002380D01*
X146347619Y-145166666D02*
X146823809Y-145500000D01*
X146347619Y-145738095D02*
X147347619Y-145738095D01*
X147347619Y-145357142D01*
X147300000Y-145261904D01*
X147252380Y-145214285D01*
X147157142Y-145166666D01*
X147014285Y-145166666D01*
X146919047Y-145214285D01*
X146871428Y-145261904D01*
X146823809Y-145357142D01*
X146823809Y-145738095D01*
X147347619Y-144833333D02*
X146347619Y-144166666D01*
X147347619Y-144166666D02*
X146347619Y-144833333D01*
X144171428Y-145440476D02*
X144171428Y-145773809D01*
X143647619Y-145773809D02*
X144647619Y-145773809D01*
X144647619Y-145297619D01*
X143647619Y-144440476D02*
X143647619Y-144916666D01*
X144647619Y-144916666D01*
X143933333Y-144154761D02*
X143933333Y-143678571D01*
X143647619Y-144250000D02*
X144647619Y-143916666D01*
X143647619Y-143583333D01*
X143695238Y-143297619D02*
X143647619Y-143154761D01*
X143647619Y-142916666D01*
X143695238Y-142821428D01*
X143742857Y-142773809D01*
X143838095Y-142726190D01*
X143933333Y-142726190D01*
X144028571Y-142773809D01*
X144076190Y-142821428D01*
X144123809Y-142916666D01*
X144171428Y-143107142D01*
X144219047Y-143202380D01*
X144266666Y-143250000D01*
X144361904Y-143297619D01*
X144457142Y-143297619D01*
X144552380Y-143250000D01*
X144600000Y-143202380D01*
X144647619Y-143107142D01*
X144647619Y-142869047D01*
X144600000Y-142726190D01*
X143647619Y-142297619D02*
X144647619Y-142297619D01*
X144171428Y-142297619D02*
X144171428Y-141726190D01*
X143647619Y-141726190D02*
X144647619Y-141726190D01*
X134947619Y-146030952D02*
X135947619Y-146030952D01*
X135947619Y-145792857D01*
X135900000Y-145650000D01*
X135804761Y-145554761D01*
X135709523Y-145507142D01*
X135519047Y-145459523D01*
X135376190Y-145459523D01*
X135185714Y-145507142D01*
X135090476Y-145554761D01*
X134995238Y-145650000D01*
X134947619Y-145792857D01*
X134947619Y-146030952D01*
X135328571Y-145030952D02*
X135328571Y-144269047D01*
X134947619Y-144650000D02*
X135709523Y-144650000D01*
X132397619Y-146080952D02*
X133397619Y-146080952D01*
X133397619Y-145842857D01*
X133350000Y-145700000D01*
X133254761Y-145604761D01*
X133159523Y-145557142D01*
X132969047Y-145509523D01*
X132826190Y-145509523D01*
X132635714Y-145557142D01*
X132540476Y-145604761D01*
X132445238Y-145700000D01*
X132397619Y-145842857D01*
X132397619Y-146080952D01*
X132778571Y-145080952D02*
X132778571Y-144319047D01*
X138500000Y-145911904D02*
X138547619Y-146007142D01*
X138547619Y-146150000D01*
X138500000Y-146292857D01*
X138404761Y-146388095D01*
X138309523Y-146435714D01*
X138119047Y-146483333D01*
X137976190Y-146483333D01*
X137785714Y-146435714D01*
X137690476Y-146388095D01*
X137595238Y-146292857D01*
X137547619Y-146150000D01*
X137547619Y-146054761D01*
X137595238Y-145911904D01*
X137642857Y-145864285D01*
X137976190Y-145864285D01*
X137976190Y-146054761D01*
X137547619Y-145435714D02*
X138547619Y-145435714D01*
X137547619Y-144864285D01*
X138547619Y-144864285D01*
X137547619Y-144388095D02*
X138547619Y-144388095D01*
X138547619Y-144150000D01*
X138500000Y-144007142D01*
X138404761Y-143911904D01*
X138309523Y-143864285D01*
X138119047Y-143816666D01*
X137976190Y-143816666D01*
X137785714Y-143864285D01*
X137690476Y-143911904D01*
X137595238Y-144007142D01*
X137547619Y-144150000D01*
X137547619Y-144388095D01*
X129597619Y-146083333D02*
X130597619Y-146083333D01*
X130597619Y-145702380D01*
X130550000Y-145607142D01*
X130502380Y-145559523D01*
X130407142Y-145511904D01*
X130264285Y-145511904D01*
X130169047Y-145559523D01*
X130121428Y-145607142D01*
X130073809Y-145702380D01*
X130073809Y-146083333D01*
X130597619Y-145178571D02*
X129597619Y-144940476D01*
X130311904Y-144750000D01*
X129597619Y-144559523D01*
X130597619Y-144321428D01*
X129597619Y-143369047D02*
X130073809Y-143702380D01*
X129597619Y-143940476D02*
X130597619Y-143940476D01*
X130597619Y-143559523D01*
X130550000Y-143464285D01*
X130502380Y-143416666D01*
X130407142Y-143369047D01*
X130264285Y-143369047D01*
X130169047Y-143416666D01*
X130121428Y-143464285D01*
X130073809Y-143559523D01*
X130073809Y-143940476D01*
D11*
X130100000Y-71942857D02*
X130171428Y-72085714D01*
X130171428Y-72300000D01*
X130100000Y-72514285D01*
X129957142Y-72657142D01*
X129814285Y-72728571D01*
X129528571Y-72800000D01*
X129314285Y-72800000D01*
X129028571Y-72728571D01*
X128885714Y-72657142D01*
X128742857Y-72514285D01*
X128671428Y-72300000D01*
X128671428Y-72157142D01*
X128742857Y-71942857D01*
X128814285Y-71871428D01*
X129314285Y-71871428D01*
X129314285Y-72157142D01*
X128671428Y-71228571D02*
X130171428Y-71228571D01*
X128671428Y-70371428D01*
X130171428Y-70371428D01*
X128671428Y-69657142D02*
X130171428Y-69657142D01*
X130171428Y-69300000D01*
X130100000Y-69085714D01*
X129957142Y-68942857D01*
X129814285Y-68871428D01*
X129528571Y-68800000D01*
X129314285Y-68800000D01*
X129028571Y-68871428D01*
X128885714Y-68942857D01*
X128742857Y-69085714D01*
X128671428Y-69300000D01*
X128671428Y-69657142D01*
X132714285Y-71721428D02*
X132642857Y-71792857D01*
X132571428Y-72007142D01*
X132571428Y-72150000D01*
X132642857Y-72364285D01*
X132785714Y-72507142D01*
X132928571Y-72578571D01*
X133214285Y-72650000D01*
X133428571Y-72650000D01*
X133714285Y-72578571D01*
X133857142Y-72507142D01*
X134000000Y-72364285D01*
X134071428Y-72150000D01*
X134071428Y-72007142D01*
X134000000Y-71792857D01*
X133928571Y-71721428D01*
X133000000Y-71150000D02*
X133000000Y-70435714D01*
X132571428Y-71292857D02*
X134071428Y-70792857D01*
X132571428Y-70292857D01*
X132571428Y-69792857D02*
X134071428Y-69792857D01*
X132571428Y-68935714D01*
X134071428Y-68935714D01*
X132571428Y-67507142D02*
X132571428Y-68221428D01*
X134071428Y-68221428D01*
X136514285Y-71750000D02*
X136442857Y-71821428D01*
X136371428Y-72035714D01*
X136371428Y-72178571D01*
X136442857Y-72392857D01*
X136585714Y-72535714D01*
X136728571Y-72607142D01*
X137014285Y-72678571D01*
X137228571Y-72678571D01*
X137514285Y-72607142D01*
X137657142Y-72535714D01*
X137800000Y-72392857D01*
X137871428Y-72178571D01*
X137871428Y-72035714D01*
X137800000Y-71821428D01*
X137728571Y-71750000D01*
X136800000Y-71178571D02*
X136800000Y-70464285D01*
X136371428Y-71321428D02*
X137871428Y-70821428D01*
X136371428Y-70321428D01*
X136371428Y-69821428D02*
X137871428Y-69821428D01*
X136371428Y-68964285D01*
X137871428Y-68964285D01*
X136371428Y-68250000D02*
X137871428Y-68250000D01*
X137157142Y-68250000D02*
X137157142Y-67392857D01*
X136371428Y-67392857D02*
X137871428Y-67392857D01*
X140171428Y-72650000D02*
X141671428Y-72650000D01*
X141671428Y-72078571D01*
X141600000Y-71935714D01*
X141528571Y-71864285D01*
X141385714Y-71792857D01*
X141171428Y-71792857D01*
X141028571Y-71864285D01*
X140957142Y-71935714D01*
X140885714Y-72078571D01*
X140885714Y-72650000D01*
X141671428Y-71292857D02*
X140171428Y-70935714D01*
X141242857Y-70650000D01*
X140171428Y-70364285D01*
X141671428Y-70007142D01*
X140171428Y-68578571D02*
X140885714Y-69078571D01*
X140171428Y-69435714D02*
X141671428Y-69435714D01*
X141671428Y-68864285D01*
X141600000Y-68721428D01*
X141528571Y-68650000D01*
X141385714Y-68578571D01*
X141171428Y-68578571D01*
X141028571Y-68650000D01*
X140957142Y-68721428D01*
X140885714Y-68864285D01*
X140885714Y-69435714D01*
X142171428Y-129985714D02*
X143671428Y-129985714D01*
X142171428Y-129342857D02*
X142957142Y-129342857D01*
X143100000Y-129414285D01*
X143171428Y-129557142D01*
X143171428Y-129771428D01*
X143100000Y-129914285D01*
X143028571Y-129985714D01*
X143171428Y-128842857D02*
X143171428Y-128271428D01*
X143671428Y-128628571D02*
X142385714Y-128628571D01*
X142242857Y-128557142D01*
X142171428Y-128414285D01*
X142171428Y-128271428D01*
X143171428Y-127985714D02*
X143171428Y-127414285D01*
X143671428Y-127771428D02*
X142385714Y-127771428D01*
X142242857Y-127700000D01*
X142171428Y-127557142D01*
X142171428Y-127414285D01*
X143171428Y-126914285D02*
X141671428Y-126914285D01*
X143100000Y-126914285D02*
X143171428Y-126771428D01*
X143171428Y-126485714D01*
X143100000Y-126342857D01*
X143028571Y-126271428D01*
X142885714Y-126200000D01*
X142457142Y-126200000D01*
X142314285Y-126271428D01*
X142242857Y-126342857D01*
X142171428Y-126485714D01*
X142171428Y-126771428D01*
X142242857Y-126914285D01*
X142314285Y-125557142D02*
X142242857Y-125485714D01*
X142171428Y-125557142D01*
X142242857Y-125628571D01*
X142314285Y-125557142D01*
X142171428Y-125557142D01*
X143100000Y-125557142D02*
X143028571Y-125485714D01*
X142957142Y-125557142D01*
X143028571Y-125628571D01*
X143100000Y-125557142D01*
X142957142Y-125557142D01*
X143742857Y-123771428D02*
X141814285Y-125057142D01*
X143742857Y-122200000D02*
X141814285Y-123485714D01*
X143171428Y-121842857D02*
X142171428Y-121557142D01*
X142885714Y-121271428D01*
X142171428Y-120985714D01*
X143171428Y-120700000D01*
X143171428Y-120271428D02*
X142171428Y-119985714D01*
X142885714Y-119700000D01*
X142171428Y-119414285D01*
X143171428Y-119128571D01*
X143171428Y-118700000D02*
X142171428Y-118414285D01*
X142885714Y-118128571D01*
X142171428Y-117842857D01*
X143171428Y-117557142D01*
X142314285Y-116985714D02*
X142242857Y-116914285D01*
X142171428Y-116985714D01*
X142242857Y-117057142D01*
X142314285Y-116985714D01*
X142171428Y-116985714D01*
X143171428Y-115628571D02*
X141957142Y-115628571D01*
X141814285Y-115700000D01*
X141742857Y-115771428D01*
X141671428Y-115914285D01*
X141671428Y-116128571D01*
X141742857Y-116271428D01*
X142242857Y-115628571D02*
X142171428Y-115771428D01*
X142171428Y-116057142D01*
X142242857Y-116200000D01*
X142314285Y-116271428D01*
X142457142Y-116342857D01*
X142885714Y-116342857D01*
X143028571Y-116271428D01*
X143100000Y-116200000D01*
X143171428Y-116057142D01*
X143171428Y-115771428D01*
X143100000Y-115628571D01*
X142171428Y-114914285D02*
X143171428Y-114914285D01*
X142885714Y-114914285D02*
X143028571Y-114842857D01*
X143100000Y-114771428D01*
X143171428Y-114628571D01*
X143171428Y-114485714D01*
X142171428Y-113771428D02*
X142242857Y-113914285D01*
X142314285Y-113985714D01*
X142457142Y-114057142D01*
X142885714Y-114057142D01*
X143028571Y-113985714D01*
X143100000Y-113914285D01*
X143171428Y-113771428D01*
X143171428Y-113557142D01*
X143100000Y-113414285D01*
X143028571Y-113342857D01*
X142885714Y-113271428D01*
X142457142Y-113271428D01*
X142314285Y-113342857D01*
X142242857Y-113414285D01*
X142171428Y-113557142D01*
X142171428Y-113771428D01*
X142171428Y-111985714D02*
X143671428Y-111985714D01*
X142242857Y-111985714D02*
X142171428Y-112128571D01*
X142171428Y-112414285D01*
X142242857Y-112557142D01*
X142314285Y-112628571D01*
X142457142Y-112700000D01*
X142885714Y-112700000D01*
X143028571Y-112628571D01*
X143100000Y-112557142D01*
X143171428Y-112414285D01*
X143171428Y-112128571D01*
X143100000Y-111985714D01*
X142171428Y-110628571D02*
X142957142Y-110628571D01*
X143100000Y-110700000D01*
X143171428Y-110842857D01*
X143171428Y-111128571D01*
X143100000Y-111271428D01*
X142242857Y-110628571D02*
X142171428Y-110771428D01*
X142171428Y-111128571D01*
X142242857Y-111271428D01*
X142385714Y-111342857D01*
X142528571Y-111342857D01*
X142671428Y-111271428D01*
X142742857Y-111128571D01*
X142742857Y-110771428D01*
X142814285Y-110628571D01*
X143171428Y-109914285D02*
X142171428Y-109914285D01*
X143028571Y-109914285D02*
X143100000Y-109842857D01*
X143171428Y-109700000D01*
X143171428Y-109485714D01*
X143100000Y-109342857D01*
X142957142Y-109271428D01*
X142171428Y-109271428D01*
X142242857Y-108628571D02*
X142171428Y-108485714D01*
X142171428Y-108200000D01*
X142242857Y-108057142D01*
X142385714Y-107985714D01*
X142457142Y-107985714D01*
X142600000Y-108057142D01*
X142671428Y-108200000D01*
X142671428Y-108414285D01*
X142742857Y-108557142D01*
X142885714Y-108628571D01*
X142957142Y-108628571D01*
X143100000Y-108557142D01*
X143171428Y-108414285D01*
X143171428Y-108200000D01*
X143100000Y-108057142D01*
X143171428Y-107342857D02*
X141671428Y-107342857D01*
X143100000Y-107342857D02*
X143171428Y-107200000D01*
X143171428Y-106914285D01*
X143100000Y-106771428D01*
X143028571Y-106700000D01*
X142885714Y-106628571D01*
X142457142Y-106628571D01*
X142314285Y-106700000D01*
X142242857Y-106771428D01*
X142171428Y-106914285D01*
X142171428Y-107200000D01*
X142242857Y-107342857D01*
X142171428Y-105342857D02*
X142957142Y-105342857D01*
X143100000Y-105414285D01*
X143171428Y-105557142D01*
X143171428Y-105842857D01*
X143100000Y-105985714D01*
X142242857Y-105342857D02*
X142171428Y-105485714D01*
X142171428Y-105842857D01*
X142242857Y-105985714D01*
X142385714Y-106057142D01*
X142528571Y-106057142D01*
X142671428Y-105985714D01*
X142742857Y-105842857D01*
X142742857Y-105485714D01*
X142814285Y-105342857D01*
X142171428Y-104628571D02*
X143171428Y-104628571D01*
X142885714Y-104628571D02*
X143028571Y-104557142D01*
X143100000Y-104485714D01*
X143171428Y-104342857D01*
X143171428Y-104200000D01*
X142171428Y-103057142D02*
X142957142Y-103057142D01*
X143100000Y-103128571D01*
X143171428Y-103271428D01*
X143171428Y-103557142D01*
X143100000Y-103700000D01*
X142242857Y-103057142D02*
X142171428Y-103200000D01*
X142171428Y-103557142D01*
X142242857Y-103700000D01*
X142385714Y-103771428D01*
X142528571Y-103771428D01*
X142671428Y-103700000D01*
X142742857Y-103557142D01*
X142742857Y-103200000D01*
X142814285Y-103057142D01*
X142171428Y-101700000D02*
X143671428Y-101700000D01*
X142242857Y-101700000D02*
X142171428Y-101842857D01*
X142171428Y-102128571D01*
X142242857Y-102271428D01*
X142314285Y-102342857D01*
X142457142Y-102414285D01*
X142885714Y-102414285D01*
X143028571Y-102342857D01*
X143100000Y-102271428D01*
X143171428Y-102128571D01*
X143171428Y-101842857D01*
X143100000Y-101700000D01*
X142171428Y-100985714D02*
X143171428Y-100985714D01*
X143671428Y-100985714D02*
X143600000Y-101057142D01*
X143528571Y-100985714D01*
X143600000Y-100914285D01*
X143671428Y-100985714D01*
X143528571Y-100985714D01*
X142242857Y-100342857D02*
X142171428Y-100200000D01*
X142171428Y-99914285D01*
X142242857Y-99771428D01*
X142385714Y-99700000D01*
X142457142Y-99700000D01*
X142600000Y-99771428D01*
X142671428Y-99914285D01*
X142671428Y-100128571D01*
X142742857Y-100271428D01*
X142885714Y-100342857D01*
X142957142Y-100342857D01*
X143100000Y-100271428D01*
X143171428Y-100128571D01*
X143171428Y-99914285D01*
X143100000Y-99771428D01*
X142314285Y-99057142D02*
X142242857Y-98985714D01*
X142171428Y-99057142D01*
X142242857Y-99128571D01*
X142314285Y-99057142D01*
X142171428Y-99057142D01*
X142242857Y-97700000D02*
X142171428Y-97842857D01*
X142171428Y-98128571D01*
X142242857Y-98271428D01*
X142314285Y-98342857D01*
X142457142Y-98414285D01*
X142885714Y-98414285D01*
X143028571Y-98342857D01*
X143100000Y-98271428D01*
X143171428Y-98128571D01*
X143171428Y-97842857D01*
X143100000Y-97700000D01*
X142171428Y-96842857D02*
X142242857Y-96985714D01*
X142314285Y-97057142D01*
X142457142Y-97128571D01*
X142885714Y-97128571D01*
X143028571Y-97057142D01*
X143100000Y-96985714D01*
X143171428Y-96842857D01*
X143171428Y-96628571D01*
X143100000Y-96485714D01*
X143028571Y-96414285D01*
X142885714Y-96342857D01*
X142457142Y-96342857D01*
X142314285Y-96414285D01*
X142242857Y-96485714D01*
X142171428Y-96628571D01*
X142171428Y-96842857D01*
X142171428Y-95700000D02*
X143171428Y-95700000D01*
X143028571Y-95700000D02*
X143100000Y-95628571D01*
X143171428Y-95485714D01*
X143171428Y-95271428D01*
X143100000Y-95128571D01*
X142957142Y-95057142D01*
X142171428Y-95057142D01*
X142957142Y-95057142D02*
X143100000Y-94985714D01*
X143171428Y-94842857D01*
X143171428Y-94628571D01*
X143100000Y-94485714D01*
X142957142Y-94414285D01*
X142171428Y-94414285D01*
M02*
