%TF.GenerationSoftware,KiCad,Pcbnew,5.1.9+dfsg1-1*%
%TF.CreationDate,2021-05-25T15:32:43+02:00*%
%TF.ProjectId,vscp-din-wireless-esp32-can,76736370-2d64-4696-9e2d-776972656c65,rev?*%
%TF.SameCoordinates,Original*%
%TF.FileFunction,Copper,L2,Bot*%
%TF.FilePolarity,Positive*%
%FSLAX46Y46*%
G04 Gerber Fmt 4.6, Leading zero omitted, Abs format (unit mm)*
G04 Created by KiCad (PCBNEW 5.1.9+dfsg1-1) date 2021-05-25 15:32:43*
%MOMM*%
%LPD*%
G01*
G04 APERTURE LIST*
%TA.AperFunction,ComponentPad*%
%ADD10O,1.700000X1.700000*%
%TD*%
%TA.AperFunction,ComponentPad*%
%ADD11R,1.700000X1.700000*%
%TD*%
%TA.AperFunction,ComponentPad*%
%ADD12C,1.800000*%
%TD*%
%TA.AperFunction,ComponentPad*%
%ADD13R,1.800000X1.800000*%
%TD*%
%TA.AperFunction,ComponentPad*%
%ADD14C,1.600000*%
%TD*%
%TA.AperFunction,ComponentPad*%
%ADD15R,1.600000X1.600000*%
%TD*%
%TA.AperFunction,ViaPad*%
%ADD16C,0.800000*%
%TD*%
%TA.AperFunction,Conductor*%
%ADD17C,0.250000*%
%TD*%
%TA.AperFunction,Conductor*%
%ADD18C,0.254000*%
%TD*%
%TA.AperFunction,Conductor*%
%ADD19C,0.100000*%
%TD*%
G04 APERTURE END LIST*
D10*
%TO.P,J1,4*%
%TO.N,GND*%
X127820000Y-97600000D03*
%TO.P,J1,3*%
%TO.N,Net-(D2-Pad1)*%
X125280000Y-97600000D03*
%TO.P,J1,2*%
%TO.N,Net-(D2-Pad2)*%
X122740000Y-97600000D03*
D11*
%TO.P,J1,1*%
%TO.N,Net-(J1-Pad1)*%
X120200000Y-97600000D03*
%TD*%
D10*
%TO.P,J4,2*%
%TO.N,Net-(D2-Pad2)*%
X125984000Y-87884000D03*
D11*
%TO.P,J4,1*%
%TO.N,Net-(J4-Pad1)*%
X125984000Y-85344000D03*
%TD*%
D12*
%TO.P,D1,3*%
%TO.N,/leda*%
X166116000Y-54356000D03*
%TO.P,D1,2*%
%TO.N,Net-(D1-Pad2)*%
X163576000Y-54356000D03*
D13*
%TO.P,D1,1*%
%TO.N,/ledb*%
X161036000Y-54356000D03*
%TD*%
D14*
%TO.P,C2,2*%
%TO.N,GND*%
X133056000Y-58166000D03*
D15*
%TO.P,C2,1*%
%TO.N,VCC*%
X130556000Y-58166000D03*
%TD*%
D10*
%TO.P,J2,4*%
%TO.N,Net-(J2-Pad4)*%
X176000000Y-97500000D03*
%TO.P,J2,3*%
%TO.N,Net-(J2-Pad3)*%
X173460000Y-97500000D03*
%TO.P,J2,2*%
%TO.N,VCC*%
X170920000Y-97500000D03*
D11*
%TO.P,J2,1*%
%TO.N,GND*%
X168380000Y-97500000D03*
%TD*%
D10*
%TO.P,J3,6*%
%TO.N,GND*%
X118010600Y-79095000D03*
%TO.P,J3,5*%
%TO.N,VCC*%
X118010600Y-76555000D03*
%TO.P,J3,4*%
%TO.N,/RESET*%
X118010600Y-74015000D03*
%TO.P,J3,3*%
%TO.N,/RXD*%
X118010600Y-71475000D03*
%TO.P,J3,2*%
%TO.N,/TXD*%
X118010600Y-68935000D03*
D11*
%TO.P,J3,1*%
%TO.N,/FLASH*%
X118010600Y-66395000D03*
%TD*%
D16*
%TO.N,GND*%
X151638000Y-57912000D03*
X133096000Y-50038000D03*
X142240000Y-50038000D03*
X173736000Y-90932000D03*
X127762000Y-73914000D03*
X124714000Y-70104000D03*
X160274000Y-58166000D03*
X166370000Y-51562000D03*
X135128000Y-84836000D03*
X135128000Y-88138000D03*
X138430000Y-67818000D03*
X156972000Y-69850000D03*
X140208000Y-82804000D03*
X156718000Y-85598000D03*
X140970000Y-84836000D03*
%TO.N,/reset*%
X132334000Y-70866000D03*
X129032000Y-70866000D03*
%TO.N,/leda*%
X154940000Y-61976000D03*
%TO.N,/ledb*%
X152908000Y-62992000D03*
%TO.N,/TXD*%
X153924000Y-53340000D03*
%TO.N,/RXD*%
X153804000Y-54476000D03*
%TO.N,Net-(R5-Pad1)*%
X129032000Y-66040000D03*
X133858000Y-66040000D03*
%TO.N,Net-(D2-Pad1)*%
X128016000Y-90170000D03*
%TO.N,/CS*%
X145288000Y-78994000D03*
X152654000Y-64516000D03*
%TO.N,/irq0*%
X153924000Y-50038000D03*
X159258000Y-52070000D03*
X146812000Y-70358000D03*
X146050000Y-60706000D03*
%TO.N,/rxcan*%
X145034000Y-88900000D03*
X151384000Y-88900000D03*
%TO.N,/MOSI*%
X145034000Y-70358000D03*
X144272000Y-64516000D03*
%TO.N,/MISO*%
X140208000Y-75184000D03*
X136906000Y-66294000D03*
%TO.N,/SCK*%
X143256000Y-70358000D03*
X142240000Y-64770000D03*
%TD*%
D17*
%TO.N,/reset*%
X129032000Y-70866000D02*
X132334000Y-70866000D01*
%TO.N,/leda*%
X154940000Y-61976000D02*
X165862000Y-61976000D01*
X166116000Y-61722000D02*
X166116000Y-54356000D01*
X165862000Y-61976000D02*
X166116000Y-61722000D01*
%TO.N,/ledb*%
X161036000Y-54356000D02*
X161036000Y-58477002D01*
X161036000Y-58477002D02*
X161036000Y-60706000D01*
X161036000Y-60706000D02*
X160528000Y-61214000D01*
X152908000Y-62934998D02*
X152908000Y-62992000D01*
X154628998Y-61214000D02*
X152908000Y-62934998D01*
X160528000Y-61214000D02*
X154628998Y-61214000D01*
%TO.N,/TXD*%
X118010600Y-68935000D02*
X119533000Y-68935000D01*
X119533000Y-68935000D02*
X123444000Y-65024000D01*
X123444000Y-65024000D02*
X127508000Y-65024000D01*
X127508000Y-65024000D02*
X128016000Y-64516000D01*
X128016000Y-64516000D02*
X128016000Y-54102000D01*
X128016000Y-54102000D02*
X128778000Y-53340000D01*
X152457002Y-53340000D02*
X153924000Y-53340000D01*
X128778000Y-53340000D02*
X152457002Y-53340000D01*
%TO.N,/RXD*%
X119634000Y-71374000D02*
X119533000Y-71475000D01*
X119634000Y-69470410D02*
X119634000Y-71374000D01*
X128466010Y-54413990D02*
X128466009Y-64702401D01*
X129032000Y-53848000D02*
X128466010Y-54413990D01*
X152908000Y-53848000D02*
X129032000Y-53848000D01*
X119533000Y-71475000D02*
X118010600Y-71475000D01*
X128466009Y-64702401D02*
X127382410Y-65786000D01*
X153804000Y-54476000D02*
X152908000Y-53848000D01*
X123318410Y-65786000D02*
X119634000Y-69470410D01*
X127382410Y-65786000D02*
X123318410Y-65786000D01*
%TO.N,Net-(R5-Pad1)*%
X133858000Y-66040000D02*
X129032000Y-66040000D01*
%TO.N,Net-(D2-Pad2)*%
X125984000Y-87884000D02*
X123952000Y-87884000D01*
X122740000Y-89096000D02*
X122740000Y-97600000D01*
X123952000Y-87884000D02*
X122740000Y-89096000D01*
%TO.N,Net-(D2-Pad1)*%
X128016000Y-90170000D02*
X125222000Y-92964000D01*
X125222000Y-97542000D02*
X125280000Y-97600000D01*
X125222000Y-92964000D02*
X125222000Y-97542000D01*
%TO.N,/CS*%
X145288000Y-78994000D02*
X150368000Y-78994000D01*
X150368000Y-78994000D02*
X151130000Y-78232000D01*
X151130000Y-78232000D02*
X151130000Y-71374000D01*
X152654000Y-69850000D02*
X152654000Y-64516000D01*
X151130000Y-71374000D02*
X152654000Y-69850000D01*
%TO.N,/irq0*%
X157226000Y-50038000D02*
X159258000Y-52070000D01*
X153924000Y-50038000D02*
X157226000Y-50038000D01*
X146050000Y-69596000D02*
X146050000Y-60706000D01*
X146812000Y-70358000D02*
X146050000Y-69596000D01*
%TO.N,/rxcan*%
X145034000Y-88900000D02*
X151384000Y-88900000D01*
%TO.N,/MOSI*%
X145034000Y-70358000D02*
X145034000Y-65278000D01*
X145034000Y-65278000D02*
X144272000Y-64516000D01*
%TO.N,/MISO*%
X136906000Y-71882000D02*
X136906000Y-66294000D01*
X140208000Y-75184000D02*
X136906000Y-71882000D01*
%TO.N,/SCK*%
X142240000Y-69342000D02*
X142240000Y-64770000D01*
X143256000Y-70358000D02*
X142240000Y-69342000D01*
%TD*%
D18*
%TO.N,GND*%
X153433744Y-49120795D02*
X153264226Y-49234063D01*
X153120063Y-49378226D01*
X153006795Y-49547744D01*
X152928774Y-49736102D01*
X152889000Y-49936061D01*
X152889000Y-50139939D01*
X152928774Y-50339898D01*
X153006795Y-50528256D01*
X153120063Y-50697774D01*
X153264226Y-50841937D01*
X153433744Y-50955205D01*
X153622102Y-51033226D01*
X153822061Y-51073000D01*
X154025939Y-51073000D01*
X154225898Y-51033226D01*
X154414256Y-50955205D01*
X154583774Y-50841937D01*
X154627711Y-50798000D01*
X156911199Y-50798000D01*
X158223000Y-52109802D01*
X158223000Y-52171939D01*
X158262774Y-52371898D01*
X158340795Y-52560256D01*
X158454063Y-52729774D01*
X158598226Y-52873937D01*
X158767744Y-52987205D01*
X158956102Y-53065226D01*
X159156061Y-53105000D01*
X159359939Y-53105000D01*
X159559898Y-53065226D01*
X159674037Y-53017948D01*
X159605463Y-53101506D01*
X159546498Y-53211820D01*
X159510188Y-53331518D01*
X159497928Y-53456000D01*
X159497928Y-55256000D01*
X159510188Y-55380482D01*
X159546498Y-55500180D01*
X159605463Y-55610494D01*
X159684815Y-55707185D01*
X159781506Y-55786537D01*
X159891820Y-55845502D01*
X160011518Y-55881812D01*
X160136000Y-55894072D01*
X160276000Y-55894072D01*
X160276001Y-58439660D01*
X160276000Y-58439670D01*
X160276001Y-60391198D01*
X160213199Y-60454000D01*
X154666323Y-60454000D01*
X154628998Y-60450324D01*
X154591673Y-60454000D01*
X154591665Y-60454000D01*
X154480012Y-60464997D01*
X154336751Y-60508454D01*
X154204722Y-60579026D01*
X154088997Y-60673999D01*
X154065199Y-60702997D01*
X152811197Y-61957000D01*
X152806061Y-61957000D01*
X152606102Y-61996774D01*
X152417744Y-62074795D01*
X152248226Y-62188063D01*
X152104063Y-62332226D01*
X151990795Y-62501744D01*
X151912774Y-62690102D01*
X151873000Y-62890061D01*
X151873000Y-63093939D01*
X151912774Y-63293898D01*
X151990795Y-63482256D01*
X152098011Y-63642716D01*
X151994226Y-63712063D01*
X151850063Y-63856226D01*
X151736795Y-64025744D01*
X151658774Y-64214102D01*
X151619000Y-64414061D01*
X151619000Y-64617939D01*
X151658774Y-64817898D01*
X151736795Y-65006256D01*
X151850063Y-65175774D01*
X151894001Y-65219712D01*
X151894000Y-69535197D01*
X150618998Y-70810201D01*
X150590000Y-70833999D01*
X150566202Y-70862997D01*
X150566201Y-70862998D01*
X150495026Y-70949724D01*
X150424454Y-71081754D01*
X150380998Y-71225015D01*
X150366324Y-71374000D01*
X150370001Y-71411332D01*
X150370000Y-77917198D01*
X150053199Y-78234000D01*
X145991711Y-78234000D01*
X145947774Y-78190063D01*
X145778256Y-78076795D01*
X145589898Y-77998774D01*
X145389939Y-77959000D01*
X145186061Y-77959000D01*
X144986102Y-77998774D01*
X144797744Y-78076795D01*
X144628226Y-78190063D01*
X144484063Y-78334226D01*
X144370795Y-78503744D01*
X144292774Y-78692102D01*
X144253000Y-78892061D01*
X144253000Y-79095939D01*
X144292774Y-79295898D01*
X144370795Y-79484256D01*
X144484063Y-79653774D01*
X144628226Y-79797937D01*
X144797744Y-79911205D01*
X144986102Y-79989226D01*
X145186061Y-80029000D01*
X145389939Y-80029000D01*
X145589898Y-79989226D01*
X145778256Y-79911205D01*
X145947774Y-79797937D01*
X145991711Y-79754000D01*
X150330678Y-79754000D01*
X150368000Y-79757676D01*
X150405322Y-79754000D01*
X150405333Y-79754000D01*
X150516986Y-79743003D01*
X150660247Y-79699546D01*
X150792276Y-79628974D01*
X150908001Y-79534001D01*
X150931803Y-79504998D01*
X151641004Y-78795798D01*
X151670001Y-78772001D01*
X151764974Y-78656276D01*
X151835546Y-78524247D01*
X151879003Y-78380986D01*
X151890000Y-78269333D01*
X151890000Y-78269325D01*
X151893676Y-78232000D01*
X151890000Y-78194675D01*
X151890000Y-71688801D01*
X153165009Y-70413794D01*
X153194001Y-70390001D01*
X153217795Y-70361008D01*
X153217799Y-70361004D01*
X153288973Y-70274277D01*
X153288974Y-70274276D01*
X153359546Y-70142247D01*
X153403003Y-69998986D01*
X153414000Y-69887333D01*
X153414000Y-69887324D01*
X153417676Y-69850001D01*
X153414000Y-69812678D01*
X153414000Y-65219711D01*
X153457937Y-65175774D01*
X153571205Y-65006256D01*
X153649226Y-64817898D01*
X153689000Y-64617939D01*
X153689000Y-64414061D01*
X153649226Y-64214102D01*
X153571205Y-64025744D01*
X153463989Y-63865284D01*
X153567774Y-63795937D01*
X153711937Y-63651774D01*
X153825205Y-63482256D01*
X153903226Y-63293898D01*
X153943000Y-63093939D01*
X153943000Y-62974799D01*
X154209044Y-62708755D01*
X154280226Y-62779937D01*
X154449744Y-62893205D01*
X154638102Y-62971226D01*
X154838061Y-63011000D01*
X155041939Y-63011000D01*
X155241898Y-62971226D01*
X155430256Y-62893205D01*
X155599774Y-62779937D01*
X155643711Y-62736000D01*
X165824678Y-62736000D01*
X165862000Y-62739676D01*
X165899322Y-62736000D01*
X165899333Y-62736000D01*
X166010986Y-62725003D01*
X166154247Y-62681546D01*
X166286276Y-62610974D01*
X166402001Y-62516001D01*
X166425804Y-62486997D01*
X166626998Y-62285803D01*
X166656001Y-62262001D01*
X166750974Y-62146276D01*
X166821546Y-62014247D01*
X166865003Y-61870986D01*
X166876000Y-61759333D01*
X166876000Y-61759324D01*
X166879676Y-61722001D01*
X166876000Y-61684678D01*
X166876000Y-55694313D01*
X167094505Y-55548312D01*
X167308312Y-55334505D01*
X167476299Y-55083095D01*
X167592011Y-54803743D01*
X167651000Y-54507184D01*
X167651000Y-54204816D01*
X167592011Y-53908257D01*
X167476299Y-53628905D01*
X167308312Y-53377495D01*
X167094505Y-53163688D01*
X166843095Y-52995701D01*
X166563743Y-52879989D01*
X166267184Y-52821000D01*
X165964816Y-52821000D01*
X165668257Y-52879989D01*
X165388905Y-52995701D01*
X165137495Y-53163688D01*
X164923688Y-53377495D01*
X164846000Y-53493763D01*
X164768312Y-53377495D01*
X164554505Y-53163688D01*
X164303095Y-52995701D01*
X164023743Y-52879989D01*
X163727184Y-52821000D01*
X163424816Y-52821000D01*
X163128257Y-52879989D01*
X162848905Y-52995701D01*
X162597495Y-53163688D01*
X162531056Y-53230127D01*
X162525502Y-53211820D01*
X162466537Y-53101506D01*
X162387185Y-53004815D01*
X162290494Y-52925463D01*
X162180180Y-52866498D01*
X162060482Y-52830188D01*
X161936000Y-52817928D01*
X160136000Y-52817928D01*
X160011518Y-52830188D01*
X159939753Y-52851958D01*
X160061937Y-52729774D01*
X160175205Y-52560256D01*
X160253226Y-52371898D01*
X160293000Y-52171939D01*
X160293000Y-51968061D01*
X160253226Y-51768102D01*
X160175205Y-51579744D01*
X160061937Y-51410226D01*
X159917774Y-51266063D01*
X159748256Y-51152795D01*
X159559898Y-51074774D01*
X159359939Y-51035000D01*
X159297802Y-51035000D01*
X157789804Y-49527003D01*
X157766001Y-49497999D01*
X157650276Y-49403026D01*
X157518247Y-49332454D01*
X157374986Y-49288997D01*
X157263333Y-49278000D01*
X157263322Y-49278000D01*
X157226000Y-49274324D01*
X157188678Y-49278000D01*
X154627711Y-49278000D01*
X154583774Y-49234063D01*
X154414256Y-49120795D01*
X154267485Y-49060000D01*
X168440001Y-49060000D01*
X168440000Y-64367581D01*
X168436807Y-64400000D01*
X168449550Y-64529383D01*
X168487290Y-64653793D01*
X168548575Y-64768450D01*
X168616639Y-64851386D01*
X168631052Y-64868948D01*
X168731550Y-64951425D01*
X168846207Y-65012710D01*
X168970617Y-65050450D01*
X169100000Y-65063193D01*
X169132419Y-65060000D01*
X179707144Y-65060000D01*
X179840000Y-82995605D01*
X179840000Y-98740000D01*
X176817138Y-98740000D01*
X176946632Y-98653475D01*
X177153475Y-98446632D01*
X177315990Y-98203411D01*
X177427932Y-97933158D01*
X177485000Y-97646260D01*
X177485000Y-97353740D01*
X177427932Y-97066842D01*
X177315990Y-96796589D01*
X177153475Y-96553368D01*
X176946632Y-96346525D01*
X176703411Y-96184010D01*
X176433158Y-96072068D01*
X176146260Y-96015000D01*
X175853740Y-96015000D01*
X175566842Y-96072068D01*
X175296589Y-96184010D01*
X175053368Y-96346525D01*
X174846525Y-96553368D01*
X174730000Y-96727760D01*
X174613475Y-96553368D01*
X174406632Y-96346525D01*
X174163411Y-96184010D01*
X173893158Y-96072068D01*
X173606260Y-96015000D01*
X173313740Y-96015000D01*
X173026842Y-96072068D01*
X172756589Y-96184010D01*
X172513368Y-96346525D01*
X172306525Y-96553368D01*
X172190000Y-96727760D01*
X172073475Y-96553368D01*
X171866632Y-96346525D01*
X171623411Y-96184010D01*
X171353158Y-96072068D01*
X171066260Y-96015000D01*
X170773740Y-96015000D01*
X170486842Y-96072068D01*
X170216589Y-96184010D01*
X169973368Y-96346525D01*
X169841513Y-96478380D01*
X169819502Y-96405820D01*
X169760537Y-96295506D01*
X169681185Y-96198815D01*
X169584494Y-96119463D01*
X169474180Y-96060498D01*
X169354482Y-96024188D01*
X169230000Y-96011928D01*
X168665750Y-96015000D01*
X168507000Y-96173750D01*
X168507000Y-97373000D01*
X168527000Y-97373000D01*
X168527000Y-97627000D01*
X168507000Y-97627000D01*
X168507000Y-97647000D01*
X168253000Y-97647000D01*
X168253000Y-97627000D01*
X167053750Y-97627000D01*
X166895000Y-97785750D01*
X166891928Y-98350000D01*
X166904188Y-98474482D01*
X166940498Y-98594180D01*
X166999463Y-98704494D01*
X167028602Y-98740000D01*
X128763408Y-98740000D01*
X128820269Y-98697588D01*
X129015178Y-98481355D01*
X129164157Y-98231252D01*
X129261481Y-97956891D01*
X129140814Y-97727000D01*
X127947000Y-97727000D01*
X127947000Y-97747000D01*
X127693000Y-97747000D01*
X127693000Y-97727000D01*
X127673000Y-97727000D01*
X127673000Y-97473000D01*
X127693000Y-97473000D01*
X127693000Y-96279845D01*
X127947000Y-96279845D01*
X127947000Y-97473000D01*
X129140814Y-97473000D01*
X129261481Y-97243109D01*
X129164157Y-96968748D01*
X129015178Y-96718645D01*
X128953303Y-96650000D01*
X166891928Y-96650000D01*
X166895000Y-97214250D01*
X167053750Y-97373000D01*
X168253000Y-97373000D01*
X168253000Y-96173750D01*
X168094250Y-96015000D01*
X167530000Y-96011928D01*
X167405518Y-96024188D01*
X167285820Y-96060498D01*
X167175506Y-96119463D01*
X167078815Y-96198815D01*
X166999463Y-96295506D01*
X166940498Y-96405820D01*
X166904188Y-96525518D01*
X166891928Y-96650000D01*
X128953303Y-96650000D01*
X128820269Y-96502412D01*
X128586920Y-96328359D01*
X128324099Y-96203175D01*
X128176890Y-96158524D01*
X127947000Y-96279845D01*
X127693000Y-96279845D01*
X127463110Y-96158524D01*
X127315901Y-96203175D01*
X127053080Y-96328359D01*
X126819731Y-96502412D01*
X126624822Y-96718645D01*
X126555195Y-96835534D01*
X126433475Y-96653368D01*
X126226632Y-96446525D01*
X125983411Y-96284010D01*
X125982000Y-96283426D01*
X125982000Y-93278801D01*
X128055802Y-91205000D01*
X128117939Y-91205000D01*
X128317898Y-91165226D01*
X128506256Y-91087205D01*
X128675774Y-90973937D01*
X128819937Y-90829774D01*
X128933205Y-90660256D01*
X129011226Y-90471898D01*
X129051000Y-90271939D01*
X129051000Y-90068061D01*
X129011226Y-89868102D01*
X128933205Y-89679744D01*
X128819937Y-89510226D01*
X128675774Y-89366063D01*
X128506256Y-89252795D01*
X128317898Y-89174774D01*
X128117939Y-89135000D01*
X127914061Y-89135000D01*
X127714102Y-89174774D01*
X127525744Y-89252795D01*
X127356226Y-89366063D01*
X127212063Y-89510226D01*
X127098795Y-89679744D01*
X127020774Y-89868102D01*
X126981000Y-90068061D01*
X126981000Y-90130198D01*
X124711003Y-92400196D01*
X124681999Y-92423999D01*
X124626871Y-92491174D01*
X124587026Y-92539724D01*
X124516455Y-92671753D01*
X124516454Y-92671754D01*
X124472997Y-92815015D01*
X124462000Y-92926668D01*
X124462000Y-92926678D01*
X124458324Y-92964000D01*
X124462000Y-93001323D01*
X124462001Y-96360575D01*
X124333368Y-96446525D01*
X124126525Y-96653368D01*
X124010000Y-96827760D01*
X123893475Y-96653368D01*
X123686632Y-96446525D01*
X123500000Y-96321822D01*
X123500000Y-89410801D01*
X124266802Y-88644000D01*
X124705822Y-88644000D01*
X124830525Y-88830632D01*
X125037368Y-89037475D01*
X125280589Y-89199990D01*
X125550842Y-89311932D01*
X125837740Y-89369000D01*
X126130260Y-89369000D01*
X126417158Y-89311932D01*
X126687411Y-89199990D01*
X126930632Y-89037475D01*
X127137475Y-88830632D01*
X127159238Y-88798061D01*
X143999000Y-88798061D01*
X143999000Y-89001939D01*
X144038774Y-89201898D01*
X144116795Y-89390256D01*
X144230063Y-89559774D01*
X144374226Y-89703937D01*
X144543744Y-89817205D01*
X144732102Y-89895226D01*
X144932061Y-89935000D01*
X145135939Y-89935000D01*
X145335898Y-89895226D01*
X145524256Y-89817205D01*
X145693774Y-89703937D01*
X145737711Y-89660000D01*
X150680289Y-89660000D01*
X150724226Y-89703937D01*
X150893744Y-89817205D01*
X151082102Y-89895226D01*
X151282061Y-89935000D01*
X151485939Y-89935000D01*
X151685898Y-89895226D01*
X151874256Y-89817205D01*
X152043774Y-89703937D01*
X152187937Y-89559774D01*
X152301205Y-89390256D01*
X152379226Y-89201898D01*
X152419000Y-89001939D01*
X152419000Y-88798061D01*
X152379226Y-88598102D01*
X152301205Y-88409744D01*
X152187937Y-88240226D01*
X152043774Y-88096063D01*
X151874256Y-87982795D01*
X151685898Y-87904774D01*
X151485939Y-87865000D01*
X151282061Y-87865000D01*
X151082102Y-87904774D01*
X150893744Y-87982795D01*
X150724226Y-88096063D01*
X150680289Y-88140000D01*
X145737711Y-88140000D01*
X145693774Y-88096063D01*
X145524256Y-87982795D01*
X145335898Y-87904774D01*
X145135939Y-87865000D01*
X144932061Y-87865000D01*
X144732102Y-87904774D01*
X144543744Y-87982795D01*
X144374226Y-88096063D01*
X144230063Y-88240226D01*
X144116795Y-88409744D01*
X144038774Y-88598102D01*
X143999000Y-88798061D01*
X127159238Y-88798061D01*
X127299990Y-88587411D01*
X127411932Y-88317158D01*
X127469000Y-88030260D01*
X127469000Y-87737740D01*
X127411932Y-87450842D01*
X127299990Y-87180589D01*
X127137475Y-86937368D01*
X127005620Y-86805513D01*
X127078180Y-86783502D01*
X127188494Y-86724537D01*
X127285185Y-86645185D01*
X127364537Y-86548494D01*
X127423502Y-86438180D01*
X127459812Y-86318482D01*
X127472072Y-86194000D01*
X127472072Y-84494000D01*
X127459812Y-84369518D01*
X127423502Y-84249820D01*
X127364537Y-84139506D01*
X127285185Y-84042815D01*
X127188494Y-83963463D01*
X127078180Y-83904498D01*
X126958482Y-83868188D01*
X126834000Y-83855928D01*
X125134000Y-83855928D01*
X125009518Y-83868188D01*
X124889820Y-83904498D01*
X124779506Y-83963463D01*
X124682815Y-84042815D01*
X124603463Y-84139506D01*
X124544498Y-84249820D01*
X124508188Y-84369518D01*
X124495928Y-84494000D01*
X124495928Y-86194000D01*
X124508188Y-86318482D01*
X124544498Y-86438180D01*
X124603463Y-86548494D01*
X124682815Y-86645185D01*
X124779506Y-86724537D01*
X124889820Y-86783502D01*
X124962380Y-86805513D01*
X124830525Y-86937368D01*
X124705822Y-87124000D01*
X123989323Y-87124000D01*
X123952000Y-87120324D01*
X123914677Y-87124000D01*
X123914667Y-87124000D01*
X123803014Y-87134997D01*
X123659753Y-87178454D01*
X123527724Y-87249026D01*
X123411999Y-87343999D01*
X123388201Y-87372997D01*
X122229003Y-88532196D01*
X122199999Y-88555999D01*
X122157526Y-88607753D01*
X122105026Y-88671724D01*
X122037497Y-88798061D01*
X122034454Y-88803754D01*
X121990997Y-88947015D01*
X121980000Y-89058668D01*
X121980000Y-89058678D01*
X121976324Y-89096000D01*
X121980000Y-89133322D01*
X121980001Y-96321821D01*
X121793368Y-96446525D01*
X121661513Y-96578380D01*
X121639502Y-96505820D01*
X121580537Y-96395506D01*
X121501185Y-96298815D01*
X121404494Y-96219463D01*
X121294180Y-96160498D01*
X121174482Y-96124188D01*
X121050000Y-96111928D01*
X119350000Y-96111928D01*
X119225518Y-96124188D01*
X119105820Y-96160498D01*
X118995506Y-96219463D01*
X118898815Y-96298815D01*
X118819463Y-96395506D01*
X118760498Y-96505820D01*
X118724188Y-96625518D01*
X118711928Y-96750000D01*
X118711928Y-98450000D01*
X118724188Y-98574482D01*
X118760498Y-98694180D01*
X118784990Y-98740000D01*
X116360000Y-98740000D01*
X116360000Y-79451890D01*
X116569124Y-79451890D01*
X116613775Y-79599099D01*
X116738959Y-79861920D01*
X116913012Y-80095269D01*
X117129245Y-80290178D01*
X117379348Y-80439157D01*
X117653709Y-80536481D01*
X117883600Y-80415814D01*
X117883600Y-79222000D01*
X118137600Y-79222000D01*
X118137600Y-80415814D01*
X118367491Y-80536481D01*
X118641852Y-80439157D01*
X118891955Y-80290178D01*
X119108188Y-80095269D01*
X119282241Y-79861920D01*
X119407425Y-79599099D01*
X119452076Y-79451890D01*
X119330755Y-79222000D01*
X118137600Y-79222000D01*
X117883600Y-79222000D01*
X116690445Y-79222000D01*
X116569124Y-79451890D01*
X116360000Y-79451890D01*
X116360000Y-65060000D01*
X116750619Y-65060000D01*
X116709415Y-65093815D01*
X116630063Y-65190506D01*
X116571098Y-65300820D01*
X116534788Y-65420518D01*
X116522528Y-65545000D01*
X116522528Y-67245000D01*
X116534788Y-67369482D01*
X116571098Y-67489180D01*
X116630063Y-67599494D01*
X116709415Y-67696185D01*
X116806106Y-67775537D01*
X116916420Y-67834502D01*
X116988980Y-67856513D01*
X116857125Y-67988368D01*
X116694610Y-68231589D01*
X116582668Y-68501842D01*
X116525600Y-68788740D01*
X116525600Y-69081260D01*
X116582668Y-69368158D01*
X116694610Y-69638411D01*
X116857125Y-69881632D01*
X117063968Y-70088475D01*
X117238360Y-70205000D01*
X117063968Y-70321525D01*
X116857125Y-70528368D01*
X116694610Y-70771589D01*
X116582668Y-71041842D01*
X116525600Y-71328740D01*
X116525600Y-71621260D01*
X116582668Y-71908158D01*
X116694610Y-72178411D01*
X116857125Y-72421632D01*
X117063968Y-72628475D01*
X117238360Y-72745000D01*
X117063968Y-72861525D01*
X116857125Y-73068368D01*
X116694610Y-73311589D01*
X116582668Y-73581842D01*
X116525600Y-73868740D01*
X116525600Y-74161260D01*
X116582668Y-74448158D01*
X116694610Y-74718411D01*
X116857125Y-74961632D01*
X117063968Y-75168475D01*
X117238360Y-75285000D01*
X117063968Y-75401525D01*
X116857125Y-75608368D01*
X116694610Y-75851589D01*
X116582668Y-76121842D01*
X116525600Y-76408740D01*
X116525600Y-76701260D01*
X116582668Y-76988158D01*
X116694610Y-77258411D01*
X116857125Y-77501632D01*
X117063968Y-77708475D01*
X117246134Y-77830195D01*
X117129245Y-77899822D01*
X116913012Y-78094731D01*
X116738959Y-78328080D01*
X116613775Y-78590901D01*
X116569124Y-78738110D01*
X116690445Y-78968000D01*
X117883600Y-78968000D01*
X117883600Y-78948000D01*
X118137600Y-78948000D01*
X118137600Y-78968000D01*
X119330755Y-78968000D01*
X119452076Y-78738110D01*
X119407425Y-78590901D01*
X119282241Y-78328080D01*
X119108188Y-78094731D01*
X118891955Y-77899822D01*
X118775066Y-77830195D01*
X118957232Y-77708475D01*
X119164075Y-77501632D01*
X119326590Y-77258411D01*
X119438532Y-76988158D01*
X119495600Y-76701260D01*
X119495600Y-76408740D01*
X119438532Y-76121842D01*
X119326590Y-75851589D01*
X119164075Y-75608368D01*
X118957232Y-75401525D01*
X118782840Y-75285000D01*
X118957232Y-75168475D01*
X119164075Y-74961632D01*
X119326590Y-74718411D01*
X119438532Y-74448158D01*
X119495600Y-74161260D01*
X119495600Y-73868740D01*
X119438532Y-73581842D01*
X119326590Y-73311589D01*
X119164075Y-73068368D01*
X118957232Y-72861525D01*
X118782840Y-72745000D01*
X118957232Y-72628475D01*
X119164075Y-72421632D01*
X119288778Y-72235000D01*
X119495678Y-72235000D01*
X119533000Y-72238676D01*
X119570322Y-72235000D01*
X119570333Y-72235000D01*
X119681986Y-72224003D01*
X119825247Y-72180546D01*
X119957276Y-72109974D01*
X120073001Y-72015001D01*
X120096804Y-71985997D01*
X120144997Y-71937804D01*
X120174001Y-71914001D01*
X120268974Y-71798276D01*
X120339546Y-71666247D01*
X120383003Y-71522986D01*
X120394000Y-71411333D01*
X120397677Y-71374000D01*
X120394000Y-71336667D01*
X120394000Y-70764061D01*
X127997000Y-70764061D01*
X127997000Y-70967939D01*
X128036774Y-71167898D01*
X128114795Y-71356256D01*
X128228063Y-71525774D01*
X128372226Y-71669937D01*
X128541744Y-71783205D01*
X128730102Y-71861226D01*
X128930061Y-71901000D01*
X129133939Y-71901000D01*
X129333898Y-71861226D01*
X129522256Y-71783205D01*
X129691774Y-71669937D01*
X129735711Y-71626000D01*
X131630289Y-71626000D01*
X131674226Y-71669937D01*
X131843744Y-71783205D01*
X132032102Y-71861226D01*
X132232061Y-71901000D01*
X132435939Y-71901000D01*
X132635898Y-71861226D01*
X132824256Y-71783205D01*
X132993774Y-71669937D01*
X133137937Y-71525774D01*
X133251205Y-71356256D01*
X133329226Y-71167898D01*
X133369000Y-70967939D01*
X133369000Y-70764061D01*
X133329226Y-70564102D01*
X133251205Y-70375744D01*
X133137937Y-70206226D01*
X132993774Y-70062063D01*
X132824256Y-69948795D01*
X132635898Y-69870774D01*
X132435939Y-69831000D01*
X132232061Y-69831000D01*
X132032102Y-69870774D01*
X131843744Y-69948795D01*
X131674226Y-70062063D01*
X131630289Y-70106000D01*
X129735711Y-70106000D01*
X129691774Y-70062063D01*
X129522256Y-69948795D01*
X129333898Y-69870774D01*
X129133939Y-69831000D01*
X128930061Y-69831000D01*
X128730102Y-69870774D01*
X128541744Y-69948795D01*
X128372226Y-70062063D01*
X128228063Y-70206226D01*
X128114795Y-70375744D01*
X128036774Y-70564102D01*
X127997000Y-70764061D01*
X120394000Y-70764061D01*
X120394000Y-69785211D01*
X123633212Y-66546000D01*
X127345088Y-66546000D01*
X127382410Y-66549676D01*
X127419732Y-66546000D01*
X127419743Y-66546000D01*
X127531396Y-66535003D01*
X127674657Y-66491546D01*
X127806686Y-66420974D01*
X127922411Y-66326001D01*
X127946213Y-66296998D01*
X128014300Y-66228911D01*
X128036774Y-66341898D01*
X128114795Y-66530256D01*
X128228063Y-66699774D01*
X128372226Y-66843937D01*
X128541744Y-66957205D01*
X128730102Y-67035226D01*
X128930061Y-67075000D01*
X129133939Y-67075000D01*
X129333898Y-67035226D01*
X129522256Y-66957205D01*
X129691774Y-66843937D01*
X129735711Y-66800000D01*
X133154289Y-66800000D01*
X133198226Y-66843937D01*
X133367744Y-66957205D01*
X133556102Y-67035226D01*
X133756061Y-67075000D01*
X133959939Y-67075000D01*
X134159898Y-67035226D01*
X134348256Y-66957205D01*
X134517774Y-66843937D01*
X134661937Y-66699774D01*
X134775205Y-66530256D01*
X134853226Y-66341898D01*
X134883030Y-66192061D01*
X135871000Y-66192061D01*
X135871000Y-66395939D01*
X135910774Y-66595898D01*
X135988795Y-66784256D01*
X136102063Y-66953774D01*
X136146001Y-66997712D01*
X136146000Y-71844677D01*
X136142324Y-71882000D01*
X136146000Y-71919322D01*
X136146000Y-71919332D01*
X136156997Y-72030985D01*
X136171728Y-72079546D01*
X136200454Y-72174246D01*
X136271026Y-72306276D01*
X136310871Y-72354826D01*
X136365999Y-72422001D01*
X136395003Y-72445804D01*
X139173000Y-75223802D01*
X139173000Y-75285939D01*
X139212774Y-75485898D01*
X139290795Y-75674256D01*
X139404063Y-75843774D01*
X139548226Y-75987937D01*
X139717744Y-76101205D01*
X139906102Y-76179226D01*
X140106061Y-76219000D01*
X140309939Y-76219000D01*
X140509898Y-76179226D01*
X140698256Y-76101205D01*
X140867774Y-75987937D01*
X141011937Y-75843774D01*
X141125205Y-75674256D01*
X141203226Y-75485898D01*
X141243000Y-75285939D01*
X141243000Y-75082061D01*
X141203226Y-74882102D01*
X141125205Y-74693744D01*
X141011937Y-74524226D01*
X140867774Y-74380063D01*
X140698256Y-74266795D01*
X140509898Y-74188774D01*
X140309939Y-74149000D01*
X140247802Y-74149000D01*
X137666000Y-71567199D01*
X137666000Y-66997711D01*
X137709937Y-66953774D01*
X137823205Y-66784256D01*
X137901226Y-66595898D01*
X137941000Y-66395939D01*
X137941000Y-66192061D01*
X137901226Y-65992102D01*
X137823205Y-65803744D01*
X137709937Y-65634226D01*
X137565774Y-65490063D01*
X137396256Y-65376795D01*
X137207898Y-65298774D01*
X137007939Y-65259000D01*
X136804061Y-65259000D01*
X136604102Y-65298774D01*
X136415744Y-65376795D01*
X136246226Y-65490063D01*
X136102063Y-65634226D01*
X135988795Y-65803744D01*
X135910774Y-65992102D01*
X135871000Y-66192061D01*
X134883030Y-66192061D01*
X134893000Y-66141939D01*
X134893000Y-65938061D01*
X134853226Y-65738102D01*
X134775205Y-65549744D01*
X134661937Y-65380226D01*
X134517774Y-65236063D01*
X134348256Y-65122795D01*
X134159898Y-65044774D01*
X133959939Y-65005000D01*
X133756061Y-65005000D01*
X133556102Y-65044774D01*
X133367744Y-65122795D01*
X133198226Y-65236063D01*
X133154289Y-65280000D01*
X129735711Y-65280000D01*
X129691774Y-65236063D01*
X129522256Y-65122795D01*
X129333898Y-65044774D01*
X129162938Y-65010768D01*
X129171554Y-64994648D01*
X129215011Y-64851388D01*
X129229685Y-64702402D01*
X129226303Y-64668061D01*
X141205000Y-64668061D01*
X141205000Y-64871939D01*
X141244774Y-65071898D01*
X141322795Y-65260256D01*
X141436063Y-65429774D01*
X141480001Y-65473712D01*
X141480000Y-69304677D01*
X141476324Y-69342000D01*
X141480000Y-69379322D01*
X141480000Y-69379332D01*
X141490997Y-69490985D01*
X141529949Y-69619395D01*
X141534454Y-69634246D01*
X141605026Y-69766276D01*
X141644871Y-69814826D01*
X141699999Y-69882001D01*
X141729002Y-69905804D01*
X142221000Y-70397802D01*
X142221000Y-70459939D01*
X142260774Y-70659898D01*
X142338795Y-70848256D01*
X142452063Y-71017774D01*
X142596226Y-71161937D01*
X142765744Y-71275205D01*
X142954102Y-71353226D01*
X143154061Y-71393000D01*
X143357939Y-71393000D01*
X143557898Y-71353226D01*
X143746256Y-71275205D01*
X143915774Y-71161937D01*
X144059937Y-71017774D01*
X144145000Y-70890468D01*
X144230063Y-71017774D01*
X144374226Y-71161937D01*
X144543744Y-71275205D01*
X144732102Y-71353226D01*
X144932061Y-71393000D01*
X145135939Y-71393000D01*
X145335898Y-71353226D01*
X145524256Y-71275205D01*
X145693774Y-71161937D01*
X145837937Y-71017774D01*
X145923000Y-70890468D01*
X146008063Y-71017774D01*
X146152226Y-71161937D01*
X146321744Y-71275205D01*
X146510102Y-71353226D01*
X146710061Y-71393000D01*
X146913939Y-71393000D01*
X147113898Y-71353226D01*
X147302256Y-71275205D01*
X147471774Y-71161937D01*
X147615937Y-71017774D01*
X147729205Y-70848256D01*
X147807226Y-70659898D01*
X147847000Y-70459939D01*
X147847000Y-70256061D01*
X147807226Y-70056102D01*
X147729205Y-69867744D01*
X147615937Y-69698226D01*
X147471774Y-69554063D01*
X147302256Y-69440795D01*
X147113898Y-69362774D01*
X146913939Y-69323000D01*
X146851801Y-69323000D01*
X146810000Y-69281199D01*
X146810000Y-61409711D01*
X146853937Y-61365774D01*
X146967205Y-61196256D01*
X147045226Y-61007898D01*
X147085000Y-60807939D01*
X147085000Y-60604061D01*
X147045226Y-60404102D01*
X146967205Y-60215744D01*
X146853937Y-60046226D01*
X146709774Y-59902063D01*
X146540256Y-59788795D01*
X146351898Y-59710774D01*
X146151939Y-59671000D01*
X145948061Y-59671000D01*
X145748102Y-59710774D01*
X145559744Y-59788795D01*
X145390226Y-59902063D01*
X145246063Y-60046226D01*
X145132795Y-60215744D01*
X145054774Y-60404102D01*
X145015000Y-60604061D01*
X145015000Y-60807939D01*
X145054774Y-61007898D01*
X145132795Y-61196256D01*
X145246063Y-61365774D01*
X145290001Y-61409712D01*
X145290001Y-64328599D01*
X145267226Y-64214102D01*
X145189205Y-64025744D01*
X145075937Y-63856226D01*
X144931774Y-63712063D01*
X144762256Y-63598795D01*
X144573898Y-63520774D01*
X144373939Y-63481000D01*
X144170061Y-63481000D01*
X143970102Y-63520774D01*
X143781744Y-63598795D01*
X143612226Y-63712063D01*
X143468063Y-63856226D01*
X143354795Y-64025744D01*
X143276774Y-64214102D01*
X143237000Y-64414061D01*
X143237000Y-64477021D01*
X143235226Y-64468102D01*
X143157205Y-64279744D01*
X143043937Y-64110226D01*
X142899774Y-63966063D01*
X142730256Y-63852795D01*
X142541898Y-63774774D01*
X142341939Y-63735000D01*
X142138061Y-63735000D01*
X141938102Y-63774774D01*
X141749744Y-63852795D01*
X141580226Y-63966063D01*
X141436063Y-64110226D01*
X141322795Y-64279744D01*
X141244774Y-64468102D01*
X141205000Y-64668061D01*
X129226303Y-64668061D01*
X129226008Y-64665069D01*
X129226009Y-59321159D01*
X129304815Y-59417185D01*
X129401506Y-59496537D01*
X129511820Y-59555502D01*
X129631518Y-59591812D01*
X129756000Y-59604072D01*
X131356000Y-59604072D01*
X131480482Y-59591812D01*
X131600180Y-59555502D01*
X131710494Y-59496537D01*
X131807185Y-59417185D01*
X131886537Y-59320494D01*
X131945502Y-59210180D01*
X131961117Y-59158702D01*
X132242903Y-59158702D01*
X132314486Y-59402671D01*
X132569996Y-59523571D01*
X132844184Y-59592300D01*
X133126512Y-59606217D01*
X133406130Y-59564787D01*
X133672292Y-59469603D01*
X133797514Y-59402671D01*
X133869097Y-59158702D01*
X133056000Y-58345605D01*
X132242903Y-59158702D01*
X131961117Y-59158702D01*
X131981812Y-59090482D01*
X131994072Y-58966000D01*
X131994072Y-58958785D01*
X132063298Y-58979097D01*
X132876395Y-58166000D01*
X133235605Y-58166000D01*
X134048702Y-58979097D01*
X134292671Y-58907514D01*
X134413571Y-58652004D01*
X134482300Y-58377816D01*
X134496217Y-58095488D01*
X134454787Y-57815870D01*
X134359603Y-57549708D01*
X134292671Y-57424486D01*
X134048702Y-57352903D01*
X133235605Y-58166000D01*
X132876395Y-58166000D01*
X132063298Y-57352903D01*
X131994072Y-57373215D01*
X131994072Y-57366000D01*
X131981812Y-57241518D01*
X131961118Y-57173298D01*
X132242903Y-57173298D01*
X133056000Y-57986395D01*
X133869097Y-57173298D01*
X133797514Y-56929329D01*
X133542004Y-56808429D01*
X133267816Y-56739700D01*
X132985488Y-56725783D01*
X132705870Y-56767213D01*
X132439708Y-56862397D01*
X132314486Y-56929329D01*
X132242903Y-57173298D01*
X131961118Y-57173298D01*
X131945502Y-57121820D01*
X131886537Y-57011506D01*
X131807185Y-56914815D01*
X131710494Y-56835463D01*
X131600180Y-56776498D01*
X131480482Y-56740188D01*
X131356000Y-56727928D01*
X129756000Y-56727928D01*
X129631518Y-56740188D01*
X129511820Y-56776498D01*
X129401506Y-56835463D01*
X129304815Y-56914815D01*
X129226009Y-57010840D01*
X129226010Y-54728791D01*
X129346802Y-54608000D01*
X152668182Y-54608000D01*
X152792281Y-54694980D01*
X152808774Y-54777898D01*
X152886795Y-54966256D01*
X153000063Y-55135774D01*
X153144226Y-55279937D01*
X153313744Y-55393205D01*
X153502102Y-55471226D01*
X153702061Y-55511000D01*
X153905939Y-55511000D01*
X154105898Y-55471226D01*
X154294256Y-55393205D01*
X154463774Y-55279937D01*
X154607937Y-55135774D01*
X154721205Y-54966256D01*
X154799226Y-54777898D01*
X154839000Y-54577939D01*
X154839000Y-54374061D01*
X154799226Y-54174102D01*
X154727286Y-54000425D01*
X154727937Y-53999774D01*
X154841205Y-53830256D01*
X154919226Y-53641898D01*
X154959000Y-53441939D01*
X154959000Y-53238061D01*
X154919226Y-53038102D01*
X154841205Y-52849744D01*
X154727937Y-52680226D01*
X154583774Y-52536063D01*
X154414256Y-52422795D01*
X154225898Y-52344774D01*
X154025939Y-52305000D01*
X153822061Y-52305000D01*
X153622102Y-52344774D01*
X153433744Y-52422795D01*
X153264226Y-52536063D01*
X153220289Y-52580000D01*
X128815325Y-52580000D01*
X128778000Y-52576324D01*
X128740675Y-52580000D01*
X128740667Y-52580000D01*
X128629014Y-52590997D01*
X128485753Y-52634454D01*
X128353724Y-52705026D01*
X128237999Y-52799999D01*
X128214201Y-52828998D01*
X127760000Y-53283199D01*
X127760000Y-49060000D01*
X153580515Y-49060000D01*
X153433744Y-49120795D01*
%TA.AperFunction,Conductor*%
D19*
G36*
X153433744Y-49120795D02*
G01*
X153264226Y-49234063D01*
X153120063Y-49378226D01*
X153006795Y-49547744D01*
X152928774Y-49736102D01*
X152889000Y-49936061D01*
X152889000Y-50139939D01*
X152928774Y-50339898D01*
X153006795Y-50528256D01*
X153120063Y-50697774D01*
X153264226Y-50841937D01*
X153433744Y-50955205D01*
X153622102Y-51033226D01*
X153822061Y-51073000D01*
X154025939Y-51073000D01*
X154225898Y-51033226D01*
X154414256Y-50955205D01*
X154583774Y-50841937D01*
X154627711Y-50798000D01*
X156911199Y-50798000D01*
X158223000Y-52109802D01*
X158223000Y-52171939D01*
X158262774Y-52371898D01*
X158340795Y-52560256D01*
X158454063Y-52729774D01*
X158598226Y-52873937D01*
X158767744Y-52987205D01*
X158956102Y-53065226D01*
X159156061Y-53105000D01*
X159359939Y-53105000D01*
X159559898Y-53065226D01*
X159674037Y-53017948D01*
X159605463Y-53101506D01*
X159546498Y-53211820D01*
X159510188Y-53331518D01*
X159497928Y-53456000D01*
X159497928Y-55256000D01*
X159510188Y-55380482D01*
X159546498Y-55500180D01*
X159605463Y-55610494D01*
X159684815Y-55707185D01*
X159781506Y-55786537D01*
X159891820Y-55845502D01*
X160011518Y-55881812D01*
X160136000Y-55894072D01*
X160276000Y-55894072D01*
X160276001Y-58439660D01*
X160276000Y-58439670D01*
X160276001Y-60391198D01*
X160213199Y-60454000D01*
X154666323Y-60454000D01*
X154628998Y-60450324D01*
X154591673Y-60454000D01*
X154591665Y-60454000D01*
X154480012Y-60464997D01*
X154336751Y-60508454D01*
X154204722Y-60579026D01*
X154088997Y-60673999D01*
X154065199Y-60702997D01*
X152811197Y-61957000D01*
X152806061Y-61957000D01*
X152606102Y-61996774D01*
X152417744Y-62074795D01*
X152248226Y-62188063D01*
X152104063Y-62332226D01*
X151990795Y-62501744D01*
X151912774Y-62690102D01*
X151873000Y-62890061D01*
X151873000Y-63093939D01*
X151912774Y-63293898D01*
X151990795Y-63482256D01*
X152098011Y-63642716D01*
X151994226Y-63712063D01*
X151850063Y-63856226D01*
X151736795Y-64025744D01*
X151658774Y-64214102D01*
X151619000Y-64414061D01*
X151619000Y-64617939D01*
X151658774Y-64817898D01*
X151736795Y-65006256D01*
X151850063Y-65175774D01*
X151894001Y-65219712D01*
X151894000Y-69535197D01*
X150618998Y-70810201D01*
X150590000Y-70833999D01*
X150566202Y-70862997D01*
X150566201Y-70862998D01*
X150495026Y-70949724D01*
X150424454Y-71081754D01*
X150380998Y-71225015D01*
X150366324Y-71374000D01*
X150370001Y-71411332D01*
X150370000Y-77917198D01*
X150053199Y-78234000D01*
X145991711Y-78234000D01*
X145947774Y-78190063D01*
X145778256Y-78076795D01*
X145589898Y-77998774D01*
X145389939Y-77959000D01*
X145186061Y-77959000D01*
X144986102Y-77998774D01*
X144797744Y-78076795D01*
X144628226Y-78190063D01*
X144484063Y-78334226D01*
X144370795Y-78503744D01*
X144292774Y-78692102D01*
X144253000Y-78892061D01*
X144253000Y-79095939D01*
X144292774Y-79295898D01*
X144370795Y-79484256D01*
X144484063Y-79653774D01*
X144628226Y-79797937D01*
X144797744Y-79911205D01*
X144986102Y-79989226D01*
X145186061Y-80029000D01*
X145389939Y-80029000D01*
X145589898Y-79989226D01*
X145778256Y-79911205D01*
X145947774Y-79797937D01*
X145991711Y-79754000D01*
X150330678Y-79754000D01*
X150368000Y-79757676D01*
X150405322Y-79754000D01*
X150405333Y-79754000D01*
X150516986Y-79743003D01*
X150660247Y-79699546D01*
X150792276Y-79628974D01*
X150908001Y-79534001D01*
X150931803Y-79504998D01*
X151641004Y-78795798D01*
X151670001Y-78772001D01*
X151764974Y-78656276D01*
X151835546Y-78524247D01*
X151879003Y-78380986D01*
X151890000Y-78269333D01*
X151890000Y-78269325D01*
X151893676Y-78232000D01*
X151890000Y-78194675D01*
X151890000Y-71688801D01*
X153165009Y-70413794D01*
X153194001Y-70390001D01*
X153217795Y-70361008D01*
X153217799Y-70361004D01*
X153288973Y-70274277D01*
X153288974Y-70274276D01*
X153359546Y-70142247D01*
X153403003Y-69998986D01*
X153414000Y-69887333D01*
X153414000Y-69887324D01*
X153417676Y-69850001D01*
X153414000Y-69812678D01*
X153414000Y-65219711D01*
X153457937Y-65175774D01*
X153571205Y-65006256D01*
X153649226Y-64817898D01*
X153689000Y-64617939D01*
X153689000Y-64414061D01*
X153649226Y-64214102D01*
X153571205Y-64025744D01*
X153463989Y-63865284D01*
X153567774Y-63795937D01*
X153711937Y-63651774D01*
X153825205Y-63482256D01*
X153903226Y-63293898D01*
X153943000Y-63093939D01*
X153943000Y-62974799D01*
X154209044Y-62708755D01*
X154280226Y-62779937D01*
X154449744Y-62893205D01*
X154638102Y-62971226D01*
X154838061Y-63011000D01*
X155041939Y-63011000D01*
X155241898Y-62971226D01*
X155430256Y-62893205D01*
X155599774Y-62779937D01*
X155643711Y-62736000D01*
X165824678Y-62736000D01*
X165862000Y-62739676D01*
X165899322Y-62736000D01*
X165899333Y-62736000D01*
X166010986Y-62725003D01*
X166154247Y-62681546D01*
X166286276Y-62610974D01*
X166402001Y-62516001D01*
X166425804Y-62486997D01*
X166626998Y-62285803D01*
X166656001Y-62262001D01*
X166750974Y-62146276D01*
X166821546Y-62014247D01*
X166865003Y-61870986D01*
X166876000Y-61759333D01*
X166876000Y-61759324D01*
X166879676Y-61722001D01*
X166876000Y-61684678D01*
X166876000Y-55694313D01*
X167094505Y-55548312D01*
X167308312Y-55334505D01*
X167476299Y-55083095D01*
X167592011Y-54803743D01*
X167651000Y-54507184D01*
X167651000Y-54204816D01*
X167592011Y-53908257D01*
X167476299Y-53628905D01*
X167308312Y-53377495D01*
X167094505Y-53163688D01*
X166843095Y-52995701D01*
X166563743Y-52879989D01*
X166267184Y-52821000D01*
X165964816Y-52821000D01*
X165668257Y-52879989D01*
X165388905Y-52995701D01*
X165137495Y-53163688D01*
X164923688Y-53377495D01*
X164846000Y-53493763D01*
X164768312Y-53377495D01*
X164554505Y-53163688D01*
X164303095Y-52995701D01*
X164023743Y-52879989D01*
X163727184Y-52821000D01*
X163424816Y-52821000D01*
X163128257Y-52879989D01*
X162848905Y-52995701D01*
X162597495Y-53163688D01*
X162531056Y-53230127D01*
X162525502Y-53211820D01*
X162466537Y-53101506D01*
X162387185Y-53004815D01*
X162290494Y-52925463D01*
X162180180Y-52866498D01*
X162060482Y-52830188D01*
X161936000Y-52817928D01*
X160136000Y-52817928D01*
X160011518Y-52830188D01*
X159939753Y-52851958D01*
X160061937Y-52729774D01*
X160175205Y-52560256D01*
X160253226Y-52371898D01*
X160293000Y-52171939D01*
X160293000Y-51968061D01*
X160253226Y-51768102D01*
X160175205Y-51579744D01*
X160061937Y-51410226D01*
X159917774Y-51266063D01*
X159748256Y-51152795D01*
X159559898Y-51074774D01*
X159359939Y-51035000D01*
X159297802Y-51035000D01*
X157789804Y-49527003D01*
X157766001Y-49497999D01*
X157650276Y-49403026D01*
X157518247Y-49332454D01*
X157374986Y-49288997D01*
X157263333Y-49278000D01*
X157263322Y-49278000D01*
X157226000Y-49274324D01*
X157188678Y-49278000D01*
X154627711Y-49278000D01*
X154583774Y-49234063D01*
X154414256Y-49120795D01*
X154267485Y-49060000D01*
X168440001Y-49060000D01*
X168440000Y-64367581D01*
X168436807Y-64400000D01*
X168449550Y-64529383D01*
X168487290Y-64653793D01*
X168548575Y-64768450D01*
X168616639Y-64851386D01*
X168631052Y-64868948D01*
X168731550Y-64951425D01*
X168846207Y-65012710D01*
X168970617Y-65050450D01*
X169100000Y-65063193D01*
X169132419Y-65060000D01*
X179707144Y-65060000D01*
X179840000Y-82995605D01*
X179840000Y-98740000D01*
X176817138Y-98740000D01*
X176946632Y-98653475D01*
X177153475Y-98446632D01*
X177315990Y-98203411D01*
X177427932Y-97933158D01*
X177485000Y-97646260D01*
X177485000Y-97353740D01*
X177427932Y-97066842D01*
X177315990Y-96796589D01*
X177153475Y-96553368D01*
X176946632Y-96346525D01*
X176703411Y-96184010D01*
X176433158Y-96072068D01*
X176146260Y-96015000D01*
X175853740Y-96015000D01*
X175566842Y-96072068D01*
X175296589Y-96184010D01*
X175053368Y-96346525D01*
X174846525Y-96553368D01*
X174730000Y-96727760D01*
X174613475Y-96553368D01*
X174406632Y-96346525D01*
X174163411Y-96184010D01*
X173893158Y-96072068D01*
X173606260Y-96015000D01*
X173313740Y-96015000D01*
X173026842Y-96072068D01*
X172756589Y-96184010D01*
X172513368Y-96346525D01*
X172306525Y-96553368D01*
X172190000Y-96727760D01*
X172073475Y-96553368D01*
X171866632Y-96346525D01*
X171623411Y-96184010D01*
X171353158Y-96072068D01*
X171066260Y-96015000D01*
X170773740Y-96015000D01*
X170486842Y-96072068D01*
X170216589Y-96184010D01*
X169973368Y-96346525D01*
X169841513Y-96478380D01*
X169819502Y-96405820D01*
X169760537Y-96295506D01*
X169681185Y-96198815D01*
X169584494Y-96119463D01*
X169474180Y-96060498D01*
X169354482Y-96024188D01*
X169230000Y-96011928D01*
X168665750Y-96015000D01*
X168507000Y-96173750D01*
X168507000Y-97373000D01*
X168527000Y-97373000D01*
X168527000Y-97627000D01*
X168507000Y-97627000D01*
X168507000Y-97647000D01*
X168253000Y-97647000D01*
X168253000Y-97627000D01*
X167053750Y-97627000D01*
X166895000Y-97785750D01*
X166891928Y-98350000D01*
X166904188Y-98474482D01*
X166940498Y-98594180D01*
X166999463Y-98704494D01*
X167028602Y-98740000D01*
X128763408Y-98740000D01*
X128820269Y-98697588D01*
X129015178Y-98481355D01*
X129164157Y-98231252D01*
X129261481Y-97956891D01*
X129140814Y-97727000D01*
X127947000Y-97727000D01*
X127947000Y-97747000D01*
X127693000Y-97747000D01*
X127693000Y-97727000D01*
X127673000Y-97727000D01*
X127673000Y-97473000D01*
X127693000Y-97473000D01*
X127693000Y-96279845D01*
X127947000Y-96279845D01*
X127947000Y-97473000D01*
X129140814Y-97473000D01*
X129261481Y-97243109D01*
X129164157Y-96968748D01*
X129015178Y-96718645D01*
X128953303Y-96650000D01*
X166891928Y-96650000D01*
X166895000Y-97214250D01*
X167053750Y-97373000D01*
X168253000Y-97373000D01*
X168253000Y-96173750D01*
X168094250Y-96015000D01*
X167530000Y-96011928D01*
X167405518Y-96024188D01*
X167285820Y-96060498D01*
X167175506Y-96119463D01*
X167078815Y-96198815D01*
X166999463Y-96295506D01*
X166940498Y-96405820D01*
X166904188Y-96525518D01*
X166891928Y-96650000D01*
X128953303Y-96650000D01*
X128820269Y-96502412D01*
X128586920Y-96328359D01*
X128324099Y-96203175D01*
X128176890Y-96158524D01*
X127947000Y-96279845D01*
X127693000Y-96279845D01*
X127463110Y-96158524D01*
X127315901Y-96203175D01*
X127053080Y-96328359D01*
X126819731Y-96502412D01*
X126624822Y-96718645D01*
X126555195Y-96835534D01*
X126433475Y-96653368D01*
X126226632Y-96446525D01*
X125983411Y-96284010D01*
X125982000Y-96283426D01*
X125982000Y-93278801D01*
X128055802Y-91205000D01*
X128117939Y-91205000D01*
X128317898Y-91165226D01*
X128506256Y-91087205D01*
X128675774Y-90973937D01*
X128819937Y-90829774D01*
X128933205Y-90660256D01*
X129011226Y-90471898D01*
X129051000Y-90271939D01*
X129051000Y-90068061D01*
X129011226Y-89868102D01*
X128933205Y-89679744D01*
X128819937Y-89510226D01*
X128675774Y-89366063D01*
X128506256Y-89252795D01*
X128317898Y-89174774D01*
X128117939Y-89135000D01*
X127914061Y-89135000D01*
X127714102Y-89174774D01*
X127525744Y-89252795D01*
X127356226Y-89366063D01*
X127212063Y-89510226D01*
X127098795Y-89679744D01*
X127020774Y-89868102D01*
X126981000Y-90068061D01*
X126981000Y-90130198D01*
X124711003Y-92400196D01*
X124681999Y-92423999D01*
X124626871Y-92491174D01*
X124587026Y-92539724D01*
X124516455Y-92671753D01*
X124516454Y-92671754D01*
X124472997Y-92815015D01*
X124462000Y-92926668D01*
X124462000Y-92926678D01*
X124458324Y-92964000D01*
X124462000Y-93001323D01*
X124462001Y-96360575D01*
X124333368Y-96446525D01*
X124126525Y-96653368D01*
X124010000Y-96827760D01*
X123893475Y-96653368D01*
X123686632Y-96446525D01*
X123500000Y-96321822D01*
X123500000Y-89410801D01*
X124266802Y-88644000D01*
X124705822Y-88644000D01*
X124830525Y-88830632D01*
X125037368Y-89037475D01*
X125280589Y-89199990D01*
X125550842Y-89311932D01*
X125837740Y-89369000D01*
X126130260Y-89369000D01*
X126417158Y-89311932D01*
X126687411Y-89199990D01*
X126930632Y-89037475D01*
X127137475Y-88830632D01*
X127159238Y-88798061D01*
X143999000Y-88798061D01*
X143999000Y-89001939D01*
X144038774Y-89201898D01*
X144116795Y-89390256D01*
X144230063Y-89559774D01*
X144374226Y-89703937D01*
X144543744Y-89817205D01*
X144732102Y-89895226D01*
X144932061Y-89935000D01*
X145135939Y-89935000D01*
X145335898Y-89895226D01*
X145524256Y-89817205D01*
X145693774Y-89703937D01*
X145737711Y-89660000D01*
X150680289Y-89660000D01*
X150724226Y-89703937D01*
X150893744Y-89817205D01*
X151082102Y-89895226D01*
X151282061Y-89935000D01*
X151485939Y-89935000D01*
X151685898Y-89895226D01*
X151874256Y-89817205D01*
X152043774Y-89703937D01*
X152187937Y-89559774D01*
X152301205Y-89390256D01*
X152379226Y-89201898D01*
X152419000Y-89001939D01*
X152419000Y-88798061D01*
X152379226Y-88598102D01*
X152301205Y-88409744D01*
X152187937Y-88240226D01*
X152043774Y-88096063D01*
X151874256Y-87982795D01*
X151685898Y-87904774D01*
X151485939Y-87865000D01*
X151282061Y-87865000D01*
X151082102Y-87904774D01*
X150893744Y-87982795D01*
X150724226Y-88096063D01*
X150680289Y-88140000D01*
X145737711Y-88140000D01*
X145693774Y-88096063D01*
X145524256Y-87982795D01*
X145335898Y-87904774D01*
X145135939Y-87865000D01*
X144932061Y-87865000D01*
X144732102Y-87904774D01*
X144543744Y-87982795D01*
X144374226Y-88096063D01*
X144230063Y-88240226D01*
X144116795Y-88409744D01*
X144038774Y-88598102D01*
X143999000Y-88798061D01*
X127159238Y-88798061D01*
X127299990Y-88587411D01*
X127411932Y-88317158D01*
X127469000Y-88030260D01*
X127469000Y-87737740D01*
X127411932Y-87450842D01*
X127299990Y-87180589D01*
X127137475Y-86937368D01*
X127005620Y-86805513D01*
X127078180Y-86783502D01*
X127188494Y-86724537D01*
X127285185Y-86645185D01*
X127364537Y-86548494D01*
X127423502Y-86438180D01*
X127459812Y-86318482D01*
X127472072Y-86194000D01*
X127472072Y-84494000D01*
X127459812Y-84369518D01*
X127423502Y-84249820D01*
X127364537Y-84139506D01*
X127285185Y-84042815D01*
X127188494Y-83963463D01*
X127078180Y-83904498D01*
X126958482Y-83868188D01*
X126834000Y-83855928D01*
X125134000Y-83855928D01*
X125009518Y-83868188D01*
X124889820Y-83904498D01*
X124779506Y-83963463D01*
X124682815Y-84042815D01*
X124603463Y-84139506D01*
X124544498Y-84249820D01*
X124508188Y-84369518D01*
X124495928Y-84494000D01*
X124495928Y-86194000D01*
X124508188Y-86318482D01*
X124544498Y-86438180D01*
X124603463Y-86548494D01*
X124682815Y-86645185D01*
X124779506Y-86724537D01*
X124889820Y-86783502D01*
X124962380Y-86805513D01*
X124830525Y-86937368D01*
X124705822Y-87124000D01*
X123989323Y-87124000D01*
X123952000Y-87120324D01*
X123914677Y-87124000D01*
X123914667Y-87124000D01*
X123803014Y-87134997D01*
X123659753Y-87178454D01*
X123527724Y-87249026D01*
X123411999Y-87343999D01*
X123388201Y-87372997D01*
X122229003Y-88532196D01*
X122199999Y-88555999D01*
X122157526Y-88607753D01*
X122105026Y-88671724D01*
X122037497Y-88798061D01*
X122034454Y-88803754D01*
X121990997Y-88947015D01*
X121980000Y-89058668D01*
X121980000Y-89058678D01*
X121976324Y-89096000D01*
X121980000Y-89133322D01*
X121980001Y-96321821D01*
X121793368Y-96446525D01*
X121661513Y-96578380D01*
X121639502Y-96505820D01*
X121580537Y-96395506D01*
X121501185Y-96298815D01*
X121404494Y-96219463D01*
X121294180Y-96160498D01*
X121174482Y-96124188D01*
X121050000Y-96111928D01*
X119350000Y-96111928D01*
X119225518Y-96124188D01*
X119105820Y-96160498D01*
X118995506Y-96219463D01*
X118898815Y-96298815D01*
X118819463Y-96395506D01*
X118760498Y-96505820D01*
X118724188Y-96625518D01*
X118711928Y-96750000D01*
X118711928Y-98450000D01*
X118724188Y-98574482D01*
X118760498Y-98694180D01*
X118784990Y-98740000D01*
X116360000Y-98740000D01*
X116360000Y-79451890D01*
X116569124Y-79451890D01*
X116613775Y-79599099D01*
X116738959Y-79861920D01*
X116913012Y-80095269D01*
X117129245Y-80290178D01*
X117379348Y-80439157D01*
X117653709Y-80536481D01*
X117883600Y-80415814D01*
X117883600Y-79222000D01*
X118137600Y-79222000D01*
X118137600Y-80415814D01*
X118367491Y-80536481D01*
X118641852Y-80439157D01*
X118891955Y-80290178D01*
X119108188Y-80095269D01*
X119282241Y-79861920D01*
X119407425Y-79599099D01*
X119452076Y-79451890D01*
X119330755Y-79222000D01*
X118137600Y-79222000D01*
X117883600Y-79222000D01*
X116690445Y-79222000D01*
X116569124Y-79451890D01*
X116360000Y-79451890D01*
X116360000Y-65060000D01*
X116750619Y-65060000D01*
X116709415Y-65093815D01*
X116630063Y-65190506D01*
X116571098Y-65300820D01*
X116534788Y-65420518D01*
X116522528Y-65545000D01*
X116522528Y-67245000D01*
X116534788Y-67369482D01*
X116571098Y-67489180D01*
X116630063Y-67599494D01*
X116709415Y-67696185D01*
X116806106Y-67775537D01*
X116916420Y-67834502D01*
X116988980Y-67856513D01*
X116857125Y-67988368D01*
X116694610Y-68231589D01*
X116582668Y-68501842D01*
X116525600Y-68788740D01*
X116525600Y-69081260D01*
X116582668Y-69368158D01*
X116694610Y-69638411D01*
X116857125Y-69881632D01*
X117063968Y-70088475D01*
X117238360Y-70205000D01*
X117063968Y-70321525D01*
X116857125Y-70528368D01*
X116694610Y-70771589D01*
X116582668Y-71041842D01*
X116525600Y-71328740D01*
X116525600Y-71621260D01*
X116582668Y-71908158D01*
X116694610Y-72178411D01*
X116857125Y-72421632D01*
X117063968Y-72628475D01*
X117238360Y-72745000D01*
X117063968Y-72861525D01*
X116857125Y-73068368D01*
X116694610Y-73311589D01*
X116582668Y-73581842D01*
X116525600Y-73868740D01*
X116525600Y-74161260D01*
X116582668Y-74448158D01*
X116694610Y-74718411D01*
X116857125Y-74961632D01*
X117063968Y-75168475D01*
X117238360Y-75285000D01*
X117063968Y-75401525D01*
X116857125Y-75608368D01*
X116694610Y-75851589D01*
X116582668Y-76121842D01*
X116525600Y-76408740D01*
X116525600Y-76701260D01*
X116582668Y-76988158D01*
X116694610Y-77258411D01*
X116857125Y-77501632D01*
X117063968Y-77708475D01*
X117246134Y-77830195D01*
X117129245Y-77899822D01*
X116913012Y-78094731D01*
X116738959Y-78328080D01*
X116613775Y-78590901D01*
X116569124Y-78738110D01*
X116690445Y-78968000D01*
X117883600Y-78968000D01*
X117883600Y-78948000D01*
X118137600Y-78948000D01*
X118137600Y-78968000D01*
X119330755Y-78968000D01*
X119452076Y-78738110D01*
X119407425Y-78590901D01*
X119282241Y-78328080D01*
X119108188Y-78094731D01*
X118891955Y-77899822D01*
X118775066Y-77830195D01*
X118957232Y-77708475D01*
X119164075Y-77501632D01*
X119326590Y-77258411D01*
X119438532Y-76988158D01*
X119495600Y-76701260D01*
X119495600Y-76408740D01*
X119438532Y-76121842D01*
X119326590Y-75851589D01*
X119164075Y-75608368D01*
X118957232Y-75401525D01*
X118782840Y-75285000D01*
X118957232Y-75168475D01*
X119164075Y-74961632D01*
X119326590Y-74718411D01*
X119438532Y-74448158D01*
X119495600Y-74161260D01*
X119495600Y-73868740D01*
X119438532Y-73581842D01*
X119326590Y-73311589D01*
X119164075Y-73068368D01*
X118957232Y-72861525D01*
X118782840Y-72745000D01*
X118957232Y-72628475D01*
X119164075Y-72421632D01*
X119288778Y-72235000D01*
X119495678Y-72235000D01*
X119533000Y-72238676D01*
X119570322Y-72235000D01*
X119570333Y-72235000D01*
X119681986Y-72224003D01*
X119825247Y-72180546D01*
X119957276Y-72109974D01*
X120073001Y-72015001D01*
X120096804Y-71985997D01*
X120144997Y-71937804D01*
X120174001Y-71914001D01*
X120268974Y-71798276D01*
X120339546Y-71666247D01*
X120383003Y-71522986D01*
X120394000Y-71411333D01*
X120397677Y-71374000D01*
X120394000Y-71336667D01*
X120394000Y-70764061D01*
X127997000Y-70764061D01*
X127997000Y-70967939D01*
X128036774Y-71167898D01*
X128114795Y-71356256D01*
X128228063Y-71525774D01*
X128372226Y-71669937D01*
X128541744Y-71783205D01*
X128730102Y-71861226D01*
X128930061Y-71901000D01*
X129133939Y-71901000D01*
X129333898Y-71861226D01*
X129522256Y-71783205D01*
X129691774Y-71669937D01*
X129735711Y-71626000D01*
X131630289Y-71626000D01*
X131674226Y-71669937D01*
X131843744Y-71783205D01*
X132032102Y-71861226D01*
X132232061Y-71901000D01*
X132435939Y-71901000D01*
X132635898Y-71861226D01*
X132824256Y-71783205D01*
X132993774Y-71669937D01*
X133137937Y-71525774D01*
X133251205Y-71356256D01*
X133329226Y-71167898D01*
X133369000Y-70967939D01*
X133369000Y-70764061D01*
X133329226Y-70564102D01*
X133251205Y-70375744D01*
X133137937Y-70206226D01*
X132993774Y-70062063D01*
X132824256Y-69948795D01*
X132635898Y-69870774D01*
X132435939Y-69831000D01*
X132232061Y-69831000D01*
X132032102Y-69870774D01*
X131843744Y-69948795D01*
X131674226Y-70062063D01*
X131630289Y-70106000D01*
X129735711Y-70106000D01*
X129691774Y-70062063D01*
X129522256Y-69948795D01*
X129333898Y-69870774D01*
X129133939Y-69831000D01*
X128930061Y-69831000D01*
X128730102Y-69870774D01*
X128541744Y-69948795D01*
X128372226Y-70062063D01*
X128228063Y-70206226D01*
X128114795Y-70375744D01*
X128036774Y-70564102D01*
X127997000Y-70764061D01*
X120394000Y-70764061D01*
X120394000Y-69785211D01*
X123633212Y-66546000D01*
X127345088Y-66546000D01*
X127382410Y-66549676D01*
X127419732Y-66546000D01*
X127419743Y-66546000D01*
X127531396Y-66535003D01*
X127674657Y-66491546D01*
X127806686Y-66420974D01*
X127922411Y-66326001D01*
X127946213Y-66296998D01*
X128014300Y-66228911D01*
X128036774Y-66341898D01*
X128114795Y-66530256D01*
X128228063Y-66699774D01*
X128372226Y-66843937D01*
X128541744Y-66957205D01*
X128730102Y-67035226D01*
X128930061Y-67075000D01*
X129133939Y-67075000D01*
X129333898Y-67035226D01*
X129522256Y-66957205D01*
X129691774Y-66843937D01*
X129735711Y-66800000D01*
X133154289Y-66800000D01*
X133198226Y-66843937D01*
X133367744Y-66957205D01*
X133556102Y-67035226D01*
X133756061Y-67075000D01*
X133959939Y-67075000D01*
X134159898Y-67035226D01*
X134348256Y-66957205D01*
X134517774Y-66843937D01*
X134661937Y-66699774D01*
X134775205Y-66530256D01*
X134853226Y-66341898D01*
X134883030Y-66192061D01*
X135871000Y-66192061D01*
X135871000Y-66395939D01*
X135910774Y-66595898D01*
X135988795Y-66784256D01*
X136102063Y-66953774D01*
X136146001Y-66997712D01*
X136146000Y-71844677D01*
X136142324Y-71882000D01*
X136146000Y-71919322D01*
X136146000Y-71919332D01*
X136156997Y-72030985D01*
X136171728Y-72079546D01*
X136200454Y-72174246D01*
X136271026Y-72306276D01*
X136310871Y-72354826D01*
X136365999Y-72422001D01*
X136395003Y-72445804D01*
X139173000Y-75223802D01*
X139173000Y-75285939D01*
X139212774Y-75485898D01*
X139290795Y-75674256D01*
X139404063Y-75843774D01*
X139548226Y-75987937D01*
X139717744Y-76101205D01*
X139906102Y-76179226D01*
X140106061Y-76219000D01*
X140309939Y-76219000D01*
X140509898Y-76179226D01*
X140698256Y-76101205D01*
X140867774Y-75987937D01*
X141011937Y-75843774D01*
X141125205Y-75674256D01*
X141203226Y-75485898D01*
X141243000Y-75285939D01*
X141243000Y-75082061D01*
X141203226Y-74882102D01*
X141125205Y-74693744D01*
X141011937Y-74524226D01*
X140867774Y-74380063D01*
X140698256Y-74266795D01*
X140509898Y-74188774D01*
X140309939Y-74149000D01*
X140247802Y-74149000D01*
X137666000Y-71567199D01*
X137666000Y-66997711D01*
X137709937Y-66953774D01*
X137823205Y-66784256D01*
X137901226Y-66595898D01*
X137941000Y-66395939D01*
X137941000Y-66192061D01*
X137901226Y-65992102D01*
X137823205Y-65803744D01*
X137709937Y-65634226D01*
X137565774Y-65490063D01*
X137396256Y-65376795D01*
X137207898Y-65298774D01*
X137007939Y-65259000D01*
X136804061Y-65259000D01*
X136604102Y-65298774D01*
X136415744Y-65376795D01*
X136246226Y-65490063D01*
X136102063Y-65634226D01*
X135988795Y-65803744D01*
X135910774Y-65992102D01*
X135871000Y-66192061D01*
X134883030Y-66192061D01*
X134893000Y-66141939D01*
X134893000Y-65938061D01*
X134853226Y-65738102D01*
X134775205Y-65549744D01*
X134661937Y-65380226D01*
X134517774Y-65236063D01*
X134348256Y-65122795D01*
X134159898Y-65044774D01*
X133959939Y-65005000D01*
X133756061Y-65005000D01*
X133556102Y-65044774D01*
X133367744Y-65122795D01*
X133198226Y-65236063D01*
X133154289Y-65280000D01*
X129735711Y-65280000D01*
X129691774Y-65236063D01*
X129522256Y-65122795D01*
X129333898Y-65044774D01*
X129162938Y-65010768D01*
X129171554Y-64994648D01*
X129215011Y-64851388D01*
X129229685Y-64702402D01*
X129226303Y-64668061D01*
X141205000Y-64668061D01*
X141205000Y-64871939D01*
X141244774Y-65071898D01*
X141322795Y-65260256D01*
X141436063Y-65429774D01*
X141480001Y-65473712D01*
X141480000Y-69304677D01*
X141476324Y-69342000D01*
X141480000Y-69379322D01*
X141480000Y-69379332D01*
X141490997Y-69490985D01*
X141529949Y-69619395D01*
X141534454Y-69634246D01*
X141605026Y-69766276D01*
X141644871Y-69814826D01*
X141699999Y-69882001D01*
X141729002Y-69905804D01*
X142221000Y-70397802D01*
X142221000Y-70459939D01*
X142260774Y-70659898D01*
X142338795Y-70848256D01*
X142452063Y-71017774D01*
X142596226Y-71161937D01*
X142765744Y-71275205D01*
X142954102Y-71353226D01*
X143154061Y-71393000D01*
X143357939Y-71393000D01*
X143557898Y-71353226D01*
X143746256Y-71275205D01*
X143915774Y-71161937D01*
X144059937Y-71017774D01*
X144145000Y-70890468D01*
X144230063Y-71017774D01*
X144374226Y-71161937D01*
X144543744Y-71275205D01*
X144732102Y-71353226D01*
X144932061Y-71393000D01*
X145135939Y-71393000D01*
X145335898Y-71353226D01*
X145524256Y-71275205D01*
X145693774Y-71161937D01*
X145837937Y-71017774D01*
X145923000Y-70890468D01*
X146008063Y-71017774D01*
X146152226Y-71161937D01*
X146321744Y-71275205D01*
X146510102Y-71353226D01*
X146710061Y-71393000D01*
X146913939Y-71393000D01*
X147113898Y-71353226D01*
X147302256Y-71275205D01*
X147471774Y-71161937D01*
X147615937Y-71017774D01*
X147729205Y-70848256D01*
X147807226Y-70659898D01*
X147847000Y-70459939D01*
X147847000Y-70256061D01*
X147807226Y-70056102D01*
X147729205Y-69867744D01*
X147615937Y-69698226D01*
X147471774Y-69554063D01*
X147302256Y-69440795D01*
X147113898Y-69362774D01*
X146913939Y-69323000D01*
X146851801Y-69323000D01*
X146810000Y-69281199D01*
X146810000Y-61409711D01*
X146853937Y-61365774D01*
X146967205Y-61196256D01*
X147045226Y-61007898D01*
X147085000Y-60807939D01*
X147085000Y-60604061D01*
X147045226Y-60404102D01*
X146967205Y-60215744D01*
X146853937Y-60046226D01*
X146709774Y-59902063D01*
X146540256Y-59788795D01*
X146351898Y-59710774D01*
X146151939Y-59671000D01*
X145948061Y-59671000D01*
X145748102Y-59710774D01*
X145559744Y-59788795D01*
X145390226Y-59902063D01*
X145246063Y-60046226D01*
X145132795Y-60215744D01*
X145054774Y-60404102D01*
X145015000Y-60604061D01*
X145015000Y-60807939D01*
X145054774Y-61007898D01*
X145132795Y-61196256D01*
X145246063Y-61365774D01*
X145290001Y-61409712D01*
X145290001Y-64328599D01*
X145267226Y-64214102D01*
X145189205Y-64025744D01*
X145075937Y-63856226D01*
X144931774Y-63712063D01*
X144762256Y-63598795D01*
X144573898Y-63520774D01*
X144373939Y-63481000D01*
X144170061Y-63481000D01*
X143970102Y-63520774D01*
X143781744Y-63598795D01*
X143612226Y-63712063D01*
X143468063Y-63856226D01*
X143354795Y-64025744D01*
X143276774Y-64214102D01*
X143237000Y-64414061D01*
X143237000Y-64477021D01*
X143235226Y-64468102D01*
X143157205Y-64279744D01*
X143043937Y-64110226D01*
X142899774Y-63966063D01*
X142730256Y-63852795D01*
X142541898Y-63774774D01*
X142341939Y-63735000D01*
X142138061Y-63735000D01*
X141938102Y-63774774D01*
X141749744Y-63852795D01*
X141580226Y-63966063D01*
X141436063Y-64110226D01*
X141322795Y-64279744D01*
X141244774Y-64468102D01*
X141205000Y-64668061D01*
X129226303Y-64668061D01*
X129226008Y-64665069D01*
X129226009Y-59321159D01*
X129304815Y-59417185D01*
X129401506Y-59496537D01*
X129511820Y-59555502D01*
X129631518Y-59591812D01*
X129756000Y-59604072D01*
X131356000Y-59604072D01*
X131480482Y-59591812D01*
X131600180Y-59555502D01*
X131710494Y-59496537D01*
X131807185Y-59417185D01*
X131886537Y-59320494D01*
X131945502Y-59210180D01*
X131961117Y-59158702D01*
X132242903Y-59158702D01*
X132314486Y-59402671D01*
X132569996Y-59523571D01*
X132844184Y-59592300D01*
X133126512Y-59606217D01*
X133406130Y-59564787D01*
X133672292Y-59469603D01*
X133797514Y-59402671D01*
X133869097Y-59158702D01*
X133056000Y-58345605D01*
X132242903Y-59158702D01*
X131961117Y-59158702D01*
X131981812Y-59090482D01*
X131994072Y-58966000D01*
X131994072Y-58958785D01*
X132063298Y-58979097D01*
X132876395Y-58166000D01*
X133235605Y-58166000D01*
X134048702Y-58979097D01*
X134292671Y-58907514D01*
X134413571Y-58652004D01*
X134482300Y-58377816D01*
X134496217Y-58095488D01*
X134454787Y-57815870D01*
X134359603Y-57549708D01*
X134292671Y-57424486D01*
X134048702Y-57352903D01*
X133235605Y-58166000D01*
X132876395Y-58166000D01*
X132063298Y-57352903D01*
X131994072Y-57373215D01*
X131994072Y-57366000D01*
X131981812Y-57241518D01*
X131961118Y-57173298D01*
X132242903Y-57173298D01*
X133056000Y-57986395D01*
X133869097Y-57173298D01*
X133797514Y-56929329D01*
X133542004Y-56808429D01*
X133267816Y-56739700D01*
X132985488Y-56725783D01*
X132705870Y-56767213D01*
X132439708Y-56862397D01*
X132314486Y-56929329D01*
X132242903Y-57173298D01*
X131961118Y-57173298D01*
X131945502Y-57121820D01*
X131886537Y-57011506D01*
X131807185Y-56914815D01*
X131710494Y-56835463D01*
X131600180Y-56776498D01*
X131480482Y-56740188D01*
X131356000Y-56727928D01*
X129756000Y-56727928D01*
X129631518Y-56740188D01*
X129511820Y-56776498D01*
X129401506Y-56835463D01*
X129304815Y-56914815D01*
X129226009Y-57010840D01*
X129226010Y-54728791D01*
X129346802Y-54608000D01*
X152668182Y-54608000D01*
X152792281Y-54694980D01*
X152808774Y-54777898D01*
X152886795Y-54966256D01*
X153000063Y-55135774D01*
X153144226Y-55279937D01*
X153313744Y-55393205D01*
X153502102Y-55471226D01*
X153702061Y-55511000D01*
X153905939Y-55511000D01*
X154105898Y-55471226D01*
X154294256Y-55393205D01*
X154463774Y-55279937D01*
X154607937Y-55135774D01*
X154721205Y-54966256D01*
X154799226Y-54777898D01*
X154839000Y-54577939D01*
X154839000Y-54374061D01*
X154799226Y-54174102D01*
X154727286Y-54000425D01*
X154727937Y-53999774D01*
X154841205Y-53830256D01*
X154919226Y-53641898D01*
X154959000Y-53441939D01*
X154959000Y-53238061D01*
X154919226Y-53038102D01*
X154841205Y-52849744D01*
X154727937Y-52680226D01*
X154583774Y-52536063D01*
X154414256Y-52422795D01*
X154225898Y-52344774D01*
X154025939Y-52305000D01*
X153822061Y-52305000D01*
X153622102Y-52344774D01*
X153433744Y-52422795D01*
X153264226Y-52536063D01*
X153220289Y-52580000D01*
X128815325Y-52580000D01*
X128778000Y-52576324D01*
X128740675Y-52580000D01*
X128740667Y-52580000D01*
X128629014Y-52590997D01*
X128485753Y-52634454D01*
X128353724Y-52705026D01*
X128237999Y-52799999D01*
X128214201Y-52828998D01*
X127760000Y-53283199D01*
X127760000Y-49060000D01*
X153580515Y-49060000D01*
X153433744Y-49120795D01*
G37*
%TD.AperFunction*%
%TD*%
D18*
%TO.N,GND*%
X153433744Y-49120795D02*
X153264226Y-49234063D01*
X153120063Y-49378226D01*
X153006795Y-49547744D01*
X152928774Y-49736102D01*
X152889000Y-49936061D01*
X152889000Y-50139939D01*
X152928774Y-50339898D01*
X153006795Y-50528256D01*
X153120063Y-50697774D01*
X153264226Y-50841937D01*
X153433744Y-50955205D01*
X153622102Y-51033226D01*
X153822061Y-51073000D01*
X154025939Y-51073000D01*
X154225898Y-51033226D01*
X154414256Y-50955205D01*
X154583774Y-50841937D01*
X154627711Y-50798000D01*
X156911199Y-50798000D01*
X158223000Y-52109802D01*
X158223000Y-52171939D01*
X158262774Y-52371898D01*
X158340795Y-52560256D01*
X158454063Y-52729774D01*
X158598226Y-52873937D01*
X158767744Y-52987205D01*
X158956102Y-53065226D01*
X159156061Y-53105000D01*
X159359939Y-53105000D01*
X159559898Y-53065226D01*
X159674037Y-53017948D01*
X159605463Y-53101506D01*
X159546498Y-53211820D01*
X159510188Y-53331518D01*
X159497928Y-53456000D01*
X159497928Y-55256000D01*
X159510188Y-55380482D01*
X159546498Y-55500180D01*
X159605463Y-55610494D01*
X159684815Y-55707185D01*
X159781506Y-55786537D01*
X159891820Y-55845502D01*
X160011518Y-55881812D01*
X160136000Y-55894072D01*
X160276000Y-55894072D01*
X160276001Y-58439660D01*
X160276000Y-58439670D01*
X160276001Y-60391198D01*
X160213199Y-60454000D01*
X154666323Y-60454000D01*
X154628998Y-60450324D01*
X154591673Y-60454000D01*
X154591665Y-60454000D01*
X154480012Y-60464997D01*
X154336751Y-60508454D01*
X154204722Y-60579026D01*
X154088997Y-60673999D01*
X154065199Y-60702997D01*
X152811197Y-61957000D01*
X152806061Y-61957000D01*
X152606102Y-61996774D01*
X152417744Y-62074795D01*
X152248226Y-62188063D01*
X152104063Y-62332226D01*
X151990795Y-62501744D01*
X151912774Y-62690102D01*
X151873000Y-62890061D01*
X151873000Y-63093939D01*
X151912774Y-63293898D01*
X151990795Y-63482256D01*
X152098011Y-63642716D01*
X151994226Y-63712063D01*
X151850063Y-63856226D01*
X151736795Y-64025744D01*
X151658774Y-64214102D01*
X151619000Y-64414061D01*
X151619000Y-64617939D01*
X151658774Y-64817898D01*
X151736795Y-65006256D01*
X151850063Y-65175774D01*
X151894001Y-65219712D01*
X151894000Y-69535197D01*
X150618998Y-70810201D01*
X150590000Y-70833999D01*
X150566202Y-70862997D01*
X150566201Y-70862998D01*
X150495026Y-70949724D01*
X150424454Y-71081754D01*
X150380998Y-71225015D01*
X150366324Y-71374000D01*
X150370001Y-71411332D01*
X150370000Y-77917198D01*
X150053199Y-78234000D01*
X145991711Y-78234000D01*
X145947774Y-78190063D01*
X145778256Y-78076795D01*
X145589898Y-77998774D01*
X145389939Y-77959000D01*
X145186061Y-77959000D01*
X144986102Y-77998774D01*
X144797744Y-78076795D01*
X144628226Y-78190063D01*
X144484063Y-78334226D01*
X144370795Y-78503744D01*
X144292774Y-78692102D01*
X144253000Y-78892061D01*
X144253000Y-79095939D01*
X144292774Y-79295898D01*
X144370795Y-79484256D01*
X144484063Y-79653774D01*
X144628226Y-79797937D01*
X144797744Y-79911205D01*
X144986102Y-79989226D01*
X145186061Y-80029000D01*
X145389939Y-80029000D01*
X145589898Y-79989226D01*
X145778256Y-79911205D01*
X145947774Y-79797937D01*
X145991711Y-79754000D01*
X150330678Y-79754000D01*
X150368000Y-79757676D01*
X150405322Y-79754000D01*
X150405333Y-79754000D01*
X150516986Y-79743003D01*
X150660247Y-79699546D01*
X150792276Y-79628974D01*
X150908001Y-79534001D01*
X150931803Y-79504998D01*
X151641004Y-78795798D01*
X151670001Y-78772001D01*
X151764974Y-78656276D01*
X151835546Y-78524247D01*
X151879003Y-78380986D01*
X151890000Y-78269333D01*
X151890000Y-78269325D01*
X151893676Y-78232000D01*
X151890000Y-78194675D01*
X151890000Y-71688801D01*
X153165009Y-70413794D01*
X153194001Y-70390001D01*
X153217795Y-70361008D01*
X153217799Y-70361004D01*
X153288973Y-70274277D01*
X153288974Y-70274276D01*
X153359546Y-70142247D01*
X153403003Y-69998986D01*
X153414000Y-69887333D01*
X153414000Y-69887324D01*
X153417676Y-69850001D01*
X153414000Y-69812678D01*
X153414000Y-65219711D01*
X153457937Y-65175774D01*
X153571205Y-65006256D01*
X153649226Y-64817898D01*
X153689000Y-64617939D01*
X153689000Y-64414061D01*
X153649226Y-64214102D01*
X153571205Y-64025744D01*
X153463989Y-63865284D01*
X153567774Y-63795937D01*
X153711937Y-63651774D01*
X153825205Y-63482256D01*
X153903226Y-63293898D01*
X153943000Y-63093939D01*
X153943000Y-62974799D01*
X154209044Y-62708755D01*
X154280226Y-62779937D01*
X154449744Y-62893205D01*
X154638102Y-62971226D01*
X154838061Y-63011000D01*
X155041939Y-63011000D01*
X155241898Y-62971226D01*
X155430256Y-62893205D01*
X155599774Y-62779937D01*
X155643711Y-62736000D01*
X165824678Y-62736000D01*
X165862000Y-62739676D01*
X165899322Y-62736000D01*
X165899333Y-62736000D01*
X166010986Y-62725003D01*
X166154247Y-62681546D01*
X166286276Y-62610974D01*
X166402001Y-62516001D01*
X166425804Y-62486997D01*
X166626998Y-62285803D01*
X166656001Y-62262001D01*
X166750974Y-62146276D01*
X166821546Y-62014247D01*
X166865003Y-61870986D01*
X166876000Y-61759333D01*
X166876000Y-61759324D01*
X166879676Y-61722001D01*
X166876000Y-61684678D01*
X166876000Y-55694313D01*
X167094505Y-55548312D01*
X167308312Y-55334505D01*
X167476299Y-55083095D01*
X167592011Y-54803743D01*
X167651000Y-54507184D01*
X167651000Y-54204816D01*
X167592011Y-53908257D01*
X167476299Y-53628905D01*
X167308312Y-53377495D01*
X167094505Y-53163688D01*
X166843095Y-52995701D01*
X166563743Y-52879989D01*
X166267184Y-52821000D01*
X165964816Y-52821000D01*
X165668257Y-52879989D01*
X165388905Y-52995701D01*
X165137495Y-53163688D01*
X164923688Y-53377495D01*
X164846000Y-53493763D01*
X164768312Y-53377495D01*
X164554505Y-53163688D01*
X164303095Y-52995701D01*
X164023743Y-52879989D01*
X163727184Y-52821000D01*
X163424816Y-52821000D01*
X163128257Y-52879989D01*
X162848905Y-52995701D01*
X162597495Y-53163688D01*
X162531056Y-53230127D01*
X162525502Y-53211820D01*
X162466537Y-53101506D01*
X162387185Y-53004815D01*
X162290494Y-52925463D01*
X162180180Y-52866498D01*
X162060482Y-52830188D01*
X161936000Y-52817928D01*
X160136000Y-52817928D01*
X160011518Y-52830188D01*
X159939753Y-52851958D01*
X160061937Y-52729774D01*
X160175205Y-52560256D01*
X160253226Y-52371898D01*
X160293000Y-52171939D01*
X160293000Y-51968061D01*
X160253226Y-51768102D01*
X160175205Y-51579744D01*
X160061937Y-51410226D01*
X159917774Y-51266063D01*
X159748256Y-51152795D01*
X159559898Y-51074774D01*
X159359939Y-51035000D01*
X159297802Y-51035000D01*
X157789804Y-49527003D01*
X157766001Y-49497999D01*
X157650276Y-49403026D01*
X157518247Y-49332454D01*
X157374986Y-49288997D01*
X157263333Y-49278000D01*
X157263322Y-49278000D01*
X157226000Y-49274324D01*
X157188678Y-49278000D01*
X154627711Y-49278000D01*
X154583774Y-49234063D01*
X154414256Y-49120795D01*
X154267485Y-49060000D01*
X168440001Y-49060000D01*
X168440000Y-64367581D01*
X168436807Y-64400000D01*
X168449550Y-64529383D01*
X168487290Y-64653793D01*
X168548575Y-64768450D01*
X168616639Y-64851386D01*
X168631052Y-64868948D01*
X168731550Y-64951425D01*
X168846207Y-65012710D01*
X168970617Y-65050450D01*
X169100000Y-65063193D01*
X169132419Y-65060000D01*
X179840001Y-65060000D01*
X179840000Y-98740000D01*
X176817138Y-98740000D01*
X176946632Y-98653475D01*
X177153475Y-98446632D01*
X177315990Y-98203411D01*
X177427932Y-97933158D01*
X177485000Y-97646260D01*
X177485000Y-97353740D01*
X177427932Y-97066842D01*
X177315990Y-96796589D01*
X177153475Y-96553368D01*
X176946632Y-96346525D01*
X176703411Y-96184010D01*
X176433158Y-96072068D01*
X176146260Y-96015000D01*
X175853740Y-96015000D01*
X175566842Y-96072068D01*
X175296589Y-96184010D01*
X175053368Y-96346525D01*
X174846525Y-96553368D01*
X174730000Y-96727760D01*
X174613475Y-96553368D01*
X174406632Y-96346525D01*
X174163411Y-96184010D01*
X173893158Y-96072068D01*
X173606260Y-96015000D01*
X173313740Y-96015000D01*
X173026842Y-96072068D01*
X172756589Y-96184010D01*
X172513368Y-96346525D01*
X172306525Y-96553368D01*
X172190000Y-96727760D01*
X172073475Y-96553368D01*
X171866632Y-96346525D01*
X171623411Y-96184010D01*
X171353158Y-96072068D01*
X171066260Y-96015000D01*
X170773740Y-96015000D01*
X170486842Y-96072068D01*
X170216589Y-96184010D01*
X169973368Y-96346525D01*
X169841513Y-96478380D01*
X169819502Y-96405820D01*
X169760537Y-96295506D01*
X169681185Y-96198815D01*
X169584494Y-96119463D01*
X169474180Y-96060498D01*
X169354482Y-96024188D01*
X169230000Y-96011928D01*
X168665750Y-96015000D01*
X168507000Y-96173750D01*
X168507000Y-97373000D01*
X168527000Y-97373000D01*
X168527000Y-97627000D01*
X168507000Y-97627000D01*
X168507000Y-97647000D01*
X168253000Y-97647000D01*
X168253000Y-97627000D01*
X167053750Y-97627000D01*
X166895000Y-97785750D01*
X166891928Y-98350000D01*
X166904188Y-98474482D01*
X166940498Y-98594180D01*
X166999463Y-98704494D01*
X167028602Y-98740000D01*
X156083483Y-98740000D01*
X128974446Y-98526543D01*
X129015178Y-98481355D01*
X129164157Y-98231252D01*
X129261481Y-97956891D01*
X129140814Y-97727000D01*
X127947000Y-97727000D01*
X127947000Y-97747000D01*
X127693000Y-97747000D01*
X127693000Y-97727000D01*
X127673000Y-97727000D01*
X127673000Y-97473000D01*
X127693000Y-97473000D01*
X127693000Y-96279845D01*
X127947000Y-96279845D01*
X127947000Y-97473000D01*
X129140814Y-97473000D01*
X129261481Y-97243109D01*
X129164157Y-96968748D01*
X129015178Y-96718645D01*
X128953303Y-96650000D01*
X166891928Y-96650000D01*
X166895000Y-97214250D01*
X167053750Y-97373000D01*
X168253000Y-97373000D01*
X168253000Y-96173750D01*
X168094250Y-96015000D01*
X167530000Y-96011928D01*
X167405518Y-96024188D01*
X167285820Y-96060498D01*
X167175506Y-96119463D01*
X167078815Y-96198815D01*
X166999463Y-96295506D01*
X166940498Y-96405820D01*
X166904188Y-96525518D01*
X166891928Y-96650000D01*
X128953303Y-96650000D01*
X128820269Y-96502412D01*
X128586920Y-96328359D01*
X128324099Y-96203175D01*
X128176890Y-96158524D01*
X127947000Y-96279845D01*
X127693000Y-96279845D01*
X127463110Y-96158524D01*
X127315901Y-96203175D01*
X127053080Y-96328359D01*
X126819731Y-96502412D01*
X126624822Y-96718645D01*
X126555195Y-96835534D01*
X126433475Y-96653368D01*
X126226632Y-96446525D01*
X125983411Y-96284010D01*
X125982000Y-96283426D01*
X125982000Y-93278801D01*
X128055802Y-91205000D01*
X128117939Y-91205000D01*
X128317898Y-91165226D01*
X128506256Y-91087205D01*
X128675774Y-90973937D01*
X128819937Y-90829774D01*
X128933205Y-90660256D01*
X129011226Y-90471898D01*
X129051000Y-90271939D01*
X129051000Y-90068061D01*
X129011226Y-89868102D01*
X128933205Y-89679744D01*
X128819937Y-89510226D01*
X128675774Y-89366063D01*
X128506256Y-89252795D01*
X128317898Y-89174774D01*
X128117939Y-89135000D01*
X127914061Y-89135000D01*
X127714102Y-89174774D01*
X127525744Y-89252795D01*
X127356226Y-89366063D01*
X127212063Y-89510226D01*
X127098795Y-89679744D01*
X127020774Y-89868102D01*
X126981000Y-90068061D01*
X126981000Y-90130198D01*
X124711003Y-92400196D01*
X124681999Y-92423999D01*
X124626871Y-92491174D01*
X124587026Y-92539724D01*
X124516455Y-92671753D01*
X124516454Y-92671754D01*
X124472997Y-92815015D01*
X124462000Y-92926668D01*
X124462000Y-92926678D01*
X124458324Y-92964000D01*
X124462000Y-93001323D01*
X124462001Y-96360575D01*
X124333368Y-96446525D01*
X124126525Y-96653368D01*
X124010000Y-96827760D01*
X123893475Y-96653368D01*
X123686632Y-96446525D01*
X123500000Y-96321822D01*
X123500000Y-89410801D01*
X124266802Y-88644000D01*
X124705822Y-88644000D01*
X124830525Y-88830632D01*
X125037368Y-89037475D01*
X125280589Y-89199990D01*
X125550842Y-89311932D01*
X125837740Y-89369000D01*
X126130260Y-89369000D01*
X126417158Y-89311932D01*
X126687411Y-89199990D01*
X126930632Y-89037475D01*
X127137475Y-88830632D01*
X127159238Y-88798061D01*
X143999000Y-88798061D01*
X143999000Y-89001939D01*
X144038774Y-89201898D01*
X144116795Y-89390256D01*
X144230063Y-89559774D01*
X144374226Y-89703937D01*
X144543744Y-89817205D01*
X144732102Y-89895226D01*
X144932061Y-89935000D01*
X145135939Y-89935000D01*
X145335898Y-89895226D01*
X145524256Y-89817205D01*
X145693774Y-89703937D01*
X145737711Y-89660000D01*
X150680289Y-89660000D01*
X150724226Y-89703937D01*
X150893744Y-89817205D01*
X151082102Y-89895226D01*
X151282061Y-89935000D01*
X151485939Y-89935000D01*
X151685898Y-89895226D01*
X151874256Y-89817205D01*
X152043774Y-89703937D01*
X152187937Y-89559774D01*
X152301205Y-89390256D01*
X152379226Y-89201898D01*
X152419000Y-89001939D01*
X152419000Y-88798061D01*
X152379226Y-88598102D01*
X152301205Y-88409744D01*
X152187937Y-88240226D01*
X152043774Y-88096063D01*
X151874256Y-87982795D01*
X151685898Y-87904774D01*
X151485939Y-87865000D01*
X151282061Y-87865000D01*
X151082102Y-87904774D01*
X150893744Y-87982795D01*
X150724226Y-88096063D01*
X150680289Y-88140000D01*
X145737711Y-88140000D01*
X145693774Y-88096063D01*
X145524256Y-87982795D01*
X145335898Y-87904774D01*
X145135939Y-87865000D01*
X144932061Y-87865000D01*
X144732102Y-87904774D01*
X144543744Y-87982795D01*
X144374226Y-88096063D01*
X144230063Y-88240226D01*
X144116795Y-88409744D01*
X144038774Y-88598102D01*
X143999000Y-88798061D01*
X127159238Y-88798061D01*
X127299990Y-88587411D01*
X127411932Y-88317158D01*
X127469000Y-88030260D01*
X127469000Y-87737740D01*
X127411932Y-87450842D01*
X127299990Y-87180589D01*
X127137475Y-86937368D01*
X127005620Y-86805513D01*
X127078180Y-86783502D01*
X127188494Y-86724537D01*
X127285185Y-86645185D01*
X127364537Y-86548494D01*
X127423502Y-86438180D01*
X127459812Y-86318482D01*
X127472072Y-86194000D01*
X127472072Y-84494000D01*
X127459812Y-84369518D01*
X127423502Y-84249820D01*
X127364537Y-84139506D01*
X127285185Y-84042815D01*
X127188494Y-83963463D01*
X127078180Y-83904498D01*
X126958482Y-83868188D01*
X126834000Y-83855928D01*
X125134000Y-83855928D01*
X125009518Y-83868188D01*
X124889820Y-83904498D01*
X124779506Y-83963463D01*
X124682815Y-84042815D01*
X124603463Y-84139506D01*
X124544498Y-84249820D01*
X124508188Y-84369518D01*
X124495928Y-84494000D01*
X124495928Y-86194000D01*
X124508188Y-86318482D01*
X124544498Y-86438180D01*
X124603463Y-86548494D01*
X124682815Y-86645185D01*
X124779506Y-86724537D01*
X124889820Y-86783502D01*
X124962380Y-86805513D01*
X124830525Y-86937368D01*
X124705822Y-87124000D01*
X123989323Y-87124000D01*
X123952000Y-87120324D01*
X123914677Y-87124000D01*
X123914667Y-87124000D01*
X123803014Y-87134997D01*
X123659753Y-87178454D01*
X123527724Y-87249026D01*
X123411999Y-87343999D01*
X123388201Y-87372997D01*
X122229003Y-88532196D01*
X122199999Y-88555999D01*
X122157526Y-88607753D01*
X122105026Y-88671724D01*
X122037497Y-88798061D01*
X122034454Y-88803754D01*
X121990997Y-88947015D01*
X121980000Y-89058668D01*
X121980000Y-89058678D01*
X121976324Y-89096000D01*
X121980000Y-89133322D01*
X121980001Y-96321821D01*
X121793368Y-96446525D01*
X121661513Y-96578380D01*
X121639502Y-96505820D01*
X121580537Y-96395506D01*
X121501185Y-96298815D01*
X121404494Y-96219463D01*
X121294180Y-96160498D01*
X121174482Y-96124188D01*
X121050000Y-96111928D01*
X119350000Y-96111928D01*
X119225518Y-96124188D01*
X119105820Y-96160498D01*
X118995506Y-96219463D01*
X118898815Y-96298815D01*
X118819463Y-96395506D01*
X118760498Y-96505820D01*
X118724188Y-96625518D01*
X118711928Y-96750000D01*
X118711928Y-98445736D01*
X116360000Y-98427217D01*
X116360000Y-79451890D01*
X116569124Y-79451890D01*
X116613775Y-79599099D01*
X116738959Y-79861920D01*
X116913012Y-80095269D01*
X117129245Y-80290178D01*
X117379348Y-80439157D01*
X117653709Y-80536481D01*
X117883600Y-80415814D01*
X117883600Y-79222000D01*
X118137600Y-79222000D01*
X118137600Y-80415814D01*
X118367491Y-80536481D01*
X118641852Y-80439157D01*
X118891955Y-80290178D01*
X119108188Y-80095269D01*
X119282241Y-79861920D01*
X119407425Y-79599099D01*
X119452076Y-79451890D01*
X119330755Y-79222000D01*
X118137600Y-79222000D01*
X117883600Y-79222000D01*
X116690445Y-79222000D01*
X116569124Y-79451890D01*
X116360000Y-79451890D01*
X116360000Y-77937424D01*
X116456822Y-65060000D01*
X116750619Y-65060000D01*
X116709415Y-65093815D01*
X116630063Y-65190506D01*
X116571098Y-65300820D01*
X116534788Y-65420518D01*
X116522528Y-65545000D01*
X116522528Y-67245000D01*
X116534788Y-67369482D01*
X116571098Y-67489180D01*
X116630063Y-67599494D01*
X116709415Y-67696185D01*
X116806106Y-67775537D01*
X116916420Y-67834502D01*
X116988980Y-67856513D01*
X116857125Y-67988368D01*
X116694610Y-68231589D01*
X116582668Y-68501842D01*
X116525600Y-68788740D01*
X116525600Y-69081260D01*
X116582668Y-69368158D01*
X116694610Y-69638411D01*
X116857125Y-69881632D01*
X117063968Y-70088475D01*
X117238360Y-70205000D01*
X117063968Y-70321525D01*
X116857125Y-70528368D01*
X116694610Y-70771589D01*
X116582668Y-71041842D01*
X116525600Y-71328740D01*
X116525600Y-71621260D01*
X116582668Y-71908158D01*
X116694610Y-72178411D01*
X116857125Y-72421632D01*
X117063968Y-72628475D01*
X117238360Y-72745000D01*
X117063968Y-72861525D01*
X116857125Y-73068368D01*
X116694610Y-73311589D01*
X116582668Y-73581842D01*
X116525600Y-73868740D01*
X116525600Y-74161260D01*
X116582668Y-74448158D01*
X116694610Y-74718411D01*
X116857125Y-74961632D01*
X117063968Y-75168475D01*
X117238360Y-75285000D01*
X117063968Y-75401525D01*
X116857125Y-75608368D01*
X116694610Y-75851589D01*
X116582668Y-76121842D01*
X116525600Y-76408740D01*
X116525600Y-76701260D01*
X116582668Y-76988158D01*
X116694610Y-77258411D01*
X116857125Y-77501632D01*
X117063968Y-77708475D01*
X117246134Y-77830195D01*
X117129245Y-77899822D01*
X116913012Y-78094731D01*
X116738959Y-78328080D01*
X116613775Y-78590901D01*
X116569124Y-78738110D01*
X116690445Y-78968000D01*
X117883600Y-78968000D01*
X117883600Y-78948000D01*
X118137600Y-78948000D01*
X118137600Y-78968000D01*
X119330755Y-78968000D01*
X119452076Y-78738110D01*
X119407425Y-78590901D01*
X119282241Y-78328080D01*
X119108188Y-78094731D01*
X118891955Y-77899822D01*
X118775066Y-77830195D01*
X118957232Y-77708475D01*
X119164075Y-77501632D01*
X119326590Y-77258411D01*
X119438532Y-76988158D01*
X119495600Y-76701260D01*
X119495600Y-76408740D01*
X119438532Y-76121842D01*
X119326590Y-75851589D01*
X119164075Y-75608368D01*
X118957232Y-75401525D01*
X118782840Y-75285000D01*
X118957232Y-75168475D01*
X119164075Y-74961632D01*
X119326590Y-74718411D01*
X119438532Y-74448158D01*
X119495600Y-74161260D01*
X119495600Y-73868740D01*
X119438532Y-73581842D01*
X119326590Y-73311589D01*
X119164075Y-73068368D01*
X118957232Y-72861525D01*
X118782840Y-72745000D01*
X118957232Y-72628475D01*
X119164075Y-72421632D01*
X119288778Y-72235000D01*
X119495678Y-72235000D01*
X119533000Y-72238676D01*
X119570322Y-72235000D01*
X119570333Y-72235000D01*
X119681986Y-72224003D01*
X119825247Y-72180546D01*
X119957276Y-72109974D01*
X120073001Y-72015001D01*
X120096804Y-71985997D01*
X120144997Y-71937804D01*
X120174001Y-71914001D01*
X120268974Y-71798276D01*
X120339546Y-71666247D01*
X120383003Y-71522986D01*
X120394000Y-71411333D01*
X120397677Y-71374000D01*
X120394000Y-71336667D01*
X120394000Y-70764061D01*
X127997000Y-70764061D01*
X127997000Y-70967939D01*
X128036774Y-71167898D01*
X128114795Y-71356256D01*
X128228063Y-71525774D01*
X128372226Y-71669937D01*
X128541744Y-71783205D01*
X128730102Y-71861226D01*
X128930061Y-71901000D01*
X129133939Y-71901000D01*
X129333898Y-71861226D01*
X129522256Y-71783205D01*
X129691774Y-71669937D01*
X129735711Y-71626000D01*
X131630289Y-71626000D01*
X131674226Y-71669937D01*
X131843744Y-71783205D01*
X132032102Y-71861226D01*
X132232061Y-71901000D01*
X132435939Y-71901000D01*
X132635898Y-71861226D01*
X132824256Y-71783205D01*
X132993774Y-71669937D01*
X133137937Y-71525774D01*
X133251205Y-71356256D01*
X133329226Y-71167898D01*
X133369000Y-70967939D01*
X133369000Y-70764061D01*
X133329226Y-70564102D01*
X133251205Y-70375744D01*
X133137937Y-70206226D01*
X132993774Y-70062063D01*
X132824256Y-69948795D01*
X132635898Y-69870774D01*
X132435939Y-69831000D01*
X132232061Y-69831000D01*
X132032102Y-69870774D01*
X131843744Y-69948795D01*
X131674226Y-70062063D01*
X131630289Y-70106000D01*
X129735711Y-70106000D01*
X129691774Y-70062063D01*
X129522256Y-69948795D01*
X129333898Y-69870774D01*
X129133939Y-69831000D01*
X128930061Y-69831000D01*
X128730102Y-69870774D01*
X128541744Y-69948795D01*
X128372226Y-70062063D01*
X128228063Y-70206226D01*
X128114795Y-70375744D01*
X128036774Y-70564102D01*
X127997000Y-70764061D01*
X120394000Y-70764061D01*
X120394000Y-69785211D01*
X123633212Y-66546000D01*
X127345088Y-66546000D01*
X127382410Y-66549676D01*
X127419732Y-66546000D01*
X127419743Y-66546000D01*
X127531396Y-66535003D01*
X127674657Y-66491546D01*
X127806686Y-66420974D01*
X127922411Y-66326001D01*
X127946213Y-66296998D01*
X128014300Y-66228911D01*
X128036774Y-66341898D01*
X128114795Y-66530256D01*
X128228063Y-66699774D01*
X128372226Y-66843937D01*
X128541744Y-66957205D01*
X128730102Y-67035226D01*
X128930061Y-67075000D01*
X129133939Y-67075000D01*
X129333898Y-67035226D01*
X129522256Y-66957205D01*
X129691774Y-66843937D01*
X129735711Y-66800000D01*
X133154289Y-66800000D01*
X133198226Y-66843937D01*
X133367744Y-66957205D01*
X133556102Y-67035226D01*
X133756061Y-67075000D01*
X133959939Y-67075000D01*
X134159898Y-67035226D01*
X134348256Y-66957205D01*
X134517774Y-66843937D01*
X134661937Y-66699774D01*
X134775205Y-66530256D01*
X134853226Y-66341898D01*
X134883030Y-66192061D01*
X135871000Y-66192061D01*
X135871000Y-66395939D01*
X135910774Y-66595898D01*
X135988795Y-66784256D01*
X136102063Y-66953774D01*
X136146001Y-66997712D01*
X136146000Y-71844677D01*
X136142324Y-71882000D01*
X136146000Y-71919322D01*
X136146000Y-71919332D01*
X136156997Y-72030985D01*
X136171728Y-72079546D01*
X136200454Y-72174246D01*
X136271026Y-72306276D01*
X136310871Y-72354826D01*
X136365999Y-72422001D01*
X136395003Y-72445804D01*
X139173000Y-75223802D01*
X139173000Y-75285939D01*
X139212774Y-75485898D01*
X139290795Y-75674256D01*
X139404063Y-75843774D01*
X139548226Y-75987937D01*
X139717744Y-76101205D01*
X139906102Y-76179226D01*
X140106061Y-76219000D01*
X140309939Y-76219000D01*
X140509898Y-76179226D01*
X140698256Y-76101205D01*
X140867774Y-75987937D01*
X141011937Y-75843774D01*
X141125205Y-75674256D01*
X141203226Y-75485898D01*
X141243000Y-75285939D01*
X141243000Y-75082061D01*
X141203226Y-74882102D01*
X141125205Y-74693744D01*
X141011937Y-74524226D01*
X140867774Y-74380063D01*
X140698256Y-74266795D01*
X140509898Y-74188774D01*
X140309939Y-74149000D01*
X140247802Y-74149000D01*
X137666000Y-71567199D01*
X137666000Y-66997711D01*
X137709937Y-66953774D01*
X137823205Y-66784256D01*
X137901226Y-66595898D01*
X137941000Y-66395939D01*
X137941000Y-66192061D01*
X137901226Y-65992102D01*
X137823205Y-65803744D01*
X137709937Y-65634226D01*
X137565774Y-65490063D01*
X137396256Y-65376795D01*
X137207898Y-65298774D01*
X137007939Y-65259000D01*
X136804061Y-65259000D01*
X136604102Y-65298774D01*
X136415744Y-65376795D01*
X136246226Y-65490063D01*
X136102063Y-65634226D01*
X135988795Y-65803744D01*
X135910774Y-65992102D01*
X135871000Y-66192061D01*
X134883030Y-66192061D01*
X134893000Y-66141939D01*
X134893000Y-65938061D01*
X134853226Y-65738102D01*
X134775205Y-65549744D01*
X134661937Y-65380226D01*
X134517774Y-65236063D01*
X134348256Y-65122795D01*
X134159898Y-65044774D01*
X133959939Y-65005000D01*
X133756061Y-65005000D01*
X133556102Y-65044774D01*
X133367744Y-65122795D01*
X133198226Y-65236063D01*
X133154289Y-65280000D01*
X129735711Y-65280000D01*
X129691774Y-65236063D01*
X129522256Y-65122795D01*
X129333898Y-65044774D01*
X129162938Y-65010768D01*
X129171554Y-64994648D01*
X129215011Y-64851388D01*
X129229685Y-64702402D01*
X129226303Y-64668061D01*
X141205000Y-64668061D01*
X141205000Y-64871939D01*
X141244774Y-65071898D01*
X141322795Y-65260256D01*
X141436063Y-65429774D01*
X141480001Y-65473712D01*
X141480000Y-69304677D01*
X141476324Y-69342000D01*
X141480000Y-69379322D01*
X141480000Y-69379332D01*
X141490997Y-69490985D01*
X141529949Y-69619395D01*
X141534454Y-69634246D01*
X141605026Y-69766276D01*
X141644871Y-69814826D01*
X141699999Y-69882001D01*
X141729002Y-69905804D01*
X142221000Y-70397802D01*
X142221000Y-70459939D01*
X142260774Y-70659898D01*
X142338795Y-70848256D01*
X142452063Y-71017774D01*
X142596226Y-71161937D01*
X142765744Y-71275205D01*
X142954102Y-71353226D01*
X143154061Y-71393000D01*
X143357939Y-71393000D01*
X143557898Y-71353226D01*
X143746256Y-71275205D01*
X143915774Y-71161937D01*
X144059937Y-71017774D01*
X144145000Y-70890468D01*
X144230063Y-71017774D01*
X144374226Y-71161937D01*
X144543744Y-71275205D01*
X144732102Y-71353226D01*
X144932061Y-71393000D01*
X145135939Y-71393000D01*
X145335898Y-71353226D01*
X145524256Y-71275205D01*
X145693774Y-71161937D01*
X145837937Y-71017774D01*
X145923000Y-70890468D01*
X146008063Y-71017774D01*
X146152226Y-71161937D01*
X146321744Y-71275205D01*
X146510102Y-71353226D01*
X146710061Y-71393000D01*
X146913939Y-71393000D01*
X147113898Y-71353226D01*
X147302256Y-71275205D01*
X147471774Y-71161937D01*
X147615937Y-71017774D01*
X147729205Y-70848256D01*
X147807226Y-70659898D01*
X147847000Y-70459939D01*
X147847000Y-70256061D01*
X147807226Y-70056102D01*
X147729205Y-69867744D01*
X147615937Y-69698226D01*
X147471774Y-69554063D01*
X147302256Y-69440795D01*
X147113898Y-69362774D01*
X146913939Y-69323000D01*
X146851801Y-69323000D01*
X146810000Y-69281199D01*
X146810000Y-61409711D01*
X146853937Y-61365774D01*
X146967205Y-61196256D01*
X147045226Y-61007898D01*
X147085000Y-60807939D01*
X147085000Y-60604061D01*
X147045226Y-60404102D01*
X146967205Y-60215744D01*
X146853937Y-60046226D01*
X146709774Y-59902063D01*
X146540256Y-59788795D01*
X146351898Y-59710774D01*
X146151939Y-59671000D01*
X145948061Y-59671000D01*
X145748102Y-59710774D01*
X145559744Y-59788795D01*
X145390226Y-59902063D01*
X145246063Y-60046226D01*
X145132795Y-60215744D01*
X145054774Y-60404102D01*
X145015000Y-60604061D01*
X145015000Y-60807939D01*
X145054774Y-61007898D01*
X145132795Y-61196256D01*
X145246063Y-61365774D01*
X145290001Y-61409712D01*
X145290001Y-64328599D01*
X145267226Y-64214102D01*
X145189205Y-64025744D01*
X145075937Y-63856226D01*
X144931774Y-63712063D01*
X144762256Y-63598795D01*
X144573898Y-63520774D01*
X144373939Y-63481000D01*
X144170061Y-63481000D01*
X143970102Y-63520774D01*
X143781744Y-63598795D01*
X143612226Y-63712063D01*
X143468063Y-63856226D01*
X143354795Y-64025744D01*
X143276774Y-64214102D01*
X143237000Y-64414061D01*
X143237000Y-64477021D01*
X143235226Y-64468102D01*
X143157205Y-64279744D01*
X143043937Y-64110226D01*
X142899774Y-63966063D01*
X142730256Y-63852795D01*
X142541898Y-63774774D01*
X142341939Y-63735000D01*
X142138061Y-63735000D01*
X141938102Y-63774774D01*
X141749744Y-63852795D01*
X141580226Y-63966063D01*
X141436063Y-64110226D01*
X141322795Y-64279744D01*
X141244774Y-64468102D01*
X141205000Y-64668061D01*
X129226303Y-64668061D01*
X129226008Y-64665069D01*
X129226009Y-59321159D01*
X129304815Y-59417185D01*
X129401506Y-59496537D01*
X129511820Y-59555502D01*
X129631518Y-59591812D01*
X129756000Y-59604072D01*
X131356000Y-59604072D01*
X131480482Y-59591812D01*
X131600180Y-59555502D01*
X131710494Y-59496537D01*
X131807185Y-59417185D01*
X131886537Y-59320494D01*
X131945502Y-59210180D01*
X131961117Y-59158702D01*
X132242903Y-59158702D01*
X132314486Y-59402671D01*
X132569996Y-59523571D01*
X132844184Y-59592300D01*
X133126512Y-59606217D01*
X133406130Y-59564787D01*
X133672292Y-59469603D01*
X133797514Y-59402671D01*
X133869097Y-59158702D01*
X133056000Y-58345605D01*
X132242903Y-59158702D01*
X131961117Y-59158702D01*
X131981812Y-59090482D01*
X131994072Y-58966000D01*
X131994072Y-58958785D01*
X132063298Y-58979097D01*
X132876395Y-58166000D01*
X133235605Y-58166000D01*
X134048702Y-58979097D01*
X134292671Y-58907514D01*
X134413571Y-58652004D01*
X134482300Y-58377816D01*
X134496217Y-58095488D01*
X134454787Y-57815870D01*
X134359603Y-57549708D01*
X134292671Y-57424486D01*
X134048702Y-57352903D01*
X133235605Y-58166000D01*
X132876395Y-58166000D01*
X132063298Y-57352903D01*
X131994072Y-57373215D01*
X131994072Y-57366000D01*
X131981812Y-57241518D01*
X131961118Y-57173298D01*
X132242903Y-57173298D01*
X133056000Y-57986395D01*
X133869097Y-57173298D01*
X133797514Y-56929329D01*
X133542004Y-56808429D01*
X133267816Y-56739700D01*
X132985488Y-56725783D01*
X132705870Y-56767213D01*
X132439708Y-56862397D01*
X132314486Y-56929329D01*
X132242903Y-57173298D01*
X131961118Y-57173298D01*
X131945502Y-57121820D01*
X131886537Y-57011506D01*
X131807185Y-56914815D01*
X131710494Y-56835463D01*
X131600180Y-56776498D01*
X131480482Y-56740188D01*
X131356000Y-56727928D01*
X129756000Y-56727928D01*
X129631518Y-56740188D01*
X129511820Y-56776498D01*
X129401506Y-56835463D01*
X129304815Y-56914815D01*
X129226009Y-57010840D01*
X129226010Y-54728791D01*
X129346802Y-54608000D01*
X152668182Y-54608000D01*
X152792281Y-54694980D01*
X152808774Y-54777898D01*
X152886795Y-54966256D01*
X153000063Y-55135774D01*
X153144226Y-55279937D01*
X153313744Y-55393205D01*
X153502102Y-55471226D01*
X153702061Y-55511000D01*
X153905939Y-55511000D01*
X154105898Y-55471226D01*
X154294256Y-55393205D01*
X154463774Y-55279937D01*
X154607937Y-55135774D01*
X154721205Y-54966256D01*
X154799226Y-54777898D01*
X154839000Y-54577939D01*
X154839000Y-54374061D01*
X154799226Y-54174102D01*
X154727286Y-54000425D01*
X154727937Y-53999774D01*
X154841205Y-53830256D01*
X154919226Y-53641898D01*
X154959000Y-53441939D01*
X154959000Y-53238061D01*
X154919226Y-53038102D01*
X154841205Y-52849744D01*
X154727937Y-52680226D01*
X154583774Y-52536063D01*
X154414256Y-52422795D01*
X154225898Y-52344774D01*
X154025939Y-52305000D01*
X153822061Y-52305000D01*
X153622102Y-52344774D01*
X153433744Y-52422795D01*
X153264226Y-52536063D01*
X153220289Y-52580000D01*
X128815325Y-52580000D01*
X128778000Y-52576324D01*
X128740675Y-52580000D01*
X128740667Y-52580000D01*
X128629014Y-52590997D01*
X128485753Y-52634454D01*
X128353724Y-52705026D01*
X128237999Y-52799999D01*
X128214201Y-52828998D01*
X127760000Y-53283199D01*
X127760000Y-49060000D01*
X153580515Y-49060000D01*
X153433744Y-49120795D01*
%TA.AperFunction,Conductor*%
D19*
G36*
X153433744Y-49120795D02*
G01*
X153264226Y-49234063D01*
X153120063Y-49378226D01*
X153006795Y-49547744D01*
X152928774Y-49736102D01*
X152889000Y-49936061D01*
X152889000Y-50139939D01*
X152928774Y-50339898D01*
X153006795Y-50528256D01*
X153120063Y-50697774D01*
X153264226Y-50841937D01*
X153433744Y-50955205D01*
X153622102Y-51033226D01*
X153822061Y-51073000D01*
X154025939Y-51073000D01*
X154225898Y-51033226D01*
X154414256Y-50955205D01*
X154583774Y-50841937D01*
X154627711Y-50798000D01*
X156911199Y-50798000D01*
X158223000Y-52109802D01*
X158223000Y-52171939D01*
X158262774Y-52371898D01*
X158340795Y-52560256D01*
X158454063Y-52729774D01*
X158598226Y-52873937D01*
X158767744Y-52987205D01*
X158956102Y-53065226D01*
X159156061Y-53105000D01*
X159359939Y-53105000D01*
X159559898Y-53065226D01*
X159674037Y-53017948D01*
X159605463Y-53101506D01*
X159546498Y-53211820D01*
X159510188Y-53331518D01*
X159497928Y-53456000D01*
X159497928Y-55256000D01*
X159510188Y-55380482D01*
X159546498Y-55500180D01*
X159605463Y-55610494D01*
X159684815Y-55707185D01*
X159781506Y-55786537D01*
X159891820Y-55845502D01*
X160011518Y-55881812D01*
X160136000Y-55894072D01*
X160276000Y-55894072D01*
X160276001Y-58439660D01*
X160276000Y-58439670D01*
X160276001Y-60391198D01*
X160213199Y-60454000D01*
X154666323Y-60454000D01*
X154628998Y-60450324D01*
X154591673Y-60454000D01*
X154591665Y-60454000D01*
X154480012Y-60464997D01*
X154336751Y-60508454D01*
X154204722Y-60579026D01*
X154088997Y-60673999D01*
X154065199Y-60702997D01*
X152811197Y-61957000D01*
X152806061Y-61957000D01*
X152606102Y-61996774D01*
X152417744Y-62074795D01*
X152248226Y-62188063D01*
X152104063Y-62332226D01*
X151990795Y-62501744D01*
X151912774Y-62690102D01*
X151873000Y-62890061D01*
X151873000Y-63093939D01*
X151912774Y-63293898D01*
X151990795Y-63482256D01*
X152098011Y-63642716D01*
X151994226Y-63712063D01*
X151850063Y-63856226D01*
X151736795Y-64025744D01*
X151658774Y-64214102D01*
X151619000Y-64414061D01*
X151619000Y-64617939D01*
X151658774Y-64817898D01*
X151736795Y-65006256D01*
X151850063Y-65175774D01*
X151894001Y-65219712D01*
X151894000Y-69535197D01*
X150618998Y-70810201D01*
X150590000Y-70833999D01*
X150566202Y-70862997D01*
X150566201Y-70862998D01*
X150495026Y-70949724D01*
X150424454Y-71081754D01*
X150380998Y-71225015D01*
X150366324Y-71374000D01*
X150370001Y-71411332D01*
X150370000Y-77917198D01*
X150053199Y-78234000D01*
X145991711Y-78234000D01*
X145947774Y-78190063D01*
X145778256Y-78076795D01*
X145589898Y-77998774D01*
X145389939Y-77959000D01*
X145186061Y-77959000D01*
X144986102Y-77998774D01*
X144797744Y-78076795D01*
X144628226Y-78190063D01*
X144484063Y-78334226D01*
X144370795Y-78503744D01*
X144292774Y-78692102D01*
X144253000Y-78892061D01*
X144253000Y-79095939D01*
X144292774Y-79295898D01*
X144370795Y-79484256D01*
X144484063Y-79653774D01*
X144628226Y-79797937D01*
X144797744Y-79911205D01*
X144986102Y-79989226D01*
X145186061Y-80029000D01*
X145389939Y-80029000D01*
X145589898Y-79989226D01*
X145778256Y-79911205D01*
X145947774Y-79797937D01*
X145991711Y-79754000D01*
X150330678Y-79754000D01*
X150368000Y-79757676D01*
X150405322Y-79754000D01*
X150405333Y-79754000D01*
X150516986Y-79743003D01*
X150660247Y-79699546D01*
X150792276Y-79628974D01*
X150908001Y-79534001D01*
X150931803Y-79504998D01*
X151641004Y-78795798D01*
X151670001Y-78772001D01*
X151764974Y-78656276D01*
X151835546Y-78524247D01*
X151879003Y-78380986D01*
X151890000Y-78269333D01*
X151890000Y-78269325D01*
X151893676Y-78232000D01*
X151890000Y-78194675D01*
X151890000Y-71688801D01*
X153165009Y-70413794D01*
X153194001Y-70390001D01*
X153217795Y-70361008D01*
X153217799Y-70361004D01*
X153288973Y-70274277D01*
X153288974Y-70274276D01*
X153359546Y-70142247D01*
X153403003Y-69998986D01*
X153414000Y-69887333D01*
X153414000Y-69887324D01*
X153417676Y-69850001D01*
X153414000Y-69812678D01*
X153414000Y-65219711D01*
X153457937Y-65175774D01*
X153571205Y-65006256D01*
X153649226Y-64817898D01*
X153689000Y-64617939D01*
X153689000Y-64414061D01*
X153649226Y-64214102D01*
X153571205Y-64025744D01*
X153463989Y-63865284D01*
X153567774Y-63795937D01*
X153711937Y-63651774D01*
X153825205Y-63482256D01*
X153903226Y-63293898D01*
X153943000Y-63093939D01*
X153943000Y-62974799D01*
X154209044Y-62708755D01*
X154280226Y-62779937D01*
X154449744Y-62893205D01*
X154638102Y-62971226D01*
X154838061Y-63011000D01*
X155041939Y-63011000D01*
X155241898Y-62971226D01*
X155430256Y-62893205D01*
X155599774Y-62779937D01*
X155643711Y-62736000D01*
X165824678Y-62736000D01*
X165862000Y-62739676D01*
X165899322Y-62736000D01*
X165899333Y-62736000D01*
X166010986Y-62725003D01*
X166154247Y-62681546D01*
X166286276Y-62610974D01*
X166402001Y-62516001D01*
X166425804Y-62486997D01*
X166626998Y-62285803D01*
X166656001Y-62262001D01*
X166750974Y-62146276D01*
X166821546Y-62014247D01*
X166865003Y-61870986D01*
X166876000Y-61759333D01*
X166876000Y-61759324D01*
X166879676Y-61722001D01*
X166876000Y-61684678D01*
X166876000Y-55694313D01*
X167094505Y-55548312D01*
X167308312Y-55334505D01*
X167476299Y-55083095D01*
X167592011Y-54803743D01*
X167651000Y-54507184D01*
X167651000Y-54204816D01*
X167592011Y-53908257D01*
X167476299Y-53628905D01*
X167308312Y-53377495D01*
X167094505Y-53163688D01*
X166843095Y-52995701D01*
X166563743Y-52879989D01*
X166267184Y-52821000D01*
X165964816Y-52821000D01*
X165668257Y-52879989D01*
X165388905Y-52995701D01*
X165137495Y-53163688D01*
X164923688Y-53377495D01*
X164846000Y-53493763D01*
X164768312Y-53377495D01*
X164554505Y-53163688D01*
X164303095Y-52995701D01*
X164023743Y-52879989D01*
X163727184Y-52821000D01*
X163424816Y-52821000D01*
X163128257Y-52879989D01*
X162848905Y-52995701D01*
X162597495Y-53163688D01*
X162531056Y-53230127D01*
X162525502Y-53211820D01*
X162466537Y-53101506D01*
X162387185Y-53004815D01*
X162290494Y-52925463D01*
X162180180Y-52866498D01*
X162060482Y-52830188D01*
X161936000Y-52817928D01*
X160136000Y-52817928D01*
X160011518Y-52830188D01*
X159939753Y-52851958D01*
X160061937Y-52729774D01*
X160175205Y-52560256D01*
X160253226Y-52371898D01*
X160293000Y-52171939D01*
X160293000Y-51968061D01*
X160253226Y-51768102D01*
X160175205Y-51579744D01*
X160061937Y-51410226D01*
X159917774Y-51266063D01*
X159748256Y-51152795D01*
X159559898Y-51074774D01*
X159359939Y-51035000D01*
X159297802Y-51035000D01*
X157789804Y-49527003D01*
X157766001Y-49497999D01*
X157650276Y-49403026D01*
X157518247Y-49332454D01*
X157374986Y-49288997D01*
X157263333Y-49278000D01*
X157263322Y-49278000D01*
X157226000Y-49274324D01*
X157188678Y-49278000D01*
X154627711Y-49278000D01*
X154583774Y-49234063D01*
X154414256Y-49120795D01*
X154267485Y-49060000D01*
X168440001Y-49060000D01*
X168440000Y-64367581D01*
X168436807Y-64400000D01*
X168449550Y-64529383D01*
X168487290Y-64653793D01*
X168548575Y-64768450D01*
X168616639Y-64851386D01*
X168631052Y-64868948D01*
X168731550Y-64951425D01*
X168846207Y-65012710D01*
X168970617Y-65050450D01*
X169100000Y-65063193D01*
X169132419Y-65060000D01*
X179840001Y-65060000D01*
X179840000Y-98740000D01*
X176817138Y-98740000D01*
X176946632Y-98653475D01*
X177153475Y-98446632D01*
X177315990Y-98203411D01*
X177427932Y-97933158D01*
X177485000Y-97646260D01*
X177485000Y-97353740D01*
X177427932Y-97066842D01*
X177315990Y-96796589D01*
X177153475Y-96553368D01*
X176946632Y-96346525D01*
X176703411Y-96184010D01*
X176433158Y-96072068D01*
X176146260Y-96015000D01*
X175853740Y-96015000D01*
X175566842Y-96072068D01*
X175296589Y-96184010D01*
X175053368Y-96346525D01*
X174846525Y-96553368D01*
X174730000Y-96727760D01*
X174613475Y-96553368D01*
X174406632Y-96346525D01*
X174163411Y-96184010D01*
X173893158Y-96072068D01*
X173606260Y-96015000D01*
X173313740Y-96015000D01*
X173026842Y-96072068D01*
X172756589Y-96184010D01*
X172513368Y-96346525D01*
X172306525Y-96553368D01*
X172190000Y-96727760D01*
X172073475Y-96553368D01*
X171866632Y-96346525D01*
X171623411Y-96184010D01*
X171353158Y-96072068D01*
X171066260Y-96015000D01*
X170773740Y-96015000D01*
X170486842Y-96072068D01*
X170216589Y-96184010D01*
X169973368Y-96346525D01*
X169841513Y-96478380D01*
X169819502Y-96405820D01*
X169760537Y-96295506D01*
X169681185Y-96198815D01*
X169584494Y-96119463D01*
X169474180Y-96060498D01*
X169354482Y-96024188D01*
X169230000Y-96011928D01*
X168665750Y-96015000D01*
X168507000Y-96173750D01*
X168507000Y-97373000D01*
X168527000Y-97373000D01*
X168527000Y-97627000D01*
X168507000Y-97627000D01*
X168507000Y-97647000D01*
X168253000Y-97647000D01*
X168253000Y-97627000D01*
X167053750Y-97627000D01*
X166895000Y-97785750D01*
X166891928Y-98350000D01*
X166904188Y-98474482D01*
X166940498Y-98594180D01*
X166999463Y-98704494D01*
X167028602Y-98740000D01*
X156083483Y-98740000D01*
X128974446Y-98526543D01*
X129015178Y-98481355D01*
X129164157Y-98231252D01*
X129261481Y-97956891D01*
X129140814Y-97727000D01*
X127947000Y-97727000D01*
X127947000Y-97747000D01*
X127693000Y-97747000D01*
X127693000Y-97727000D01*
X127673000Y-97727000D01*
X127673000Y-97473000D01*
X127693000Y-97473000D01*
X127693000Y-96279845D01*
X127947000Y-96279845D01*
X127947000Y-97473000D01*
X129140814Y-97473000D01*
X129261481Y-97243109D01*
X129164157Y-96968748D01*
X129015178Y-96718645D01*
X128953303Y-96650000D01*
X166891928Y-96650000D01*
X166895000Y-97214250D01*
X167053750Y-97373000D01*
X168253000Y-97373000D01*
X168253000Y-96173750D01*
X168094250Y-96015000D01*
X167530000Y-96011928D01*
X167405518Y-96024188D01*
X167285820Y-96060498D01*
X167175506Y-96119463D01*
X167078815Y-96198815D01*
X166999463Y-96295506D01*
X166940498Y-96405820D01*
X166904188Y-96525518D01*
X166891928Y-96650000D01*
X128953303Y-96650000D01*
X128820269Y-96502412D01*
X128586920Y-96328359D01*
X128324099Y-96203175D01*
X128176890Y-96158524D01*
X127947000Y-96279845D01*
X127693000Y-96279845D01*
X127463110Y-96158524D01*
X127315901Y-96203175D01*
X127053080Y-96328359D01*
X126819731Y-96502412D01*
X126624822Y-96718645D01*
X126555195Y-96835534D01*
X126433475Y-96653368D01*
X126226632Y-96446525D01*
X125983411Y-96284010D01*
X125982000Y-96283426D01*
X125982000Y-93278801D01*
X128055802Y-91205000D01*
X128117939Y-91205000D01*
X128317898Y-91165226D01*
X128506256Y-91087205D01*
X128675774Y-90973937D01*
X128819937Y-90829774D01*
X128933205Y-90660256D01*
X129011226Y-90471898D01*
X129051000Y-90271939D01*
X129051000Y-90068061D01*
X129011226Y-89868102D01*
X128933205Y-89679744D01*
X128819937Y-89510226D01*
X128675774Y-89366063D01*
X128506256Y-89252795D01*
X128317898Y-89174774D01*
X128117939Y-89135000D01*
X127914061Y-89135000D01*
X127714102Y-89174774D01*
X127525744Y-89252795D01*
X127356226Y-89366063D01*
X127212063Y-89510226D01*
X127098795Y-89679744D01*
X127020774Y-89868102D01*
X126981000Y-90068061D01*
X126981000Y-90130198D01*
X124711003Y-92400196D01*
X124681999Y-92423999D01*
X124626871Y-92491174D01*
X124587026Y-92539724D01*
X124516455Y-92671753D01*
X124516454Y-92671754D01*
X124472997Y-92815015D01*
X124462000Y-92926668D01*
X124462000Y-92926678D01*
X124458324Y-92964000D01*
X124462000Y-93001323D01*
X124462001Y-96360575D01*
X124333368Y-96446525D01*
X124126525Y-96653368D01*
X124010000Y-96827760D01*
X123893475Y-96653368D01*
X123686632Y-96446525D01*
X123500000Y-96321822D01*
X123500000Y-89410801D01*
X124266802Y-88644000D01*
X124705822Y-88644000D01*
X124830525Y-88830632D01*
X125037368Y-89037475D01*
X125280589Y-89199990D01*
X125550842Y-89311932D01*
X125837740Y-89369000D01*
X126130260Y-89369000D01*
X126417158Y-89311932D01*
X126687411Y-89199990D01*
X126930632Y-89037475D01*
X127137475Y-88830632D01*
X127159238Y-88798061D01*
X143999000Y-88798061D01*
X143999000Y-89001939D01*
X144038774Y-89201898D01*
X144116795Y-89390256D01*
X144230063Y-89559774D01*
X144374226Y-89703937D01*
X144543744Y-89817205D01*
X144732102Y-89895226D01*
X144932061Y-89935000D01*
X145135939Y-89935000D01*
X145335898Y-89895226D01*
X145524256Y-89817205D01*
X145693774Y-89703937D01*
X145737711Y-89660000D01*
X150680289Y-89660000D01*
X150724226Y-89703937D01*
X150893744Y-89817205D01*
X151082102Y-89895226D01*
X151282061Y-89935000D01*
X151485939Y-89935000D01*
X151685898Y-89895226D01*
X151874256Y-89817205D01*
X152043774Y-89703937D01*
X152187937Y-89559774D01*
X152301205Y-89390256D01*
X152379226Y-89201898D01*
X152419000Y-89001939D01*
X152419000Y-88798061D01*
X152379226Y-88598102D01*
X152301205Y-88409744D01*
X152187937Y-88240226D01*
X152043774Y-88096063D01*
X151874256Y-87982795D01*
X151685898Y-87904774D01*
X151485939Y-87865000D01*
X151282061Y-87865000D01*
X151082102Y-87904774D01*
X150893744Y-87982795D01*
X150724226Y-88096063D01*
X150680289Y-88140000D01*
X145737711Y-88140000D01*
X145693774Y-88096063D01*
X145524256Y-87982795D01*
X145335898Y-87904774D01*
X145135939Y-87865000D01*
X144932061Y-87865000D01*
X144732102Y-87904774D01*
X144543744Y-87982795D01*
X144374226Y-88096063D01*
X144230063Y-88240226D01*
X144116795Y-88409744D01*
X144038774Y-88598102D01*
X143999000Y-88798061D01*
X127159238Y-88798061D01*
X127299990Y-88587411D01*
X127411932Y-88317158D01*
X127469000Y-88030260D01*
X127469000Y-87737740D01*
X127411932Y-87450842D01*
X127299990Y-87180589D01*
X127137475Y-86937368D01*
X127005620Y-86805513D01*
X127078180Y-86783502D01*
X127188494Y-86724537D01*
X127285185Y-86645185D01*
X127364537Y-86548494D01*
X127423502Y-86438180D01*
X127459812Y-86318482D01*
X127472072Y-86194000D01*
X127472072Y-84494000D01*
X127459812Y-84369518D01*
X127423502Y-84249820D01*
X127364537Y-84139506D01*
X127285185Y-84042815D01*
X127188494Y-83963463D01*
X127078180Y-83904498D01*
X126958482Y-83868188D01*
X126834000Y-83855928D01*
X125134000Y-83855928D01*
X125009518Y-83868188D01*
X124889820Y-83904498D01*
X124779506Y-83963463D01*
X124682815Y-84042815D01*
X124603463Y-84139506D01*
X124544498Y-84249820D01*
X124508188Y-84369518D01*
X124495928Y-84494000D01*
X124495928Y-86194000D01*
X124508188Y-86318482D01*
X124544498Y-86438180D01*
X124603463Y-86548494D01*
X124682815Y-86645185D01*
X124779506Y-86724537D01*
X124889820Y-86783502D01*
X124962380Y-86805513D01*
X124830525Y-86937368D01*
X124705822Y-87124000D01*
X123989323Y-87124000D01*
X123952000Y-87120324D01*
X123914677Y-87124000D01*
X123914667Y-87124000D01*
X123803014Y-87134997D01*
X123659753Y-87178454D01*
X123527724Y-87249026D01*
X123411999Y-87343999D01*
X123388201Y-87372997D01*
X122229003Y-88532196D01*
X122199999Y-88555999D01*
X122157526Y-88607753D01*
X122105026Y-88671724D01*
X122037497Y-88798061D01*
X122034454Y-88803754D01*
X121990997Y-88947015D01*
X121980000Y-89058668D01*
X121980000Y-89058678D01*
X121976324Y-89096000D01*
X121980000Y-89133322D01*
X121980001Y-96321821D01*
X121793368Y-96446525D01*
X121661513Y-96578380D01*
X121639502Y-96505820D01*
X121580537Y-96395506D01*
X121501185Y-96298815D01*
X121404494Y-96219463D01*
X121294180Y-96160498D01*
X121174482Y-96124188D01*
X121050000Y-96111928D01*
X119350000Y-96111928D01*
X119225518Y-96124188D01*
X119105820Y-96160498D01*
X118995506Y-96219463D01*
X118898815Y-96298815D01*
X118819463Y-96395506D01*
X118760498Y-96505820D01*
X118724188Y-96625518D01*
X118711928Y-96750000D01*
X118711928Y-98445736D01*
X116360000Y-98427217D01*
X116360000Y-79451890D01*
X116569124Y-79451890D01*
X116613775Y-79599099D01*
X116738959Y-79861920D01*
X116913012Y-80095269D01*
X117129245Y-80290178D01*
X117379348Y-80439157D01*
X117653709Y-80536481D01*
X117883600Y-80415814D01*
X117883600Y-79222000D01*
X118137600Y-79222000D01*
X118137600Y-80415814D01*
X118367491Y-80536481D01*
X118641852Y-80439157D01*
X118891955Y-80290178D01*
X119108188Y-80095269D01*
X119282241Y-79861920D01*
X119407425Y-79599099D01*
X119452076Y-79451890D01*
X119330755Y-79222000D01*
X118137600Y-79222000D01*
X117883600Y-79222000D01*
X116690445Y-79222000D01*
X116569124Y-79451890D01*
X116360000Y-79451890D01*
X116360000Y-77937424D01*
X116456822Y-65060000D01*
X116750619Y-65060000D01*
X116709415Y-65093815D01*
X116630063Y-65190506D01*
X116571098Y-65300820D01*
X116534788Y-65420518D01*
X116522528Y-65545000D01*
X116522528Y-67245000D01*
X116534788Y-67369482D01*
X116571098Y-67489180D01*
X116630063Y-67599494D01*
X116709415Y-67696185D01*
X116806106Y-67775537D01*
X116916420Y-67834502D01*
X116988980Y-67856513D01*
X116857125Y-67988368D01*
X116694610Y-68231589D01*
X116582668Y-68501842D01*
X116525600Y-68788740D01*
X116525600Y-69081260D01*
X116582668Y-69368158D01*
X116694610Y-69638411D01*
X116857125Y-69881632D01*
X117063968Y-70088475D01*
X117238360Y-70205000D01*
X117063968Y-70321525D01*
X116857125Y-70528368D01*
X116694610Y-70771589D01*
X116582668Y-71041842D01*
X116525600Y-71328740D01*
X116525600Y-71621260D01*
X116582668Y-71908158D01*
X116694610Y-72178411D01*
X116857125Y-72421632D01*
X117063968Y-72628475D01*
X117238360Y-72745000D01*
X117063968Y-72861525D01*
X116857125Y-73068368D01*
X116694610Y-73311589D01*
X116582668Y-73581842D01*
X116525600Y-73868740D01*
X116525600Y-74161260D01*
X116582668Y-74448158D01*
X116694610Y-74718411D01*
X116857125Y-74961632D01*
X117063968Y-75168475D01*
X117238360Y-75285000D01*
X117063968Y-75401525D01*
X116857125Y-75608368D01*
X116694610Y-75851589D01*
X116582668Y-76121842D01*
X116525600Y-76408740D01*
X116525600Y-76701260D01*
X116582668Y-76988158D01*
X116694610Y-77258411D01*
X116857125Y-77501632D01*
X117063968Y-77708475D01*
X117246134Y-77830195D01*
X117129245Y-77899822D01*
X116913012Y-78094731D01*
X116738959Y-78328080D01*
X116613775Y-78590901D01*
X116569124Y-78738110D01*
X116690445Y-78968000D01*
X117883600Y-78968000D01*
X117883600Y-78948000D01*
X118137600Y-78948000D01*
X118137600Y-78968000D01*
X119330755Y-78968000D01*
X119452076Y-78738110D01*
X119407425Y-78590901D01*
X119282241Y-78328080D01*
X119108188Y-78094731D01*
X118891955Y-77899822D01*
X118775066Y-77830195D01*
X118957232Y-77708475D01*
X119164075Y-77501632D01*
X119326590Y-77258411D01*
X119438532Y-76988158D01*
X119495600Y-76701260D01*
X119495600Y-76408740D01*
X119438532Y-76121842D01*
X119326590Y-75851589D01*
X119164075Y-75608368D01*
X118957232Y-75401525D01*
X118782840Y-75285000D01*
X118957232Y-75168475D01*
X119164075Y-74961632D01*
X119326590Y-74718411D01*
X119438532Y-74448158D01*
X119495600Y-74161260D01*
X119495600Y-73868740D01*
X119438532Y-73581842D01*
X119326590Y-73311589D01*
X119164075Y-73068368D01*
X118957232Y-72861525D01*
X118782840Y-72745000D01*
X118957232Y-72628475D01*
X119164075Y-72421632D01*
X119288778Y-72235000D01*
X119495678Y-72235000D01*
X119533000Y-72238676D01*
X119570322Y-72235000D01*
X119570333Y-72235000D01*
X119681986Y-72224003D01*
X119825247Y-72180546D01*
X119957276Y-72109974D01*
X120073001Y-72015001D01*
X120096804Y-71985997D01*
X120144997Y-71937804D01*
X120174001Y-71914001D01*
X120268974Y-71798276D01*
X120339546Y-71666247D01*
X120383003Y-71522986D01*
X120394000Y-71411333D01*
X120397677Y-71374000D01*
X120394000Y-71336667D01*
X120394000Y-70764061D01*
X127997000Y-70764061D01*
X127997000Y-70967939D01*
X128036774Y-71167898D01*
X128114795Y-71356256D01*
X128228063Y-71525774D01*
X128372226Y-71669937D01*
X128541744Y-71783205D01*
X128730102Y-71861226D01*
X128930061Y-71901000D01*
X129133939Y-71901000D01*
X129333898Y-71861226D01*
X129522256Y-71783205D01*
X129691774Y-71669937D01*
X129735711Y-71626000D01*
X131630289Y-71626000D01*
X131674226Y-71669937D01*
X131843744Y-71783205D01*
X132032102Y-71861226D01*
X132232061Y-71901000D01*
X132435939Y-71901000D01*
X132635898Y-71861226D01*
X132824256Y-71783205D01*
X132993774Y-71669937D01*
X133137937Y-71525774D01*
X133251205Y-71356256D01*
X133329226Y-71167898D01*
X133369000Y-70967939D01*
X133369000Y-70764061D01*
X133329226Y-70564102D01*
X133251205Y-70375744D01*
X133137937Y-70206226D01*
X132993774Y-70062063D01*
X132824256Y-69948795D01*
X132635898Y-69870774D01*
X132435939Y-69831000D01*
X132232061Y-69831000D01*
X132032102Y-69870774D01*
X131843744Y-69948795D01*
X131674226Y-70062063D01*
X131630289Y-70106000D01*
X129735711Y-70106000D01*
X129691774Y-70062063D01*
X129522256Y-69948795D01*
X129333898Y-69870774D01*
X129133939Y-69831000D01*
X128930061Y-69831000D01*
X128730102Y-69870774D01*
X128541744Y-69948795D01*
X128372226Y-70062063D01*
X128228063Y-70206226D01*
X128114795Y-70375744D01*
X128036774Y-70564102D01*
X127997000Y-70764061D01*
X120394000Y-70764061D01*
X120394000Y-69785211D01*
X123633212Y-66546000D01*
X127345088Y-66546000D01*
X127382410Y-66549676D01*
X127419732Y-66546000D01*
X127419743Y-66546000D01*
X127531396Y-66535003D01*
X127674657Y-66491546D01*
X127806686Y-66420974D01*
X127922411Y-66326001D01*
X127946213Y-66296998D01*
X128014300Y-66228911D01*
X128036774Y-66341898D01*
X128114795Y-66530256D01*
X128228063Y-66699774D01*
X128372226Y-66843937D01*
X128541744Y-66957205D01*
X128730102Y-67035226D01*
X128930061Y-67075000D01*
X129133939Y-67075000D01*
X129333898Y-67035226D01*
X129522256Y-66957205D01*
X129691774Y-66843937D01*
X129735711Y-66800000D01*
X133154289Y-66800000D01*
X133198226Y-66843937D01*
X133367744Y-66957205D01*
X133556102Y-67035226D01*
X133756061Y-67075000D01*
X133959939Y-67075000D01*
X134159898Y-67035226D01*
X134348256Y-66957205D01*
X134517774Y-66843937D01*
X134661937Y-66699774D01*
X134775205Y-66530256D01*
X134853226Y-66341898D01*
X134883030Y-66192061D01*
X135871000Y-66192061D01*
X135871000Y-66395939D01*
X135910774Y-66595898D01*
X135988795Y-66784256D01*
X136102063Y-66953774D01*
X136146001Y-66997712D01*
X136146000Y-71844677D01*
X136142324Y-71882000D01*
X136146000Y-71919322D01*
X136146000Y-71919332D01*
X136156997Y-72030985D01*
X136171728Y-72079546D01*
X136200454Y-72174246D01*
X136271026Y-72306276D01*
X136310871Y-72354826D01*
X136365999Y-72422001D01*
X136395003Y-72445804D01*
X139173000Y-75223802D01*
X139173000Y-75285939D01*
X139212774Y-75485898D01*
X139290795Y-75674256D01*
X139404063Y-75843774D01*
X139548226Y-75987937D01*
X139717744Y-76101205D01*
X139906102Y-76179226D01*
X140106061Y-76219000D01*
X140309939Y-76219000D01*
X140509898Y-76179226D01*
X140698256Y-76101205D01*
X140867774Y-75987937D01*
X141011937Y-75843774D01*
X141125205Y-75674256D01*
X141203226Y-75485898D01*
X141243000Y-75285939D01*
X141243000Y-75082061D01*
X141203226Y-74882102D01*
X141125205Y-74693744D01*
X141011937Y-74524226D01*
X140867774Y-74380063D01*
X140698256Y-74266795D01*
X140509898Y-74188774D01*
X140309939Y-74149000D01*
X140247802Y-74149000D01*
X137666000Y-71567199D01*
X137666000Y-66997711D01*
X137709937Y-66953774D01*
X137823205Y-66784256D01*
X137901226Y-66595898D01*
X137941000Y-66395939D01*
X137941000Y-66192061D01*
X137901226Y-65992102D01*
X137823205Y-65803744D01*
X137709937Y-65634226D01*
X137565774Y-65490063D01*
X137396256Y-65376795D01*
X137207898Y-65298774D01*
X137007939Y-65259000D01*
X136804061Y-65259000D01*
X136604102Y-65298774D01*
X136415744Y-65376795D01*
X136246226Y-65490063D01*
X136102063Y-65634226D01*
X135988795Y-65803744D01*
X135910774Y-65992102D01*
X135871000Y-66192061D01*
X134883030Y-66192061D01*
X134893000Y-66141939D01*
X134893000Y-65938061D01*
X134853226Y-65738102D01*
X134775205Y-65549744D01*
X134661937Y-65380226D01*
X134517774Y-65236063D01*
X134348256Y-65122795D01*
X134159898Y-65044774D01*
X133959939Y-65005000D01*
X133756061Y-65005000D01*
X133556102Y-65044774D01*
X133367744Y-65122795D01*
X133198226Y-65236063D01*
X133154289Y-65280000D01*
X129735711Y-65280000D01*
X129691774Y-65236063D01*
X129522256Y-65122795D01*
X129333898Y-65044774D01*
X129162938Y-65010768D01*
X129171554Y-64994648D01*
X129215011Y-64851388D01*
X129229685Y-64702402D01*
X129226303Y-64668061D01*
X141205000Y-64668061D01*
X141205000Y-64871939D01*
X141244774Y-65071898D01*
X141322795Y-65260256D01*
X141436063Y-65429774D01*
X141480001Y-65473712D01*
X141480000Y-69304677D01*
X141476324Y-69342000D01*
X141480000Y-69379322D01*
X141480000Y-69379332D01*
X141490997Y-69490985D01*
X141529949Y-69619395D01*
X141534454Y-69634246D01*
X141605026Y-69766276D01*
X141644871Y-69814826D01*
X141699999Y-69882001D01*
X141729002Y-69905804D01*
X142221000Y-70397802D01*
X142221000Y-70459939D01*
X142260774Y-70659898D01*
X142338795Y-70848256D01*
X142452063Y-71017774D01*
X142596226Y-71161937D01*
X142765744Y-71275205D01*
X142954102Y-71353226D01*
X143154061Y-71393000D01*
X143357939Y-71393000D01*
X143557898Y-71353226D01*
X143746256Y-71275205D01*
X143915774Y-71161937D01*
X144059937Y-71017774D01*
X144145000Y-70890468D01*
X144230063Y-71017774D01*
X144374226Y-71161937D01*
X144543744Y-71275205D01*
X144732102Y-71353226D01*
X144932061Y-71393000D01*
X145135939Y-71393000D01*
X145335898Y-71353226D01*
X145524256Y-71275205D01*
X145693774Y-71161937D01*
X145837937Y-71017774D01*
X145923000Y-70890468D01*
X146008063Y-71017774D01*
X146152226Y-71161937D01*
X146321744Y-71275205D01*
X146510102Y-71353226D01*
X146710061Y-71393000D01*
X146913939Y-71393000D01*
X147113898Y-71353226D01*
X147302256Y-71275205D01*
X147471774Y-71161937D01*
X147615937Y-71017774D01*
X147729205Y-70848256D01*
X147807226Y-70659898D01*
X147847000Y-70459939D01*
X147847000Y-70256061D01*
X147807226Y-70056102D01*
X147729205Y-69867744D01*
X147615937Y-69698226D01*
X147471774Y-69554063D01*
X147302256Y-69440795D01*
X147113898Y-69362774D01*
X146913939Y-69323000D01*
X146851801Y-69323000D01*
X146810000Y-69281199D01*
X146810000Y-61409711D01*
X146853937Y-61365774D01*
X146967205Y-61196256D01*
X147045226Y-61007898D01*
X147085000Y-60807939D01*
X147085000Y-60604061D01*
X147045226Y-60404102D01*
X146967205Y-60215744D01*
X146853937Y-60046226D01*
X146709774Y-59902063D01*
X146540256Y-59788795D01*
X146351898Y-59710774D01*
X146151939Y-59671000D01*
X145948061Y-59671000D01*
X145748102Y-59710774D01*
X145559744Y-59788795D01*
X145390226Y-59902063D01*
X145246063Y-60046226D01*
X145132795Y-60215744D01*
X145054774Y-60404102D01*
X145015000Y-60604061D01*
X145015000Y-60807939D01*
X145054774Y-61007898D01*
X145132795Y-61196256D01*
X145246063Y-61365774D01*
X145290001Y-61409712D01*
X145290001Y-64328599D01*
X145267226Y-64214102D01*
X145189205Y-64025744D01*
X145075937Y-63856226D01*
X144931774Y-63712063D01*
X144762256Y-63598795D01*
X144573898Y-63520774D01*
X144373939Y-63481000D01*
X144170061Y-63481000D01*
X143970102Y-63520774D01*
X143781744Y-63598795D01*
X143612226Y-63712063D01*
X143468063Y-63856226D01*
X143354795Y-64025744D01*
X143276774Y-64214102D01*
X143237000Y-64414061D01*
X143237000Y-64477021D01*
X143235226Y-64468102D01*
X143157205Y-64279744D01*
X143043937Y-64110226D01*
X142899774Y-63966063D01*
X142730256Y-63852795D01*
X142541898Y-63774774D01*
X142341939Y-63735000D01*
X142138061Y-63735000D01*
X141938102Y-63774774D01*
X141749744Y-63852795D01*
X141580226Y-63966063D01*
X141436063Y-64110226D01*
X141322795Y-64279744D01*
X141244774Y-64468102D01*
X141205000Y-64668061D01*
X129226303Y-64668061D01*
X129226008Y-64665069D01*
X129226009Y-59321159D01*
X129304815Y-59417185D01*
X129401506Y-59496537D01*
X129511820Y-59555502D01*
X129631518Y-59591812D01*
X129756000Y-59604072D01*
X131356000Y-59604072D01*
X131480482Y-59591812D01*
X131600180Y-59555502D01*
X131710494Y-59496537D01*
X131807185Y-59417185D01*
X131886537Y-59320494D01*
X131945502Y-59210180D01*
X131961117Y-59158702D01*
X132242903Y-59158702D01*
X132314486Y-59402671D01*
X132569996Y-59523571D01*
X132844184Y-59592300D01*
X133126512Y-59606217D01*
X133406130Y-59564787D01*
X133672292Y-59469603D01*
X133797514Y-59402671D01*
X133869097Y-59158702D01*
X133056000Y-58345605D01*
X132242903Y-59158702D01*
X131961117Y-59158702D01*
X131981812Y-59090482D01*
X131994072Y-58966000D01*
X131994072Y-58958785D01*
X132063298Y-58979097D01*
X132876395Y-58166000D01*
X133235605Y-58166000D01*
X134048702Y-58979097D01*
X134292671Y-58907514D01*
X134413571Y-58652004D01*
X134482300Y-58377816D01*
X134496217Y-58095488D01*
X134454787Y-57815870D01*
X134359603Y-57549708D01*
X134292671Y-57424486D01*
X134048702Y-57352903D01*
X133235605Y-58166000D01*
X132876395Y-58166000D01*
X132063298Y-57352903D01*
X131994072Y-57373215D01*
X131994072Y-57366000D01*
X131981812Y-57241518D01*
X131961118Y-57173298D01*
X132242903Y-57173298D01*
X133056000Y-57986395D01*
X133869097Y-57173298D01*
X133797514Y-56929329D01*
X133542004Y-56808429D01*
X133267816Y-56739700D01*
X132985488Y-56725783D01*
X132705870Y-56767213D01*
X132439708Y-56862397D01*
X132314486Y-56929329D01*
X132242903Y-57173298D01*
X131961118Y-57173298D01*
X131945502Y-57121820D01*
X131886537Y-57011506D01*
X131807185Y-56914815D01*
X131710494Y-56835463D01*
X131600180Y-56776498D01*
X131480482Y-56740188D01*
X131356000Y-56727928D01*
X129756000Y-56727928D01*
X129631518Y-56740188D01*
X129511820Y-56776498D01*
X129401506Y-56835463D01*
X129304815Y-56914815D01*
X129226009Y-57010840D01*
X129226010Y-54728791D01*
X129346802Y-54608000D01*
X152668182Y-54608000D01*
X152792281Y-54694980D01*
X152808774Y-54777898D01*
X152886795Y-54966256D01*
X153000063Y-55135774D01*
X153144226Y-55279937D01*
X153313744Y-55393205D01*
X153502102Y-55471226D01*
X153702061Y-55511000D01*
X153905939Y-55511000D01*
X154105898Y-55471226D01*
X154294256Y-55393205D01*
X154463774Y-55279937D01*
X154607937Y-55135774D01*
X154721205Y-54966256D01*
X154799226Y-54777898D01*
X154839000Y-54577939D01*
X154839000Y-54374061D01*
X154799226Y-54174102D01*
X154727286Y-54000425D01*
X154727937Y-53999774D01*
X154841205Y-53830256D01*
X154919226Y-53641898D01*
X154959000Y-53441939D01*
X154959000Y-53238061D01*
X154919226Y-53038102D01*
X154841205Y-52849744D01*
X154727937Y-52680226D01*
X154583774Y-52536063D01*
X154414256Y-52422795D01*
X154225898Y-52344774D01*
X154025939Y-52305000D01*
X153822061Y-52305000D01*
X153622102Y-52344774D01*
X153433744Y-52422795D01*
X153264226Y-52536063D01*
X153220289Y-52580000D01*
X128815325Y-52580000D01*
X128778000Y-52576324D01*
X128740675Y-52580000D01*
X128740667Y-52580000D01*
X128629014Y-52590997D01*
X128485753Y-52634454D01*
X128353724Y-52705026D01*
X128237999Y-52799999D01*
X128214201Y-52828998D01*
X127760000Y-53283199D01*
X127760000Y-49060000D01*
X153580515Y-49060000D01*
X153433744Y-49120795D01*
G37*
%TD.AperFunction*%
%TD*%
M02*
