%TF.GenerationSoftware,KiCad,Pcbnew,5.1.9+dfsg1-1*%
%TF.CreationDate,2021-05-25T15:32:43+02:00*%
%TF.ProjectId,vscp-din-wireless-esp32-can,76736370-2d64-4696-9e2d-776972656c65,rev?*%
%TF.SameCoordinates,Original*%
%TF.FileFunction,Legend,Bot*%
%TF.FilePolarity,Positive*%
%FSLAX46Y46*%
G04 Gerber Fmt 4.6, Leading zero omitted, Abs format (unit mm)*
G04 Created by KiCad (PCBNEW 5.1.9+dfsg1-1) date 2021-05-25 15:32:43*
%MOMM*%
%LPD*%
G01*
G04 APERTURE LIST*
%ADD10C,0.300000*%
G04 APERTURE END LIST*
D10*
X158224857Y-79509000D02*
X158367714Y-79437571D01*
X158582000Y-79437571D01*
X158796285Y-79509000D01*
X158939142Y-79651857D01*
X159010571Y-79794714D01*
X159082000Y-80080428D01*
X159082000Y-80294714D01*
X159010571Y-80580428D01*
X158939142Y-80723285D01*
X158796285Y-80866142D01*
X158582000Y-80937571D01*
X158439142Y-80937571D01*
X158224857Y-80866142D01*
X158153428Y-80794714D01*
X158153428Y-80294714D01*
X158439142Y-80294714D01*
X157510571Y-80937571D02*
X157510571Y-79937571D01*
X157510571Y-80223285D02*
X157439142Y-80080428D01*
X157367714Y-80009000D01*
X157224857Y-79937571D01*
X157082000Y-79937571D01*
X156367714Y-80937571D02*
X156510571Y-80866142D01*
X156582000Y-80794714D01*
X156653428Y-80651857D01*
X156653428Y-80223285D01*
X156582000Y-80080428D01*
X156510571Y-80009000D01*
X156367714Y-79937571D01*
X156153428Y-79937571D01*
X156010571Y-80009000D01*
X155939142Y-80080428D01*
X155867714Y-80223285D01*
X155867714Y-80651857D01*
X155939142Y-80794714D01*
X156010571Y-80866142D01*
X156153428Y-80937571D01*
X156367714Y-80937571D01*
X154582000Y-80937571D02*
X154582000Y-79437571D01*
X154582000Y-80866142D02*
X154724857Y-80937571D01*
X155010571Y-80937571D01*
X155153428Y-80866142D01*
X155224857Y-80794714D01*
X155296285Y-80651857D01*
X155296285Y-80223285D01*
X155224857Y-80080428D01*
X155153428Y-80009000D01*
X155010571Y-79937571D01*
X154724857Y-79937571D01*
X154582000Y-80009000D01*
X153224857Y-80937571D02*
X153224857Y-80151857D01*
X153296285Y-80009000D01*
X153439142Y-79937571D01*
X153724857Y-79937571D01*
X153867714Y-80009000D01*
X153224857Y-80866142D02*
X153367714Y-80937571D01*
X153724857Y-80937571D01*
X153867714Y-80866142D01*
X153939142Y-80723285D01*
X153939142Y-80580428D01*
X153867714Y-80437571D01*
X153724857Y-80366142D01*
X153367714Y-80366142D01*
X153224857Y-80294714D01*
X152510571Y-79937571D02*
X152510571Y-80937571D01*
X152510571Y-80080428D02*
X152439142Y-80009000D01*
X152296285Y-79937571D01*
X152082000Y-79937571D01*
X151939142Y-80009000D01*
X151867714Y-80151857D01*
X151867714Y-80937571D01*
X151224857Y-80866142D02*
X151082000Y-80937571D01*
X150796285Y-80937571D01*
X150653428Y-80866142D01*
X150582000Y-80723285D01*
X150582000Y-80651857D01*
X150653428Y-80509000D01*
X150796285Y-80437571D01*
X151010571Y-80437571D01*
X151153428Y-80366142D01*
X151224857Y-80223285D01*
X151224857Y-80151857D01*
X151153428Y-80009000D01*
X151010571Y-79937571D01*
X150796285Y-79937571D01*
X150653428Y-80009000D01*
X148796285Y-80937571D02*
X148796285Y-79437571D01*
X148224857Y-79437571D01*
X148082000Y-79509000D01*
X148010571Y-79580428D01*
X147939142Y-79723285D01*
X147939142Y-79937571D01*
X148010571Y-80080428D01*
X148082000Y-80151857D01*
X148224857Y-80223285D01*
X148796285Y-80223285D01*
X146653428Y-80937571D02*
X146653428Y-80151857D01*
X146724857Y-80009000D01*
X146867714Y-79937571D01*
X147153428Y-79937571D01*
X147296285Y-80009000D01*
X146653428Y-80866142D02*
X146796285Y-80937571D01*
X147153428Y-80937571D01*
X147296285Y-80866142D01*
X147367714Y-80723285D01*
X147367714Y-80580428D01*
X147296285Y-80437571D01*
X147153428Y-80366142D01*
X146796285Y-80366142D01*
X146653428Y-80294714D01*
X145939142Y-80937571D02*
X145939142Y-79937571D01*
X145939142Y-80223285D02*
X145867714Y-80080428D01*
X145796285Y-80009000D01*
X145653428Y-79937571D01*
X145510571Y-79937571D01*
X144367714Y-80937571D02*
X144367714Y-80151857D01*
X144439142Y-80009000D01*
X144582000Y-79937571D01*
X144867714Y-79937571D01*
X145010571Y-80009000D01*
X144367714Y-80866142D02*
X144510571Y-80937571D01*
X144867714Y-80937571D01*
X145010571Y-80866142D01*
X145082000Y-80723285D01*
X145082000Y-80580428D01*
X145010571Y-80437571D01*
X144867714Y-80366142D01*
X144510571Y-80366142D01*
X144367714Y-80294714D01*
X143010571Y-80937571D02*
X143010571Y-79437571D01*
X143010571Y-80866142D02*
X143153428Y-80937571D01*
X143439142Y-80937571D01*
X143582000Y-80866142D01*
X143653428Y-80794714D01*
X143724857Y-80651857D01*
X143724857Y-80223285D01*
X143653428Y-80080428D01*
X143582000Y-80009000D01*
X143439142Y-79937571D01*
X143153428Y-79937571D01*
X143010571Y-80009000D01*
X142296285Y-80937571D02*
X142296285Y-79937571D01*
X142296285Y-79437571D02*
X142367714Y-79509000D01*
X142296285Y-79580428D01*
X142224857Y-79509000D01*
X142296285Y-79437571D01*
X142296285Y-79580428D01*
X141653428Y-80866142D02*
X141510571Y-80937571D01*
X141224857Y-80937571D01*
X141081999Y-80866142D01*
X141010571Y-80723285D01*
X141010571Y-80651857D01*
X141081999Y-80509000D01*
X141224857Y-80437571D01*
X141439142Y-80437571D01*
X141581999Y-80366142D01*
X141653428Y-80223285D01*
X141653428Y-80151857D01*
X141581999Y-80009000D01*
X141439142Y-79937571D01*
X141224857Y-79937571D01*
X141081999Y-80009000D01*
X139296285Y-80509000D02*
X138581999Y-80509000D01*
X139439142Y-80937571D02*
X138939142Y-79437571D01*
X138439142Y-80937571D01*
X137439142Y-80151857D02*
X137224857Y-80223285D01*
X137153428Y-80294714D01*
X137081999Y-80437571D01*
X137081999Y-80651857D01*
X137153428Y-80794714D01*
X137224857Y-80866142D01*
X137367714Y-80937571D01*
X137939142Y-80937571D01*
X137939142Y-79437571D01*
X137439142Y-79437571D01*
X137296285Y-79509000D01*
X137224857Y-79580428D01*
X137153428Y-79723285D01*
X137153428Y-79866142D01*
X137224857Y-80009000D01*
X137296285Y-80080428D01*
X137439142Y-80151857D01*
X137939142Y-80151857D01*
X166474857Y-83487571D02*
X166474857Y-81987571D01*
X165832000Y-83487571D02*
X165832000Y-82701857D01*
X165903428Y-82559000D01*
X166046285Y-82487571D01*
X166260571Y-82487571D01*
X166403428Y-82559000D01*
X166474857Y-82630428D01*
X165332000Y-82487571D02*
X164760571Y-82487571D01*
X165117714Y-81987571D02*
X165117714Y-83273285D01*
X165046285Y-83416142D01*
X164903428Y-83487571D01*
X164760571Y-83487571D01*
X164474857Y-82487571D02*
X163903428Y-82487571D01*
X164260571Y-81987571D02*
X164260571Y-83273285D01*
X164189142Y-83416142D01*
X164046285Y-83487571D01*
X163903428Y-83487571D01*
X163403428Y-82487571D02*
X163403428Y-83987571D01*
X163403428Y-82559000D02*
X163260571Y-82487571D01*
X162974857Y-82487571D01*
X162832000Y-82559000D01*
X162760571Y-82630428D01*
X162689142Y-82773285D01*
X162689142Y-83201857D01*
X162760571Y-83344714D01*
X162832000Y-83416142D01*
X162974857Y-83487571D01*
X163260571Y-83487571D01*
X163403428Y-83416142D01*
X162117714Y-83416142D02*
X161974857Y-83487571D01*
X161689142Y-83487571D01*
X161546285Y-83416142D01*
X161474857Y-83273285D01*
X161474857Y-83201857D01*
X161546285Y-83059000D01*
X161689142Y-82987571D01*
X161903428Y-82987571D01*
X162046285Y-82916142D01*
X162117714Y-82773285D01*
X162117714Y-82701857D01*
X162046285Y-82559000D01*
X161903428Y-82487571D01*
X161689142Y-82487571D01*
X161546285Y-82559000D01*
X160832000Y-83344714D02*
X160760571Y-83416142D01*
X160832000Y-83487571D01*
X160903428Y-83416142D01*
X160832000Y-83344714D01*
X160832000Y-83487571D01*
X160832000Y-82559000D02*
X160760571Y-82630428D01*
X160832000Y-82701857D01*
X160903428Y-82630428D01*
X160832000Y-82559000D01*
X160832000Y-82701857D01*
X159046285Y-81916142D02*
X160332000Y-83844714D01*
X157474857Y-81916142D02*
X158760571Y-83844714D01*
X157117714Y-82487571D02*
X156832000Y-83487571D01*
X156546285Y-82773285D01*
X156260571Y-83487571D01*
X155974857Y-82487571D01*
X155546285Y-82487571D02*
X155260571Y-83487571D01*
X154974857Y-82773285D01*
X154689142Y-83487571D01*
X154403428Y-82487571D01*
X153974857Y-82487571D02*
X153689142Y-83487571D01*
X153403428Y-82773285D01*
X153117714Y-83487571D01*
X152832000Y-82487571D01*
X152260571Y-83344714D02*
X152189142Y-83416142D01*
X152260571Y-83487571D01*
X152332000Y-83416142D01*
X152260571Y-83344714D01*
X152260571Y-83487571D01*
X150903428Y-82487571D02*
X150903428Y-83701857D01*
X150974857Y-83844714D01*
X151046285Y-83916142D01*
X151189142Y-83987571D01*
X151403428Y-83987571D01*
X151546285Y-83916142D01*
X150903428Y-83416142D02*
X151046285Y-83487571D01*
X151332000Y-83487571D01*
X151474857Y-83416142D01*
X151546285Y-83344714D01*
X151617714Y-83201857D01*
X151617714Y-82773285D01*
X151546285Y-82630428D01*
X151474857Y-82559000D01*
X151332000Y-82487571D01*
X151046285Y-82487571D01*
X150903428Y-82559000D01*
X150189142Y-83487571D02*
X150189142Y-82487571D01*
X150189142Y-82773285D02*
X150117714Y-82630428D01*
X150046285Y-82559000D01*
X149903428Y-82487571D01*
X149760571Y-82487571D01*
X149046285Y-83487571D02*
X149189142Y-83416142D01*
X149260571Y-83344714D01*
X149332000Y-83201857D01*
X149332000Y-82773285D01*
X149260571Y-82630428D01*
X149189142Y-82559000D01*
X149046285Y-82487571D01*
X148832000Y-82487571D01*
X148689142Y-82559000D01*
X148617714Y-82630428D01*
X148546285Y-82773285D01*
X148546285Y-83201857D01*
X148617714Y-83344714D01*
X148689142Y-83416142D01*
X148832000Y-83487571D01*
X149046285Y-83487571D01*
X147260571Y-83487571D02*
X147260571Y-81987571D01*
X147260571Y-83416142D02*
X147403428Y-83487571D01*
X147689142Y-83487571D01*
X147832000Y-83416142D01*
X147903428Y-83344714D01*
X147974857Y-83201857D01*
X147974857Y-82773285D01*
X147903428Y-82630428D01*
X147832000Y-82559000D01*
X147689142Y-82487571D01*
X147403428Y-82487571D01*
X147260571Y-82559000D01*
X145903428Y-83487571D02*
X145903428Y-82701857D01*
X145974857Y-82559000D01*
X146117714Y-82487571D01*
X146403428Y-82487571D01*
X146546285Y-82559000D01*
X145903428Y-83416142D02*
X146046285Y-83487571D01*
X146403428Y-83487571D01*
X146546285Y-83416142D01*
X146617714Y-83273285D01*
X146617714Y-83130428D01*
X146546285Y-82987571D01*
X146403428Y-82916142D01*
X146046285Y-82916142D01*
X145903428Y-82844714D01*
X145189142Y-82487571D02*
X145189142Y-83487571D01*
X145189142Y-82630428D02*
X145117714Y-82559000D01*
X144974857Y-82487571D01*
X144760571Y-82487571D01*
X144617714Y-82559000D01*
X144546285Y-82701857D01*
X144546285Y-83487571D01*
X143903428Y-83416142D02*
X143760571Y-83487571D01*
X143474857Y-83487571D01*
X143332000Y-83416142D01*
X143260571Y-83273285D01*
X143260571Y-83201857D01*
X143332000Y-83059000D01*
X143474857Y-82987571D01*
X143689142Y-82987571D01*
X143832000Y-82916142D01*
X143903428Y-82773285D01*
X143903428Y-82701857D01*
X143832000Y-82559000D01*
X143689142Y-82487571D01*
X143474857Y-82487571D01*
X143332000Y-82559000D01*
X142617714Y-82487571D02*
X142617714Y-83987571D01*
X142617714Y-82559000D02*
X142474857Y-82487571D01*
X142189142Y-82487571D01*
X142046285Y-82559000D01*
X141974857Y-82630428D01*
X141903428Y-82773285D01*
X141903428Y-83201857D01*
X141974857Y-83344714D01*
X142046285Y-83416142D01*
X142189142Y-83487571D01*
X142474857Y-83487571D01*
X142617714Y-83416142D01*
X140617714Y-83487571D02*
X140617714Y-82701857D01*
X140689142Y-82559000D01*
X140832000Y-82487571D01*
X141117714Y-82487571D01*
X141260571Y-82559000D01*
X140617714Y-83416142D02*
X140760571Y-83487571D01*
X141117714Y-83487571D01*
X141260571Y-83416142D01*
X141332000Y-83273285D01*
X141332000Y-83130428D01*
X141260571Y-82987571D01*
X141117714Y-82916142D01*
X140760571Y-82916142D01*
X140617714Y-82844714D01*
X139903428Y-83487571D02*
X139903428Y-82487571D01*
X139903428Y-82773285D02*
X139832000Y-82630428D01*
X139760571Y-82559000D01*
X139617714Y-82487571D01*
X139474857Y-82487571D01*
X138332000Y-83487571D02*
X138332000Y-82701857D01*
X138403428Y-82559000D01*
X138546285Y-82487571D01*
X138832000Y-82487571D01*
X138974857Y-82559000D01*
X138332000Y-83416142D02*
X138474857Y-83487571D01*
X138832000Y-83487571D01*
X138974857Y-83416142D01*
X139046285Y-83273285D01*
X139046285Y-83130428D01*
X138974857Y-82987571D01*
X138832000Y-82916142D01*
X138474857Y-82916142D01*
X138332000Y-82844714D01*
X136974857Y-83487571D02*
X136974857Y-81987571D01*
X136974857Y-83416142D02*
X137117714Y-83487571D01*
X137403428Y-83487571D01*
X137546285Y-83416142D01*
X137617714Y-83344714D01*
X137689142Y-83201857D01*
X137689142Y-82773285D01*
X137617714Y-82630428D01*
X137546285Y-82559000D01*
X137403428Y-82487571D01*
X137117714Y-82487571D01*
X136974857Y-82559000D01*
X136260571Y-83487571D02*
X136260571Y-82487571D01*
X136260571Y-81987571D02*
X136332000Y-82059000D01*
X136260571Y-82130428D01*
X136189142Y-82059000D01*
X136260571Y-81987571D01*
X136260571Y-82130428D01*
X135617714Y-83416142D02*
X135474857Y-83487571D01*
X135189142Y-83487571D01*
X135046285Y-83416142D01*
X134974857Y-83273285D01*
X134974857Y-83201857D01*
X135046285Y-83059000D01*
X135189142Y-82987571D01*
X135403428Y-82987571D01*
X135546285Y-82916142D01*
X135617714Y-82773285D01*
X135617714Y-82701857D01*
X135546285Y-82559000D01*
X135403428Y-82487571D01*
X135189142Y-82487571D01*
X135046285Y-82559000D01*
X134332000Y-83344714D02*
X134260571Y-83416142D01*
X134332000Y-83487571D01*
X134403428Y-83416142D01*
X134332000Y-83344714D01*
X134332000Y-83487571D01*
X132974857Y-83416142D02*
X133117714Y-83487571D01*
X133403428Y-83487571D01*
X133546285Y-83416142D01*
X133617714Y-83344714D01*
X133689142Y-83201857D01*
X133689142Y-82773285D01*
X133617714Y-82630428D01*
X133546285Y-82559000D01*
X133403428Y-82487571D01*
X133117714Y-82487571D01*
X132974857Y-82559000D01*
X132117714Y-83487571D02*
X132260571Y-83416142D01*
X132332000Y-83344714D01*
X132403428Y-83201857D01*
X132403428Y-82773285D01*
X132332000Y-82630428D01*
X132260571Y-82559000D01*
X132117714Y-82487571D01*
X131903428Y-82487571D01*
X131760571Y-82559000D01*
X131689142Y-82630428D01*
X131617714Y-82773285D01*
X131617714Y-83201857D01*
X131689142Y-83344714D01*
X131760571Y-83416142D01*
X131903428Y-83487571D01*
X132117714Y-83487571D01*
X130974857Y-83487571D02*
X130974857Y-82487571D01*
X130974857Y-82630428D02*
X130903428Y-82559000D01*
X130760571Y-82487571D01*
X130546285Y-82487571D01*
X130403428Y-82559000D01*
X130332000Y-82701857D01*
X130332000Y-83487571D01*
X130332000Y-82701857D02*
X130260571Y-82559000D01*
X130117714Y-82487571D01*
X129903428Y-82487571D01*
X129760571Y-82559000D01*
X129689142Y-82701857D01*
X129689142Y-83487571D01*
M02*
