%FSLAX45Y45*%
G04 Gerber Fmt 4.5, Leading zero omitted, Abs format (unit mm)*
G04 Created by KiCad (PCBNEW 5.1.9+dfsg1-1) date 2021-05-25 15:20:50*
%MOMM*%
%LPD*%
G01*
G04 APERTURE LIST*
%TA.AperFunction,Profile*%
%ADD10C,0.050000*%
%TD*%
%ADD11C,0.200000*%
%ADD12C,0.300000*%
G04 APERTURE END LIST*
D10*
X16910000Y-6440000D02*
X16910000Y-4840000D01*
X12710000Y-6440000D02*
X11570000Y-6440000D01*
X12710000Y-4840000D02*
X12710000Y-6440000D01*
X11570000Y-6440000D02*
X11570000Y-9940000D01*
X18050000Y-6440000D02*
X16910000Y-6440000D01*
X18050000Y-9940000D02*
X18050000Y-6440000D01*
X11570000Y-9940000D02*
X18050000Y-9940000D01*
X16910000Y-4840000D02*
X12710000Y-4840000D01*
D11*
D12*
X11853928Y-10408214D02*
X11853928Y-10108214D01*
X11925357Y-10108214D01*
X11968214Y-10122500D01*
X11996786Y-10151072D01*
X12011071Y-10179643D01*
X12025357Y-10236786D01*
X12025357Y-10279643D01*
X12011071Y-10336786D01*
X11996786Y-10365357D01*
X11968214Y-10393929D01*
X11925357Y-10408214D01*
X11853928Y-10408214D01*
X12153928Y-10408214D02*
X12153928Y-10208214D01*
X12153928Y-10265357D02*
X12168214Y-10236786D01*
X12182500Y-10222500D01*
X12211071Y-10208214D01*
X12239643Y-10208214D01*
X12339643Y-10408214D02*
X12339643Y-10208214D01*
X12339643Y-10108214D02*
X12325357Y-10122500D01*
X12339643Y-10136786D01*
X12353928Y-10122500D01*
X12339643Y-10108214D01*
X12339643Y-10136786D01*
X12525357Y-10408214D02*
X12496786Y-10393929D01*
X12482500Y-10365357D01*
X12482500Y-10108214D01*
X12682500Y-10408214D02*
X12653928Y-10393929D01*
X12639643Y-10365357D01*
X12639643Y-10108214D01*
X13025357Y-10408214D02*
X13025357Y-10108214D01*
X13125357Y-10322500D01*
X13225357Y-10108214D01*
X13225357Y-10408214D01*
X13496786Y-10408214D02*
X13496786Y-10251072D01*
X13482500Y-10222500D01*
X13453928Y-10208214D01*
X13396786Y-10208214D01*
X13368214Y-10222500D01*
X13496786Y-10393929D02*
X13468214Y-10408214D01*
X13396786Y-10408214D01*
X13368214Y-10393929D01*
X13353928Y-10365357D01*
X13353928Y-10336786D01*
X13368214Y-10308214D01*
X13396786Y-10293929D01*
X13468214Y-10293929D01*
X13496786Y-10279643D01*
X13639643Y-10208214D02*
X13639643Y-10508214D01*
X13639643Y-10222500D02*
X13668214Y-10208214D01*
X13725357Y-10208214D01*
X13753928Y-10222500D01*
X13768214Y-10236786D01*
X13782500Y-10265357D01*
X13782500Y-10351072D01*
X13768214Y-10379643D01*
X13753928Y-10393929D01*
X13725357Y-10408214D01*
X13668214Y-10408214D01*
X13639643Y-10393929D01*
X13911071Y-10379643D02*
X13925357Y-10393929D01*
X13911071Y-10408214D01*
X13896786Y-10393929D01*
X13911071Y-10379643D01*
X13911071Y-10408214D01*
X13911071Y-10222500D02*
X13925357Y-10236786D01*
X13911071Y-10251072D01*
X13896786Y-10236786D01*
X13911071Y-10222500D01*
X13911071Y-10251072D01*
M02*
