%TF.GenerationSoftware,KiCad,Pcbnew,5.1.9+dfsg1-1*%
%TF.CreationDate,2021-05-25T15:32:43+02:00*%
%TF.ProjectId,vscp-din-wireless-esp32-can,76736370-2d64-4696-9e2d-776972656c65,rev?*%
%TF.SameCoordinates,Original*%
%TF.FileFunction,Legend,Top*%
%TF.FilePolarity,Positive*%
%FSLAX46Y46*%
G04 Gerber Fmt 4.6, Leading zero omitted, Abs format (unit mm)*
G04 Created by KiCad (PCBNEW 5.1.9+dfsg1-1) date 2021-05-25 15:32:43*
%MOMM*%
%LPD*%
G01*
G04 APERTURE LIST*
%ADD10C,0.300000*%
%ADD11C,0.120000*%
%ADD12C,0.010000*%
%ADD13C,0.150000*%
G04 APERTURE END LIST*
D10*
X130867714Y-92645571D02*
X131367714Y-94145571D01*
X131867714Y-92645571D01*
X132296285Y-94074142D02*
X132510571Y-94145571D01*
X132867714Y-94145571D01*
X133010571Y-94074142D01*
X133081999Y-94002714D01*
X133153428Y-93859857D01*
X133153428Y-93717000D01*
X133081999Y-93574142D01*
X133010571Y-93502714D01*
X132867714Y-93431285D01*
X132581999Y-93359857D01*
X132439142Y-93288428D01*
X132367714Y-93217000D01*
X132296285Y-93074142D01*
X132296285Y-92931285D01*
X132367714Y-92788428D01*
X132439142Y-92717000D01*
X132581999Y-92645571D01*
X132939142Y-92645571D01*
X133153428Y-92717000D01*
X134653428Y-94002714D02*
X134582000Y-94074142D01*
X134367714Y-94145571D01*
X134224857Y-94145571D01*
X134010571Y-94074142D01*
X133867714Y-93931285D01*
X133796285Y-93788428D01*
X133724857Y-93502714D01*
X133724857Y-93288428D01*
X133796285Y-93002714D01*
X133867714Y-92859857D01*
X134010571Y-92717000D01*
X134224857Y-92645571D01*
X134367714Y-92645571D01*
X134582000Y-92717000D01*
X134653428Y-92788428D01*
X135296285Y-94145571D02*
X135296285Y-92645571D01*
X135867714Y-92645571D01*
X136010571Y-92717000D01*
X136082000Y-92788428D01*
X136153428Y-92931285D01*
X136153428Y-93145571D01*
X136082000Y-93288428D01*
X136010571Y-93359857D01*
X135867714Y-93431285D01*
X135296285Y-93431285D01*
X137939142Y-94145571D02*
X137939142Y-92645571D01*
X138296285Y-92645571D01*
X138510571Y-92717000D01*
X138653428Y-92859857D01*
X138724857Y-93002714D01*
X138796285Y-93288428D01*
X138796285Y-93502714D01*
X138724857Y-93788428D01*
X138653428Y-93931285D01*
X138510571Y-94074142D01*
X138296285Y-94145571D01*
X137939142Y-94145571D01*
X139439142Y-94145571D02*
X139439142Y-92645571D01*
X140153428Y-94145571D02*
X140153428Y-92645571D01*
X141010571Y-94145571D01*
X141010571Y-92645571D01*
X142724857Y-92645571D02*
X143082000Y-94145571D01*
X143367714Y-93074142D01*
X143653428Y-94145571D01*
X144010571Y-92645571D01*
X144582000Y-94145571D02*
X144582000Y-93145571D01*
X144582000Y-92645571D02*
X144510571Y-92717000D01*
X144582000Y-92788428D01*
X144653428Y-92717000D01*
X144582000Y-92645571D01*
X144582000Y-92788428D01*
X145296285Y-94145571D02*
X145296285Y-93145571D01*
X145296285Y-93431285D02*
X145367714Y-93288428D01*
X145439142Y-93217000D01*
X145582000Y-93145571D01*
X145724857Y-93145571D01*
X146796285Y-94074142D02*
X146653428Y-94145571D01*
X146367714Y-94145571D01*
X146224857Y-94074142D01*
X146153428Y-93931285D01*
X146153428Y-93359857D01*
X146224857Y-93217000D01*
X146367714Y-93145571D01*
X146653428Y-93145571D01*
X146796285Y-93217000D01*
X146867714Y-93359857D01*
X146867714Y-93502714D01*
X146153428Y-93645571D01*
X147724857Y-94145571D02*
X147582000Y-94074142D01*
X147510571Y-93931285D01*
X147510571Y-92645571D01*
X148867714Y-94074142D02*
X148724857Y-94145571D01*
X148439142Y-94145571D01*
X148296285Y-94074142D01*
X148224857Y-93931285D01*
X148224857Y-93359857D01*
X148296285Y-93217000D01*
X148439142Y-93145571D01*
X148724857Y-93145571D01*
X148867714Y-93217000D01*
X148939142Y-93359857D01*
X148939142Y-93502714D01*
X148224857Y-93645571D01*
X149510571Y-94074142D02*
X149653428Y-94145571D01*
X149939142Y-94145571D01*
X150082000Y-94074142D01*
X150153428Y-93931285D01*
X150153428Y-93859857D01*
X150082000Y-93717000D01*
X149939142Y-93645571D01*
X149724857Y-93645571D01*
X149582000Y-93574142D01*
X149510571Y-93431285D01*
X149510571Y-93359857D01*
X149582000Y-93217000D01*
X149724857Y-93145571D01*
X149939142Y-93145571D01*
X150082000Y-93217000D01*
X150724857Y-94074142D02*
X150867714Y-94145571D01*
X151153428Y-94145571D01*
X151296285Y-94074142D01*
X151367714Y-93931285D01*
X151367714Y-93859857D01*
X151296285Y-93717000D01*
X151153428Y-93645571D01*
X150939142Y-93645571D01*
X150796285Y-93574142D01*
X150724857Y-93431285D01*
X150724857Y-93359857D01*
X150796285Y-93217000D01*
X150939142Y-93145571D01*
X151153428Y-93145571D01*
X151296285Y-93217000D01*
X153153428Y-93359857D02*
X153653428Y-93359857D01*
X153867714Y-94145571D02*
X153153428Y-94145571D01*
X153153428Y-92645571D01*
X153867714Y-92645571D01*
X154439142Y-94074142D02*
X154653428Y-94145571D01*
X155010571Y-94145571D01*
X155153428Y-94074142D01*
X155224857Y-94002714D01*
X155296285Y-93859857D01*
X155296285Y-93717000D01*
X155224857Y-93574142D01*
X155153428Y-93502714D01*
X155010571Y-93431285D01*
X154724857Y-93359857D01*
X154582000Y-93288428D01*
X154510571Y-93217000D01*
X154439142Y-93074142D01*
X154439142Y-92931285D01*
X154510571Y-92788428D01*
X154582000Y-92717000D01*
X154724857Y-92645571D01*
X155082000Y-92645571D01*
X155296285Y-92717000D01*
X155939142Y-94145571D02*
X155939142Y-92645571D01*
X156510571Y-92645571D01*
X156653428Y-92717000D01*
X156724857Y-92788428D01*
X156796285Y-92931285D01*
X156796285Y-93145571D01*
X156724857Y-93288428D01*
X156653428Y-93359857D01*
X156510571Y-93431285D01*
X155939142Y-93431285D01*
X157296285Y-92645571D02*
X158224857Y-92645571D01*
X157724857Y-93217000D01*
X157939142Y-93217000D01*
X158082000Y-93288428D01*
X158153428Y-93359857D01*
X158224857Y-93502714D01*
X158224857Y-93859857D01*
X158153428Y-94002714D01*
X158082000Y-94074142D01*
X157939142Y-94145571D01*
X157510571Y-94145571D01*
X157367714Y-94074142D01*
X157296285Y-94002714D01*
X158796285Y-92788428D02*
X158867714Y-92717000D01*
X159010571Y-92645571D01*
X159367714Y-92645571D01*
X159510571Y-92717000D01*
X159582000Y-92788428D01*
X159653428Y-92931285D01*
X159653428Y-93074142D01*
X159582000Y-93288428D01*
X158724857Y-94145571D01*
X159653428Y-94145571D01*
X162296285Y-94002714D02*
X162224857Y-94074142D01*
X162010571Y-94145571D01*
X161867714Y-94145571D01*
X161653428Y-94074142D01*
X161510571Y-93931285D01*
X161439142Y-93788428D01*
X161367714Y-93502714D01*
X161367714Y-93288428D01*
X161439142Y-93002714D01*
X161510571Y-92859857D01*
X161653428Y-92717000D01*
X161867714Y-92645571D01*
X162010571Y-92645571D01*
X162224857Y-92717000D01*
X162296285Y-92788428D01*
X162867714Y-93717000D02*
X163582000Y-93717000D01*
X162724857Y-94145571D02*
X163224857Y-92645571D01*
X163724857Y-94145571D01*
X164224857Y-94145571D02*
X164224857Y-92645571D01*
X165082000Y-94145571D01*
X165082000Y-92645571D01*
X146117714Y-96695571D02*
X145617714Y-95981285D01*
X145260571Y-96695571D02*
X145260571Y-95195571D01*
X145832000Y-95195571D01*
X145974857Y-95267000D01*
X146046285Y-95338428D01*
X146117714Y-95481285D01*
X146117714Y-95695571D01*
X146046285Y-95838428D01*
X145974857Y-95909857D01*
X145832000Y-95981285D01*
X145260571Y-95981285D01*
X147332000Y-96624142D02*
X147189142Y-96695571D01*
X146903428Y-96695571D01*
X146760571Y-96624142D01*
X146689142Y-96481285D01*
X146689142Y-95909857D01*
X146760571Y-95767000D01*
X146903428Y-95695571D01*
X147189142Y-95695571D01*
X147332000Y-95767000D01*
X147403428Y-95909857D01*
X147403428Y-96052714D01*
X146689142Y-96195571D01*
X147903428Y-95695571D02*
X148260571Y-96695571D01*
X148617714Y-95695571D01*
X150260571Y-96267000D02*
X150974857Y-96267000D01*
X150117714Y-96695571D02*
X150617714Y-95195571D01*
X151117714Y-96695571D01*
D11*
%TO.C,J1*%
X118870000Y-98930000D02*
X118870000Y-97600000D01*
X120200000Y-98930000D02*
X118870000Y-98930000D01*
X121470000Y-98930000D02*
X121470000Y-96270000D01*
X121470000Y-96270000D02*
X129150000Y-96270000D01*
X121470000Y-98930000D02*
X129150000Y-98930000D01*
X129150000Y-98930000D02*
X129150000Y-96270000D01*
%TO.C,Y1*%
X156728000Y-86964000D02*
X156728000Y-74364000D01*
X151628000Y-86964000D02*
X156728000Y-86964000D01*
X151628000Y-74364000D02*
X151628000Y-86964000D01*
%TO.C,U3*%
X145288000Y-83292000D02*
X141838000Y-83292000D01*
X145288000Y-83292000D02*
X147238000Y-83292000D01*
X145288000Y-88412000D02*
X143338000Y-88412000D01*
X145288000Y-88412000D02*
X147238000Y-88412000D01*
%TO.C,U2*%
X145542000Y-80635000D02*
X148992000Y-80635000D01*
X145542000Y-80635000D02*
X143592000Y-80635000D01*
X145542000Y-71765000D02*
X147492000Y-71765000D01*
X145542000Y-71765000D02*
X143592000Y-71765000D01*
%TO.C,R9*%
X129566936Y-86079000D02*
X130021064Y-86079000D01*
X129566936Y-84609000D02*
X130021064Y-84609000D01*
%TO.C,R7*%
X139419064Y-72163000D02*
X138964936Y-72163000D01*
X139419064Y-73633000D02*
X138964936Y-73633000D01*
%TO.C,R4*%
X138964936Y-77951000D02*
X139419064Y-77951000D01*
X138964936Y-76481000D02*
X139419064Y-76481000D01*
%TO.C,J4*%
X124654000Y-84014000D02*
X125984000Y-84014000D01*
X124654000Y-85344000D02*
X124654000Y-84014000D01*
X124654000Y-86614000D02*
X127314000Y-86614000D01*
X127314000Y-86614000D02*
X127314000Y-89214000D01*
X124654000Y-86614000D02*
X124654000Y-89214000D01*
X124654000Y-89214000D02*
X127314000Y-89214000D01*
%TO.C,D2*%
X136654000Y-83256000D02*
X138114000Y-83256000D01*
X136654000Y-86416000D02*
X138814000Y-86416000D01*
X136654000Y-86416000D02*
X136654000Y-85486000D01*
X136654000Y-83256000D02*
X136654000Y-84186000D01*
%TO.C,C7*%
X154170748Y-89381000D02*
X154693252Y-89381000D01*
X154170748Y-87911000D02*
X154693252Y-87911000D01*
%TO.C,C6*%
X154104748Y-72871000D02*
X154627252Y-72871000D01*
X154104748Y-71401000D02*
X154627252Y-71401000D01*
%TO.C,C5*%
X139453252Y-79021000D02*
X138930748Y-79021000D01*
X139453252Y-80491000D02*
X138930748Y-80491000D01*
%TO.C,C4*%
X137675252Y-87403000D02*
X137152748Y-87403000D01*
X137675252Y-88873000D02*
X137152748Y-88873000D01*
D12*
%TO.C,REF\u002A\u002A*%
G36*
X168357014Y-69636998D02*
G01*
X168515006Y-69637863D01*
X168629347Y-69640205D01*
X168707407Y-69644762D01*
X168756554Y-69652270D01*
X168784159Y-69663466D01*
X168797592Y-69679088D01*
X168804221Y-69699873D01*
X168804865Y-69702563D01*
X168814935Y-69751113D01*
X168833575Y-69846905D01*
X168858845Y-69979743D01*
X168888807Y-70139431D01*
X168921522Y-70315774D01*
X168922664Y-70321967D01*
X168955433Y-70494782D01*
X168986093Y-70647469D01*
X169012664Y-70770871D01*
X169033167Y-70855831D01*
X169045626Y-70893190D01*
X169046220Y-70893852D01*
X169082919Y-70912095D01*
X169158586Y-70942497D01*
X169256878Y-70978493D01*
X169257425Y-70978685D01*
X169381233Y-71025222D01*
X169527196Y-71084504D01*
X169664781Y-71144109D01*
X169671293Y-71147056D01*
X169895390Y-71248765D01*
X170391619Y-70909897D01*
X170543846Y-70806592D01*
X170681741Y-70714237D01*
X170797315Y-70638084D01*
X170882579Y-70583385D01*
X170929544Y-70555393D01*
X170934004Y-70553317D01*
X170968134Y-70562560D01*
X171031881Y-70607156D01*
X171127731Y-70689209D01*
X171258169Y-70810821D01*
X171391328Y-70940205D01*
X171519694Y-71067702D01*
X171634581Y-71184046D01*
X171729073Y-71282052D01*
X171796253Y-71354536D01*
X171829206Y-71394313D01*
X171830432Y-71396361D01*
X171834074Y-71423656D01*
X171820350Y-71468234D01*
X171785869Y-71536112D01*
X171727239Y-71633311D01*
X171641070Y-71765851D01*
X171526200Y-71936476D01*
X171424254Y-72086655D01*
X171333123Y-72221350D01*
X171258073Y-72332740D01*
X171204369Y-72413005D01*
X171177280Y-72454325D01*
X171175574Y-72457130D01*
X171178882Y-72496721D01*
X171203953Y-72573669D01*
X171245798Y-72673432D01*
X171260712Y-72705291D01*
X171325786Y-72847226D01*
X171395212Y-73008273D01*
X171451609Y-73147621D01*
X171492247Y-73251044D01*
X171524526Y-73329642D01*
X171543178Y-73370720D01*
X171545497Y-73373885D01*
X171579803Y-73379128D01*
X171660669Y-73393494D01*
X171777343Y-73414937D01*
X171919075Y-73441413D01*
X172075110Y-73470877D01*
X172234698Y-73501283D01*
X172387085Y-73530588D01*
X172521521Y-73556745D01*
X172627252Y-73577710D01*
X172693526Y-73591439D01*
X172709782Y-73595320D01*
X172726573Y-73604900D01*
X172739249Y-73626536D01*
X172748378Y-73667531D01*
X172754531Y-73735189D01*
X172758280Y-73836812D01*
X172760192Y-73979703D01*
X172760840Y-74171165D01*
X172760874Y-74249645D01*
X172760874Y-74887906D01*
X172607598Y-74918160D01*
X172522322Y-74934564D01*
X172395070Y-74958509D01*
X172241315Y-74987107D01*
X172076534Y-75017467D01*
X172030989Y-75025806D01*
X171878932Y-75055370D01*
X171746468Y-75084442D01*
X171644714Y-75110329D01*
X171584788Y-75130337D01*
X171574805Y-75136301D01*
X171550293Y-75178534D01*
X171515148Y-75260370D01*
X171476173Y-75365683D01*
X171468442Y-75388368D01*
X171417360Y-75529018D01*
X171353954Y-75687714D01*
X171291904Y-75830225D01*
X171291598Y-75830886D01*
X171188267Y-76054440D01*
X171867961Y-77054232D01*
X171431621Y-77491300D01*
X171299649Y-77621381D01*
X171179279Y-77736048D01*
X171077273Y-77829181D01*
X171000391Y-77894658D01*
X170955393Y-77926357D01*
X170948938Y-77928368D01*
X170911040Y-77912529D01*
X170833708Y-77868496D01*
X170725389Y-77801490D01*
X170594532Y-77716734D01*
X170453052Y-77621816D01*
X170309461Y-77524998D01*
X170181435Y-77440751D01*
X170077105Y-77374258D01*
X170004600Y-77330702D01*
X169972158Y-77315264D01*
X169932576Y-77328328D01*
X169857519Y-77362750D01*
X169762468Y-77411380D01*
X169752392Y-77416785D01*
X169624391Y-77480980D01*
X169536618Y-77512463D01*
X169482028Y-77512798D01*
X169453575Y-77483548D01*
X169453410Y-77483138D01*
X169439188Y-77448498D01*
X169405269Y-77366269D01*
X169354284Y-77242814D01*
X169288862Y-77084498D01*
X169211634Y-76897686D01*
X169125229Y-76688742D01*
X169041551Y-76486446D01*
X168949588Y-76263200D01*
X168865150Y-76056392D01*
X168790769Y-75872362D01*
X168728974Y-75717451D01*
X168682297Y-75597996D01*
X168653268Y-75520339D01*
X168644322Y-75491356D01*
X168666756Y-75458110D01*
X168725439Y-75405123D01*
X168803689Y-75346704D01*
X169026534Y-75161952D01*
X169200718Y-74950182D01*
X169324154Y-74715856D01*
X169394754Y-74463434D01*
X169410431Y-74197377D01*
X169399036Y-74074575D01*
X169336950Y-73819793D01*
X169230023Y-73594801D01*
X169084889Y-73401817D01*
X168908178Y-73243061D01*
X168706522Y-73120750D01*
X168486554Y-73037105D01*
X168254906Y-72994344D01*
X168018209Y-72994687D01*
X167783095Y-73040352D01*
X167556196Y-73133559D01*
X167344144Y-73276527D01*
X167255636Y-73357383D01*
X167085889Y-73565007D01*
X166967699Y-73791895D01*
X166900278Y-74031433D01*
X166882840Y-74277007D01*
X166914598Y-74522003D01*
X166994765Y-74759808D01*
X167122555Y-74983807D01*
X167297180Y-75187387D01*
X167492312Y-75346704D01*
X167573591Y-75407602D01*
X167631009Y-75460015D01*
X167651678Y-75491406D01*
X167640856Y-75525639D01*
X167610077Y-75607419D01*
X167561874Y-75730407D01*
X167498778Y-75888263D01*
X167423322Y-76074649D01*
X167338038Y-76283226D01*
X167254219Y-76486496D01*
X167161745Y-76709933D01*
X167076089Y-76916984D01*
X166999882Y-77101286D01*
X166935753Y-77256475D01*
X166886332Y-77376188D01*
X166854248Y-77454061D01*
X166842359Y-77483138D01*
X166814274Y-77512677D01*
X166759949Y-77512591D01*
X166672395Y-77481326D01*
X166544619Y-77417329D01*
X166543608Y-77416785D01*
X166447402Y-77367121D01*
X166369631Y-77330945D01*
X166325777Y-77315408D01*
X166323842Y-77315264D01*
X166290829Y-77331024D01*
X166217946Y-77374850D01*
X166113322Y-77441557D01*
X165985090Y-77525964D01*
X165842948Y-77621816D01*
X165698233Y-77718867D01*
X165567804Y-77803270D01*
X165460110Y-77869801D01*
X165383598Y-77913238D01*
X165347062Y-77928368D01*
X165313418Y-77908482D01*
X165245776Y-77852903D01*
X165150893Y-77767754D01*
X165035530Y-77659153D01*
X164906445Y-77533221D01*
X164864229Y-77491149D01*
X164427739Y-77053931D01*
X164759977Y-76566340D01*
X164860946Y-76416605D01*
X164949562Y-76282220D01*
X165020854Y-76170969D01*
X165069850Y-76090639D01*
X165091578Y-76049014D01*
X165092215Y-76046053D01*
X165080760Y-76006818D01*
X165049949Y-75927895D01*
X165005116Y-75822509D01*
X164973647Y-75751954D01*
X164914808Y-75616876D01*
X164859396Y-75480409D01*
X164816436Y-75365103D01*
X164804766Y-75329977D01*
X164771611Y-75236174D01*
X164739201Y-75163694D01*
X164721399Y-75136301D01*
X164682114Y-75119536D01*
X164596374Y-75095770D01*
X164475303Y-75067697D01*
X164330027Y-75038009D01*
X164265012Y-75025806D01*
X164099913Y-74995468D01*
X163941552Y-74966093D01*
X163805404Y-74940569D01*
X163706943Y-74921785D01*
X163688402Y-74918160D01*
X163535127Y-74887906D01*
X163535127Y-74249645D01*
X163535471Y-74039770D01*
X163536884Y-73880980D01*
X163539936Y-73765973D01*
X163545197Y-73687446D01*
X163553237Y-73638096D01*
X163564627Y-73610619D01*
X163579937Y-73597713D01*
X163586218Y-73595320D01*
X163624104Y-73586833D01*
X163707805Y-73569900D01*
X163826567Y-73546566D01*
X163969639Y-73518875D01*
X164126268Y-73488873D01*
X164285703Y-73458604D01*
X164437191Y-73430115D01*
X164569981Y-73405449D01*
X164673319Y-73386651D01*
X164736455Y-73375767D01*
X164750503Y-73373885D01*
X164763230Y-73348704D01*
X164791400Y-73281622D01*
X164829748Y-73185333D01*
X164844391Y-73147621D01*
X164903452Y-73001921D01*
X164973000Y-72840951D01*
X165035288Y-72705291D01*
X165081121Y-72601561D01*
X165111613Y-72516326D01*
X165121792Y-72464126D01*
X165120169Y-72457130D01*
X165098657Y-72424102D01*
X165049535Y-72350643D01*
X164978077Y-72244577D01*
X164889555Y-72113726D01*
X164789241Y-71965912D01*
X164769406Y-71936734D01*
X164653012Y-71763863D01*
X164567452Y-71632226D01*
X164509316Y-71535761D01*
X164475192Y-71468408D01*
X164461669Y-71424106D01*
X164465336Y-71396794D01*
X164465430Y-71396620D01*
X164494293Y-71360746D01*
X164558133Y-71291391D01*
X164650031Y-71195745D01*
X164763067Y-71080999D01*
X164890321Y-70954341D01*
X164904672Y-70940205D01*
X165065043Y-70784903D01*
X165188805Y-70670870D01*
X165278445Y-70596002D01*
X165336448Y-70558196D01*
X165361996Y-70553317D01*
X165399282Y-70574603D01*
X165476657Y-70623773D01*
X165586133Y-70695575D01*
X165719720Y-70784755D01*
X165869430Y-70886063D01*
X165904382Y-70909897D01*
X166400610Y-71248765D01*
X166624707Y-71147056D01*
X166760989Y-71087783D01*
X166907276Y-71028170D01*
X167033035Y-70980640D01*
X167038575Y-70978685D01*
X167136943Y-70942677D01*
X167212771Y-70912229D01*
X167249718Y-70893905D01*
X167249780Y-70893852D01*
X167261504Y-70860729D01*
X167281432Y-70779267D01*
X167307587Y-70658625D01*
X167337990Y-70507959D01*
X167370663Y-70336428D01*
X167373336Y-70321967D01*
X167406110Y-70145235D01*
X167436198Y-69984810D01*
X167461661Y-69850888D01*
X167480559Y-69753663D01*
X167490953Y-69703332D01*
X167491135Y-69702563D01*
X167497461Y-69681153D01*
X167509761Y-69664988D01*
X167535406Y-69653331D01*
X167581765Y-69645445D01*
X167656208Y-69640593D01*
X167766105Y-69638039D01*
X167918825Y-69637045D01*
X168121738Y-69636874D01*
X168148000Y-69636874D01*
X168357014Y-69636998D01*
G37*
X168357014Y-69636998D02*
X168515006Y-69637863D01*
X168629347Y-69640205D01*
X168707407Y-69644762D01*
X168756554Y-69652270D01*
X168784159Y-69663466D01*
X168797592Y-69679088D01*
X168804221Y-69699873D01*
X168804865Y-69702563D01*
X168814935Y-69751113D01*
X168833575Y-69846905D01*
X168858845Y-69979743D01*
X168888807Y-70139431D01*
X168921522Y-70315774D01*
X168922664Y-70321967D01*
X168955433Y-70494782D01*
X168986093Y-70647469D01*
X169012664Y-70770871D01*
X169033167Y-70855831D01*
X169045626Y-70893190D01*
X169046220Y-70893852D01*
X169082919Y-70912095D01*
X169158586Y-70942497D01*
X169256878Y-70978493D01*
X169257425Y-70978685D01*
X169381233Y-71025222D01*
X169527196Y-71084504D01*
X169664781Y-71144109D01*
X169671293Y-71147056D01*
X169895390Y-71248765D01*
X170391619Y-70909897D01*
X170543846Y-70806592D01*
X170681741Y-70714237D01*
X170797315Y-70638084D01*
X170882579Y-70583385D01*
X170929544Y-70555393D01*
X170934004Y-70553317D01*
X170968134Y-70562560D01*
X171031881Y-70607156D01*
X171127731Y-70689209D01*
X171258169Y-70810821D01*
X171391328Y-70940205D01*
X171519694Y-71067702D01*
X171634581Y-71184046D01*
X171729073Y-71282052D01*
X171796253Y-71354536D01*
X171829206Y-71394313D01*
X171830432Y-71396361D01*
X171834074Y-71423656D01*
X171820350Y-71468234D01*
X171785869Y-71536112D01*
X171727239Y-71633311D01*
X171641070Y-71765851D01*
X171526200Y-71936476D01*
X171424254Y-72086655D01*
X171333123Y-72221350D01*
X171258073Y-72332740D01*
X171204369Y-72413005D01*
X171177280Y-72454325D01*
X171175574Y-72457130D01*
X171178882Y-72496721D01*
X171203953Y-72573669D01*
X171245798Y-72673432D01*
X171260712Y-72705291D01*
X171325786Y-72847226D01*
X171395212Y-73008273D01*
X171451609Y-73147621D01*
X171492247Y-73251044D01*
X171524526Y-73329642D01*
X171543178Y-73370720D01*
X171545497Y-73373885D01*
X171579803Y-73379128D01*
X171660669Y-73393494D01*
X171777343Y-73414937D01*
X171919075Y-73441413D01*
X172075110Y-73470877D01*
X172234698Y-73501283D01*
X172387085Y-73530588D01*
X172521521Y-73556745D01*
X172627252Y-73577710D01*
X172693526Y-73591439D01*
X172709782Y-73595320D01*
X172726573Y-73604900D01*
X172739249Y-73626536D01*
X172748378Y-73667531D01*
X172754531Y-73735189D01*
X172758280Y-73836812D01*
X172760192Y-73979703D01*
X172760840Y-74171165D01*
X172760874Y-74249645D01*
X172760874Y-74887906D01*
X172607598Y-74918160D01*
X172522322Y-74934564D01*
X172395070Y-74958509D01*
X172241315Y-74987107D01*
X172076534Y-75017467D01*
X172030989Y-75025806D01*
X171878932Y-75055370D01*
X171746468Y-75084442D01*
X171644714Y-75110329D01*
X171584788Y-75130337D01*
X171574805Y-75136301D01*
X171550293Y-75178534D01*
X171515148Y-75260370D01*
X171476173Y-75365683D01*
X171468442Y-75388368D01*
X171417360Y-75529018D01*
X171353954Y-75687714D01*
X171291904Y-75830225D01*
X171291598Y-75830886D01*
X171188267Y-76054440D01*
X171867961Y-77054232D01*
X171431621Y-77491300D01*
X171299649Y-77621381D01*
X171179279Y-77736048D01*
X171077273Y-77829181D01*
X171000391Y-77894658D01*
X170955393Y-77926357D01*
X170948938Y-77928368D01*
X170911040Y-77912529D01*
X170833708Y-77868496D01*
X170725389Y-77801490D01*
X170594532Y-77716734D01*
X170453052Y-77621816D01*
X170309461Y-77524998D01*
X170181435Y-77440751D01*
X170077105Y-77374258D01*
X170004600Y-77330702D01*
X169972158Y-77315264D01*
X169932576Y-77328328D01*
X169857519Y-77362750D01*
X169762468Y-77411380D01*
X169752392Y-77416785D01*
X169624391Y-77480980D01*
X169536618Y-77512463D01*
X169482028Y-77512798D01*
X169453575Y-77483548D01*
X169453410Y-77483138D01*
X169439188Y-77448498D01*
X169405269Y-77366269D01*
X169354284Y-77242814D01*
X169288862Y-77084498D01*
X169211634Y-76897686D01*
X169125229Y-76688742D01*
X169041551Y-76486446D01*
X168949588Y-76263200D01*
X168865150Y-76056392D01*
X168790769Y-75872362D01*
X168728974Y-75717451D01*
X168682297Y-75597996D01*
X168653268Y-75520339D01*
X168644322Y-75491356D01*
X168666756Y-75458110D01*
X168725439Y-75405123D01*
X168803689Y-75346704D01*
X169026534Y-75161952D01*
X169200718Y-74950182D01*
X169324154Y-74715856D01*
X169394754Y-74463434D01*
X169410431Y-74197377D01*
X169399036Y-74074575D01*
X169336950Y-73819793D01*
X169230023Y-73594801D01*
X169084889Y-73401817D01*
X168908178Y-73243061D01*
X168706522Y-73120750D01*
X168486554Y-73037105D01*
X168254906Y-72994344D01*
X168018209Y-72994687D01*
X167783095Y-73040352D01*
X167556196Y-73133559D01*
X167344144Y-73276527D01*
X167255636Y-73357383D01*
X167085889Y-73565007D01*
X166967699Y-73791895D01*
X166900278Y-74031433D01*
X166882840Y-74277007D01*
X166914598Y-74522003D01*
X166994765Y-74759808D01*
X167122555Y-74983807D01*
X167297180Y-75187387D01*
X167492312Y-75346704D01*
X167573591Y-75407602D01*
X167631009Y-75460015D01*
X167651678Y-75491406D01*
X167640856Y-75525639D01*
X167610077Y-75607419D01*
X167561874Y-75730407D01*
X167498778Y-75888263D01*
X167423322Y-76074649D01*
X167338038Y-76283226D01*
X167254219Y-76486496D01*
X167161745Y-76709933D01*
X167076089Y-76916984D01*
X166999882Y-77101286D01*
X166935753Y-77256475D01*
X166886332Y-77376188D01*
X166854248Y-77454061D01*
X166842359Y-77483138D01*
X166814274Y-77512677D01*
X166759949Y-77512591D01*
X166672395Y-77481326D01*
X166544619Y-77417329D01*
X166543608Y-77416785D01*
X166447402Y-77367121D01*
X166369631Y-77330945D01*
X166325777Y-77315408D01*
X166323842Y-77315264D01*
X166290829Y-77331024D01*
X166217946Y-77374850D01*
X166113322Y-77441557D01*
X165985090Y-77525964D01*
X165842948Y-77621816D01*
X165698233Y-77718867D01*
X165567804Y-77803270D01*
X165460110Y-77869801D01*
X165383598Y-77913238D01*
X165347062Y-77928368D01*
X165313418Y-77908482D01*
X165245776Y-77852903D01*
X165150893Y-77767754D01*
X165035530Y-77659153D01*
X164906445Y-77533221D01*
X164864229Y-77491149D01*
X164427739Y-77053931D01*
X164759977Y-76566340D01*
X164860946Y-76416605D01*
X164949562Y-76282220D01*
X165020854Y-76170969D01*
X165069850Y-76090639D01*
X165091578Y-76049014D01*
X165092215Y-76046053D01*
X165080760Y-76006818D01*
X165049949Y-75927895D01*
X165005116Y-75822509D01*
X164973647Y-75751954D01*
X164914808Y-75616876D01*
X164859396Y-75480409D01*
X164816436Y-75365103D01*
X164804766Y-75329977D01*
X164771611Y-75236174D01*
X164739201Y-75163694D01*
X164721399Y-75136301D01*
X164682114Y-75119536D01*
X164596374Y-75095770D01*
X164475303Y-75067697D01*
X164330027Y-75038009D01*
X164265012Y-75025806D01*
X164099913Y-74995468D01*
X163941552Y-74966093D01*
X163805404Y-74940569D01*
X163706943Y-74921785D01*
X163688402Y-74918160D01*
X163535127Y-74887906D01*
X163535127Y-74249645D01*
X163535471Y-74039770D01*
X163536884Y-73880980D01*
X163539936Y-73765973D01*
X163545197Y-73687446D01*
X163553237Y-73638096D01*
X163564627Y-73610619D01*
X163579937Y-73597713D01*
X163586218Y-73595320D01*
X163624104Y-73586833D01*
X163707805Y-73569900D01*
X163826567Y-73546566D01*
X163969639Y-73518875D01*
X164126268Y-73488873D01*
X164285703Y-73458604D01*
X164437191Y-73430115D01*
X164569981Y-73405449D01*
X164673319Y-73386651D01*
X164736455Y-73375767D01*
X164750503Y-73373885D01*
X164763230Y-73348704D01*
X164791400Y-73281622D01*
X164829748Y-73185333D01*
X164844391Y-73147621D01*
X164903452Y-73001921D01*
X164973000Y-72840951D01*
X165035288Y-72705291D01*
X165081121Y-72601561D01*
X165111613Y-72516326D01*
X165121792Y-72464126D01*
X165120169Y-72457130D01*
X165098657Y-72424102D01*
X165049535Y-72350643D01*
X164978077Y-72244577D01*
X164889555Y-72113726D01*
X164789241Y-71965912D01*
X164769406Y-71936734D01*
X164653012Y-71763863D01*
X164567452Y-71632226D01*
X164509316Y-71535761D01*
X164475192Y-71468408D01*
X164461669Y-71424106D01*
X164465336Y-71396794D01*
X164465430Y-71396620D01*
X164494293Y-71360746D01*
X164558133Y-71291391D01*
X164650031Y-71195745D01*
X164763067Y-71080999D01*
X164890321Y-70954341D01*
X164904672Y-70940205D01*
X165065043Y-70784903D01*
X165188805Y-70670870D01*
X165278445Y-70596002D01*
X165336448Y-70558196D01*
X165361996Y-70553317D01*
X165399282Y-70574603D01*
X165476657Y-70623773D01*
X165586133Y-70695575D01*
X165719720Y-70784755D01*
X165869430Y-70886063D01*
X165904382Y-70909897D01*
X166400610Y-71248765D01*
X166624707Y-71147056D01*
X166760989Y-71087783D01*
X166907276Y-71028170D01*
X167033035Y-70980640D01*
X167038575Y-70978685D01*
X167136943Y-70942677D01*
X167212771Y-70912229D01*
X167249718Y-70893905D01*
X167249780Y-70893852D01*
X167261504Y-70860729D01*
X167281432Y-70779267D01*
X167307587Y-70658625D01*
X167337990Y-70507959D01*
X167370663Y-70336428D01*
X167373336Y-70321967D01*
X167406110Y-70145235D01*
X167436198Y-69984810D01*
X167461661Y-69850888D01*
X167480559Y-69753663D01*
X167490953Y-69703332D01*
X167491135Y-69702563D01*
X167497461Y-69681153D01*
X167509761Y-69664988D01*
X167535406Y-69653331D01*
X167581765Y-69645445D01*
X167656208Y-69640593D01*
X167766105Y-69638039D01*
X167918825Y-69637045D01*
X168121738Y-69636874D01*
X168148000Y-69636874D01*
X168357014Y-69636998D01*
G36*
X174491439Y-79140540D02*
G01*
X174606950Y-79216034D01*
X174662664Y-79283617D01*
X174706804Y-79406255D01*
X174710309Y-79503298D01*
X174702368Y-79633056D01*
X174403115Y-79764039D01*
X174257611Y-79830958D01*
X174162537Y-79884790D01*
X174113101Y-79931416D01*
X174104511Y-79976720D01*
X174131972Y-80026582D01*
X174162253Y-80059632D01*
X174250363Y-80112633D01*
X174346196Y-80116347D01*
X174434212Y-80075041D01*
X174498869Y-79992983D01*
X174510433Y-79964008D01*
X174565825Y-79873509D01*
X174629553Y-79834940D01*
X174716966Y-79801946D01*
X174716966Y-79927034D01*
X174709238Y-80012156D01*
X174678966Y-80083938D01*
X174615518Y-80166356D01*
X174606088Y-80177066D01*
X174535513Y-80250391D01*
X174474847Y-80289742D01*
X174398950Y-80307845D01*
X174336030Y-80313774D01*
X174223487Y-80315251D01*
X174143370Y-80296535D01*
X174093390Y-80268747D01*
X174014838Y-80207641D01*
X173960463Y-80141554D01*
X173926052Y-80058441D01*
X173907388Y-79946254D01*
X173900256Y-79792946D01*
X173899687Y-79715136D01*
X173901622Y-79621853D01*
X174077899Y-79621853D01*
X174079944Y-79671896D01*
X174085039Y-79680092D01*
X174118666Y-79668958D01*
X174191030Y-79639493D01*
X174287747Y-79597601D01*
X174307973Y-79588597D01*
X174430203Y-79526442D01*
X174497547Y-79471815D01*
X174512348Y-79420649D01*
X174476947Y-79368876D01*
X174447711Y-79346000D01*
X174342216Y-79300250D01*
X174243476Y-79307808D01*
X174160812Y-79363651D01*
X174103548Y-79462753D01*
X174085188Y-79541414D01*
X174077899Y-79621853D01*
X173901622Y-79621853D01*
X173903459Y-79533351D01*
X173917359Y-79398853D01*
X173944894Y-79300916D01*
X173989572Y-79228811D01*
X174054901Y-79171813D01*
X174083383Y-79153393D01*
X174212763Y-79105422D01*
X174354412Y-79102403D01*
X174491439Y-79140540D01*
G37*
X174491439Y-79140540D02*
X174606950Y-79216034D01*
X174662664Y-79283617D01*
X174706804Y-79406255D01*
X174710309Y-79503298D01*
X174702368Y-79633056D01*
X174403115Y-79764039D01*
X174257611Y-79830958D01*
X174162537Y-79884790D01*
X174113101Y-79931416D01*
X174104511Y-79976720D01*
X174131972Y-80026582D01*
X174162253Y-80059632D01*
X174250363Y-80112633D01*
X174346196Y-80116347D01*
X174434212Y-80075041D01*
X174498869Y-79992983D01*
X174510433Y-79964008D01*
X174565825Y-79873509D01*
X174629553Y-79834940D01*
X174716966Y-79801946D01*
X174716966Y-79927034D01*
X174709238Y-80012156D01*
X174678966Y-80083938D01*
X174615518Y-80166356D01*
X174606088Y-80177066D01*
X174535513Y-80250391D01*
X174474847Y-80289742D01*
X174398950Y-80307845D01*
X174336030Y-80313774D01*
X174223487Y-80315251D01*
X174143370Y-80296535D01*
X174093390Y-80268747D01*
X174014838Y-80207641D01*
X173960463Y-80141554D01*
X173926052Y-80058441D01*
X173907388Y-79946254D01*
X173900256Y-79792946D01*
X173899687Y-79715136D01*
X173901622Y-79621853D01*
X174077899Y-79621853D01*
X174079944Y-79671896D01*
X174085039Y-79680092D01*
X174118666Y-79668958D01*
X174191030Y-79639493D01*
X174287747Y-79597601D01*
X174307973Y-79588597D01*
X174430203Y-79526442D01*
X174497547Y-79471815D01*
X174512348Y-79420649D01*
X174476947Y-79368876D01*
X174447711Y-79346000D01*
X174342216Y-79300250D01*
X174243476Y-79307808D01*
X174160812Y-79363651D01*
X174103548Y-79462753D01*
X174085188Y-79541414D01*
X174077899Y-79621853D01*
X173901622Y-79621853D01*
X173903459Y-79533351D01*
X173917359Y-79398853D01*
X173944894Y-79300916D01*
X173989572Y-79228811D01*
X174054901Y-79171813D01*
X174083383Y-79153393D01*
X174212763Y-79105422D01*
X174354412Y-79102403D01*
X174491439Y-79140540D01*
G36*
X173483690Y-79124018D02*
G01*
X173518585Y-79139269D01*
X173601877Y-79205235D01*
X173673103Y-79300618D01*
X173717153Y-79402406D01*
X173724322Y-79452587D01*
X173700285Y-79522647D01*
X173647561Y-79559717D01*
X173591031Y-79582164D01*
X173565146Y-79586300D01*
X173552542Y-79556283D01*
X173527654Y-79490961D01*
X173516735Y-79461445D01*
X173455508Y-79359348D01*
X173366861Y-79308423D01*
X173253193Y-79309989D01*
X173244774Y-79311994D01*
X173184088Y-79340767D01*
X173139474Y-79396859D01*
X173109002Y-79487163D01*
X173090744Y-79618571D01*
X173082771Y-79797974D01*
X173082023Y-79893433D01*
X173081652Y-80043913D01*
X173079223Y-80146495D01*
X173072760Y-80211672D01*
X173060288Y-80249938D01*
X173039833Y-80271785D01*
X173009419Y-80287707D01*
X173007661Y-80288509D01*
X172949091Y-80313272D01*
X172920075Y-80322391D01*
X172915616Y-80294822D01*
X172911799Y-80218620D01*
X172908899Y-80103541D01*
X172907191Y-79959341D01*
X172906851Y-79853814D01*
X172908588Y-79649613D01*
X172915382Y-79494697D01*
X172929607Y-79380024D01*
X172953638Y-79296551D01*
X172989848Y-79235236D01*
X173040612Y-79187034D01*
X173090739Y-79153393D01*
X173211275Y-79108619D01*
X173351557Y-79098521D01*
X173483690Y-79124018D01*
G37*
X173483690Y-79124018D02*
X173518585Y-79139269D01*
X173601877Y-79205235D01*
X173673103Y-79300618D01*
X173717153Y-79402406D01*
X173724322Y-79452587D01*
X173700285Y-79522647D01*
X173647561Y-79559717D01*
X173591031Y-79582164D01*
X173565146Y-79586300D01*
X173552542Y-79556283D01*
X173527654Y-79490961D01*
X173516735Y-79461445D01*
X173455508Y-79359348D01*
X173366861Y-79308423D01*
X173253193Y-79309989D01*
X173244774Y-79311994D01*
X173184088Y-79340767D01*
X173139474Y-79396859D01*
X173109002Y-79487163D01*
X173090744Y-79618571D01*
X173082771Y-79797974D01*
X173082023Y-79893433D01*
X173081652Y-80043913D01*
X173079223Y-80146495D01*
X173072760Y-80211672D01*
X173060288Y-80249938D01*
X173039833Y-80271785D01*
X173009419Y-80287707D01*
X173007661Y-80288509D01*
X172949091Y-80313272D01*
X172920075Y-80322391D01*
X172915616Y-80294822D01*
X172911799Y-80218620D01*
X172908899Y-80103541D01*
X172907191Y-79959341D01*
X172906851Y-79853814D01*
X172908588Y-79649613D01*
X172915382Y-79494697D01*
X172929607Y-79380024D01*
X172953638Y-79296551D01*
X172989848Y-79235236D01*
X173040612Y-79187034D01*
X173090739Y-79153393D01*
X173211275Y-79108619D01*
X173351557Y-79098521D01*
X173483690Y-79124018D01*
G36*
X172462406Y-79119156D02*
G01*
X172546469Y-79157393D01*
X172612450Y-79203726D01*
X172660794Y-79255532D01*
X172694172Y-79322363D01*
X172715253Y-79413769D01*
X172726707Y-79539301D01*
X172731203Y-79708508D01*
X172731678Y-79819933D01*
X172731678Y-80254627D01*
X172657316Y-80288509D01*
X172598746Y-80313272D01*
X172569730Y-80322391D01*
X172564179Y-80295257D01*
X172559775Y-80222094D01*
X172557078Y-80115263D01*
X172556506Y-80030437D01*
X172554046Y-79907887D01*
X172547412Y-79810668D01*
X172537726Y-79751134D01*
X172530032Y-79738483D01*
X172478311Y-79751402D01*
X172397117Y-79784539D01*
X172303102Y-79829461D01*
X172212917Y-79877735D01*
X172143215Y-79920928D01*
X172110648Y-79950608D01*
X172110519Y-79950929D01*
X172113320Y-80005857D01*
X172138439Y-80058292D01*
X172182541Y-80100881D01*
X172246909Y-80115126D01*
X172301921Y-80113466D01*
X172379835Y-80112245D01*
X172420732Y-80130498D01*
X172445295Y-80178726D01*
X172448392Y-80187820D01*
X172459040Y-80256598D01*
X172430565Y-80298360D01*
X172356344Y-80318263D01*
X172276168Y-80321944D01*
X172131890Y-80294658D01*
X172057203Y-80255690D01*
X171964963Y-80164148D01*
X171916043Y-80051782D01*
X171911654Y-79933051D01*
X171953001Y-79822411D01*
X172015197Y-79753080D01*
X172077294Y-79714265D01*
X172174895Y-79665125D01*
X172288632Y-79615292D01*
X172307590Y-79607677D01*
X172432521Y-79552545D01*
X172504539Y-79503954D01*
X172527700Y-79455647D01*
X172506064Y-79401370D01*
X172468920Y-79358943D01*
X172381127Y-79306702D01*
X172284530Y-79302784D01*
X172195944Y-79343041D01*
X172132186Y-79423326D01*
X172123817Y-79444040D01*
X172075096Y-79520225D01*
X172003965Y-79576785D01*
X171914207Y-79623201D01*
X171914207Y-79491584D01*
X171919490Y-79411168D01*
X171942142Y-79347786D01*
X171992367Y-79280163D01*
X172040582Y-79228076D01*
X172115554Y-79154322D01*
X172173806Y-79114702D01*
X172236372Y-79098810D01*
X172307193Y-79096184D01*
X172462406Y-79119156D01*
G37*
X172462406Y-79119156D02*
X172546469Y-79157393D01*
X172612450Y-79203726D01*
X172660794Y-79255532D01*
X172694172Y-79322363D01*
X172715253Y-79413769D01*
X172726707Y-79539301D01*
X172731203Y-79708508D01*
X172731678Y-79819933D01*
X172731678Y-80254627D01*
X172657316Y-80288509D01*
X172598746Y-80313272D01*
X172569730Y-80322391D01*
X172564179Y-80295257D01*
X172559775Y-80222094D01*
X172557078Y-80115263D01*
X172556506Y-80030437D01*
X172554046Y-79907887D01*
X172547412Y-79810668D01*
X172537726Y-79751134D01*
X172530032Y-79738483D01*
X172478311Y-79751402D01*
X172397117Y-79784539D01*
X172303102Y-79829461D01*
X172212917Y-79877735D01*
X172143215Y-79920928D01*
X172110648Y-79950608D01*
X172110519Y-79950929D01*
X172113320Y-80005857D01*
X172138439Y-80058292D01*
X172182541Y-80100881D01*
X172246909Y-80115126D01*
X172301921Y-80113466D01*
X172379835Y-80112245D01*
X172420732Y-80130498D01*
X172445295Y-80178726D01*
X172448392Y-80187820D01*
X172459040Y-80256598D01*
X172430565Y-80298360D01*
X172356344Y-80318263D01*
X172276168Y-80321944D01*
X172131890Y-80294658D01*
X172057203Y-80255690D01*
X171964963Y-80164148D01*
X171916043Y-80051782D01*
X171911654Y-79933051D01*
X171953001Y-79822411D01*
X172015197Y-79753080D01*
X172077294Y-79714265D01*
X172174895Y-79665125D01*
X172288632Y-79615292D01*
X172307590Y-79607677D01*
X172432521Y-79552545D01*
X172504539Y-79503954D01*
X172527700Y-79455647D01*
X172506064Y-79401370D01*
X172468920Y-79358943D01*
X172381127Y-79306702D01*
X172284530Y-79302784D01*
X172195944Y-79343041D01*
X172132186Y-79423326D01*
X172123817Y-79444040D01*
X172075096Y-79520225D01*
X172003965Y-79576785D01*
X171914207Y-79623201D01*
X171914207Y-79491584D01*
X171919490Y-79411168D01*
X171942142Y-79347786D01*
X171992367Y-79280163D01*
X172040582Y-79228076D01*
X172115554Y-79154322D01*
X172173806Y-79114702D01*
X172236372Y-79098810D01*
X172307193Y-79096184D01*
X172462406Y-79119156D01*
G36*
X171728124Y-79123840D02*
G01*
X171732579Y-79200653D01*
X171736071Y-79317391D01*
X171738315Y-79464821D01*
X171739035Y-79619455D01*
X171739035Y-80142727D01*
X171646645Y-80235117D01*
X171582978Y-80292047D01*
X171527089Y-80315107D01*
X171450702Y-80313647D01*
X171420380Y-80309934D01*
X171325610Y-80299126D01*
X171247222Y-80292933D01*
X171228115Y-80292361D01*
X171163699Y-80296102D01*
X171071571Y-80305494D01*
X171035850Y-80309934D01*
X170948114Y-80316801D01*
X170889153Y-80301885D01*
X170830690Y-80255835D01*
X170809585Y-80235117D01*
X170717195Y-80142727D01*
X170717195Y-79163947D01*
X170791558Y-79130066D01*
X170855590Y-79104970D01*
X170893052Y-79096184D01*
X170902657Y-79123950D01*
X170911635Y-79201530D01*
X170919386Y-79320348D01*
X170925314Y-79471828D01*
X170928173Y-79599805D01*
X170936161Y-80103425D01*
X171005848Y-80113278D01*
X171069229Y-80106389D01*
X171100286Y-80084083D01*
X171108967Y-80042379D01*
X171116378Y-79953544D01*
X171121931Y-79828834D01*
X171125036Y-79679507D01*
X171125484Y-79602661D01*
X171125931Y-79160287D01*
X171217874Y-79128235D01*
X171282949Y-79106443D01*
X171318347Y-79096281D01*
X171319368Y-79096184D01*
X171322920Y-79123809D01*
X171326823Y-79200411D01*
X171330751Y-79316579D01*
X171334376Y-79462904D01*
X171336908Y-79599805D01*
X171344897Y-80103425D01*
X171520069Y-80103425D01*
X171528107Y-79643965D01*
X171536146Y-79184505D01*
X171621543Y-79140344D01*
X171684593Y-79110019D01*
X171721910Y-79096258D01*
X171722987Y-79096184D01*
X171728124Y-79123840D01*
G37*
X171728124Y-79123840D02*
X171732579Y-79200653D01*
X171736071Y-79317391D01*
X171738315Y-79464821D01*
X171739035Y-79619455D01*
X171739035Y-80142727D01*
X171646645Y-80235117D01*
X171582978Y-80292047D01*
X171527089Y-80315107D01*
X171450702Y-80313647D01*
X171420380Y-80309934D01*
X171325610Y-80299126D01*
X171247222Y-80292933D01*
X171228115Y-80292361D01*
X171163699Y-80296102D01*
X171071571Y-80305494D01*
X171035850Y-80309934D01*
X170948114Y-80316801D01*
X170889153Y-80301885D01*
X170830690Y-80255835D01*
X170809585Y-80235117D01*
X170717195Y-80142727D01*
X170717195Y-79163947D01*
X170791558Y-79130066D01*
X170855590Y-79104970D01*
X170893052Y-79096184D01*
X170902657Y-79123950D01*
X170911635Y-79201530D01*
X170919386Y-79320348D01*
X170925314Y-79471828D01*
X170928173Y-79599805D01*
X170936161Y-80103425D01*
X171005848Y-80113278D01*
X171069229Y-80106389D01*
X171100286Y-80084083D01*
X171108967Y-80042379D01*
X171116378Y-79953544D01*
X171121931Y-79828834D01*
X171125036Y-79679507D01*
X171125484Y-79602661D01*
X171125931Y-79160287D01*
X171217874Y-79128235D01*
X171282949Y-79106443D01*
X171318347Y-79096281D01*
X171319368Y-79096184D01*
X171322920Y-79123809D01*
X171326823Y-79200411D01*
X171330751Y-79316579D01*
X171334376Y-79462904D01*
X171336908Y-79599805D01*
X171344897Y-80103425D01*
X171520069Y-80103425D01*
X171528107Y-79643965D01*
X171536146Y-79184505D01*
X171621543Y-79140344D01*
X171684593Y-79110019D01*
X171721910Y-79096258D01*
X171722987Y-79096184D01*
X171728124Y-79123840D01*
G36*
X170541914Y-79338455D02*
G01*
X170541543Y-79556661D01*
X170540108Y-79724519D01*
X170537002Y-79850070D01*
X170531622Y-79941355D01*
X170523362Y-80006415D01*
X170511616Y-80053291D01*
X170495781Y-80090024D01*
X170483790Y-80110991D01*
X170384490Y-80224694D01*
X170258588Y-80295965D01*
X170119291Y-80321538D01*
X169979805Y-80298150D01*
X169896743Y-80256119D01*
X169809545Y-80183411D01*
X169750117Y-80094612D01*
X169714261Y-79978320D01*
X169697781Y-79823135D01*
X169695447Y-79709287D01*
X169695761Y-79701106D01*
X169899724Y-79701106D01*
X169900970Y-79831657D01*
X169906678Y-79918080D01*
X169919804Y-79974618D01*
X169943306Y-80015514D01*
X169971386Y-80046362D01*
X170065688Y-80105905D01*
X170166940Y-80110992D01*
X170262636Y-80061279D01*
X170270084Y-80054543D01*
X170301874Y-80019502D01*
X170321808Y-79977811D01*
X170332600Y-79915762D01*
X170336965Y-79819644D01*
X170337655Y-79713379D01*
X170336159Y-79579880D01*
X170329964Y-79490822D01*
X170316514Y-79432293D01*
X170293251Y-79390382D01*
X170274175Y-79368123D01*
X170185563Y-79311985D01*
X170083508Y-79305235D01*
X169986095Y-79348114D01*
X169967296Y-79364032D01*
X169935293Y-79399382D01*
X169915318Y-79441502D01*
X169904593Y-79504251D01*
X169900339Y-79601487D01*
X169899724Y-79701106D01*
X169695761Y-79701106D01*
X169702504Y-79525947D01*
X169726472Y-79388195D01*
X169771548Y-79284632D01*
X169841928Y-79203856D01*
X169896743Y-79162455D01*
X169996376Y-79117728D01*
X170111855Y-79096967D01*
X170219199Y-79102525D01*
X170279264Y-79124943D01*
X170302835Y-79131323D01*
X170318477Y-79107535D01*
X170329395Y-79043788D01*
X170337655Y-78946687D01*
X170346699Y-78838541D01*
X170359261Y-78773475D01*
X170382119Y-78736268D01*
X170422051Y-78711699D01*
X170447138Y-78700819D01*
X170542023Y-78661072D01*
X170541914Y-79338455D01*
G37*
X170541914Y-79338455D02*
X170541543Y-79556661D01*
X170540108Y-79724519D01*
X170537002Y-79850070D01*
X170531622Y-79941355D01*
X170523362Y-80006415D01*
X170511616Y-80053291D01*
X170495781Y-80090024D01*
X170483790Y-80110991D01*
X170384490Y-80224694D01*
X170258588Y-80295965D01*
X170119291Y-80321538D01*
X169979805Y-80298150D01*
X169896743Y-80256119D01*
X169809545Y-80183411D01*
X169750117Y-80094612D01*
X169714261Y-79978320D01*
X169697781Y-79823135D01*
X169695447Y-79709287D01*
X169695761Y-79701106D01*
X169899724Y-79701106D01*
X169900970Y-79831657D01*
X169906678Y-79918080D01*
X169919804Y-79974618D01*
X169943306Y-80015514D01*
X169971386Y-80046362D01*
X170065688Y-80105905D01*
X170166940Y-80110992D01*
X170262636Y-80061279D01*
X170270084Y-80054543D01*
X170301874Y-80019502D01*
X170321808Y-79977811D01*
X170332600Y-79915762D01*
X170336965Y-79819644D01*
X170337655Y-79713379D01*
X170336159Y-79579880D01*
X170329964Y-79490822D01*
X170316514Y-79432293D01*
X170293251Y-79390382D01*
X170274175Y-79368123D01*
X170185563Y-79311985D01*
X170083508Y-79305235D01*
X169986095Y-79348114D01*
X169967296Y-79364032D01*
X169935293Y-79399382D01*
X169915318Y-79441502D01*
X169904593Y-79504251D01*
X169900339Y-79601487D01*
X169899724Y-79701106D01*
X169695761Y-79701106D01*
X169702504Y-79525947D01*
X169726472Y-79388195D01*
X169771548Y-79284632D01*
X169841928Y-79203856D01*
X169896743Y-79162455D01*
X169996376Y-79117728D01*
X170111855Y-79096967D01*
X170219199Y-79102525D01*
X170279264Y-79124943D01*
X170302835Y-79131323D01*
X170318477Y-79107535D01*
X170329395Y-79043788D01*
X170337655Y-78946687D01*
X170346699Y-78838541D01*
X170359261Y-78773475D01*
X170382119Y-78736268D01*
X170422051Y-78711699D01*
X170447138Y-78700819D01*
X170542023Y-78661072D01*
X170541914Y-79338455D01*
G36*
X169213943Y-79105920D02*
G01*
X169346565Y-79154859D01*
X169454010Y-79241419D01*
X169496032Y-79302352D01*
X169541843Y-79414161D01*
X169540891Y-79495006D01*
X169492808Y-79549378D01*
X169475017Y-79558624D01*
X169398204Y-79587450D01*
X169358976Y-79580065D01*
X169345689Y-79531658D01*
X169345012Y-79504920D01*
X169320686Y-79406548D01*
X169257281Y-79337734D01*
X169169154Y-79304498D01*
X169070663Y-79312861D01*
X168990602Y-79356296D01*
X168963561Y-79381072D01*
X168944394Y-79411129D01*
X168931446Y-79456565D01*
X168923064Y-79527476D01*
X168917593Y-79633960D01*
X168913378Y-79786112D01*
X168912287Y-79834287D01*
X168908307Y-79999095D01*
X168903781Y-80115088D01*
X168896995Y-80191833D01*
X168886231Y-80238893D01*
X168869773Y-80265835D01*
X168845906Y-80282223D01*
X168830626Y-80289463D01*
X168765733Y-80314220D01*
X168727534Y-80322391D01*
X168714912Y-80295103D01*
X168707208Y-80212603D01*
X168704380Y-80073941D01*
X168706386Y-79878162D01*
X168707011Y-79847965D01*
X168711421Y-79669349D01*
X168716635Y-79538923D01*
X168724055Y-79446492D01*
X168735082Y-79381858D01*
X168751117Y-79334825D01*
X168773561Y-79295196D01*
X168785302Y-79278215D01*
X168852619Y-79203080D01*
X168927910Y-79144638D01*
X168937128Y-79139536D01*
X169072133Y-79099260D01*
X169213943Y-79105920D01*
G37*
X169213943Y-79105920D02*
X169346565Y-79154859D01*
X169454010Y-79241419D01*
X169496032Y-79302352D01*
X169541843Y-79414161D01*
X169540891Y-79495006D01*
X169492808Y-79549378D01*
X169475017Y-79558624D01*
X169398204Y-79587450D01*
X169358976Y-79580065D01*
X169345689Y-79531658D01*
X169345012Y-79504920D01*
X169320686Y-79406548D01*
X169257281Y-79337734D01*
X169169154Y-79304498D01*
X169070663Y-79312861D01*
X168990602Y-79356296D01*
X168963561Y-79381072D01*
X168944394Y-79411129D01*
X168931446Y-79456565D01*
X168923064Y-79527476D01*
X168917593Y-79633960D01*
X168913378Y-79786112D01*
X168912287Y-79834287D01*
X168908307Y-79999095D01*
X168903781Y-80115088D01*
X168896995Y-80191833D01*
X168886231Y-80238893D01*
X168869773Y-80265835D01*
X168845906Y-80282223D01*
X168830626Y-80289463D01*
X168765733Y-80314220D01*
X168727534Y-80322391D01*
X168714912Y-80295103D01*
X168707208Y-80212603D01*
X168704380Y-80073941D01*
X168706386Y-79878162D01*
X168707011Y-79847965D01*
X168711421Y-79669349D01*
X168716635Y-79538923D01*
X168724055Y-79446492D01*
X168735082Y-79381858D01*
X168751117Y-79334825D01*
X168773561Y-79295196D01*
X168785302Y-79278215D01*
X168852619Y-79203080D01*
X168927910Y-79144638D01*
X168937128Y-79139536D01*
X169072133Y-79099260D01*
X169213943Y-79105920D01*
G36*
X168227944Y-79108360D02*
G01*
X168342343Y-79150842D01*
X168343652Y-79151658D01*
X168414403Y-79203730D01*
X168466636Y-79264584D01*
X168503371Y-79343887D01*
X168527634Y-79451309D01*
X168542445Y-79596517D01*
X168550829Y-79789179D01*
X168551564Y-79816628D01*
X168562120Y-80230521D01*
X168473291Y-80276456D01*
X168409018Y-80307498D01*
X168370210Y-80322206D01*
X168368415Y-80322391D01*
X168361700Y-80295250D01*
X168356365Y-80222041D01*
X168353083Y-80115081D01*
X168352368Y-80028469D01*
X168352351Y-79888162D01*
X168345937Y-79800051D01*
X168323580Y-79758025D01*
X168275732Y-79755975D01*
X168192849Y-79787790D01*
X168067713Y-79846272D01*
X167975697Y-79894845D01*
X167928371Y-79936986D01*
X167914458Y-79982916D01*
X167914437Y-79985189D01*
X167937395Y-80064311D01*
X168005370Y-80107055D01*
X168109398Y-80113246D01*
X168184330Y-80112172D01*
X168223839Y-80133753D01*
X168248478Y-80185591D01*
X168262659Y-80251632D01*
X168242223Y-80289104D01*
X168234528Y-80294467D01*
X168162083Y-80316006D01*
X168060633Y-80319055D01*
X167956157Y-80304778D01*
X167882125Y-80278688D01*
X167779772Y-80191785D01*
X167721591Y-80070816D01*
X167710069Y-79976308D01*
X167718862Y-79891062D01*
X167750680Y-79821476D01*
X167813684Y-79759672D01*
X167916031Y-79697772D01*
X168065882Y-79627897D01*
X168075012Y-79623948D01*
X168209997Y-79561588D01*
X168293294Y-79510446D01*
X168328997Y-79464488D01*
X168321203Y-79417683D01*
X168274007Y-79363998D01*
X168259894Y-79351644D01*
X168165359Y-79303741D01*
X168067406Y-79305758D01*
X167982097Y-79352724D01*
X167925496Y-79439669D01*
X167920237Y-79456734D01*
X167869023Y-79539504D01*
X167804037Y-79579372D01*
X167710069Y-79618882D01*
X167710069Y-79516658D01*
X167738653Y-79368072D01*
X167823495Y-79231784D01*
X167867645Y-79186191D01*
X167968005Y-79127674D01*
X168095635Y-79101184D01*
X168227944Y-79108360D01*
G37*
X168227944Y-79108360D02*
X168342343Y-79150842D01*
X168343652Y-79151658D01*
X168414403Y-79203730D01*
X168466636Y-79264584D01*
X168503371Y-79343887D01*
X168527634Y-79451309D01*
X168542445Y-79596517D01*
X168550829Y-79789179D01*
X168551564Y-79816628D01*
X168562120Y-80230521D01*
X168473291Y-80276456D01*
X168409018Y-80307498D01*
X168370210Y-80322206D01*
X168368415Y-80322391D01*
X168361700Y-80295250D01*
X168356365Y-80222041D01*
X168353083Y-80115081D01*
X168352368Y-80028469D01*
X168352351Y-79888162D01*
X168345937Y-79800051D01*
X168323580Y-79758025D01*
X168275732Y-79755975D01*
X168192849Y-79787790D01*
X168067713Y-79846272D01*
X167975697Y-79894845D01*
X167928371Y-79936986D01*
X167914458Y-79982916D01*
X167914437Y-79985189D01*
X167937395Y-80064311D01*
X168005370Y-80107055D01*
X168109398Y-80113246D01*
X168184330Y-80112172D01*
X168223839Y-80133753D01*
X168248478Y-80185591D01*
X168262659Y-80251632D01*
X168242223Y-80289104D01*
X168234528Y-80294467D01*
X168162083Y-80316006D01*
X168060633Y-80319055D01*
X167956157Y-80304778D01*
X167882125Y-80278688D01*
X167779772Y-80191785D01*
X167721591Y-80070816D01*
X167710069Y-79976308D01*
X167718862Y-79891062D01*
X167750680Y-79821476D01*
X167813684Y-79759672D01*
X167916031Y-79697772D01*
X168065882Y-79627897D01*
X168075012Y-79623948D01*
X168209997Y-79561588D01*
X168293294Y-79510446D01*
X168328997Y-79464488D01*
X168321203Y-79417683D01*
X168274007Y-79363998D01*
X168259894Y-79351644D01*
X168165359Y-79303741D01*
X168067406Y-79305758D01*
X167982097Y-79352724D01*
X167925496Y-79439669D01*
X167920237Y-79456734D01*
X167869023Y-79539504D01*
X167804037Y-79579372D01*
X167710069Y-79618882D01*
X167710069Y-79516658D01*
X167738653Y-79368072D01*
X167823495Y-79231784D01*
X167867645Y-79186191D01*
X167968005Y-79127674D01*
X168095635Y-79101184D01*
X168227944Y-79108360D01*
G36*
X166892598Y-78907857D02*
G01*
X166901154Y-79027188D01*
X166910981Y-79097506D01*
X166924599Y-79128179D01*
X166944527Y-79128571D01*
X166950989Y-79124910D01*
X167036940Y-79098398D01*
X167148745Y-79099946D01*
X167262414Y-79127199D01*
X167333510Y-79162455D01*
X167406405Y-79218778D01*
X167459693Y-79282519D01*
X167496275Y-79363510D01*
X167519050Y-79471586D01*
X167530919Y-79616580D01*
X167534782Y-79808326D01*
X167534851Y-79845109D01*
X167534897Y-80258288D01*
X167442954Y-80290339D01*
X167377652Y-80312144D01*
X167341824Y-80322297D01*
X167340770Y-80322391D01*
X167337242Y-80294860D01*
X167334239Y-80218923D01*
X167331990Y-80104565D01*
X167330724Y-79961769D01*
X167330529Y-79874951D01*
X167330123Y-79703773D01*
X167328032Y-79581088D01*
X167322947Y-79497000D01*
X167313560Y-79441614D01*
X167298561Y-79405032D01*
X167276642Y-79377359D01*
X167262957Y-79364032D01*
X167168949Y-79310328D01*
X167066364Y-79306307D01*
X166973290Y-79351725D01*
X166956078Y-79368123D01*
X166930832Y-79398957D01*
X166913320Y-79435531D01*
X166902142Y-79488415D01*
X166895896Y-79568177D01*
X166893182Y-79685385D01*
X166892598Y-79846991D01*
X166892598Y-80258288D01*
X166800655Y-80290339D01*
X166735353Y-80312144D01*
X166699525Y-80322297D01*
X166698471Y-80322391D01*
X166695775Y-80294448D01*
X166693345Y-80215630D01*
X166691278Y-80093453D01*
X166689671Y-79935432D01*
X166688623Y-79749083D01*
X166688231Y-79541920D01*
X166688230Y-79532706D01*
X166688230Y-78743020D01*
X166783115Y-78702997D01*
X166878000Y-78662973D01*
X166892598Y-78907857D01*
G37*
X166892598Y-78907857D02*
X166901154Y-79027188D01*
X166910981Y-79097506D01*
X166924599Y-79128179D01*
X166944527Y-79128571D01*
X166950989Y-79124910D01*
X167036940Y-79098398D01*
X167148745Y-79099946D01*
X167262414Y-79127199D01*
X167333510Y-79162455D01*
X167406405Y-79218778D01*
X167459693Y-79282519D01*
X167496275Y-79363510D01*
X167519050Y-79471586D01*
X167530919Y-79616580D01*
X167534782Y-79808326D01*
X167534851Y-79845109D01*
X167534897Y-80258288D01*
X167442954Y-80290339D01*
X167377652Y-80312144D01*
X167341824Y-80322297D01*
X167340770Y-80322391D01*
X167337242Y-80294860D01*
X167334239Y-80218923D01*
X167331990Y-80104565D01*
X167330724Y-79961769D01*
X167330529Y-79874951D01*
X167330123Y-79703773D01*
X167328032Y-79581088D01*
X167322947Y-79497000D01*
X167313560Y-79441614D01*
X167298561Y-79405032D01*
X167276642Y-79377359D01*
X167262957Y-79364032D01*
X167168949Y-79310328D01*
X167066364Y-79306307D01*
X166973290Y-79351725D01*
X166956078Y-79368123D01*
X166930832Y-79398957D01*
X166913320Y-79435531D01*
X166902142Y-79488415D01*
X166895896Y-79568177D01*
X166893182Y-79685385D01*
X166892598Y-79846991D01*
X166892598Y-80258288D01*
X166800655Y-80290339D01*
X166735353Y-80312144D01*
X166699525Y-80322297D01*
X166698471Y-80322391D01*
X166695775Y-80294448D01*
X166693345Y-80215630D01*
X166691278Y-80093453D01*
X166689671Y-79935432D01*
X166688623Y-79749083D01*
X166688231Y-79541920D01*
X166688230Y-79532706D01*
X166688230Y-78743020D01*
X166783115Y-78702997D01*
X166878000Y-78662973D01*
X166892598Y-78907857D01*
G36*
X164463552Y-79068676D02*
G01*
X164578658Y-79146111D01*
X164667611Y-79257949D01*
X164720749Y-79400265D01*
X164731497Y-79505015D01*
X164730276Y-79548726D01*
X164720056Y-79582194D01*
X164691961Y-79612179D01*
X164637116Y-79645440D01*
X164546645Y-79688738D01*
X164411672Y-79748833D01*
X164410989Y-79749134D01*
X164286751Y-79806037D01*
X164184873Y-79856565D01*
X164115767Y-79895280D01*
X164089846Y-79916740D01*
X164089839Y-79916913D01*
X164112685Y-79963644D01*
X164166109Y-80015154D01*
X164227442Y-80052261D01*
X164258515Y-80059632D01*
X164343289Y-80034138D01*
X164416293Y-79970291D01*
X164451913Y-79900094D01*
X164486180Y-79848343D01*
X164553303Y-79789409D01*
X164632208Y-79738496D01*
X164701821Y-79710809D01*
X164716377Y-79709287D01*
X164732763Y-79734321D01*
X164733750Y-79798311D01*
X164721708Y-79884593D01*
X164699007Y-79976501D01*
X164668014Y-80057369D01*
X164666448Y-80060509D01*
X164573181Y-80190734D01*
X164452304Y-80279311D01*
X164315027Y-80322786D01*
X164172560Y-80317706D01*
X164036112Y-80260616D01*
X164030045Y-80256602D01*
X163922710Y-80159326D01*
X163852132Y-80032409D01*
X163813074Y-79865526D01*
X163807832Y-79818639D01*
X163798548Y-79597329D01*
X163809678Y-79494124D01*
X164089839Y-79494124D01*
X164093479Y-79558503D01*
X164113389Y-79577291D01*
X164163026Y-79563235D01*
X164241267Y-79530009D01*
X164328726Y-79488359D01*
X164330899Y-79487256D01*
X164405030Y-79448265D01*
X164434781Y-79422244D01*
X164427445Y-79394965D01*
X164396553Y-79359121D01*
X164317960Y-79307251D01*
X164233323Y-79303439D01*
X164157403Y-79341189D01*
X164104965Y-79414001D01*
X164089839Y-79494124D01*
X163809678Y-79494124D01*
X163817644Y-79420261D01*
X163866634Y-79279829D01*
X163934836Y-79181447D01*
X164057935Y-79082030D01*
X164193528Y-79032711D01*
X164331955Y-79029568D01*
X164463552Y-79068676D01*
G37*
X164463552Y-79068676D02*
X164578658Y-79146111D01*
X164667611Y-79257949D01*
X164720749Y-79400265D01*
X164731497Y-79505015D01*
X164730276Y-79548726D01*
X164720056Y-79582194D01*
X164691961Y-79612179D01*
X164637116Y-79645440D01*
X164546645Y-79688738D01*
X164411672Y-79748833D01*
X164410989Y-79749134D01*
X164286751Y-79806037D01*
X164184873Y-79856565D01*
X164115767Y-79895280D01*
X164089846Y-79916740D01*
X164089839Y-79916913D01*
X164112685Y-79963644D01*
X164166109Y-80015154D01*
X164227442Y-80052261D01*
X164258515Y-80059632D01*
X164343289Y-80034138D01*
X164416293Y-79970291D01*
X164451913Y-79900094D01*
X164486180Y-79848343D01*
X164553303Y-79789409D01*
X164632208Y-79738496D01*
X164701821Y-79710809D01*
X164716377Y-79709287D01*
X164732763Y-79734321D01*
X164733750Y-79798311D01*
X164721708Y-79884593D01*
X164699007Y-79976501D01*
X164668014Y-80057369D01*
X164666448Y-80060509D01*
X164573181Y-80190734D01*
X164452304Y-80279311D01*
X164315027Y-80322786D01*
X164172560Y-80317706D01*
X164036112Y-80260616D01*
X164030045Y-80256602D01*
X163922710Y-80159326D01*
X163852132Y-80032409D01*
X163813074Y-79865526D01*
X163807832Y-79818639D01*
X163798548Y-79597329D01*
X163809678Y-79494124D01*
X164089839Y-79494124D01*
X164093479Y-79558503D01*
X164113389Y-79577291D01*
X164163026Y-79563235D01*
X164241267Y-79530009D01*
X164328726Y-79488359D01*
X164330899Y-79487256D01*
X164405030Y-79448265D01*
X164434781Y-79422244D01*
X164427445Y-79394965D01*
X164396553Y-79359121D01*
X164317960Y-79307251D01*
X164233323Y-79303439D01*
X164157403Y-79341189D01*
X164104965Y-79414001D01*
X164089839Y-79494124D01*
X163809678Y-79494124D01*
X163817644Y-79420261D01*
X163866634Y-79279829D01*
X163934836Y-79181447D01*
X164057935Y-79082030D01*
X164193528Y-79032711D01*
X164331955Y-79029568D01*
X164463552Y-79068676D01*
G36*
X162196221Y-79050015D02*
G01*
X162333061Y-79121968D01*
X162434051Y-79237766D01*
X162469925Y-79312213D01*
X162497839Y-79423992D01*
X162512129Y-79565227D01*
X162513484Y-79719371D01*
X162502595Y-79869879D01*
X162480153Y-80000205D01*
X162446850Y-80093803D01*
X162436615Y-80109922D01*
X162315382Y-80230249D01*
X162171387Y-80302317D01*
X162015139Y-80323408D01*
X161857148Y-80290802D01*
X161813180Y-80271253D01*
X161727556Y-80211012D01*
X161652408Y-80131135D01*
X161645306Y-80121004D01*
X161616439Y-80072181D01*
X161597357Y-80019990D01*
X161586084Y-79951285D01*
X161580645Y-79852918D01*
X161579062Y-79711744D01*
X161579035Y-79680092D01*
X161579107Y-79670019D01*
X161870989Y-79670019D01*
X161872687Y-79803256D01*
X161879372Y-79891674D01*
X161893425Y-79948785D01*
X161917229Y-79988102D01*
X161929379Y-80001241D01*
X161999236Y-80051172D01*
X162067059Y-80048895D01*
X162135635Y-80005584D01*
X162176535Y-79959346D01*
X162200758Y-79891857D01*
X162214361Y-79785433D01*
X162215294Y-79773020D01*
X162217616Y-79580147D01*
X162193350Y-79436900D01*
X162142824Y-79344160D01*
X162066368Y-79302807D01*
X162039076Y-79300552D01*
X161967411Y-79311893D01*
X161918390Y-79351184D01*
X161888418Y-79426326D01*
X161873899Y-79545222D01*
X161870989Y-79670019D01*
X161579107Y-79670019D01*
X161580122Y-79529659D01*
X161584688Y-79424549D01*
X161594688Y-79351714D01*
X161612079Y-79298108D01*
X161638816Y-79250681D01*
X161644724Y-79241864D01*
X161744032Y-79123007D01*
X161852242Y-79054008D01*
X161983981Y-79026619D01*
X162028717Y-79025281D01*
X162196221Y-79050015D01*
G37*
X162196221Y-79050015D02*
X162333061Y-79121968D01*
X162434051Y-79237766D01*
X162469925Y-79312213D01*
X162497839Y-79423992D01*
X162512129Y-79565227D01*
X162513484Y-79719371D01*
X162502595Y-79869879D01*
X162480153Y-80000205D01*
X162446850Y-80093803D01*
X162436615Y-80109922D01*
X162315382Y-80230249D01*
X162171387Y-80302317D01*
X162015139Y-80323408D01*
X161857148Y-80290802D01*
X161813180Y-80271253D01*
X161727556Y-80211012D01*
X161652408Y-80131135D01*
X161645306Y-80121004D01*
X161616439Y-80072181D01*
X161597357Y-80019990D01*
X161586084Y-79951285D01*
X161580645Y-79852918D01*
X161579062Y-79711744D01*
X161579035Y-79680092D01*
X161579107Y-79670019D01*
X161870989Y-79670019D01*
X161872687Y-79803256D01*
X161879372Y-79891674D01*
X161893425Y-79948785D01*
X161917229Y-79988102D01*
X161929379Y-80001241D01*
X161999236Y-80051172D01*
X162067059Y-80048895D01*
X162135635Y-80005584D01*
X162176535Y-79959346D01*
X162200758Y-79891857D01*
X162214361Y-79785433D01*
X162215294Y-79773020D01*
X162217616Y-79580147D01*
X162193350Y-79436900D01*
X162142824Y-79344160D01*
X162066368Y-79302807D01*
X162039076Y-79300552D01*
X161967411Y-79311893D01*
X161918390Y-79351184D01*
X161888418Y-79426326D01*
X161873899Y-79545222D01*
X161870989Y-79670019D01*
X161579107Y-79670019D01*
X161580122Y-79529659D01*
X161584688Y-79424549D01*
X161594688Y-79351714D01*
X161612079Y-79298108D01*
X161638816Y-79250681D01*
X161644724Y-79241864D01*
X161744032Y-79123007D01*
X161852242Y-79054008D01*
X161983981Y-79026619D01*
X162028717Y-79025281D01*
X162196221Y-79050015D01*
G36*
X165565429Y-79061719D02*
G01*
X165659123Y-79115914D01*
X165724264Y-79169707D01*
X165771907Y-79226066D01*
X165804728Y-79294987D01*
X165825406Y-79386468D01*
X165836620Y-79510506D01*
X165841049Y-79677098D01*
X165841563Y-79796851D01*
X165841563Y-80237659D01*
X165717483Y-80293283D01*
X165593402Y-80348907D01*
X165578805Y-79866095D01*
X165572773Y-79685779D01*
X165566445Y-79554901D01*
X165558606Y-79464511D01*
X165548037Y-79405664D01*
X165533523Y-79369413D01*
X165513848Y-79346810D01*
X165507535Y-79341917D01*
X165411888Y-79303706D01*
X165315207Y-79318827D01*
X165257655Y-79358943D01*
X165234245Y-79387370D01*
X165218039Y-79424672D01*
X165207741Y-79481223D01*
X165202049Y-79567394D01*
X165199664Y-79693558D01*
X165199264Y-79825042D01*
X165199186Y-79989999D01*
X165196361Y-80106761D01*
X165186907Y-80185510D01*
X165166940Y-80236431D01*
X165132576Y-80269706D01*
X165079932Y-80295520D01*
X165009617Y-80322344D01*
X164932820Y-80351542D01*
X164941962Y-79833346D01*
X164945643Y-79646539D01*
X164949950Y-79508490D01*
X164956123Y-79409568D01*
X164965402Y-79340145D01*
X164979027Y-79290590D01*
X164998239Y-79251273D01*
X165021402Y-79216584D01*
X165133152Y-79105770D01*
X165269513Y-79041689D01*
X165417825Y-79026339D01*
X165565429Y-79061719D01*
G37*
X165565429Y-79061719D02*
X165659123Y-79115914D01*
X165724264Y-79169707D01*
X165771907Y-79226066D01*
X165804728Y-79294987D01*
X165825406Y-79386468D01*
X165836620Y-79510506D01*
X165841049Y-79677098D01*
X165841563Y-79796851D01*
X165841563Y-80237659D01*
X165717483Y-80293283D01*
X165593402Y-80348907D01*
X165578805Y-79866095D01*
X165572773Y-79685779D01*
X165566445Y-79554901D01*
X165558606Y-79464511D01*
X165548037Y-79405664D01*
X165533523Y-79369413D01*
X165513848Y-79346810D01*
X165507535Y-79341917D01*
X165411888Y-79303706D01*
X165315207Y-79318827D01*
X165257655Y-79358943D01*
X165234245Y-79387370D01*
X165218039Y-79424672D01*
X165207741Y-79481223D01*
X165202049Y-79567394D01*
X165199664Y-79693558D01*
X165199264Y-79825042D01*
X165199186Y-79989999D01*
X165196361Y-80106761D01*
X165186907Y-80185510D01*
X165166940Y-80236431D01*
X165132576Y-80269706D01*
X165079932Y-80295520D01*
X165009617Y-80322344D01*
X164932820Y-80351542D01*
X164941962Y-79833346D01*
X164945643Y-79646539D01*
X164949950Y-79508490D01*
X164956123Y-79409568D01*
X164965402Y-79340145D01*
X164979027Y-79290590D01*
X164998239Y-79251273D01*
X165021402Y-79216584D01*
X165133152Y-79105770D01*
X165269513Y-79041689D01*
X165417825Y-79026339D01*
X165565429Y-79061719D01*
G36*
X163319900Y-79045903D02*
G01*
X163431450Y-79101522D01*
X163529908Y-79203931D01*
X163557023Y-79241864D01*
X163586562Y-79291500D01*
X163605728Y-79345412D01*
X163616693Y-79417364D01*
X163621629Y-79521122D01*
X163622713Y-79658101D01*
X163617818Y-79845815D01*
X163600804Y-79986758D01*
X163568177Y-80091908D01*
X163516442Y-80172243D01*
X163442104Y-80238741D01*
X163436642Y-80242678D01*
X163363380Y-80282953D01*
X163275160Y-80302880D01*
X163162962Y-80307793D01*
X162980567Y-80307793D01*
X162980491Y-80484857D01*
X162978793Y-80583470D01*
X162968450Y-80641314D01*
X162941422Y-80676006D01*
X162889668Y-80705164D01*
X162877239Y-80711121D01*
X162819077Y-80739039D01*
X162774044Y-80756672D01*
X162740559Y-80758194D01*
X162717038Y-80737781D01*
X162701900Y-80689607D01*
X162693563Y-80607846D01*
X162690444Y-80486672D01*
X162690960Y-80320260D01*
X162693529Y-80102785D01*
X162694332Y-80037736D01*
X162697222Y-79813502D01*
X162699812Y-79666821D01*
X162980414Y-79666821D01*
X162981991Y-79791326D01*
X162989000Y-79872787D01*
X163004858Y-79926515D01*
X163032981Y-79967823D01*
X163052075Y-79987971D01*
X163130135Y-80046921D01*
X163199247Y-80051720D01*
X163270560Y-80003038D01*
X163272368Y-80001241D01*
X163301383Y-79963618D01*
X163319033Y-79912484D01*
X163327936Y-79833738D01*
X163330709Y-79713276D01*
X163330759Y-79686588D01*
X163324058Y-79520583D01*
X163302248Y-79405505D01*
X163262765Y-79335254D01*
X163203044Y-79303729D01*
X163168528Y-79300552D01*
X163086611Y-79315460D01*
X163030421Y-79364548D01*
X162996598Y-79454362D01*
X162981780Y-79591445D01*
X162980414Y-79666821D01*
X162699812Y-79666821D01*
X162700287Y-79639952D01*
X162704247Y-79509382D01*
X162709826Y-79414087D01*
X162717746Y-79346364D01*
X162728731Y-79298507D01*
X162743501Y-79262813D01*
X162762782Y-79231578D01*
X162771049Y-79219824D01*
X162880712Y-79108797D01*
X163019365Y-79045847D01*
X163179754Y-79028297D01*
X163319900Y-79045903D01*
G37*
X163319900Y-79045903D02*
X163431450Y-79101522D01*
X163529908Y-79203931D01*
X163557023Y-79241864D01*
X163586562Y-79291500D01*
X163605728Y-79345412D01*
X163616693Y-79417364D01*
X163621629Y-79521122D01*
X163622713Y-79658101D01*
X163617818Y-79845815D01*
X163600804Y-79986758D01*
X163568177Y-80091908D01*
X163516442Y-80172243D01*
X163442104Y-80238741D01*
X163436642Y-80242678D01*
X163363380Y-80282953D01*
X163275160Y-80302880D01*
X163162962Y-80307793D01*
X162980567Y-80307793D01*
X162980491Y-80484857D01*
X162978793Y-80583470D01*
X162968450Y-80641314D01*
X162941422Y-80676006D01*
X162889668Y-80705164D01*
X162877239Y-80711121D01*
X162819077Y-80739039D01*
X162774044Y-80756672D01*
X162740559Y-80758194D01*
X162717038Y-80737781D01*
X162701900Y-80689607D01*
X162693563Y-80607846D01*
X162690444Y-80486672D01*
X162690960Y-80320260D01*
X162693529Y-80102785D01*
X162694332Y-80037736D01*
X162697222Y-79813502D01*
X162699812Y-79666821D01*
X162980414Y-79666821D01*
X162981991Y-79791326D01*
X162989000Y-79872787D01*
X163004858Y-79926515D01*
X163032981Y-79967823D01*
X163052075Y-79987971D01*
X163130135Y-80046921D01*
X163199247Y-80051720D01*
X163270560Y-80003038D01*
X163272368Y-80001241D01*
X163301383Y-79963618D01*
X163319033Y-79912484D01*
X163327936Y-79833738D01*
X163330709Y-79713276D01*
X163330759Y-79686588D01*
X163324058Y-79520583D01*
X163302248Y-79405505D01*
X163262765Y-79335254D01*
X163203044Y-79303729D01*
X163168528Y-79300552D01*
X163086611Y-79315460D01*
X163030421Y-79364548D01*
X162996598Y-79454362D01*
X162981780Y-79591445D01*
X162980414Y-79666821D01*
X162699812Y-79666821D01*
X162700287Y-79639952D01*
X162704247Y-79509382D01*
X162709826Y-79414087D01*
X162717746Y-79346364D01*
X162728731Y-79298507D01*
X162743501Y-79262813D01*
X162762782Y-79231578D01*
X162771049Y-79219824D01*
X162880712Y-79108797D01*
X163019365Y-79045847D01*
X163179754Y-79028297D01*
X163319900Y-79045903D01*
D11*
%TO.C,R6*%
X164311000Y-59917064D02*
X164311000Y-59462936D01*
X162841000Y-59917064D02*
X162841000Y-59462936D01*
%TO.C,D1*%
X161016000Y-55436000D02*
X161016000Y-55901000D01*
X161016000Y-52811000D02*
X161016000Y-53276000D01*
X165830479Y-55436429D02*
G75*
G02*
X161321316Y-55436000I-2254479J1080429D01*
G01*
X165830479Y-53275571D02*
G75*
G03*
X161321316Y-53276000I-2254479J-1080429D01*
G01*
X166363815Y-55436827D02*
G75*
G02*
X161016000Y-55900830I-2787815J1080827D01*
G01*
X166363815Y-53275173D02*
G75*
G03*
X161016000Y-52811170I-2787815J-1080827D01*
G01*
%TO.C,U1*%
X139200000Y-48206000D02*
X138820000Y-48206000D01*
X139200000Y-41786000D02*
X139200000Y-48206000D01*
X157440000Y-41786000D02*
X157440000Y-48206000D01*
X139200000Y-41786000D02*
X157440000Y-41786000D01*
X157440000Y-67531000D02*
X156440000Y-67531000D01*
X157440000Y-66751000D02*
X157440000Y-67531000D01*
X139200000Y-67531000D02*
X140200000Y-67531000D01*
X139200000Y-66751000D02*
X139200000Y-67531000D01*
%TO.C,R8*%
X160300936Y-50519000D02*
X160755064Y-50519000D01*
X160300936Y-49049000D02*
X160755064Y-49049000D01*
%TO.C,R2*%
X135154936Y-54583000D02*
X135609064Y-54583000D01*
X135154936Y-53113000D02*
X135609064Y-53113000D01*
%TO.C,R5*%
X122401064Y-65559000D02*
X121946936Y-65559000D01*
X122401064Y-67029000D02*
X121946936Y-67029000D01*
%TO.C,R3*%
X121946936Y-74903000D02*
X122401064Y-74903000D01*
X121946936Y-73433000D02*
X122401064Y-73433000D01*
%TO.C,R1*%
X161263000Y-61949064D02*
X161263000Y-61494936D01*
X159793000Y-61949064D02*
X159793000Y-61494936D01*
%TO.C,C8*%
X176757000Y-93733252D02*
X176757000Y-93210748D01*
X175287000Y-93733252D02*
X175287000Y-93210748D01*
%TO.C,C1*%
X136879000Y-51061252D02*
X136879000Y-50538748D01*
X135409000Y-51061252D02*
X135409000Y-50538748D01*
%TO.C,C3*%
X135409000Y-56888748D02*
X135409000Y-57411252D01*
X136879000Y-56888748D02*
X136879000Y-57411252D01*
%TO.C,C2*%
X129251225Y-56441000D02*
X129251225Y-56941000D01*
X129001225Y-56691000D02*
X129501225Y-56691000D01*
X134407000Y-57882000D02*
X134407000Y-58450000D01*
X134367000Y-57648000D02*
X134367000Y-58684000D01*
X134327000Y-57489000D02*
X134327000Y-58843000D01*
X134287000Y-57361000D02*
X134287000Y-58971000D01*
X134247000Y-57251000D02*
X134247000Y-59081000D01*
X134207000Y-57155000D02*
X134207000Y-59177000D01*
X134167000Y-57068000D02*
X134167000Y-59264000D01*
X134127000Y-56988000D02*
X134127000Y-59344000D01*
X134087000Y-59206000D02*
X134087000Y-59417000D01*
X134087000Y-56915000D02*
X134087000Y-57126000D01*
X134047000Y-59206000D02*
X134047000Y-59485000D01*
X134047000Y-56847000D02*
X134047000Y-57126000D01*
X134007000Y-59206000D02*
X134007000Y-59549000D01*
X134007000Y-56783000D02*
X134007000Y-57126000D01*
X133967000Y-59206000D02*
X133967000Y-59609000D01*
X133967000Y-56723000D02*
X133967000Y-57126000D01*
X133927000Y-59206000D02*
X133927000Y-59666000D01*
X133927000Y-56666000D02*
X133927000Y-57126000D01*
X133887000Y-59206000D02*
X133887000Y-59720000D01*
X133887000Y-56612000D02*
X133887000Y-57126000D01*
X133847000Y-59206000D02*
X133847000Y-59771000D01*
X133847000Y-56561000D02*
X133847000Y-57126000D01*
X133807000Y-59206000D02*
X133807000Y-59819000D01*
X133807000Y-56513000D02*
X133807000Y-57126000D01*
X133767000Y-59206000D02*
X133767000Y-59865000D01*
X133767000Y-56467000D02*
X133767000Y-57126000D01*
X133727000Y-59206000D02*
X133727000Y-59909000D01*
X133727000Y-56423000D02*
X133727000Y-57126000D01*
X133687000Y-59206000D02*
X133687000Y-59951000D01*
X133687000Y-56381000D02*
X133687000Y-57126000D01*
X133647000Y-59206000D02*
X133647000Y-59992000D01*
X133647000Y-56340000D02*
X133647000Y-57126000D01*
X133607000Y-59206000D02*
X133607000Y-60030000D01*
X133607000Y-56302000D02*
X133607000Y-57126000D01*
X133567000Y-59206000D02*
X133567000Y-60067000D01*
X133567000Y-56265000D02*
X133567000Y-57126000D01*
X133527000Y-59206000D02*
X133527000Y-60103000D01*
X133527000Y-56229000D02*
X133527000Y-57126000D01*
X133487000Y-59206000D02*
X133487000Y-60137000D01*
X133487000Y-56195000D02*
X133487000Y-57126000D01*
X133447000Y-59206000D02*
X133447000Y-60170000D01*
X133447000Y-56162000D02*
X133447000Y-57126000D01*
X133407000Y-59206000D02*
X133407000Y-60201000D01*
X133407000Y-56131000D02*
X133407000Y-57126000D01*
X133367000Y-59206000D02*
X133367000Y-60231000D01*
X133367000Y-56101000D02*
X133367000Y-57126000D01*
X133327000Y-59206000D02*
X133327000Y-60261000D01*
X133327000Y-56071000D02*
X133327000Y-57126000D01*
X133287000Y-59206000D02*
X133287000Y-60288000D01*
X133287000Y-56044000D02*
X133287000Y-57126000D01*
X133247000Y-59206000D02*
X133247000Y-60315000D01*
X133247000Y-56017000D02*
X133247000Y-57126000D01*
X133207000Y-59206000D02*
X133207000Y-60341000D01*
X133207000Y-55991000D02*
X133207000Y-57126000D01*
X133167000Y-59206000D02*
X133167000Y-60366000D01*
X133167000Y-55966000D02*
X133167000Y-57126000D01*
X133127000Y-59206000D02*
X133127000Y-60390000D01*
X133127000Y-55942000D02*
X133127000Y-57126000D01*
X133087000Y-59206000D02*
X133087000Y-60413000D01*
X133087000Y-55919000D02*
X133087000Y-57126000D01*
X133047000Y-59206000D02*
X133047000Y-60434000D01*
X133047000Y-55898000D02*
X133047000Y-57126000D01*
X133007000Y-59206000D02*
X133007000Y-60456000D01*
X133007000Y-55876000D02*
X133007000Y-57126000D01*
X132967000Y-59206000D02*
X132967000Y-60476000D01*
X132967000Y-55856000D02*
X132967000Y-57126000D01*
X132927000Y-59206000D02*
X132927000Y-60495000D01*
X132927000Y-55837000D02*
X132927000Y-57126000D01*
X132887000Y-59206000D02*
X132887000Y-60514000D01*
X132887000Y-55818000D02*
X132887000Y-57126000D01*
X132847000Y-59206000D02*
X132847000Y-60531000D01*
X132847000Y-55801000D02*
X132847000Y-57126000D01*
X132807000Y-59206000D02*
X132807000Y-60548000D01*
X132807000Y-55784000D02*
X132807000Y-57126000D01*
X132767000Y-59206000D02*
X132767000Y-60564000D01*
X132767000Y-55768000D02*
X132767000Y-57126000D01*
X132727000Y-59206000D02*
X132727000Y-60580000D01*
X132727000Y-55752000D02*
X132727000Y-57126000D01*
X132687000Y-59206000D02*
X132687000Y-60594000D01*
X132687000Y-55738000D02*
X132687000Y-57126000D01*
X132647000Y-59206000D02*
X132647000Y-60608000D01*
X132647000Y-55724000D02*
X132647000Y-57126000D01*
X132607000Y-59206000D02*
X132607000Y-60621000D01*
X132607000Y-55711000D02*
X132607000Y-57126000D01*
X132567000Y-59206000D02*
X132567000Y-60634000D01*
X132567000Y-55698000D02*
X132567000Y-57126000D01*
X132527000Y-59206000D02*
X132527000Y-60646000D01*
X132527000Y-55686000D02*
X132527000Y-57126000D01*
X132486000Y-59206000D02*
X132486000Y-60657000D01*
X132486000Y-55675000D02*
X132486000Y-57126000D01*
X132446000Y-59206000D02*
X132446000Y-60667000D01*
X132446000Y-55665000D02*
X132446000Y-57126000D01*
X132406000Y-59206000D02*
X132406000Y-60677000D01*
X132406000Y-55655000D02*
X132406000Y-57126000D01*
X132366000Y-59206000D02*
X132366000Y-60686000D01*
X132366000Y-55646000D02*
X132366000Y-57126000D01*
X132326000Y-59206000D02*
X132326000Y-60694000D01*
X132326000Y-55638000D02*
X132326000Y-57126000D01*
X132286000Y-59206000D02*
X132286000Y-60702000D01*
X132286000Y-55630000D02*
X132286000Y-57126000D01*
X132246000Y-59206000D02*
X132246000Y-60709000D01*
X132246000Y-55623000D02*
X132246000Y-57126000D01*
X132206000Y-59206000D02*
X132206000Y-60716000D01*
X132206000Y-55616000D02*
X132206000Y-57126000D01*
X132166000Y-59206000D02*
X132166000Y-60722000D01*
X132166000Y-55610000D02*
X132166000Y-57126000D01*
X132126000Y-59206000D02*
X132126000Y-60727000D01*
X132126000Y-55605000D02*
X132126000Y-57126000D01*
X132086000Y-59206000D02*
X132086000Y-60731000D01*
X132086000Y-55601000D02*
X132086000Y-57126000D01*
X132046000Y-59206000D02*
X132046000Y-60735000D01*
X132046000Y-55597000D02*
X132046000Y-57126000D01*
X132006000Y-55593000D02*
X132006000Y-60739000D01*
X131966000Y-55590000D02*
X131966000Y-60742000D01*
X131926000Y-55588000D02*
X131926000Y-60744000D01*
X131886000Y-55587000D02*
X131886000Y-60745000D01*
X131846000Y-55586000D02*
X131846000Y-60746000D01*
X131806000Y-55586000D02*
X131806000Y-60746000D01*
X134426000Y-58166000D02*
G75*
G03*
X134426000Y-58166000I-2620000J0D01*
G01*
%TO.C,J2*%
X167050000Y-98830000D02*
X167050000Y-97500000D01*
X168380000Y-98830000D02*
X167050000Y-98830000D01*
X169650000Y-98830000D02*
X169650000Y-96170000D01*
X169650000Y-96170000D02*
X177330000Y-96170000D01*
X169650000Y-98830000D02*
X177330000Y-98830000D01*
X177330000Y-98830000D02*
X177330000Y-96170000D01*
%TO.C,J3*%
X116680600Y-65065000D02*
X118010600Y-65065000D01*
X116680600Y-66395000D02*
X116680600Y-65065000D01*
X116680600Y-67665000D02*
X119340600Y-67665000D01*
X119340600Y-67665000D02*
X119340600Y-80425000D01*
X116680600Y-67665000D02*
X116680600Y-80425000D01*
X116680600Y-80425000D02*
X119340600Y-80425000D01*
%TO.C,J1*%
D13*
X117322380Y-97933333D02*
X118036666Y-97933333D01*
X118179523Y-97980952D01*
X118274761Y-98076190D01*
X118322380Y-98219047D01*
X118322380Y-98314285D01*
X118322380Y-96933333D02*
X118322380Y-97504761D01*
X118322380Y-97219047D02*
X117322380Y-97219047D01*
X117465238Y-97314285D01*
X117560476Y-97409523D01*
X117608095Y-97504761D01*
%TO.C,Y1*%
X150604190Y-80740190D02*
X151080380Y-80740190D01*
X150080380Y-81073523D02*
X150604190Y-80740190D01*
X150080380Y-80406857D01*
X151080380Y-79549714D02*
X151080380Y-80121142D01*
X151080380Y-79835428D02*
X150080380Y-79835428D01*
X150223238Y-79930666D01*
X150318476Y-80025904D01*
X150366095Y-80121142D01*
%TO.C,U3*%
X144272095Y-89368380D02*
X144272095Y-90177904D01*
X144319714Y-90273142D01*
X144367333Y-90320761D01*
X144462571Y-90368380D01*
X144653047Y-90368380D01*
X144748285Y-90320761D01*
X144795904Y-90273142D01*
X144843523Y-90177904D01*
X144843523Y-89368380D01*
X145224476Y-89368380D02*
X145843523Y-89368380D01*
X145510190Y-89749333D01*
X145653047Y-89749333D01*
X145748285Y-89796952D01*
X145795904Y-89844571D01*
X145843523Y-89939809D01*
X145843523Y-90177904D01*
X145795904Y-90273142D01*
X145748285Y-90320761D01*
X145653047Y-90368380D01*
X145367333Y-90368380D01*
X145272095Y-90320761D01*
X145224476Y-90273142D01*
%TO.C,U2*%
X144780095Y-80932380D02*
X144780095Y-81741904D01*
X144827714Y-81837142D01*
X144875333Y-81884761D01*
X144970571Y-81932380D01*
X145161047Y-81932380D01*
X145256285Y-81884761D01*
X145303904Y-81837142D01*
X145351523Y-81741904D01*
X145351523Y-80932380D01*
X145780095Y-81027619D02*
X145827714Y-80980000D01*
X145922952Y-80932380D01*
X146161047Y-80932380D01*
X146256285Y-80980000D01*
X146303904Y-81027619D01*
X146351523Y-81122857D01*
X146351523Y-81218095D01*
X146303904Y-81360952D01*
X145732476Y-81932380D01*
X146351523Y-81932380D01*
%TO.C,R9*%
X129627333Y-84146380D02*
X129294000Y-83670190D01*
X129055904Y-84146380D02*
X129055904Y-83146380D01*
X129436857Y-83146380D01*
X129532095Y-83194000D01*
X129579714Y-83241619D01*
X129627333Y-83336857D01*
X129627333Y-83479714D01*
X129579714Y-83574952D01*
X129532095Y-83622571D01*
X129436857Y-83670190D01*
X129055904Y-83670190D01*
X130103523Y-84146380D02*
X130294000Y-84146380D01*
X130389238Y-84098761D01*
X130436857Y-84051142D01*
X130532095Y-83908285D01*
X130579714Y-83717809D01*
X130579714Y-83336857D01*
X130532095Y-83241619D01*
X130484476Y-83194000D01*
X130389238Y-83146380D01*
X130198761Y-83146380D01*
X130103523Y-83194000D01*
X130055904Y-83241619D01*
X130008285Y-83336857D01*
X130008285Y-83574952D01*
X130055904Y-83670190D01*
X130103523Y-83717809D01*
X130198761Y-83765428D01*
X130389238Y-83765428D01*
X130484476Y-83717809D01*
X130532095Y-83670190D01*
X130579714Y-83574952D01*
%TO.C,R7*%
X136231333Y-73350380D02*
X135898000Y-72874190D01*
X135659904Y-73350380D02*
X135659904Y-72350380D01*
X136040857Y-72350380D01*
X136136095Y-72398000D01*
X136183714Y-72445619D01*
X136231333Y-72540857D01*
X136231333Y-72683714D01*
X136183714Y-72778952D01*
X136136095Y-72826571D01*
X136040857Y-72874190D01*
X135659904Y-72874190D01*
X136564666Y-72350380D02*
X137231333Y-72350380D01*
X136802761Y-73350380D01*
%TO.C,R4*%
X135977333Y-77668380D02*
X135644000Y-77192190D01*
X135405904Y-77668380D02*
X135405904Y-76668380D01*
X135786857Y-76668380D01*
X135882095Y-76716000D01*
X135929714Y-76763619D01*
X135977333Y-76858857D01*
X135977333Y-77001714D01*
X135929714Y-77096952D01*
X135882095Y-77144571D01*
X135786857Y-77192190D01*
X135405904Y-77192190D01*
X136834476Y-77001714D02*
X136834476Y-77668380D01*
X136596380Y-76620761D02*
X136358285Y-77335047D01*
X136977333Y-77335047D01*
%TO.C,J4*%
X125650666Y-82466380D02*
X125650666Y-83180666D01*
X125603047Y-83323523D01*
X125507809Y-83418761D01*
X125364952Y-83466380D01*
X125269714Y-83466380D01*
X126555428Y-82799714D02*
X126555428Y-83466380D01*
X126317333Y-82418761D02*
X126079238Y-83133047D01*
X126698285Y-83133047D01*
%TO.C,D2*%
X135913904Y-82748380D02*
X135913904Y-81748380D01*
X136152000Y-81748380D01*
X136294857Y-81796000D01*
X136390095Y-81891238D01*
X136437714Y-81986476D01*
X136485333Y-82176952D01*
X136485333Y-82319809D01*
X136437714Y-82510285D01*
X136390095Y-82605523D01*
X136294857Y-82700761D01*
X136152000Y-82748380D01*
X135913904Y-82748380D01*
X136866285Y-81843619D02*
X136913904Y-81796000D01*
X137009142Y-81748380D01*
X137247238Y-81748380D01*
X137342476Y-81796000D01*
X137390095Y-81843619D01*
X137437714Y-81938857D01*
X137437714Y-82034095D01*
X137390095Y-82176952D01*
X136818666Y-82748380D01*
X137437714Y-82748380D01*
%TO.C,C7*%
X154265333Y-87323142D02*
X154217714Y-87370761D01*
X154074857Y-87418380D01*
X153979619Y-87418380D01*
X153836761Y-87370761D01*
X153741523Y-87275523D01*
X153693904Y-87180285D01*
X153646285Y-86989809D01*
X153646285Y-86846952D01*
X153693904Y-86656476D01*
X153741523Y-86561238D01*
X153836761Y-86466000D01*
X153979619Y-86418380D01*
X154074857Y-86418380D01*
X154217714Y-86466000D01*
X154265333Y-86513619D01*
X154598666Y-86418380D02*
X155265333Y-86418380D01*
X154836761Y-87418380D01*
%TO.C,C6*%
X154199333Y-70813142D02*
X154151714Y-70860761D01*
X154008857Y-70908380D01*
X153913619Y-70908380D01*
X153770761Y-70860761D01*
X153675523Y-70765523D01*
X153627904Y-70670285D01*
X153580285Y-70479809D01*
X153580285Y-70336952D01*
X153627904Y-70146476D01*
X153675523Y-70051238D01*
X153770761Y-69956000D01*
X153913619Y-69908380D01*
X154008857Y-69908380D01*
X154151714Y-69956000D01*
X154199333Y-70003619D01*
X155056476Y-69908380D02*
X154866000Y-69908380D01*
X154770761Y-69956000D01*
X154723142Y-70003619D01*
X154627904Y-70146476D01*
X154580285Y-70336952D01*
X154580285Y-70717904D01*
X154627904Y-70813142D01*
X154675523Y-70860761D01*
X154770761Y-70908380D01*
X154961238Y-70908380D01*
X155056476Y-70860761D01*
X155104095Y-70813142D01*
X155151714Y-70717904D01*
X155151714Y-70479809D01*
X155104095Y-70384571D01*
X155056476Y-70336952D01*
X154961238Y-70289333D01*
X154770761Y-70289333D01*
X154675523Y-70336952D01*
X154627904Y-70384571D01*
X154580285Y-70479809D01*
%TO.C,C5*%
X135977333Y-80113142D02*
X135929714Y-80160761D01*
X135786857Y-80208380D01*
X135691619Y-80208380D01*
X135548761Y-80160761D01*
X135453523Y-80065523D01*
X135405904Y-79970285D01*
X135358285Y-79779809D01*
X135358285Y-79636952D01*
X135405904Y-79446476D01*
X135453523Y-79351238D01*
X135548761Y-79256000D01*
X135691619Y-79208380D01*
X135786857Y-79208380D01*
X135929714Y-79256000D01*
X135977333Y-79303619D01*
X136882095Y-79208380D02*
X136405904Y-79208380D01*
X136358285Y-79684571D01*
X136405904Y-79636952D01*
X136501142Y-79589333D01*
X136739238Y-79589333D01*
X136834476Y-79636952D01*
X136882095Y-79684571D01*
X136929714Y-79779809D01*
X136929714Y-80017904D01*
X136882095Y-80113142D01*
X136834476Y-80160761D01*
X136739238Y-80208380D01*
X136501142Y-80208380D01*
X136405904Y-80160761D01*
X136358285Y-80113142D01*
%TO.C,C4*%
X137247333Y-90175142D02*
X137199714Y-90222761D01*
X137056857Y-90270380D01*
X136961619Y-90270380D01*
X136818761Y-90222761D01*
X136723523Y-90127523D01*
X136675904Y-90032285D01*
X136628285Y-89841809D01*
X136628285Y-89698952D01*
X136675904Y-89508476D01*
X136723523Y-89413238D01*
X136818761Y-89318000D01*
X136961619Y-89270380D01*
X137056857Y-89270380D01*
X137199714Y-89318000D01*
X137247333Y-89365619D01*
X138104476Y-89603714D02*
X138104476Y-90270380D01*
X137866380Y-89222761D02*
X137628285Y-89937047D01*
X138247333Y-89937047D01*
%TO.C,R6*%
X162378380Y-59856666D02*
X161902190Y-60190000D01*
X162378380Y-60428095D02*
X161378380Y-60428095D01*
X161378380Y-60047142D01*
X161426000Y-59951904D01*
X161473619Y-59904285D01*
X161568857Y-59856666D01*
X161711714Y-59856666D01*
X161806952Y-59904285D01*
X161854571Y-59951904D01*
X161902190Y-60047142D01*
X161902190Y-60428095D01*
X161378380Y-58999523D02*
X161378380Y-59190000D01*
X161426000Y-59285238D01*
X161473619Y-59332857D01*
X161616476Y-59428095D01*
X161806952Y-59475714D01*
X162187904Y-59475714D01*
X162283142Y-59428095D01*
X162330761Y-59380476D01*
X162378380Y-59285238D01*
X162378380Y-59094761D01*
X162330761Y-58999523D01*
X162283142Y-58951904D01*
X162187904Y-58904285D01*
X161949809Y-58904285D01*
X161854571Y-58951904D01*
X161806952Y-58999523D01*
X161759333Y-59094761D01*
X161759333Y-59285238D01*
X161806952Y-59380476D01*
X161854571Y-59428095D01*
X161949809Y-59475714D01*
%TO.C,D1*%
X166393904Y-57348380D02*
X166393904Y-56348380D01*
X166632000Y-56348380D01*
X166774857Y-56396000D01*
X166870095Y-56491238D01*
X166917714Y-56586476D01*
X166965333Y-56776952D01*
X166965333Y-56919809D01*
X166917714Y-57110285D01*
X166870095Y-57205523D01*
X166774857Y-57300761D01*
X166632000Y-57348380D01*
X166393904Y-57348380D01*
X167917714Y-57348380D02*
X167346285Y-57348380D01*
X167632000Y-57348380D02*
X167632000Y-56348380D01*
X167536761Y-56491238D01*
X167441523Y-56586476D01*
X167346285Y-56634095D01*
%TO.C,U1*%
X137162380Y-66842904D02*
X137971904Y-66842904D01*
X138067142Y-66795285D01*
X138114761Y-66747666D01*
X138162380Y-66652428D01*
X138162380Y-66461952D01*
X138114761Y-66366714D01*
X138067142Y-66319095D01*
X137971904Y-66271476D01*
X137162380Y-66271476D01*
X138162380Y-65271476D02*
X138162380Y-65842904D01*
X138162380Y-65557190D02*
X137162380Y-65557190D01*
X137305238Y-65652428D01*
X137400476Y-65747666D01*
X137448095Y-65842904D01*
%TO.C,R8*%
X163520380Y-49950666D02*
X163044190Y-50284000D01*
X163520380Y-50522095D02*
X162520380Y-50522095D01*
X162520380Y-50141142D01*
X162568000Y-50045904D01*
X162615619Y-49998285D01*
X162710857Y-49950666D01*
X162853714Y-49950666D01*
X162948952Y-49998285D01*
X162996571Y-50045904D01*
X163044190Y-50141142D01*
X163044190Y-50522095D01*
X162948952Y-49379238D02*
X162901333Y-49474476D01*
X162853714Y-49522095D01*
X162758476Y-49569714D01*
X162710857Y-49569714D01*
X162615619Y-49522095D01*
X162568000Y-49474476D01*
X162520380Y-49379238D01*
X162520380Y-49188761D01*
X162568000Y-49093523D01*
X162615619Y-49045904D01*
X162710857Y-48998285D01*
X162758476Y-48998285D01*
X162853714Y-49045904D01*
X162901333Y-49093523D01*
X162948952Y-49188761D01*
X162948952Y-49379238D01*
X162996571Y-49474476D01*
X163044190Y-49522095D01*
X163139428Y-49569714D01*
X163329904Y-49569714D01*
X163425142Y-49522095D01*
X163472761Y-49474476D01*
X163520380Y-49379238D01*
X163520380Y-49188761D01*
X163472761Y-49093523D01*
X163425142Y-49045904D01*
X163329904Y-48998285D01*
X163139428Y-48998285D01*
X163044190Y-49045904D01*
X162996571Y-49093523D01*
X162948952Y-49188761D01*
%TO.C,R2*%
X131913333Y-54300380D02*
X131580000Y-53824190D01*
X131341904Y-54300380D02*
X131341904Y-53300380D01*
X131722857Y-53300380D01*
X131818095Y-53348000D01*
X131865714Y-53395619D01*
X131913333Y-53490857D01*
X131913333Y-53633714D01*
X131865714Y-53728952D01*
X131818095Y-53776571D01*
X131722857Y-53824190D01*
X131341904Y-53824190D01*
X132294285Y-53395619D02*
X132341904Y-53348000D01*
X132437142Y-53300380D01*
X132675238Y-53300380D01*
X132770476Y-53348000D01*
X132818095Y-53395619D01*
X132865714Y-53490857D01*
X132865714Y-53586095D01*
X132818095Y-53728952D01*
X132246666Y-54300380D01*
X132865714Y-54300380D01*
%TO.C,R5*%
X125055333Y-66746380D02*
X124722000Y-66270190D01*
X124483904Y-66746380D02*
X124483904Y-65746380D01*
X124864857Y-65746380D01*
X124960095Y-65794000D01*
X125007714Y-65841619D01*
X125055333Y-65936857D01*
X125055333Y-66079714D01*
X125007714Y-66174952D01*
X124960095Y-66222571D01*
X124864857Y-66270190D01*
X124483904Y-66270190D01*
X125960095Y-65746380D02*
X125483904Y-65746380D01*
X125436285Y-66222571D01*
X125483904Y-66174952D01*
X125579142Y-66127333D01*
X125817238Y-66127333D01*
X125912476Y-66174952D01*
X125960095Y-66222571D01*
X126007714Y-66317809D01*
X126007714Y-66555904D01*
X125960095Y-66651142D01*
X125912476Y-66698761D01*
X125817238Y-66746380D01*
X125579142Y-66746380D01*
X125483904Y-66698761D01*
X125436285Y-66651142D01*
%TO.C,R3*%
X125055333Y-74620380D02*
X124722000Y-74144190D01*
X124483904Y-74620380D02*
X124483904Y-73620380D01*
X124864857Y-73620380D01*
X124960095Y-73668000D01*
X125007714Y-73715619D01*
X125055333Y-73810857D01*
X125055333Y-73953714D01*
X125007714Y-74048952D01*
X124960095Y-74096571D01*
X124864857Y-74144190D01*
X124483904Y-74144190D01*
X125388666Y-73620380D02*
X126007714Y-73620380D01*
X125674380Y-74001333D01*
X125817238Y-74001333D01*
X125912476Y-74048952D01*
X125960095Y-74096571D01*
X126007714Y-74191809D01*
X126007714Y-74429904D01*
X125960095Y-74525142D01*
X125912476Y-74572761D01*
X125817238Y-74620380D01*
X125531523Y-74620380D01*
X125436285Y-74572761D01*
X125388666Y-74525142D01*
%TO.C,R1*%
X159330380Y-61888666D02*
X158854190Y-62222000D01*
X159330380Y-62460095D02*
X158330380Y-62460095D01*
X158330380Y-62079142D01*
X158378000Y-61983904D01*
X158425619Y-61936285D01*
X158520857Y-61888666D01*
X158663714Y-61888666D01*
X158758952Y-61936285D01*
X158806571Y-61983904D01*
X158854190Y-62079142D01*
X158854190Y-62460095D01*
X159330380Y-60936285D02*
X159330380Y-61507714D01*
X159330380Y-61222000D02*
X158330380Y-61222000D01*
X158473238Y-61317238D01*
X158568476Y-61412476D01*
X158616095Y-61507714D01*
%TO.C,C8*%
X174699142Y-93638666D02*
X174746761Y-93686285D01*
X174794380Y-93829142D01*
X174794380Y-93924380D01*
X174746761Y-94067238D01*
X174651523Y-94162476D01*
X174556285Y-94210095D01*
X174365809Y-94257714D01*
X174222952Y-94257714D01*
X174032476Y-94210095D01*
X173937238Y-94162476D01*
X173842000Y-94067238D01*
X173794380Y-93924380D01*
X173794380Y-93829142D01*
X173842000Y-93686285D01*
X173889619Y-93638666D01*
X174222952Y-93067238D02*
X174175333Y-93162476D01*
X174127714Y-93210095D01*
X174032476Y-93257714D01*
X173984857Y-93257714D01*
X173889619Y-93210095D01*
X173842000Y-93162476D01*
X173794380Y-93067238D01*
X173794380Y-92876761D01*
X173842000Y-92781523D01*
X173889619Y-92733904D01*
X173984857Y-92686285D01*
X174032476Y-92686285D01*
X174127714Y-92733904D01*
X174175333Y-92781523D01*
X174222952Y-92876761D01*
X174222952Y-93067238D01*
X174270571Y-93162476D01*
X174318190Y-93210095D01*
X174413428Y-93257714D01*
X174603904Y-93257714D01*
X174699142Y-93210095D01*
X174746761Y-93162476D01*
X174794380Y-93067238D01*
X174794380Y-92876761D01*
X174746761Y-92781523D01*
X174699142Y-92733904D01*
X174603904Y-92686285D01*
X174413428Y-92686285D01*
X174318190Y-92733904D01*
X174270571Y-92781523D01*
X174222952Y-92876761D01*
%TO.C,C1*%
X134723142Y-50966666D02*
X134770761Y-51014285D01*
X134818380Y-51157142D01*
X134818380Y-51252380D01*
X134770761Y-51395238D01*
X134675523Y-51490476D01*
X134580285Y-51538095D01*
X134389809Y-51585714D01*
X134246952Y-51585714D01*
X134056476Y-51538095D01*
X133961238Y-51490476D01*
X133866000Y-51395238D01*
X133818380Y-51252380D01*
X133818380Y-51157142D01*
X133866000Y-51014285D01*
X133913619Y-50966666D01*
X134818380Y-50014285D02*
X134818380Y-50585714D01*
X134818380Y-50300000D02*
X133818380Y-50300000D01*
X133961238Y-50395238D01*
X134056476Y-50490476D01*
X134104095Y-50585714D01*
%TO.C,C3*%
X135977333Y-60301142D02*
X135929714Y-60348761D01*
X135786857Y-60396380D01*
X135691619Y-60396380D01*
X135548761Y-60348761D01*
X135453523Y-60253523D01*
X135405904Y-60158285D01*
X135358285Y-59967809D01*
X135358285Y-59824952D01*
X135405904Y-59634476D01*
X135453523Y-59539238D01*
X135548761Y-59444000D01*
X135691619Y-59396380D01*
X135786857Y-59396380D01*
X135929714Y-59444000D01*
X135977333Y-59491619D01*
X136310666Y-59396380D02*
X136929714Y-59396380D01*
X136596380Y-59777333D01*
X136739238Y-59777333D01*
X136834476Y-59824952D01*
X136882095Y-59872571D01*
X136929714Y-59967809D01*
X136929714Y-60205904D01*
X136882095Y-60301142D01*
X136834476Y-60348761D01*
X136739238Y-60396380D01*
X136453523Y-60396380D01*
X136358285Y-60348761D01*
X136310666Y-60301142D01*
%TO.C,C2*%
X135723333Y-58523142D02*
X135675714Y-58570761D01*
X135532857Y-58618380D01*
X135437619Y-58618380D01*
X135294761Y-58570761D01*
X135199523Y-58475523D01*
X135151904Y-58380285D01*
X135104285Y-58189809D01*
X135104285Y-58046952D01*
X135151904Y-57856476D01*
X135199523Y-57761238D01*
X135294761Y-57666000D01*
X135437619Y-57618380D01*
X135532857Y-57618380D01*
X135675714Y-57666000D01*
X135723333Y-57713619D01*
X136104285Y-57713619D02*
X136151904Y-57666000D01*
X136247142Y-57618380D01*
X136485238Y-57618380D01*
X136580476Y-57666000D01*
X136628095Y-57713619D01*
X136675714Y-57808857D01*
X136675714Y-57904095D01*
X136628095Y-58046952D01*
X136056666Y-58618380D01*
X136675714Y-58618380D01*
%TO.C,J2*%
X165502380Y-97833333D02*
X166216666Y-97833333D01*
X166359523Y-97880952D01*
X166454761Y-97976190D01*
X166502380Y-98119047D01*
X166502380Y-98214285D01*
X165597619Y-97404761D02*
X165550000Y-97357142D01*
X165502380Y-97261904D01*
X165502380Y-97023809D01*
X165550000Y-96928571D01*
X165597619Y-96880952D01*
X165692857Y-96833333D01*
X165788095Y-96833333D01*
X165930952Y-96880952D01*
X166502380Y-97452380D01*
X166502380Y-96833333D01*
%TO.C,J3*%
X117522666Y-82002380D02*
X117522666Y-82716666D01*
X117475047Y-82859523D01*
X117379809Y-82954761D01*
X117236952Y-83002380D01*
X117141714Y-83002380D01*
X117903619Y-82002380D02*
X118522666Y-82002380D01*
X118189333Y-82383333D01*
X118332190Y-82383333D01*
X118427428Y-82430952D01*
X118475047Y-82478571D01*
X118522666Y-82573809D01*
X118522666Y-82811904D01*
X118475047Y-82907142D01*
X118427428Y-82954761D01*
X118332190Y-83002380D01*
X118046476Y-83002380D01*
X117951238Y-82954761D01*
X117903619Y-82907142D01*
%TD*%
M02*
