%FSLAX45Y45*%
G04 Gerber Fmt 4.5, Leading zero omitted, Abs format (unit mm)*
G04 Created by KiCad (PCBNEW 5.1.9+dfsg1-1) date 2021-05-25 15:20:50*
%MOMM*%
%LPD*%
G01*
G04 APERTURE LIST*
%TA.AperFunction,Profile*%
%ADD10C,0.050000*%
%TD*%
%ADD11C,0.200000*%
%ADD12C,0.300000*%
G04 APERTURE END LIST*
D10*
X16910000Y-6440000D02*
X16910000Y-4840000D01*
X12710000Y-6440000D02*
X11570000Y-6440000D01*
X12710000Y-4840000D02*
X12710000Y-6440000D01*
X11570000Y-6440000D02*
X11570000Y-9940000D01*
X18050000Y-6440000D02*
X16910000Y-6440000D01*
X18050000Y-9940000D02*
X18050000Y-6440000D01*
X11570000Y-9940000D02*
X18050000Y-9940000D01*
X16910000Y-4840000D02*
X12710000Y-4840000D01*
D11*
X12451400Y-6990400D02*
X12491400Y-7030400D01*
X12491400Y-6990400D02*
X12451400Y-7030400D01*
X12756200Y-7371400D02*
X12796200Y-7411400D01*
X12796200Y-7371400D02*
X12756200Y-7411400D01*
X12781600Y-8997000D02*
X12821600Y-9037000D01*
X12821600Y-8997000D02*
X12781600Y-9037000D01*
X12883200Y-6584000D02*
X12923200Y-6624000D01*
X12923200Y-6584000D02*
X12883200Y-6624000D01*
X12883200Y-7066600D02*
X12923200Y-7106600D01*
X12923200Y-7066600D02*
X12883200Y-7106600D01*
X13213400Y-7066600D02*
X13253400Y-7106600D01*
X13253400Y-7066600D02*
X13213400Y-7106600D01*
X13289600Y-4983800D02*
X13329600Y-5023800D01*
X13329600Y-4983800D02*
X13289600Y-5023800D01*
X13365800Y-6584000D02*
X13405800Y-6624000D01*
X13405800Y-6584000D02*
X13365800Y-6624000D01*
X13492800Y-8463600D02*
X13532800Y-8503600D01*
X13532800Y-8463600D02*
X13492800Y-8503600D01*
X13492800Y-8793800D02*
X13532800Y-8833800D01*
X13532800Y-8793800D02*
X13492800Y-8833800D01*
X13670600Y-6609400D02*
X13710600Y-6649400D01*
X13710600Y-6609400D02*
X13670600Y-6649400D01*
X13823000Y-6761800D02*
X13863000Y-6801800D01*
X13863000Y-6761800D02*
X13823000Y-6801800D01*
X14000800Y-7498400D02*
X14040800Y-7538400D01*
X14040800Y-7498400D02*
X14000800Y-7538400D01*
X14000800Y-8260400D02*
X14040800Y-8300400D01*
X14040800Y-8260400D02*
X14000800Y-8300400D01*
X14077000Y-8463600D02*
X14117000Y-8503600D01*
X14117000Y-8463600D02*
X14077000Y-8503600D01*
X14204000Y-4983800D02*
X14244000Y-5023800D01*
X14244000Y-4983800D02*
X14204000Y-5023800D01*
X14204000Y-6457000D02*
X14244000Y-6497000D01*
X14244000Y-6457000D02*
X14204000Y-6497000D01*
X14305600Y-7015800D02*
X14345600Y-7055800D01*
X14345600Y-7015800D02*
X14305600Y-7055800D01*
X14407200Y-6431600D02*
X14447200Y-6471600D01*
X14447200Y-6431600D02*
X14407200Y-6471600D01*
X14483400Y-7015800D02*
X14523400Y-7055800D01*
X14523400Y-7015800D02*
X14483400Y-7055800D01*
X14483400Y-8870000D02*
X14523400Y-8910000D01*
X14523400Y-8870000D02*
X14483400Y-8910000D01*
X14508800Y-7879400D02*
X14548800Y-7919400D01*
X14548800Y-7879400D02*
X14508800Y-7919400D01*
X14585000Y-6050600D02*
X14625000Y-6090600D01*
X14625000Y-6050600D02*
X14585000Y-6090600D01*
X14661200Y-7015800D02*
X14701200Y-7055800D01*
X14701200Y-7015800D02*
X14661200Y-7055800D01*
X15118400Y-8870000D02*
X15158400Y-8910000D01*
X15158400Y-8870000D02*
X15118400Y-8910000D01*
X15143800Y-5771200D02*
X15183800Y-5811200D01*
X15183800Y-5771200D02*
X15143800Y-5811200D01*
X15245400Y-6431600D02*
X15285400Y-6471600D01*
X15285400Y-6431600D02*
X15245400Y-6471600D01*
X15270800Y-6279200D02*
X15310800Y-6319200D01*
X15310800Y-6279200D02*
X15270800Y-6319200D01*
X15360400Y-5427600D02*
X15400400Y-5467600D01*
X15400400Y-5427600D02*
X15360400Y-5467600D01*
X15372400Y-4983800D02*
X15412400Y-5023800D01*
X15412400Y-4983800D02*
X15372400Y-5023800D01*
X15372400Y-5314000D02*
X15412400Y-5354000D01*
X15412400Y-5314000D02*
X15372400Y-5354000D01*
X15474000Y-6177600D02*
X15514000Y-6217600D01*
X15514000Y-6177600D02*
X15474000Y-6217600D01*
X15651800Y-8539800D02*
X15691800Y-8579800D01*
X15691800Y-8539800D02*
X15651800Y-8579800D01*
X15677200Y-6965000D02*
X15717200Y-7005000D01*
X15717200Y-6965000D02*
X15677200Y-7005000D01*
X15905800Y-5187000D02*
X15945800Y-5227000D01*
X15945800Y-5187000D02*
X15905800Y-5227000D01*
X16007400Y-5796600D02*
X16047400Y-5836600D01*
X16047400Y-5796600D02*
X16007400Y-5836600D01*
X16617000Y-5136200D02*
X16657000Y-5176200D01*
X16657000Y-5136200D02*
X16617000Y-5176200D01*
X17353600Y-9073200D02*
X17393600Y-9113200D01*
X17393600Y-9073200D02*
X17353600Y-9113200D01*
X13095600Y-5816600D02*
G75*
G03*
X13095600Y-5816600I-40000J0D01*
G01*
X13345600Y-5816600D02*
G75*
G03*
X13345600Y-5816600I-40000J0D01*
G01*
X16103600Y-5390600D02*
X16103600Y-5480600D01*
X16058600Y-5435600D02*
X16148600Y-5435600D01*
X16357600Y-5390600D02*
X16357600Y-5480600D01*
X16312600Y-5435600D02*
X16402600Y-5435600D01*
X16611600Y-5390600D02*
X16611600Y-5480600D01*
X16566600Y-5435600D02*
X16656600Y-5435600D01*
X11836416Y-6674856D02*
X11836416Y-6604144D01*
X11765704Y-6604144D01*
X11765704Y-6674856D01*
X11836416Y-6674856D01*
X11836416Y-6928856D02*
X11836416Y-6858144D01*
X11765704Y-6858144D01*
X11765704Y-6928856D01*
X11836416Y-6928856D01*
X11836416Y-7182856D02*
X11836416Y-7112144D01*
X11765704Y-7112144D01*
X11765704Y-7182856D01*
X11836416Y-7182856D01*
X11836416Y-7436856D02*
X11836416Y-7366144D01*
X11765704Y-7366144D01*
X11765704Y-7436856D01*
X11836416Y-7436856D01*
X11836416Y-7690856D02*
X11836416Y-7620144D01*
X11765704Y-7620144D01*
X11765704Y-7690856D01*
X11836416Y-7690856D01*
X11836416Y-7944856D02*
X11836416Y-7874144D01*
X11765704Y-7874144D01*
X11765704Y-7944856D01*
X11836416Y-7944856D01*
X12055356Y-9795356D02*
X12055356Y-9724644D01*
X11984644Y-9724644D01*
X11984644Y-9795356D01*
X12055356Y-9795356D01*
X12309356Y-9795356D02*
X12309356Y-9724644D01*
X12238644Y-9724644D01*
X12238644Y-9795356D01*
X12309356Y-9795356D01*
X12563356Y-9795356D02*
X12563356Y-9724644D01*
X12492644Y-9724644D01*
X12492644Y-9795356D01*
X12563356Y-9795356D01*
X12633756Y-8569756D02*
X12633756Y-8499044D01*
X12563044Y-8499044D01*
X12563044Y-8569756D01*
X12633756Y-8569756D01*
X12633756Y-8823756D02*
X12633756Y-8753044D01*
X12563044Y-8753044D01*
X12563044Y-8823756D01*
X12633756Y-8823756D01*
X12817356Y-9795356D02*
X12817356Y-9724644D01*
X12746644Y-9724644D01*
X12746644Y-9795356D01*
X12817356Y-9795356D01*
X16873356Y-9785356D02*
X16873356Y-9714644D01*
X16802644Y-9714644D01*
X16802644Y-9785356D01*
X16873356Y-9785356D01*
X17127356Y-9785356D02*
X17127356Y-9714644D01*
X17056644Y-9714644D01*
X17056644Y-9785356D01*
X17127356Y-9785356D01*
X17381356Y-9785356D02*
X17381356Y-9714644D01*
X17310644Y-9714644D01*
X17310644Y-9785356D01*
X17381356Y-9785356D01*
X17635356Y-9785356D02*
X17635356Y-9714644D01*
X17564644Y-9714644D01*
X17564644Y-9785356D01*
X17635356Y-9785356D01*
D12*
X11853928Y-10408214D02*
X11853928Y-10108214D01*
X11925357Y-10108214D01*
X11968214Y-10122500D01*
X11996786Y-10151072D01*
X12011071Y-10179643D01*
X12025357Y-10236786D01*
X12025357Y-10279643D01*
X12011071Y-10336786D01*
X11996786Y-10365357D01*
X11968214Y-10393929D01*
X11925357Y-10408214D01*
X11853928Y-10408214D01*
X12153928Y-10408214D02*
X12153928Y-10208214D01*
X12153928Y-10265357D02*
X12168214Y-10236786D01*
X12182500Y-10222500D01*
X12211071Y-10208214D01*
X12239643Y-10208214D01*
X12339643Y-10408214D02*
X12339643Y-10208214D01*
X12339643Y-10108214D02*
X12325357Y-10122500D01*
X12339643Y-10136786D01*
X12353928Y-10122500D01*
X12339643Y-10108214D01*
X12339643Y-10136786D01*
X12525357Y-10408214D02*
X12496786Y-10393929D01*
X12482500Y-10365357D01*
X12482500Y-10108214D01*
X12682500Y-10408214D02*
X12653928Y-10393929D01*
X12639643Y-10365357D01*
X12639643Y-10108214D01*
X13025357Y-10408214D02*
X13025357Y-10108214D01*
X13125357Y-10322500D01*
X13225357Y-10108214D01*
X13225357Y-10408214D01*
X13496786Y-10408214D02*
X13496786Y-10251072D01*
X13482500Y-10222500D01*
X13453928Y-10208214D01*
X13396786Y-10208214D01*
X13368214Y-10222500D01*
X13496786Y-10393929D02*
X13468214Y-10408214D01*
X13396786Y-10408214D01*
X13368214Y-10393929D01*
X13353928Y-10365357D01*
X13353928Y-10336786D01*
X13368214Y-10308214D01*
X13396786Y-10293929D01*
X13468214Y-10293929D01*
X13496786Y-10279643D01*
X13639643Y-10208214D02*
X13639643Y-10508214D01*
X13639643Y-10222500D02*
X13668214Y-10208214D01*
X13725357Y-10208214D01*
X13753928Y-10222500D01*
X13768214Y-10236786D01*
X13782500Y-10265357D01*
X13782500Y-10351072D01*
X13768214Y-10379643D01*
X13753928Y-10393929D01*
X13725357Y-10408214D01*
X13668214Y-10408214D01*
X13639643Y-10393929D01*
X13911071Y-10379643D02*
X13925357Y-10393929D01*
X13911071Y-10408214D01*
X13896786Y-10393929D01*
X13911071Y-10379643D01*
X13911071Y-10408214D01*
X13911071Y-10222500D02*
X13925357Y-10236786D01*
X13911071Y-10251072D01*
X13896786Y-10236786D01*
X13911071Y-10222500D01*
X13911071Y-10251072D01*
X11527500Y-10882500D02*
X11567500Y-10922500D01*
X11567500Y-10882500D02*
X11527500Y-10922500D01*
X11911071Y-10738214D02*
X11939643Y-10738214D01*
X11968214Y-10752500D01*
X11982500Y-10766786D01*
X11996786Y-10795357D01*
X12011071Y-10852500D01*
X12011071Y-10923929D01*
X11996786Y-10981072D01*
X11982500Y-11009643D01*
X11968214Y-11023929D01*
X11939643Y-11038214D01*
X11911071Y-11038214D01*
X11882500Y-11023929D01*
X11868214Y-11009643D01*
X11853928Y-10981072D01*
X11839643Y-10923929D01*
X11839643Y-10852500D01*
X11853928Y-10795357D01*
X11868214Y-10766786D01*
X11882500Y-10752500D01*
X11911071Y-10738214D01*
X12139643Y-11009643D02*
X12153928Y-11023929D01*
X12139643Y-11038214D01*
X12125357Y-11023929D01*
X12139643Y-11009643D01*
X12139643Y-11038214D01*
X12411071Y-10838214D02*
X12411071Y-11038214D01*
X12339643Y-10723929D02*
X12268214Y-10938214D01*
X12453928Y-10938214D01*
X12625357Y-10738214D02*
X12653928Y-10738214D01*
X12682500Y-10752500D01*
X12696786Y-10766786D01*
X12711071Y-10795357D01*
X12725357Y-10852500D01*
X12725357Y-10923929D01*
X12711071Y-10981072D01*
X12696786Y-11009643D01*
X12682500Y-11023929D01*
X12653928Y-11038214D01*
X12625357Y-11038214D01*
X12596786Y-11023929D01*
X12582500Y-11009643D01*
X12568214Y-10981072D01*
X12553928Y-10923929D01*
X12553928Y-10852500D01*
X12568214Y-10795357D01*
X12582500Y-10766786D01*
X12596786Y-10752500D01*
X12625357Y-10738214D01*
X12853928Y-11038214D02*
X12853928Y-10838214D01*
X12853928Y-10866786D02*
X12868214Y-10852500D01*
X12896786Y-10838214D01*
X12939643Y-10838214D01*
X12968214Y-10852500D01*
X12982500Y-10881072D01*
X12982500Y-11038214D01*
X12982500Y-10881072D02*
X12996786Y-10852500D01*
X13025357Y-10838214D01*
X13068214Y-10838214D01*
X13096786Y-10852500D01*
X13111071Y-10881072D01*
X13111071Y-11038214D01*
X13253928Y-11038214D02*
X13253928Y-10838214D01*
X13253928Y-10866786D02*
X13268214Y-10852500D01*
X13296786Y-10838214D01*
X13339643Y-10838214D01*
X13368214Y-10852500D01*
X13382500Y-10881072D01*
X13382500Y-11038214D01*
X13382500Y-10881072D02*
X13396786Y-10852500D01*
X13425357Y-10838214D01*
X13468214Y-10838214D01*
X13496786Y-10852500D01*
X13511071Y-10881072D01*
X13511071Y-11038214D01*
X14096786Y-10723929D02*
X13839643Y-11109643D01*
X14482500Y-10738214D02*
X14511071Y-10738214D01*
X14539643Y-10752500D01*
X14553928Y-10766786D01*
X14568214Y-10795357D01*
X14582500Y-10852500D01*
X14582500Y-10923929D01*
X14568214Y-10981072D01*
X14553928Y-11009643D01*
X14539643Y-11023929D01*
X14511071Y-11038214D01*
X14482500Y-11038214D01*
X14453928Y-11023929D01*
X14439643Y-11009643D01*
X14425357Y-10981072D01*
X14411071Y-10923929D01*
X14411071Y-10852500D01*
X14425357Y-10795357D01*
X14439643Y-10766786D01*
X14453928Y-10752500D01*
X14482500Y-10738214D01*
X14711071Y-11009643D02*
X14725357Y-11023929D01*
X14711071Y-11038214D01*
X14696786Y-11023929D01*
X14711071Y-11009643D01*
X14711071Y-11038214D01*
X14911071Y-10738214D02*
X14939643Y-10738214D01*
X14968214Y-10752500D01*
X14982500Y-10766786D01*
X14996786Y-10795357D01*
X15011071Y-10852500D01*
X15011071Y-10923929D01*
X14996786Y-10981072D01*
X14982500Y-11009643D01*
X14968214Y-11023929D01*
X14939643Y-11038214D01*
X14911071Y-11038214D01*
X14882500Y-11023929D01*
X14868214Y-11009643D01*
X14853928Y-10981072D01*
X14839643Y-10923929D01*
X14839643Y-10852500D01*
X14853928Y-10795357D01*
X14868214Y-10766786D01*
X14882500Y-10752500D01*
X14911071Y-10738214D01*
X15296786Y-11038214D02*
X15125357Y-11038214D01*
X15211071Y-11038214D02*
X15211071Y-10738214D01*
X15182500Y-10781072D01*
X15153928Y-10809643D01*
X15125357Y-10823929D01*
X15553928Y-10738214D02*
X15496786Y-10738214D01*
X15468214Y-10752500D01*
X15453928Y-10766786D01*
X15425357Y-10809643D01*
X15411071Y-10866786D01*
X15411071Y-10981072D01*
X15425357Y-11009643D01*
X15439643Y-11023929D01*
X15468214Y-11038214D01*
X15525357Y-11038214D01*
X15553928Y-11023929D01*
X15568214Y-11009643D01*
X15582500Y-10981072D01*
X15582500Y-10909643D01*
X15568214Y-10881072D01*
X15553928Y-10866786D01*
X15525357Y-10852500D01*
X15468214Y-10852500D01*
X15439643Y-10866786D01*
X15425357Y-10881072D01*
X15411071Y-10909643D01*
X15696786Y-10738214D02*
X15696786Y-10795357D01*
X15811071Y-10738214D02*
X15811071Y-10795357D01*
X16253928Y-11152500D02*
X16239643Y-11138214D01*
X16211071Y-11095357D01*
X16196786Y-11066786D01*
X16182500Y-11023929D01*
X16168214Y-10952500D01*
X16168214Y-10895357D01*
X16182500Y-10823929D01*
X16196786Y-10781072D01*
X16211071Y-10752500D01*
X16239643Y-10709643D01*
X16253928Y-10695357D01*
X16339643Y-10738214D02*
X16525357Y-10738214D01*
X16425357Y-10852500D01*
X16468214Y-10852500D01*
X16496786Y-10866786D01*
X16511071Y-10881072D01*
X16525357Y-10909643D01*
X16525357Y-10981072D01*
X16511071Y-11009643D01*
X16496786Y-11023929D01*
X16468214Y-11038214D01*
X16382500Y-11038214D01*
X16353928Y-11023929D01*
X16339643Y-11009643D01*
X16696786Y-10866786D02*
X16668214Y-10852500D01*
X16653928Y-10838214D01*
X16639643Y-10809643D01*
X16639643Y-10795357D01*
X16653928Y-10766786D01*
X16668214Y-10752500D01*
X16696786Y-10738214D01*
X16753928Y-10738214D01*
X16782500Y-10752500D01*
X16796786Y-10766786D01*
X16811071Y-10795357D01*
X16811071Y-10809643D01*
X16796786Y-10838214D01*
X16782500Y-10852500D01*
X16753928Y-10866786D01*
X16696786Y-10866786D01*
X16668214Y-10881072D01*
X16653928Y-10895357D01*
X16639643Y-10923929D01*
X16639643Y-10981072D01*
X16653928Y-11009643D01*
X16668214Y-11023929D01*
X16696786Y-11038214D01*
X16753928Y-11038214D01*
X16782500Y-11023929D01*
X16796786Y-11009643D01*
X16811071Y-10981072D01*
X16811071Y-10923929D01*
X16796786Y-10895357D01*
X16782500Y-10881072D01*
X16753928Y-10866786D01*
X17168214Y-11038214D02*
X17168214Y-10738214D01*
X17296786Y-11038214D02*
X17296786Y-10881072D01*
X17282500Y-10852500D01*
X17253928Y-10838214D01*
X17211071Y-10838214D01*
X17182500Y-10852500D01*
X17168214Y-10866786D01*
X17482500Y-11038214D02*
X17453928Y-11023929D01*
X17439643Y-11009643D01*
X17425357Y-10981072D01*
X17425357Y-10895357D01*
X17439643Y-10866786D01*
X17453928Y-10852500D01*
X17482500Y-10838214D01*
X17525357Y-10838214D01*
X17553928Y-10852500D01*
X17568214Y-10866786D01*
X17582500Y-10895357D01*
X17582500Y-10981072D01*
X17568214Y-11009643D01*
X17553928Y-11023929D01*
X17525357Y-11038214D01*
X17482500Y-11038214D01*
X17753928Y-11038214D02*
X17725357Y-11023929D01*
X17711071Y-10995357D01*
X17711071Y-10738214D01*
X17982500Y-11023929D02*
X17953928Y-11038214D01*
X17896786Y-11038214D01*
X17868214Y-11023929D01*
X17853928Y-10995357D01*
X17853928Y-10881072D01*
X17868214Y-10852500D01*
X17896786Y-10838214D01*
X17953928Y-10838214D01*
X17982500Y-10852500D01*
X17996786Y-10881072D01*
X17996786Y-10909643D01*
X17853928Y-10938214D01*
X18111071Y-11023929D02*
X18139643Y-11038214D01*
X18196786Y-11038214D01*
X18225357Y-11023929D01*
X18239643Y-10995357D01*
X18239643Y-10981072D01*
X18225357Y-10952500D01*
X18196786Y-10938214D01*
X18153928Y-10938214D01*
X18125357Y-10923929D01*
X18111071Y-10895357D01*
X18111071Y-10881072D01*
X18125357Y-10852500D01*
X18153928Y-10838214D01*
X18196786Y-10838214D01*
X18225357Y-10852500D01*
X18339643Y-11152500D02*
X18353928Y-11138214D01*
X18382500Y-11095357D01*
X18396786Y-11066786D01*
X18411071Y-11023929D01*
X18425357Y-10952500D01*
X18425357Y-10895357D01*
X18411071Y-10823929D01*
X18396786Y-10781072D01*
X18382500Y-10752500D01*
X18353928Y-10709643D01*
X18339643Y-10695357D01*
X11567500Y-11298500D02*
G75*
G03*
X11567500Y-11298500I-40000J0D01*
G01*
X11911071Y-11134214D02*
X11939643Y-11134214D01*
X11968214Y-11148500D01*
X11982500Y-11162786D01*
X11996786Y-11191357D01*
X12011071Y-11248500D01*
X12011071Y-11319929D01*
X11996786Y-11377071D01*
X11982500Y-11405643D01*
X11968214Y-11419929D01*
X11939643Y-11434214D01*
X11911071Y-11434214D01*
X11882500Y-11419929D01*
X11868214Y-11405643D01*
X11853928Y-11377071D01*
X11839643Y-11319929D01*
X11839643Y-11248500D01*
X11853928Y-11191357D01*
X11868214Y-11162786D01*
X11882500Y-11148500D01*
X11911071Y-11134214D01*
X12139643Y-11405643D02*
X12153928Y-11419929D01*
X12139643Y-11434214D01*
X12125357Y-11419929D01*
X12139643Y-11405643D01*
X12139643Y-11434214D01*
X12325357Y-11262786D02*
X12296786Y-11248500D01*
X12282500Y-11234214D01*
X12268214Y-11205643D01*
X12268214Y-11191357D01*
X12282500Y-11162786D01*
X12296786Y-11148500D01*
X12325357Y-11134214D01*
X12382500Y-11134214D01*
X12411071Y-11148500D01*
X12425357Y-11162786D01*
X12439643Y-11191357D01*
X12439643Y-11205643D01*
X12425357Y-11234214D01*
X12411071Y-11248500D01*
X12382500Y-11262786D01*
X12325357Y-11262786D01*
X12296786Y-11277071D01*
X12282500Y-11291357D01*
X12268214Y-11319929D01*
X12268214Y-11377071D01*
X12282500Y-11405643D01*
X12296786Y-11419929D01*
X12325357Y-11434214D01*
X12382500Y-11434214D01*
X12411071Y-11419929D01*
X12425357Y-11405643D01*
X12439643Y-11377071D01*
X12439643Y-11319929D01*
X12425357Y-11291357D01*
X12411071Y-11277071D01*
X12382500Y-11262786D01*
X12625357Y-11134214D02*
X12653928Y-11134214D01*
X12682500Y-11148500D01*
X12696786Y-11162786D01*
X12711071Y-11191357D01*
X12725357Y-11248500D01*
X12725357Y-11319929D01*
X12711071Y-11377071D01*
X12696786Y-11405643D01*
X12682500Y-11419929D01*
X12653928Y-11434214D01*
X12625357Y-11434214D01*
X12596786Y-11419929D01*
X12582500Y-11405643D01*
X12568214Y-11377071D01*
X12553928Y-11319929D01*
X12553928Y-11248500D01*
X12568214Y-11191357D01*
X12582500Y-11162786D01*
X12596786Y-11148500D01*
X12625357Y-11134214D01*
X12853928Y-11434214D02*
X12853928Y-11234214D01*
X12853928Y-11262786D02*
X12868214Y-11248500D01*
X12896786Y-11234214D01*
X12939643Y-11234214D01*
X12968214Y-11248500D01*
X12982500Y-11277071D01*
X12982500Y-11434214D01*
X12982500Y-11277071D02*
X12996786Y-11248500D01*
X13025357Y-11234214D01*
X13068214Y-11234214D01*
X13096786Y-11248500D01*
X13111071Y-11277071D01*
X13111071Y-11434214D01*
X13253928Y-11434214D02*
X13253928Y-11234214D01*
X13253928Y-11262786D02*
X13268214Y-11248500D01*
X13296786Y-11234214D01*
X13339643Y-11234214D01*
X13368214Y-11248500D01*
X13382500Y-11277071D01*
X13382500Y-11434214D01*
X13382500Y-11277071D02*
X13396786Y-11248500D01*
X13425357Y-11234214D01*
X13468214Y-11234214D01*
X13496786Y-11248500D01*
X13511071Y-11277071D01*
X13511071Y-11434214D01*
X14096786Y-11119929D02*
X13839643Y-11505643D01*
X14482500Y-11134214D02*
X14511071Y-11134214D01*
X14539643Y-11148500D01*
X14553928Y-11162786D01*
X14568214Y-11191357D01*
X14582500Y-11248500D01*
X14582500Y-11319929D01*
X14568214Y-11377071D01*
X14553928Y-11405643D01*
X14539643Y-11419929D01*
X14511071Y-11434214D01*
X14482500Y-11434214D01*
X14453928Y-11419929D01*
X14439643Y-11405643D01*
X14425357Y-11377071D01*
X14411071Y-11319929D01*
X14411071Y-11248500D01*
X14425357Y-11191357D01*
X14439643Y-11162786D01*
X14453928Y-11148500D01*
X14482500Y-11134214D01*
X14711071Y-11405643D02*
X14725357Y-11419929D01*
X14711071Y-11434214D01*
X14696786Y-11419929D01*
X14711071Y-11405643D01*
X14711071Y-11434214D01*
X14911071Y-11134214D02*
X14939643Y-11134214D01*
X14968214Y-11148500D01*
X14982500Y-11162786D01*
X14996786Y-11191357D01*
X15011071Y-11248500D01*
X15011071Y-11319929D01*
X14996786Y-11377071D01*
X14982500Y-11405643D01*
X14968214Y-11419929D01*
X14939643Y-11434214D01*
X14911071Y-11434214D01*
X14882500Y-11419929D01*
X14868214Y-11405643D01*
X14853928Y-11377071D01*
X14839643Y-11319929D01*
X14839643Y-11248500D01*
X14853928Y-11191357D01*
X14868214Y-11162786D01*
X14882500Y-11148500D01*
X14911071Y-11134214D01*
X15111071Y-11134214D02*
X15296786Y-11134214D01*
X15196786Y-11248500D01*
X15239643Y-11248500D01*
X15268214Y-11262786D01*
X15282500Y-11277071D01*
X15296786Y-11305643D01*
X15296786Y-11377071D01*
X15282500Y-11405643D01*
X15268214Y-11419929D01*
X15239643Y-11434214D01*
X15153928Y-11434214D01*
X15125357Y-11419929D01*
X15111071Y-11405643D01*
X15582500Y-11434214D02*
X15411071Y-11434214D01*
X15496786Y-11434214D02*
X15496786Y-11134214D01*
X15468214Y-11177072D01*
X15439643Y-11205643D01*
X15411071Y-11219929D01*
X15696786Y-11134214D02*
X15696786Y-11191357D01*
X15811071Y-11134214D02*
X15811071Y-11191357D01*
X16253928Y-11548500D02*
X16239643Y-11534214D01*
X16211071Y-11491357D01*
X16196786Y-11462786D01*
X16182500Y-11419929D01*
X16168214Y-11348500D01*
X16168214Y-11291357D01*
X16182500Y-11219929D01*
X16196786Y-11177072D01*
X16211071Y-11148500D01*
X16239643Y-11105643D01*
X16253928Y-11091357D01*
X16353928Y-11162786D02*
X16368214Y-11148500D01*
X16396786Y-11134214D01*
X16468214Y-11134214D01*
X16496786Y-11148500D01*
X16511071Y-11162786D01*
X16525357Y-11191357D01*
X16525357Y-11219929D01*
X16511071Y-11262786D01*
X16339643Y-11434214D01*
X16525357Y-11434214D01*
X16882500Y-11434214D02*
X16882500Y-11134214D01*
X17011071Y-11434214D02*
X17011071Y-11277071D01*
X16996786Y-11248500D01*
X16968214Y-11234214D01*
X16925357Y-11234214D01*
X16896786Y-11248500D01*
X16882500Y-11262786D01*
X17196786Y-11434214D02*
X17168214Y-11419929D01*
X17153928Y-11405643D01*
X17139643Y-11377071D01*
X17139643Y-11291357D01*
X17153928Y-11262786D01*
X17168214Y-11248500D01*
X17196786Y-11234214D01*
X17239643Y-11234214D01*
X17268214Y-11248500D01*
X17282500Y-11262786D01*
X17296786Y-11291357D01*
X17296786Y-11377071D01*
X17282500Y-11405643D01*
X17268214Y-11419929D01*
X17239643Y-11434214D01*
X17196786Y-11434214D01*
X17468214Y-11434214D02*
X17439643Y-11419929D01*
X17425357Y-11391357D01*
X17425357Y-11134214D01*
X17696786Y-11419929D02*
X17668214Y-11434214D01*
X17611071Y-11434214D01*
X17582500Y-11419929D01*
X17568214Y-11391357D01*
X17568214Y-11277071D01*
X17582500Y-11248500D01*
X17611071Y-11234214D01*
X17668214Y-11234214D01*
X17696786Y-11248500D01*
X17711071Y-11277071D01*
X17711071Y-11305643D01*
X17568214Y-11334214D01*
X17825357Y-11419929D02*
X17853928Y-11434214D01*
X17911071Y-11434214D01*
X17939643Y-11419929D01*
X17953928Y-11391357D01*
X17953928Y-11377071D01*
X17939643Y-11348500D01*
X17911071Y-11334214D01*
X17868214Y-11334214D01*
X17839643Y-11319929D01*
X17825357Y-11291357D01*
X17825357Y-11277071D01*
X17839643Y-11248500D01*
X17868214Y-11234214D01*
X17911071Y-11234214D01*
X17939643Y-11248500D01*
X18053928Y-11548500D02*
X18068214Y-11534214D01*
X18096786Y-11491357D01*
X18111071Y-11462786D01*
X18125357Y-11419929D01*
X18139643Y-11348500D01*
X18139643Y-11291357D01*
X18125357Y-11219929D01*
X18111071Y-11177072D01*
X18096786Y-11148500D01*
X18068214Y-11105643D01*
X18053928Y-11091357D01*
X11522500Y-11649500D02*
X11522500Y-11739500D01*
X11477500Y-11694500D02*
X11567500Y-11694500D01*
X11911071Y-11530214D02*
X11939643Y-11530214D01*
X11968214Y-11544500D01*
X11982500Y-11558786D01*
X11996786Y-11587357D01*
X12011071Y-11644500D01*
X12011071Y-11715929D01*
X11996786Y-11773071D01*
X11982500Y-11801643D01*
X11968214Y-11815929D01*
X11939643Y-11830214D01*
X11911071Y-11830214D01*
X11882500Y-11815929D01*
X11868214Y-11801643D01*
X11853928Y-11773071D01*
X11839643Y-11715929D01*
X11839643Y-11644500D01*
X11853928Y-11587357D01*
X11868214Y-11558786D01*
X11882500Y-11544500D01*
X11911071Y-11530214D01*
X12139643Y-11801643D02*
X12153928Y-11815929D01*
X12139643Y-11830214D01*
X12125357Y-11815929D01*
X12139643Y-11801643D01*
X12139643Y-11830214D01*
X12296786Y-11830214D02*
X12353928Y-11830214D01*
X12382500Y-11815929D01*
X12396786Y-11801643D01*
X12425357Y-11758786D01*
X12439643Y-11701643D01*
X12439643Y-11587357D01*
X12425357Y-11558786D01*
X12411071Y-11544500D01*
X12382500Y-11530214D01*
X12325357Y-11530214D01*
X12296786Y-11544500D01*
X12282500Y-11558786D01*
X12268214Y-11587357D01*
X12268214Y-11658786D01*
X12282500Y-11687357D01*
X12296786Y-11701643D01*
X12325357Y-11715929D01*
X12382500Y-11715929D01*
X12411071Y-11701643D01*
X12425357Y-11687357D01*
X12439643Y-11658786D01*
X12625357Y-11530214D02*
X12653928Y-11530214D01*
X12682500Y-11544500D01*
X12696786Y-11558786D01*
X12711071Y-11587357D01*
X12725357Y-11644500D01*
X12725357Y-11715929D01*
X12711071Y-11773071D01*
X12696786Y-11801643D01*
X12682500Y-11815929D01*
X12653928Y-11830214D01*
X12625357Y-11830214D01*
X12596786Y-11815929D01*
X12582500Y-11801643D01*
X12568214Y-11773071D01*
X12553928Y-11715929D01*
X12553928Y-11644500D01*
X12568214Y-11587357D01*
X12582500Y-11558786D01*
X12596786Y-11544500D01*
X12625357Y-11530214D01*
X12853928Y-11830214D02*
X12853928Y-11630214D01*
X12853928Y-11658786D02*
X12868214Y-11644500D01*
X12896786Y-11630214D01*
X12939643Y-11630214D01*
X12968214Y-11644500D01*
X12982500Y-11673071D01*
X12982500Y-11830214D01*
X12982500Y-11673071D02*
X12996786Y-11644500D01*
X13025357Y-11630214D01*
X13068214Y-11630214D01*
X13096786Y-11644500D01*
X13111071Y-11673071D01*
X13111071Y-11830214D01*
X13253928Y-11830214D02*
X13253928Y-11630214D01*
X13253928Y-11658786D02*
X13268214Y-11644500D01*
X13296786Y-11630214D01*
X13339643Y-11630214D01*
X13368214Y-11644500D01*
X13382500Y-11673071D01*
X13382500Y-11830214D01*
X13382500Y-11673071D02*
X13396786Y-11644500D01*
X13425357Y-11630214D01*
X13468214Y-11630214D01*
X13496786Y-11644500D01*
X13511071Y-11673071D01*
X13511071Y-11830214D01*
X14096786Y-11515929D02*
X13839643Y-11901643D01*
X14482500Y-11530214D02*
X14511071Y-11530214D01*
X14539643Y-11544500D01*
X14553928Y-11558786D01*
X14568214Y-11587357D01*
X14582500Y-11644500D01*
X14582500Y-11715929D01*
X14568214Y-11773071D01*
X14553928Y-11801643D01*
X14539643Y-11815929D01*
X14511071Y-11830214D01*
X14482500Y-11830214D01*
X14453928Y-11815929D01*
X14439643Y-11801643D01*
X14425357Y-11773071D01*
X14411071Y-11715929D01*
X14411071Y-11644500D01*
X14425357Y-11587357D01*
X14439643Y-11558786D01*
X14453928Y-11544500D01*
X14482500Y-11530214D01*
X14711071Y-11801643D02*
X14725357Y-11815929D01*
X14711071Y-11830214D01*
X14696786Y-11815929D01*
X14711071Y-11801643D01*
X14711071Y-11830214D01*
X14911071Y-11530214D02*
X14939643Y-11530214D01*
X14968214Y-11544500D01*
X14982500Y-11558786D01*
X14996786Y-11587357D01*
X15011071Y-11644500D01*
X15011071Y-11715929D01*
X14996786Y-11773071D01*
X14982500Y-11801643D01*
X14968214Y-11815929D01*
X14939643Y-11830214D01*
X14911071Y-11830214D01*
X14882500Y-11815929D01*
X14868214Y-11801643D01*
X14853928Y-11773071D01*
X14839643Y-11715929D01*
X14839643Y-11644500D01*
X14853928Y-11587357D01*
X14868214Y-11558786D01*
X14882500Y-11544500D01*
X14911071Y-11530214D01*
X15111071Y-11530214D02*
X15296786Y-11530214D01*
X15196786Y-11644500D01*
X15239643Y-11644500D01*
X15268214Y-11658786D01*
X15282500Y-11673071D01*
X15296786Y-11701643D01*
X15296786Y-11773071D01*
X15282500Y-11801643D01*
X15268214Y-11815929D01*
X15239643Y-11830214D01*
X15153928Y-11830214D01*
X15125357Y-11815929D01*
X15111071Y-11801643D01*
X15568214Y-11530214D02*
X15425357Y-11530214D01*
X15411071Y-11673071D01*
X15425357Y-11658786D01*
X15453928Y-11644500D01*
X15525357Y-11644500D01*
X15553928Y-11658786D01*
X15568214Y-11673071D01*
X15582500Y-11701643D01*
X15582500Y-11773071D01*
X15568214Y-11801643D01*
X15553928Y-11815929D01*
X15525357Y-11830214D01*
X15453928Y-11830214D01*
X15425357Y-11815929D01*
X15411071Y-11801643D01*
X15696786Y-11530214D02*
X15696786Y-11587357D01*
X15811071Y-11530214D02*
X15811071Y-11587357D01*
X16253928Y-11944500D02*
X16239643Y-11930214D01*
X16211071Y-11887357D01*
X16196786Y-11858786D01*
X16182500Y-11815929D01*
X16168214Y-11744500D01*
X16168214Y-11687357D01*
X16182500Y-11615929D01*
X16196786Y-11573071D01*
X16211071Y-11544500D01*
X16239643Y-11501643D01*
X16253928Y-11487357D01*
X16339643Y-11530214D02*
X16525357Y-11530214D01*
X16425357Y-11644500D01*
X16468214Y-11644500D01*
X16496786Y-11658786D01*
X16511071Y-11673071D01*
X16525357Y-11701643D01*
X16525357Y-11773071D01*
X16511071Y-11801643D01*
X16496786Y-11815929D01*
X16468214Y-11830214D01*
X16382500Y-11830214D01*
X16353928Y-11815929D01*
X16339643Y-11801643D01*
X16882500Y-11830214D02*
X16882500Y-11530214D01*
X17011071Y-11830214D02*
X17011071Y-11673071D01*
X16996786Y-11644500D01*
X16968214Y-11630214D01*
X16925357Y-11630214D01*
X16896786Y-11644500D01*
X16882500Y-11658786D01*
X17196786Y-11830214D02*
X17168214Y-11815929D01*
X17153928Y-11801643D01*
X17139643Y-11773071D01*
X17139643Y-11687357D01*
X17153928Y-11658786D01*
X17168214Y-11644500D01*
X17196786Y-11630214D01*
X17239643Y-11630214D01*
X17268214Y-11644500D01*
X17282500Y-11658786D01*
X17296786Y-11687357D01*
X17296786Y-11773071D01*
X17282500Y-11801643D01*
X17268214Y-11815929D01*
X17239643Y-11830214D01*
X17196786Y-11830214D01*
X17468214Y-11830214D02*
X17439643Y-11815929D01*
X17425357Y-11787357D01*
X17425357Y-11530214D01*
X17696786Y-11815929D02*
X17668214Y-11830214D01*
X17611071Y-11830214D01*
X17582500Y-11815929D01*
X17568214Y-11787357D01*
X17568214Y-11673071D01*
X17582500Y-11644500D01*
X17611071Y-11630214D01*
X17668214Y-11630214D01*
X17696786Y-11644500D01*
X17711071Y-11673071D01*
X17711071Y-11701643D01*
X17568214Y-11730214D01*
X17825357Y-11815929D02*
X17853928Y-11830214D01*
X17911071Y-11830214D01*
X17939643Y-11815929D01*
X17953928Y-11787357D01*
X17953928Y-11773071D01*
X17939643Y-11744500D01*
X17911071Y-11730214D01*
X17868214Y-11730214D01*
X17839643Y-11715929D01*
X17825357Y-11687357D01*
X17825357Y-11673071D01*
X17839643Y-11644500D01*
X17868214Y-11630214D01*
X17911071Y-11630214D01*
X17939643Y-11644500D01*
X18053928Y-11944500D02*
X18068214Y-11930214D01*
X18096786Y-11887357D01*
X18111071Y-11858786D01*
X18125357Y-11815929D01*
X18139643Y-11744500D01*
X18139643Y-11687357D01*
X18125357Y-11615929D01*
X18111071Y-11573071D01*
X18096786Y-11544500D01*
X18068214Y-11501643D01*
X18053928Y-11487357D01*
X11552856Y-12125856D02*
X11552856Y-12055144D01*
X11482144Y-12055144D01*
X11482144Y-12125856D01*
X11552856Y-12125856D01*
X12011071Y-12226214D02*
X11839643Y-12226214D01*
X11925357Y-12226214D02*
X11925357Y-11926214D01*
X11896786Y-11969071D01*
X11868214Y-11997643D01*
X11839643Y-12011929D01*
X12139643Y-12197643D02*
X12153928Y-12211929D01*
X12139643Y-12226214D01*
X12125357Y-12211929D01*
X12139643Y-12197643D01*
X12139643Y-12226214D01*
X12339643Y-11926214D02*
X12368214Y-11926214D01*
X12396786Y-11940500D01*
X12411071Y-11954786D01*
X12425357Y-11983357D01*
X12439643Y-12040500D01*
X12439643Y-12111929D01*
X12425357Y-12169071D01*
X12411071Y-12197643D01*
X12396786Y-12211929D01*
X12368214Y-12226214D01*
X12339643Y-12226214D01*
X12311071Y-12211929D01*
X12296786Y-12197643D01*
X12282500Y-12169071D01*
X12268214Y-12111929D01*
X12268214Y-12040500D01*
X12282500Y-11983357D01*
X12296786Y-11954786D01*
X12311071Y-11940500D01*
X12339643Y-11926214D01*
X12625357Y-11926214D02*
X12653928Y-11926214D01*
X12682500Y-11940500D01*
X12696786Y-11954786D01*
X12711071Y-11983357D01*
X12725357Y-12040500D01*
X12725357Y-12111929D01*
X12711071Y-12169071D01*
X12696786Y-12197643D01*
X12682500Y-12211929D01*
X12653928Y-12226214D01*
X12625357Y-12226214D01*
X12596786Y-12211929D01*
X12582500Y-12197643D01*
X12568214Y-12169071D01*
X12553928Y-12111929D01*
X12553928Y-12040500D01*
X12568214Y-11983357D01*
X12582500Y-11954786D01*
X12596786Y-11940500D01*
X12625357Y-11926214D01*
X12853928Y-12226214D02*
X12853928Y-12026214D01*
X12853928Y-12054786D02*
X12868214Y-12040500D01*
X12896786Y-12026214D01*
X12939643Y-12026214D01*
X12968214Y-12040500D01*
X12982500Y-12069071D01*
X12982500Y-12226214D01*
X12982500Y-12069071D02*
X12996786Y-12040500D01*
X13025357Y-12026214D01*
X13068214Y-12026214D01*
X13096786Y-12040500D01*
X13111071Y-12069071D01*
X13111071Y-12226214D01*
X13253928Y-12226214D02*
X13253928Y-12026214D01*
X13253928Y-12054786D02*
X13268214Y-12040500D01*
X13296786Y-12026214D01*
X13339643Y-12026214D01*
X13368214Y-12040500D01*
X13382500Y-12069071D01*
X13382500Y-12226214D01*
X13382500Y-12069071D02*
X13396786Y-12040500D01*
X13425357Y-12026214D01*
X13468214Y-12026214D01*
X13496786Y-12040500D01*
X13511071Y-12069071D01*
X13511071Y-12226214D01*
X14096786Y-11911929D02*
X13839643Y-12297643D01*
X14482500Y-11926214D02*
X14511071Y-11926214D01*
X14539643Y-11940500D01*
X14553928Y-11954786D01*
X14568214Y-11983357D01*
X14582500Y-12040500D01*
X14582500Y-12111929D01*
X14568214Y-12169071D01*
X14553928Y-12197643D01*
X14539643Y-12211929D01*
X14511071Y-12226214D01*
X14482500Y-12226214D01*
X14453928Y-12211929D01*
X14439643Y-12197643D01*
X14425357Y-12169071D01*
X14411071Y-12111929D01*
X14411071Y-12040500D01*
X14425357Y-11983357D01*
X14439643Y-11954786D01*
X14453928Y-11940500D01*
X14482500Y-11926214D01*
X14711071Y-12197643D02*
X14725357Y-12211929D01*
X14711071Y-12226214D01*
X14696786Y-12211929D01*
X14711071Y-12197643D01*
X14711071Y-12226214D01*
X14911071Y-11926214D02*
X14939643Y-11926214D01*
X14968214Y-11940500D01*
X14982500Y-11954786D01*
X14996786Y-11983357D01*
X15011071Y-12040500D01*
X15011071Y-12111929D01*
X14996786Y-12169071D01*
X14982500Y-12197643D01*
X14968214Y-12211929D01*
X14939643Y-12226214D01*
X14911071Y-12226214D01*
X14882500Y-12211929D01*
X14868214Y-12197643D01*
X14853928Y-12169071D01*
X14839643Y-12111929D01*
X14839643Y-12040500D01*
X14853928Y-11983357D01*
X14868214Y-11954786D01*
X14882500Y-11940500D01*
X14911071Y-11926214D01*
X15111071Y-11926214D02*
X15296786Y-11926214D01*
X15196786Y-12040500D01*
X15239643Y-12040500D01*
X15268214Y-12054786D01*
X15282500Y-12069071D01*
X15296786Y-12097643D01*
X15296786Y-12169071D01*
X15282500Y-12197643D01*
X15268214Y-12211929D01*
X15239643Y-12226214D01*
X15153928Y-12226214D01*
X15125357Y-12211929D01*
X15111071Y-12197643D01*
X15439643Y-12226214D02*
X15496786Y-12226214D01*
X15525357Y-12211929D01*
X15539643Y-12197643D01*
X15568214Y-12154786D01*
X15582500Y-12097643D01*
X15582500Y-11983357D01*
X15568214Y-11954786D01*
X15553928Y-11940500D01*
X15525357Y-11926214D01*
X15468214Y-11926214D01*
X15439643Y-11940500D01*
X15425357Y-11954786D01*
X15411071Y-11983357D01*
X15411071Y-12054786D01*
X15425357Y-12083357D01*
X15439643Y-12097643D01*
X15468214Y-12111929D01*
X15525357Y-12111929D01*
X15553928Y-12097643D01*
X15568214Y-12083357D01*
X15582500Y-12054786D01*
X15696786Y-11926214D02*
X15696786Y-11983357D01*
X15811071Y-11926214D02*
X15811071Y-11983357D01*
X16253928Y-12340500D02*
X16239643Y-12326214D01*
X16211071Y-12283357D01*
X16196786Y-12254786D01*
X16182500Y-12211929D01*
X16168214Y-12140500D01*
X16168214Y-12083357D01*
X16182500Y-12011929D01*
X16196786Y-11969071D01*
X16211071Y-11940500D01*
X16239643Y-11897643D01*
X16253928Y-11883357D01*
X16525357Y-12226214D02*
X16353928Y-12226214D01*
X16439643Y-12226214D02*
X16439643Y-11926214D01*
X16411071Y-11969071D01*
X16382500Y-11997643D01*
X16353928Y-12011929D01*
X16782500Y-11926214D02*
X16725357Y-11926214D01*
X16696786Y-11940500D01*
X16682500Y-11954786D01*
X16653928Y-11997643D01*
X16639643Y-12054786D01*
X16639643Y-12169071D01*
X16653928Y-12197643D01*
X16668214Y-12211929D01*
X16696786Y-12226214D01*
X16753928Y-12226214D01*
X16782500Y-12211929D01*
X16796786Y-12197643D01*
X16811071Y-12169071D01*
X16811071Y-12097643D01*
X16796786Y-12069071D01*
X16782500Y-12054786D01*
X16753928Y-12040500D01*
X16696786Y-12040500D01*
X16668214Y-12054786D01*
X16653928Y-12069071D01*
X16639643Y-12097643D01*
X17168214Y-12226214D02*
X17168214Y-11926214D01*
X17296786Y-12226214D02*
X17296786Y-12069071D01*
X17282500Y-12040500D01*
X17253928Y-12026214D01*
X17211071Y-12026214D01*
X17182500Y-12040500D01*
X17168214Y-12054786D01*
X17482500Y-12226214D02*
X17453928Y-12211929D01*
X17439643Y-12197643D01*
X17425357Y-12169071D01*
X17425357Y-12083357D01*
X17439643Y-12054786D01*
X17453928Y-12040500D01*
X17482500Y-12026214D01*
X17525357Y-12026214D01*
X17553928Y-12040500D01*
X17568214Y-12054786D01*
X17582500Y-12083357D01*
X17582500Y-12169071D01*
X17568214Y-12197643D01*
X17553928Y-12211929D01*
X17525357Y-12226214D01*
X17482500Y-12226214D01*
X17753928Y-12226214D02*
X17725357Y-12211929D01*
X17711071Y-12183357D01*
X17711071Y-11926214D01*
X17982500Y-12211929D02*
X17953928Y-12226214D01*
X17896786Y-12226214D01*
X17868214Y-12211929D01*
X17853928Y-12183357D01*
X17853928Y-12069071D01*
X17868214Y-12040500D01*
X17896786Y-12026214D01*
X17953928Y-12026214D01*
X17982500Y-12040500D01*
X17996786Y-12069071D01*
X17996786Y-12097643D01*
X17853928Y-12126214D01*
X18111071Y-12211929D02*
X18139643Y-12226214D01*
X18196786Y-12226214D01*
X18225357Y-12211929D01*
X18239643Y-12183357D01*
X18239643Y-12169071D01*
X18225357Y-12140500D01*
X18196786Y-12126214D01*
X18153928Y-12126214D01*
X18125357Y-12111929D01*
X18111071Y-12083357D01*
X18111071Y-12069071D01*
X18125357Y-12040500D01*
X18153928Y-12026214D01*
X18196786Y-12026214D01*
X18225357Y-12040500D01*
X18339643Y-12340500D02*
X18353928Y-12326214D01*
X18382500Y-12283357D01*
X18396786Y-12254786D01*
X18411071Y-12211929D01*
X18425357Y-12140500D01*
X18425357Y-12083357D01*
X18411071Y-12011929D01*
X18396786Y-11969071D01*
X18382500Y-11940500D01*
X18353928Y-11897643D01*
X18339643Y-11883357D01*
M02*
