M48
; DRILL file {KiCad 5.1.9+dfsg1-1} date Tue May 25 15:20:37 2021
; FORMAT={-:-/ absolute / inch / decimal}
; #@! TF.CreationDate,2021-05-25T15:20:37+02:00
; #@! TF.GenerationSoftware,Kicad,Pcbnew,5.1.9+dfsg1-1
; #@! TF.FileFunction,Plated,1,2,PTH
FMAT,2
INCH
T1C0.0157
T2C0.0315
T3C0.0354
T4C0.0394
%
G90
G05
T1
X4.91Y-2.76
X5.03Y-2.91
X5.04Y-3.55
X5.08Y-2.6
X5.08Y-2.79
X5.21Y-2.79
X5.24Y-1.97
X5.27Y-2.6
X5.32Y-3.34
X5.32Y-3.47
X5.39Y-2.61
X5.45Y-2.67
X5.52Y-2.96
X5.52Y-3.26
X5.55Y-3.34
X5.6Y-1.97
X5.6Y-2.55
X5.64Y-2.77
X5.68Y-2.54
X5.71Y-2.77
X5.71Y-3.5
X5.72Y-3.11
X5.75Y-2.39
X5.78Y-2.77
X5.96Y-3.5
X5.97Y-2.28
X6.01Y-2.54
X6.02Y-2.48
X6.0553Y-2.1447
X6.06Y-1.97
X6.06Y-2.1
X6.1Y-2.44
X6.17Y-3.37
X6.18Y-2.75
X6.27Y-2.05
X6.31Y-2.29
X6.55Y-2.03
X6.84Y-3.58
T2
X5.14Y-2.29
X5.2384Y-2.29
T3
X6.34Y-2.14
X6.44Y-2.14
X6.54Y-2.14
T4
X4.6461Y-2.614
X4.6461Y-2.714
X4.6461Y-2.814
X4.6461Y-2.914
X4.6461Y-3.014
X4.6461Y-3.114
X4.7323Y-3.8425
X4.8323Y-3.8425
X4.9323Y-3.8425
X4.96Y-3.36
X4.96Y-3.46
X5.0323Y-3.8425
X6.6291Y-3.8386
X6.7291Y-3.8386
X6.8291Y-3.8386
X6.9291Y-3.8386
T0
M30
