%TF.GenerationSoftware,KiCad,Pcbnew,6.0.2+dfsg-1*%
%TF.CreationDate,2022-06-15T15:33:44+02:00*%
%TF.ProjectId,vscp-din-wireless-esp32-can,76736370-2d64-4696-9e2d-776972656c65,rev?*%
%TF.SameCoordinates,Original*%
%TF.FileFunction,Paste,Top*%
%TF.FilePolarity,Positive*%
%FSLAX46Y46*%
G04 Gerber Fmt 4.6, Leading zero omitted, Abs format (unit mm)*
G04 Created by KiCad (PCBNEW 6.0.2+dfsg-1) date 2022-06-15 15:33:44*
%MOMM*%
%LPD*%
G01*
G04 APERTURE LIST*
G04 Aperture macros list*
%AMRoundRect*
0 Rectangle with rounded corners*
0 $1 Rounding radius*
0 $2 $3 $4 $5 $6 $7 $8 $9 X,Y pos of 4 corners*
0 Add a 4 corners polygon primitive as box body*
4,1,4,$2,$3,$4,$5,$6,$7,$8,$9,$2,$3,0*
0 Add four circle primitives for the rounded corners*
1,1,$1+$1,$2,$3*
1,1,$1+$1,$4,$5*
1,1,$1+$1,$6,$7*
1,1,$1+$1,$8,$9*
0 Add four rect primitives between the rounded corners*
20,1,$1+$1,$2,$3,$4,$5,0*
20,1,$1+$1,$4,$5,$6,$7,0*
20,1,$1+$1,$6,$7,$8,$9,0*
20,1,$1+$1,$8,$9,$2,$3,0*%
G04 Aperture macros list end*
%ADD10R,2.000000X4.500000*%
%ADD11RoundRect,0.150000X-0.825000X-0.150000X0.825000X-0.150000X0.825000X0.150000X-0.825000X0.150000X0*%
%ADD12RoundRect,0.150000X0.825000X0.150000X-0.825000X0.150000X-0.825000X-0.150000X0.825000X-0.150000X0*%
%ADD13RoundRect,0.250000X-0.262500X-0.450000X0.262500X-0.450000X0.262500X0.450000X-0.262500X0.450000X0*%
%ADD14RoundRect,0.250000X0.262500X0.450000X-0.262500X0.450000X-0.262500X-0.450000X0.262500X-0.450000X0*%
%ADD15R,0.900000X0.800000*%
%ADD16RoundRect,0.250000X-0.250000X-0.475000X0.250000X-0.475000X0.250000X0.475000X-0.250000X0.475000X0*%
%ADD17RoundRect,0.250000X0.250000X0.475000X-0.250000X0.475000X-0.250000X-0.475000X0.250000X-0.475000X0*%
%ADD18RoundRect,0.250000X0.450000X-0.262500X0.450000X0.262500X-0.450000X0.262500X-0.450000X-0.262500X0*%
%ADD19R,2.000000X0.900000*%
%ADD20R,0.900000X2.000000*%
%ADD21R,5.000000X5.000000*%
%ADD22RoundRect,0.250000X0.475000X-0.250000X0.475000X0.250000X-0.475000X0.250000X-0.475000X-0.250000X0*%
%ADD23RoundRect,0.250000X-0.475000X0.250000X-0.475000X-0.250000X0.475000X-0.250000X0.475000X0.250000X0*%
G04 APERTURE END LIST*
D10*
%TO.C,Y1*%
X153878000Y-81614000D03*
X153878000Y-90114000D03*
%TD*%
D11*
%TO.C,U3*%
X147463000Y-89547000D03*
X147463000Y-90817000D03*
X147463000Y-92087000D03*
X147463000Y-93357000D03*
X142513000Y-93357000D03*
X142513000Y-92087000D03*
X142513000Y-90817000D03*
X142513000Y-89547000D03*
%TD*%
D12*
%TO.C,U2*%
X142767000Y-85610000D03*
X142767000Y-84340000D03*
X142767000Y-83070000D03*
X142767000Y-81800000D03*
X142767000Y-80530000D03*
X142767000Y-79260000D03*
X142767000Y-77990000D03*
X147717000Y-77990000D03*
X147717000Y-79260000D03*
X147717000Y-80530000D03*
X147717000Y-81800000D03*
X147717000Y-83070000D03*
X147717000Y-84340000D03*
X147717000Y-85610000D03*
%TD*%
D13*
%TO.C,R9*%
X130406500Y-90944000D03*
X128581500Y-90944000D03*
%TD*%
D14*
%TO.C,R7*%
X137979500Y-78498000D03*
X139804500Y-78498000D03*
%TD*%
D13*
%TO.C,R4*%
X139804500Y-82816000D03*
X137979500Y-82816000D03*
%TD*%
D15*
%TO.C,D2*%
X136114000Y-90436000D03*
X138114000Y-89486000D03*
X138114000Y-91386000D03*
%TD*%
D16*
%TO.C,C7*%
X155082000Y-94246000D03*
X153182000Y-94246000D03*
%TD*%
%TO.C,C6*%
X155016000Y-77736000D03*
X153116000Y-77736000D03*
%TD*%
D17*
%TO.C,C5*%
X137942000Y-85356000D03*
X139842000Y-85356000D03*
%TD*%
%TO.C,C4*%
X136164000Y-93738000D03*
X138064000Y-93738000D03*
%TD*%
D18*
%TO.C,R6*%
X163276000Y-64377500D03*
X163276000Y-66202500D03*
%TD*%
D19*
%TO.C,U1*%
X156520000Y-54996000D03*
X156520000Y-56266000D03*
X156520000Y-57536000D03*
X156520000Y-58806000D03*
X156520000Y-60076000D03*
X156520000Y-61346000D03*
X156520000Y-62616000D03*
X156520000Y-63886000D03*
X156520000Y-65156000D03*
X156520000Y-66426000D03*
X156520000Y-67696000D03*
X156520000Y-68966000D03*
X156520000Y-70236000D03*
X156520000Y-71506000D03*
D20*
X153735000Y-72506000D03*
X152465000Y-72506000D03*
X151195000Y-72506000D03*
X149925000Y-72506000D03*
X148655000Y-72506000D03*
X147385000Y-72506000D03*
X146115000Y-72506000D03*
X144845000Y-72506000D03*
X143575000Y-72506000D03*
X142305000Y-72506000D03*
D19*
X139520000Y-71506000D03*
X139520000Y-70236000D03*
X139520000Y-68966000D03*
X139520000Y-67696000D03*
X139520000Y-66426000D03*
X139520000Y-65156000D03*
X139520000Y-63886000D03*
X139520000Y-62616000D03*
X139520000Y-61346000D03*
X139520000Y-60076000D03*
X139520000Y-58806000D03*
X139520000Y-57536000D03*
X139520000Y-56266000D03*
X139520000Y-54996000D03*
D21*
X147020000Y-62496000D03*
%TD*%
D13*
%TO.C,R8*%
X161140500Y-55384000D03*
X159315500Y-55384000D03*
%TD*%
%TO.C,R2*%
X135994500Y-59448000D03*
X134169500Y-59448000D03*
%TD*%
D14*
%TO.C,R5*%
X120787500Y-72000000D03*
X122612500Y-72000000D03*
%TD*%
D13*
%TO.C,R3*%
X122786500Y-79550000D03*
X120961500Y-79550000D03*
%TD*%
D18*
%TO.C,R1*%
X160228000Y-66409500D03*
X160228000Y-68234500D03*
%TD*%
D22*
%TO.C,C8*%
X176022000Y-92522000D03*
X176022000Y-94422000D03*
%TD*%
%TO.C,C1*%
X135844000Y-55450000D03*
X135844000Y-57350000D03*
%TD*%
D23*
%TO.C,C3*%
X135844000Y-63700000D03*
X135844000Y-61800000D03*
%TD*%
M02*
