M48
; DRILL file {KiCad 6.0.2+dfsg-1} date tor  1 sep 2022 21:00:53
; FORMAT={-:-/ absolute / inch / decimal}
; #@! TF.CreationDate,2022-09-01T21:00:53+02:00
; #@! TF.GenerationSoftware,Kicad,Pcbnew,6.0.2+dfsg-1
; #@! TF.FileFunction,MixedPlating,1,2
FMAT,2
INCH
; #@! TA.AperFunction,Plated,PTH,ViaDrill
T1C0.0157
; #@! TA.AperFunction,Plated,PTH,ComponentDrill
T2C0.0394
; #@! TA.AperFunction,Plated,PTH,ComponentDrill
T3C0.0472
%
G90
G05
T1
X4.8012Y-4.6575
X4.8012Y-4.7126
X4.8642Y-4.7894
X4.872Y-3.0413
X4.8898Y-4.6024
X4.9075Y-4.7913
X4.9724Y-5.315
X4.9764Y-4.6811
X4.9902Y-4.8445
X5.0039Y-3.815
X5.0256Y-3.7441
X5.0354Y-3.0748
X5.0374Y-5.7165
X5.0787Y-4.3012
X5.1378Y-4.0118
X5.1417Y-4.6378
X5.1457Y-3.4882
X5.1732Y-3.0354
X5.189Y-3.2677
X5.2244Y-3.8169
X5.2402Y-3.7382
X5.2421Y-4.6772
X5.2559Y-4.4449
X5.2795Y-5.7461
X5.3268Y-4.4252
X5.3287Y-3.0354
X5.3307Y-4.187
X5.3543Y-3.5315
X5.3583Y-4.685
X5.4114Y-4.2598
X5.437Y-3.8386
X5.4488Y-5.5571
X5.4547Y-3.3651
X5.4843Y-4.1201
X5.4862Y-4.1654
X5.5236Y-4.5315
X5.5512Y-3.0984
X5.5571Y-5.7795
X5.5866Y-4.4961
X5.6201Y-5.4823
X5.7402Y-4.2559
X5.75Y-5.4203
X5.7874Y-3.8406
X5.8209Y-5.5945
X5.8268Y-5.7185
X5.876Y-5.5886
X5.8917Y-4.6024
X5.9291Y-5.7362
X5.9646Y-5.5157
X5.9882Y-3.0984
X5.9882Y-4.2933
X6.0906Y-2.8602
X6.1122Y-3.2126
X6.1161Y-3.3484
X6.2441Y-4.3386
X6.3701Y-3.065
X6.376Y-3.2815
X6.5098Y-3.6319
X6.5354Y-5.5374
X6.5413Y-3.0217
X6.5453Y-4.2559
T2
X4.8524Y-3.1504
X4.8524Y-3.2504
X4.8524Y-3.3504
X5.1319Y-5.8268
X5.2319Y-5.8268
X5.3319Y-5.8268
X5.4319Y-5.8268
X5.6053Y-3.1988
X5.6772Y-5.8209
X5.7053Y-3.1988
X5.7772Y-5.8209
X5.8053Y-3.1988
X5.8772Y-5.8209
X5.9053Y-3.1988
X5.9772Y-5.8209
X5.9965Y-2.748
X6.0053Y-3.1988
X6.0772Y-5.8209
X6.0965Y-2.748
X6.1772Y-5.8209
T3
X5.0996Y-2.9658
X5.2496Y-2.9658
X5.3996Y-2.9658
X5.5496Y-2.9658
X6.2048Y-3.169
X6.3048Y-3.169
X6.4048Y-3.169
T0
M30
