%TF.GenerationSoftware,KiCad,Pcbnew,6.0.2+dfsg-1*%
%TF.CreationDate,2022-09-01T21:00:32+02:00*%
%TF.ProjectId,vscp-din-esp32-can-z102,76736370-2d64-4696-9e2d-65737033322d,rev?*%
%TF.SameCoordinates,Original*%
%TF.FileFunction,Legend,Top*%
%TF.FilePolarity,Positive*%
%FSLAX46Y46*%
G04 Gerber Fmt 4.6, Leading zero omitted, Abs format (unit mm)*
G04 Created by KiCad (PCBNEW 6.0.2+dfsg-1) date 2022-09-01 21:00:32*
%MOMM*%
%LPD*%
G01*
G04 APERTURE LIST*
%ADD10C,0.200000*%
%ADD11C,0.300000*%
%ADD12C,0.150000*%
%ADD13C,0.120000*%
G04 APERTURE END LIST*
D10*
X152150000Y-85511904D02*
X152102380Y-85607142D01*
X152102380Y-85750000D01*
X152150000Y-85892857D01*
X152245238Y-85988095D01*
X152340476Y-86035714D01*
X152530952Y-86083333D01*
X152673809Y-86083333D01*
X152864285Y-86035714D01*
X152959523Y-85988095D01*
X153054761Y-85892857D01*
X153102380Y-85750000D01*
X153102380Y-85654761D01*
X153054761Y-85511904D01*
X153007142Y-85464285D01*
X152673809Y-85464285D01*
X152673809Y-85654761D01*
X153102380Y-85035714D02*
X152102380Y-85035714D01*
X153102380Y-84464285D01*
X152102380Y-84464285D01*
X153102380Y-83988095D02*
X152102380Y-83988095D01*
X152102380Y-83750000D01*
X152150000Y-83607142D01*
X152245238Y-83511904D01*
X152340476Y-83464285D01*
X152530952Y-83416666D01*
X152673809Y-83416666D01*
X152864285Y-83464285D01*
X152959523Y-83511904D01*
X153054761Y-83607142D01*
X153102380Y-83750000D01*
X153102380Y-83988095D01*
X149452380Y-86526190D02*
X149452380Y-85907142D01*
X149833333Y-86240476D01*
X149833333Y-86097619D01*
X149880952Y-86002380D01*
X149928571Y-85954761D01*
X150023809Y-85907142D01*
X150261904Y-85907142D01*
X150357142Y-85954761D01*
X150404761Y-86002380D01*
X150452380Y-86097619D01*
X150452380Y-86383333D01*
X150404761Y-86478571D01*
X150357142Y-86526190D01*
X150357142Y-85478571D02*
X150404761Y-85430952D01*
X150452380Y-85478571D01*
X150404761Y-85526190D01*
X150357142Y-85478571D01*
X150452380Y-85478571D01*
X149452380Y-85097619D02*
X149452380Y-84478571D01*
X149833333Y-84811904D01*
X149833333Y-84669047D01*
X149880952Y-84573809D01*
X149928571Y-84526190D01*
X150023809Y-84478571D01*
X150261904Y-84478571D01*
X150357142Y-84526190D01*
X150404761Y-84573809D01*
X150452380Y-84669047D01*
X150452380Y-84954761D01*
X150404761Y-85050000D01*
X150357142Y-85097619D01*
X149452380Y-84192857D02*
X150452380Y-83859523D01*
X149452380Y-83526190D01*
X147852380Y-86821428D02*
X146852380Y-86821428D01*
X147566666Y-86488095D01*
X146852380Y-86154761D01*
X147852380Y-86154761D01*
X146852380Y-85488095D02*
X146852380Y-85297619D01*
X146900000Y-85202380D01*
X146995238Y-85107142D01*
X147185714Y-85059523D01*
X147519047Y-85059523D01*
X147709523Y-85107142D01*
X147804761Y-85202380D01*
X147852380Y-85297619D01*
X147852380Y-85488095D01*
X147804761Y-85583333D01*
X147709523Y-85678571D01*
X147519047Y-85726190D01*
X147185714Y-85726190D01*
X146995238Y-85678571D01*
X146900000Y-85583333D01*
X146852380Y-85488095D01*
X147804761Y-84678571D02*
X147852380Y-84535714D01*
X147852380Y-84297619D01*
X147804761Y-84202380D01*
X147757142Y-84154761D01*
X147661904Y-84107142D01*
X147566666Y-84107142D01*
X147471428Y-84154761D01*
X147423809Y-84202380D01*
X147376190Y-84297619D01*
X147328571Y-84488095D01*
X147280952Y-84583333D01*
X147233333Y-84630952D01*
X147138095Y-84678571D01*
X147042857Y-84678571D01*
X146947619Y-84630952D01*
X146900000Y-84583333D01*
X146852380Y-84488095D01*
X146852380Y-84250000D01*
X146900000Y-84107142D01*
X147852380Y-83678571D02*
X146852380Y-83678571D01*
X145354761Y-86035714D02*
X145402380Y-85892857D01*
X145402380Y-85654761D01*
X145354761Y-85559523D01*
X145307142Y-85511904D01*
X145211904Y-85464285D01*
X145116666Y-85464285D01*
X145021428Y-85511904D01*
X144973809Y-85559523D01*
X144926190Y-85654761D01*
X144878571Y-85845238D01*
X144830952Y-85940476D01*
X144783333Y-85988095D01*
X144688095Y-86035714D01*
X144592857Y-86035714D01*
X144497619Y-85988095D01*
X144450000Y-85940476D01*
X144402380Y-85845238D01*
X144402380Y-85607142D01*
X144450000Y-85464285D01*
X145307142Y-84464285D02*
X145354761Y-84511904D01*
X145402380Y-84654761D01*
X145402380Y-84750000D01*
X145354761Y-84892857D01*
X145259523Y-84988095D01*
X145164285Y-85035714D01*
X144973809Y-85083333D01*
X144830952Y-85083333D01*
X144640476Y-85035714D01*
X144545238Y-84988095D01*
X144450000Y-84892857D01*
X144402380Y-84750000D01*
X144402380Y-84654761D01*
X144450000Y-84511904D01*
X144497619Y-84464285D01*
X145402380Y-84035714D02*
X144402380Y-84035714D01*
X145402380Y-83464285D02*
X144830952Y-83892857D01*
X144402380Y-83464285D02*
X144973809Y-84035714D01*
X142902380Y-86671428D02*
X141902380Y-86671428D01*
X142616666Y-86338095D01*
X141902380Y-86004761D01*
X142902380Y-86004761D01*
X142902380Y-85528571D02*
X141902380Y-85528571D01*
X142854761Y-85100000D02*
X142902380Y-84957142D01*
X142902380Y-84719047D01*
X142854761Y-84623809D01*
X142807142Y-84576190D01*
X142711904Y-84528571D01*
X142616666Y-84528571D01*
X142521428Y-84576190D01*
X142473809Y-84623809D01*
X142426190Y-84719047D01*
X142378571Y-84909523D01*
X142330952Y-85004761D01*
X142283333Y-85052380D01*
X142188095Y-85100000D01*
X142092857Y-85100000D01*
X141997619Y-85052380D01*
X141950000Y-85004761D01*
X141902380Y-84909523D01*
X141902380Y-84671428D01*
X141950000Y-84528571D01*
X141902380Y-83909523D02*
X141902380Y-83719047D01*
X141950000Y-83623809D01*
X142045238Y-83528571D01*
X142235714Y-83480952D01*
X142569047Y-83480952D01*
X142759523Y-83528571D01*
X142854761Y-83623809D01*
X142902380Y-83719047D01*
X142902380Y-83909523D01*
X142854761Y-84004761D01*
X142759523Y-84100000D01*
X142569047Y-84147619D01*
X142235714Y-84147619D01*
X142045238Y-84100000D01*
X141950000Y-84004761D01*
X141902380Y-83909523D01*
X141976190Y-79004761D02*
X142119047Y-79052380D01*
X142357142Y-79052380D01*
X142452380Y-79004761D01*
X142500000Y-78957142D01*
X142547619Y-78861904D01*
X142547619Y-78766666D01*
X142500000Y-78671428D01*
X142452380Y-78623809D01*
X142357142Y-78576190D01*
X142166666Y-78528571D01*
X142071428Y-78480952D01*
X142023809Y-78433333D01*
X141976190Y-78338095D01*
X141976190Y-78242857D01*
X142023809Y-78147619D01*
X142071428Y-78100000D01*
X142166666Y-78052380D01*
X142404761Y-78052380D01*
X142547619Y-78100000D01*
X142976190Y-79052380D02*
X142976190Y-78052380D01*
X143357142Y-78052380D01*
X143452380Y-78100000D01*
X143500000Y-78147619D01*
X143547619Y-78242857D01*
X143547619Y-78385714D01*
X143500000Y-78480952D01*
X143452380Y-78528571D01*
X143357142Y-78576190D01*
X142976190Y-78576190D01*
X143976190Y-79052380D02*
X143976190Y-78052380D01*
X157309523Y-69602380D02*
X157880952Y-69602380D01*
X157595238Y-70602380D02*
X157595238Y-69602380D01*
X158595238Y-70554761D02*
X158500000Y-70602380D01*
X158309523Y-70602380D01*
X158214285Y-70554761D01*
X158166666Y-70459523D01*
X158166666Y-70078571D01*
X158214285Y-69983333D01*
X158309523Y-69935714D01*
X158500000Y-69935714D01*
X158595238Y-69983333D01*
X158642857Y-70078571D01*
X158642857Y-70173809D01*
X158166666Y-70269047D01*
X159071428Y-70602380D02*
X159071428Y-69935714D01*
X159071428Y-70126190D02*
X159119047Y-70030952D01*
X159166666Y-69983333D01*
X159261904Y-69935714D01*
X159357142Y-69935714D01*
X159690476Y-70602380D02*
X159690476Y-69935714D01*
X159690476Y-70030952D02*
X159738095Y-69983333D01*
X159833333Y-69935714D01*
X159976190Y-69935714D01*
X160071428Y-69983333D01*
X160119047Y-70078571D01*
X160119047Y-70602380D01*
X160119047Y-70078571D02*
X160166666Y-69983333D01*
X160261904Y-69935714D01*
X160404761Y-69935714D01*
X160500000Y-69983333D01*
X160547619Y-70078571D01*
X160547619Y-70602380D01*
D11*
X123685714Y-132478571D02*
X123185714Y-131764285D01*
X122828571Y-132478571D02*
X122828571Y-130978571D01*
X123400000Y-130978571D01*
X123542857Y-131050000D01*
X123614285Y-131121428D01*
X123685714Y-131264285D01*
X123685714Y-131478571D01*
X123614285Y-131621428D01*
X123542857Y-131692857D01*
X123400000Y-131764285D01*
X122828571Y-131764285D01*
X124900000Y-132407142D02*
X124757142Y-132478571D01*
X124471428Y-132478571D01*
X124328571Y-132407142D01*
X124257142Y-132264285D01*
X124257142Y-131692857D01*
X124328571Y-131550000D01*
X124471428Y-131478571D01*
X124757142Y-131478571D01*
X124900000Y-131550000D01*
X124971428Y-131692857D01*
X124971428Y-131835714D01*
X124257142Y-131978571D01*
X125471428Y-131478571D02*
X125828571Y-132478571D01*
X126185714Y-131478571D01*
X127828571Y-132050000D02*
X128542857Y-132050000D01*
X127685714Y-132478571D02*
X128185714Y-130978571D01*
X128685714Y-132478571D01*
X123607142Y-128800000D02*
X123464285Y-128728571D01*
X123250000Y-128728571D01*
X123035714Y-128800000D01*
X122892857Y-128942857D01*
X122821428Y-129085714D01*
X122750000Y-129371428D01*
X122750000Y-129585714D01*
X122821428Y-129871428D01*
X122892857Y-130014285D01*
X123035714Y-130157142D01*
X123250000Y-130228571D01*
X123392857Y-130228571D01*
X123607142Y-130157142D01*
X123678571Y-130085714D01*
X123678571Y-129585714D01*
X123392857Y-129585714D01*
X124964285Y-130228571D02*
X124964285Y-129442857D01*
X124892857Y-129300000D01*
X124750000Y-129228571D01*
X124464285Y-129228571D01*
X124321428Y-129300000D01*
X124964285Y-130157142D02*
X124821428Y-130228571D01*
X124464285Y-130228571D01*
X124321428Y-130157142D01*
X124250000Y-130014285D01*
X124250000Y-129871428D01*
X124321428Y-129728571D01*
X124464285Y-129657142D01*
X124821428Y-129657142D01*
X124964285Y-129585714D01*
X125464285Y-129228571D02*
X126035714Y-129228571D01*
X125678571Y-128728571D02*
X125678571Y-130014285D01*
X125750000Y-130157142D01*
X125892857Y-130228571D01*
X126035714Y-130228571D01*
X127107142Y-130157142D02*
X126964285Y-130228571D01*
X126678571Y-130228571D01*
X126535714Y-130157142D01*
X126464285Y-130014285D01*
X126464285Y-129442857D01*
X126535714Y-129300000D01*
X126678571Y-129228571D01*
X126964285Y-129228571D01*
X127107142Y-129300000D01*
X127178571Y-129442857D01*
X127178571Y-129585714D01*
X126464285Y-129728571D01*
X127678571Y-129228571D02*
X127964285Y-130228571D01*
X128250000Y-129514285D01*
X128535714Y-130228571D01*
X128821428Y-129228571D01*
X130035714Y-130228571D02*
X130035714Y-129442857D01*
X129964285Y-129300000D01*
X129821428Y-129228571D01*
X129535714Y-129228571D01*
X129392857Y-129300000D01*
X130035714Y-130157142D02*
X129892857Y-130228571D01*
X129535714Y-130228571D01*
X129392857Y-130157142D01*
X129321428Y-130014285D01*
X129321428Y-129871428D01*
X129392857Y-129728571D01*
X129535714Y-129657142D01*
X129892857Y-129657142D01*
X130035714Y-129585714D01*
X130607142Y-129228571D02*
X130964285Y-130228571D01*
X131321428Y-129228571D02*
X130964285Y-130228571D01*
X130821428Y-130585714D01*
X130750000Y-130657142D01*
X130607142Y-130728571D01*
X122771428Y-126528571D02*
X123271428Y-128028571D01*
X123771428Y-126528571D01*
X124200000Y-127957142D02*
X124414285Y-128028571D01*
X124771428Y-128028571D01*
X124914285Y-127957142D01*
X124985714Y-127885714D01*
X125057142Y-127742857D01*
X125057142Y-127600000D01*
X124985714Y-127457142D01*
X124914285Y-127385714D01*
X124771428Y-127314285D01*
X124485714Y-127242857D01*
X124342857Y-127171428D01*
X124271428Y-127100000D01*
X124200000Y-126957142D01*
X124200000Y-126814285D01*
X124271428Y-126671428D01*
X124342857Y-126600000D01*
X124485714Y-126528571D01*
X124842857Y-126528571D01*
X125057142Y-126600000D01*
X126557142Y-127885714D02*
X126485714Y-127957142D01*
X126271428Y-128028571D01*
X126128571Y-128028571D01*
X125914285Y-127957142D01*
X125771428Y-127814285D01*
X125700000Y-127671428D01*
X125628571Y-127385714D01*
X125628571Y-127171428D01*
X125700000Y-126885714D01*
X125771428Y-126742857D01*
X125914285Y-126600000D01*
X126128571Y-126528571D01*
X126271428Y-126528571D01*
X126485714Y-126600000D01*
X126557142Y-126671428D01*
X127200000Y-128028571D02*
X127200000Y-126528571D01*
X127771428Y-126528571D01*
X127914285Y-126600000D01*
X127985714Y-126671428D01*
X128057142Y-126814285D01*
X128057142Y-127028571D01*
X127985714Y-127171428D01*
X127914285Y-127242857D01*
X127771428Y-127314285D01*
X127200000Y-127314285D01*
X129700000Y-126528571D02*
X130057142Y-128028571D01*
X130342857Y-126957142D01*
X130628571Y-128028571D01*
X130985714Y-126528571D01*
X131557142Y-128028571D02*
X131557142Y-127028571D01*
X131557142Y-126528571D02*
X131485714Y-126600000D01*
X131557142Y-126671428D01*
X131628571Y-126600000D01*
X131557142Y-126528571D01*
X131557142Y-126671428D01*
X132271428Y-128028571D02*
X132271428Y-127028571D01*
X132271428Y-127314285D02*
X132342857Y-127171428D01*
X132414285Y-127100000D01*
X132557142Y-127028571D01*
X132700000Y-127028571D01*
X133771428Y-127957142D02*
X133628571Y-128028571D01*
X133342857Y-128028571D01*
X133200000Y-127957142D01*
X133128571Y-127814285D01*
X133128571Y-127242857D01*
X133200000Y-127100000D01*
X133342857Y-127028571D01*
X133628571Y-127028571D01*
X133771428Y-127100000D01*
X133842857Y-127242857D01*
X133842857Y-127385714D01*
X133128571Y-127528571D01*
X134700000Y-128028571D02*
X134557142Y-127957142D01*
X134485714Y-127814285D01*
X134485714Y-126528571D01*
X135842857Y-127957142D02*
X135700000Y-128028571D01*
X135414285Y-128028571D01*
X135271428Y-127957142D01*
X135200000Y-127814285D01*
X135200000Y-127242857D01*
X135271428Y-127100000D01*
X135414285Y-127028571D01*
X135700000Y-127028571D01*
X135842857Y-127100000D01*
X135914285Y-127242857D01*
X135914285Y-127385714D01*
X135200000Y-127528571D01*
X136485714Y-127957142D02*
X136628571Y-128028571D01*
X136914285Y-128028571D01*
X137057142Y-127957142D01*
X137128571Y-127814285D01*
X137128571Y-127742857D01*
X137057142Y-127600000D01*
X136914285Y-127528571D01*
X136700000Y-127528571D01*
X136557142Y-127457142D01*
X136485714Y-127314285D01*
X136485714Y-127242857D01*
X136557142Y-127100000D01*
X136700000Y-127028571D01*
X136914285Y-127028571D01*
X137057142Y-127100000D01*
X137700000Y-127957142D02*
X137842857Y-128028571D01*
X138128571Y-128028571D01*
X138271428Y-127957142D01*
X138342857Y-127814285D01*
X138342857Y-127742857D01*
X138271428Y-127600000D01*
X138128571Y-127528571D01*
X137914285Y-127528571D01*
X137771428Y-127457142D01*
X137700000Y-127314285D01*
X137700000Y-127242857D01*
X137771428Y-127100000D01*
X137914285Y-127028571D01*
X138128571Y-127028571D01*
X138271428Y-127100000D01*
X140985714Y-127885714D02*
X140914285Y-127957142D01*
X140700000Y-128028571D01*
X140557142Y-128028571D01*
X140342857Y-127957142D01*
X140200000Y-127814285D01*
X140128571Y-127671428D01*
X140057142Y-127385714D01*
X140057142Y-127171428D01*
X140128571Y-126885714D01*
X140200000Y-126742857D01*
X140342857Y-126600000D01*
X140557142Y-126528571D01*
X140700000Y-126528571D01*
X140914285Y-126600000D01*
X140985714Y-126671428D01*
X141557142Y-127600000D02*
X142271428Y-127600000D01*
X141414285Y-128028571D02*
X141914285Y-126528571D01*
X142414285Y-128028571D01*
X142914285Y-128028571D02*
X142914285Y-126528571D01*
X143771428Y-128028571D01*
X143771428Y-126528571D01*
X145128571Y-127028571D02*
X145128571Y-128028571D01*
X144771428Y-126457142D02*
X144414285Y-127528571D01*
X145342857Y-127528571D01*
X145700000Y-126528571D02*
X146200000Y-128028571D01*
X146700000Y-126528571D01*
X147128571Y-127957142D02*
X147342857Y-128028571D01*
X147700000Y-128028571D01*
X147842857Y-127957142D01*
X147914285Y-127885714D01*
X147985714Y-127742857D01*
X147985714Y-127600000D01*
X147914285Y-127457142D01*
X147842857Y-127385714D01*
X147700000Y-127314285D01*
X147414285Y-127242857D01*
X147271428Y-127171428D01*
X147200000Y-127100000D01*
X147128571Y-126957142D01*
X147128571Y-126814285D01*
X147200000Y-126671428D01*
X147271428Y-126600000D01*
X147414285Y-126528571D01*
X147771428Y-126528571D01*
X147985714Y-126600000D01*
X149485714Y-127885714D02*
X149414285Y-127957142D01*
X149200000Y-128028571D01*
X149057142Y-128028571D01*
X148842857Y-127957142D01*
X148700000Y-127814285D01*
X148628571Y-127671428D01*
X148557142Y-127385714D01*
X148557142Y-127171428D01*
X148628571Y-126885714D01*
X148700000Y-126742857D01*
X148842857Y-126600000D01*
X149057142Y-126528571D01*
X149200000Y-126528571D01*
X149414285Y-126600000D01*
X149485714Y-126671428D01*
X150128571Y-128028571D02*
X150128571Y-126528571D01*
X150700000Y-126528571D01*
X150842857Y-126600000D01*
X150914285Y-126671428D01*
X150985714Y-126814285D01*
X150985714Y-127028571D01*
X150914285Y-127171428D01*
X150842857Y-127242857D01*
X150700000Y-127314285D01*
X150128571Y-127314285D01*
D12*
%TO.C,J1*%
X147721666Y-78052380D02*
X147721666Y-78766666D01*
X147674047Y-78909523D01*
X147578809Y-79004761D01*
X147435952Y-79052380D01*
X147340714Y-79052380D01*
X148721666Y-79052380D02*
X148150238Y-79052380D01*
X148435952Y-79052380D02*
X148435952Y-78052380D01*
X148340714Y-78195238D01*
X148245476Y-78290476D01*
X148150238Y-78338095D01*
%TO.C,U1*%
X141402380Y-104511904D02*
X142211904Y-104511904D01*
X142307142Y-104464285D01*
X142354761Y-104416666D01*
X142402380Y-104321428D01*
X142402380Y-104130952D01*
X142354761Y-104035714D01*
X142307142Y-103988095D01*
X142211904Y-103940476D01*
X141402380Y-103940476D01*
X142402380Y-102940476D02*
X142402380Y-103511904D01*
X142402380Y-103226190D02*
X141402380Y-103226190D01*
X141545238Y-103321428D01*
X141640476Y-103416666D01*
X141688095Y-103511904D01*
%TO.C,C6*%
X153077142Y-76166666D02*
X153124761Y-76214285D01*
X153172380Y-76357142D01*
X153172380Y-76452380D01*
X153124761Y-76595238D01*
X153029523Y-76690476D01*
X152934285Y-76738095D01*
X152743809Y-76785714D01*
X152600952Y-76785714D01*
X152410476Y-76738095D01*
X152315238Y-76690476D01*
X152220000Y-76595238D01*
X152172380Y-76452380D01*
X152172380Y-76357142D01*
X152220000Y-76214285D01*
X152267619Y-76166666D01*
X152172380Y-75309523D02*
X152172380Y-75500000D01*
X152220000Y-75595238D01*
X152267619Y-75642857D01*
X152410476Y-75738095D01*
X152600952Y-75785714D01*
X152981904Y-75785714D01*
X153077142Y-75738095D01*
X153124761Y-75690476D01*
X153172380Y-75595238D01*
X153172380Y-75404761D01*
X153124761Y-75309523D01*
X153077142Y-75261904D01*
X152981904Y-75214285D01*
X152743809Y-75214285D01*
X152648571Y-75261904D01*
X152600952Y-75309523D01*
X152553333Y-75404761D01*
X152553333Y-75595238D01*
X152600952Y-75690476D01*
X152648571Y-75738095D01*
X152743809Y-75785714D01*
%TO.C,C7*%
X159383333Y-74707142D02*
X159335714Y-74754761D01*
X159192857Y-74802380D01*
X159097619Y-74802380D01*
X158954761Y-74754761D01*
X158859523Y-74659523D01*
X158811904Y-74564285D01*
X158764285Y-74373809D01*
X158764285Y-74230952D01*
X158811904Y-74040476D01*
X158859523Y-73945238D01*
X158954761Y-73850000D01*
X159097619Y-73802380D01*
X159192857Y-73802380D01*
X159335714Y-73850000D01*
X159383333Y-73897619D01*
X159716666Y-73802380D02*
X160383333Y-73802380D01*
X159954761Y-74802380D01*
%TO.C,R9*%
X150702380Y-143479166D02*
X150226190Y-143812500D01*
X150702380Y-144050595D02*
X149702380Y-144050595D01*
X149702380Y-143669642D01*
X149750000Y-143574404D01*
X149797619Y-143526785D01*
X149892857Y-143479166D01*
X150035714Y-143479166D01*
X150130952Y-143526785D01*
X150178571Y-143574404D01*
X150226190Y-143669642D01*
X150226190Y-144050595D01*
X150702380Y-143002976D02*
X150702380Y-142812500D01*
X150654761Y-142717261D01*
X150607142Y-142669642D01*
X150464285Y-142574404D01*
X150273809Y-142526785D01*
X149892857Y-142526785D01*
X149797619Y-142574404D01*
X149750000Y-142622023D01*
X149702380Y-142717261D01*
X149702380Y-142907738D01*
X149750000Y-143002976D01*
X149797619Y-143050595D01*
X149892857Y-143098214D01*
X150130952Y-143098214D01*
X150226190Y-143050595D01*
X150273809Y-143002976D01*
X150321428Y-142907738D01*
X150321428Y-142717261D01*
X150273809Y-142622023D01*
X150226190Y-142574404D01*
X150130952Y-142526785D01*
%TO.C,R8*%
X149902380Y-69866666D02*
X149426190Y-70200000D01*
X149902380Y-70438095D02*
X148902380Y-70438095D01*
X148902380Y-70057142D01*
X148950000Y-69961904D01*
X148997619Y-69914285D01*
X149092857Y-69866666D01*
X149235714Y-69866666D01*
X149330952Y-69914285D01*
X149378571Y-69961904D01*
X149426190Y-70057142D01*
X149426190Y-70438095D01*
X149330952Y-69295238D02*
X149283333Y-69390476D01*
X149235714Y-69438095D01*
X149140476Y-69485714D01*
X149092857Y-69485714D01*
X148997619Y-69438095D01*
X148950000Y-69390476D01*
X148902380Y-69295238D01*
X148902380Y-69104761D01*
X148950000Y-69009523D01*
X148997619Y-68961904D01*
X149092857Y-68914285D01*
X149140476Y-68914285D01*
X149235714Y-68961904D01*
X149283333Y-69009523D01*
X149330952Y-69104761D01*
X149330952Y-69295238D01*
X149378571Y-69390476D01*
X149426190Y-69438095D01*
X149521428Y-69485714D01*
X149711904Y-69485714D01*
X149807142Y-69438095D01*
X149854761Y-69390476D01*
X149902380Y-69295238D01*
X149902380Y-69104761D01*
X149854761Y-69009523D01*
X149807142Y-68961904D01*
X149711904Y-68914285D01*
X149521428Y-68914285D01*
X149426190Y-68961904D01*
X149378571Y-69009523D01*
X149330952Y-69104761D01*
%TO.C,R6*%
X138583333Y-119252380D02*
X138250000Y-118776190D01*
X138011904Y-119252380D02*
X138011904Y-118252380D01*
X138392857Y-118252380D01*
X138488095Y-118300000D01*
X138535714Y-118347619D01*
X138583333Y-118442857D01*
X138583333Y-118585714D01*
X138535714Y-118680952D01*
X138488095Y-118728571D01*
X138392857Y-118776190D01*
X138011904Y-118776190D01*
X139440476Y-118252380D02*
X139250000Y-118252380D01*
X139154761Y-118300000D01*
X139107142Y-118347619D01*
X139011904Y-118490476D01*
X138964285Y-118680952D01*
X138964285Y-119061904D01*
X139011904Y-119157142D01*
X139059523Y-119204761D01*
X139154761Y-119252380D01*
X139345238Y-119252380D01*
X139440476Y-119204761D01*
X139488095Y-119157142D01*
X139535714Y-119061904D01*
X139535714Y-118823809D01*
X139488095Y-118728571D01*
X139440476Y-118680952D01*
X139345238Y-118633333D01*
X139154761Y-118633333D01*
X139059523Y-118680952D01*
X139011904Y-118728571D01*
X138964285Y-118823809D01*
%TO.C,R5*%
X132283333Y-88102380D02*
X131950000Y-87626190D01*
X131711904Y-88102380D02*
X131711904Y-87102380D01*
X132092857Y-87102380D01*
X132188095Y-87150000D01*
X132235714Y-87197619D01*
X132283333Y-87292857D01*
X132283333Y-87435714D01*
X132235714Y-87530952D01*
X132188095Y-87578571D01*
X132092857Y-87626190D01*
X131711904Y-87626190D01*
X133188095Y-87102380D02*
X132711904Y-87102380D01*
X132664285Y-87578571D01*
X132711904Y-87530952D01*
X132807142Y-87483333D01*
X133045238Y-87483333D01*
X133140476Y-87530952D01*
X133188095Y-87578571D01*
X133235714Y-87673809D01*
X133235714Y-87911904D01*
X133188095Y-88007142D01*
X133140476Y-88054761D01*
X133045238Y-88102380D01*
X132807142Y-88102380D01*
X132711904Y-88054761D01*
X132664285Y-88007142D01*
%TO.C,R4*%
X144083333Y-140902380D02*
X143750000Y-140426190D01*
X143511904Y-140902380D02*
X143511904Y-139902380D01*
X143892857Y-139902380D01*
X143988095Y-139950000D01*
X144035714Y-139997619D01*
X144083333Y-140092857D01*
X144083333Y-140235714D01*
X144035714Y-140330952D01*
X143988095Y-140378571D01*
X143892857Y-140426190D01*
X143511904Y-140426190D01*
X144940476Y-140235714D02*
X144940476Y-140902380D01*
X144702380Y-139854761D02*
X144464285Y-140569047D01*
X145083333Y-140569047D01*
%TO.C,R3*%
X131633333Y-118352380D02*
X131300000Y-117876190D01*
X131061904Y-118352380D02*
X131061904Y-117352380D01*
X131442857Y-117352380D01*
X131538095Y-117400000D01*
X131585714Y-117447619D01*
X131633333Y-117542857D01*
X131633333Y-117685714D01*
X131585714Y-117780952D01*
X131538095Y-117828571D01*
X131442857Y-117876190D01*
X131061904Y-117876190D01*
X131966666Y-117352380D02*
X132585714Y-117352380D01*
X132252380Y-117733333D01*
X132395238Y-117733333D01*
X132490476Y-117780952D01*
X132538095Y-117828571D01*
X132585714Y-117923809D01*
X132585714Y-118161904D01*
X132538095Y-118257142D01*
X132490476Y-118304761D01*
X132395238Y-118352380D01*
X132109523Y-118352380D01*
X132014285Y-118304761D01*
X131966666Y-118257142D01*
%TO.C,R2*%
X135552380Y-140316666D02*
X135076190Y-140650000D01*
X135552380Y-140888095D02*
X134552380Y-140888095D01*
X134552380Y-140507142D01*
X134600000Y-140411904D01*
X134647619Y-140364285D01*
X134742857Y-140316666D01*
X134885714Y-140316666D01*
X134980952Y-140364285D01*
X135028571Y-140411904D01*
X135076190Y-140507142D01*
X135076190Y-140888095D01*
X134647619Y-139935714D02*
X134600000Y-139888095D01*
X134552380Y-139792857D01*
X134552380Y-139554761D01*
X134600000Y-139459523D01*
X134647619Y-139411904D01*
X134742857Y-139364285D01*
X134838095Y-139364285D01*
X134980952Y-139411904D01*
X135552380Y-139983333D01*
X135552380Y-139364285D01*
%TO.C,R1*%
X133452380Y-140366666D02*
X132976190Y-140700000D01*
X133452380Y-140938095D02*
X132452380Y-140938095D01*
X132452380Y-140557142D01*
X132500000Y-140461904D01*
X132547619Y-140414285D01*
X132642857Y-140366666D01*
X132785714Y-140366666D01*
X132880952Y-140414285D01*
X132928571Y-140461904D01*
X132976190Y-140557142D01*
X132976190Y-140938095D01*
X133452380Y-139414285D02*
X133452380Y-139985714D01*
X133452380Y-139700000D02*
X132452380Y-139700000D01*
X132595238Y-139795238D01*
X132690476Y-139890476D01*
X132738095Y-139985714D01*
%TO.C,D3*%
X137761904Y-85252380D02*
X137761904Y-84252380D01*
X138000000Y-84252380D01*
X138142857Y-84300000D01*
X138238095Y-84395238D01*
X138285714Y-84490476D01*
X138333333Y-84680952D01*
X138333333Y-84823809D01*
X138285714Y-85014285D01*
X138238095Y-85109523D01*
X138142857Y-85204761D01*
X138000000Y-85252380D01*
X137761904Y-85252380D01*
X138666666Y-84252380D02*
X139285714Y-84252380D01*
X138952380Y-84633333D01*
X139095238Y-84633333D01*
X139190476Y-84680952D01*
X139238095Y-84728571D01*
X139285714Y-84823809D01*
X139285714Y-85061904D01*
X139238095Y-85157142D01*
X139190476Y-85204761D01*
X139095238Y-85252380D01*
X138809523Y-85252380D01*
X138714285Y-85204761D01*
X138666666Y-85157142D01*
%TO.C,C9*%
X126683333Y-79557142D02*
X126635714Y-79604761D01*
X126492857Y-79652380D01*
X126397619Y-79652380D01*
X126254761Y-79604761D01*
X126159523Y-79509523D01*
X126111904Y-79414285D01*
X126064285Y-79223809D01*
X126064285Y-79080952D01*
X126111904Y-78890476D01*
X126159523Y-78795238D01*
X126254761Y-78700000D01*
X126397619Y-78652380D01*
X126492857Y-78652380D01*
X126635714Y-78700000D01*
X126683333Y-78747619D01*
X127159523Y-79652380D02*
X127350000Y-79652380D01*
X127445238Y-79604761D01*
X127492857Y-79557142D01*
X127588095Y-79414285D01*
X127635714Y-79223809D01*
X127635714Y-78842857D01*
X127588095Y-78747619D01*
X127540476Y-78700000D01*
X127445238Y-78652380D01*
X127254761Y-78652380D01*
X127159523Y-78700000D01*
X127111904Y-78747619D01*
X127064285Y-78842857D01*
X127064285Y-79080952D01*
X127111904Y-79176190D01*
X127159523Y-79223809D01*
X127254761Y-79271428D01*
X127445238Y-79271428D01*
X127540476Y-79223809D01*
X127588095Y-79176190D01*
X127635714Y-79080952D01*
%TO.C,C5*%
X138133333Y-143427142D02*
X138085714Y-143474761D01*
X137942857Y-143522380D01*
X137847619Y-143522380D01*
X137704761Y-143474761D01*
X137609523Y-143379523D01*
X137561904Y-143284285D01*
X137514285Y-143093809D01*
X137514285Y-142950952D01*
X137561904Y-142760476D01*
X137609523Y-142665238D01*
X137704761Y-142570000D01*
X137847619Y-142522380D01*
X137942857Y-142522380D01*
X138085714Y-142570000D01*
X138133333Y-142617619D01*
X139038095Y-142522380D02*
X138561904Y-142522380D01*
X138514285Y-142998571D01*
X138561904Y-142950952D01*
X138657142Y-142903333D01*
X138895238Y-142903333D01*
X138990476Y-142950952D01*
X139038095Y-142998571D01*
X139085714Y-143093809D01*
X139085714Y-143331904D01*
X139038095Y-143427142D01*
X138990476Y-143474761D01*
X138895238Y-143522380D01*
X138657142Y-143522380D01*
X138561904Y-143474761D01*
X138514285Y-143427142D01*
%TO.C,C4*%
X128333333Y-141757142D02*
X128285714Y-141804761D01*
X128142857Y-141852380D01*
X128047619Y-141852380D01*
X127904761Y-141804761D01*
X127809523Y-141709523D01*
X127761904Y-141614285D01*
X127714285Y-141423809D01*
X127714285Y-141280952D01*
X127761904Y-141090476D01*
X127809523Y-140995238D01*
X127904761Y-140900000D01*
X128047619Y-140852380D01*
X128142857Y-140852380D01*
X128285714Y-140900000D01*
X128333333Y-140947619D01*
X129190476Y-141185714D02*
X129190476Y-141852380D01*
X128952380Y-140804761D02*
X128714285Y-141519047D01*
X129333333Y-141519047D01*
%TO.C,C3*%
X135233333Y-113877142D02*
X135185714Y-113924761D01*
X135042857Y-113972380D01*
X134947619Y-113972380D01*
X134804761Y-113924761D01*
X134709523Y-113829523D01*
X134661904Y-113734285D01*
X134614285Y-113543809D01*
X134614285Y-113400952D01*
X134661904Y-113210476D01*
X134709523Y-113115238D01*
X134804761Y-113020000D01*
X134947619Y-112972380D01*
X135042857Y-112972380D01*
X135185714Y-113020000D01*
X135233333Y-113067619D01*
X135566666Y-112972380D02*
X136185714Y-112972380D01*
X135852380Y-113353333D01*
X135995238Y-113353333D01*
X136090476Y-113400952D01*
X136138095Y-113448571D01*
X136185714Y-113543809D01*
X136185714Y-113781904D01*
X136138095Y-113877142D01*
X136090476Y-113924761D01*
X135995238Y-113972380D01*
X135709523Y-113972380D01*
X135614285Y-113924761D01*
X135566666Y-113877142D01*
%TO.C,C1*%
X128833333Y-113007142D02*
X128785714Y-113054761D01*
X128642857Y-113102380D01*
X128547619Y-113102380D01*
X128404761Y-113054761D01*
X128309523Y-112959523D01*
X128261904Y-112864285D01*
X128214285Y-112673809D01*
X128214285Y-112530952D01*
X128261904Y-112340476D01*
X128309523Y-112245238D01*
X128404761Y-112150000D01*
X128547619Y-112102380D01*
X128642857Y-112102380D01*
X128785714Y-112150000D01*
X128833333Y-112197619D01*
X129785714Y-113102380D02*
X129214285Y-113102380D01*
X129500000Y-113102380D02*
X129500000Y-112102380D01*
X129404761Y-112245238D01*
X129309523Y-112340476D01*
X129214285Y-112388095D01*
%TO.C,C2*%
X128733333Y-118507142D02*
X128685714Y-118554761D01*
X128542857Y-118602380D01*
X128447619Y-118602380D01*
X128304761Y-118554761D01*
X128209523Y-118459523D01*
X128161904Y-118364285D01*
X128114285Y-118173809D01*
X128114285Y-118030952D01*
X128161904Y-117840476D01*
X128209523Y-117745238D01*
X128304761Y-117650000D01*
X128447619Y-117602380D01*
X128542857Y-117602380D01*
X128685714Y-117650000D01*
X128733333Y-117697619D01*
X129114285Y-117697619D02*
X129161904Y-117650000D01*
X129257142Y-117602380D01*
X129495238Y-117602380D01*
X129590476Y-117650000D01*
X129638095Y-117697619D01*
X129685714Y-117792857D01*
X129685714Y-117888095D01*
X129638095Y-118030952D01*
X129066666Y-118602380D01*
X129685714Y-118602380D01*
%TO.C,D2*%
X147502380Y-111638095D02*
X146502380Y-111638095D01*
X146502380Y-111400000D01*
X146550000Y-111257142D01*
X146645238Y-111161904D01*
X146740476Y-111114285D01*
X146930952Y-111066666D01*
X147073809Y-111066666D01*
X147264285Y-111114285D01*
X147359523Y-111161904D01*
X147454761Y-111257142D01*
X147502380Y-111400000D01*
X147502380Y-111638095D01*
X146597619Y-110685714D02*
X146550000Y-110638095D01*
X146502380Y-110542857D01*
X146502380Y-110304761D01*
X146550000Y-110209523D01*
X146597619Y-110161904D01*
X146692857Y-110114285D01*
X146788095Y-110114285D01*
X146930952Y-110161904D01*
X147502380Y-110733333D01*
X147502380Y-110114285D01*
%TO.C,J6*%
X121816666Y-76952380D02*
X121816666Y-77666666D01*
X121769047Y-77809523D01*
X121673809Y-77904761D01*
X121530952Y-77952380D01*
X121435714Y-77952380D01*
X122721428Y-76952380D02*
X122530952Y-76952380D01*
X122435714Y-77000000D01*
X122388095Y-77047619D01*
X122292857Y-77190476D01*
X122245238Y-77380952D01*
X122245238Y-77761904D01*
X122292857Y-77857142D01*
X122340476Y-77904761D01*
X122435714Y-77952380D01*
X122626190Y-77952380D01*
X122721428Y-77904761D01*
X122769047Y-77857142D01*
X122816666Y-77761904D01*
X122816666Y-77523809D01*
X122769047Y-77428571D01*
X122721428Y-77380952D01*
X122626190Y-77333333D01*
X122435714Y-77333333D01*
X122340476Y-77380952D01*
X122292857Y-77428571D01*
X122245238Y-77523809D01*
%TO.C,J5*%
X128966666Y-144702380D02*
X128966666Y-145416666D01*
X128919047Y-145559523D01*
X128823809Y-145654761D01*
X128680952Y-145702380D01*
X128585714Y-145702380D01*
X129919047Y-144702380D02*
X129442857Y-144702380D01*
X129395238Y-145178571D01*
X129442857Y-145130952D01*
X129538095Y-145083333D01*
X129776190Y-145083333D01*
X129871428Y-145130952D01*
X129919047Y-145178571D01*
X129966666Y-145273809D01*
X129966666Y-145511904D01*
X129919047Y-145607142D01*
X129871428Y-145654761D01*
X129776190Y-145702380D01*
X129538095Y-145702380D01*
X129442857Y-145654761D01*
X129395238Y-145607142D01*
%TO.C,C10*%
X160807142Y-120757142D02*
X160759523Y-120804761D01*
X160616666Y-120852380D01*
X160521428Y-120852380D01*
X160378571Y-120804761D01*
X160283333Y-120709523D01*
X160235714Y-120614285D01*
X160188095Y-120423809D01*
X160188095Y-120280952D01*
X160235714Y-120090476D01*
X160283333Y-119995238D01*
X160378571Y-119900000D01*
X160521428Y-119852380D01*
X160616666Y-119852380D01*
X160759523Y-119900000D01*
X160807142Y-119947619D01*
X161759523Y-120852380D02*
X161188095Y-120852380D01*
X161473809Y-120852380D02*
X161473809Y-119852380D01*
X161378571Y-119995238D01*
X161283333Y-120090476D01*
X161188095Y-120138095D01*
X162378571Y-119852380D02*
X162473809Y-119852380D01*
X162569047Y-119900000D01*
X162616666Y-119947619D01*
X162664285Y-120042857D01*
X162711904Y-120233333D01*
X162711904Y-120471428D01*
X162664285Y-120661904D01*
X162616666Y-120757142D01*
X162569047Y-120804761D01*
X162473809Y-120852380D01*
X162378571Y-120852380D01*
X162283333Y-120804761D01*
X162235714Y-120757142D01*
X162188095Y-120661904D01*
X162140476Y-120471428D01*
X162140476Y-120233333D01*
X162188095Y-120042857D01*
X162235714Y-119947619D01*
X162283333Y-119900000D01*
X162378571Y-119852380D01*
%TO.C,C8*%
X165833333Y-90807142D02*
X165785714Y-90854761D01*
X165642857Y-90902380D01*
X165547619Y-90902380D01*
X165404761Y-90854761D01*
X165309523Y-90759523D01*
X165261904Y-90664285D01*
X165214285Y-90473809D01*
X165214285Y-90330952D01*
X165261904Y-90140476D01*
X165309523Y-90045238D01*
X165404761Y-89950000D01*
X165547619Y-89902380D01*
X165642857Y-89902380D01*
X165785714Y-89950000D01*
X165833333Y-89997619D01*
X166404761Y-90330952D02*
X166309523Y-90283333D01*
X166261904Y-90235714D01*
X166214285Y-90140476D01*
X166214285Y-90092857D01*
X166261904Y-89997619D01*
X166309523Y-89950000D01*
X166404761Y-89902380D01*
X166595238Y-89902380D01*
X166690476Y-89950000D01*
X166738095Y-89997619D01*
X166785714Y-90092857D01*
X166785714Y-90140476D01*
X166738095Y-90235714D01*
X166690476Y-90283333D01*
X166595238Y-90330952D01*
X166404761Y-90330952D01*
X166309523Y-90378571D01*
X166261904Y-90426190D01*
X166214285Y-90521428D01*
X166214285Y-90711904D01*
X166261904Y-90807142D01*
X166309523Y-90854761D01*
X166404761Y-90902380D01*
X166595238Y-90902380D01*
X166690476Y-90854761D01*
X166738095Y-90807142D01*
X166785714Y-90711904D01*
X166785714Y-90521428D01*
X166738095Y-90426190D01*
X166690476Y-90378571D01*
X166595238Y-90330952D01*
%TO.C,U2*%
X154288095Y-91552380D02*
X154288095Y-92361904D01*
X154335714Y-92457142D01*
X154383333Y-92504761D01*
X154478571Y-92552380D01*
X154669047Y-92552380D01*
X154764285Y-92504761D01*
X154811904Y-92457142D01*
X154859523Y-92361904D01*
X154859523Y-91552380D01*
X155288095Y-91647619D02*
X155335714Y-91600000D01*
X155430952Y-91552380D01*
X155669047Y-91552380D01*
X155764285Y-91600000D01*
X155811904Y-91647619D01*
X155859523Y-91742857D01*
X155859523Y-91838095D01*
X155811904Y-91980952D01*
X155240476Y-92552380D01*
X155859523Y-92552380D01*
%TO.C,L1*%
X159083333Y-106002380D02*
X158607142Y-106002380D01*
X158607142Y-105002380D01*
X159940476Y-106002380D02*
X159369047Y-106002380D01*
X159654761Y-106002380D02*
X159654761Y-105002380D01*
X159559523Y-105145238D01*
X159464285Y-105240476D01*
X159369047Y-105288095D01*
%TO.C,D1*%
X147711904Y-73902380D02*
X147711904Y-72902380D01*
X147950000Y-72902380D01*
X148092857Y-72950000D01*
X148188095Y-73045238D01*
X148235714Y-73140476D01*
X148283333Y-73330952D01*
X148283333Y-73473809D01*
X148235714Y-73664285D01*
X148188095Y-73759523D01*
X148092857Y-73854761D01*
X147950000Y-73902380D01*
X147711904Y-73902380D01*
X149235714Y-73902380D02*
X148664285Y-73902380D01*
X148950000Y-73902380D02*
X148950000Y-72902380D01*
X148854761Y-73045238D01*
X148759523Y-73140476D01*
X148664285Y-73188095D01*
%TO.C,U4*%
X164038095Y-76852380D02*
X164038095Y-77661904D01*
X164085714Y-77757142D01*
X164133333Y-77804761D01*
X164228571Y-77852380D01*
X164419047Y-77852380D01*
X164514285Y-77804761D01*
X164561904Y-77757142D01*
X164609523Y-77661904D01*
X164609523Y-76852380D01*
X165514285Y-77185714D02*
X165514285Y-77852380D01*
X165276190Y-76804761D02*
X165038095Y-77519047D01*
X165657142Y-77519047D01*
%TO.C,U3*%
X134038095Y-84052380D02*
X134038095Y-84861904D01*
X134085714Y-84957142D01*
X134133333Y-85004761D01*
X134228571Y-85052380D01*
X134419047Y-85052380D01*
X134514285Y-85004761D01*
X134561904Y-84957142D01*
X134609523Y-84861904D01*
X134609523Y-84052380D01*
X134990476Y-84052380D02*
X135609523Y-84052380D01*
X135276190Y-84433333D01*
X135419047Y-84433333D01*
X135514285Y-84480952D01*
X135561904Y-84528571D01*
X135609523Y-84623809D01*
X135609523Y-84861904D01*
X135561904Y-84957142D01*
X135514285Y-85004761D01*
X135419047Y-85052380D01*
X135133333Y-85052380D01*
X135038095Y-85004761D01*
X134990476Y-84957142D01*
%TO.C,R11*%
X126807142Y-87152380D02*
X126473809Y-86676190D01*
X126235714Y-87152380D02*
X126235714Y-86152380D01*
X126616666Y-86152380D01*
X126711904Y-86200000D01*
X126759523Y-86247619D01*
X126807142Y-86342857D01*
X126807142Y-86485714D01*
X126759523Y-86580952D01*
X126711904Y-86628571D01*
X126616666Y-86676190D01*
X126235714Y-86676190D01*
X127759523Y-87152380D02*
X127188095Y-87152380D01*
X127473809Y-87152380D02*
X127473809Y-86152380D01*
X127378571Y-86295238D01*
X127283333Y-86390476D01*
X127188095Y-86438095D01*
X128711904Y-87152380D02*
X128140476Y-87152380D01*
X128426190Y-87152380D02*
X128426190Y-86152380D01*
X128330952Y-86295238D01*
X128235714Y-86390476D01*
X128140476Y-86438095D01*
%TO.C,J4*%
X144816666Y-67252380D02*
X144816666Y-67966666D01*
X144769047Y-68109523D01*
X144673809Y-68204761D01*
X144530952Y-68252380D01*
X144435714Y-68252380D01*
X145721428Y-67585714D02*
X145721428Y-68252380D01*
X145483333Y-67204761D02*
X145245238Y-67919047D01*
X145864285Y-67919047D01*
%TO.C,J3*%
X141816666Y-144602380D02*
X141816666Y-145316666D01*
X141769047Y-145459523D01*
X141673809Y-145554761D01*
X141530952Y-145602380D01*
X141435714Y-145602380D01*
X142197619Y-144602380D02*
X142816666Y-144602380D01*
X142483333Y-144983333D01*
X142626190Y-144983333D01*
X142721428Y-145030952D01*
X142769047Y-145078571D01*
X142816666Y-145173809D01*
X142816666Y-145411904D01*
X142769047Y-145507142D01*
X142721428Y-145554761D01*
X142626190Y-145602380D01*
X142340476Y-145602380D01*
X142245238Y-145554761D01*
X142197619Y-145507142D01*
%TO.C,J2*%
X157466666Y-68252380D02*
X157466666Y-68966666D01*
X157419047Y-69109523D01*
X157323809Y-69204761D01*
X157180952Y-69252380D01*
X157085714Y-69252380D01*
X157895238Y-68347619D02*
X157942857Y-68300000D01*
X158038095Y-68252380D01*
X158276190Y-68252380D01*
X158371428Y-68300000D01*
X158419047Y-68347619D01*
X158466666Y-68442857D01*
X158466666Y-68538095D01*
X158419047Y-68680952D01*
X157847619Y-69252380D01*
X158466666Y-69252380D01*
D13*
%TO.C,J1*%
X143645000Y-79920000D02*
X153865000Y-79920000D01*
X141045000Y-82580000D02*
X141045000Y-81250000D01*
X143645000Y-82580000D02*
X153865000Y-82580000D01*
X153865000Y-82580000D02*
X153865000Y-79920000D01*
X143645000Y-82580000D02*
X143645000Y-79920000D01*
X142375000Y-82580000D02*
X141045000Y-82580000D01*
%TO.C,U1*%
X120530000Y-111120000D02*
X120530000Y-92880000D01*
X140450000Y-92880000D02*
X140750000Y-92880000D01*
X140770000Y-111120000D02*
X140770000Y-110100000D01*
X140770000Y-94000000D02*
X140770000Y-92880000D01*
X120530000Y-111120000D02*
X126550000Y-111120000D01*
X120530000Y-92880000D02*
X127050000Y-92880000D01*
X140450000Y-111120000D02*
X140770000Y-111120000D01*
X126550000Y-111120000D02*
X126550000Y-113000000D01*
%TO.C,C6*%
X153665000Y-76261252D02*
X153665000Y-75738748D01*
X155135000Y-76261252D02*
X155135000Y-75738748D01*
%TO.C,C7*%
X159811252Y-76785000D02*
X159288748Y-76785000D01*
X159811252Y-75315000D02*
X159288748Y-75315000D01*
%TO.C,R9*%
X151165000Y-143539564D02*
X151165000Y-143085436D01*
X152635000Y-143539564D02*
X152635000Y-143085436D01*
%TO.C,R8*%
X148535000Y-69472936D02*
X148535000Y-69927064D01*
X147065000Y-69472936D02*
X147065000Y-69927064D01*
%TO.C,R6*%
X137965000Y-116327064D02*
X137965000Y-115872936D01*
X139435000Y-116327064D02*
X139435000Y-115872936D01*
%TO.C,R5*%
X131222936Y-85115000D02*
X131677064Y-85115000D01*
X131222936Y-86585000D02*
X131677064Y-86585000D01*
%TO.C,R4*%
X143465000Y-143527064D02*
X143465000Y-143072936D01*
X144935000Y-143527064D02*
X144935000Y-143072936D01*
%TO.C,R3*%
X131115000Y-115327064D02*
X131115000Y-114872936D01*
X132585000Y-115327064D02*
X132585000Y-114872936D01*
%TO.C,R2*%
X134215000Y-142972936D02*
X134215000Y-143427064D01*
X135685000Y-142972936D02*
X135685000Y-143427064D01*
%TO.C,R1*%
X133585000Y-142972936D02*
X133585000Y-143427064D01*
X132115000Y-142972936D02*
X132115000Y-143427064D01*
%TO.C,D3*%
X136870000Y-80290000D02*
X136870000Y-83450000D01*
X140030000Y-80290000D02*
X140030000Y-81750000D01*
X140030000Y-80290000D02*
X139100000Y-80290000D01*
X136870000Y-80290000D02*
X137800000Y-80290000D01*
%TO.C,C9*%
X126115000Y-82061252D02*
X126115000Y-81538748D01*
X127585000Y-82061252D02*
X127585000Y-81538748D01*
%TO.C,C5*%
X138038748Y-144015000D02*
X138561252Y-144015000D01*
X138038748Y-145485000D02*
X138561252Y-145485000D01*
%TO.C,C4*%
X129811252Y-143885000D02*
X129288748Y-143885000D01*
X129811252Y-142415000D02*
X129288748Y-142415000D01*
%TO.C,C3*%
X135138748Y-114465000D02*
X135661252Y-114465000D01*
X135138748Y-115935000D02*
X135661252Y-115935000D01*
%TO.C,C1*%
X128638748Y-113515000D02*
X129161252Y-113515000D01*
X128638748Y-114985000D02*
X129161252Y-114985000D01*
%TO.C,C2*%
X128638748Y-115615000D02*
X129161252Y-115615000D01*
X128638748Y-117085000D02*
X129161252Y-117085000D01*
%TO.C,D2*%
X151200000Y-115300000D02*
X151200000Y-108400000D01*
X147900000Y-115300000D02*
X151200000Y-115300000D01*
X147900000Y-115300000D02*
X147900000Y-108400000D01*
%TO.C,J6*%
X124580000Y-78690000D02*
X121920000Y-78690000D01*
X124580000Y-83830000D02*
X124580000Y-78690000D01*
X124580000Y-85100000D02*
X124580000Y-86430000D01*
X121920000Y-83830000D02*
X121920000Y-78690000D01*
X124580000Y-86430000D02*
X123250000Y-86430000D01*
X124580000Y-83830000D02*
X121920000Y-83830000D01*
%TO.C,J5*%
X131620000Y-146670000D02*
X139300000Y-146670000D01*
X130350000Y-149330000D02*
X129020000Y-149330000D01*
X139300000Y-149330000D02*
X139300000Y-146670000D01*
X131620000Y-149330000D02*
X131620000Y-146670000D01*
X129020000Y-149330000D02*
X129020000Y-148000000D01*
X131620000Y-149330000D02*
X139300000Y-149330000D01*
%TO.C,C10*%
X158040000Y-122404437D02*
X158040000Y-123690000D01*
X164860000Y-128160000D02*
X164860000Y-125810000D01*
X157406250Y-122508750D02*
X157406250Y-123296250D01*
X159104437Y-128160000D02*
X164860000Y-128160000D01*
X164860000Y-121340000D02*
X164860000Y-123690000D01*
X158040000Y-122404437D02*
X159104437Y-121340000D01*
X158040000Y-127095563D02*
X159104437Y-128160000D01*
X159104437Y-121340000D02*
X164860000Y-121340000D01*
X158040000Y-127095563D02*
X158040000Y-125810000D01*
X157012500Y-122902500D02*
X157800000Y-122902500D01*
%TO.C,C8*%
X157890000Y-85504437D02*
X157890000Y-86790000D01*
X164710000Y-91260000D02*
X164710000Y-88910000D01*
X157256250Y-85608750D02*
X157256250Y-86396250D01*
X158954437Y-91260000D02*
X164710000Y-91260000D01*
X164710000Y-84440000D02*
X164710000Y-86790000D01*
X157890000Y-85504437D02*
X158954437Y-84440000D01*
X157890000Y-90195563D02*
X158954437Y-91260000D01*
X158954437Y-84440000D02*
X164710000Y-84440000D01*
X157890000Y-90195563D02*
X157890000Y-88910000D01*
X156862500Y-86002500D02*
X157650000Y-86002500D01*
%TO.C,U2*%
X156150000Y-104100000D02*
X154650000Y-104100000D01*
X154650000Y-104100000D02*
X154650000Y-103150000D01*
X154650000Y-93700000D02*
X154650000Y-94650000D01*
X154650000Y-94650000D02*
X149525000Y-94650000D01*
X156150000Y-93700000D02*
X154650000Y-93700000D01*
X154650000Y-103150000D02*
X153550000Y-103150000D01*
%TO.C,L1*%
X152850000Y-107050000D02*
X152850000Y-109800000D01*
X165650000Y-115800000D02*
X165650000Y-118550000D01*
X153500000Y-106400000D02*
X165000000Y-106400000D01*
X152850000Y-115800000D02*
X152850000Y-118550000D01*
X165650000Y-107050000D02*
X165650000Y-109800000D01*
X165000000Y-119200000D02*
X153500000Y-119200000D01*
X165000000Y-119200000D02*
G75*
G03*
X165650000Y-118550000I-1J650001D01*
G01*
X165650000Y-107050000D02*
G75*
G03*
X165000000Y-106400000I-650001J-1D01*
G01*
X153500000Y-106400000D02*
G75*
G03*
X152850000Y-107050000I1J-650001D01*
G01*
X152850000Y-118550000D02*
G75*
G03*
X153500000Y-119200000I650001J1D01*
G01*
%TO.C,D1*%
X150550000Y-76400000D02*
X146650000Y-76400000D01*
X150550000Y-76400000D02*
X150550000Y-74400000D01*
X150550000Y-74400000D02*
X146650000Y-74400000D01*
%TO.C,U4*%
X154332500Y-78432500D02*
X165952500Y-78432500D01*
X154092500Y-79432500D02*
X154092500Y-78192500D01*
X165952500Y-78432500D02*
X165952500Y-87052500D01*
X154332500Y-78432500D02*
X154332500Y-87052500D01*
X154332500Y-87052500D02*
X165952500Y-87052500D01*
X154092500Y-78192500D02*
X155332500Y-78192500D01*
%TO.C,U3*%
X132200000Y-78440000D02*
X134150000Y-78440000D01*
X132200000Y-83560000D02*
X134150000Y-83560000D01*
X132200000Y-78440000D02*
X128750000Y-78440000D01*
X132200000Y-83560000D02*
X130250000Y-83560000D01*
%TO.C,R11*%
X127677064Y-85785000D02*
X127222936Y-85785000D01*
X127677064Y-84315000D02*
X127222936Y-84315000D01*
%TO.C,J4*%
X140960000Y-77332500D02*
X141260000Y-77932500D01*
X132290000Y-76642500D02*
X130580000Y-76642500D01*
X136100000Y-76642500D02*
X134390000Y-76642500D01*
X126820000Y-76642500D02*
X128480000Y-76642500D01*
X139910000Y-76642500D02*
X138200000Y-76642500D01*
X140660000Y-77932500D02*
X140960000Y-77332500D01*
X143670000Y-76642500D02*
X142010000Y-76642500D01*
X141260000Y-77932500D02*
X140660000Y-77932500D01*
X126820000Y-67222500D02*
X126820000Y-76642500D01*
X143670000Y-70532500D02*
X126820000Y-70532500D01*
X143670000Y-67222500D02*
X126820000Y-67222500D01*
X143670000Y-76642500D02*
X143670000Y-67222500D01*
%TO.C,J3*%
X145470000Y-149180000D02*
X158230000Y-149180000D01*
X144200000Y-149180000D02*
X142870000Y-149180000D01*
X142870000Y-149180000D02*
X142870000Y-147850000D01*
X145470000Y-149180000D02*
X145470000Y-146520000D01*
X158230000Y-149180000D02*
X158230000Y-146520000D01*
X145470000Y-146520000D02*
X158230000Y-146520000D01*
%TO.C,J2*%
X152310000Y-71130000D02*
X150980000Y-71130000D01*
X156180000Y-71130000D02*
X156180000Y-68470000D01*
X153580000Y-71130000D02*
X156180000Y-71130000D01*
X153580000Y-71130000D02*
X153580000Y-68470000D01*
X150980000Y-71130000D02*
X150980000Y-69800000D01*
X153580000Y-68470000D02*
X156180000Y-68470000D01*
%TD*%
M02*
