%TF.GenerationSoftware,KiCad,Pcbnew,6.0.2+dfsg-1*%
%TF.CreationDate,2022-09-01T21:00:27+02:00*%
%TF.ProjectId,vscp-din-esp32-can-z102,76736370-2d64-4696-9e2d-65737033322d,rev?*%
%TF.SameCoordinates,Original*%
%TF.FileFunction,Copper,L1,Top*%
%TF.FilePolarity,Positive*%
%FSLAX46Y46*%
G04 Gerber Fmt 4.6, Leading zero omitted, Abs format (unit mm)*
G04 Created by KiCad (PCBNEW 6.0.2+dfsg-1) date 2022-09-01 21:00:27*
%MOMM*%
%LPD*%
G01*
G04 APERTURE LIST*
G04 Aperture macros list*
%AMRoundRect*
0 Rectangle with rounded corners*
0 $1 Rounding radius*
0 $2 $3 $4 $5 $6 $7 $8 $9 X,Y pos of 4 corners*
0 Add a 4 corners polygon primitive as box body*
4,1,4,$2,$3,$4,$5,$6,$7,$8,$9,$2,$3,0*
0 Add four circle primitives for the rounded corners*
1,1,$1+$1,$2,$3*
1,1,$1+$1,$4,$5*
1,1,$1+$1,$6,$7*
1,1,$1+$1,$8,$9*
0 Add four rect primitives between the rounded corners*
20,1,$1+$1,$2,$3,$4,$5,0*
20,1,$1+$1,$4,$5,$6,$7,0*
20,1,$1+$1,$6,$7,$8,$9,0*
20,1,$1+$1,$8,$9,$2,$3,0*%
G04 Aperture macros list end*
%TA.AperFunction,ComponentPad*%
%ADD10R,1.700000X1.700000*%
%TD*%
%TA.AperFunction,ComponentPad*%
%ADD11O,1.700000X1.700000*%
%TD*%
%TA.AperFunction,SMDPad,CuDef*%
%ADD12R,0.900000X1.500000*%
%TD*%
%TA.AperFunction,SMDPad,CuDef*%
%ADD13R,4.000000X4.000000*%
%TD*%
%TA.AperFunction,SMDPad,CuDef*%
%ADD14RoundRect,0.250000X0.475000X-0.337500X0.475000X0.337500X-0.475000X0.337500X-0.475000X-0.337500X0*%
%TD*%
%TA.AperFunction,SMDPad,CuDef*%
%ADD15RoundRect,0.250000X0.337500X0.475000X-0.337500X0.475000X-0.337500X-0.475000X0.337500X-0.475000X0*%
%TD*%
%TA.AperFunction,SMDPad,CuDef*%
%ADD16RoundRect,0.250000X0.450000X-0.350000X0.450000X0.350000X-0.450000X0.350000X-0.450000X-0.350000X0*%
%TD*%
%TA.AperFunction,SMDPad,CuDef*%
%ADD17RoundRect,0.250000X-0.450000X0.350000X-0.450000X-0.350000X0.450000X-0.350000X0.450000X0.350000X0*%
%TD*%
%TA.AperFunction,SMDPad,CuDef*%
%ADD18RoundRect,0.250000X-0.350000X-0.450000X0.350000X-0.450000X0.350000X0.450000X-0.350000X0.450000X0*%
%TD*%
%TA.AperFunction,SMDPad,CuDef*%
%ADD19R,0.800000X1.900000*%
%TD*%
%TA.AperFunction,SMDPad,CuDef*%
%ADD20RoundRect,0.250000X-0.337500X-0.475000X0.337500X-0.475000X0.337500X0.475000X-0.337500X0.475000X0*%
%TD*%
%TA.AperFunction,SMDPad,CuDef*%
%ADD21R,1.800000X3.500000*%
%TD*%
%TA.AperFunction,SMDPad,CuDef*%
%ADD22RoundRect,0.250000X-1.500000X-0.550000X1.500000X-0.550000X1.500000X0.550000X-1.500000X0.550000X0*%
%TD*%
%TA.AperFunction,SMDPad,CuDef*%
%ADD23R,4.600000X1.100000*%
%TD*%
%TA.AperFunction,SMDPad,CuDef*%
%ADD24R,9.400000X10.800000*%
%TD*%
%TA.AperFunction,SMDPad,CuDef*%
%ADD25R,2.900000X5.400000*%
%TD*%
%TA.AperFunction,SMDPad,CuDef*%
%ADD26R,0.900000X1.200000*%
%TD*%
%TA.AperFunction,ComponentPad*%
%ADD27R,1.700000X2.500000*%
%TD*%
%TA.AperFunction,ComponentPad*%
%ADD28O,1.700000X2.500000*%
%TD*%
%TA.AperFunction,SMDPad,CuDef*%
%ADD29RoundRect,0.150000X-0.825000X-0.150000X0.825000X-0.150000X0.825000X0.150000X-0.825000X0.150000X0*%
%TD*%
%TA.AperFunction,SMDPad,CuDef*%
%ADD30RoundRect,0.250000X0.262500X0.450000X-0.262500X0.450000X-0.262500X-0.450000X0.262500X-0.450000X0*%
%TD*%
%TA.AperFunction,ComponentPad*%
%ADD31RoundRect,0.250000X0.650000X1.550000X-0.650000X1.550000X-0.650000X-1.550000X0.650000X-1.550000X0*%
%TD*%
%TA.AperFunction,ComponentPad*%
%ADD32O,1.800000X3.600000*%
%TD*%
%TA.AperFunction,ViaPad*%
%ADD33C,0.800000*%
%TD*%
%TA.AperFunction,Conductor*%
%ADD34C,0.250000*%
%TD*%
%TA.AperFunction,Conductor*%
%ADD35C,1.000000*%
%TD*%
%TA.AperFunction,Conductor*%
%ADD36C,0.200000*%
%TD*%
G04 APERTURE END LIST*
D10*
%TO.P,J1,1,Pin_1*%
%TO.N,/MISO*%
X142375000Y-81250000D03*
D11*
%TO.P,J1,2,Pin_2*%
%TO.N,/SCK*%
X144915000Y-81250000D03*
%TO.P,J1,3,Pin_3*%
%TO.N,/MOSI*%
X147455000Y-81250000D03*
%TO.P,J1,4,Pin_4*%
%TO.N,+3V3*%
X149995000Y-81250000D03*
%TO.P,J1,5,Pin_5*%
%TO.N,GND*%
X152535000Y-81250000D03*
%TD*%
D12*
%TO.P,U1,1,3V3*%
%TO.N,+3V3*%
X127750000Y-110750000D03*
%TO.P,U1,2,EN*%
%TO.N,/reset*%
X129250000Y-110750000D03*
%TO.P,U1,3,IO4*%
%TO.N,/io4*%
X130750000Y-110750000D03*
%TO.P,U1,4,IO5*%
%TO.N,/io5*%
X132250000Y-110750000D03*
%TO.P,U1,5,IO6*%
%TO.N,/SCK*%
X133750000Y-110750000D03*
%TO.P,U1,6,IO7*%
%TO.N,/MOSI*%
X135250000Y-110750000D03*
%TO.P,U1,7,IO8*%
%TO.N,/flash*%
X136750000Y-110750000D03*
%TO.P,U1,8,IO9*%
%TO.N,/txcan*%
X138250000Y-110750000D03*
%TO.P,U1,9,GND*%
%TO.N,GND*%
X139750000Y-110750000D03*
%TO.P,U1,10,IO10*%
%TO.N,/rxcan*%
X139750000Y-93250000D03*
%TO.P,U1,11,RXD*%
%TO.N,/rx*%
X138250000Y-93250000D03*
%TO.P,U1,12,TXD*%
%TO.N,/tx*%
X136750000Y-93250000D03*
%TO.P,U1,13,IO18*%
%TO.N,Net-(R1-Pad1)*%
X135250000Y-93250000D03*
%TO.P,U1,14,IO19*%
%TO.N,Net-(R2-Pad1)*%
X133750000Y-93250000D03*
%TO.P,U1,15,IO3*%
%TO.N,/io3*%
X132250000Y-93250000D03*
%TO.P,U1,16,IO2*%
%TO.N,/MISO*%
X130750000Y-93250000D03*
%TO.P,U1,17,IO1*%
%TO.N,/ledb*%
X129250000Y-93250000D03*
%TO.P,U1,18,IO0*%
%TO.N,/leda*%
X127750000Y-93250000D03*
D13*
%TO.P,U1,19,GND*%
%TO.N,GND*%
X134360000Y-100900000D03*
%TD*%
D14*
%TO.P,C6,1*%
%TO.N,+28V*%
X154400000Y-77037500D03*
%TO.P,C6,2*%
%TO.N,GND*%
X154400000Y-74962500D03*
%TD*%
D15*
%TO.P,C7,1*%
%TO.N,+3V3*%
X160587500Y-76050000D03*
%TO.P,C7,2*%
%TO.N,GND*%
X158512500Y-76050000D03*
%TD*%
D16*
%TO.P,R9,1*%
%TO.N,Net-(J3-Pad4)*%
X151900000Y-144312500D03*
%TO.P,R9,2*%
%TO.N,/reset*%
X151900000Y-142312500D03*
%TD*%
D17*
%TO.P,R8,1*%
%TO.N,Net-(J2-Pad1)*%
X147800000Y-68700000D03*
%TO.P,R8,2*%
%TO.N,Net-(D3-Pad1)*%
X147800000Y-70700000D03*
%TD*%
D16*
%TO.P,R6,1*%
%TO.N,+3V3*%
X138700000Y-117100000D03*
%TO.P,R6,2*%
%TO.N,/flash*%
X138700000Y-115100000D03*
%TD*%
D18*
%TO.P,R5,1*%
%TO.N,+3V3*%
X130450000Y-85850000D03*
%TO.P,R5,2*%
%TO.N,/MISO*%
X132450000Y-85850000D03*
%TD*%
D16*
%TO.P,R4,1*%
%TO.N,Net-(J3-Pad1)*%
X144200000Y-144300000D03*
%TO.P,R4,2*%
%TO.N,/flash*%
X144200000Y-142300000D03*
%TD*%
%TO.P,R3,1*%
%TO.N,+3V3*%
X131850000Y-116100000D03*
%TO.P,R3,2*%
%TO.N,/reset*%
X131850000Y-114100000D03*
%TD*%
D17*
%TO.P,R2,2*%
%TO.N,/USB D+*%
X134950000Y-144200000D03*
%TO.P,R2,1*%
%TO.N,Net-(R2-Pad1)*%
X134950000Y-142200000D03*
%TD*%
%TO.P,R1,1*%
%TO.N,Net-(R1-Pad1)*%
X132850000Y-142200000D03*
%TO.P,R1,2*%
%TO.N,/USB D-*%
X132850000Y-144200000D03*
%TD*%
D19*
%TO.P,D3,1,K*%
%TO.N,Net-(D3-Pad1)*%
X137500000Y-82550000D03*
%TO.P,D3,2,K*%
%TO.N,Net-(D3-Pad2)*%
X139400000Y-82550000D03*
%TO.P,D3,3,A*%
%TO.N,GND*%
X138450000Y-79550000D03*
%TD*%
D14*
%TO.P,C9,1*%
%TO.N,+3V3*%
X126850000Y-82837500D03*
%TO.P,C9,2*%
%TO.N,GND*%
X126850000Y-80762500D03*
%TD*%
D20*
%TO.P,C5,1*%
%TO.N,/USB D+*%
X137262500Y-144750000D03*
%TO.P,C5,2*%
%TO.N,GND*%
X139337500Y-144750000D03*
%TD*%
D15*
%TO.P,C4,1*%
%TO.N,/USB D-*%
X130587500Y-143150000D03*
%TO.P,C4,2*%
%TO.N,GND*%
X128512500Y-143150000D03*
%TD*%
D20*
%TO.P,C3,1*%
%TO.N,/reset*%
X134362500Y-115200000D03*
%TO.P,C3,2*%
%TO.N,GND*%
X136437500Y-115200000D03*
%TD*%
%TO.P,C1,1*%
%TO.N,+3V3*%
X127862500Y-114250000D03*
%TO.P,C1,2*%
%TO.N,GND*%
X129937500Y-114250000D03*
%TD*%
%TO.P,C2,1*%
%TO.N,+3V3*%
X127862500Y-116350000D03*
%TO.P,C2,2*%
%TO.N,GND*%
X129937500Y-116350000D03*
%TD*%
D21*
%TO.P,D2,1,K*%
%TO.N,Net-(L1-Pad1)*%
X149550000Y-113400000D03*
%TO.P,D2,2,A*%
%TO.N,GND*%
X149550000Y-108400000D03*
%TD*%
D10*
%TO.P,J6,1,Pin_1*%
%TO.N,/leda*%
X123250000Y-85100000D03*
D11*
%TO.P,J6,2,Pin_2*%
%TO.N,Net-(R11-Pad2)*%
X123250000Y-82560000D03*
%TO.P,J6,3,Pin_3*%
%TO.N,/ledb*%
X123250000Y-80020000D03*
%TD*%
D10*
%TO.P,J5,1,Pin_1*%
%TO.N,+28V*%
X130350000Y-148000000D03*
D11*
%TO.P,J5,2,Pin_2*%
%TO.N,/USB D-*%
X132890000Y-148000000D03*
%TO.P,J5,3,Pin_3*%
%TO.N,/USB D+*%
X135430000Y-148000000D03*
%TO.P,J5,4,Pin_4*%
%TO.N,GND*%
X137970000Y-148000000D03*
%TD*%
D22*
%TO.P,C10,1*%
%TO.N,+3V3*%
X158650000Y-124750000D03*
%TO.P,C10,2*%
%TO.N,GND*%
X164250000Y-124750000D03*
%TD*%
%TO.P,C8,1*%
%TO.N,+28V*%
X158500000Y-87850000D03*
%TO.P,C8,2*%
%TO.N,GND*%
X164100000Y-87850000D03*
%TD*%
D23*
%TO.P,U2,1,VIN*%
%TO.N,+28V*%
X151825000Y-95500000D03*
%TO.P,U2,2,OUT*%
%TO.N,Net-(L1-Pad1)*%
X151825000Y-97200000D03*
D24*
%TO.P,U2,3,GND*%
%TO.N,GND*%
X160975000Y-98900000D03*
D23*
X151825000Y-98900000D03*
%TO.P,U2,4,FB*%
%TO.N,+3V3*%
X151825000Y-100600000D03*
%TO.P,U2,5,~{ON}/OFF*%
%TO.N,GND*%
X151825000Y-102300000D03*
%TD*%
D25*
%TO.P,L1,1,1*%
%TO.N,Net-(L1-Pad1)*%
X154400000Y-112800000D03*
%TO.P,L1,2,2*%
%TO.N,+3V3*%
X164100000Y-112800000D03*
%TD*%
D26*
%TO.P,D1,1,K*%
%TO.N,+28V*%
X149950000Y-75400000D03*
%TO.P,D1,2,A*%
%TO.N,Net-(J4-Pad1)*%
X146650000Y-75400000D03*
%TD*%
D27*
%TO.P,U4,1,IN*%
%TO.N,+28V*%
X157602500Y-80492500D03*
D28*
%TO.P,U4,2,GND*%
%TO.N,GND*%
X160142500Y-80492500D03*
%TO.P,U4,3,OUT*%
%TO.N,+3V3*%
X162682500Y-80492500D03*
%TD*%
D29*
%TO.P,U3,1,D*%
%TO.N,/txcan*%
X129725000Y-79095000D03*
%TO.P,U3,2,GND*%
%TO.N,GND*%
X129725000Y-80365000D03*
%TO.P,U3,3,VCC*%
%TO.N,+3V3*%
X129725000Y-81635000D03*
%TO.P,U3,4,R*%
%TO.N,/rxcan*%
X129725000Y-82905000D03*
%TO.P,U3,5,NC*%
%TO.N,unconnected-(U3-Pad5)*%
X134675000Y-82905000D03*
%TO.P,U3,6,CANL*%
%TO.N,Net-(D3-Pad1)*%
X134675000Y-81635000D03*
%TO.P,U3,7,CANH*%
%TO.N,Net-(D3-Pad2)*%
X134675000Y-80365000D03*
%TO.P,U3,8,NC*%
%TO.N,unconnected-(U3-Pad8)*%
X134675000Y-79095000D03*
%TD*%
D30*
%TO.P,R11,1*%
%TO.N,+3V3*%
X128362500Y-85050000D03*
%TO.P,R11,2*%
%TO.N,Net-(R11-Pad2)*%
X126537500Y-85050000D03*
%TD*%
D31*
%TO.P,J4,1,Pin_1*%
%TO.N,Net-(J4-Pad1)*%
X140960000Y-75332500D03*
D32*
%TO.P,J4,2,Pin_2*%
%TO.N,Net-(D3-Pad2)*%
X137150000Y-75332500D03*
%TO.P,J4,3,Pin_3*%
%TO.N,Net-(D3-Pad1)*%
X133340000Y-75332500D03*
%TO.P,J4,4,Pin_4*%
%TO.N,GND*%
X129530000Y-75332500D03*
%TD*%
D10*
%TO.P,J3,1,Pin_1*%
%TO.N,Net-(J3-Pad1)*%
X144200000Y-147850000D03*
D11*
%TO.P,J3,2,Pin_2*%
%TO.N,/rx*%
X146740000Y-147850000D03*
%TO.P,J3,3,Pin_3*%
%TO.N,/tx*%
X149280000Y-147850000D03*
%TO.P,J3,4,Pin_4*%
%TO.N,Net-(J3-Pad4)*%
X151820000Y-147850000D03*
%TO.P,J3,5,Pin_5*%
%TO.N,+3V3*%
X154360000Y-147850000D03*
%TO.P,J3,6,Pin_6*%
%TO.N,GND*%
X156900000Y-147850000D03*
%TD*%
D10*
%TO.P,J2,1,Pin_1*%
%TO.N,Net-(J2-Pad1)*%
X152310000Y-69800000D03*
D11*
%TO.P,J2,2,Pin_2*%
%TO.N,Net-(D3-Pad2)*%
X154850000Y-69800000D03*
%TD*%
D33*
%TO.N,GND*%
X135400000Y-106350000D03*
X137450000Y-108200000D03*
X135350000Y-77100000D03*
X166150000Y-76750000D03*
X132700000Y-96950000D03*
X127650000Y-95100000D03*
X131800000Y-83000000D03*
X130700000Y-88600000D03*
X136000000Y-89700000D03*
X134100000Y-145950000D03*
X141150000Y-146800000D03*
X147850000Y-142100000D03*
X148000000Y-145250000D03*
X150600000Y-145700000D03*
X142750000Y-139250000D03*
%TO.N,+3V3*%
X161800000Y-77850000D03*
X152100000Y-78700000D03*
%TO.N,/MOSI*%
X139350000Y-105800000D03*
%TO.N,/SCK*%
X139300000Y-104650000D03*
%TO.N,/MISO*%
X138550000Y-85474500D03*
%TO.N,GND*%
X141900000Y-114200000D03*
X130600000Y-117800000D03*
X135300000Y-112400000D03*
X127950000Y-145200000D03*
X124200000Y-116900000D03*
X166000000Y-140650000D03*
X138400000Y-141150000D03*
X145800000Y-108100000D03*
X149650000Y-116900000D03*
X151500000Y-140100000D03*
X126300000Y-135000000D03*
X126750000Y-123050000D03*
X158600000Y-110200000D03*
X130500000Y-101900000D03*
X138100000Y-97500000D03*
X161950000Y-83350000D03*
X154700000Y-72650000D03*
X155350000Y-85050000D03*
X155250000Y-81600000D03*
X123750000Y-77250000D03*
X141000000Y-78700000D03*
X131400000Y-77100000D03*
X127900000Y-78100000D03*
%TO.N,/rx*%
X124650000Y-121700000D03*
X146050000Y-137675500D03*
X129000000Y-109250000D03*
%TO.N,/tx*%
X126400000Y-118900000D03*
X149250000Y-141950000D03*
X123550000Y-121650000D03*
%TO.N,/flash*%
X140300000Y-115100000D03*
X136100000Y-119000000D03*
%TO.N,/reset*%
X133150000Y-118800000D03*
X133500000Y-112900000D03*
%TO.N,Net-(R2-Pad1)*%
X133100000Y-94950000D03*
X121950000Y-119700000D03*
%TO.N,Net-(R1-Pad1)*%
X121950000Y-118300000D03*
X127100000Y-96900000D03*
%TO.N,+28V*%
X166250000Y-108100000D03*
X165350000Y-92250000D03*
%TO.N,Net-(L1-Pad1)*%
X152100000Y-109050000D03*
X147000000Y-97550000D03*
%TD*%
D34*
%TO.N,+3V3*%
X161800000Y-77850000D02*
X162682500Y-78732500D01*
X149995000Y-81250000D02*
X152100000Y-79145000D01*
X152100000Y-79145000D02*
X152100000Y-78700000D01*
X162682500Y-78732500D02*
X162682500Y-80492500D01*
%TO.N,/MOSI*%
X137250000Y-105800000D02*
X139350000Y-105800000D01*
X135250000Y-107800000D02*
X137250000Y-105800000D01*
X135250000Y-110750000D02*
X135250000Y-107800000D01*
%TO.N,/SCK*%
X135700000Y-104650000D02*
X139300000Y-104650000D01*
X133750000Y-110750000D02*
X133750000Y-106600000D01*
X133750000Y-106600000D02*
X135700000Y-104650000D01*
%TO.N,/MISO*%
X138475500Y-85474500D02*
X138550000Y-85474500D01*
X138100000Y-85850000D02*
X138475500Y-85474500D01*
X132450000Y-85850000D02*
X138100000Y-85850000D01*
D35*
%TO.N,+3V3*%
X127862500Y-116350000D02*
X127862500Y-118462500D01*
X127862500Y-114250000D02*
X127862500Y-116350000D01*
X131850000Y-116100000D02*
X131850000Y-117550000D01*
X131850000Y-117550000D02*
X132050000Y-117750000D01*
X132050000Y-117750000D02*
X132050000Y-118200000D01*
X132050000Y-118200000D02*
X131200000Y-119050000D01*
X131200000Y-119050000D02*
X128450000Y-119050000D01*
X128450000Y-119050000D02*
X127862500Y-118462500D01*
D34*
%TO.N,GND*%
X129937500Y-116350000D02*
X129937500Y-117137500D01*
X129937500Y-117137500D02*
X130600000Y-117800000D01*
X129937500Y-116350000D02*
X129937500Y-114250000D01*
X126850000Y-80762500D02*
X129327500Y-80762500D01*
X129327500Y-80762500D02*
X129725000Y-80365000D01*
%TO.N,Net-(R1-Pad1)*%
X120900000Y-119350000D02*
X120900000Y-139400000D01*
X120900000Y-139400000D02*
X120900000Y-140250000D01*
%TO.N,/rx*%
X128999051Y-98575489D02*
X128960229Y-98575489D01*
X138250000Y-93250000D02*
X138250000Y-93550000D01*
X124650000Y-137200000D02*
X124700000Y-137250000D01*
X133224511Y-98575489D02*
X128999051Y-98575489D01*
X138250000Y-93550000D02*
X133224511Y-98575489D01*
X124700000Y-137250000D02*
X125125500Y-137675500D01*
X124650000Y-121700000D02*
X124650000Y-137200000D01*
X128960229Y-98575489D02*
X127224540Y-100311178D01*
X125125500Y-137675500D02*
X146050000Y-137675500D01*
X127224540Y-100311178D02*
X127224540Y-107474540D01*
X127224540Y-107474540D02*
X129000000Y-109250000D01*
%TO.N,/tx*%
X126775020Y-118524980D02*
X126400000Y-118900000D01*
X149250000Y-141550000D02*
X149250000Y-141950000D01*
X146100000Y-138400000D02*
X149250000Y-141550000D01*
X126775020Y-100124980D02*
X126775020Y-118524980D01*
X136750000Y-94050000D02*
X132950000Y-97850000D01*
X132700000Y-98100000D02*
X128800000Y-98100000D01*
X124200000Y-138400000D02*
X141900000Y-138400000D01*
X132750000Y-98050000D02*
X132700000Y-98100000D01*
X132900000Y-97900000D02*
X132750000Y-98050000D01*
X132950000Y-97850000D02*
X132900000Y-97900000D01*
X123550000Y-121650000D02*
X123550000Y-137750000D01*
X141900000Y-138400000D02*
X146100000Y-138400000D01*
X123550000Y-137750000D02*
X124200000Y-138400000D01*
X136750000Y-93250000D02*
X136750000Y-94050000D01*
X128800000Y-98100000D02*
X126775020Y-100124980D01*
%TO.N,/txcan*%
X129725000Y-79095000D02*
X131745000Y-79095000D01*
X131745000Y-79095000D02*
X131745000Y-81621072D01*
X131745000Y-81621072D02*
X134424408Y-84300480D01*
X134424408Y-84300480D02*
X139186198Y-84300480D01*
X139186198Y-84300480D02*
X140550000Y-85664282D01*
X140550000Y-85664282D02*
X140550000Y-108000000D01*
X140550000Y-108000000D02*
X138250000Y-110300000D01*
X138250000Y-110300000D02*
X138250000Y-110750000D01*
D36*
%TO.N,/USB D+*%
X134950000Y-144200000D02*
X134950000Y-145000000D01*
X134950000Y-145000000D02*
X135430000Y-145480000D01*
X135430000Y-145480000D02*
X135430000Y-148000000D01*
X137262500Y-144750000D02*
X135500000Y-144750000D01*
X135500000Y-144750000D02*
X134950000Y-144200000D01*
D34*
%TO.N,Net-(R2-Pad1)*%
X132049040Y-140450000D02*
X134350000Y-140450000D01*
X134350000Y-140450000D02*
X134950000Y-141050000D01*
X134950000Y-141050000D02*
X134950000Y-142200000D01*
%TO.N,/reset*%
X131050000Y-113500000D02*
X129250000Y-111700000D01*
X129250000Y-111700000D02*
X129250000Y-110800000D01*
X133500000Y-112900000D02*
X134362500Y-113762500D01*
X134362500Y-113762500D02*
X134362500Y-115200000D01*
X131850000Y-113300000D02*
X131850000Y-113500000D01*
X131850000Y-113500000D02*
X131850000Y-114100000D01*
X131050000Y-113500000D02*
X131850000Y-113500000D01*
X133500000Y-112900000D02*
X132250000Y-112900000D01*
X132250000Y-112900000D02*
X131850000Y-113300000D01*
%TO.N,/flash*%
X140300000Y-115100000D02*
X138700000Y-115100000D01*
D35*
%TO.N,+3V3*%
X127662500Y-114200000D02*
X127662500Y-110837500D01*
X127662500Y-110837500D02*
X127750000Y-110750000D01*
X138700000Y-117100000D02*
X132850000Y-117100000D01*
X132850000Y-117100000D02*
X131850000Y-116100000D01*
D34*
%TO.N,/rxcan*%
X129725000Y-82905000D02*
X131570000Y-84750000D01*
X131570000Y-84750000D02*
X139000000Y-84750000D01*
X139000000Y-84750000D02*
X139750000Y-85500000D01*
X139750000Y-85500000D02*
X139750000Y-93250000D01*
%TO.N,/ledb*%
X129250000Y-93250000D02*
X129249999Y-87801782D01*
X122075489Y-83075489D02*
X122075489Y-81194511D01*
X129249999Y-87801782D02*
X127748217Y-86300000D01*
X127748217Y-86300000D02*
X125250000Y-86300000D01*
X124233533Y-83734511D02*
X122734511Y-83734511D01*
X125250000Y-86300000D02*
X125250000Y-84750978D01*
X125250000Y-84750978D02*
X124233533Y-83734511D01*
X122075489Y-81194511D02*
X123250000Y-80020000D01*
X122734511Y-83734511D02*
X122075489Y-83075489D01*
%TO.N,Net-(R11-Pad2)*%
X126600000Y-85200000D02*
X123960000Y-82560000D01*
X123960000Y-82560000D02*
X123250000Y-82560000D01*
%TO.N,Net-(R1-Pad1)*%
X121950000Y-118300000D02*
X120900000Y-119350000D01*
X120900000Y-140250000D02*
X130900000Y-140250000D01*
X130900000Y-140250000D02*
X132850000Y-142200000D01*
D36*
%TO.N,/USB D-*%
X132850000Y-144200000D02*
X132890000Y-144240000D01*
X132890000Y-144240000D02*
X132890000Y-148000000D01*
D34*
%TO.N,Net-(R2-Pad1)*%
X131399520Y-139800480D02*
X132049040Y-140450000D01*
%TO.N,/reset*%
X131499520Y-142437027D02*
X131499520Y-142462013D01*
X131499520Y-142462013D02*
X132312987Y-143275480D01*
X132312987Y-143275480D02*
X136237973Y-143275480D01*
D36*
%TO.N,/USB D-*%
X130587500Y-143150000D02*
X130587500Y-143387500D01*
X130587500Y-143387500D02*
X131400000Y-144200000D01*
X131400000Y-144200000D02*
X132850000Y-144200000D01*
D35*
%TO.N,Net-(L1-Pad1)*%
X154400000Y-112800000D02*
X152050000Y-110450000D01*
X152050000Y-110450000D02*
X152050000Y-109100000D01*
X152050000Y-109100000D02*
X152100000Y-109050000D01*
D34*
%TO.N,/flash*%
X136100000Y-119000000D02*
X134450000Y-120650000D01*
X134450000Y-120650000D02*
X123150000Y-120650000D01*
X123150000Y-120650000D02*
X122650000Y-121150000D01*
X141050000Y-139150000D02*
X144200000Y-142300000D01*
X122650000Y-121150000D02*
X122650000Y-137950000D01*
X122650000Y-137950000D02*
X123850000Y-139150000D01*
X123850000Y-139150000D02*
X141050000Y-139150000D01*
%TO.N,Net-(R2-Pad1)*%
X131399520Y-139800480D02*
X122400480Y-139800480D01*
X121950000Y-139350000D02*
X121950000Y-119700000D01*
X122400480Y-139800480D02*
X121950000Y-139350000D01*
%TO.N,/reset*%
X129762013Y-140699520D02*
X120713803Y-140699520D01*
X142301440Y-143050480D02*
X136462973Y-143050480D01*
X120274980Y-140260697D02*
X120274980Y-116525020D01*
X131800000Y-120150000D02*
X133150000Y-118800000D01*
X142475480Y-143224520D02*
X142301440Y-143050480D01*
X126200000Y-120150000D02*
X131800000Y-120150000D01*
X122575020Y-116525020D02*
X126200000Y-120150000D01*
X151900000Y-142312500D02*
X150987980Y-143224520D01*
X136462973Y-143050480D02*
X136237973Y-143275480D01*
X120713803Y-140699520D02*
X120274980Y-140260697D01*
X150987980Y-143224520D02*
X142475480Y-143224520D01*
X131499520Y-142437027D02*
X129762013Y-140699520D01*
X120274980Y-116525020D02*
X122575020Y-116525020D01*
%TO.N,Net-(R2-Pad1)*%
X133750000Y-93250000D02*
X133750000Y-94300000D01*
X133750000Y-94300000D02*
X133100000Y-94950000D01*
%TO.N,Net-(R1-Pad1)*%
X127100000Y-96900000D02*
X128300000Y-95700000D01*
X128300000Y-95700000D02*
X134100000Y-95700000D01*
X134100000Y-95700000D02*
X135250000Y-94550000D01*
X135250000Y-94550000D02*
X135250000Y-93250000D01*
D35*
%TO.N,+28V*%
X166400000Y-108100000D02*
X166250000Y-108100000D01*
X160150000Y-132242824D02*
X166700000Y-125692824D01*
X166700000Y-125692824D02*
X166700000Y-108400000D01*
X166700000Y-108400000D02*
X166400000Y-108100000D01*
X130350000Y-148000000D02*
X131899511Y-149549511D01*
X131899511Y-149549511D02*
X157391830Y-149549511D01*
X157391830Y-149549511D02*
X160150000Y-146791341D01*
X160150000Y-146791341D02*
X160150000Y-132242824D01*
X158500000Y-87850000D02*
X155900000Y-90450000D01*
X155900000Y-90450000D02*
X151825000Y-94525000D01*
X165350000Y-92250000D02*
X163550000Y-90450000D01*
X163550000Y-90450000D02*
X155900000Y-90450000D01*
D34*
%TO.N,Net-(J3-Pad1)*%
X144200000Y-144300000D02*
X144200000Y-147850000D01*
%TO.N,Net-(J3-Pad4)*%
X151900000Y-144312500D02*
X151820000Y-144392500D01*
X151820000Y-144392500D02*
X151820000Y-147850000D01*
%TO.N,/flash*%
X136750000Y-110750000D02*
X136750000Y-113150000D01*
X136750000Y-113150000D02*
X138700000Y-115100000D01*
D35*
%TO.N,/reset*%
X129250000Y-110750000D02*
X129250000Y-110800000D01*
%TO.N,+3V3*%
X127750000Y-110750000D02*
X127700000Y-110750000D01*
X138700000Y-117100000D02*
X142050000Y-117100000D01*
X142050000Y-117100000D02*
X143899511Y-115250489D01*
X143899511Y-115250489D02*
X143899511Y-105950489D01*
D34*
%TO.N,/MISO*%
X132450000Y-88637500D02*
X130750000Y-90337500D01*
X130750000Y-90337500D02*
X130750000Y-93250000D01*
%TO.N,/leda*%
X123250000Y-85100000D02*
X123250000Y-85800000D01*
X123250000Y-85800000D02*
X124850000Y-87400000D01*
X124850000Y-87400000D02*
X127050000Y-87400000D01*
X127050000Y-87400000D02*
X127750000Y-88100000D01*
X127750000Y-88100000D02*
X127750000Y-93250000D01*
%TO.N,/MISO*%
X132450000Y-88637500D02*
X132450000Y-85850000D01*
%TO.N,Net-(D3-Pad1)*%
X137500000Y-82550000D02*
X136585000Y-81635000D01*
X136585000Y-81635000D02*
X134675000Y-81635000D01*
%TO.N,Net-(D3-Pad2)*%
X135974520Y-79174520D02*
X136175000Y-79375000D01*
X136175000Y-79375000D02*
X139350000Y-82550000D01*
X134675000Y-80365000D02*
X135185000Y-80365000D01*
X135185000Y-80365000D02*
X136175000Y-79375000D01*
X135974520Y-79065480D02*
X135974520Y-79174520D01*
X139350000Y-82550000D02*
X139400000Y-82550000D01*
X137150000Y-75332500D02*
X137150000Y-77890000D01*
X137150000Y-77890000D02*
X135974520Y-79065480D01*
%TO.N,Net-(D3-Pad1)*%
X133340000Y-75332500D02*
X133340000Y-80676072D01*
X133340000Y-80676072D02*
X134298928Y-81635000D01*
X134298928Y-81635000D02*
X134675000Y-81635000D01*
D35*
%TO.N,+3V3*%
X158650000Y-124750000D02*
X154360000Y-129040000D01*
X154360000Y-129040000D02*
X154360000Y-147850000D01*
X164100000Y-112800000D02*
X158650000Y-118250000D01*
X158650000Y-118250000D02*
X158650000Y-124750000D01*
%TO.N,Net-(L1-Pad1)*%
X147650000Y-97200000D02*
X147300000Y-97550000D01*
X147300000Y-97550000D02*
X147000000Y-97550000D01*
X151825000Y-97200000D02*
X147650000Y-97200000D01*
%TO.N,+3V3*%
X164100000Y-112800000D02*
X164100000Y-107274022D01*
X164100000Y-107274022D02*
X165423533Y-105950489D01*
%TO.N,Net-(L1-Pad1)*%
X154400000Y-112800000D02*
X150150000Y-112800000D01*
X150150000Y-112800000D02*
X149550000Y-113400000D01*
%TO.N,+3V3*%
X151825000Y-100600000D02*
X145850000Y-100600000D01*
X145850000Y-100600000D02*
X143899511Y-102550489D01*
X143899511Y-102550489D02*
X143899511Y-105950489D01*
X162682500Y-80492500D02*
X166750000Y-84560000D01*
X166750000Y-84560000D02*
X166750000Y-104624022D01*
X166750000Y-104624022D02*
X165423533Y-105950489D01*
X165423533Y-105950489D02*
X143899511Y-105950489D01*
D34*
X128425000Y-85200000D02*
X129800000Y-85200000D01*
X129800000Y-85200000D02*
X130450000Y-85850000D01*
X126850000Y-82837500D02*
X126850000Y-83625000D01*
X126850000Y-83625000D02*
X128425000Y-85200000D01*
X126850000Y-82837500D02*
X128052500Y-81635000D01*
X128052500Y-81635000D02*
X129725000Y-81635000D01*
D35*
X162682500Y-80492500D02*
X162682500Y-77132500D01*
X156399511Y-70849511D02*
X156399511Y-68899511D01*
X162682500Y-77132500D02*
X156399511Y-70849511D01*
X156399511Y-68899511D02*
X154900480Y-67400480D01*
X154900480Y-67400480D02*
X134199520Y-67400480D01*
X134199520Y-67400480D02*
X125425480Y-76174520D01*
X125425480Y-76174520D02*
X125425480Y-81493304D01*
X125425480Y-81493304D02*
X126769676Y-82837500D01*
X126769676Y-82837500D02*
X126850000Y-82837500D01*
X160587500Y-76050000D02*
X161250000Y-76050000D01*
X161250000Y-76050000D02*
X162682500Y-77482500D01*
X162682500Y-77482500D02*
X162682500Y-80492500D01*
%TO.N,+28V*%
X151825000Y-94525000D02*
X151825000Y-95500000D01*
X157602500Y-80492500D02*
X157602500Y-86952500D01*
D34*
X157602500Y-86952500D02*
X158500000Y-87850000D01*
X154400000Y-77037500D02*
X154400000Y-77290000D01*
D35*
X154400000Y-77290000D02*
X157602500Y-80492500D01*
D34*
X149950000Y-75400000D02*
X149950000Y-75600000D01*
D35*
X149950000Y-75600000D02*
X151387500Y-77037500D01*
X151387500Y-77037500D02*
X154400000Y-77037500D01*
D34*
%TO.N,Net-(J4-Pad1)*%
X140960000Y-75332500D02*
X141027500Y-75400000D01*
D35*
X141027500Y-75400000D02*
X146650000Y-75400000D01*
D34*
%TO.N,Net-(D3-Pad1)*%
X147800000Y-70700000D02*
X133900000Y-70700000D01*
X133900000Y-70700000D02*
X133340000Y-71260000D01*
X133340000Y-71260000D02*
X133340000Y-75332500D01*
%TO.N,Net-(J2-Pad1)*%
X152310000Y-69800000D02*
X148900000Y-69800000D01*
X148900000Y-69800000D02*
X147800000Y-68700000D01*
%TO.N,Net-(D3-Pad2)*%
X137150000Y-75332500D02*
X137150000Y-73250000D01*
X137150000Y-73250000D02*
X137675480Y-72724520D01*
X137675480Y-72724520D02*
X151925480Y-72724520D01*
X151925480Y-72724520D02*
X154850000Y-69800000D01*
%TD*%
%TA.AperFunction,Conductor*%
%TO.N,GND*%
G36*
X120388352Y-141250078D02*
G01*
X120388761Y-141249132D01*
X120388762Y-141249133D01*
X120429346Y-141266696D01*
X120439976Y-141271903D01*
X120478743Y-141293215D01*
X120486420Y-141295186D01*
X120486425Y-141295188D01*
X120498361Y-141298252D01*
X120517069Y-141304657D01*
X120535658Y-141312701D01*
X120543483Y-141313940D01*
X120543485Y-141313941D01*
X120579322Y-141319617D01*
X120590943Y-141322024D01*
X120626092Y-141331048D01*
X120633773Y-141333020D01*
X120654034Y-141333020D01*
X120673743Y-141334571D01*
X120693746Y-141337739D01*
X120701638Y-141336993D01*
X120706865Y-141336499D01*
X120737757Y-141333579D01*
X120749614Y-141333020D01*
X129447418Y-141333020D01*
X129515539Y-141353022D01*
X129536514Y-141369925D01*
X129952219Y-141785631D01*
X129986244Y-141847943D01*
X129981179Y-141918759D01*
X129938632Y-141975594D01*
X129925914Y-141983224D01*
X129926054Y-141983450D01*
X129775652Y-142076522D01*
X129650695Y-142201697D01*
X129647898Y-142206235D01*
X129590647Y-142246824D01*
X129519724Y-142250054D01*
X129458313Y-142214428D01*
X129450938Y-142205932D01*
X129442902Y-142195793D01*
X129328171Y-142081261D01*
X129316760Y-142072249D01*
X129178757Y-141987184D01*
X129165576Y-141981037D01*
X129011290Y-141929862D01*
X128997914Y-141926995D01*
X128903562Y-141917328D01*
X128897145Y-141917000D01*
X128784615Y-141917000D01*
X128769376Y-141921475D01*
X128768171Y-141922865D01*
X128766500Y-141930548D01*
X128766500Y-144364884D01*
X128770975Y-144380123D01*
X128772365Y-144381328D01*
X128780048Y-144382999D01*
X128897095Y-144382999D01*
X128903614Y-144382662D01*
X128999206Y-144372743D01*
X129012600Y-144369851D01*
X129166784Y-144318412D01*
X129179962Y-144312239D01*
X129317807Y-144226937D01*
X129329208Y-144217901D01*
X129443738Y-144103172D01*
X129450794Y-144094238D01*
X129508712Y-144053177D01*
X129579635Y-144049947D01*
X129641046Y-144085574D01*
X129647846Y-144093407D01*
X129651522Y-144099348D01*
X129776697Y-144224305D01*
X129782927Y-144228145D01*
X129782928Y-144228146D01*
X129920288Y-144312816D01*
X129927262Y-144317115D01*
X130007005Y-144343564D01*
X130088611Y-144370632D01*
X130088613Y-144370632D01*
X130095139Y-144372797D01*
X130101975Y-144373497D01*
X130101978Y-144373498D01*
X130145031Y-144377909D01*
X130199600Y-144383500D01*
X130670761Y-144383500D01*
X130738882Y-144403502D01*
X130759856Y-144420405D01*
X130935685Y-144596234D01*
X130946552Y-144608625D01*
X130966013Y-144633987D01*
X130972563Y-144639013D01*
X130997921Y-144658471D01*
X130997937Y-144658485D01*
X131047305Y-144696366D01*
X131093124Y-144731524D01*
X131167137Y-144762181D01*
X131233520Y-144789678D01*
X131233523Y-144789679D01*
X131241150Y-144792838D01*
X131249338Y-144793916D01*
X131320575Y-144803295D01*
X131400000Y-144813751D01*
X131431699Y-144809578D01*
X131448144Y-144808500D01*
X131598613Y-144808500D01*
X131666734Y-144828502D01*
X131707184Y-144874730D01*
X131708450Y-144873946D01*
X131801522Y-145024348D01*
X131926697Y-145149305D01*
X131932927Y-145153145D01*
X131932928Y-145153146D01*
X132070090Y-145237694D01*
X132077262Y-145242115D01*
X132177614Y-145275400D01*
X132195167Y-145281222D01*
X132253527Y-145321652D01*
X132280764Y-145387217D01*
X132281500Y-145400815D01*
X132281500Y-146708678D01*
X132261498Y-146776799D01*
X132213683Y-146820439D01*
X132163607Y-146846507D01*
X132159474Y-146849610D01*
X132159471Y-146849612D01*
X131989100Y-146977530D01*
X131984965Y-146980635D01*
X131928537Y-147039684D01*
X131904283Y-147065064D01*
X131842759Y-147100494D01*
X131771846Y-147097037D01*
X131714060Y-147055791D01*
X131695207Y-147022243D01*
X131653767Y-146911703D01*
X131650615Y-146903295D01*
X131563261Y-146786739D01*
X131446705Y-146699385D01*
X131310316Y-146648255D01*
X131248134Y-146641500D01*
X129451866Y-146641500D01*
X129389684Y-146648255D01*
X129253295Y-146699385D01*
X129136739Y-146786739D01*
X129049385Y-146903295D01*
X128998255Y-147039684D01*
X128991500Y-147101866D01*
X128991500Y-148898134D01*
X128998255Y-148960316D01*
X129049385Y-149096705D01*
X129136739Y-149213261D01*
X129253295Y-149300615D01*
X129389684Y-149351745D01*
X129451866Y-149358500D01*
X130230075Y-149358500D01*
X130298196Y-149378502D01*
X130319170Y-149395405D01*
X130925670Y-150001905D01*
X130959696Y-150064217D01*
X130954631Y-150135032D01*
X130912084Y-150191868D01*
X130845564Y-150216679D01*
X130836575Y-150217000D01*
X127334000Y-150217000D01*
X127265879Y-150196998D01*
X127219386Y-150143342D01*
X127208000Y-150091000D01*
X127208000Y-143897541D01*
X127228002Y-143829420D01*
X127281658Y-143782927D01*
X127351932Y-143772823D01*
X127416512Y-143802317D01*
X127453524Y-143857665D01*
X127481588Y-143941784D01*
X127487761Y-143954962D01*
X127573063Y-144092807D01*
X127582099Y-144104208D01*
X127696829Y-144218739D01*
X127708240Y-144227751D01*
X127846243Y-144312816D01*
X127859424Y-144318963D01*
X128013710Y-144370138D01*
X128027086Y-144373005D01*
X128121438Y-144382672D01*
X128127854Y-144383000D01*
X128240385Y-144383000D01*
X128255624Y-144378525D01*
X128256829Y-144377135D01*
X128258500Y-144369452D01*
X128258500Y-141935116D01*
X128254025Y-141919877D01*
X128252635Y-141918672D01*
X128244952Y-141917001D01*
X128127905Y-141917001D01*
X128121386Y-141917338D01*
X128025794Y-141927257D01*
X128012400Y-141930149D01*
X127858216Y-141981588D01*
X127845038Y-141987761D01*
X127707193Y-142073063D01*
X127695792Y-142082099D01*
X127581261Y-142196829D01*
X127572249Y-142208240D01*
X127487184Y-142346243D01*
X127481036Y-142359426D01*
X127453593Y-142442164D01*
X127413162Y-142500524D01*
X127347598Y-142527761D01*
X127277716Y-142515227D01*
X127225705Y-142466903D01*
X127208000Y-142402497D01*
X127208000Y-142233702D01*
X127208002Y-142232932D01*
X127208193Y-142201697D01*
X127208476Y-142155348D01*
X127206010Y-142146719D01*
X127206009Y-142146714D01*
X127200361Y-142126952D01*
X127196783Y-142110191D01*
X127193870Y-142089848D01*
X127193867Y-142089838D01*
X127192595Y-142080955D01*
X127181979Y-142057605D01*
X127175536Y-142040093D01*
X127170954Y-142024063D01*
X127168488Y-142015435D01*
X127152726Y-141990452D01*
X127144596Y-141975386D01*
X127132367Y-141948490D01*
X127115626Y-141929061D01*
X127104521Y-141914053D01*
X127095630Y-141899961D01*
X127090840Y-141892369D01*
X127068703Y-141872818D01*
X127056659Y-141860626D01*
X127043239Y-141845051D01*
X127043237Y-141845050D01*
X127037381Y-141838253D01*
X127029853Y-141833374D01*
X127029850Y-141833371D01*
X127015861Y-141824304D01*
X127000987Y-141813014D01*
X126988502Y-141801988D01*
X126981772Y-141796044D01*
X126973646Y-141792229D01*
X126973645Y-141792228D01*
X126963140Y-141787296D01*
X126955034Y-141783490D01*
X126940065Y-141775176D01*
X126915273Y-141759107D01*
X126890709Y-141751761D01*
X126873264Y-141745099D01*
X126850052Y-141734201D01*
X126820870Y-141729657D01*
X126804151Y-141725874D01*
X126784464Y-141719986D01*
X126784461Y-141719985D01*
X126775859Y-141717413D01*
X126766884Y-141717358D01*
X126766883Y-141717358D01*
X126760190Y-141717317D01*
X126741444Y-141717203D01*
X126740672Y-141717170D01*
X126739577Y-141717000D01*
X126708702Y-141717000D01*
X126707932Y-141716998D01*
X126634284Y-141716548D01*
X126634283Y-141716548D01*
X126630348Y-141716524D01*
X126629004Y-141716908D01*
X126627659Y-141717000D01*
X120334000Y-141717000D01*
X120265879Y-141696998D01*
X120219386Y-141643342D01*
X120208000Y-141591000D01*
X120208000Y-141361978D01*
X120228002Y-141293857D01*
X120281658Y-141247364D01*
X120351932Y-141237260D01*
X120388352Y-141250078D01*
G37*
%TD.AperFunction*%
%TA.AperFunction,Conductor*%
G36*
X142057560Y-143703982D02*
G01*
X142075691Y-143718130D01*
X142100159Y-143741106D01*
X142107105Y-143744925D01*
X142107108Y-143744927D01*
X142117914Y-143750868D01*
X142134433Y-143761719D01*
X142150439Y-143774134D01*
X142157708Y-143777279D01*
X142157712Y-143777282D01*
X142191017Y-143791694D01*
X142201667Y-143796911D01*
X142240420Y-143818215D01*
X142248095Y-143820186D01*
X142248096Y-143820186D01*
X142260042Y-143823253D01*
X142278747Y-143829657D01*
X142297335Y-143837701D01*
X142305158Y-143838940D01*
X142305168Y-143838943D01*
X142341004Y-143844619D01*
X142352624Y-143847025D01*
X142387769Y-143856048D01*
X142395450Y-143858020D01*
X142415704Y-143858020D01*
X142435414Y-143859571D01*
X142455423Y-143862740D01*
X142463315Y-143861994D01*
X142499441Y-143858579D01*
X142511299Y-143858020D01*
X142865500Y-143858020D01*
X142933621Y-143878022D01*
X142980114Y-143931678D01*
X142991500Y-143984020D01*
X142991500Y-144700400D01*
X142991837Y-144703646D01*
X142991837Y-144703650D01*
X143001247Y-144794337D01*
X143002474Y-144806166D01*
X143004655Y-144812702D01*
X143004655Y-144812704D01*
X143009926Y-144828502D01*
X143058450Y-144973946D01*
X143151522Y-145124348D01*
X143156704Y-145129521D01*
X143175694Y-145148478D01*
X143276697Y-145249305D01*
X143282927Y-145253145D01*
X143282928Y-145253146D01*
X143368790Y-145306072D01*
X143427262Y-145342115D01*
X143480168Y-145359663D01*
X143538527Y-145400094D01*
X143565764Y-145465658D01*
X143566500Y-145479256D01*
X143566500Y-146365500D01*
X143546498Y-146433621D01*
X143492842Y-146480114D01*
X143440500Y-146491500D01*
X143301866Y-146491500D01*
X143239684Y-146498255D01*
X143103295Y-146549385D01*
X142986739Y-146636739D01*
X142899385Y-146753295D01*
X142848255Y-146889684D01*
X142841500Y-146951866D01*
X142841500Y-148415011D01*
X142821498Y-148483132D01*
X142767842Y-148529625D01*
X142715500Y-148541011D01*
X139394967Y-148541011D01*
X139326846Y-148521009D01*
X139280353Y-148467353D01*
X139270249Y-148397079D01*
X139274408Y-148378383D01*
X139300379Y-148292903D01*
X139302555Y-148282837D01*
X139303986Y-148271962D01*
X139301775Y-148257778D01*
X139288617Y-148254000D01*
X137842000Y-148254000D01*
X137773879Y-148233998D01*
X137727386Y-148180342D01*
X137716000Y-148128000D01*
X137716000Y-147727885D01*
X138224000Y-147727885D01*
X138228475Y-147743124D01*
X138229865Y-147744329D01*
X138237548Y-147746000D01*
X139288344Y-147746000D01*
X139301875Y-147742027D01*
X139303180Y-147732947D01*
X139261214Y-147565875D01*
X139257894Y-147556124D01*
X139172972Y-147360814D01*
X139168105Y-147351739D01*
X139052426Y-147172926D01*
X139046136Y-147164757D01*
X138902806Y-147007240D01*
X138895273Y-147000215D01*
X138728139Y-146868222D01*
X138719552Y-146862517D01*
X138533117Y-146759599D01*
X138523705Y-146755369D01*
X138322959Y-146684280D01*
X138312988Y-146681646D01*
X138241837Y-146668972D01*
X138228540Y-146670432D01*
X138224000Y-146684989D01*
X138224000Y-147727885D01*
X137716000Y-147727885D01*
X137716000Y-146683102D01*
X137712082Y-146669758D01*
X137697806Y-146667771D01*
X137659324Y-146673660D01*
X137649288Y-146676051D01*
X137446868Y-146742212D01*
X137437359Y-146746209D01*
X137248463Y-146844542D01*
X137239738Y-146850036D01*
X137069433Y-146977905D01*
X137061726Y-146984748D01*
X136914590Y-147138717D01*
X136908109Y-147146722D01*
X136803498Y-147300074D01*
X136748587Y-147345076D01*
X136678062Y-147353247D01*
X136614315Y-147321993D01*
X136593618Y-147297509D01*
X136512822Y-147172617D01*
X136512820Y-147172614D01*
X136510014Y-147168277D01*
X136359670Y-147003051D01*
X136355619Y-146999852D01*
X136355615Y-146999848D01*
X136188414Y-146867800D01*
X136188410Y-146867798D01*
X136184359Y-146864598D01*
X136103607Y-146820021D01*
X136053636Y-146769588D01*
X136038500Y-146709712D01*
X136038500Y-145676970D01*
X136058502Y-145608849D01*
X136112158Y-145562356D01*
X136182432Y-145552252D01*
X136247012Y-145581746D01*
X136271644Y-145610667D01*
X136326522Y-145699348D01*
X136451697Y-145824305D01*
X136457927Y-145828145D01*
X136457928Y-145828146D01*
X136595288Y-145912816D01*
X136602262Y-145917115D01*
X136682005Y-145943564D01*
X136763611Y-145970632D01*
X136763613Y-145970632D01*
X136770139Y-145972797D01*
X136776975Y-145973497D01*
X136776978Y-145973498D01*
X136820031Y-145977909D01*
X136874600Y-145983500D01*
X137650400Y-145983500D01*
X137653646Y-145983163D01*
X137653650Y-145983163D01*
X137749308Y-145973238D01*
X137749312Y-145973237D01*
X137756166Y-145972526D01*
X137762702Y-145970345D01*
X137762704Y-145970345D01*
X137894806Y-145926272D01*
X137923946Y-145916550D01*
X138074348Y-145823478D01*
X138199305Y-145698303D01*
X138202102Y-145693765D01*
X138259353Y-145653176D01*
X138330276Y-145649946D01*
X138391687Y-145685572D01*
X138399062Y-145694068D01*
X138407098Y-145704207D01*
X138521829Y-145818739D01*
X138533240Y-145827751D01*
X138671243Y-145912816D01*
X138684424Y-145918963D01*
X138838710Y-145970138D01*
X138852086Y-145973005D01*
X138946438Y-145982672D01*
X138952854Y-145983000D01*
X139065385Y-145983000D01*
X139080624Y-145978525D01*
X139081829Y-145977135D01*
X139083500Y-145969452D01*
X139083500Y-145964884D01*
X139591500Y-145964884D01*
X139595975Y-145980123D01*
X139597365Y-145981328D01*
X139605048Y-145982999D01*
X139722095Y-145982999D01*
X139728614Y-145982662D01*
X139824206Y-145972743D01*
X139837600Y-145969851D01*
X139991784Y-145918412D01*
X140004962Y-145912239D01*
X140142807Y-145826937D01*
X140154208Y-145817901D01*
X140268739Y-145703171D01*
X140277751Y-145691760D01*
X140362816Y-145553757D01*
X140368963Y-145540576D01*
X140420138Y-145386290D01*
X140423005Y-145372914D01*
X140432672Y-145278562D01*
X140433000Y-145272146D01*
X140433000Y-145022115D01*
X140428525Y-145006876D01*
X140427135Y-145005671D01*
X140419452Y-145004000D01*
X139609615Y-145004000D01*
X139594376Y-145008475D01*
X139593171Y-145009865D01*
X139591500Y-145017548D01*
X139591500Y-145964884D01*
X139083500Y-145964884D01*
X139083500Y-144622000D01*
X139103502Y-144553879D01*
X139157158Y-144507386D01*
X139209500Y-144496000D01*
X140414884Y-144496000D01*
X140430123Y-144491525D01*
X140431328Y-144490135D01*
X140432999Y-144482452D01*
X140432999Y-144227905D01*
X140432662Y-144221386D01*
X140422743Y-144125794D01*
X140419851Y-144112400D01*
X140368412Y-143958216D01*
X140362238Y-143945037D01*
X140319692Y-143876283D01*
X140300854Y-143807831D01*
X140322015Y-143740061D01*
X140376456Y-143694490D01*
X140426836Y-143683980D01*
X141989439Y-143683980D01*
X142057560Y-143703982D01*
G37*
%TD.AperFunction*%
%TA.AperFunction,Conductor*%
G36*
X162459126Y-115971546D02*
G01*
X162532282Y-115998971D01*
X162532288Y-115998973D01*
X162539684Y-116001745D01*
X162601866Y-116008500D01*
X165565500Y-116008500D01*
X165633621Y-116028502D01*
X165680114Y-116082158D01*
X165691500Y-116134500D01*
X165691500Y-123316000D01*
X165671498Y-123384121D01*
X165617842Y-123430614D01*
X165565500Y-123442000D01*
X164522115Y-123442000D01*
X164506876Y-123446475D01*
X164505671Y-123447865D01*
X164504000Y-123455548D01*
X164504000Y-126039884D01*
X164508475Y-126055123D01*
X164509865Y-126056328D01*
X164517548Y-126057999D01*
X164604401Y-126057999D01*
X164672522Y-126078001D01*
X164719015Y-126131657D01*
X164729119Y-126201931D01*
X164699625Y-126266511D01*
X164693496Y-126273094D01*
X159480621Y-131485969D01*
X159470478Y-131495071D01*
X159440975Y-131518792D01*
X159437008Y-131523520D01*
X159408709Y-131557245D01*
X159405528Y-131560893D01*
X159403885Y-131562705D01*
X159401691Y-131564899D01*
X159374358Y-131598173D01*
X159373696Y-131598971D01*
X159313846Y-131670298D01*
X159311278Y-131674968D01*
X159307897Y-131679085D01*
X159276860Y-131736969D01*
X159264023Y-131760910D01*
X159263394Y-131762069D01*
X159221538Y-131838205D01*
X159221535Y-131838213D01*
X159218567Y-131843611D01*
X159216955Y-131848693D01*
X159214438Y-131853387D01*
X159187238Y-131942355D01*
X159186918Y-131943383D01*
X159158765Y-132032130D01*
X159158171Y-132037426D01*
X159156613Y-132042522D01*
X159155990Y-132048658D01*
X159147218Y-132135011D01*
X159147089Y-132136217D01*
X159141500Y-132186051D01*
X159141500Y-132189578D01*
X159141445Y-132190563D01*
X159140998Y-132196243D01*
X159136626Y-132239286D01*
X159137206Y-132245417D01*
X159140941Y-132284933D01*
X159141500Y-132296791D01*
X159141500Y-146321417D01*
X159121498Y-146389538D01*
X159104595Y-146410512D01*
X158292883Y-147222224D01*
X158230571Y-147256250D01*
X158159756Y-147251185D01*
X158102920Y-147208638D01*
X158097996Y-147201569D01*
X157982427Y-147022926D01*
X157976136Y-147014757D01*
X157832806Y-146857240D01*
X157825273Y-146850215D01*
X157658139Y-146718222D01*
X157649552Y-146712517D01*
X157463117Y-146609599D01*
X157453705Y-146605369D01*
X157252959Y-146534280D01*
X157242988Y-146531646D01*
X157171837Y-146518972D01*
X157158540Y-146520432D01*
X157154000Y-146534989D01*
X157154000Y-147978000D01*
X157133998Y-148046121D01*
X157080342Y-148092614D01*
X157028000Y-148104000D01*
X156772000Y-148104000D01*
X156703879Y-148083998D01*
X156657386Y-148030342D01*
X156646000Y-147978000D01*
X156646000Y-146533102D01*
X156642082Y-146519758D01*
X156627806Y-146517771D01*
X156589324Y-146523660D01*
X156579288Y-146526051D01*
X156376868Y-146592212D01*
X156367359Y-146596209D01*
X156178463Y-146694542D01*
X156169738Y-146700036D01*
X155999433Y-146827905D01*
X155991726Y-146834748D01*
X155844590Y-146988717D01*
X155838109Y-146996722D01*
X155733498Y-147150074D01*
X155678587Y-147195076D01*
X155608062Y-147203247D01*
X155544315Y-147171993D01*
X155523618Y-147147509D01*
X155493203Y-147100494D01*
X155440014Y-147018277D01*
X155429971Y-147007240D01*
X155401306Y-146975737D01*
X155370254Y-146911891D01*
X155368500Y-146890938D01*
X155368500Y-129509925D01*
X155388502Y-129441804D01*
X155405405Y-129420830D01*
X158730829Y-126095405D01*
X158793141Y-126061379D01*
X158819924Y-126058500D01*
X160200400Y-126058500D01*
X160203646Y-126058163D01*
X160203650Y-126058163D01*
X160299308Y-126048238D01*
X160299312Y-126048237D01*
X160306166Y-126047526D01*
X160312702Y-126045345D01*
X160312704Y-126045345D01*
X160466998Y-125993868D01*
X160473946Y-125991550D01*
X160624348Y-125898478D01*
X160749305Y-125773303D01*
X160842115Y-125622738D01*
X160897797Y-125454861D01*
X160908500Y-125350400D01*
X160908500Y-125347095D01*
X161992001Y-125347095D01*
X161992338Y-125353614D01*
X162002257Y-125449206D01*
X162005149Y-125462600D01*
X162056588Y-125616784D01*
X162062761Y-125629962D01*
X162148063Y-125767807D01*
X162157099Y-125779208D01*
X162271829Y-125893739D01*
X162283240Y-125902751D01*
X162421243Y-125987816D01*
X162434424Y-125993963D01*
X162588710Y-126045138D01*
X162602086Y-126048005D01*
X162696438Y-126057672D01*
X162702854Y-126058000D01*
X163977885Y-126058000D01*
X163993124Y-126053525D01*
X163994329Y-126052135D01*
X163996000Y-126044452D01*
X163996000Y-125022115D01*
X163991525Y-125006876D01*
X163990135Y-125005671D01*
X163982452Y-125004000D01*
X162010116Y-125004000D01*
X161994877Y-125008475D01*
X161993672Y-125009865D01*
X161992001Y-125017548D01*
X161992001Y-125347095D01*
X160908500Y-125347095D01*
X160908500Y-124477885D01*
X161992000Y-124477885D01*
X161996475Y-124493124D01*
X161997865Y-124494329D01*
X162005548Y-124496000D01*
X163977885Y-124496000D01*
X163993124Y-124491525D01*
X163994329Y-124490135D01*
X163996000Y-124482452D01*
X163996000Y-123460116D01*
X163991525Y-123444877D01*
X163990135Y-123443672D01*
X163982452Y-123442001D01*
X162702905Y-123442001D01*
X162696386Y-123442338D01*
X162600794Y-123452257D01*
X162587400Y-123455149D01*
X162433216Y-123506588D01*
X162420038Y-123512761D01*
X162282193Y-123598063D01*
X162270792Y-123607099D01*
X162156261Y-123721829D01*
X162147249Y-123733240D01*
X162062184Y-123871243D01*
X162056037Y-123884424D01*
X162004862Y-124038710D01*
X162001995Y-124052086D01*
X161992328Y-124146438D01*
X161992000Y-124152855D01*
X161992000Y-124477885D01*
X160908500Y-124477885D01*
X160908500Y-124149600D01*
X160908163Y-124146350D01*
X160898238Y-124050692D01*
X160898237Y-124050688D01*
X160897526Y-124043834D01*
X160841550Y-123876054D01*
X160748478Y-123725652D01*
X160623303Y-123600695D01*
X160617072Y-123596854D01*
X160478968Y-123511725D01*
X160478966Y-123511724D01*
X160472738Y-123507885D01*
X160392995Y-123481436D01*
X160311389Y-123454368D01*
X160311387Y-123454368D01*
X160304861Y-123452203D01*
X160298025Y-123451503D01*
X160298022Y-123451502D01*
X160254969Y-123447091D01*
X160200400Y-123441500D01*
X159784500Y-123441500D01*
X159716379Y-123421498D01*
X159669886Y-123367842D01*
X159658500Y-123315500D01*
X159658500Y-118719925D01*
X159678502Y-118651804D01*
X159695405Y-118630830D01*
X162325802Y-116000433D01*
X162388114Y-115966407D01*
X162459126Y-115971546D01*
G37*
%TD.AperFunction*%
%TA.AperFunction,Conductor*%
G36*
X133943973Y-145082815D02*
G01*
X133989061Y-145111735D01*
X134007979Y-145130620D01*
X134026697Y-145149305D01*
X134032927Y-145153145D01*
X134032928Y-145153146D01*
X134170090Y-145237694D01*
X134177262Y-145242115D01*
X134221036Y-145256634D01*
X134338611Y-145295632D01*
X134338613Y-145295632D01*
X134345139Y-145297797D01*
X134351978Y-145298498D01*
X134351979Y-145298498D01*
X134358304Y-145299146D01*
X134363127Y-145299640D01*
X134428854Y-145326481D01*
X134450242Y-145348274D01*
X134491523Y-145402072D01*
X134491526Y-145402075D01*
X134516013Y-145433987D01*
X134522568Y-145439017D01*
X134541379Y-145453452D01*
X134553770Y-145464319D01*
X134784595Y-145695144D01*
X134818621Y-145757456D01*
X134821500Y-145784239D01*
X134821500Y-146708678D01*
X134801498Y-146776799D01*
X134753683Y-146820439D01*
X134703607Y-146846507D01*
X134699474Y-146849610D01*
X134699471Y-146849612D01*
X134529100Y-146977530D01*
X134524965Y-146980635D01*
X134509897Y-146996403D01*
X134413729Y-147097037D01*
X134370629Y-147142138D01*
X134263201Y-147299621D01*
X134208293Y-147344621D01*
X134137768Y-147352792D01*
X134074021Y-147321538D01*
X134053324Y-147297054D01*
X133972822Y-147172617D01*
X133972820Y-147172614D01*
X133970014Y-147168277D01*
X133819670Y-147003051D01*
X133815619Y-146999852D01*
X133815615Y-146999848D01*
X133648414Y-146867800D01*
X133648410Y-146867798D01*
X133644359Y-146864598D01*
X133563607Y-146820021D01*
X133513636Y-146769588D01*
X133498500Y-146709712D01*
X133498500Y-145374193D01*
X133518502Y-145306072D01*
X133572158Y-145259579D01*
X133584623Y-145254670D01*
X133616993Y-145243870D01*
X133616995Y-145243869D01*
X133623946Y-145241550D01*
X133774348Y-145148478D01*
X133779521Y-145143296D01*
X133779526Y-145143292D01*
X133810871Y-145111892D01*
X133873153Y-145077812D01*
X133943973Y-145082815D01*
G37*
%TD.AperFunction*%
%TA.AperFunction,Conductor*%
G36*
X150633621Y-143878022D02*
G01*
X150680114Y-143931678D01*
X150691500Y-143984020D01*
X150691500Y-144712900D01*
X150691837Y-144716146D01*
X150691837Y-144716150D01*
X150701042Y-144804861D01*
X150702474Y-144818666D01*
X150704655Y-144825202D01*
X150704655Y-144825204D01*
X150720917Y-144873946D01*
X150758450Y-144986446D01*
X150851522Y-145136848D01*
X150976697Y-145261805D01*
X150982927Y-145265645D01*
X150982928Y-145265646D01*
X151126616Y-145354217D01*
X151174109Y-145406990D01*
X151186500Y-145461477D01*
X151186500Y-146571692D01*
X151166498Y-146639813D01*
X151118683Y-146683453D01*
X151093607Y-146696507D01*
X151089474Y-146699610D01*
X151089471Y-146699612D01*
X150919100Y-146827530D01*
X150914965Y-146830635D01*
X150911393Y-146834373D01*
X150771622Y-146980635D01*
X150760629Y-146992138D01*
X150653201Y-147149621D01*
X150598293Y-147194621D01*
X150527768Y-147202792D01*
X150464021Y-147171538D01*
X150443324Y-147147054D01*
X150362822Y-147022617D01*
X150362820Y-147022614D01*
X150360014Y-147018277D01*
X150209670Y-146853051D01*
X150205619Y-146849852D01*
X150205615Y-146849848D01*
X150038414Y-146717800D01*
X150038410Y-146717798D01*
X150034359Y-146714598D01*
X150029831Y-146712098D01*
X149964531Y-146676051D01*
X149838789Y-146606638D01*
X149833920Y-146604914D01*
X149833916Y-146604912D01*
X149633087Y-146533795D01*
X149633083Y-146533794D01*
X149628212Y-146532069D01*
X149623119Y-146531162D01*
X149623116Y-146531161D01*
X149413373Y-146493800D01*
X149413367Y-146493799D01*
X149408284Y-146492894D01*
X149334452Y-146491992D01*
X149190081Y-146490228D01*
X149190079Y-146490228D01*
X149184911Y-146490165D01*
X148964091Y-146523955D01*
X148751756Y-146593357D01*
X148678757Y-146631358D01*
X148577975Y-146683822D01*
X148553607Y-146696507D01*
X148549474Y-146699610D01*
X148549471Y-146699612D01*
X148379100Y-146827530D01*
X148374965Y-146830635D01*
X148371393Y-146834373D01*
X148231622Y-146980635D01*
X148220629Y-146992138D01*
X148113201Y-147149621D01*
X148058293Y-147194621D01*
X147987768Y-147202792D01*
X147924021Y-147171538D01*
X147903324Y-147147054D01*
X147822822Y-147022617D01*
X147822820Y-147022614D01*
X147820014Y-147018277D01*
X147669670Y-146853051D01*
X147665619Y-146849852D01*
X147665615Y-146849848D01*
X147498414Y-146717800D01*
X147498410Y-146717798D01*
X147494359Y-146714598D01*
X147489831Y-146712098D01*
X147424531Y-146676051D01*
X147298789Y-146606638D01*
X147293920Y-146604914D01*
X147293916Y-146604912D01*
X147093087Y-146533795D01*
X147093083Y-146533794D01*
X147088212Y-146532069D01*
X147083119Y-146531162D01*
X147083116Y-146531161D01*
X146873373Y-146493800D01*
X146873367Y-146493799D01*
X146868284Y-146492894D01*
X146794452Y-146491992D01*
X146650081Y-146490228D01*
X146650079Y-146490228D01*
X146644911Y-146490165D01*
X146424091Y-146523955D01*
X146211756Y-146593357D01*
X146138757Y-146631358D01*
X146037975Y-146683822D01*
X146013607Y-146696507D01*
X146009474Y-146699610D01*
X146009471Y-146699612D01*
X145839100Y-146827530D01*
X145834965Y-146830635D01*
X145765530Y-146903295D01*
X145754283Y-146915064D01*
X145692759Y-146950494D01*
X145621846Y-146947037D01*
X145564060Y-146905791D01*
X145545207Y-146872243D01*
X145503767Y-146761703D01*
X145500615Y-146753295D01*
X145413261Y-146636739D01*
X145296705Y-146549385D01*
X145160316Y-146498255D01*
X145098134Y-146491500D01*
X144959500Y-146491500D01*
X144891379Y-146471498D01*
X144844886Y-146417842D01*
X144833500Y-146365500D01*
X144833500Y-145479197D01*
X144853502Y-145411076D01*
X144907158Y-145364583D01*
X144919623Y-145359674D01*
X144967002Y-145343867D01*
X144967004Y-145343866D01*
X144973946Y-145341550D01*
X145124348Y-145248478D01*
X145249305Y-145123303D01*
X145277346Y-145077812D01*
X145338275Y-144978968D01*
X145338276Y-144978966D01*
X145342115Y-144972738D01*
X145393651Y-144817361D01*
X145395632Y-144811389D01*
X145395632Y-144811387D01*
X145397797Y-144804861D01*
X145398876Y-144794337D01*
X145405311Y-144731524D01*
X145408500Y-144700400D01*
X145408500Y-143984020D01*
X145428502Y-143915899D01*
X145482158Y-143869406D01*
X145534500Y-143858020D01*
X150565500Y-143858020D01*
X150633621Y-143878022D01*
G37*
%TD.AperFunction*%
%TA.AperFunction,Conductor*%
G36*
X145853527Y-139053502D02*
G01*
X145874501Y-139070405D01*
X148352798Y-141548703D01*
X148386824Y-141611015D01*
X148383536Y-141676734D01*
X148356458Y-141760072D01*
X148355768Y-141766633D01*
X148355768Y-141766635D01*
X148339662Y-141919877D01*
X148336496Y-141950000D01*
X148337186Y-141956565D01*
X148353333Y-142110191D01*
X148356458Y-142139928D01*
X148415473Y-142321556D01*
X148418776Y-142327278D01*
X148418777Y-142327279D01*
X148461929Y-142402020D01*
X148478667Y-142471015D01*
X148455447Y-142538107D01*
X148399640Y-142581994D01*
X148352810Y-142591020D01*
X145534500Y-142591020D01*
X145466379Y-142571018D01*
X145419886Y-142517362D01*
X145408500Y-142465020D01*
X145408500Y-141899600D01*
X145407133Y-141886427D01*
X145398238Y-141800692D01*
X145398237Y-141800688D01*
X145397526Y-141793834D01*
X145394790Y-141785631D01*
X145343868Y-141633002D01*
X145341550Y-141626054D01*
X145248478Y-141475652D01*
X145123303Y-141350695D01*
X145102285Y-141337739D01*
X144978968Y-141261725D01*
X144978966Y-141261724D01*
X144972738Y-141257885D01*
X144869730Y-141223719D01*
X144811389Y-141204368D01*
X144811387Y-141204368D01*
X144804861Y-141202203D01*
X144798025Y-141201503D01*
X144798022Y-141201502D01*
X144751113Y-141196696D01*
X144700400Y-141191500D01*
X144039594Y-141191500D01*
X143971473Y-141171498D01*
X143950499Y-141154595D01*
X142044500Y-139248595D01*
X142010474Y-139186283D01*
X142015539Y-139115467D01*
X142058086Y-139058632D01*
X142124606Y-139033821D01*
X142133595Y-139033500D01*
X145785406Y-139033500D01*
X145853527Y-139053502D01*
G37*
%TD.AperFunction*%
%TA.AperFunction,Conductor*%
G36*
X148084121Y-106978991D02*
G01*
X148130614Y-107032647D01*
X148142000Y-107084989D01*
X148142000Y-108127885D01*
X148146475Y-108143124D01*
X148147865Y-108144329D01*
X148155548Y-108146000D01*
X150939884Y-108146000D01*
X150955123Y-108141525D01*
X150956328Y-108140135D01*
X150957999Y-108132452D01*
X150957999Y-107084989D01*
X150978001Y-107016868D01*
X151031657Y-106970375D01*
X151083999Y-106958989D01*
X162978820Y-106958989D01*
X163046941Y-106978991D01*
X163093434Y-107032647D01*
X163104175Y-107097722D01*
X163097342Y-107164993D01*
X163097218Y-107166210D01*
X163097089Y-107167414D01*
X163096393Y-107173625D01*
X163092074Y-107212135D01*
X163091500Y-107217249D01*
X163091500Y-107220776D01*
X163091445Y-107221761D01*
X163090998Y-107227441D01*
X163086626Y-107270484D01*
X163089071Y-107296348D01*
X163090941Y-107316131D01*
X163091500Y-107327989D01*
X163091500Y-109465500D01*
X163071498Y-109533621D01*
X163017842Y-109580114D01*
X162965500Y-109591500D01*
X162601866Y-109591500D01*
X162539684Y-109598255D01*
X162403295Y-109649385D01*
X162286739Y-109736739D01*
X162199385Y-109853295D01*
X162148255Y-109989684D01*
X162141500Y-110051866D01*
X162141500Y-113280075D01*
X162121498Y-113348196D01*
X162104595Y-113369170D01*
X157980621Y-117493145D01*
X157970478Y-117502247D01*
X157940975Y-117525968D01*
X157937008Y-117530696D01*
X157908709Y-117564421D01*
X157905528Y-117568069D01*
X157903885Y-117569881D01*
X157901691Y-117572075D01*
X157874358Y-117605349D01*
X157873696Y-117606147D01*
X157813846Y-117677474D01*
X157811278Y-117682144D01*
X157807897Y-117686261D01*
X157778640Y-117740825D01*
X157764023Y-117768086D01*
X157763394Y-117769245D01*
X157721538Y-117845381D01*
X157721535Y-117845389D01*
X157718567Y-117850787D01*
X157716955Y-117855869D01*
X157714438Y-117860563D01*
X157687238Y-117949531D01*
X157686918Y-117950559D01*
X157658765Y-118039306D01*
X157658171Y-118044602D01*
X157656613Y-118049698D01*
X157647283Y-118141550D01*
X157647218Y-118142187D01*
X157647089Y-118143393D01*
X157641500Y-118193227D01*
X157641500Y-118196754D01*
X157641445Y-118197739D01*
X157640998Y-118203419D01*
X157636626Y-118246462D01*
X157637206Y-118252593D01*
X157640941Y-118292109D01*
X157641500Y-118303967D01*
X157641500Y-123315500D01*
X157621498Y-123383621D01*
X157567842Y-123430114D01*
X157515500Y-123441500D01*
X157099600Y-123441500D01*
X157096354Y-123441837D01*
X157096350Y-123441837D01*
X157000692Y-123451762D01*
X157000688Y-123451763D01*
X156993834Y-123452474D01*
X156987298Y-123454655D01*
X156987296Y-123454655D01*
X156970928Y-123460116D01*
X156826054Y-123508450D01*
X156675652Y-123601522D01*
X156550695Y-123726697D01*
X156457885Y-123877262D01*
X156402203Y-124045139D01*
X156391500Y-124149600D01*
X156391500Y-125350400D01*
X156391837Y-125353646D01*
X156391837Y-125353650D01*
X156401752Y-125449206D01*
X156402474Y-125456166D01*
X156404655Y-125462703D01*
X156404657Y-125462713D01*
X156406623Y-125468606D01*
X156409205Y-125539556D01*
X156376193Y-125597572D01*
X153690621Y-128283145D01*
X153680478Y-128292247D01*
X153650975Y-128315968D01*
X153647008Y-128320696D01*
X153618709Y-128354421D01*
X153615528Y-128358069D01*
X153613885Y-128359881D01*
X153611691Y-128362075D01*
X153584358Y-128395349D01*
X153583696Y-128396147D01*
X153523846Y-128467474D01*
X153521278Y-128472144D01*
X153517897Y-128476261D01*
X153486860Y-128534145D01*
X153474023Y-128558086D01*
X153473394Y-128559245D01*
X153431538Y-128635381D01*
X153431535Y-128635389D01*
X153428567Y-128640787D01*
X153426955Y-128645869D01*
X153424438Y-128650563D01*
X153397238Y-128739531D01*
X153396918Y-128740559D01*
X153368765Y-128829306D01*
X153368171Y-128834602D01*
X153366613Y-128839698D01*
X153365990Y-128845834D01*
X153357218Y-128932187D01*
X153357089Y-128933393D01*
X153351500Y-128983227D01*
X153351500Y-128986754D01*
X153351445Y-128987739D01*
X153350998Y-128993419D01*
X153346626Y-129036462D01*
X153347206Y-129042593D01*
X153350941Y-129082109D01*
X153351500Y-129093967D01*
X153351500Y-141818841D01*
X153331498Y-141886962D01*
X153277842Y-141933455D01*
X153207568Y-141943559D01*
X153142988Y-141914065D01*
X153104604Y-141854339D01*
X153100173Y-141831845D01*
X153098238Y-141813192D01*
X153098237Y-141813188D01*
X153097526Y-141806334D01*
X153095280Y-141799600D01*
X153043868Y-141645502D01*
X153041550Y-141638554D01*
X152948478Y-141488152D01*
X152823303Y-141363195D01*
X152811413Y-141355866D01*
X152678968Y-141274225D01*
X152678966Y-141274224D01*
X152672738Y-141270385D01*
X152512254Y-141217155D01*
X152511389Y-141216868D01*
X152511387Y-141216868D01*
X152504861Y-141214703D01*
X152498025Y-141214003D01*
X152498022Y-141214002D01*
X152454969Y-141209591D01*
X152400400Y-141204000D01*
X151399600Y-141204000D01*
X151396354Y-141204337D01*
X151396350Y-141204337D01*
X151300692Y-141214262D01*
X151300688Y-141214263D01*
X151293834Y-141214974D01*
X151287298Y-141217155D01*
X151287296Y-141217155D01*
X151172120Y-141255581D01*
X151126054Y-141270950D01*
X150975652Y-141364022D01*
X150850695Y-141489197D01*
X150757885Y-141639762D01*
X150755581Y-141646709D01*
X150707315Y-141792228D01*
X150702203Y-141807639D01*
X150701503Y-141814475D01*
X150701502Y-141814478D01*
X150699066Y-141838253D01*
X150691500Y-141912100D01*
X150691500Y-142465020D01*
X150671498Y-142533141D01*
X150617842Y-142579634D01*
X150565500Y-142591020D01*
X150147190Y-142591020D01*
X150079069Y-142571018D01*
X150032576Y-142517362D01*
X150022472Y-142447088D01*
X150038071Y-142402020D01*
X150081223Y-142327279D01*
X150081224Y-142327278D01*
X150084527Y-142321556D01*
X150143542Y-142139928D01*
X150146668Y-142110191D01*
X150162814Y-141956565D01*
X150163504Y-141950000D01*
X150160338Y-141919877D01*
X150144232Y-141766635D01*
X150144232Y-141766633D01*
X150143542Y-141760072D01*
X150084527Y-141578444D01*
X149989040Y-141413056D01*
X149941420Y-141360168D01*
X149865675Y-141276045D01*
X149865674Y-141276044D01*
X149861253Y-141271134D01*
X149812139Y-141235451D01*
X149784261Y-141207573D01*
X149783565Y-141206615D01*
X149777050Y-141196696D01*
X149758580Y-141165466D01*
X149754542Y-141158638D01*
X149740221Y-141144317D01*
X149727380Y-141129283D01*
X149720131Y-141119306D01*
X149715472Y-141112893D01*
X149681395Y-141084702D01*
X149672616Y-141076712D01*
X146864473Y-138268568D01*
X146830447Y-138206256D01*
X146835512Y-138135440D01*
X146844449Y-138116473D01*
X146881223Y-138052779D01*
X146881224Y-138052778D01*
X146884527Y-138047056D01*
X146943542Y-137865428D01*
X146963504Y-137675500D01*
X146943542Y-137485572D01*
X146884527Y-137303944D01*
X146789040Y-137138556D01*
X146668871Y-137005094D01*
X146665675Y-137001545D01*
X146665674Y-137001544D01*
X146661253Y-136996634D01*
X146506752Y-136884382D01*
X146500724Y-136881698D01*
X146500722Y-136881697D01*
X146338319Y-136809391D01*
X146338318Y-136809391D01*
X146332288Y-136806706D01*
X146238888Y-136786853D01*
X146151944Y-136768372D01*
X146151939Y-136768372D01*
X146145487Y-136767000D01*
X145954513Y-136767000D01*
X145948061Y-136768372D01*
X145948056Y-136768372D01*
X145861112Y-136786853D01*
X145767712Y-136806706D01*
X145761682Y-136809391D01*
X145761681Y-136809391D01*
X145599278Y-136881697D01*
X145599276Y-136881698D01*
X145593248Y-136884382D01*
X145587907Y-136888262D01*
X145587906Y-136888263D01*
X145520007Y-136937595D01*
X145438747Y-136996634D01*
X145434332Y-137001537D01*
X145429420Y-137005960D01*
X145428295Y-137004711D01*
X145374986Y-137037551D01*
X145341800Y-137042000D01*
X125440095Y-137042000D01*
X125371974Y-137021998D01*
X125350998Y-137005094D01*
X125320403Y-136974498D01*
X125286379Y-136912185D01*
X125283500Y-136885404D01*
X125283500Y-122402524D01*
X125303502Y-122334403D01*
X125315858Y-122318221D01*
X125389040Y-122236944D01*
X125484527Y-122071556D01*
X125543542Y-121889928D01*
X125563504Y-121700000D01*
X125543542Y-121510072D01*
X125523515Y-121448436D01*
X125521487Y-121377469D01*
X125558150Y-121316671D01*
X125621862Y-121285345D01*
X125643348Y-121283500D01*
X134371233Y-121283500D01*
X134382416Y-121284027D01*
X134389909Y-121285702D01*
X134397835Y-121285453D01*
X134397836Y-121285453D01*
X134457986Y-121283562D01*
X134461945Y-121283500D01*
X134489856Y-121283500D01*
X134493791Y-121283003D01*
X134493856Y-121282995D01*
X134505693Y-121282062D01*
X134537951Y-121281048D01*
X134541970Y-121280922D01*
X134549889Y-121280673D01*
X134569343Y-121275021D01*
X134588700Y-121271013D01*
X134600930Y-121269468D01*
X134600931Y-121269468D01*
X134608797Y-121268474D01*
X134616168Y-121265555D01*
X134616170Y-121265555D01*
X134649912Y-121252196D01*
X134661142Y-121248351D01*
X134695983Y-121238229D01*
X134695984Y-121238229D01*
X134703593Y-121236018D01*
X134710412Y-121231985D01*
X134710417Y-121231983D01*
X134721028Y-121225707D01*
X134738776Y-121217012D01*
X134757617Y-121209552D01*
X134793387Y-121183564D01*
X134803307Y-121177048D01*
X134834535Y-121158580D01*
X134834538Y-121158578D01*
X134841362Y-121154542D01*
X134855683Y-121140221D01*
X134870717Y-121127380D01*
X134880694Y-121120131D01*
X134887107Y-121115472D01*
X134915298Y-121081395D01*
X134923288Y-121072616D01*
X136050499Y-119945405D01*
X136112811Y-119911379D01*
X136139594Y-119908500D01*
X136195487Y-119908500D01*
X136201939Y-119907128D01*
X136201944Y-119907128D01*
X136288887Y-119888647D01*
X136382288Y-119868794D01*
X136388319Y-119866109D01*
X136550722Y-119793803D01*
X136550724Y-119793802D01*
X136556752Y-119791118D01*
X136711253Y-119678866D01*
X136720322Y-119668794D01*
X136834621Y-119541852D01*
X136834622Y-119541851D01*
X136839040Y-119536944D01*
X136934527Y-119371556D01*
X136993542Y-119189928D01*
X136994872Y-119177279D01*
X137012814Y-119006565D01*
X137013504Y-119000000D01*
X136996882Y-118841852D01*
X136994232Y-118816635D01*
X136994232Y-118816633D01*
X136993542Y-118810072D01*
X136934527Y-118628444D01*
X136839040Y-118463056D01*
X136711253Y-118321134D01*
X136712816Y-118319727D01*
X136680758Y-118267689D01*
X136682110Y-118196705D01*
X136721625Y-118137721D01*
X136786756Y-118109464D01*
X136802308Y-118108500D01*
X137837015Y-118108500D01*
X137903132Y-118127241D01*
X137921030Y-118138274D01*
X137921033Y-118138276D01*
X137927262Y-118142115D01*
X137985444Y-118161413D01*
X138088611Y-118195632D01*
X138088613Y-118195632D01*
X138095139Y-118197797D01*
X138101975Y-118198497D01*
X138101978Y-118198498D01*
X138145031Y-118202909D01*
X138199600Y-118208500D01*
X139200400Y-118208500D01*
X139203646Y-118208163D01*
X139203650Y-118208163D01*
X139299308Y-118198238D01*
X139299312Y-118198237D01*
X139306166Y-118197526D01*
X139312702Y-118195345D01*
X139312704Y-118195345D01*
X139444806Y-118151272D01*
X139473946Y-118141550D01*
X139496883Y-118127356D01*
X139563186Y-118108500D01*
X141988157Y-118108500D01*
X142001764Y-118109237D01*
X142033262Y-118112659D01*
X142033267Y-118112659D01*
X142039388Y-118113324D01*
X142065638Y-118111027D01*
X142089388Y-118108950D01*
X142094214Y-118108621D01*
X142096686Y-118108500D01*
X142099769Y-118108500D01*
X142111738Y-118107326D01*
X142142506Y-118104310D01*
X142143819Y-118104188D01*
X142188084Y-118100315D01*
X142236413Y-118096087D01*
X142241532Y-118094600D01*
X142246833Y-118094080D01*
X142335834Y-118067209D01*
X142336967Y-118066874D01*
X142420414Y-118042630D01*
X142420418Y-118042628D01*
X142426336Y-118040909D01*
X142431068Y-118038456D01*
X142436169Y-118036916D01*
X142465167Y-118021498D01*
X142518260Y-117993269D01*
X142519426Y-117992657D01*
X142596453Y-117952729D01*
X142601926Y-117949892D01*
X142606089Y-117946569D01*
X142610796Y-117944066D01*
X142682918Y-117885245D01*
X142683774Y-117884554D01*
X142722973Y-117853262D01*
X142725477Y-117850758D01*
X142726195Y-117850116D01*
X142730528Y-117846415D01*
X142764062Y-117819065D01*
X142793288Y-117783737D01*
X142801277Y-117774958D01*
X144568895Y-116007340D01*
X144579038Y-115998238D01*
X144603729Y-115978386D01*
X144608536Y-115974521D01*
X144640826Y-115936039D01*
X144643978Y-115932427D01*
X144645634Y-115930601D01*
X144647821Y-115928414D01*
X144651161Y-115924348D01*
X144675087Y-115895221D01*
X144675929Y-115894206D01*
X144697380Y-115868642D01*
X144735665Y-115823015D01*
X144738234Y-115818342D01*
X144741614Y-115814227D01*
X144773967Y-115753891D01*
X144785539Y-115732309D01*
X144786168Y-115731151D01*
X144827976Y-115655101D01*
X144827976Y-115655100D01*
X144830944Y-115649702D01*
X144832555Y-115644624D01*
X144835074Y-115639926D01*
X144862264Y-115550991D01*
X144862647Y-115549761D01*
X144878306Y-115500400D01*
X144890746Y-115461183D01*
X144891339Y-115455892D01*
X144892899Y-115450791D01*
X144902306Y-115358178D01*
X144902426Y-115357058D01*
X144908011Y-115307262D01*
X144908011Y-115303733D01*
X144908066Y-115302750D01*
X144908515Y-115297045D01*
X144908601Y-115296206D01*
X144912885Y-115254026D01*
X144908570Y-115208377D01*
X144908087Y-115198134D01*
X148141500Y-115198134D01*
X148148255Y-115260316D01*
X148199385Y-115396705D01*
X148286739Y-115513261D01*
X148403295Y-115600615D01*
X148539684Y-115651745D01*
X148601866Y-115658500D01*
X150498134Y-115658500D01*
X150560316Y-115651745D01*
X150696705Y-115600615D01*
X150813261Y-115513261D01*
X150900615Y-115396705D01*
X150951745Y-115260316D01*
X150958500Y-115198134D01*
X150958500Y-113934500D01*
X150978502Y-113866379D01*
X151032158Y-113819886D01*
X151084500Y-113808500D01*
X152315500Y-113808500D01*
X152383621Y-113828502D01*
X152430114Y-113882158D01*
X152441500Y-113934500D01*
X152441500Y-115548134D01*
X152448255Y-115610316D01*
X152499385Y-115746705D01*
X152586739Y-115863261D01*
X152703295Y-115950615D01*
X152839684Y-116001745D01*
X152901866Y-116008500D01*
X155898134Y-116008500D01*
X155960316Y-116001745D01*
X156096705Y-115950615D01*
X156213261Y-115863261D01*
X156300615Y-115746705D01*
X156351745Y-115610316D01*
X156358500Y-115548134D01*
X156358500Y-110051866D01*
X156351745Y-109989684D01*
X156300615Y-109853295D01*
X156213261Y-109736739D01*
X156096705Y-109649385D01*
X155960316Y-109598255D01*
X155898134Y-109591500D01*
X153184500Y-109591500D01*
X153116379Y-109571498D01*
X153069886Y-109517842D01*
X153058500Y-109465500D01*
X153058500Y-109383244D01*
X153064006Y-109346405D01*
X153091585Y-109256200D01*
X153091585Y-109256198D01*
X153093388Y-109250302D01*
X153112044Y-109066635D01*
X153112752Y-109059665D01*
X153112752Y-109059661D01*
X153113374Y-109053537D01*
X153097850Y-108889306D01*
X153095342Y-108862770D01*
X153095341Y-108862766D01*
X153094762Y-108856638D01*
X153081749Y-108812984D01*
X153040020Y-108673007D01*
X153040019Y-108673005D01*
X153038260Y-108667104D01*
X152946018Y-108492153D01*
X152922219Y-108462763D01*
X152825432Y-108343242D01*
X152825431Y-108343241D01*
X152821553Y-108338452D01*
X152780917Y-108304595D01*
X152674335Y-108215794D01*
X152674330Y-108215791D01*
X152669604Y-108211853D01*
X152648063Y-108200108D01*
X152501365Y-108120125D01*
X152501366Y-108120125D01*
X152495960Y-108117178D01*
X152307232Y-108058035D01*
X152301109Y-108057370D01*
X152301105Y-108057369D01*
X152116737Y-108037340D01*
X152116733Y-108037340D01*
X152110612Y-108036675D01*
X151913587Y-108053913D01*
X151723664Y-108109091D01*
X151548074Y-108200108D01*
X151543255Y-108203955D01*
X151435609Y-108289888D01*
X151427028Y-108296738D01*
X151380621Y-108343145D01*
X151370478Y-108352247D01*
X151350423Y-108368372D01*
X151340975Y-108375968D01*
X151337008Y-108380696D01*
X151308709Y-108414421D01*
X151305528Y-108418069D01*
X151303885Y-108419881D01*
X151301691Y-108422075D01*
X151274358Y-108455349D01*
X151273696Y-108456147D01*
X151213846Y-108527474D01*
X151211278Y-108532144D01*
X151207897Y-108536261D01*
X151186565Y-108576045D01*
X151164023Y-108618086D01*
X151163393Y-108619247D01*
X151156770Y-108631294D01*
X151106425Y-108681352D01*
X151037008Y-108696245D01*
X150970559Y-108671244D01*
X150963844Y-108665817D01*
X150952135Y-108655671D01*
X150944452Y-108654000D01*
X149822115Y-108654000D01*
X149806876Y-108658475D01*
X149805671Y-108659865D01*
X149804000Y-108667548D01*
X149804000Y-110639884D01*
X149808475Y-110655123D01*
X149809865Y-110656328D01*
X149817548Y-110657999D01*
X150494669Y-110657999D01*
X150501490Y-110657629D01*
X150552352Y-110652105D01*
X150567604Y-110648479D01*
X150688054Y-110603324D01*
X150703649Y-110594786D01*
X150805724Y-110518285D01*
X150818284Y-110505725D01*
X150821416Y-110501546D01*
X150878275Y-110459030D01*
X150949094Y-110454004D01*
X151011387Y-110488064D01*
X151045378Y-110550395D01*
X151047764Y-110566128D01*
X151053913Y-110636413D01*
X151055400Y-110641532D01*
X151055920Y-110646833D01*
X151082791Y-110735834D01*
X151083126Y-110736967D01*
X151109091Y-110826336D01*
X151111544Y-110831068D01*
X151113084Y-110836169D01*
X151115978Y-110841612D01*
X151156731Y-110918260D01*
X151157343Y-110919426D01*
X151200108Y-111001926D01*
X151203431Y-111006089D01*
X151205934Y-111010796D01*
X151264755Y-111082918D01*
X151265446Y-111083774D01*
X151296738Y-111122973D01*
X151299242Y-111125477D01*
X151299884Y-111126195D01*
X151303585Y-111130528D01*
X151330935Y-111164062D01*
X151335682Y-111167989D01*
X151335684Y-111167991D01*
X151366262Y-111193287D01*
X151375042Y-111201277D01*
X151750170Y-111576405D01*
X151784196Y-111638717D01*
X151779131Y-111709532D01*
X151736584Y-111766368D01*
X151670064Y-111791179D01*
X151661075Y-111791500D01*
X151084500Y-111791500D01*
X151016379Y-111771498D01*
X150969886Y-111717842D01*
X150958500Y-111665500D01*
X150958500Y-111601866D01*
X150951745Y-111539684D01*
X150900615Y-111403295D01*
X150813261Y-111286739D01*
X150696705Y-111199385D01*
X150560316Y-111148255D01*
X150498134Y-111141500D01*
X148601866Y-111141500D01*
X148539684Y-111148255D01*
X148403295Y-111199385D01*
X148286739Y-111286739D01*
X148199385Y-111403295D01*
X148148255Y-111539684D01*
X148141500Y-111601866D01*
X148141500Y-115198134D01*
X144908087Y-115198134D01*
X144908011Y-115196520D01*
X144908011Y-110194669D01*
X148142001Y-110194669D01*
X148142371Y-110201490D01*
X148147895Y-110252352D01*
X148151521Y-110267604D01*
X148196676Y-110388054D01*
X148205214Y-110403649D01*
X148281715Y-110505724D01*
X148294276Y-110518285D01*
X148396351Y-110594786D01*
X148411946Y-110603324D01*
X148532394Y-110648478D01*
X148547649Y-110652105D01*
X148598514Y-110657631D01*
X148605328Y-110658000D01*
X149277885Y-110658000D01*
X149293124Y-110653525D01*
X149294329Y-110652135D01*
X149296000Y-110644452D01*
X149296000Y-108672115D01*
X149291525Y-108656876D01*
X149290135Y-108655671D01*
X149282452Y-108654000D01*
X148160116Y-108654000D01*
X148144877Y-108658475D01*
X148143672Y-108659865D01*
X148142001Y-108667548D01*
X148142001Y-110194669D01*
X144908011Y-110194669D01*
X144908011Y-107084989D01*
X144928013Y-107016868D01*
X144981669Y-106970375D01*
X145034011Y-106958989D01*
X148016000Y-106958989D01*
X148084121Y-106978991D01*
G37*
%TD.AperFunction*%
%TA.AperFunction,Conductor*%
G36*
X140803527Y-139803502D02*
G01*
X140824501Y-139820405D01*
X142954595Y-141950500D01*
X142988621Y-142012812D01*
X142991500Y-142039595D01*
X142991500Y-142465020D01*
X142971498Y-142533141D01*
X142917842Y-142579634D01*
X142865500Y-142591020D01*
X142787481Y-142591020D01*
X142719360Y-142571018D01*
X142701228Y-142556870D01*
X142682540Y-142539321D01*
X142676761Y-142533894D01*
X142669815Y-142530075D01*
X142669812Y-142530073D01*
X142659006Y-142524132D01*
X142642487Y-142513281D01*
X142634095Y-142506772D01*
X142626481Y-142500866D01*
X142619212Y-142497721D01*
X142619208Y-142497718D01*
X142585903Y-142483306D01*
X142575253Y-142478089D01*
X142536500Y-142456785D01*
X142516877Y-142451747D01*
X142498174Y-142445343D01*
X142486860Y-142440447D01*
X142486859Y-142440447D01*
X142479585Y-142437299D01*
X142471762Y-142436060D01*
X142471752Y-142436057D01*
X142435916Y-142430381D01*
X142424296Y-142427975D01*
X142389151Y-142418952D01*
X142389150Y-142418952D01*
X142381470Y-142416980D01*
X142361216Y-142416980D01*
X142341505Y-142415429D01*
X142329326Y-142413500D01*
X142321497Y-142412260D01*
X142292226Y-142415027D01*
X142277479Y-142416421D01*
X142265621Y-142416980D01*
X136541740Y-142416980D01*
X136530557Y-142416453D01*
X136523064Y-142414778D01*
X136515138Y-142415027D01*
X136515137Y-142415027D01*
X136454987Y-142416918D01*
X136451028Y-142416980D01*
X136423117Y-142416980D01*
X136419183Y-142417477D01*
X136419182Y-142417477D01*
X136419117Y-142417485D01*
X136407280Y-142418418D01*
X136375022Y-142419432D01*
X136371003Y-142419558D01*
X136363084Y-142419807D01*
X136343630Y-142425459D01*
X136324273Y-142429467D01*
X136304175Y-142432006D01*
X136303875Y-142429628D01*
X136244880Y-142427606D01*
X136186504Y-142387198D01*
X136159241Y-142321645D01*
X136158500Y-142307997D01*
X136158500Y-141799600D01*
X136157735Y-141792228D01*
X136148238Y-141700692D01*
X136148237Y-141700688D01*
X136147526Y-141693834D01*
X136130681Y-141643342D01*
X136093868Y-141533002D01*
X136091550Y-141526054D01*
X135998478Y-141375652D01*
X135978658Y-141355866D01*
X135878483Y-141255866D01*
X135873303Y-141250695D01*
X135867072Y-141246854D01*
X135728968Y-141161725D01*
X135728966Y-141161724D01*
X135722738Y-141157885D01*
X135669832Y-141140337D01*
X135611473Y-141099906D01*
X135584236Y-141034342D01*
X135583500Y-141020744D01*
X135583500Y-141010144D01*
X135582995Y-141006144D01*
X135582062Y-140994301D01*
X135580922Y-140958029D01*
X135580673Y-140950110D01*
X135575022Y-140930658D01*
X135571014Y-140911306D01*
X135569467Y-140899063D01*
X135568474Y-140891203D01*
X135565556Y-140883832D01*
X135552200Y-140850097D01*
X135548355Y-140838870D01*
X135547721Y-140836687D01*
X135536018Y-140796407D01*
X135525707Y-140778972D01*
X135517012Y-140761224D01*
X135509552Y-140742383D01*
X135483564Y-140706613D01*
X135477048Y-140696693D01*
X135458580Y-140665465D01*
X135458578Y-140665462D01*
X135454542Y-140658638D01*
X135440221Y-140644317D01*
X135427380Y-140629283D01*
X135420132Y-140619307D01*
X135415472Y-140612893D01*
X135381407Y-140584712D01*
X135372626Y-140576722D01*
X134853647Y-140057742D01*
X134846113Y-140049463D01*
X134842000Y-140042982D01*
X134836222Y-140037556D01*
X134836216Y-140037549D01*
X134797667Y-140001350D01*
X134761701Y-139940138D01*
X134764538Y-139869198D01*
X134805278Y-139811054D01*
X134870986Y-139784165D01*
X134883919Y-139783500D01*
X140735406Y-139783500D01*
X140803527Y-139803502D01*
G37*
%TD.AperFunction*%
%TA.AperFunction,Conductor*%
G36*
X166910032Y-127013192D02*
G01*
X166966868Y-127055739D01*
X166991679Y-127122259D01*
X166992000Y-127131248D01*
X166992000Y-141591000D01*
X166971998Y-141659121D01*
X166918342Y-141705614D01*
X166866000Y-141717000D01*
X161284500Y-141717000D01*
X161216379Y-141696998D01*
X161169886Y-141643342D01*
X161158500Y-141591000D01*
X161158500Y-132712749D01*
X161178502Y-132644628D01*
X161195405Y-132623654D01*
X166776905Y-127042153D01*
X166839217Y-127008127D01*
X166910032Y-127013192D01*
G37*
%TD.AperFunction*%
%TA.AperFunction,Conductor*%
G36*
X126083641Y-116020002D02*
G01*
X126130134Y-116073658D01*
X126141520Y-116126000D01*
X126141520Y-117938780D01*
X126121518Y-118006901D01*
X126066769Y-118053887D01*
X125949278Y-118106197D01*
X125949276Y-118106198D01*
X125943248Y-118108882D01*
X125937907Y-118112762D01*
X125937906Y-118112763D01*
X125897507Y-118142115D01*
X125788747Y-118221134D01*
X125784326Y-118226044D01*
X125784325Y-118226045D01*
X125699974Y-118319727D01*
X125660960Y-118363056D01*
X125657661Y-118368769D01*
X125657658Y-118368774D01*
X125614222Y-118444008D01*
X125562839Y-118493001D01*
X125493126Y-118506437D01*
X125427215Y-118480050D01*
X125416008Y-118470103D01*
X123161000Y-116215095D01*
X123126974Y-116152783D01*
X123132039Y-116081968D01*
X123174586Y-116025132D01*
X123241106Y-116000321D01*
X123250095Y-116000000D01*
X126015520Y-116000000D01*
X126083641Y-116020002D01*
G37*
%TD.AperFunction*%
%TA.AperFunction,Conductor*%
G36*
X130133621Y-114016002D02*
G01*
X130180114Y-114069658D01*
X130191500Y-114122000D01*
X130191500Y-117564884D01*
X130195975Y-117580123D01*
X130197365Y-117581328D01*
X130205048Y-117582999D01*
X130322095Y-117582999D01*
X130328614Y-117582662D01*
X130424206Y-117572743D01*
X130437600Y-117569851D01*
X130591784Y-117518412D01*
X130604958Y-117512241D01*
X130648530Y-117485277D01*
X130716982Y-117466439D01*
X130784752Y-117487600D01*
X130830323Y-117542040D01*
X130840355Y-117581445D01*
X130841050Y-117589393D01*
X130841379Y-117594214D01*
X130841500Y-117596686D01*
X130841500Y-117599769D01*
X130841801Y-117602837D01*
X130845690Y-117642506D01*
X130845812Y-117643819D01*
X130853913Y-117736413D01*
X130855400Y-117741532D01*
X130855920Y-117746833D01*
X130882790Y-117835832D01*
X130883125Y-117836964D01*
X130885675Y-117845740D01*
X130885475Y-117916736D01*
X130853774Y-117969992D01*
X130819171Y-118004595D01*
X130756859Y-118038621D01*
X130730076Y-118041500D01*
X128997000Y-118041500D01*
X128928879Y-118021498D01*
X128882386Y-117967842D01*
X128871000Y-117915500D01*
X128871000Y-117472163D01*
X128891002Y-117404042D01*
X128944658Y-117357549D01*
X129014932Y-117347445D01*
X129079512Y-117376939D01*
X129086018Y-117382990D01*
X129121829Y-117418739D01*
X129133240Y-117427751D01*
X129271243Y-117512816D01*
X129284424Y-117518963D01*
X129438710Y-117570138D01*
X129452086Y-117573005D01*
X129546438Y-117582672D01*
X129552854Y-117583000D01*
X129665385Y-117583000D01*
X129680624Y-117578525D01*
X129681829Y-117577135D01*
X129683500Y-117569452D01*
X129683500Y-114122000D01*
X129703502Y-114053879D01*
X129757158Y-114007386D01*
X129809500Y-113996000D01*
X130065500Y-113996000D01*
X130133621Y-114016002D01*
G37*
%TD.AperFunction*%
%TA.AperFunction,Conductor*%
G36*
X155417018Y-71125185D02*
G01*
X155443276Y-71173100D01*
X155454039Y-71210142D01*
X155458602Y-71225847D01*
X155461055Y-71230579D01*
X155462595Y-71235680D01*
X155465489Y-71241123D01*
X155506242Y-71317771D01*
X155506854Y-71318937D01*
X155535187Y-71373595D01*
X155549619Y-71401437D01*
X155552942Y-71405600D01*
X155555445Y-71410307D01*
X155614266Y-71482429D01*
X155614957Y-71483285D01*
X155646249Y-71522484D01*
X155648753Y-71524988D01*
X155649395Y-71525706D01*
X155653096Y-71530039D01*
X155680446Y-71563573D01*
X155685193Y-71567500D01*
X155685195Y-71567502D01*
X155715773Y-71592798D01*
X155724553Y-71600788D01*
X157610474Y-73486708D01*
X158768068Y-74644302D01*
X158802094Y-74706614D01*
X158797029Y-74777429D01*
X158774199Y-74815908D01*
X158768171Y-74822864D01*
X158766500Y-74830548D01*
X158766500Y-77264884D01*
X158770975Y-77280123D01*
X158772365Y-77281328D01*
X158780048Y-77282999D01*
X158897095Y-77282999D01*
X158903614Y-77282662D01*
X158999206Y-77272743D01*
X159012600Y-77269851D01*
X159166784Y-77218412D01*
X159179962Y-77212239D01*
X159317807Y-77126937D01*
X159329208Y-77117901D01*
X159443738Y-77003172D01*
X159450794Y-76994238D01*
X159508712Y-76953177D01*
X159579635Y-76949947D01*
X159641046Y-76985574D01*
X159647846Y-76993407D01*
X159651522Y-76999348D01*
X159776697Y-77124305D01*
X159782927Y-77128145D01*
X159782928Y-77128146D01*
X159920288Y-77212816D01*
X159927262Y-77217115D01*
X159940504Y-77221507D01*
X160088611Y-77270632D01*
X160088613Y-77270632D01*
X160095139Y-77272797D01*
X160101975Y-77273497D01*
X160101978Y-77273498D01*
X160145031Y-77277909D01*
X160199600Y-77283500D01*
X160859786Y-77283500D01*
X160927907Y-77303502D01*
X160974400Y-77357158D01*
X160984504Y-77427432D01*
X160970987Y-77466482D01*
X160971461Y-77466693D01*
X160969004Y-77472213D01*
X160968903Y-77472503D01*
X160965473Y-77478444D01*
X160906458Y-77660072D01*
X160905768Y-77666633D01*
X160905768Y-77666635D01*
X160893980Y-77778791D01*
X160886496Y-77850000D01*
X160887186Y-77856565D01*
X160905282Y-78028735D01*
X160906458Y-78039928D01*
X160965473Y-78221556D01*
X161060960Y-78386944D01*
X161065378Y-78391851D01*
X161065379Y-78391852D01*
X161126081Y-78459268D01*
X161188747Y-78528866D01*
X161243585Y-78568708D01*
X161299042Y-78609000D01*
X161343248Y-78641118D01*
X161349276Y-78643802D01*
X161349278Y-78643803D01*
X161490245Y-78706565D01*
X161517712Y-78718794D01*
X161524167Y-78720166D01*
X161524170Y-78720167D01*
X161574196Y-78730800D01*
X161636670Y-78764528D01*
X161670992Y-78826677D01*
X161674000Y-78854047D01*
X161674000Y-79134799D01*
X161653998Y-79202920D01*
X161645434Y-79214690D01*
X161562260Y-79316127D01*
X161562256Y-79316133D01*
X161558876Y-79320255D01*
X161528309Y-79373955D01*
X161522347Y-79384428D01*
X161471265Y-79433734D01*
X161401635Y-79447596D01*
X161335564Y-79421613D01*
X161308325Y-79392463D01*
X161207650Y-79242925D01*
X161200981Y-79234630D01*
X161049272Y-79075600D01*
X161041314Y-79068559D01*
X160864975Y-78937359D01*
X160855938Y-78931755D01*
X160660016Y-78832143D01*
X160650165Y-78828143D01*
X160440260Y-78762966D01*
X160429876Y-78760683D01*
X160414457Y-78758639D01*
X160400293Y-78760835D01*
X160396500Y-78774021D01*
X160396500Y-82208692D01*
X160400473Y-82222223D01*
X160411080Y-82223748D01*
X160528921Y-82199023D01*
X160539117Y-82195963D01*
X160743529Y-82115237D01*
X160753061Y-82110506D01*
X160940962Y-81996484D01*
X160949552Y-81990220D01*
X161115552Y-81846173D01*
X161122972Y-81838542D01*
X161262326Y-81668589D01*
X161268350Y-81659822D01*
X161302065Y-81600594D01*
X161353147Y-81551288D01*
X161422777Y-81537426D01*
X161488848Y-81563409D01*
X161516087Y-81592559D01*
X161619941Y-81746819D01*
X161623620Y-81750676D01*
X161623622Y-81750678D01*
X161664979Y-81794031D01*
X161779076Y-81913635D01*
X161964042Y-82051254D01*
X161968793Y-82053670D01*
X161968797Y-82053672D01*
X161994402Y-82066690D01*
X162169551Y-82155740D01*
X162174645Y-82157322D01*
X162174648Y-82157323D01*
X162340083Y-82208692D01*
X162389727Y-82224107D01*
X162395016Y-82224808D01*
X162612989Y-82253698D01*
X162612994Y-82253698D01*
X162618274Y-82254398D01*
X162623603Y-82254198D01*
X162623605Y-82254198D01*
X162733466Y-82250073D01*
X162848658Y-82245749D01*
X162914873Y-82231856D01*
X162985649Y-82237444D01*
X163029841Y-82266076D01*
X165704595Y-84940829D01*
X165738621Y-85003141D01*
X165741500Y-85029924D01*
X165741500Y-86416000D01*
X165721498Y-86484121D01*
X165667842Y-86530614D01*
X165615500Y-86542000D01*
X164372115Y-86542000D01*
X164356876Y-86546475D01*
X164355671Y-86547865D01*
X164354000Y-86555548D01*
X164354000Y-89139884D01*
X164358475Y-89155123D01*
X164359865Y-89156328D01*
X164367548Y-89157999D01*
X165615500Y-89157999D01*
X165683621Y-89178001D01*
X165730114Y-89231657D01*
X165741500Y-89283999D01*
X165741500Y-90911076D01*
X165721498Y-90979197D01*
X165667842Y-91025690D01*
X165597568Y-91035794D01*
X165532988Y-91006300D01*
X165526405Y-91000171D01*
X164306855Y-89780621D01*
X164297753Y-89770478D01*
X164277897Y-89745782D01*
X164274032Y-89740975D01*
X164235578Y-89708708D01*
X164231931Y-89705528D01*
X164230119Y-89703885D01*
X164227925Y-89701691D01*
X164194651Y-89674358D01*
X164193853Y-89673696D01*
X164122526Y-89613846D01*
X164117856Y-89611278D01*
X164113739Y-89607897D01*
X164031914Y-89564023D01*
X164030755Y-89563394D01*
X163954619Y-89521538D01*
X163954611Y-89521535D01*
X163949213Y-89518567D01*
X163944131Y-89516955D01*
X163939437Y-89514438D01*
X163850469Y-89487238D01*
X163849441Y-89486918D01*
X163760694Y-89458765D01*
X163755398Y-89458171D01*
X163750302Y-89456613D01*
X163657743Y-89447210D01*
X163656607Y-89447089D01*
X163622992Y-89443319D01*
X163610270Y-89441892D01*
X163610266Y-89441892D01*
X163606773Y-89441500D01*
X163603246Y-89441500D01*
X163602261Y-89441445D01*
X163596581Y-89440998D01*
X163567175Y-89438011D01*
X163559663Y-89437248D01*
X163559661Y-89437248D01*
X163553538Y-89436626D01*
X163511259Y-89440623D01*
X163507891Y-89440941D01*
X163496033Y-89441500D01*
X158638924Y-89441500D01*
X158570803Y-89421498D01*
X158524310Y-89367842D01*
X158514206Y-89297568D01*
X158543700Y-89232988D01*
X158549829Y-89226405D01*
X158580829Y-89195405D01*
X158643141Y-89161379D01*
X158669924Y-89158500D01*
X160050400Y-89158500D01*
X160053646Y-89158163D01*
X160053650Y-89158163D01*
X160149308Y-89148238D01*
X160149312Y-89148237D01*
X160156166Y-89147526D01*
X160162702Y-89145345D01*
X160162704Y-89145345D01*
X160316998Y-89093868D01*
X160323946Y-89091550D01*
X160474348Y-88998478D01*
X160599305Y-88873303D01*
X160634846Y-88815645D01*
X160688275Y-88728968D01*
X160688276Y-88728966D01*
X160692115Y-88722738D01*
X160719705Y-88639556D01*
X160745632Y-88561389D01*
X160745632Y-88561387D01*
X160747797Y-88554861D01*
X160758500Y-88450400D01*
X160758500Y-88447095D01*
X161842001Y-88447095D01*
X161842338Y-88453614D01*
X161852257Y-88549206D01*
X161855149Y-88562600D01*
X161906588Y-88716784D01*
X161912761Y-88729962D01*
X161998063Y-88867807D01*
X162007099Y-88879208D01*
X162121829Y-88993739D01*
X162133240Y-89002751D01*
X162271243Y-89087816D01*
X162284424Y-89093963D01*
X162438710Y-89145138D01*
X162452086Y-89148005D01*
X162546438Y-89157672D01*
X162552854Y-89158000D01*
X163827885Y-89158000D01*
X163843124Y-89153525D01*
X163844329Y-89152135D01*
X163846000Y-89144452D01*
X163846000Y-88122115D01*
X163841525Y-88106876D01*
X163840135Y-88105671D01*
X163832452Y-88104000D01*
X161860116Y-88104000D01*
X161844877Y-88108475D01*
X161843672Y-88109865D01*
X161842001Y-88117548D01*
X161842001Y-88447095D01*
X160758500Y-88447095D01*
X160758500Y-87577885D01*
X161842000Y-87577885D01*
X161846475Y-87593124D01*
X161847865Y-87594329D01*
X161855548Y-87596000D01*
X163827885Y-87596000D01*
X163843124Y-87591525D01*
X163844329Y-87590135D01*
X163846000Y-87582452D01*
X163846000Y-86560116D01*
X163841525Y-86544877D01*
X163840135Y-86543672D01*
X163832452Y-86542001D01*
X162552905Y-86542001D01*
X162546386Y-86542338D01*
X162450794Y-86552257D01*
X162437400Y-86555149D01*
X162283216Y-86606588D01*
X162270038Y-86612761D01*
X162132193Y-86698063D01*
X162120792Y-86707099D01*
X162006261Y-86821829D01*
X161997249Y-86833240D01*
X161912184Y-86971243D01*
X161906037Y-86984424D01*
X161854862Y-87138710D01*
X161851995Y-87152086D01*
X161842328Y-87246438D01*
X161842000Y-87252855D01*
X161842000Y-87577885D01*
X160758500Y-87577885D01*
X160758500Y-87249600D01*
X160758163Y-87246350D01*
X160748238Y-87150692D01*
X160748237Y-87150688D01*
X160747526Y-87143834D01*
X160715486Y-87047797D01*
X160693868Y-86983002D01*
X160691550Y-86976054D01*
X160598478Y-86825652D01*
X160547085Y-86774348D01*
X160478483Y-86705866D01*
X160473303Y-86700695D01*
X160467072Y-86696854D01*
X160328968Y-86611725D01*
X160328966Y-86611724D01*
X160322738Y-86607885D01*
X160208011Y-86569832D01*
X160161389Y-86554368D01*
X160161387Y-86554368D01*
X160154861Y-86552203D01*
X160148025Y-86551503D01*
X160148022Y-86551502D01*
X160104969Y-86547091D01*
X160050400Y-86541500D01*
X158737000Y-86541500D01*
X158668879Y-86521498D01*
X158622386Y-86467842D01*
X158611000Y-86415500D01*
X158611000Y-82313509D01*
X158631002Y-82245388D01*
X158684658Y-82198895D01*
X158690194Y-82196597D01*
X158690796Y-82196268D01*
X158699205Y-82193115D01*
X158815761Y-82105761D01*
X158903115Y-81989205D01*
X158915190Y-81956994D01*
X158947920Y-81869689D01*
X158990562Y-81812925D01*
X159057123Y-81788225D01*
X159126472Y-81803433D01*
X159157072Y-81826947D01*
X159235734Y-81909406D01*
X159243686Y-81916441D01*
X159420025Y-82047641D01*
X159429062Y-82053245D01*
X159624984Y-82152857D01*
X159634835Y-82156857D01*
X159844740Y-82222034D01*
X159855124Y-82224317D01*
X159870543Y-82226361D01*
X159884707Y-82224165D01*
X159888500Y-82210978D01*
X159888500Y-78776308D01*
X159884527Y-78762777D01*
X159873920Y-78761252D01*
X159756079Y-78785977D01*
X159745883Y-78789037D01*
X159541471Y-78869763D01*
X159531939Y-78874494D01*
X159344038Y-78988516D01*
X159335448Y-78994780D01*
X159169448Y-79138827D01*
X159162033Y-79146453D01*
X159161767Y-79146777D01*
X159161620Y-79146877D01*
X159158313Y-79150278D01*
X159157620Y-79149604D01*
X159103108Y-79186773D01*
X159032138Y-79188707D01*
X158971388Y-79151965D01*
X158946348Y-79111118D01*
X158906268Y-79004205D01*
X158906267Y-79004204D01*
X158903115Y-78995795D01*
X158815761Y-78879239D01*
X158699205Y-78791885D01*
X158562816Y-78740755D01*
X158500634Y-78734000D01*
X157322425Y-78734000D01*
X157254304Y-78713998D01*
X157233330Y-78697095D01*
X155670405Y-77134171D01*
X155636380Y-77071859D01*
X155633500Y-77045076D01*
X155633500Y-76649600D01*
X155628431Y-76600747D01*
X155625458Y-76572095D01*
X157417001Y-76572095D01*
X157417338Y-76578614D01*
X157427257Y-76674206D01*
X157430149Y-76687600D01*
X157481588Y-76841784D01*
X157487761Y-76854962D01*
X157573063Y-76992807D01*
X157582099Y-77004208D01*
X157696829Y-77118739D01*
X157708240Y-77127751D01*
X157846243Y-77212816D01*
X157859424Y-77218963D01*
X158013710Y-77270138D01*
X158027086Y-77273005D01*
X158121438Y-77282672D01*
X158127854Y-77283000D01*
X158240385Y-77283000D01*
X158255624Y-77278525D01*
X158256829Y-77277135D01*
X158258500Y-77269452D01*
X158258500Y-76322115D01*
X158254025Y-76306876D01*
X158252635Y-76305671D01*
X158244952Y-76304000D01*
X157435116Y-76304000D01*
X157419877Y-76308475D01*
X157418672Y-76309865D01*
X157417001Y-76317548D01*
X157417001Y-76572095D01*
X155625458Y-76572095D01*
X155623238Y-76550692D01*
X155623237Y-76550688D01*
X155622526Y-76543834D01*
X155609015Y-76503335D01*
X155568868Y-76383002D01*
X155566550Y-76376054D01*
X155473478Y-76225652D01*
X155348303Y-76100695D01*
X155343765Y-76097898D01*
X155303176Y-76040647D01*
X155299946Y-75969724D01*
X155335572Y-75908313D01*
X155344068Y-75900938D01*
X155354207Y-75892902D01*
X155468739Y-75778171D01*
X155468965Y-75777885D01*
X157417000Y-75777885D01*
X157421475Y-75793124D01*
X157422865Y-75794329D01*
X157430548Y-75796000D01*
X158240385Y-75796000D01*
X158255624Y-75791525D01*
X158256829Y-75790135D01*
X158258500Y-75782452D01*
X158258500Y-74835116D01*
X158254025Y-74819877D01*
X158252635Y-74818672D01*
X158244952Y-74817001D01*
X158127905Y-74817001D01*
X158121386Y-74817338D01*
X158025794Y-74827257D01*
X158012400Y-74830149D01*
X157858216Y-74881588D01*
X157845038Y-74887761D01*
X157707193Y-74973063D01*
X157695792Y-74982099D01*
X157581261Y-75096829D01*
X157572249Y-75108240D01*
X157487184Y-75246243D01*
X157481037Y-75259424D01*
X157429862Y-75413710D01*
X157426995Y-75427086D01*
X157417328Y-75521438D01*
X157417000Y-75527855D01*
X157417000Y-75777885D01*
X155468965Y-75777885D01*
X155477751Y-75766760D01*
X155562816Y-75628757D01*
X155568963Y-75615576D01*
X155620138Y-75461290D01*
X155623005Y-75447914D01*
X155632672Y-75353562D01*
X155633000Y-75347146D01*
X155633000Y-75234615D01*
X155628525Y-75219376D01*
X155627135Y-75218171D01*
X155619452Y-75216500D01*
X153185116Y-75216500D01*
X153169877Y-75220975D01*
X153168672Y-75222365D01*
X153167001Y-75230048D01*
X153167001Y-75347095D01*
X153167338Y-75353614D01*
X153177257Y-75449206D01*
X153180149Y-75462600D01*
X153231588Y-75616784D01*
X153237761Y-75629962D01*
X153323063Y-75767807D01*
X153332099Y-75779208D01*
X153366778Y-75813827D01*
X153400857Y-75876110D01*
X153395854Y-75946930D01*
X153353356Y-76003803D01*
X153286858Y-76028671D01*
X153277760Y-76029000D01*
X151857426Y-76029000D01*
X151789305Y-76008998D01*
X151768331Y-75992096D01*
X150945405Y-75169171D01*
X150911380Y-75106858D01*
X150908500Y-75080075D01*
X150908500Y-74751866D01*
X150901821Y-74690385D01*
X153167000Y-74690385D01*
X153171475Y-74705624D01*
X153172865Y-74706829D01*
X153180548Y-74708500D01*
X154127885Y-74708500D01*
X154143124Y-74704025D01*
X154144329Y-74702635D01*
X154146000Y-74694952D01*
X154146000Y-74690385D01*
X154654000Y-74690385D01*
X154658475Y-74705624D01*
X154659865Y-74706829D01*
X154667548Y-74708500D01*
X155614884Y-74708500D01*
X155630123Y-74704025D01*
X155631328Y-74702635D01*
X155632999Y-74694952D01*
X155632999Y-74577905D01*
X155632662Y-74571386D01*
X155622743Y-74475794D01*
X155619851Y-74462400D01*
X155568412Y-74308216D01*
X155562239Y-74295038D01*
X155476937Y-74157193D01*
X155467901Y-74145792D01*
X155353171Y-74031261D01*
X155341760Y-74022249D01*
X155203757Y-73937184D01*
X155190576Y-73931037D01*
X155036290Y-73879862D01*
X155022914Y-73876995D01*
X154928562Y-73867328D01*
X154922145Y-73867000D01*
X154672115Y-73867000D01*
X154656876Y-73871475D01*
X154655671Y-73872865D01*
X154654000Y-73880548D01*
X154654000Y-74690385D01*
X154146000Y-74690385D01*
X154146000Y-73885116D01*
X154141525Y-73869877D01*
X154140135Y-73868672D01*
X154132452Y-73867001D01*
X153877905Y-73867001D01*
X153871386Y-73867338D01*
X153775794Y-73877257D01*
X153762400Y-73880149D01*
X153608216Y-73931588D01*
X153595038Y-73937761D01*
X153457193Y-74023063D01*
X153445792Y-74032099D01*
X153331261Y-74146829D01*
X153322249Y-74158240D01*
X153237184Y-74296243D01*
X153231037Y-74309424D01*
X153179862Y-74463710D01*
X153176995Y-74477086D01*
X153167328Y-74571438D01*
X153167000Y-74577855D01*
X153167000Y-74690385D01*
X150901821Y-74690385D01*
X150901745Y-74689684D01*
X150850615Y-74553295D01*
X150763261Y-74436739D01*
X150646705Y-74349385D01*
X150510316Y-74298255D01*
X150448134Y-74291500D01*
X149451866Y-74291500D01*
X149389684Y-74298255D01*
X149253295Y-74349385D01*
X149136739Y-74436739D01*
X149049385Y-74553295D01*
X148998255Y-74689684D01*
X148991500Y-74751866D01*
X148991500Y-75266701D01*
X148985734Y-75304379D01*
X148958035Y-75392768D01*
X148957370Y-75398891D01*
X148957369Y-75398895D01*
X148954307Y-75427086D01*
X148936676Y-75589388D01*
X148953913Y-75786413D01*
X148961878Y-75813827D01*
X148986497Y-75898568D01*
X148991500Y-75933721D01*
X148991500Y-76048134D01*
X148998255Y-76110316D01*
X149049385Y-76246705D01*
X149136739Y-76363261D01*
X149253295Y-76450615D01*
X149261703Y-76453767D01*
X149382286Y-76498972D01*
X149382289Y-76498973D01*
X149389684Y-76501745D01*
X149397539Y-76502598D01*
X149400638Y-76503335D01*
X149460588Y-76536823D01*
X150630645Y-77706879D01*
X150639747Y-77717022D01*
X150663468Y-77746525D01*
X150668196Y-77750492D01*
X150701921Y-77778791D01*
X150705569Y-77781972D01*
X150707381Y-77783615D01*
X150709575Y-77785809D01*
X150742849Y-77813142D01*
X150743647Y-77813804D01*
X150814974Y-77873654D01*
X150819644Y-77876222D01*
X150823761Y-77879603D01*
X150880558Y-77910057D01*
X150905586Y-77923477D01*
X150906745Y-77924106D01*
X150982881Y-77965962D01*
X150982889Y-77965965D01*
X150988287Y-77968933D01*
X150993369Y-77970545D01*
X150998063Y-77973062D01*
X151087031Y-78000262D01*
X151088059Y-78000582D01*
X151176806Y-78028735D01*
X151182102Y-78029329D01*
X151187198Y-78030887D01*
X151229646Y-78035199D01*
X151295396Y-78061983D01*
X151336229Y-78120063D01*
X151339179Y-78190998D01*
X151326031Y-78223554D01*
X151287993Y-78289438D01*
X151265473Y-78328444D01*
X151206458Y-78510072D01*
X151205768Y-78516633D01*
X151205768Y-78516635D01*
X151196060Y-78609000D01*
X151186496Y-78700000D01*
X151187186Y-78706565D01*
X151205335Y-78879239D01*
X151206458Y-78889928D01*
X151220049Y-78931755D01*
X151244572Y-79007230D01*
X151246600Y-79078197D01*
X151213834Y-79135262D01*
X150828774Y-79520321D01*
X150452344Y-79896751D01*
X150390032Y-79930776D01*
X150341153Y-79931702D01*
X150128373Y-79893800D01*
X150128367Y-79893799D01*
X150123284Y-79892894D01*
X150049452Y-79891992D01*
X149905081Y-79890228D01*
X149905079Y-79890228D01*
X149899911Y-79890165D01*
X149679091Y-79923955D01*
X149466756Y-79993357D01*
X149268607Y-80096507D01*
X149264474Y-80099610D01*
X149264471Y-80099612D01*
X149111099Y-80214767D01*
X149089965Y-80230635D01*
X149086393Y-80234373D01*
X148978729Y-80347037D01*
X148935629Y-80392138D01*
X148828201Y-80549621D01*
X148773293Y-80594621D01*
X148702768Y-80602792D01*
X148639021Y-80571538D01*
X148618324Y-80547054D01*
X148537822Y-80422617D01*
X148537820Y-80422614D01*
X148535014Y-80418277D01*
X148384670Y-80253051D01*
X148380619Y-80249852D01*
X148380615Y-80249848D01*
X148213414Y-80117800D01*
X148213410Y-80117798D01*
X148209359Y-80114598D01*
X148013789Y-80006638D01*
X148008920Y-80004914D01*
X148008916Y-80004912D01*
X147808087Y-79933795D01*
X147808083Y-79933794D01*
X147803212Y-79932069D01*
X147798119Y-79931162D01*
X147798116Y-79931161D01*
X147588373Y-79893800D01*
X147588367Y-79893799D01*
X147583284Y-79892894D01*
X147509452Y-79891992D01*
X147365081Y-79890228D01*
X147365079Y-79890228D01*
X147359911Y-79890165D01*
X147139091Y-79923955D01*
X146926756Y-79993357D01*
X146728607Y-80096507D01*
X146724474Y-80099610D01*
X146724471Y-80099612D01*
X146571099Y-80214767D01*
X146549965Y-80230635D01*
X146546393Y-80234373D01*
X146438729Y-80347037D01*
X146395629Y-80392138D01*
X146288201Y-80549621D01*
X146233293Y-80594621D01*
X146162768Y-80602792D01*
X146099021Y-80571538D01*
X146078324Y-80547054D01*
X145997822Y-80422617D01*
X145997820Y-80422614D01*
X145995014Y-80418277D01*
X145844670Y-80253051D01*
X145840619Y-80249852D01*
X145840615Y-80249848D01*
X145673414Y-80117800D01*
X145673410Y-80117798D01*
X145669359Y-80114598D01*
X145473789Y-80006638D01*
X145468920Y-80004914D01*
X145468916Y-80004912D01*
X145268087Y-79933795D01*
X145268083Y-79933794D01*
X145263212Y-79932069D01*
X145258119Y-79931162D01*
X145258116Y-79931161D01*
X145048373Y-79893800D01*
X145048367Y-79893799D01*
X145043284Y-79892894D01*
X144969452Y-79891992D01*
X144825081Y-79890228D01*
X144825079Y-79890228D01*
X144819911Y-79890165D01*
X144599091Y-79923955D01*
X144386756Y-79993357D01*
X144188607Y-80096507D01*
X144184474Y-80099610D01*
X144184471Y-80099612D01*
X144031099Y-80214767D01*
X144009965Y-80230635D01*
X143953537Y-80289684D01*
X143929283Y-80315064D01*
X143867759Y-80350494D01*
X143796846Y-80347037D01*
X143739060Y-80305791D01*
X143720207Y-80272243D01*
X143678767Y-80161703D01*
X143675615Y-80153295D01*
X143588261Y-80036739D01*
X143471705Y-79949385D01*
X143335316Y-79898255D01*
X143273134Y-79891500D01*
X141476866Y-79891500D01*
X141414684Y-79898255D01*
X141278295Y-79949385D01*
X141161739Y-80036739D01*
X141074385Y-80153295D01*
X141023255Y-80289684D01*
X141016500Y-80351866D01*
X141016500Y-82148134D01*
X141023255Y-82210316D01*
X141074385Y-82346705D01*
X141161739Y-82463261D01*
X141278295Y-82550615D01*
X141414684Y-82601745D01*
X141476866Y-82608500D01*
X143273134Y-82608500D01*
X143335316Y-82601745D01*
X143471705Y-82550615D01*
X143588261Y-82463261D01*
X143675615Y-82346705D01*
X143696433Y-82291173D01*
X143719598Y-82229382D01*
X143762240Y-82172618D01*
X143828802Y-82147918D01*
X143898150Y-82163126D01*
X143932817Y-82191114D01*
X143961250Y-82223938D01*
X144133126Y-82366632D01*
X144326000Y-82479338D01*
X144330825Y-82481180D01*
X144330826Y-82481181D01*
X144377521Y-82499012D01*
X144534692Y-82559030D01*
X144539760Y-82560061D01*
X144539763Y-82560062D01*
X144634862Y-82579410D01*
X144753597Y-82603567D01*
X144758772Y-82603757D01*
X144758774Y-82603757D01*
X144971673Y-82611564D01*
X144971677Y-82611564D01*
X144976837Y-82611753D01*
X144981957Y-82611097D01*
X144981959Y-82611097D01*
X145193288Y-82584025D01*
X145193289Y-82584025D01*
X145198416Y-82583368D01*
X145203366Y-82581883D01*
X145407429Y-82520661D01*
X145407434Y-82520659D01*
X145412384Y-82519174D01*
X145612994Y-82420896D01*
X145794860Y-82291173D01*
X145817613Y-82268500D01*
X145923355Y-82163126D01*
X145953096Y-82133489D01*
X145973021Y-82105761D01*
X146083453Y-81952077D01*
X146084776Y-81953028D01*
X146131645Y-81909857D01*
X146201580Y-81897625D01*
X146267026Y-81925144D01*
X146294875Y-81956994D01*
X146354987Y-82055088D01*
X146501250Y-82223938D01*
X146673126Y-82366632D01*
X146866000Y-82479338D01*
X146870825Y-82481180D01*
X146870826Y-82481181D01*
X146917521Y-82499012D01*
X147074692Y-82559030D01*
X147079760Y-82560061D01*
X147079763Y-82560062D01*
X147174862Y-82579410D01*
X147293597Y-82603567D01*
X147298772Y-82603757D01*
X147298774Y-82603757D01*
X147511673Y-82611564D01*
X147511677Y-82611564D01*
X147516837Y-82611753D01*
X147521957Y-82611097D01*
X147521959Y-82611097D01*
X147733288Y-82584025D01*
X147733289Y-82584025D01*
X147738416Y-82583368D01*
X147743366Y-82581883D01*
X147947429Y-82520661D01*
X147947434Y-82520659D01*
X147952384Y-82519174D01*
X148152994Y-82420896D01*
X148334860Y-82291173D01*
X148357613Y-82268500D01*
X148463355Y-82163126D01*
X148493096Y-82133489D01*
X148513021Y-82105761D01*
X148623453Y-81952077D01*
X148624776Y-81953028D01*
X148671645Y-81909857D01*
X148741580Y-81897625D01*
X148807026Y-81925144D01*
X148834875Y-81956994D01*
X148894987Y-82055088D01*
X149041250Y-82223938D01*
X149213126Y-82366632D01*
X149406000Y-82479338D01*
X149410825Y-82481180D01*
X149410826Y-82481181D01*
X149457521Y-82499012D01*
X149614692Y-82559030D01*
X149619760Y-82560061D01*
X149619763Y-82560062D01*
X149714862Y-82579410D01*
X149833597Y-82603567D01*
X149838772Y-82603757D01*
X149838774Y-82603757D01*
X150051673Y-82611564D01*
X150051677Y-82611564D01*
X150056837Y-82611753D01*
X150061957Y-82611097D01*
X150061959Y-82611097D01*
X150273288Y-82584025D01*
X150273289Y-82584025D01*
X150278416Y-82583368D01*
X150283366Y-82581883D01*
X150487429Y-82520661D01*
X150487434Y-82520659D01*
X150492384Y-82519174D01*
X150692994Y-82420896D01*
X150874860Y-82291173D01*
X150897613Y-82268500D01*
X151003355Y-82163126D01*
X151033096Y-82133489D01*
X151053021Y-82105761D01*
X151163453Y-81952077D01*
X151164640Y-81952930D01*
X151211960Y-81909362D01*
X151281897Y-81897145D01*
X151347338Y-81924678D01*
X151375166Y-81956511D01*
X151432694Y-82050388D01*
X151438777Y-82058699D01*
X151578213Y-82219667D01*
X151585580Y-82226883D01*
X151749434Y-82362916D01*
X151757881Y-82368831D01*
X151941756Y-82476279D01*
X151951042Y-82480729D01*
X152150001Y-82556703D01*
X152159899Y-82559579D01*
X152263250Y-82580606D01*
X152277299Y-82579410D01*
X152281000Y-82569065D01*
X152281000Y-82568517D01*
X152789000Y-82568517D01*
X152793064Y-82582359D01*
X152806478Y-82584393D01*
X152813184Y-82583534D01*
X152823262Y-82581392D01*
X153027255Y-82520191D01*
X153036842Y-82516433D01*
X153228095Y-82422739D01*
X153236945Y-82417464D01*
X153410328Y-82293792D01*
X153418200Y-82287139D01*
X153569052Y-82136812D01*
X153575730Y-82128965D01*
X153700003Y-81956020D01*
X153705313Y-81947183D01*
X153799670Y-81756267D01*
X153803469Y-81746672D01*
X153865377Y-81542910D01*
X153867555Y-81532837D01*
X153868986Y-81521962D01*
X153866775Y-81507778D01*
X153853617Y-81504000D01*
X152807115Y-81504000D01*
X152791876Y-81508475D01*
X152790671Y-81509865D01*
X152789000Y-81517548D01*
X152789000Y-82568517D01*
X152281000Y-82568517D01*
X152281000Y-80977885D01*
X152789000Y-80977885D01*
X152793475Y-80993124D01*
X152794865Y-80994329D01*
X152802548Y-80996000D01*
X153853344Y-80996000D01*
X153866875Y-80992027D01*
X153868180Y-80982947D01*
X153826214Y-80815875D01*
X153822894Y-80806124D01*
X153737972Y-80610814D01*
X153733105Y-80601739D01*
X153617426Y-80422926D01*
X153611136Y-80414757D01*
X153467806Y-80257240D01*
X153460273Y-80250215D01*
X153293139Y-80118222D01*
X153284552Y-80112517D01*
X153098117Y-80009599D01*
X153088705Y-80005369D01*
X152887959Y-79934280D01*
X152877988Y-79931646D01*
X152806837Y-79918972D01*
X152793540Y-79920432D01*
X152789000Y-79934989D01*
X152789000Y-80977885D01*
X152281000Y-80977885D01*
X152281000Y-79914987D01*
X152285447Y-79914987D01*
X152285440Y-79877275D01*
X152317248Y-79823656D01*
X152492247Y-79648657D01*
X152500537Y-79641113D01*
X152507018Y-79637000D01*
X152553659Y-79587332D01*
X152556413Y-79584491D01*
X152576135Y-79564769D01*
X152578612Y-79561576D01*
X152586317Y-79552555D01*
X152611159Y-79526100D01*
X152616586Y-79520321D01*
X152623029Y-79508601D01*
X152626346Y-79502568D01*
X152637202Y-79486041D01*
X152644757Y-79476302D01*
X152644758Y-79476300D01*
X152649614Y-79470040D01*
X152665205Y-79434011D01*
X152701919Y-79388183D01*
X152701003Y-79387166D01*
X152705908Y-79382750D01*
X152711253Y-79378866D01*
X152738297Y-79348831D01*
X152834621Y-79241852D01*
X152834622Y-79241851D01*
X152839040Y-79236944D01*
X152934527Y-79071556D01*
X152993542Y-78889928D01*
X152994666Y-78879239D01*
X153012814Y-78706565D01*
X153013504Y-78700000D01*
X153003940Y-78609000D01*
X152994232Y-78516635D01*
X152994232Y-78516633D01*
X152993542Y-78510072D01*
X152934527Y-78328444D01*
X152885933Y-78244276D01*
X152880577Y-78235000D01*
X152863839Y-78166005D01*
X152887059Y-78098913D01*
X152942866Y-78055026D01*
X152989696Y-78046000D01*
X153532293Y-78046000D01*
X153588569Y-78061951D01*
X153589395Y-78060180D01*
X153596032Y-78063275D01*
X153602262Y-78067115D01*
X153677288Y-78092000D01*
X153763611Y-78120632D01*
X153763613Y-78120632D01*
X153770139Y-78122797D01*
X153776978Y-78123498D01*
X153779153Y-78123964D01*
X153841834Y-78158069D01*
X155026187Y-79342421D01*
X156207095Y-80523329D01*
X156241120Y-80585641D01*
X156244000Y-80612421D01*
X156244000Y-81790634D01*
X156250755Y-81852816D01*
X156301885Y-81989205D01*
X156389239Y-82105761D01*
X156505795Y-82193115D01*
X156514204Y-82196267D01*
X156522075Y-82200577D01*
X156521164Y-82202241D01*
X156568990Y-82238163D01*
X156593693Y-82304724D01*
X156594000Y-82313509D01*
X156594000Y-86589025D01*
X156573998Y-86657146D01*
X156537519Y-86693007D01*
X156537612Y-86693125D01*
X156536510Y-86693998D01*
X156534302Y-86696170D01*
X156525652Y-86701522D01*
X156400695Y-86826697D01*
X156396855Y-86832927D01*
X156396854Y-86832928D01*
X156355939Y-86899305D01*
X156307885Y-86977262D01*
X156304425Y-86987694D01*
X156281049Y-87058172D01*
X156252203Y-87145139D01*
X156241500Y-87249600D01*
X156241500Y-88450400D01*
X156241837Y-88453646D01*
X156241837Y-88453650D01*
X156251752Y-88549206D01*
X156252474Y-88556166D01*
X156254655Y-88562703D01*
X156254657Y-88562713D01*
X156256623Y-88568606D01*
X156259205Y-88639556D01*
X156226193Y-88697572D01*
X155227835Y-89695931D01*
X155218376Y-89704479D01*
X155185938Y-89730935D01*
X155182011Y-89735682D01*
X155182009Y-89735684D01*
X155156713Y-89766262D01*
X155148723Y-89775042D01*
X151155621Y-93768145D01*
X151145478Y-93777247D01*
X151115975Y-93800968D01*
X151112008Y-93805696D01*
X151083709Y-93839421D01*
X151080528Y-93843069D01*
X151078885Y-93844881D01*
X151076691Y-93847075D01*
X151049358Y-93880349D01*
X151048696Y-93881147D01*
X150988846Y-93952474D01*
X150986278Y-93957144D01*
X150982897Y-93961261D01*
X150951860Y-94019145D01*
X150939023Y-94043086D01*
X150938394Y-94044245D01*
X150896538Y-94120381D01*
X150896535Y-94120389D01*
X150893567Y-94125787D01*
X150891955Y-94130869D01*
X150889438Y-94135563D01*
X150862238Y-94224531D01*
X150861918Y-94225559D01*
X150833765Y-94314306D01*
X150833171Y-94319602D01*
X150831613Y-94324698D01*
X150830990Y-94330834D01*
X150829772Y-94336872D01*
X150827889Y-94336492D01*
X150804474Y-94393979D01*
X150746397Y-94434814D01*
X150705899Y-94441500D01*
X149476866Y-94441500D01*
X149414684Y-94448255D01*
X149278295Y-94499385D01*
X149161739Y-94586739D01*
X149074385Y-94703295D01*
X149023255Y-94839684D01*
X149016500Y-94901866D01*
X149016500Y-96065500D01*
X148996498Y-96133621D01*
X148942842Y-96180114D01*
X148890500Y-96191500D01*
X147711850Y-96191500D01*
X147698242Y-96190763D01*
X147697662Y-96190700D01*
X147660612Y-96186675D01*
X147610570Y-96191053D01*
X147605788Y-96191379D01*
X147603310Y-96191500D01*
X147600231Y-96191500D01*
X147597177Y-96191799D01*
X147597166Y-96191800D01*
X147557529Y-96195687D01*
X147556215Y-96195809D01*
X147520688Y-96198917D01*
X147463587Y-96203913D01*
X147458468Y-96205400D01*
X147453167Y-96205920D01*
X147364166Y-96232791D01*
X147363033Y-96233126D01*
X147279586Y-96257370D01*
X147279582Y-96257372D01*
X147273664Y-96259091D01*
X147268932Y-96261544D01*
X147263831Y-96263084D01*
X147258388Y-96265978D01*
X147181740Y-96306731D01*
X147180574Y-96307343D01*
X147103547Y-96347271D01*
X147098074Y-96350108D01*
X147093911Y-96353431D01*
X147089204Y-96355934D01*
X147084429Y-96359828D01*
X147084428Y-96359829D01*
X147017102Y-96414739D01*
X147016075Y-96415567D01*
X146979792Y-96444531D01*
X146979787Y-96444536D01*
X146977028Y-96446738D01*
X146974527Y-96449239D01*
X146973809Y-96449881D01*
X146969461Y-96453594D01*
X146935938Y-96480935D01*
X146932020Y-96485671D01*
X146932008Y-96485683D01*
X146913253Y-96508355D01*
X146854420Y-96548094D01*
X146828463Y-96553440D01*
X146803167Y-96555920D01*
X146613831Y-96613084D01*
X146439204Y-96705934D01*
X146352938Y-96776291D01*
X146290713Y-96827040D01*
X146290710Y-96827043D01*
X146285938Y-96830935D01*
X146282011Y-96835682D01*
X146282009Y-96835684D01*
X146163799Y-96978575D01*
X146163797Y-96978579D01*
X146159870Y-96983325D01*
X146065802Y-97157299D01*
X146007318Y-97346232D01*
X146006674Y-97352357D01*
X146006674Y-97352358D01*
X145990984Y-97501645D01*
X145986645Y-97542925D01*
X145987204Y-97549065D01*
X146000132Y-97691118D01*
X146004570Y-97739888D01*
X146006308Y-97745794D01*
X146006309Y-97745798D01*
X146020707Y-97794717D01*
X146060410Y-97929619D01*
X146063263Y-97935077D01*
X146063265Y-97935081D01*
X146095482Y-97996705D01*
X146152040Y-98104890D01*
X146275968Y-98259025D01*
X146427474Y-98386154D01*
X146432872Y-98389121D01*
X146432877Y-98389125D01*
X146576180Y-98467905D01*
X146600787Y-98481433D01*
X146606654Y-98483294D01*
X146606656Y-98483295D01*
X146759295Y-98531715D01*
X146789306Y-98541235D01*
X146943227Y-98558500D01*
X147238157Y-98558500D01*
X147251764Y-98559237D01*
X147283262Y-98562659D01*
X147283267Y-98562659D01*
X147289388Y-98563324D01*
X147315638Y-98561027D01*
X147339388Y-98558950D01*
X147344214Y-98558621D01*
X147346686Y-98558500D01*
X147349769Y-98558500D01*
X147361738Y-98557326D01*
X147392506Y-98554310D01*
X147393819Y-98554188D01*
X147438084Y-98550315D01*
X147486413Y-98546087D01*
X147491532Y-98544600D01*
X147496833Y-98544080D01*
X147585834Y-98517209D01*
X147586967Y-98516874D01*
X147670414Y-98492630D01*
X147670418Y-98492628D01*
X147676336Y-98490909D01*
X147681068Y-98488456D01*
X147686169Y-98486916D01*
X147702060Y-98478467D01*
X147768260Y-98443269D01*
X147769426Y-98442657D01*
X147846453Y-98402729D01*
X147851926Y-98399892D01*
X147856089Y-98396569D01*
X147860796Y-98394066D01*
X147932918Y-98335245D01*
X147933841Y-98334500D01*
X147972973Y-98303262D01*
X147975477Y-98300758D01*
X147976195Y-98300116D01*
X147980528Y-98296415D01*
X148014062Y-98269065D01*
X148026374Y-98254183D01*
X148085208Y-98214446D01*
X148123457Y-98208500D01*
X148891000Y-98208500D01*
X148959121Y-98228502D01*
X149005614Y-98282158D01*
X149017000Y-98334500D01*
X149017000Y-98627885D01*
X149021475Y-98643124D01*
X149022865Y-98644329D01*
X149030548Y-98646000D01*
X154614884Y-98646000D01*
X154630123Y-98641525D01*
X154631328Y-98640135D01*
X154632999Y-98632452D01*
X154632999Y-98627885D01*
X155767000Y-98627885D01*
X155771475Y-98643124D01*
X155772865Y-98644329D01*
X155780548Y-98646000D01*
X160702885Y-98646000D01*
X160718124Y-98641525D01*
X160719329Y-98640135D01*
X160721000Y-98632452D01*
X160721000Y-93010116D01*
X160716525Y-92994877D01*
X160715135Y-92993672D01*
X160707452Y-92992001D01*
X156230331Y-92992001D01*
X156223510Y-92992371D01*
X156172648Y-92997895D01*
X156157396Y-93001521D01*
X156036946Y-93046676D01*
X156021351Y-93055214D01*
X155919276Y-93131715D01*
X155906715Y-93144276D01*
X155830214Y-93246351D01*
X155821676Y-93261946D01*
X155776522Y-93382394D01*
X155772895Y-93397649D01*
X155767369Y-93448514D01*
X155767000Y-93455328D01*
X155767000Y-98627885D01*
X154632999Y-98627885D01*
X154632999Y-98305331D01*
X154632629Y-98298510D01*
X154627105Y-98247648D01*
X154623479Y-98232396D01*
X154578321Y-98111939D01*
X154577826Y-98111034D01*
X154577607Y-98110034D01*
X154575172Y-98103538D01*
X154576110Y-98103186D01*
X154562657Y-98041677D01*
X154575838Y-97996788D01*
X154575615Y-97996705D01*
X154576756Y-97993663D01*
X154576758Y-97993656D01*
X154600765Y-97929619D01*
X154609024Y-97907586D01*
X154626745Y-97860316D01*
X154633500Y-97798134D01*
X154633500Y-96601866D01*
X154626745Y-96539684D01*
X154603263Y-96477046D01*
X154578766Y-96411699D01*
X154578764Y-96411696D01*
X154575615Y-96403295D01*
X154576466Y-96402976D01*
X154562945Y-96341151D01*
X154575958Y-96296834D01*
X154575615Y-96296705D01*
X154577372Y-96292019D01*
X154577373Y-96292015D01*
X154588678Y-96261861D01*
X154623971Y-96167715D01*
X154626745Y-96160316D01*
X154633500Y-96098134D01*
X154633500Y-94901866D01*
X154626745Y-94839684D01*
X154575615Y-94703295D01*
X154488261Y-94586739D01*
X154371705Y-94499385D01*
X154235316Y-94448255D01*
X154173134Y-94441500D01*
X153638925Y-94441500D01*
X153570804Y-94421498D01*
X153524311Y-94367842D01*
X153514207Y-94297568D01*
X153543701Y-94232988D01*
X153549830Y-94226405D01*
X156280829Y-91495405D01*
X156343141Y-91461379D01*
X156369924Y-91458500D01*
X163080075Y-91458500D01*
X163148196Y-91478502D01*
X163169170Y-91495405D01*
X163890447Y-92216681D01*
X164450671Y-92776905D01*
X164484696Y-92839217D01*
X164479632Y-92910032D01*
X164437085Y-92966868D01*
X164370565Y-92991679D01*
X164361576Y-92992000D01*
X161247115Y-92992000D01*
X161231876Y-92996475D01*
X161230671Y-92997865D01*
X161229000Y-93005548D01*
X161229000Y-99028000D01*
X161208998Y-99096121D01*
X161155342Y-99142614D01*
X161103000Y-99154000D01*
X155785116Y-99154000D01*
X155769877Y-99158475D01*
X155768672Y-99159865D01*
X155767001Y-99167548D01*
X155767001Y-104344669D01*
X155767371Y-104351490D01*
X155772895Y-104402352D01*
X155776521Y-104417604D01*
X155821676Y-104538054D01*
X155830214Y-104553649D01*
X155906715Y-104655724D01*
X155919276Y-104668285D01*
X155981825Y-104715163D01*
X156024340Y-104772022D01*
X156029366Y-104842841D01*
X155995306Y-104905134D01*
X155932975Y-104939124D01*
X155906260Y-104941989D01*
X145034011Y-104941989D01*
X144965890Y-104921987D01*
X144919397Y-104868331D01*
X144908011Y-104815989D01*
X144908011Y-103020414D01*
X144928013Y-102952293D01*
X144944916Y-102931319D01*
X144981566Y-102894669D01*
X149017001Y-102894669D01*
X149017371Y-102901490D01*
X149022895Y-102952352D01*
X149026521Y-102967604D01*
X149071676Y-103088054D01*
X149080214Y-103103649D01*
X149156715Y-103205724D01*
X149169276Y-103218285D01*
X149271351Y-103294786D01*
X149286946Y-103303324D01*
X149407394Y-103348478D01*
X149422649Y-103352105D01*
X149473514Y-103357631D01*
X149480328Y-103358000D01*
X151552885Y-103358000D01*
X151568124Y-103353525D01*
X151569329Y-103352135D01*
X151571000Y-103344452D01*
X151571000Y-103339884D01*
X152079000Y-103339884D01*
X152083475Y-103355123D01*
X152084865Y-103356328D01*
X152092548Y-103357999D01*
X154169669Y-103357999D01*
X154176490Y-103357629D01*
X154227352Y-103352105D01*
X154242604Y-103348479D01*
X154363054Y-103303324D01*
X154378649Y-103294786D01*
X154480724Y-103218285D01*
X154493285Y-103205724D01*
X154569786Y-103103649D01*
X154578324Y-103088054D01*
X154623478Y-102967606D01*
X154627105Y-102952351D01*
X154632631Y-102901486D01*
X154633000Y-102894672D01*
X154633000Y-102572115D01*
X154628525Y-102556876D01*
X154627135Y-102555671D01*
X154619452Y-102554000D01*
X152097115Y-102554000D01*
X152081876Y-102558475D01*
X152080671Y-102559865D01*
X152079000Y-102567548D01*
X152079000Y-103339884D01*
X151571000Y-103339884D01*
X151571000Y-102572115D01*
X151566525Y-102556876D01*
X151565135Y-102555671D01*
X151557452Y-102554000D01*
X149035116Y-102554000D01*
X149019877Y-102558475D01*
X149018672Y-102559865D01*
X149017001Y-102567548D01*
X149017001Y-102894669D01*
X144981566Y-102894669D01*
X146230829Y-101645405D01*
X146293141Y-101611380D01*
X146319924Y-101608500D01*
X148891000Y-101608500D01*
X148959121Y-101628502D01*
X149005614Y-101682158D01*
X149017000Y-101734500D01*
X149017000Y-102027885D01*
X149021475Y-102043124D01*
X149022865Y-102044329D01*
X149030548Y-102046000D01*
X154614884Y-102046000D01*
X154630123Y-102041525D01*
X154631328Y-102040135D01*
X154632999Y-102032452D01*
X154632999Y-101705331D01*
X154632629Y-101698510D01*
X154627105Y-101647648D01*
X154623479Y-101632396D01*
X154578321Y-101511939D01*
X154577826Y-101511034D01*
X154577607Y-101510034D01*
X154575172Y-101503538D01*
X154576110Y-101503186D01*
X154562657Y-101441677D01*
X154575838Y-101396788D01*
X154575615Y-101396705D01*
X154576756Y-101393663D01*
X154576758Y-101393656D01*
X154626745Y-101260316D01*
X154633500Y-101198134D01*
X154633500Y-100001866D01*
X154626745Y-99939684D01*
X154593295Y-99850455D01*
X154578766Y-99811699D01*
X154578764Y-99811696D01*
X154575615Y-99803295D01*
X154576307Y-99803036D01*
X154562657Y-99740626D01*
X154575580Y-99696615D01*
X154575172Y-99696462D01*
X154577262Y-99690888D01*
X154577826Y-99688966D01*
X154578321Y-99688061D01*
X154623478Y-99567606D01*
X154627105Y-99552351D01*
X154632631Y-99501486D01*
X154633000Y-99494672D01*
X154633000Y-99172115D01*
X154628525Y-99156876D01*
X154627135Y-99155671D01*
X154619452Y-99154000D01*
X149035116Y-99154000D01*
X149019877Y-99158475D01*
X149018672Y-99159865D01*
X149017001Y-99167548D01*
X149017001Y-99465500D01*
X148996999Y-99533621D01*
X148943343Y-99580114D01*
X148891001Y-99591500D01*
X145911843Y-99591500D01*
X145898236Y-99590763D01*
X145866738Y-99587341D01*
X145866733Y-99587341D01*
X145860612Y-99586676D01*
X145834362Y-99588973D01*
X145810612Y-99591050D01*
X145805786Y-99591379D01*
X145803314Y-99591500D01*
X145800231Y-99591500D01*
X145788262Y-99592674D01*
X145757494Y-99595690D01*
X145756181Y-99595812D01*
X145715344Y-99599385D01*
X145663587Y-99603913D01*
X145658468Y-99605400D01*
X145653167Y-99605920D01*
X145564166Y-99632791D01*
X145563033Y-99633126D01*
X145479586Y-99657370D01*
X145479582Y-99657372D01*
X145473664Y-99659091D01*
X145468932Y-99661544D01*
X145463831Y-99663084D01*
X145458388Y-99665978D01*
X145381740Y-99706731D01*
X145380574Y-99707343D01*
X145316366Y-99740626D01*
X145298074Y-99750108D01*
X145293911Y-99753431D01*
X145289204Y-99755934D01*
X145217082Y-99814755D01*
X145216226Y-99815446D01*
X145177027Y-99846738D01*
X145174523Y-99849242D01*
X145173805Y-99849884D01*
X145169472Y-99853585D01*
X145135938Y-99880935D01*
X145132011Y-99885682D01*
X145132009Y-99885684D01*
X145106713Y-99916262D01*
X145098723Y-99925042D01*
X143230132Y-101793634D01*
X143219989Y-101802736D01*
X143190486Y-101826457D01*
X143186519Y-101831185D01*
X143158220Y-101864910D01*
X143155039Y-101868558D01*
X143153396Y-101870370D01*
X143151202Y-101872564D01*
X143123869Y-101905838D01*
X143123207Y-101906636D01*
X143063357Y-101977963D01*
X143060789Y-101982633D01*
X143057408Y-101986750D01*
X143028038Y-102041525D01*
X143013534Y-102068575D01*
X143012905Y-102069734D01*
X142971049Y-102145870D01*
X142971046Y-102145878D01*
X142968078Y-102151276D01*
X142966466Y-102156358D01*
X142963949Y-102161052D01*
X142936749Y-102250020D01*
X142936429Y-102251048D01*
X142908276Y-102339795D01*
X142907682Y-102345091D01*
X142906124Y-102350187D01*
X142905501Y-102356323D01*
X142896729Y-102442676D01*
X142896600Y-102443882D01*
X142891011Y-102493716D01*
X142891011Y-102497243D01*
X142890956Y-102498228D01*
X142890509Y-102503908D01*
X142886137Y-102546951D01*
X142887358Y-102559865D01*
X142890452Y-102592598D01*
X142891011Y-102604456D01*
X142891011Y-105890616D01*
X142890321Y-105903786D01*
X142886156Y-105943414D01*
X142886715Y-105949554D01*
X142890492Y-105991059D01*
X142891011Y-106002479D01*
X142891011Y-114780565D01*
X142871009Y-114848686D01*
X142854106Y-114869660D01*
X141669171Y-116054595D01*
X141606859Y-116088621D01*
X141580076Y-116091500D01*
X140868738Y-116091500D01*
X140800617Y-116071498D01*
X140754124Y-116017842D01*
X140744020Y-115947568D01*
X140773514Y-115882988D01*
X140794677Y-115863564D01*
X140836976Y-115832832D01*
X140911253Y-115778866D01*
X140940211Y-115746705D01*
X141034621Y-115641852D01*
X141034622Y-115641851D01*
X141039040Y-115636944D01*
X141134527Y-115471556D01*
X141193542Y-115289928D01*
X141195043Y-115275652D01*
X141212814Y-115106565D01*
X141213504Y-115100000D01*
X141208011Y-115047738D01*
X141194232Y-114916635D01*
X141194232Y-114916633D01*
X141193542Y-114910072D01*
X141134527Y-114728444D01*
X141039040Y-114563056D01*
X140982625Y-114500400D01*
X140915675Y-114426045D01*
X140915674Y-114426044D01*
X140911253Y-114421134D01*
X140756752Y-114308882D01*
X140750724Y-114306198D01*
X140750722Y-114306197D01*
X140588319Y-114233891D01*
X140588318Y-114233891D01*
X140582288Y-114231206D01*
X140488888Y-114211353D01*
X140401944Y-114192872D01*
X140401939Y-114192872D01*
X140395487Y-114191500D01*
X140204513Y-114191500D01*
X140198061Y-114192872D01*
X140198056Y-114192872D01*
X140111112Y-114211353D01*
X140017712Y-114231206D01*
X140011685Y-114233889D01*
X140011677Y-114233892D01*
X139879765Y-114292623D01*
X139809398Y-114302057D01*
X139745101Y-114271950D01*
X139739499Y-114266689D01*
X139728722Y-114255930D01*
X139623303Y-114150695D01*
X139591135Y-114130866D01*
X139478968Y-114061725D01*
X139478966Y-114061724D01*
X139472738Y-114057885D01*
X139346464Y-114016002D01*
X139311389Y-114004368D01*
X139311387Y-114004368D01*
X139304861Y-114002203D01*
X139298025Y-114001503D01*
X139298022Y-114001502D01*
X139254969Y-113997091D01*
X139200400Y-113991500D01*
X138539595Y-113991500D01*
X138471474Y-113971498D01*
X138450500Y-113954595D01*
X137420405Y-112924500D01*
X137386379Y-112862188D01*
X137383500Y-112835405D01*
X137383500Y-112068760D01*
X137403502Y-112000639D01*
X137457158Y-111954146D01*
X137527432Y-111944042D01*
X137553729Y-111950778D01*
X137689684Y-112001745D01*
X137751866Y-112008500D01*
X138748134Y-112008500D01*
X138810316Y-112001745D01*
X138883499Y-111974310D01*
X138938301Y-111953766D01*
X138938304Y-111953764D01*
X138946705Y-111950615D01*
X138946964Y-111951307D01*
X139009374Y-111937657D01*
X139053385Y-111950580D01*
X139053538Y-111950172D01*
X139059112Y-111952262D01*
X139061034Y-111952826D01*
X139061939Y-111953321D01*
X139182394Y-111998478D01*
X139197649Y-112002105D01*
X139248514Y-112007631D01*
X139255328Y-112008000D01*
X139477885Y-112008000D01*
X139493124Y-112003525D01*
X139494329Y-112002135D01*
X139496000Y-111994452D01*
X139496000Y-111989884D01*
X140004000Y-111989884D01*
X140008475Y-112005123D01*
X140009865Y-112006328D01*
X140017548Y-112007999D01*
X140244669Y-112007999D01*
X140251490Y-112007629D01*
X140302352Y-112002105D01*
X140317604Y-111998479D01*
X140438054Y-111953324D01*
X140453649Y-111944786D01*
X140555724Y-111868285D01*
X140568285Y-111855724D01*
X140644786Y-111753649D01*
X140653324Y-111738054D01*
X140698478Y-111617606D01*
X140702105Y-111602351D01*
X140707631Y-111551486D01*
X140708000Y-111544672D01*
X140708000Y-111022115D01*
X140703525Y-111006876D01*
X140702135Y-111005671D01*
X140694452Y-111004000D01*
X140022115Y-111004000D01*
X140006876Y-111008475D01*
X140005671Y-111009865D01*
X140004000Y-111017548D01*
X140004000Y-111989884D01*
X139496000Y-111989884D01*
X139496000Y-110622000D01*
X139516002Y-110553879D01*
X139569658Y-110507386D01*
X139622000Y-110496000D01*
X140689884Y-110496000D01*
X140705123Y-110491525D01*
X140706328Y-110490135D01*
X140707999Y-110482452D01*
X140707999Y-109955331D01*
X140707629Y-109948510D01*
X140702105Y-109897648D01*
X140698479Y-109882396D01*
X140653324Y-109761946D01*
X140644786Y-109746351D01*
X140568285Y-109644276D01*
X140555724Y-109631715D01*
X140453649Y-109555214D01*
X140438054Y-109546676D01*
X140317606Y-109501522D01*
X140302351Y-109497895D01*
X140251487Y-109492369D01*
X140250765Y-109492330D01*
X140250604Y-109492273D01*
X140248089Y-109492000D01*
X140248153Y-109491407D01*
X140183826Y-109468672D01*
X140140303Y-109412581D01*
X140134015Y-109341863D01*
X140168485Y-109277419D01*
X140942247Y-108503657D01*
X140950537Y-108496113D01*
X140957018Y-108492000D01*
X140968645Y-108479619D01*
X141003658Y-108442333D01*
X141006413Y-108439491D01*
X141026134Y-108419770D01*
X141028612Y-108416575D01*
X141036318Y-108407553D01*
X141058538Y-108383891D01*
X141066586Y-108375321D01*
X141076346Y-108357568D01*
X141087199Y-108341045D01*
X141094753Y-108331306D01*
X141099613Y-108325041D01*
X141117176Y-108284457D01*
X141122383Y-108273827D01*
X141143695Y-108235060D01*
X141145666Y-108227383D01*
X141145668Y-108227378D01*
X141148732Y-108215442D01*
X141155138Y-108196730D01*
X141160033Y-108185419D01*
X141163181Y-108178145D01*
X141164421Y-108170317D01*
X141164423Y-108170310D01*
X141170099Y-108134476D01*
X141172505Y-108122856D01*
X141181528Y-108087711D01*
X141181528Y-108087710D01*
X141183500Y-108080030D01*
X141183500Y-108059776D01*
X141185051Y-108040065D01*
X141186980Y-108027886D01*
X141188220Y-108020057D01*
X141184059Y-107976038D01*
X141183500Y-107964181D01*
X141183500Y-85743049D01*
X141184027Y-85731866D01*
X141185702Y-85724373D01*
X141183562Y-85656296D01*
X141183500Y-85652337D01*
X141183500Y-85624426D01*
X141182995Y-85620426D01*
X141182062Y-85608583D01*
X141180922Y-85572311D01*
X141180673Y-85564392D01*
X141175022Y-85544940D01*
X141171014Y-85525588D01*
X141169467Y-85513345D01*
X141168474Y-85505485D01*
X141165556Y-85498114D01*
X141152200Y-85464379D01*
X141148355Y-85453152D01*
X141147721Y-85450969D01*
X141136018Y-85410689D01*
X141131984Y-85403867D01*
X141131981Y-85403861D01*
X141125706Y-85393250D01*
X141117010Y-85375500D01*
X141112472Y-85364038D01*
X141112469Y-85364033D01*
X141109552Y-85356665D01*
X141083573Y-85320907D01*
X141077057Y-85310989D01*
X141058575Y-85279739D01*
X141054542Y-85272919D01*
X141040218Y-85258595D01*
X141027376Y-85243560D01*
X141015472Y-85227175D01*
X140981406Y-85198993D01*
X140972627Y-85191004D01*
X139956363Y-84174740D01*
X139922337Y-84112428D01*
X139927402Y-84041613D01*
X139969949Y-83984777D01*
X140001230Y-83967663D01*
X140038293Y-83953769D01*
X140038296Y-83953767D01*
X140046705Y-83950615D01*
X140163261Y-83863261D01*
X140250615Y-83746705D01*
X140301745Y-83610316D01*
X140308500Y-83548134D01*
X140308500Y-81551866D01*
X140301745Y-81489684D01*
X140250615Y-81353295D01*
X140163261Y-81236739D01*
X140046705Y-81149385D01*
X139910316Y-81098255D01*
X139848134Y-81091500D01*
X139286107Y-81091500D01*
X139217986Y-81071498D01*
X139171493Y-81017842D01*
X139161389Y-80947568D01*
X139190883Y-80882988D01*
X139199603Y-80874864D01*
X139199374Y-80874635D01*
X139218285Y-80855724D01*
X139294786Y-80753649D01*
X139303324Y-80738054D01*
X139348478Y-80617606D01*
X139352105Y-80602351D01*
X139357631Y-80551486D01*
X139358000Y-80544672D01*
X139358000Y-79822115D01*
X139353525Y-79806876D01*
X139352135Y-79805671D01*
X139344452Y-79804000D01*
X137552095Y-79804000D01*
X137483974Y-79783998D01*
X137463000Y-79767095D01*
X136905000Y-79209095D01*
X136870974Y-79146783D01*
X136876039Y-79075968D01*
X136905000Y-79030905D01*
X137326905Y-78609000D01*
X137389217Y-78574974D01*
X137460032Y-78580039D01*
X137516868Y-78622586D01*
X137541679Y-78689106D01*
X137542000Y-78698095D01*
X137542000Y-79277885D01*
X137546475Y-79293124D01*
X137547865Y-79294329D01*
X137555548Y-79296000D01*
X138177885Y-79296000D01*
X138193124Y-79291525D01*
X138194329Y-79290135D01*
X138196000Y-79282452D01*
X138196000Y-79277885D01*
X138704000Y-79277885D01*
X138708475Y-79293124D01*
X138709865Y-79294329D01*
X138717548Y-79296000D01*
X139339884Y-79296000D01*
X139355123Y-79291525D01*
X139356328Y-79290135D01*
X139357999Y-79282452D01*
X139357999Y-78555331D01*
X139357629Y-78548510D01*
X139352105Y-78497648D01*
X139348479Y-78482396D01*
X139303324Y-78361946D01*
X139294786Y-78346351D01*
X139218285Y-78244276D01*
X139205724Y-78231715D01*
X139103649Y-78155214D01*
X139088054Y-78146676D01*
X138967606Y-78101522D01*
X138952351Y-78097895D01*
X138901486Y-78092369D01*
X138894672Y-78092000D01*
X138722115Y-78092000D01*
X138706876Y-78096475D01*
X138705671Y-78097865D01*
X138704000Y-78105548D01*
X138704000Y-79277885D01*
X138196000Y-79277885D01*
X138196000Y-78110116D01*
X138191525Y-78094877D01*
X138190135Y-78093672D01*
X138182452Y-78092001D01*
X138005331Y-78092001D01*
X137998510Y-78092371D01*
X137947649Y-78097895D01*
X137937674Y-78100266D01*
X137866774Y-78096561D01*
X137809132Y-78055113D01*
X137783050Y-77989081D01*
X137783376Y-77970514D01*
X137783500Y-77970030D01*
X137783500Y-77949776D01*
X137785051Y-77930065D01*
X137786980Y-77917886D01*
X137788220Y-77910057D01*
X137784059Y-77866038D01*
X137783500Y-77854181D01*
X137783500Y-77566582D01*
X137803502Y-77498461D01*
X137844135Y-77458863D01*
X137978318Y-77377439D01*
X137978325Y-77377434D01*
X137982883Y-77374668D01*
X138064895Y-77303502D01*
X138159386Y-77221507D01*
X138159388Y-77221505D01*
X138163419Y-77218007D01*
X138166802Y-77213881D01*
X138166806Y-77213877D01*
X138305213Y-77045076D01*
X138314978Y-77033167D01*
X138331285Y-77004521D01*
X138430584Y-76830077D01*
X138433227Y-76825434D01*
X138514784Y-76600747D01*
X138515734Y-76595495D01*
X138556580Y-76369615D01*
X138556581Y-76369607D01*
X138557318Y-76365531D01*
X138558500Y-76340468D01*
X138558500Y-74372488D01*
X138543383Y-74194325D01*
X138534017Y-74158240D01*
X138484673Y-73968125D01*
X138484671Y-73968120D01*
X138483332Y-73962960D01*
X138427747Y-73839566D01*
X138387347Y-73749881D01*
X138387346Y-73749878D01*
X138385157Y-73745020D01*
X138374271Y-73728850D01*
X138256816Y-73554387D01*
X138235365Y-73486708D01*
X138253909Y-73418176D01*
X138306560Y-73370549D01*
X138361336Y-73358020D01*
X139477089Y-73358020D01*
X139545210Y-73378022D01*
X139591703Y-73431678D01*
X139601807Y-73501952D01*
X139596682Y-73523687D01*
X139589037Y-73546738D01*
X139562203Y-73627639D01*
X139551500Y-73732100D01*
X139551500Y-76932900D01*
X139551837Y-76936146D01*
X139551837Y-76936150D01*
X139561393Y-77028245D01*
X139562474Y-77038666D01*
X139564655Y-77045202D01*
X139564655Y-77045204D01*
X139608728Y-77177306D01*
X139618450Y-77206446D01*
X139711522Y-77356848D01*
X139836697Y-77481805D01*
X139842927Y-77485645D01*
X139842928Y-77485646D01*
X139980090Y-77570194D01*
X139987262Y-77574615D01*
X140024864Y-77587087D01*
X140148611Y-77628132D01*
X140148613Y-77628132D01*
X140155139Y-77630297D01*
X140161975Y-77630997D01*
X140161978Y-77630998D01*
X140205031Y-77635409D01*
X140259600Y-77641000D01*
X141660400Y-77641000D01*
X141663646Y-77640663D01*
X141663650Y-77640663D01*
X141759308Y-77630738D01*
X141759312Y-77630737D01*
X141766166Y-77630026D01*
X141772702Y-77627845D01*
X141772704Y-77627845D01*
X141904806Y-77583772D01*
X141933946Y-77574050D01*
X142084348Y-77480978D01*
X142106425Y-77458863D01*
X142204134Y-77360983D01*
X142209305Y-77355803D01*
X142249116Y-77291218D01*
X142298275Y-77211468D01*
X142298276Y-77211466D01*
X142302115Y-77205238D01*
X142330805Y-77118739D01*
X142355632Y-77043889D01*
X142355632Y-77043887D01*
X142357797Y-77037361D01*
X142368500Y-76932900D01*
X142368500Y-76534500D01*
X142388502Y-76466379D01*
X142442158Y-76419886D01*
X142494500Y-76408500D01*
X145855126Y-76408500D01*
X145923247Y-76428502D01*
X145930673Y-76433661D01*
X145953295Y-76450615D01*
X146089684Y-76501745D01*
X146151866Y-76508500D01*
X147148134Y-76508500D01*
X147210316Y-76501745D01*
X147346705Y-76450615D01*
X147463261Y-76363261D01*
X147550615Y-76246705D01*
X147601745Y-76110316D01*
X147608500Y-76048134D01*
X147608500Y-75733248D01*
X147614135Y-75695989D01*
X147642682Y-75603768D01*
X147643549Y-75595523D01*
X147662711Y-75413204D01*
X147662711Y-75413202D01*
X147663355Y-75407075D01*
X147647660Y-75234615D01*
X147645989Y-75216251D01*
X147645988Y-75216248D01*
X147645430Y-75210112D01*
X147635902Y-75177736D01*
X147613626Y-75102050D01*
X147608500Y-75066475D01*
X147608500Y-74751866D01*
X147601745Y-74689684D01*
X147550615Y-74553295D01*
X147463261Y-74436739D01*
X147346705Y-74349385D01*
X147210316Y-74298255D01*
X147148134Y-74291500D01*
X146151866Y-74291500D01*
X146089684Y-74298255D01*
X145953295Y-74349385D01*
X145930689Y-74366327D01*
X145864185Y-74391174D01*
X145855126Y-74391500D01*
X142494500Y-74391500D01*
X142426379Y-74371498D01*
X142379886Y-74317842D01*
X142368500Y-74265500D01*
X142368500Y-73732100D01*
X142357526Y-73626334D01*
X142323350Y-73523896D01*
X142320766Y-73452947D01*
X142356949Y-73391863D01*
X142420414Y-73360038D01*
X142442874Y-73358020D01*
X151846713Y-73358020D01*
X151857896Y-73358547D01*
X151865389Y-73360222D01*
X151873315Y-73359973D01*
X151873316Y-73359973D01*
X151933466Y-73358082D01*
X151937425Y-73358020D01*
X151965336Y-73358020D01*
X151969271Y-73357523D01*
X151969336Y-73357515D01*
X151981173Y-73356582D01*
X152013431Y-73355568D01*
X152017450Y-73355442D01*
X152025369Y-73355193D01*
X152044823Y-73349541D01*
X152064180Y-73345533D01*
X152076410Y-73343988D01*
X152076411Y-73343988D01*
X152084277Y-73342994D01*
X152091648Y-73340075D01*
X152091650Y-73340075D01*
X152125392Y-73326716D01*
X152136622Y-73322871D01*
X152171463Y-73312749D01*
X152171464Y-73312749D01*
X152179073Y-73310538D01*
X152185892Y-73306505D01*
X152185897Y-73306503D01*
X152196508Y-73300227D01*
X152214256Y-73291532D01*
X152233097Y-73284072D01*
X152268867Y-73258084D01*
X152278787Y-73251568D01*
X152310015Y-73233100D01*
X152310018Y-73233098D01*
X152316842Y-73229062D01*
X152331163Y-73214741D01*
X152346197Y-73201900D01*
X152362587Y-73189992D01*
X152390778Y-73155915D01*
X152398768Y-73147136D01*
X154394549Y-71151355D01*
X154456861Y-71117329D01*
X154508762Y-71116979D01*
X154688597Y-71153567D01*
X154693772Y-71153757D01*
X154693774Y-71153757D01*
X154906673Y-71161564D01*
X154906677Y-71161564D01*
X154911837Y-71161753D01*
X154916957Y-71161097D01*
X154916959Y-71161097D01*
X155128288Y-71134025D01*
X155128289Y-71134025D01*
X155133416Y-71133368D01*
X155138367Y-71131883D01*
X155138370Y-71131882D01*
X155286073Y-71087569D01*
X155357068Y-71087153D01*
X155417018Y-71125185D01*
G37*
%TD.AperFunction*%
%TA.AperFunction,Conductor*%
G36*
X134553166Y-111950958D02*
G01*
X134553295Y-111950615D01*
X134557981Y-111952372D01*
X134557985Y-111952373D01*
X134561696Y-111953764D01*
X134561699Y-111953766D01*
X134616501Y-111974310D01*
X134689684Y-112001745D01*
X134751866Y-112008500D01*
X135748134Y-112008500D01*
X135810316Y-112001745D01*
X135946270Y-111950778D01*
X136017078Y-111945595D01*
X136079447Y-111979516D01*
X136113576Y-112041771D01*
X136116500Y-112068760D01*
X136116500Y-113071233D01*
X136115973Y-113082416D01*
X136114298Y-113089909D01*
X136114547Y-113097835D01*
X136114547Y-113097836D01*
X136116438Y-113157986D01*
X136116500Y-113161945D01*
X136116500Y-113189856D01*
X136116997Y-113193790D01*
X136116997Y-113193791D01*
X136117005Y-113193856D01*
X136117938Y-113205693D01*
X136119327Y-113249889D01*
X136124978Y-113269339D01*
X136128987Y-113288700D01*
X136131526Y-113308797D01*
X136134445Y-113316168D01*
X136134445Y-113316170D01*
X136147804Y-113349912D01*
X136151649Y-113361142D01*
X136163982Y-113403593D01*
X136168015Y-113410412D01*
X136168017Y-113410417D01*
X136174293Y-113421028D01*
X136182988Y-113438776D01*
X136190448Y-113457617D01*
X136195110Y-113464033D01*
X136195110Y-113464034D01*
X136216436Y-113493387D01*
X136222952Y-113503307D01*
X136245458Y-113541362D01*
X136259779Y-113555683D01*
X136272619Y-113570716D01*
X136284528Y-113587107D01*
X136290634Y-113592158D01*
X136318605Y-113615298D01*
X136327384Y-113623288D01*
X136654595Y-113950499D01*
X136688621Y-114012811D01*
X136691500Y-114039594D01*
X136691500Y-115328000D01*
X136671498Y-115396121D01*
X136617842Y-115442614D01*
X136565500Y-115454000D01*
X136309500Y-115454000D01*
X136241379Y-115433998D01*
X136194886Y-115380342D01*
X136183500Y-115328000D01*
X136183500Y-113985116D01*
X136179025Y-113969877D01*
X136177635Y-113968672D01*
X136169952Y-113967001D01*
X136052905Y-113967001D01*
X136046386Y-113967338D01*
X135950794Y-113977257D01*
X135937400Y-113980149D01*
X135783216Y-114031588D01*
X135770038Y-114037761D01*
X135632193Y-114123063D01*
X135620792Y-114132099D01*
X135506262Y-114246828D01*
X135499206Y-114255762D01*
X135441288Y-114296823D01*
X135370365Y-114300053D01*
X135308954Y-114264426D01*
X135302154Y-114256593D01*
X135298478Y-114250652D01*
X135173303Y-114125695D01*
X135055883Y-114053316D01*
X135008391Y-114000545D01*
X134996000Y-113946057D01*
X134996000Y-113841267D01*
X134996527Y-113830084D01*
X134998202Y-113822591D01*
X134996547Y-113769927D01*
X134996062Y-113754514D01*
X134996000Y-113750555D01*
X134996000Y-113722644D01*
X134995495Y-113718644D01*
X134994562Y-113706801D01*
X134993422Y-113670529D01*
X134993173Y-113662610D01*
X134987522Y-113643158D01*
X134983514Y-113623806D01*
X134981967Y-113611563D01*
X134980974Y-113603703D01*
X134976403Y-113592158D01*
X134964700Y-113562597D01*
X134960855Y-113551370D01*
X134955964Y-113534535D01*
X134948518Y-113508907D01*
X134944484Y-113502085D01*
X134944481Y-113502079D01*
X134938206Y-113491468D01*
X134929510Y-113473718D01*
X134924972Y-113462256D01*
X134924969Y-113462251D01*
X134922052Y-113454883D01*
X134903656Y-113429563D01*
X134896073Y-113419125D01*
X134889557Y-113409207D01*
X134871075Y-113377957D01*
X134867042Y-113371137D01*
X134852718Y-113356813D01*
X134839876Y-113341778D01*
X134827972Y-113325393D01*
X134793906Y-113297211D01*
X134785127Y-113289222D01*
X134447122Y-112951217D01*
X134413096Y-112888905D01*
X134410907Y-112875292D01*
X134394232Y-112716635D01*
X134394232Y-112716633D01*
X134393542Y-112710072D01*
X134334527Y-112528444D01*
X134239040Y-112363056D01*
X134222882Y-112345110D01*
X134111253Y-112221134D01*
X134112816Y-112219727D01*
X134080758Y-112167689D01*
X134082110Y-112096705D01*
X134121625Y-112037721D01*
X134186756Y-112009464D01*
X134202308Y-112008500D01*
X134248134Y-112008500D01*
X134310316Y-112001745D01*
X134383499Y-111974310D01*
X134438301Y-111953766D01*
X134438304Y-111953764D01*
X134446705Y-111950615D01*
X134447024Y-111951466D01*
X134508849Y-111937945D01*
X134553166Y-111950958D01*
G37*
%TD.AperFunction*%
%TA.AperFunction,Conductor*%
G36*
X138709921Y-106453502D02*
G01*
X138729147Y-106469843D01*
X138729420Y-106469540D01*
X138734332Y-106473963D01*
X138738747Y-106478866D01*
X138744086Y-106482745D01*
X138836850Y-106550142D01*
X138893248Y-106591118D01*
X138899276Y-106593802D01*
X138899278Y-106593803D01*
X139058761Y-106664809D01*
X139067712Y-106668794D01*
X139161112Y-106688647D01*
X139248056Y-106707128D01*
X139248061Y-106707128D01*
X139254513Y-106708500D01*
X139445487Y-106708500D01*
X139451939Y-106707128D01*
X139451944Y-106707128D01*
X139538887Y-106688647D01*
X139632288Y-106668794D01*
X139739252Y-106621171D01*
X139809618Y-106611737D01*
X139873915Y-106641843D01*
X139911729Y-106701932D01*
X139916500Y-106736278D01*
X139916500Y-107685405D01*
X139896498Y-107753526D01*
X139879595Y-107774500D01*
X138199500Y-109454595D01*
X138137188Y-109488621D01*
X138110405Y-109491500D01*
X137751866Y-109491500D01*
X137689684Y-109498255D01*
X137642515Y-109515938D01*
X137561699Y-109546234D01*
X137561696Y-109546236D01*
X137553295Y-109549385D01*
X137552976Y-109548534D01*
X137491151Y-109562055D01*
X137446834Y-109549042D01*
X137446705Y-109549385D01*
X137442019Y-109547628D01*
X137442015Y-109547627D01*
X137438304Y-109546236D01*
X137438301Y-109546234D01*
X137357485Y-109515938D01*
X137310316Y-109498255D01*
X137248134Y-109491500D01*
X136251866Y-109491500D01*
X136189684Y-109498255D01*
X136060521Y-109546676D01*
X136053730Y-109549222D01*
X135982922Y-109554405D01*
X135920553Y-109520484D01*
X135886424Y-109458229D01*
X135883500Y-109431240D01*
X135883500Y-108114594D01*
X135903502Y-108046473D01*
X135920405Y-108025499D01*
X137475500Y-106470405D01*
X137537812Y-106436379D01*
X137564595Y-106433500D01*
X138641800Y-106433500D01*
X138709921Y-106453502D01*
G37*
%TD.AperFunction*%
%TA.AperFunction,Conductor*%
G36*
X139053166Y-94450958D02*
G01*
X139053295Y-94450615D01*
X139057981Y-94452372D01*
X139057985Y-94452373D01*
X139061696Y-94453764D01*
X139061699Y-94453766D01*
X139138772Y-94482659D01*
X139189684Y-94501745D01*
X139251866Y-94508500D01*
X139790500Y-94508500D01*
X139858621Y-94528502D01*
X139905114Y-94582158D01*
X139916500Y-94634500D01*
X139916500Y-103735983D01*
X139896498Y-103804104D01*
X139842842Y-103850597D01*
X139772568Y-103860701D01*
X139739251Y-103851090D01*
X139588319Y-103783891D01*
X139588318Y-103783891D01*
X139582288Y-103781206D01*
X139488888Y-103761353D01*
X139401944Y-103742872D01*
X139401939Y-103742872D01*
X139395487Y-103741500D01*
X139204513Y-103741500D01*
X139198061Y-103742872D01*
X139198056Y-103742872D01*
X139111112Y-103761353D01*
X139017712Y-103781206D01*
X139011682Y-103783891D01*
X139011681Y-103783891D01*
X138849278Y-103856197D01*
X138849276Y-103856198D01*
X138843248Y-103858882D01*
X138688747Y-103971134D01*
X138684332Y-103976037D01*
X138679420Y-103980460D01*
X138678295Y-103979211D01*
X138624986Y-104012051D01*
X138591800Y-104016500D01*
X135778763Y-104016500D01*
X135767579Y-104015973D01*
X135760091Y-104014299D01*
X135752168Y-104014548D01*
X135692033Y-104016438D01*
X135688075Y-104016500D01*
X135660144Y-104016500D01*
X135656229Y-104016995D01*
X135656225Y-104016995D01*
X135656167Y-104017003D01*
X135656138Y-104017006D01*
X135644296Y-104017939D01*
X135600110Y-104019327D01*
X135582744Y-104024372D01*
X135580658Y-104024978D01*
X135561306Y-104028986D01*
X135549068Y-104030532D01*
X135549066Y-104030533D01*
X135541203Y-104031526D01*
X135500086Y-104047806D01*
X135488885Y-104051641D01*
X135446406Y-104063982D01*
X135439587Y-104068015D01*
X135439582Y-104068017D01*
X135428971Y-104074293D01*
X135411221Y-104082990D01*
X135392383Y-104090448D01*
X135385967Y-104095109D01*
X135385966Y-104095110D01*
X135356625Y-104116428D01*
X135346701Y-104122947D01*
X135315460Y-104141422D01*
X135315455Y-104141426D01*
X135308637Y-104145458D01*
X135294313Y-104159782D01*
X135279281Y-104172621D01*
X135262893Y-104184528D01*
X135244892Y-104206288D01*
X135234712Y-104218593D01*
X135226722Y-104227373D01*
X133357747Y-106096348D01*
X133349461Y-106103888D01*
X133342982Y-106108000D01*
X133337557Y-106113777D01*
X133296357Y-106157651D01*
X133293602Y-106160493D01*
X133273865Y-106180230D01*
X133271385Y-106183427D01*
X133263682Y-106192447D01*
X133233414Y-106224679D01*
X133229595Y-106231625D01*
X133229593Y-106231628D01*
X133223652Y-106242434D01*
X133212801Y-106258953D01*
X133200386Y-106274959D01*
X133197241Y-106282228D01*
X133197238Y-106282232D01*
X133182826Y-106315537D01*
X133177609Y-106326187D01*
X133156305Y-106364940D01*
X133154334Y-106372615D01*
X133154334Y-106372616D01*
X133151267Y-106384562D01*
X133144863Y-106403266D01*
X133136819Y-106421855D01*
X133135580Y-106429678D01*
X133135577Y-106429688D01*
X133129901Y-106465524D01*
X133127495Y-106477144D01*
X133116500Y-106519970D01*
X133116500Y-106540224D01*
X133114949Y-106559934D01*
X133111780Y-106579943D01*
X133112526Y-106587835D01*
X133115941Y-106623961D01*
X133116500Y-106635819D01*
X133116500Y-109431240D01*
X133096498Y-109499361D01*
X133042842Y-109545854D01*
X132972568Y-109555958D01*
X132946270Y-109549222D01*
X132939479Y-109546676D01*
X132810316Y-109498255D01*
X132748134Y-109491500D01*
X131751866Y-109491500D01*
X131689684Y-109498255D01*
X131642515Y-109515938D01*
X131561699Y-109546234D01*
X131561696Y-109546236D01*
X131553295Y-109549385D01*
X131552976Y-109548534D01*
X131491151Y-109562055D01*
X131446834Y-109549042D01*
X131446705Y-109549385D01*
X131442019Y-109547628D01*
X131442015Y-109547627D01*
X131438304Y-109546236D01*
X131438301Y-109546234D01*
X131357485Y-109515938D01*
X131310316Y-109498255D01*
X131248134Y-109491500D01*
X130251866Y-109491500D01*
X130189684Y-109498255D01*
X130065856Y-109544676D01*
X129995050Y-109549859D01*
X129932681Y-109515938D01*
X129898551Y-109453683D01*
X129896317Y-109413523D01*
X129899500Y-109383244D01*
X129913504Y-109250000D01*
X129893542Y-109060072D01*
X129834527Y-108878444D01*
X129739040Y-108713056D01*
X129701393Y-108671244D01*
X129615675Y-108576045D01*
X129615674Y-108576044D01*
X129611253Y-108571134D01*
X129456752Y-108458882D01*
X129450724Y-108456198D01*
X129450722Y-108456197D01*
X129288319Y-108383891D01*
X129288318Y-108383891D01*
X129282288Y-108381206D01*
X129171081Y-108357568D01*
X129101944Y-108342872D01*
X129101939Y-108342872D01*
X129095487Y-108341500D01*
X129039594Y-108341500D01*
X128971473Y-108321498D01*
X128950499Y-108304595D01*
X127894945Y-107249040D01*
X127860919Y-107186728D01*
X127858040Y-107159945D01*
X127858040Y-102944668D01*
X131852001Y-102944668D01*
X131852371Y-102951490D01*
X131857895Y-103002352D01*
X131861521Y-103017604D01*
X131906676Y-103138054D01*
X131915214Y-103153649D01*
X131991715Y-103255724D01*
X132004276Y-103268285D01*
X132106351Y-103344786D01*
X132121946Y-103353324D01*
X132242394Y-103398478D01*
X132257649Y-103402105D01*
X132308514Y-103407631D01*
X132315328Y-103408000D01*
X134087885Y-103408000D01*
X134103124Y-103403525D01*
X134104329Y-103402135D01*
X134106000Y-103394452D01*
X134106000Y-103389884D01*
X134614000Y-103389884D01*
X134618475Y-103405123D01*
X134619865Y-103406328D01*
X134627548Y-103407999D01*
X136404669Y-103407999D01*
X136411490Y-103407629D01*
X136462352Y-103402105D01*
X136477604Y-103398479D01*
X136598054Y-103353324D01*
X136613649Y-103344786D01*
X136715724Y-103268285D01*
X136728285Y-103255724D01*
X136804786Y-103153649D01*
X136813324Y-103138054D01*
X136858478Y-103017606D01*
X136862105Y-103002351D01*
X136867631Y-102951486D01*
X136868000Y-102944668D01*
X136868000Y-101172115D01*
X136863525Y-101156876D01*
X136862135Y-101155671D01*
X136854452Y-101154000D01*
X134632115Y-101154000D01*
X134616876Y-101158475D01*
X134615671Y-101159865D01*
X134614000Y-101167548D01*
X134614000Y-103389884D01*
X134106000Y-103389884D01*
X134106000Y-101172115D01*
X134101525Y-101156876D01*
X134100135Y-101155671D01*
X134092452Y-101154000D01*
X131870116Y-101154000D01*
X131854877Y-101158475D01*
X131853672Y-101159865D01*
X131852001Y-101167548D01*
X131852001Y-102944668D01*
X127858040Y-102944668D01*
X127858040Y-100625772D01*
X127878042Y-100557651D01*
X127894945Y-100536677D01*
X129185729Y-99245894D01*
X129248041Y-99211868D01*
X129274824Y-99208989D01*
X131726000Y-99208989D01*
X131794121Y-99228991D01*
X131840614Y-99282647D01*
X131852000Y-99334989D01*
X131852000Y-100627885D01*
X131856475Y-100643124D01*
X131857865Y-100644329D01*
X131865548Y-100646000D01*
X136849884Y-100646000D01*
X136865123Y-100641525D01*
X136866328Y-100640135D01*
X136867999Y-100632452D01*
X136867999Y-98855331D01*
X136867629Y-98848510D01*
X136862105Y-98797648D01*
X136858479Y-98782396D01*
X136813324Y-98661946D01*
X136804786Y-98646351D01*
X136728285Y-98544276D01*
X136715724Y-98531715D01*
X136613649Y-98455214D01*
X136598054Y-98446676D01*
X136477606Y-98401522D01*
X136462351Y-98397895D01*
X136411486Y-98392369D01*
X136404672Y-98392000D01*
X134608093Y-98392001D01*
X134539972Y-98371999D01*
X134493479Y-98318343D01*
X134483375Y-98248069D01*
X134512869Y-98183489D01*
X134518998Y-98176906D01*
X138150499Y-94545405D01*
X138212811Y-94511379D01*
X138239594Y-94508500D01*
X138748134Y-94508500D01*
X138810316Y-94501745D01*
X138861228Y-94482659D01*
X138938301Y-94453766D01*
X138938304Y-94453764D01*
X138946705Y-94450615D01*
X138947024Y-94451466D01*
X139008849Y-94437945D01*
X139053166Y-94450958D01*
G37*
%TD.AperFunction*%
%TA.AperFunction,Conductor*%
G36*
X136634527Y-105303502D02*
G01*
X136681020Y-105357158D01*
X136691124Y-105427432D01*
X136661630Y-105492012D01*
X136655502Y-105498594D01*
X135750829Y-106403266D01*
X134857747Y-107296348D01*
X134849461Y-107303888D01*
X134842982Y-107308000D01*
X134837557Y-107313777D01*
X134796357Y-107357651D01*
X134793602Y-107360493D01*
X134773865Y-107380230D01*
X134771385Y-107383427D01*
X134763682Y-107392447D01*
X134733414Y-107424679D01*
X134729595Y-107431625D01*
X134729593Y-107431628D01*
X134723652Y-107442434D01*
X134712801Y-107458953D01*
X134700386Y-107474959D01*
X134697241Y-107482228D01*
X134697238Y-107482232D01*
X134682826Y-107515537D01*
X134677609Y-107526187D01*
X134656305Y-107564940D01*
X134654334Y-107572615D01*
X134654334Y-107572616D01*
X134651267Y-107584562D01*
X134644863Y-107603266D01*
X134636819Y-107621855D01*
X134635579Y-107629680D01*
X134635577Y-107629689D01*
X134633948Y-107639974D01*
X134603535Y-107704127D01*
X134543267Y-107741653D01*
X134472277Y-107740638D01*
X134413106Y-107701405D01*
X134384539Y-107636409D01*
X134383500Y-107620262D01*
X134383500Y-106914594D01*
X134403502Y-106846473D01*
X134420405Y-106825499D01*
X135925499Y-105320405D01*
X135987811Y-105286379D01*
X136014594Y-105283500D01*
X136566406Y-105283500D01*
X136634527Y-105303502D01*
G37*
%TD.AperFunction*%
%TA.AperFunction,Conductor*%
G36*
X133334526Y-96353502D02*
G01*
X133381019Y-96407158D01*
X133391123Y-96477432D01*
X133361629Y-96542012D01*
X133355500Y-96548595D01*
X132474500Y-97429595D01*
X132412188Y-97463621D01*
X132385405Y-97466500D01*
X128878767Y-97466500D01*
X128867584Y-97465973D01*
X128860091Y-97464298D01*
X128852165Y-97464547D01*
X128852164Y-97464547D01*
X128792014Y-97466438D01*
X128788055Y-97466500D01*
X128760144Y-97466500D01*
X128756210Y-97466997D01*
X128756209Y-97466997D01*
X128756144Y-97467005D01*
X128744307Y-97467938D01*
X128712490Y-97468938D01*
X128708029Y-97469078D01*
X128700110Y-97469327D01*
X128682454Y-97474456D01*
X128680658Y-97474978D01*
X128661306Y-97478986D01*
X128654235Y-97479880D01*
X128641203Y-97481526D01*
X128633834Y-97484443D01*
X128633832Y-97484444D01*
X128600097Y-97497800D01*
X128588869Y-97501645D01*
X128546407Y-97513982D01*
X128539585Y-97518016D01*
X128539579Y-97518019D01*
X128528968Y-97524294D01*
X128511218Y-97532990D01*
X128499756Y-97537528D01*
X128499751Y-97537531D01*
X128492383Y-97540448D01*
X128485968Y-97545109D01*
X128456625Y-97566427D01*
X128446707Y-97572943D01*
X128430127Y-97582749D01*
X128408637Y-97595458D01*
X128394313Y-97609782D01*
X128379281Y-97622621D01*
X128362893Y-97634528D01*
X128334712Y-97668593D01*
X128326722Y-97677373D01*
X126865095Y-99139000D01*
X126802783Y-99173026D01*
X126731968Y-99167961D01*
X126675132Y-99125414D01*
X126650321Y-99058894D01*
X126650000Y-99049905D01*
X126650000Y-97887000D01*
X126670002Y-97818879D01*
X126723658Y-97772386D01*
X126793932Y-97762282D01*
X126813098Y-97766740D01*
X126817712Y-97768794D01*
X126824162Y-97770165D01*
X126998056Y-97807128D01*
X126998061Y-97807128D01*
X127004513Y-97808500D01*
X127195487Y-97808500D01*
X127201939Y-97807128D01*
X127201944Y-97807128D01*
X127288887Y-97788647D01*
X127382288Y-97768794D01*
X127388319Y-97766109D01*
X127550722Y-97693803D01*
X127550724Y-97693802D01*
X127556752Y-97691118D01*
X127581460Y-97673167D01*
X127641052Y-97629870D01*
X127711253Y-97578866D01*
X127741648Y-97545109D01*
X127834621Y-97441852D01*
X127834622Y-97441851D01*
X127839040Y-97436944D01*
X127934527Y-97271556D01*
X127993542Y-97089928D01*
X128010907Y-96924706D01*
X128037920Y-96859050D01*
X128047122Y-96848782D01*
X128525499Y-96370405D01*
X128587811Y-96336379D01*
X128614594Y-96333500D01*
X133266405Y-96333500D01*
X133334526Y-96353502D01*
G37*
%TD.AperFunction*%
%TA.AperFunction,Conductor*%
G36*
X126858512Y-94263660D02*
G01*
X126876825Y-94283317D01*
X126936739Y-94363261D01*
X127053295Y-94450615D01*
X127189684Y-94501745D01*
X127251866Y-94508500D01*
X128248134Y-94508500D01*
X128310316Y-94501745D01*
X128361228Y-94482659D01*
X128438301Y-94453766D01*
X128438304Y-94453764D01*
X128446705Y-94450615D01*
X128447024Y-94451466D01*
X128508849Y-94437945D01*
X128553166Y-94450958D01*
X128553295Y-94450615D01*
X128557981Y-94452372D01*
X128557985Y-94452373D01*
X128561696Y-94453764D01*
X128561699Y-94453766D01*
X128638772Y-94482659D01*
X128689684Y-94501745D01*
X128751866Y-94508500D01*
X129748134Y-94508500D01*
X129810316Y-94501745D01*
X129861228Y-94482659D01*
X129938301Y-94453766D01*
X129938304Y-94453764D01*
X129946705Y-94450615D01*
X129947024Y-94451466D01*
X130008849Y-94437945D01*
X130053166Y-94450958D01*
X130053295Y-94450615D01*
X130057981Y-94452372D01*
X130057985Y-94452373D01*
X130061696Y-94453764D01*
X130061699Y-94453766D01*
X130138772Y-94482659D01*
X130189684Y-94501745D01*
X130251866Y-94508500D01*
X131248134Y-94508500D01*
X131310316Y-94501745D01*
X131361228Y-94482659D01*
X131438301Y-94453766D01*
X131438304Y-94453764D01*
X131446705Y-94450615D01*
X131447024Y-94451466D01*
X131508849Y-94437945D01*
X131553166Y-94450958D01*
X131553295Y-94450615D01*
X131557981Y-94452372D01*
X131557985Y-94452373D01*
X131561696Y-94453764D01*
X131561699Y-94453766D01*
X131638772Y-94482659D01*
X131689684Y-94501745D01*
X131751866Y-94508500D01*
X132114775Y-94508500D01*
X132182896Y-94528502D01*
X132229389Y-94582158D01*
X132239493Y-94652432D01*
X132234608Y-94673436D01*
X132206458Y-94760072D01*
X132205768Y-94766633D01*
X132205768Y-94766635D01*
X132197265Y-94847540D01*
X132186496Y-94950000D01*
X132184459Y-94949786D01*
X132167184Y-95008621D01*
X132113528Y-95055114D01*
X132061186Y-95066500D01*
X128378767Y-95066500D01*
X128367584Y-95065973D01*
X128360091Y-95064298D01*
X128352165Y-95064547D01*
X128352164Y-95064547D01*
X128292014Y-95066438D01*
X128288055Y-95066500D01*
X128260144Y-95066500D01*
X128256210Y-95066997D01*
X128256209Y-95066997D01*
X128256144Y-95067005D01*
X128244307Y-95067938D01*
X128212490Y-95068938D01*
X128208029Y-95069078D01*
X128200110Y-95069327D01*
X128182454Y-95074456D01*
X128180658Y-95074978D01*
X128161306Y-95078986D01*
X128154235Y-95079880D01*
X128141203Y-95081526D01*
X128133834Y-95084443D01*
X128133832Y-95084444D01*
X128100097Y-95097800D01*
X128088869Y-95101645D01*
X128046407Y-95113982D01*
X128039585Y-95118016D01*
X128039579Y-95118019D01*
X128028968Y-95124294D01*
X128011218Y-95132990D01*
X127999756Y-95137528D01*
X127999751Y-95137531D01*
X127992383Y-95140448D01*
X127985968Y-95145109D01*
X127956625Y-95166427D01*
X127946707Y-95172943D01*
X127928019Y-95183995D01*
X127908637Y-95195458D01*
X127894313Y-95209782D01*
X127879281Y-95222621D01*
X127862893Y-95234528D01*
X127834712Y-95268593D01*
X127826722Y-95277373D01*
X127149500Y-95954595D01*
X127087188Y-95988621D01*
X127060405Y-95991500D01*
X127004513Y-95991500D01*
X126998061Y-95992872D01*
X126998056Y-95992872D01*
X126824162Y-96029835D01*
X126817712Y-96031206D01*
X126813998Y-96032860D01*
X126743968Y-96034860D01*
X126683170Y-95998197D01*
X126651845Y-95934485D01*
X126650000Y-95913000D01*
X126650000Y-94358884D01*
X126670002Y-94290763D01*
X126723658Y-94244270D01*
X126793932Y-94234166D01*
X126858512Y-94263660D01*
G37*
%TD.AperFunction*%
%TA.AperFunction,Conductor*%
G36*
X139073915Y-86316343D02*
G01*
X139111729Y-86376432D01*
X139116500Y-86410778D01*
X139116500Y-91931240D01*
X139096498Y-91999361D01*
X139042842Y-92045854D01*
X138972568Y-92055958D01*
X138946270Y-92049222D01*
X138940039Y-92046886D01*
X138810316Y-91998255D01*
X138748134Y-91991500D01*
X137751866Y-91991500D01*
X137689684Y-91998255D01*
X137659187Y-92009688D01*
X137561699Y-92046234D01*
X137561696Y-92046236D01*
X137553295Y-92049385D01*
X137552976Y-92048534D01*
X137491151Y-92062055D01*
X137446834Y-92049042D01*
X137446705Y-92049385D01*
X137442019Y-92047628D01*
X137442015Y-92047627D01*
X137438304Y-92046236D01*
X137438301Y-92046234D01*
X137340813Y-92009688D01*
X137310316Y-91998255D01*
X137248134Y-91991500D01*
X136251866Y-91991500D01*
X136189684Y-91998255D01*
X136159187Y-92009688D01*
X136061699Y-92046234D01*
X136061696Y-92046236D01*
X136053295Y-92049385D01*
X136052976Y-92048534D01*
X135991151Y-92062055D01*
X135946834Y-92049042D01*
X135946705Y-92049385D01*
X135942019Y-92047628D01*
X135942015Y-92047627D01*
X135938304Y-92046236D01*
X135938301Y-92046234D01*
X135840813Y-92009688D01*
X135810316Y-91998255D01*
X135748134Y-91991500D01*
X134751866Y-91991500D01*
X134689684Y-91998255D01*
X134659187Y-92009688D01*
X134561699Y-92046234D01*
X134561696Y-92046236D01*
X134553295Y-92049385D01*
X134552976Y-92048534D01*
X134491151Y-92062055D01*
X134446834Y-92049042D01*
X134446705Y-92049385D01*
X134442019Y-92047628D01*
X134442015Y-92047627D01*
X134438304Y-92046236D01*
X134438301Y-92046234D01*
X134340813Y-92009688D01*
X134310316Y-91998255D01*
X134248134Y-91991500D01*
X133251866Y-91991500D01*
X133189684Y-91998255D01*
X133159187Y-92009688D01*
X133061699Y-92046234D01*
X133061696Y-92046236D01*
X133053295Y-92049385D01*
X133052976Y-92048534D01*
X132991151Y-92062055D01*
X132946834Y-92049042D01*
X132946705Y-92049385D01*
X132942019Y-92047628D01*
X132942015Y-92047627D01*
X132938304Y-92046236D01*
X132938301Y-92046234D01*
X132840813Y-92009688D01*
X132810316Y-91998255D01*
X132748134Y-91991500D01*
X131751866Y-91991500D01*
X131689684Y-91998255D01*
X131559961Y-92046886D01*
X131553730Y-92049222D01*
X131482922Y-92054405D01*
X131420553Y-92020484D01*
X131386424Y-91958229D01*
X131383500Y-91931240D01*
X131383500Y-90652094D01*
X131403502Y-90583973D01*
X131420405Y-90562999D01*
X132842253Y-89141152D01*
X132850539Y-89133612D01*
X132857018Y-89129500D01*
X132903644Y-89079848D01*
X132906398Y-89077007D01*
X132926135Y-89057270D01*
X132928615Y-89054073D01*
X132936320Y-89045051D01*
X132961159Y-89018600D01*
X132966586Y-89012821D01*
X132970405Y-89005875D01*
X132970407Y-89005872D01*
X132976348Y-88995066D01*
X132987199Y-88978547D01*
X132994758Y-88968801D01*
X132999614Y-88962541D01*
X133002759Y-88955272D01*
X133002762Y-88955268D01*
X133017174Y-88921963D01*
X133022391Y-88911313D01*
X133043695Y-88872560D01*
X133048733Y-88852937D01*
X133055137Y-88834234D01*
X133060033Y-88822920D01*
X133060033Y-88822919D01*
X133063181Y-88815645D01*
X133064420Y-88807822D01*
X133064423Y-88807812D01*
X133070099Y-88771976D01*
X133072505Y-88760356D01*
X133081528Y-88725211D01*
X133081528Y-88725210D01*
X133083500Y-88717530D01*
X133083500Y-88697276D01*
X133085051Y-88677565D01*
X133086980Y-88665386D01*
X133088220Y-88657557D01*
X133084059Y-88613538D01*
X133083500Y-88601681D01*
X133083500Y-87086781D01*
X133103502Y-87018660D01*
X133143197Y-86979637D01*
X133156762Y-86971243D01*
X133274348Y-86898478D01*
X133399305Y-86773303D01*
X133440114Y-86707099D01*
X133488275Y-86628968D01*
X133488276Y-86628966D01*
X133492115Y-86622738D01*
X133509663Y-86569832D01*
X133550094Y-86511473D01*
X133615658Y-86484236D01*
X133629256Y-86483500D01*
X138021233Y-86483500D01*
X138032416Y-86484027D01*
X138039909Y-86485702D01*
X138047835Y-86485453D01*
X138047836Y-86485453D01*
X138107986Y-86483562D01*
X138111945Y-86483500D01*
X138139856Y-86483500D01*
X138143791Y-86483003D01*
X138143856Y-86482995D01*
X138155693Y-86482062D01*
X138187951Y-86481048D01*
X138191970Y-86480922D01*
X138199889Y-86480673D01*
X138219343Y-86475021D01*
X138238700Y-86471013D01*
X138250930Y-86469468D01*
X138250931Y-86469468D01*
X138258797Y-86468474D01*
X138266168Y-86465555D01*
X138266170Y-86465555D01*
X138299912Y-86452196D01*
X138311142Y-86448351D01*
X138345983Y-86438229D01*
X138345984Y-86438229D01*
X138353593Y-86436018D01*
X138360412Y-86431985D01*
X138360417Y-86431983D01*
X138371028Y-86425707D01*
X138388776Y-86417012D01*
X138407617Y-86409552D01*
X138414034Y-86404890D01*
X138420979Y-86401072D01*
X138422104Y-86403118D01*
X138477901Y-86383206D01*
X138485102Y-86383000D01*
X138645487Y-86383000D01*
X138651939Y-86381628D01*
X138651944Y-86381628D01*
X138738888Y-86363147D01*
X138832288Y-86343294D01*
X138939252Y-86295671D01*
X139009618Y-86286237D01*
X139073915Y-86316343D01*
G37*
%TD.AperFunction*%
%TA.AperFunction,Conductor*%
G36*
X129259430Y-86042376D02*
G01*
X129316302Y-86084873D01*
X129341171Y-86151372D01*
X129341500Y-86160470D01*
X129341500Y-86350400D01*
X129341837Y-86353646D01*
X129341837Y-86353650D01*
X129350699Y-86439054D01*
X129352474Y-86456166D01*
X129354655Y-86462702D01*
X129354655Y-86462704D01*
X129390396Y-86569832D01*
X129408450Y-86623946D01*
X129501522Y-86774348D01*
X129506704Y-86779521D01*
X129553962Y-86826697D01*
X129626697Y-86899305D01*
X129632927Y-86903145D01*
X129632928Y-86903146D01*
X129770090Y-86987694D01*
X129777262Y-86992115D01*
X129857005Y-87018564D01*
X129938611Y-87045632D01*
X129938613Y-87045632D01*
X129945139Y-87047797D01*
X129951975Y-87048497D01*
X129951978Y-87048498D01*
X129995031Y-87052909D01*
X130049600Y-87058500D01*
X130850400Y-87058500D01*
X130853646Y-87058163D01*
X130853650Y-87058163D01*
X130949308Y-87048238D01*
X130949312Y-87048237D01*
X130956166Y-87047526D01*
X130962702Y-87045345D01*
X130962704Y-87045345D01*
X131094806Y-87001272D01*
X131123946Y-86991550D01*
X131274348Y-86898478D01*
X131360784Y-86811891D01*
X131423066Y-86777812D01*
X131493886Y-86782815D01*
X131538975Y-86811736D01*
X131553962Y-86826697D01*
X131626697Y-86899305D01*
X131632927Y-86903145D01*
X131632928Y-86903146D01*
X131756616Y-86979389D01*
X131804110Y-87032162D01*
X131816500Y-87086649D01*
X131816500Y-88322906D01*
X131796498Y-88391027D01*
X131779595Y-88412001D01*
X130357747Y-89833848D01*
X130349461Y-89841388D01*
X130342982Y-89845500D01*
X130337557Y-89851277D01*
X130296357Y-89895151D01*
X130293602Y-89897993D01*
X130273865Y-89917730D01*
X130271385Y-89920927D01*
X130263682Y-89929947D01*
X130233414Y-89962179D01*
X130229595Y-89969125D01*
X130229593Y-89969128D01*
X130223652Y-89979934D01*
X130212801Y-89996453D01*
X130200386Y-90012459D01*
X130197241Y-90019728D01*
X130197238Y-90019732D01*
X130182826Y-90053037D01*
X130177609Y-90063687D01*
X130156305Y-90102440D01*
X130154334Y-90110115D01*
X130154334Y-90110116D01*
X130151267Y-90122062D01*
X130144863Y-90140766D01*
X130136819Y-90159355D01*
X130135579Y-90167184D01*
X130133949Y-90177474D01*
X130103538Y-90241628D01*
X130043270Y-90279155D01*
X129972281Y-90278142D01*
X129913108Y-90238911D01*
X129884539Y-90173916D01*
X129883500Y-90157765D01*
X129883499Y-87880545D01*
X129884026Y-87869361D01*
X129885700Y-87861873D01*
X129883561Y-87793814D01*
X129883499Y-87789857D01*
X129883499Y-87761926D01*
X129882993Y-87757920D01*
X129882060Y-87746074D01*
X129880921Y-87709819D01*
X129880672Y-87701892D01*
X129875021Y-87682440D01*
X129871013Y-87663088D01*
X129869467Y-87650850D01*
X129869466Y-87650848D01*
X129868473Y-87642985D01*
X129852193Y-87601868D01*
X129848358Y-87590667D01*
X129836017Y-87548188D01*
X129831984Y-87541369D01*
X129831982Y-87541364D01*
X129825706Y-87530753D01*
X129817009Y-87513003D01*
X129809551Y-87494165D01*
X129783570Y-87458405D01*
X129777052Y-87448483D01*
X129758577Y-87417242D01*
X129758573Y-87417237D01*
X129754541Y-87410419D01*
X129740217Y-87396095D01*
X129727375Y-87381060D01*
X129715471Y-87364675D01*
X129681405Y-87336493D01*
X129672626Y-87328504D01*
X128783176Y-86439054D01*
X128749150Y-86376742D01*
X128754215Y-86305927D01*
X128796762Y-86249091D01*
X128832394Y-86230436D01*
X128941993Y-86193870D01*
X128941995Y-86193869D01*
X128948946Y-86191550D01*
X129099348Y-86098478D01*
X129126327Y-86071452D01*
X129188610Y-86037373D01*
X129259430Y-86042376D01*
G37*
%TD.AperFunction*%
%TA.AperFunction,Conductor*%
G36*
X124364900Y-75953002D02*
G01*
X124411393Y-76006658D01*
X124421994Y-76073043D01*
X124416980Y-76117747D01*
X124416980Y-76121275D01*
X124416925Y-76122259D01*
X124416478Y-76127939D01*
X124412106Y-76170982D01*
X124412686Y-76177113D01*
X124416421Y-76216629D01*
X124416980Y-76228487D01*
X124416980Y-78958160D01*
X124396978Y-79026281D01*
X124343322Y-79072774D01*
X124273048Y-79082878D01*
X124208468Y-79053384D01*
X124197787Y-79042960D01*
X124183152Y-79026876D01*
X124183142Y-79026867D01*
X124179670Y-79023051D01*
X124175619Y-79019852D01*
X124175615Y-79019848D01*
X124008414Y-78887800D01*
X124008410Y-78887798D01*
X124004359Y-78884598D01*
X123997784Y-78880968D01*
X123925687Y-78841169D01*
X123808789Y-78776638D01*
X123803920Y-78774914D01*
X123803916Y-78774912D01*
X123603087Y-78703795D01*
X123603083Y-78703794D01*
X123598212Y-78702069D01*
X123593119Y-78701162D01*
X123593116Y-78701161D01*
X123383373Y-78663800D01*
X123383367Y-78663799D01*
X123378284Y-78662894D01*
X123304452Y-78661992D01*
X123160081Y-78660228D01*
X123160079Y-78660228D01*
X123154911Y-78660165D01*
X122934091Y-78693955D01*
X122721756Y-78763357D01*
X122675603Y-78787383D01*
X122589620Y-78832143D01*
X122523607Y-78866507D01*
X122519474Y-78869610D01*
X122519471Y-78869612D01*
X122368102Y-78983263D01*
X122344965Y-79000635D01*
X122316038Y-79030905D01*
X122200351Y-79151965D01*
X122190629Y-79162138D01*
X122187715Y-79166410D01*
X122187714Y-79166411D01*
X122141178Y-79234630D01*
X122064743Y-79346680D01*
X122024072Y-79434298D01*
X121974543Y-79541001D01*
X121970688Y-79549305D01*
X121910989Y-79764570D01*
X121887251Y-79986695D01*
X121887548Y-79991848D01*
X121887548Y-79991851D01*
X121896472Y-80146620D01*
X121900110Y-80209715D01*
X121901247Y-80214761D01*
X121901248Y-80214767D01*
X121914201Y-80272243D01*
X121932916Y-80355283D01*
X121933453Y-80357668D01*
X121928917Y-80428520D01*
X121899631Y-80474464D01*
X121683236Y-80690859D01*
X121674950Y-80698399D01*
X121668471Y-80702511D01*
X121663046Y-80708288D01*
X121621846Y-80752162D01*
X121619091Y-80755004D01*
X121599354Y-80774741D01*
X121596874Y-80777938D01*
X121589171Y-80786958D01*
X121558903Y-80819190D01*
X121555084Y-80826136D01*
X121555082Y-80826139D01*
X121549141Y-80836945D01*
X121538290Y-80853464D01*
X121525875Y-80869470D01*
X121522730Y-80876739D01*
X121522727Y-80876743D01*
X121508315Y-80910048D01*
X121503098Y-80920698D01*
X121481794Y-80959451D01*
X121479823Y-80967126D01*
X121479823Y-80967127D01*
X121476756Y-80979073D01*
X121470352Y-80997777D01*
X121462308Y-81016366D01*
X121461069Y-81024189D01*
X121461066Y-81024199D01*
X121455390Y-81060035D01*
X121452984Y-81071655D01*
X121446374Y-81097402D01*
X121441989Y-81114481D01*
X121441989Y-81134735D01*
X121440438Y-81154445D01*
X121437269Y-81174454D01*
X121438015Y-81182346D01*
X121441430Y-81218472D01*
X121441989Y-81230330D01*
X121441989Y-82996722D01*
X121441462Y-83007905D01*
X121439787Y-83015398D01*
X121440036Y-83023324D01*
X121440036Y-83023325D01*
X121441927Y-83083475D01*
X121441989Y-83087434D01*
X121441989Y-83115345D01*
X121442486Y-83119279D01*
X121442486Y-83119280D01*
X121442494Y-83119345D01*
X121443427Y-83131182D01*
X121444816Y-83175378D01*
X121450467Y-83194828D01*
X121454476Y-83214189D01*
X121457015Y-83234286D01*
X121459934Y-83241657D01*
X121459934Y-83241659D01*
X121473293Y-83275401D01*
X121477138Y-83286631D01*
X121489471Y-83329082D01*
X121493504Y-83335901D01*
X121493506Y-83335906D01*
X121499782Y-83346517D01*
X121508477Y-83364265D01*
X121515937Y-83383106D01*
X121520599Y-83389522D01*
X121520599Y-83389523D01*
X121541925Y-83418876D01*
X121548441Y-83428796D01*
X121570947Y-83466851D01*
X121585268Y-83481172D01*
X121598108Y-83496205D01*
X121610017Y-83512596D01*
X121616125Y-83517649D01*
X121644087Y-83540781D01*
X121652867Y-83548771D01*
X121939829Y-83835733D01*
X121973855Y-83898045D01*
X121968790Y-83968860D01*
X121958403Y-83987870D01*
X121959079Y-83988240D01*
X121954771Y-83996109D01*
X121949385Y-84003295D01*
X121898255Y-84139684D01*
X121891500Y-84201866D01*
X121891500Y-85998134D01*
X121898255Y-86060316D01*
X121949385Y-86196705D01*
X122036739Y-86313261D01*
X122153295Y-86400615D01*
X122289684Y-86451745D01*
X122351866Y-86458500D01*
X122960406Y-86458500D01*
X123028527Y-86478502D01*
X123049501Y-86495405D01*
X124339001Y-87784905D01*
X124373027Y-87847217D01*
X124367962Y-87918032D01*
X124325415Y-87974868D01*
X124258895Y-87999679D01*
X124249906Y-88000000D01*
X120334000Y-88000000D01*
X120265879Y-87979998D01*
X120219386Y-87926342D01*
X120208000Y-87874000D01*
X120208000Y-76059000D01*
X120228002Y-75990879D01*
X120281658Y-75944386D01*
X120334000Y-75933000D01*
X124296779Y-75933000D01*
X124364900Y-75953002D01*
G37*
%TD.AperFunction*%
%TA.AperFunction,Conductor*%
G36*
X131308563Y-82082200D02*
G01*
X131313607Y-82086373D01*
X131322384Y-82094360D01*
X133129429Y-83901405D01*
X133163455Y-83963717D01*
X133158390Y-84034532D01*
X133115843Y-84091368D01*
X133049323Y-84116179D01*
X133040334Y-84116500D01*
X131884594Y-84116500D01*
X131816473Y-84096498D01*
X131795499Y-84079595D01*
X131181293Y-83465389D01*
X131147267Y-83403077D01*
X131154751Y-83326253D01*
X131155109Y-83325425D01*
X131159145Y-83318601D01*
X131171498Y-83276083D01*
X131181498Y-83241659D01*
X131205562Y-83158831D01*
X131208500Y-83121502D01*
X131208500Y-82688498D01*
X131205562Y-82651169D01*
X131159145Y-82491399D01*
X131074453Y-82348193D01*
X131071771Y-82345511D01*
X131046498Y-82281139D01*
X131060400Y-82211516D01*
X131070572Y-82195688D01*
X131074453Y-82191807D01*
X131119792Y-82115143D01*
X131171684Y-82066690D01*
X131241535Y-82053985D01*
X131308563Y-82082200D01*
G37*
%TD.AperFunction*%
%TA.AperFunction,Conductor*%
G36*
X166934121Y-75953002D02*
G01*
X166980614Y-76006658D01*
X166992000Y-76059000D01*
X166992000Y-83071576D01*
X166971998Y-83139697D01*
X166918342Y-83186190D01*
X166848068Y-83196294D01*
X166783488Y-83166800D01*
X166776905Y-83160671D01*
X164077905Y-80461671D01*
X164043879Y-80399359D01*
X164041000Y-80372576D01*
X164041000Y-80034610D01*
X164031611Y-79923955D01*
X164026871Y-79868091D01*
X164026870Y-79868087D01*
X164026420Y-79862780D01*
X164025082Y-79857625D01*
X164025081Y-79857619D01*
X163969843Y-79644797D01*
X163969842Y-79644793D01*
X163968501Y-79639628D01*
X163930063Y-79554297D01*
X163900140Y-79487871D01*
X163873812Y-79429425D01*
X163801965Y-79322706D01*
X163748042Y-79242611D01*
X163748039Y-79242607D01*
X163745059Y-79238181D01*
X163725831Y-79218025D01*
X163693283Y-79154929D01*
X163691000Y-79131053D01*
X163691000Y-77544343D01*
X163691737Y-77530736D01*
X163695159Y-77499238D01*
X163695159Y-77499233D01*
X163695824Y-77493112D01*
X163691479Y-77443447D01*
X163691000Y-77432466D01*
X163691000Y-77194342D01*
X163691737Y-77180735D01*
X163695159Y-77149237D01*
X163695159Y-77149232D01*
X163695824Y-77143111D01*
X163693650Y-77118262D01*
X163691450Y-77093109D01*
X163691121Y-77088284D01*
X163691000Y-77085813D01*
X163691000Y-77082731D01*
X163687320Y-77045204D01*
X163686809Y-77039989D01*
X163686687Y-77038674D01*
X163679123Y-76952219D01*
X163678587Y-76946087D01*
X163677100Y-76940968D01*
X163676580Y-76935667D01*
X163649718Y-76846694D01*
X163649362Y-76845494D01*
X163643534Y-76825434D01*
X163623409Y-76756163D01*
X163620955Y-76751429D01*
X163619416Y-76746331D01*
X163616521Y-76740886D01*
X163575816Y-76664331D01*
X163575202Y-76663163D01*
X163535226Y-76586041D01*
X163535225Y-76586040D01*
X163532392Y-76580574D01*
X163529069Y-76576411D01*
X163526566Y-76571704D01*
X163467745Y-76499582D01*
X163467054Y-76498726D01*
X163435762Y-76459527D01*
X163433258Y-76457023D01*
X163432616Y-76456305D01*
X163428915Y-76451972D01*
X163401565Y-76418438D01*
X163366237Y-76389212D01*
X163357458Y-76381223D01*
X163124330Y-76148095D01*
X163090304Y-76085783D01*
X163095369Y-76014968D01*
X163137916Y-75958132D01*
X163204436Y-75933321D01*
X163213425Y-75933000D01*
X166866000Y-75933000D01*
X166934121Y-75953002D01*
G37*
%TD.AperFunction*%
%TA.AperFunction,Conductor*%
G36*
X146533621Y-68428982D02*
G01*
X146580114Y-68482638D01*
X146591500Y-68534980D01*
X146591500Y-69100400D01*
X146602474Y-69206166D01*
X146658450Y-69373946D01*
X146751522Y-69524348D01*
X146756704Y-69529521D01*
X146838109Y-69610784D01*
X146872188Y-69673066D01*
X146867185Y-69743886D01*
X146838264Y-69788975D01*
X146750695Y-69876697D01*
X146746855Y-69882927D01*
X146746854Y-69882928D01*
X146670611Y-70006616D01*
X146617838Y-70054110D01*
X146563351Y-70066500D01*
X133978768Y-70066500D01*
X133967585Y-70065973D01*
X133960092Y-70064298D01*
X133952166Y-70064547D01*
X133952165Y-70064547D01*
X133892002Y-70066438D01*
X133888044Y-70066500D01*
X133860144Y-70066500D01*
X133856154Y-70067004D01*
X133844320Y-70067936D01*
X133800111Y-70069326D01*
X133792495Y-70071539D01*
X133792493Y-70071539D01*
X133780652Y-70074979D01*
X133761293Y-70078988D01*
X133759983Y-70079154D01*
X133741203Y-70081526D01*
X133733837Y-70084442D01*
X133733831Y-70084444D01*
X133700098Y-70097800D01*
X133688868Y-70101645D01*
X133654017Y-70111770D01*
X133646407Y-70113981D01*
X133639584Y-70118016D01*
X133628966Y-70124295D01*
X133611213Y-70132992D01*
X133603568Y-70136019D01*
X133592383Y-70140448D01*
X133585968Y-70145109D01*
X133556612Y-70166437D01*
X133546695Y-70172951D01*
X133508638Y-70195458D01*
X133494317Y-70209779D01*
X133479284Y-70222619D01*
X133462893Y-70234528D01*
X133436516Y-70266413D01*
X133434712Y-70268593D01*
X133426722Y-70277374D01*
X132947742Y-70756353D01*
X132939463Y-70763887D01*
X132932982Y-70768000D01*
X132886357Y-70817651D01*
X132883602Y-70820493D01*
X132863865Y-70840230D01*
X132861385Y-70843427D01*
X132853682Y-70852447D01*
X132823414Y-70884679D01*
X132819595Y-70891625D01*
X132819593Y-70891628D01*
X132813652Y-70902434D01*
X132802801Y-70918953D01*
X132790386Y-70934959D01*
X132787241Y-70942228D01*
X132787238Y-70942232D01*
X132772826Y-70975537D01*
X132767609Y-70986187D01*
X132746305Y-71024940D01*
X132744334Y-71032615D01*
X132744334Y-71032616D01*
X132741267Y-71044562D01*
X132734863Y-71063266D01*
X132732307Y-71069174D01*
X132726819Y-71081855D01*
X132725580Y-71089678D01*
X132725577Y-71089688D01*
X132719901Y-71125524D01*
X132717495Y-71137144D01*
X132711177Y-71161753D01*
X132706500Y-71179970D01*
X132706500Y-71200224D01*
X132704949Y-71219934D01*
X132701780Y-71239943D01*
X132702526Y-71247835D01*
X132705941Y-71283961D01*
X132706500Y-71295819D01*
X132706500Y-73098418D01*
X132686498Y-73166539D01*
X132645865Y-73206137D01*
X132511682Y-73287561D01*
X132511677Y-73287565D01*
X132507117Y-73290332D01*
X132503087Y-73293829D01*
X132359790Y-73418176D01*
X132326581Y-73446993D01*
X132323198Y-73451119D01*
X132323194Y-73451123D01*
X132247702Y-73543193D01*
X132175022Y-73631833D01*
X132056773Y-73839566D01*
X131975216Y-74064253D01*
X131974267Y-74069502D01*
X131974266Y-74069505D01*
X131933420Y-74295385D01*
X131933419Y-74295393D01*
X131932682Y-74299469D01*
X131931500Y-74324532D01*
X131931500Y-76292512D01*
X131946617Y-76470675D01*
X131947957Y-76475839D01*
X131947958Y-76475843D01*
X132005285Y-76696711D01*
X132006668Y-76702040D01*
X132008860Y-76706906D01*
X132064345Y-76830077D01*
X132104843Y-76919980D01*
X132238334Y-77118262D01*
X132242013Y-77122119D01*
X132242015Y-77122121D01*
X132247386Y-77127751D01*
X132403326Y-77291218D01*
X132407603Y-77294401D01*
X132407604Y-77294401D01*
X132419836Y-77303502D01*
X132595100Y-77433902D01*
X132599861Y-77436322D01*
X132599860Y-77436322D01*
X132637604Y-77455512D01*
X132689262Y-77504215D01*
X132706500Y-77567829D01*
X132706500Y-80597305D01*
X132705973Y-80608488D01*
X132704298Y-80615981D01*
X132704547Y-80623907D01*
X132704547Y-80623908D01*
X132706438Y-80684058D01*
X132706500Y-80688017D01*
X132706500Y-80715928D01*
X132706997Y-80719862D01*
X132706997Y-80719863D01*
X132707005Y-80719928D01*
X132707938Y-80731765D01*
X132709327Y-80775961D01*
X132714978Y-80795411D01*
X132718987Y-80814772D01*
X132721526Y-80834869D01*
X132724445Y-80842240D01*
X132724445Y-80842242D01*
X132737804Y-80875984D01*
X132741649Y-80887214D01*
X132753982Y-80929665D01*
X132758015Y-80936484D01*
X132758017Y-80936489D01*
X132764293Y-80947100D01*
X132772988Y-80964848D01*
X132780448Y-80983689D01*
X132785110Y-80990105D01*
X132785110Y-80990106D01*
X132806436Y-81019459D01*
X132812952Y-81029379D01*
X132835458Y-81067434D01*
X132849779Y-81081755D01*
X132862619Y-81096788D01*
X132874528Y-81113179D01*
X132908605Y-81141370D01*
X132917384Y-81149360D01*
X133154595Y-81386571D01*
X133188621Y-81448883D01*
X133191500Y-81475666D01*
X133191500Y-81851502D01*
X133191694Y-81853963D01*
X133191694Y-81853971D01*
X133192053Y-81858537D01*
X133177455Y-81928017D01*
X133127610Y-81978574D01*
X133058345Y-81994158D01*
X132991650Y-81969820D01*
X132977345Y-81957513D01*
X132858375Y-81838542D01*
X132415404Y-81395571D01*
X132381379Y-81333259D01*
X132378500Y-81306476D01*
X132378500Y-79166793D01*
X132380732Y-79143184D01*
X132380790Y-79142881D01*
X132380790Y-79142877D01*
X132382275Y-79135094D01*
X132378749Y-79079049D01*
X132378500Y-79071138D01*
X132378500Y-79055144D01*
X132376494Y-79039270D01*
X132375751Y-79031402D01*
X132375467Y-79026876D01*
X132372225Y-78975350D01*
X132369679Y-78967513D01*
X132364506Y-78944369D01*
X132364468Y-78944065D01*
X132364467Y-78944060D01*
X132363474Y-78936203D01*
X132360558Y-78928838D01*
X132360557Y-78928834D01*
X132342801Y-78883989D01*
X132340129Y-78876570D01*
X132322764Y-78823125D01*
X132318514Y-78816428D01*
X132318350Y-78816169D01*
X132307585Y-78795042D01*
X132307471Y-78794754D01*
X132307468Y-78794749D01*
X132304552Y-78787383D01*
X132299896Y-78780975D01*
X132299893Y-78780969D01*
X132271542Y-78741948D01*
X132267092Y-78735401D01*
X132237000Y-78687982D01*
X132230993Y-78682341D01*
X132215312Y-78664554D01*
X132215134Y-78664309D01*
X132215132Y-78664307D01*
X132210472Y-78657893D01*
X132204362Y-78652838D01*
X132167204Y-78622097D01*
X132161270Y-78616866D01*
X132126102Y-78583842D01*
X132126099Y-78583840D01*
X132120321Y-78578414D01*
X132113097Y-78574442D01*
X132093494Y-78561119D01*
X132093254Y-78560920D01*
X132093247Y-78560916D01*
X132087144Y-78555867D01*
X132047600Y-78537259D01*
X132036324Y-78531953D01*
X132029292Y-78528371D01*
X131980060Y-78501305D01*
X131972385Y-78499335D01*
X131972379Y-78499332D01*
X131972081Y-78499256D01*
X131949772Y-78491224D01*
X131949497Y-78491094D01*
X131949489Y-78491091D01*
X131942318Y-78487717D01*
X131887151Y-78477194D01*
X131879442Y-78475471D01*
X131845449Y-78466743D01*
X131832707Y-78463471D01*
X131832706Y-78463471D01*
X131825030Y-78461500D01*
X131816793Y-78461500D01*
X131793184Y-78459268D01*
X131792881Y-78459210D01*
X131792877Y-78459210D01*
X131785094Y-78457725D01*
X131729049Y-78461251D01*
X131721138Y-78461500D01*
X131049950Y-78461500D01*
X130981829Y-78441498D01*
X130968729Y-78430941D01*
X130968675Y-78431011D01*
X130962415Y-78426155D01*
X130956807Y-78420547D01*
X130949983Y-78416511D01*
X130949980Y-78416509D01*
X130820427Y-78339892D01*
X130820428Y-78339892D01*
X130813601Y-78335855D01*
X130805990Y-78333644D01*
X130805988Y-78333643D01*
X130753769Y-78318472D01*
X130653831Y-78289438D01*
X130647426Y-78288934D01*
X130647421Y-78288933D01*
X130618958Y-78286693D01*
X130618950Y-78286693D01*
X130616502Y-78286500D01*
X128833498Y-78286500D01*
X128831050Y-78286693D01*
X128831042Y-78286693D01*
X128802579Y-78288933D01*
X128802574Y-78288934D01*
X128796169Y-78289438D01*
X128696231Y-78318472D01*
X128644012Y-78333643D01*
X128644010Y-78333644D01*
X128636399Y-78335855D01*
X128629572Y-78339892D01*
X128629573Y-78339892D01*
X128500020Y-78416509D01*
X128500017Y-78416511D01*
X128493193Y-78420547D01*
X128375547Y-78538193D01*
X128371511Y-78545017D01*
X128371509Y-78545020D01*
X128351760Y-78578414D01*
X128290855Y-78681399D01*
X128288644Y-78689010D01*
X128288643Y-78689012D01*
X128284850Y-78702069D01*
X128244438Y-78841169D01*
X128243934Y-78847574D01*
X128243933Y-78847579D01*
X128242199Y-78869612D01*
X128241500Y-78878498D01*
X128241500Y-79311502D01*
X128241693Y-79313950D01*
X128241693Y-79313958D01*
X128243932Y-79342401D01*
X128244438Y-79348831D01*
X128290855Y-79508601D01*
X128375547Y-79651807D01*
X128378487Y-79654747D01*
X128403820Y-79719266D01*
X128389921Y-79788889D01*
X128377874Y-79807636D01*
X128371910Y-79815324D01*
X128295352Y-79944779D01*
X128289107Y-79959210D01*
X128252042Y-80086785D01*
X128213828Y-80146620D01*
X128149332Y-80176297D01*
X128079029Y-80166393D01*
X128025242Y-80120053D01*
X128016944Y-80105081D01*
X128012242Y-80095043D01*
X127926937Y-79957193D01*
X127917901Y-79945792D01*
X127803171Y-79831261D01*
X127791760Y-79822249D01*
X127653757Y-79737184D01*
X127640576Y-79731037D01*
X127486290Y-79679862D01*
X127472914Y-79676995D01*
X127378562Y-79667328D01*
X127372145Y-79667000D01*
X127122115Y-79667000D01*
X127106876Y-79671475D01*
X127105671Y-79672865D01*
X127104000Y-79680548D01*
X127104000Y-80890500D01*
X127083998Y-80958621D01*
X127030342Y-81005114D01*
X126978000Y-81016500D01*
X126722000Y-81016500D01*
X126653879Y-80996498D01*
X126607386Y-80942842D01*
X126596000Y-80890500D01*
X126596000Y-79685116D01*
X126591525Y-79669877D01*
X126590135Y-79668672D01*
X126582452Y-79667001D01*
X126559980Y-79667001D01*
X126491859Y-79646999D01*
X126445366Y-79593343D01*
X126433980Y-79541001D01*
X126433980Y-76644445D01*
X126453982Y-76576324D01*
X126470885Y-76555350D01*
X126736395Y-76289840D01*
X128122000Y-76289840D01*
X128122225Y-76295149D01*
X128136660Y-76465271D01*
X128138452Y-76475759D01*
X128195801Y-76696711D01*
X128199333Y-76706739D01*
X128293085Y-76914863D01*
X128298265Y-76924169D01*
X128425747Y-77113524D01*
X128432406Y-77121807D01*
X128589971Y-77286978D01*
X128597942Y-77294030D01*
X128781082Y-77430290D01*
X128790119Y-77435894D01*
X128993606Y-77539351D01*
X129003459Y-77543352D01*
X129221461Y-77611044D01*
X129231848Y-77613328D01*
X129258043Y-77616800D01*
X129272207Y-77614604D01*
X129276000Y-77601419D01*
X129276000Y-77599782D01*
X129784000Y-77599782D01*
X129787973Y-77613313D01*
X129798580Y-77614838D01*
X129930840Y-77587087D01*
X129941037Y-77584027D01*
X130153340Y-77500185D01*
X130162876Y-77495451D01*
X130358025Y-77377032D01*
X130366618Y-77370766D01*
X130539027Y-77221158D01*
X130546447Y-77213528D01*
X130691180Y-77037012D01*
X130697206Y-77028245D01*
X130810129Y-76829867D01*
X130814595Y-76820203D01*
X130892481Y-76605632D01*
X130895251Y-76595365D01*
X130936081Y-76369568D01*
X130937016Y-76361338D01*
X130937930Y-76341950D01*
X130938000Y-76338974D01*
X130938000Y-75604615D01*
X130933525Y-75589376D01*
X130932135Y-75588171D01*
X130924452Y-75586500D01*
X129802115Y-75586500D01*
X129786876Y-75590975D01*
X129785671Y-75592365D01*
X129784000Y-75600048D01*
X129784000Y-77599782D01*
X129276000Y-77599782D01*
X129276000Y-75604615D01*
X129271525Y-75589376D01*
X129270135Y-75588171D01*
X129262452Y-75586500D01*
X128140115Y-75586500D01*
X128124876Y-75590975D01*
X128123671Y-75592365D01*
X128122000Y-75600048D01*
X128122000Y-76289840D01*
X126736395Y-76289840D01*
X127949303Y-75076932D01*
X128011615Y-75042906D01*
X128082430Y-75047971D01*
X128120911Y-75070803D01*
X128127865Y-75076829D01*
X128135548Y-75078500D01*
X130919885Y-75078500D01*
X130935124Y-75074025D01*
X130936329Y-75072635D01*
X130938000Y-75064952D01*
X130938000Y-74375160D01*
X130937775Y-74369851D01*
X130923340Y-74199729D01*
X130921548Y-74189241D01*
X130864199Y-73968289D01*
X130860667Y-73958261D01*
X130766915Y-73750137D01*
X130761735Y-73740831D01*
X130634253Y-73551476D01*
X130627594Y-73543193D01*
X130470029Y-73378022D01*
X130462058Y-73370970D01*
X130278918Y-73234710D01*
X130269881Y-73229106D01*
X130111205Y-73148431D01*
X130059547Y-73099727D01*
X130042421Y-73030827D01*
X130065263Y-72963606D01*
X130079212Y-72947022D01*
X134580349Y-68445885D01*
X134642661Y-68411859D01*
X134669444Y-68408980D01*
X146465500Y-68408980D01*
X146533621Y-68428982D01*
G37*
%TD.AperFunction*%
%TA.AperFunction,Conductor*%
G36*
X150893621Y-70453502D02*
G01*
X150940114Y-70507158D01*
X150951500Y-70559500D01*
X150951500Y-70698134D01*
X150958255Y-70760316D01*
X151009385Y-70896705D01*
X151096739Y-71013261D01*
X151213295Y-71100615D01*
X151349684Y-71151745D01*
X151411866Y-71158500D01*
X152291405Y-71158500D01*
X152359526Y-71178502D01*
X152406019Y-71232158D01*
X152416123Y-71302432D01*
X152386629Y-71367012D01*
X152380500Y-71373595D01*
X151699980Y-72054115D01*
X151637668Y-72088141D01*
X151610885Y-72091020D01*
X137754247Y-72091020D01*
X137743064Y-72090493D01*
X137735571Y-72088818D01*
X137727645Y-72089067D01*
X137727644Y-72089067D01*
X137667481Y-72090958D01*
X137663523Y-72091020D01*
X137635624Y-72091020D01*
X137631634Y-72091524D01*
X137619800Y-72092456D01*
X137575591Y-72093846D01*
X137567977Y-72096058D01*
X137567972Y-72096059D01*
X137556139Y-72099497D01*
X137536776Y-72103508D01*
X137516683Y-72106046D01*
X137509316Y-72108963D01*
X137509311Y-72108964D01*
X137475572Y-72122322D01*
X137464345Y-72126166D01*
X137421887Y-72138502D01*
X137415061Y-72142539D01*
X137404452Y-72148813D01*
X137386704Y-72157508D01*
X137367863Y-72164968D01*
X137361447Y-72169630D01*
X137361446Y-72169630D01*
X137332093Y-72190956D01*
X137322173Y-72197472D01*
X137290945Y-72215940D01*
X137290942Y-72215942D01*
X137284118Y-72219978D01*
X137269797Y-72234299D01*
X137254764Y-72247139D01*
X137238373Y-72259048D01*
X137211996Y-72290933D01*
X137210192Y-72293113D01*
X137202202Y-72301894D01*
X136757742Y-72746353D01*
X136749463Y-72753887D01*
X136742982Y-72758000D01*
X136696357Y-72807651D01*
X136693602Y-72810493D01*
X136673865Y-72830230D01*
X136671385Y-72833427D01*
X136663682Y-72842447D01*
X136633414Y-72874679D01*
X136629595Y-72881625D01*
X136629593Y-72881628D01*
X136623652Y-72892434D01*
X136612801Y-72908953D01*
X136600386Y-72924959D01*
X136597241Y-72932228D01*
X136597238Y-72932232D01*
X136582826Y-72965537D01*
X136577609Y-72976187D01*
X136556305Y-73014940D01*
X136554334Y-73022615D01*
X136554334Y-73022616D01*
X136551267Y-73034562D01*
X136544863Y-73053266D01*
X136536819Y-73071855D01*
X136535579Y-73079684D01*
X136535578Y-73079687D01*
X136531034Y-73108370D01*
X136500620Y-73172522D01*
X136471952Y-73196375D01*
X136380998Y-73251568D01*
X136317117Y-73290332D01*
X136313087Y-73293829D01*
X136169790Y-73418176D01*
X136136581Y-73446993D01*
X136133198Y-73451119D01*
X136133194Y-73451123D01*
X136057702Y-73543193D01*
X135985022Y-73631833D01*
X135866773Y-73839566D01*
X135785216Y-74064253D01*
X135784267Y-74069502D01*
X135784266Y-74069505D01*
X135743420Y-74295385D01*
X135743419Y-74295393D01*
X135742682Y-74299469D01*
X135741500Y-74324532D01*
X135741500Y-76292512D01*
X135756617Y-76470675D01*
X135757957Y-76475839D01*
X135757958Y-76475843D01*
X135815285Y-76696711D01*
X135816668Y-76702040D01*
X135818860Y-76706906D01*
X135874345Y-76830077D01*
X135914843Y-76919980D01*
X136048334Y-77118262D01*
X136052013Y-77122119D01*
X136052015Y-77122121D01*
X136057386Y-77127751D01*
X136213326Y-77291218D01*
X136217603Y-77294401D01*
X136217604Y-77294401D01*
X136229836Y-77303502D01*
X136405100Y-77433902D01*
X136409861Y-77436322D01*
X136409860Y-77436322D01*
X136447604Y-77455512D01*
X136499262Y-77504215D01*
X136516500Y-77567829D01*
X136516500Y-77575405D01*
X136496498Y-77643526D01*
X136479595Y-77664501D01*
X135850881Y-78293214D01*
X135788569Y-78327239D01*
X135726633Y-78325115D01*
X135718393Y-78322721D01*
X135603831Y-78289438D01*
X135597426Y-78288934D01*
X135597421Y-78288933D01*
X135568958Y-78286693D01*
X135568950Y-78286693D01*
X135566502Y-78286500D01*
X134099500Y-78286500D01*
X134031379Y-78266498D01*
X133984886Y-78212842D01*
X133973500Y-78160500D01*
X133973500Y-77566582D01*
X133993502Y-77498461D01*
X134034135Y-77458863D01*
X134168318Y-77377439D01*
X134168325Y-77377434D01*
X134172883Y-77374668D01*
X134254895Y-77303502D01*
X134349386Y-77221507D01*
X134349388Y-77221505D01*
X134353419Y-77218007D01*
X134356802Y-77213881D01*
X134356806Y-77213877D01*
X134495213Y-77045076D01*
X134504978Y-77033167D01*
X134521285Y-77004521D01*
X134620584Y-76830077D01*
X134623227Y-76825434D01*
X134704784Y-76600747D01*
X134705734Y-76595495D01*
X134746580Y-76369615D01*
X134746581Y-76369607D01*
X134747318Y-76365531D01*
X134748500Y-76340468D01*
X134748500Y-74372488D01*
X134733383Y-74194325D01*
X134724017Y-74158240D01*
X134674673Y-73968125D01*
X134674671Y-73968120D01*
X134673332Y-73962960D01*
X134617747Y-73839566D01*
X134577347Y-73749881D01*
X134577346Y-73749878D01*
X134575157Y-73745020D01*
X134441666Y-73546738D01*
X134419677Y-73523687D01*
X134293922Y-73391863D01*
X134276674Y-73373782D01*
X134084900Y-73231098D01*
X134042396Y-73209488D01*
X133990738Y-73160785D01*
X133973500Y-73097171D01*
X133973500Y-71574594D01*
X133993502Y-71506473D01*
X134010405Y-71485499D01*
X134125499Y-71370405D01*
X134187811Y-71336379D01*
X134214594Y-71333500D01*
X146563219Y-71333500D01*
X146631340Y-71353502D01*
X146670363Y-71393197D01*
X146751522Y-71524348D01*
X146876697Y-71649305D01*
X146882927Y-71653145D01*
X146882928Y-71653146D01*
X147020090Y-71737694D01*
X147027262Y-71742115D01*
X147107005Y-71768564D01*
X147188611Y-71795632D01*
X147188613Y-71795632D01*
X147195139Y-71797797D01*
X147201975Y-71798497D01*
X147201978Y-71798498D01*
X147245031Y-71802909D01*
X147299600Y-71808500D01*
X148300400Y-71808500D01*
X148303646Y-71808163D01*
X148303650Y-71808163D01*
X148399308Y-71798238D01*
X148399312Y-71798237D01*
X148406166Y-71797526D01*
X148412702Y-71795345D01*
X148412704Y-71795345D01*
X148544806Y-71751272D01*
X148573946Y-71741550D01*
X148724348Y-71648478D01*
X148849305Y-71523303D01*
X148874540Y-71482365D01*
X148938275Y-71378968D01*
X148938276Y-71378966D01*
X148942115Y-71372738D01*
X148983543Y-71247835D01*
X148995632Y-71211389D01*
X148995632Y-71211387D01*
X148997797Y-71204861D01*
X149008500Y-71100400D01*
X149008500Y-70559500D01*
X149028502Y-70491379D01*
X149082158Y-70444886D01*
X149134500Y-70433500D01*
X150825500Y-70433500D01*
X150893621Y-70453502D01*
G37*
%TD.AperFunction*%
%TD*%
M02*
