M48
; DRILL file {KiCad 6.0.2+dfsg-1} date ons 15 jun 2022 15:33:51
; FORMAT={-:-/ absolute / inch / decimal}
; #@! TF.CreationDate,2022-06-15T15:33:51+02:00
; #@! TF.GenerationSoftware,Kicad,Pcbnew,6.0.2+dfsg-1
; #@! TF.FileFunction,MixedPlating,1,2
FMAT,2
INCH
; #@! TA.AperFunction,Plated,PTH,ViaDrill
T1C0.0157
; #@! TA.AperFunction,Plated,PTH,ComponentDrill
T2C0.0315
; #@! TA.AperFunction,Plated,PTH,ComponentDrill
T3C0.0354
; #@! TA.AperFunction,Plated,PTH,ComponentDrill
T4C0.0394
%
G90
G05
T1
X4.7579Y-2.937
X5.0374Y-3.1122
X5.063Y-2.9193
X5.0682Y-2.8205
X5.0682Y-3.0105
X5.189Y-2.6614
X5.1969Y-3.6654
X5.1982Y-3.0105
X5.2539Y-3.0748
X5.2582Y-2.8205
X5.3031Y-2.6713
X5.3082Y-3.5605
X5.3082Y-3.6905
X5.3782Y-2.8305
X5.4382Y-2.8905
X5.5082Y-3.1805
X5.5082Y-3.4805
X5.5217Y-3.7224
X5.5382Y-3.5605
X5.5882Y-2.7705
X5.5965Y-2.5906
X5.6282Y-2.9905
X5.6682Y-2.7605
X5.6982Y-2.9905
X5.6982Y-3.7205
X5.7082Y-3.3305
X5.7382Y-2.6105
X5.7682Y-2.9905
X5.9291Y-2.7657
X5.9482Y-3.7205
X5.9982Y-2.7605
X6.0082Y-2.7005
X6.0435Y-2.3652
X6.0482Y-2.1905
X6.0482Y-2.3205
X6.063Y-2.5256
X6.0882Y-2.6605
X6.1582Y-3.5905
X6.2582Y-2.2705
X6.2598Y-2.5295
X6.5098Y-2.7165
X6.8091Y-2.7244
X6.8287Y-3.8268
T2
X5.1282Y-2.5105
X5.2266Y-2.5105
T3
X6.3282Y-2.3605
X6.4282Y-2.3605
X6.5282Y-2.3605
T4
X4.6343Y-2.8344
X4.6343Y-2.9344
X4.6343Y-3.0344
X4.6343Y-3.1344
X4.6343Y-3.2344
X4.6343Y-3.3344
X4.9482Y-3.5805
X4.9482Y-3.6805
X5.0827Y-3.8425
X5.1827Y-3.8425
X5.2827Y-3.8425
X5.3827Y-3.8425
X6.2776Y-3.8406
X6.3776Y-3.8406
X6.4776Y-3.8406
X6.5776Y-3.8406
T0
M30
