%TF.GenerationSoftware,KiCad,Pcbnew,6.0.2+dfsg-1*%
%TF.CreationDate,2022-06-15T15:33:44+02:00*%
%TF.ProjectId,vscp-din-wireless-esp32-can,76736370-2d64-4696-9e2d-776972656c65,rev?*%
%TF.SameCoordinates,Original*%
%TF.FileFunction,Copper,L2,Bot*%
%TF.FilePolarity,Positive*%
%FSLAX46Y46*%
G04 Gerber Fmt 4.6, Leading zero omitted, Abs format (unit mm)*
G04 Created by KiCad (PCBNEW 6.0.2+dfsg-1) date 2022-06-15 15:33:44*
%MOMM*%
%LPD*%
G01*
G04 APERTURE LIST*
%TA.AperFunction,ComponentPad*%
%ADD10O,1.700000X1.700000*%
%TD*%
%TA.AperFunction,ComponentPad*%
%ADD11R,1.700000X1.700000*%
%TD*%
%TA.AperFunction,ComponentPad*%
%ADD12C,1.800000*%
%TD*%
%TA.AperFunction,ComponentPad*%
%ADD13R,1.800000X1.800000*%
%TD*%
%TA.AperFunction,ComponentPad*%
%ADD14R,1.600000X1.600000*%
%TD*%
%TA.AperFunction,ComponentPad*%
%ADD15C,1.600000*%
%TD*%
%TA.AperFunction,ViaPad*%
%ADD16C,0.800000*%
%TD*%
%TA.AperFunction,Conductor*%
%ADD17C,0.250000*%
%TD*%
G04 APERTURE END LIST*
D10*
%TO.P,J1,4*%
%TO.N,GND*%
X136720000Y-97600000D03*
%TO.P,J1,3*%
%TO.N,Net-(D2-Pad1)*%
X134180000Y-97600000D03*
%TO.P,J1,2*%
%TO.N,Net-(D2-Pad2)*%
X131640000Y-97600000D03*
D11*
%TO.P,J1,1*%
%TO.N,Net-(J1-Pad1)*%
X129100000Y-97600000D03*
%TD*%
D10*
%TO.P,J4,2*%
%TO.N,Net-(D2-Pad2)*%
X125684000Y-93484000D03*
D11*
%TO.P,J4,1*%
%TO.N,Net-(J4-Pad1)*%
X125684000Y-90944000D03*
%TD*%
D12*
%TO.P,D1,3*%
%TO.N,/leda*%
X165816000Y-59956000D03*
%TO.P,D1,2*%
%TO.N,Net-(D1-Pad2)*%
X163276000Y-59956000D03*
D13*
%TO.P,D1,1*%
%TO.N,/ledb*%
X160736000Y-59956000D03*
%TD*%
D14*
%TO.P,C2,1*%
%TO.N,VCC*%
X130256000Y-63766000D03*
D15*
%TO.P,C2,2*%
%TO.N,GND*%
X132756000Y-63766000D03*
%TD*%
D10*
%TO.P,J2,4*%
%TO.N,Net-(J2-Pad4)*%
X167070000Y-97550000D03*
%TO.P,J2,3*%
%TO.N,Net-(J2-Pad3)*%
X164530000Y-97550000D03*
%TO.P,J2,2*%
%TO.N,VCC*%
X161990000Y-97550000D03*
D11*
%TO.P,J2,1*%
%TO.N,GND*%
X159450000Y-97550000D03*
%TD*%
D10*
%TO.P,J3,6*%
%TO.N,GND*%
X117710600Y-84695000D03*
%TO.P,J3,5*%
%TO.N,VCC*%
X117710600Y-82155000D03*
%TO.P,J3,4*%
%TO.N,/RESET*%
X117710600Y-79615000D03*
%TO.P,J3,3*%
%TO.N,/RXD*%
X117710600Y-77075000D03*
%TO.P,J3,2*%
%TO.N,/TXD*%
X117710600Y-74535000D03*
D11*
%TO.P,J3,1*%
%TO.N,/FLASH*%
X117710600Y-71995000D03*
%TD*%
D16*
%TO.N,GND*%
X120850000Y-74600000D03*
X134828000Y-90436000D03*
X134828000Y-93738000D03*
X138130000Y-73418000D03*
X139908000Y-88404000D03*
X156418000Y-91198000D03*
X140670000Y-90436000D03*
X133450000Y-78100000D03*
X172950000Y-69200000D03*
X173450000Y-97200000D03*
X150600000Y-70250000D03*
X127950000Y-79050000D03*
X159000000Y-64250000D03*
X140250000Y-94550000D03*
X132000000Y-93100000D03*
X128600000Y-74150000D03*
X142150000Y-65800000D03*
X134700000Y-67850000D03*
X165350000Y-69000000D03*
X131800000Y-67600000D03*
X154000000Y-64150000D03*
%TO.N,/reset*%
X132034000Y-76466000D03*
X128732000Y-76466000D03*
%TO.N,/leda*%
X154640000Y-67576000D03*
%TO.N,/ledb*%
X152608000Y-68592000D03*
%TO.N,/TXD*%
X153624000Y-58940000D03*
%TO.N,/RXD*%
X153504000Y-60076000D03*
%TO.N,Net-(R5-Pad1)*%
X128732000Y-71640000D03*
X133558000Y-71640000D03*
%TO.N,/CS*%
X144988000Y-84594000D03*
X152354000Y-70116000D03*
%TO.N,/irq0*%
X153624000Y-55638000D03*
X158958000Y-57670000D03*
X146512000Y-75958000D03*
X145750000Y-66306000D03*
%TO.N,/rxcan*%
X144734000Y-94500000D03*
X151084000Y-94500000D03*
%TO.N,/MOSI*%
X144734000Y-75958000D03*
X143972000Y-70116000D03*
%TO.N,/MISO*%
X139908000Y-80784000D03*
X136606000Y-71894000D03*
%TO.N,/SCK*%
X142956000Y-75958000D03*
X141940000Y-70370000D03*
%TD*%
D17*
%TO.N,/reset*%
X128732000Y-76466000D02*
X132034000Y-76466000D01*
%TO.N,/leda*%
X154640000Y-67576000D02*
X165562000Y-67576000D01*
X165816000Y-67322000D02*
X165816000Y-59956000D01*
X165562000Y-67576000D02*
X165816000Y-67322000D01*
%TO.N,/ledb*%
X160736000Y-59956000D02*
X160736000Y-64077002D01*
X160736000Y-64077002D02*
X160736000Y-66306000D01*
X160736000Y-66306000D02*
X160228000Y-66814000D01*
X152608000Y-68534998D02*
X152608000Y-68592000D01*
X154328998Y-66814000D02*
X152608000Y-68534998D01*
X160228000Y-66814000D02*
X154328998Y-66814000D01*
%TO.N,/TXD*%
X152157002Y-58940000D02*
X153624000Y-58940000D01*
X128478000Y-58940000D02*
X152157002Y-58940000D01*
X127716000Y-59702000D02*
X128478000Y-58940000D01*
X127716000Y-70116000D02*
X127716000Y-59702000D01*
X127216000Y-70616000D02*
X127716000Y-70116000D01*
X121629600Y-70616000D02*
X127216000Y-70616000D01*
X117710600Y-74535000D02*
X121629600Y-70616000D01*
%TO.N,/RXD*%
X128166010Y-60013990D02*
X128166009Y-70302401D01*
X128732000Y-59448000D02*
X128166010Y-60013990D01*
X152608000Y-59448000D02*
X128732000Y-59448000D01*
X128166009Y-70302401D02*
X127082410Y-71386000D01*
X153504000Y-60076000D02*
X152608000Y-59448000D01*
X127082410Y-71386000D02*
X123018410Y-71386000D01*
X117710600Y-77075000D02*
X120625000Y-77075000D01*
X120625000Y-77075000D02*
X122300000Y-75400000D01*
X122300000Y-72104410D02*
X123018410Y-71386000D01*
X122300000Y-75400000D02*
X122300000Y-72104410D01*
%TO.N,Net-(R5-Pad1)*%
X133558000Y-71640000D02*
X128732000Y-71640000D01*
%TO.N,/CS*%
X144988000Y-84594000D02*
X150068000Y-84594000D01*
X150068000Y-84594000D02*
X150830000Y-83832000D01*
X150830000Y-83832000D02*
X150830000Y-76974000D01*
X152354000Y-75450000D02*
X152354000Y-70116000D01*
X150830000Y-76974000D02*
X152354000Y-75450000D01*
%TO.N,/irq0*%
X156926000Y-55638000D02*
X158958000Y-57670000D01*
X153624000Y-55638000D02*
X156926000Y-55638000D01*
X145750000Y-75196000D02*
X145750000Y-66306000D01*
X146512000Y-75958000D02*
X145750000Y-75196000D01*
%TO.N,/rxcan*%
X144734000Y-94500000D02*
X151084000Y-94500000D01*
%TO.N,/MOSI*%
X144734000Y-75958000D02*
X144734000Y-70878000D01*
X144734000Y-70878000D02*
X143972000Y-70116000D01*
%TO.N,/MISO*%
X136606000Y-77482000D02*
X136606000Y-71894000D01*
X139908000Y-80784000D02*
X136606000Y-77482000D01*
%TO.N,/SCK*%
X141940000Y-74942000D02*
X141940000Y-70370000D01*
X142956000Y-75958000D02*
X141940000Y-74942000D01*
%TD*%
%TA.AperFunction,Conductor*%
%TO.N,GND*%
G36*
X168534121Y-53928002D02*
G01*
X168580614Y-53981658D01*
X168592000Y-54034000D01*
X168592000Y-67391298D01*
X168591998Y-67392068D01*
X168591524Y-67469652D01*
X168593990Y-67478281D01*
X168593991Y-67478286D01*
X168599639Y-67498048D01*
X168603217Y-67514809D01*
X168606130Y-67535152D01*
X168606133Y-67535162D01*
X168607405Y-67544045D01*
X168618021Y-67567395D01*
X168624464Y-67584907D01*
X168631512Y-67609565D01*
X168647274Y-67634548D01*
X168655404Y-67649614D01*
X168667633Y-67676510D01*
X168684374Y-67695939D01*
X168695479Y-67710947D01*
X168709160Y-67732631D01*
X168722681Y-67744572D01*
X168731296Y-67752181D01*
X168743340Y-67764373D01*
X168762619Y-67786747D01*
X168770147Y-67791626D01*
X168770150Y-67791629D01*
X168784139Y-67800696D01*
X168799013Y-67811986D01*
X168803360Y-67815825D01*
X168818228Y-67828956D01*
X168826354Y-67832771D01*
X168826355Y-67832772D01*
X168832021Y-67835432D01*
X168844966Y-67841510D01*
X168859935Y-67849824D01*
X168884727Y-67865893D01*
X168893327Y-67868465D01*
X168909290Y-67873239D01*
X168926736Y-67879901D01*
X168949948Y-67890799D01*
X168979130Y-67895343D01*
X168995849Y-67899126D01*
X169015536Y-67905014D01*
X169015539Y-67905015D01*
X169024141Y-67907587D01*
X169033116Y-67907642D01*
X169033117Y-67907642D01*
X169039810Y-67907683D01*
X169058556Y-67907797D01*
X169059328Y-67907830D01*
X169060423Y-67908000D01*
X169091298Y-67908000D01*
X169092068Y-67908002D01*
X169165716Y-67908452D01*
X169165717Y-67908452D01*
X169169652Y-67908476D01*
X169170996Y-67908092D01*
X169172341Y-67908000D01*
X179766000Y-67908000D01*
X179834121Y-67928002D01*
X179880614Y-67981658D01*
X179892000Y-68034000D01*
X179892000Y-98766000D01*
X179871998Y-98834121D01*
X179818342Y-98880614D01*
X179766000Y-98892000D01*
X167921739Y-98892000D01*
X167853618Y-98871998D01*
X167807125Y-98818342D01*
X167797021Y-98748068D01*
X167826515Y-98683488D01*
X167848571Y-98663421D01*
X167949860Y-98591173D01*
X167967156Y-98573938D01*
X168062461Y-98478965D01*
X168108096Y-98433489D01*
X168238453Y-98252077D01*
X168256968Y-98214616D01*
X168335136Y-98056453D01*
X168335137Y-98056451D01*
X168337430Y-98051811D01*
X168388768Y-97882837D01*
X168400865Y-97843023D01*
X168400865Y-97843021D01*
X168402370Y-97838069D01*
X168431529Y-97616590D01*
X168431611Y-97613240D01*
X168433074Y-97553365D01*
X168433074Y-97553361D01*
X168433156Y-97550000D01*
X168414852Y-97327361D01*
X168360431Y-97110702D01*
X168271354Y-96905840D01*
X168185168Y-96772617D01*
X168152822Y-96722617D01*
X168152820Y-96722614D01*
X168150014Y-96718277D01*
X167999670Y-96553051D01*
X167995619Y-96549852D01*
X167995615Y-96549848D01*
X167828414Y-96417800D01*
X167828410Y-96417798D01*
X167824359Y-96414598D01*
X167628789Y-96306638D01*
X167623920Y-96304914D01*
X167623916Y-96304912D01*
X167423087Y-96233795D01*
X167423083Y-96233794D01*
X167418212Y-96232069D01*
X167413119Y-96231162D01*
X167413116Y-96231161D01*
X167203373Y-96193800D01*
X167203367Y-96193799D01*
X167198284Y-96192894D01*
X167124452Y-96191992D01*
X166980081Y-96190228D01*
X166980079Y-96190228D01*
X166974911Y-96190165D01*
X166754091Y-96223955D01*
X166541756Y-96293357D01*
X166511443Y-96309137D01*
X166420195Y-96356638D01*
X166343607Y-96396507D01*
X166339474Y-96399610D01*
X166339471Y-96399612D01*
X166190180Y-96511703D01*
X166164965Y-96530635D01*
X166161393Y-96534373D01*
X166036502Y-96665064D01*
X166010629Y-96692138D01*
X165903201Y-96849621D01*
X165848293Y-96894621D01*
X165777768Y-96902792D01*
X165714021Y-96871538D01*
X165693324Y-96847054D01*
X165612822Y-96722617D01*
X165612820Y-96722614D01*
X165610014Y-96718277D01*
X165459670Y-96553051D01*
X165455619Y-96549852D01*
X165455615Y-96549848D01*
X165288414Y-96417800D01*
X165288410Y-96417798D01*
X165284359Y-96414598D01*
X165088789Y-96306638D01*
X165083920Y-96304914D01*
X165083916Y-96304912D01*
X164883087Y-96233795D01*
X164883083Y-96233794D01*
X164878212Y-96232069D01*
X164873119Y-96231162D01*
X164873116Y-96231161D01*
X164663373Y-96193800D01*
X164663367Y-96193799D01*
X164658284Y-96192894D01*
X164584452Y-96191992D01*
X164440081Y-96190228D01*
X164440079Y-96190228D01*
X164434911Y-96190165D01*
X164214091Y-96223955D01*
X164001756Y-96293357D01*
X163971443Y-96309137D01*
X163880195Y-96356638D01*
X163803607Y-96396507D01*
X163799474Y-96399610D01*
X163799471Y-96399612D01*
X163650180Y-96511703D01*
X163624965Y-96530635D01*
X163621393Y-96534373D01*
X163496502Y-96665064D01*
X163470629Y-96692138D01*
X163363201Y-96849621D01*
X163308293Y-96894621D01*
X163237768Y-96902792D01*
X163174021Y-96871538D01*
X163153324Y-96847054D01*
X163072822Y-96722617D01*
X163072820Y-96722614D01*
X163070014Y-96718277D01*
X162919670Y-96553051D01*
X162915619Y-96549852D01*
X162915615Y-96549848D01*
X162748414Y-96417800D01*
X162748410Y-96417798D01*
X162744359Y-96414598D01*
X162548789Y-96306638D01*
X162543920Y-96304914D01*
X162543916Y-96304912D01*
X162343087Y-96233795D01*
X162343083Y-96233794D01*
X162338212Y-96232069D01*
X162333119Y-96231162D01*
X162333116Y-96231161D01*
X162123373Y-96193800D01*
X162123367Y-96193799D01*
X162118284Y-96192894D01*
X162044452Y-96191992D01*
X161900081Y-96190228D01*
X161900079Y-96190228D01*
X161894911Y-96190165D01*
X161674091Y-96223955D01*
X161461756Y-96293357D01*
X161431443Y-96309137D01*
X161340195Y-96356638D01*
X161263607Y-96396507D01*
X161259474Y-96399610D01*
X161259471Y-96399612D01*
X161110180Y-96511703D01*
X161084965Y-96530635D01*
X161081393Y-96534373D01*
X161003898Y-96615466D01*
X160942374Y-96650895D01*
X160871462Y-96647438D01*
X160813676Y-96606192D01*
X160794823Y-96572644D01*
X160753324Y-96461946D01*
X160744786Y-96446351D01*
X160668285Y-96344276D01*
X160655724Y-96331715D01*
X160553649Y-96255214D01*
X160538054Y-96246676D01*
X160417606Y-96201522D01*
X160402351Y-96197895D01*
X160351486Y-96192369D01*
X160344672Y-96192000D01*
X159722115Y-96192000D01*
X159706876Y-96196475D01*
X159705671Y-96197865D01*
X159704000Y-96205548D01*
X159704000Y-97678000D01*
X159683998Y-97746121D01*
X159630342Y-97792614D01*
X159578000Y-97804000D01*
X158110116Y-97804000D01*
X158094877Y-97808475D01*
X158093672Y-97809865D01*
X158092001Y-97817548D01*
X158092001Y-98444669D01*
X158092371Y-98451490D01*
X158097895Y-98502352D01*
X158101521Y-98517604D01*
X158146676Y-98638054D01*
X158155214Y-98653648D01*
X158182784Y-98690435D01*
X158207632Y-98756941D01*
X158192579Y-98826324D01*
X158142405Y-98876554D01*
X158081958Y-98892000D01*
X137640976Y-98892000D01*
X137572855Y-98871998D01*
X137526362Y-98818342D01*
X137516258Y-98748068D01*
X137545752Y-98683488D01*
X137567808Y-98663421D01*
X137595328Y-98643792D01*
X137603200Y-98637139D01*
X137754052Y-98486812D01*
X137760730Y-98478965D01*
X137885003Y-98306020D01*
X137890313Y-98297183D01*
X137984670Y-98106267D01*
X137988469Y-98096672D01*
X138050377Y-97892910D01*
X138052555Y-97882837D01*
X138053986Y-97871962D01*
X138051775Y-97857778D01*
X138038617Y-97854000D01*
X136592000Y-97854000D01*
X136523879Y-97833998D01*
X136477386Y-97780342D01*
X136466000Y-97728000D01*
X136466000Y-97327885D01*
X136974000Y-97327885D01*
X136978475Y-97343124D01*
X136979865Y-97344329D01*
X136987548Y-97346000D01*
X138038344Y-97346000D01*
X138051875Y-97342027D01*
X138053180Y-97332947D01*
X138039349Y-97277885D01*
X158092000Y-97277885D01*
X158096475Y-97293124D01*
X158097865Y-97294329D01*
X158105548Y-97296000D01*
X159177885Y-97296000D01*
X159193124Y-97291525D01*
X159194329Y-97290135D01*
X159196000Y-97282452D01*
X159196000Y-96210116D01*
X159191525Y-96194877D01*
X159190135Y-96193672D01*
X159182452Y-96192001D01*
X158555331Y-96192001D01*
X158548510Y-96192371D01*
X158497648Y-96197895D01*
X158482396Y-96201521D01*
X158361946Y-96246676D01*
X158346351Y-96255214D01*
X158244276Y-96331715D01*
X158231715Y-96344276D01*
X158155214Y-96446351D01*
X158146676Y-96461946D01*
X158101522Y-96582394D01*
X158097895Y-96597649D01*
X158092369Y-96648514D01*
X158092000Y-96655328D01*
X158092000Y-97277885D01*
X138039349Y-97277885D01*
X138011214Y-97165875D01*
X138007894Y-97156124D01*
X137922972Y-96960814D01*
X137918105Y-96951739D01*
X137802426Y-96772926D01*
X137796136Y-96764757D01*
X137652806Y-96607240D01*
X137645273Y-96600215D01*
X137478139Y-96468222D01*
X137469552Y-96462517D01*
X137283117Y-96359599D01*
X137273705Y-96355369D01*
X137072959Y-96284280D01*
X137062988Y-96281646D01*
X136991837Y-96268972D01*
X136978540Y-96270432D01*
X136974000Y-96284989D01*
X136974000Y-97327885D01*
X136466000Y-97327885D01*
X136466000Y-96283102D01*
X136462082Y-96269758D01*
X136447806Y-96267771D01*
X136409324Y-96273660D01*
X136399288Y-96276051D01*
X136196868Y-96342212D01*
X136187359Y-96346209D01*
X135998463Y-96444542D01*
X135989738Y-96450036D01*
X135819433Y-96577905D01*
X135811726Y-96584748D01*
X135664590Y-96738717D01*
X135658109Y-96746722D01*
X135553498Y-96900074D01*
X135498587Y-96945076D01*
X135428062Y-96953247D01*
X135364315Y-96921993D01*
X135343618Y-96897509D01*
X135262822Y-96772617D01*
X135262820Y-96772614D01*
X135260014Y-96768277D01*
X135109670Y-96603051D01*
X135105619Y-96599852D01*
X135105615Y-96599848D01*
X134938414Y-96467800D01*
X134938410Y-96467798D01*
X134934359Y-96464598D01*
X134901305Y-96446351D01*
X134839260Y-96412101D01*
X134738789Y-96356638D01*
X134733920Y-96354914D01*
X134733916Y-96354912D01*
X134533087Y-96283795D01*
X134533083Y-96283794D01*
X134528212Y-96282069D01*
X134523119Y-96281162D01*
X134523116Y-96281161D01*
X134313373Y-96243800D01*
X134313367Y-96243799D01*
X134308284Y-96242894D01*
X134234452Y-96241992D01*
X134090081Y-96240228D01*
X134090079Y-96240228D01*
X134084911Y-96240165D01*
X133864091Y-96273955D01*
X133651756Y-96343357D01*
X133578757Y-96381358D01*
X133508753Y-96417800D01*
X133453607Y-96446507D01*
X133449474Y-96449610D01*
X133449471Y-96449612D01*
X133336580Y-96534373D01*
X133274965Y-96580635D01*
X133271393Y-96584373D01*
X133147082Y-96714457D01*
X133120629Y-96742138D01*
X133013201Y-96899621D01*
X132958293Y-96944621D01*
X132887768Y-96952792D01*
X132824021Y-96921538D01*
X132803324Y-96897054D01*
X132722822Y-96772617D01*
X132722820Y-96772614D01*
X132720014Y-96768277D01*
X132569670Y-96603051D01*
X132565619Y-96599852D01*
X132565615Y-96599848D01*
X132398414Y-96467800D01*
X132398410Y-96467798D01*
X132394359Y-96464598D01*
X132361305Y-96446351D01*
X132299260Y-96412101D01*
X132198789Y-96356638D01*
X132193920Y-96354914D01*
X132193916Y-96354912D01*
X131993087Y-96283795D01*
X131993083Y-96283794D01*
X131988212Y-96282069D01*
X131983119Y-96281162D01*
X131983116Y-96281161D01*
X131773373Y-96243800D01*
X131773367Y-96243799D01*
X131768284Y-96242894D01*
X131694452Y-96241992D01*
X131550081Y-96240228D01*
X131550079Y-96240228D01*
X131544911Y-96240165D01*
X131324091Y-96273955D01*
X131111756Y-96343357D01*
X131038757Y-96381358D01*
X130968753Y-96417800D01*
X130913607Y-96446507D01*
X130909474Y-96449610D01*
X130909471Y-96449612D01*
X130796580Y-96534373D01*
X130734965Y-96580635D01*
X130670099Y-96648514D01*
X130654283Y-96665064D01*
X130592759Y-96700494D01*
X130521846Y-96697037D01*
X130464060Y-96655791D01*
X130445207Y-96622243D01*
X130403767Y-96511703D01*
X130400615Y-96503295D01*
X130313261Y-96386739D01*
X130196705Y-96299385D01*
X130060316Y-96248255D01*
X129998134Y-96241500D01*
X128201866Y-96241500D01*
X128139684Y-96248255D01*
X128003295Y-96299385D01*
X127886739Y-96386739D01*
X127799385Y-96503295D01*
X127748255Y-96639684D01*
X127741500Y-96701866D01*
X127741500Y-98498134D01*
X127748255Y-98560316D01*
X127754600Y-98577240D01*
X127789020Y-98669056D01*
X127799385Y-98696705D01*
X127804768Y-98703888D01*
X127805646Y-98705491D01*
X127820815Y-98774848D01*
X127796079Y-98841396D01*
X127739291Y-98884006D01*
X127695126Y-98892000D01*
X116434000Y-98892000D01*
X116365879Y-98871998D01*
X116319386Y-98818342D01*
X116308000Y-98766000D01*
X116308000Y-93450695D01*
X124321251Y-93450695D01*
X124321548Y-93455848D01*
X124321548Y-93455851D01*
X124329449Y-93592872D01*
X124334110Y-93673715D01*
X124335247Y-93678761D01*
X124335248Y-93678767D01*
X124341430Y-93706197D01*
X124383222Y-93891639D01*
X124467266Y-94098616D01*
X124583987Y-94289088D01*
X124730250Y-94457938D01*
X124902126Y-94600632D01*
X125095000Y-94713338D01*
X125303692Y-94793030D01*
X125308760Y-94794061D01*
X125308763Y-94794062D01*
X125416017Y-94815883D01*
X125522597Y-94837567D01*
X125527772Y-94837757D01*
X125527774Y-94837757D01*
X125740673Y-94845564D01*
X125740677Y-94845564D01*
X125745837Y-94845753D01*
X125750957Y-94845097D01*
X125750959Y-94845097D01*
X125962288Y-94818025D01*
X125962289Y-94818025D01*
X125967416Y-94817368D01*
X125972366Y-94815883D01*
X126176429Y-94754661D01*
X126176434Y-94754659D01*
X126181384Y-94753174D01*
X126381994Y-94654896D01*
X126563860Y-94525173D01*
X126589121Y-94500000D01*
X143820496Y-94500000D01*
X143840458Y-94689928D01*
X143899473Y-94871556D01*
X143994960Y-95036944D01*
X144122747Y-95178866D01*
X144277248Y-95291118D01*
X144283276Y-95293802D01*
X144283278Y-95293803D01*
X144445681Y-95366109D01*
X144451712Y-95368794D01*
X144545113Y-95388647D01*
X144632056Y-95407128D01*
X144632061Y-95407128D01*
X144638513Y-95408500D01*
X144829487Y-95408500D01*
X144835939Y-95407128D01*
X144835944Y-95407128D01*
X144922888Y-95388647D01*
X145016288Y-95368794D01*
X145022319Y-95366109D01*
X145184722Y-95293803D01*
X145184724Y-95293802D01*
X145190752Y-95291118D01*
X145345253Y-95178866D01*
X145349668Y-95173963D01*
X145354580Y-95169540D01*
X145355705Y-95170789D01*
X145409014Y-95137949D01*
X145442200Y-95133500D01*
X150375800Y-95133500D01*
X150443921Y-95153502D01*
X150463147Y-95169843D01*
X150463420Y-95169540D01*
X150468332Y-95173963D01*
X150472747Y-95178866D01*
X150627248Y-95291118D01*
X150633276Y-95293802D01*
X150633278Y-95293803D01*
X150795681Y-95366109D01*
X150801712Y-95368794D01*
X150895113Y-95388647D01*
X150982056Y-95407128D01*
X150982061Y-95407128D01*
X150988513Y-95408500D01*
X151179487Y-95408500D01*
X151185939Y-95407128D01*
X151185944Y-95407128D01*
X151272888Y-95388647D01*
X151366288Y-95368794D01*
X151372319Y-95366109D01*
X151534722Y-95293803D01*
X151534724Y-95293802D01*
X151540752Y-95291118D01*
X151695253Y-95178866D01*
X151823040Y-95036944D01*
X151918527Y-94871556D01*
X151977542Y-94689928D01*
X151997504Y-94500000D01*
X151977542Y-94310072D01*
X151918527Y-94128444D01*
X151903849Y-94103020D01*
X151881314Y-94063990D01*
X151823040Y-93963056D01*
X151695253Y-93821134D01*
X151540752Y-93708882D01*
X151534724Y-93706198D01*
X151534722Y-93706197D01*
X151372319Y-93633891D01*
X151372318Y-93633891D01*
X151366288Y-93631206D01*
X151272887Y-93611353D01*
X151185944Y-93592872D01*
X151185939Y-93592872D01*
X151179487Y-93591500D01*
X150988513Y-93591500D01*
X150982061Y-93592872D01*
X150982056Y-93592872D01*
X150895113Y-93611353D01*
X150801712Y-93631206D01*
X150795682Y-93633891D01*
X150795681Y-93633891D01*
X150633278Y-93706197D01*
X150633276Y-93706198D01*
X150627248Y-93708882D01*
X150472747Y-93821134D01*
X150468332Y-93826037D01*
X150463420Y-93830460D01*
X150462295Y-93829211D01*
X150408986Y-93862051D01*
X150375800Y-93866500D01*
X145442200Y-93866500D01*
X145374079Y-93846498D01*
X145354853Y-93830157D01*
X145354580Y-93830460D01*
X145349668Y-93826037D01*
X145345253Y-93821134D01*
X145190752Y-93708882D01*
X145184724Y-93706198D01*
X145184722Y-93706197D01*
X145022319Y-93633891D01*
X145022318Y-93633891D01*
X145016288Y-93631206D01*
X144922887Y-93611353D01*
X144835944Y-93592872D01*
X144835939Y-93592872D01*
X144829487Y-93591500D01*
X144638513Y-93591500D01*
X144632061Y-93592872D01*
X144632056Y-93592872D01*
X144545113Y-93611353D01*
X144451712Y-93631206D01*
X144445682Y-93633891D01*
X144445681Y-93633891D01*
X144283278Y-93706197D01*
X144283276Y-93706198D01*
X144277248Y-93708882D01*
X144122747Y-93821134D01*
X143994960Y-93963056D01*
X143936686Y-94063990D01*
X143914152Y-94103020D01*
X143899473Y-94128444D01*
X143840458Y-94310072D01*
X143820496Y-94500000D01*
X126589121Y-94500000D01*
X126722096Y-94367489D01*
X126781594Y-94284689D01*
X126849435Y-94190277D01*
X126852453Y-94186077D01*
X126883766Y-94122721D01*
X126949136Y-93990453D01*
X126949137Y-93990451D01*
X126951430Y-93985811D01*
X126998629Y-93830460D01*
X127014865Y-93777023D01*
X127014865Y-93777021D01*
X127016370Y-93772069D01*
X127045529Y-93550590D01*
X127047156Y-93484000D01*
X127028852Y-93261361D01*
X126974431Y-93044702D01*
X126885354Y-92839840D01*
X126764014Y-92652277D01*
X126760532Y-92648450D01*
X126616798Y-92490488D01*
X126585746Y-92426642D01*
X126594141Y-92356143D01*
X126639317Y-92301375D01*
X126665761Y-92287706D01*
X126772297Y-92247767D01*
X126780705Y-92244615D01*
X126897261Y-92157261D01*
X126984615Y-92040705D01*
X127035745Y-91904316D01*
X127042500Y-91842134D01*
X127042500Y-90045866D01*
X127035745Y-89983684D01*
X126984615Y-89847295D01*
X126897261Y-89730739D01*
X126780705Y-89643385D01*
X126644316Y-89592255D01*
X126582134Y-89585500D01*
X124785866Y-89585500D01*
X124723684Y-89592255D01*
X124587295Y-89643385D01*
X124470739Y-89730739D01*
X124383385Y-89847295D01*
X124332255Y-89983684D01*
X124325500Y-90045866D01*
X124325500Y-91842134D01*
X124332255Y-91904316D01*
X124383385Y-92040705D01*
X124470739Y-92157261D01*
X124587295Y-92244615D01*
X124595704Y-92247767D01*
X124595705Y-92247768D01*
X124704451Y-92288535D01*
X124761216Y-92331176D01*
X124785916Y-92397738D01*
X124770709Y-92467087D01*
X124751316Y-92493568D01*
X124624629Y-92626138D01*
X124498743Y-92810680D01*
X124404688Y-93013305D01*
X124344989Y-93228570D01*
X124321251Y-93450695D01*
X116308000Y-93450695D01*
X116308000Y-85452116D01*
X116328002Y-85383995D01*
X116381658Y-85337502D01*
X116451932Y-85327398D01*
X116516512Y-85356892D01*
X116541433Y-85386281D01*
X116608294Y-85495388D01*
X116614377Y-85503699D01*
X116753813Y-85664667D01*
X116761180Y-85671883D01*
X116925034Y-85807916D01*
X116933481Y-85813831D01*
X117117356Y-85921279D01*
X117126642Y-85925729D01*
X117325601Y-86001703D01*
X117335499Y-86004579D01*
X117438850Y-86025606D01*
X117452899Y-86024410D01*
X117456600Y-86014065D01*
X117456600Y-86013517D01*
X117964600Y-86013517D01*
X117968664Y-86027359D01*
X117982078Y-86029393D01*
X117988784Y-86028534D01*
X117998862Y-86026392D01*
X118202855Y-85965191D01*
X118212442Y-85961433D01*
X118403695Y-85867739D01*
X118412545Y-85862464D01*
X118585928Y-85738792D01*
X118593800Y-85732139D01*
X118744652Y-85581812D01*
X118751330Y-85573965D01*
X118875603Y-85401020D01*
X118880913Y-85392183D01*
X118975270Y-85201267D01*
X118979069Y-85191672D01*
X119040977Y-84987910D01*
X119043155Y-84977837D01*
X119044586Y-84966962D01*
X119042375Y-84952778D01*
X119029217Y-84949000D01*
X117982715Y-84949000D01*
X117967476Y-84953475D01*
X117966271Y-84954865D01*
X117964600Y-84962548D01*
X117964600Y-86013517D01*
X117456600Y-86013517D01*
X117456600Y-84594000D01*
X144074496Y-84594000D01*
X144094458Y-84783928D01*
X144153473Y-84965556D01*
X144248960Y-85130944D01*
X144253378Y-85135851D01*
X144253379Y-85135852D01*
X144335452Y-85227003D01*
X144376747Y-85272866D01*
X144531248Y-85385118D01*
X144537276Y-85387802D01*
X144537278Y-85387803D01*
X144699681Y-85460109D01*
X144705712Y-85462794D01*
X144799112Y-85482647D01*
X144886056Y-85501128D01*
X144886061Y-85501128D01*
X144892513Y-85502500D01*
X145083487Y-85502500D01*
X145089939Y-85501128D01*
X145089944Y-85501128D01*
X145176888Y-85482647D01*
X145270288Y-85462794D01*
X145276319Y-85460109D01*
X145438722Y-85387803D01*
X145438724Y-85387802D01*
X145444752Y-85385118D01*
X145524197Y-85327398D01*
X145577671Y-85288546D01*
X145599253Y-85272866D01*
X145603668Y-85267963D01*
X145608580Y-85263540D01*
X145609705Y-85264789D01*
X145663014Y-85231949D01*
X145696200Y-85227500D01*
X149989233Y-85227500D01*
X150000416Y-85228027D01*
X150007909Y-85229702D01*
X150015835Y-85229453D01*
X150015836Y-85229453D01*
X150075986Y-85227562D01*
X150079945Y-85227500D01*
X150107856Y-85227500D01*
X150111791Y-85227003D01*
X150111856Y-85226995D01*
X150123693Y-85226062D01*
X150155951Y-85225048D01*
X150159970Y-85224922D01*
X150167889Y-85224673D01*
X150187343Y-85219021D01*
X150206700Y-85215013D01*
X150218930Y-85213468D01*
X150218931Y-85213468D01*
X150226797Y-85212474D01*
X150234168Y-85209555D01*
X150234170Y-85209555D01*
X150267912Y-85196196D01*
X150279142Y-85192351D01*
X150313983Y-85182229D01*
X150313984Y-85182229D01*
X150321593Y-85180018D01*
X150328412Y-85175985D01*
X150328417Y-85175983D01*
X150339028Y-85169707D01*
X150356776Y-85161012D01*
X150375617Y-85153552D01*
X150411387Y-85127564D01*
X150421307Y-85121048D01*
X150452535Y-85102580D01*
X150452538Y-85102578D01*
X150459362Y-85098542D01*
X150473683Y-85084221D01*
X150488717Y-85071380D01*
X150498693Y-85064132D01*
X150505107Y-85059472D01*
X150533288Y-85025407D01*
X150541278Y-85016626D01*
X151222258Y-84335647D01*
X151230537Y-84328113D01*
X151237018Y-84324000D01*
X151283644Y-84274348D01*
X151286398Y-84271507D01*
X151306135Y-84251770D01*
X151308615Y-84248573D01*
X151316320Y-84239551D01*
X151346586Y-84207321D01*
X151350405Y-84200375D01*
X151350407Y-84200372D01*
X151356348Y-84189566D01*
X151367199Y-84173047D01*
X151374758Y-84163301D01*
X151379614Y-84157041D01*
X151382759Y-84149772D01*
X151382762Y-84149768D01*
X151397174Y-84116463D01*
X151402391Y-84105813D01*
X151423695Y-84067060D01*
X151426583Y-84055814D01*
X151428733Y-84047438D01*
X151435137Y-84028734D01*
X151440033Y-84017420D01*
X151440033Y-84017419D01*
X151443181Y-84010145D01*
X151444420Y-84002322D01*
X151444423Y-84002312D01*
X151450099Y-83966476D01*
X151452505Y-83954856D01*
X151461528Y-83919711D01*
X151461528Y-83919710D01*
X151463500Y-83912030D01*
X151463500Y-83891776D01*
X151465051Y-83872065D01*
X151466980Y-83859886D01*
X151468220Y-83852057D01*
X151464059Y-83808038D01*
X151463500Y-83796181D01*
X151463500Y-77288594D01*
X151483502Y-77220473D01*
X151500405Y-77199499D01*
X152746247Y-75953657D01*
X152754537Y-75946113D01*
X152761018Y-75942000D01*
X152807659Y-75892332D01*
X152810413Y-75889491D01*
X152830134Y-75869770D01*
X152832612Y-75866575D01*
X152840318Y-75857553D01*
X152842775Y-75854937D01*
X152870586Y-75825321D01*
X152876732Y-75814142D01*
X152880346Y-75807568D01*
X152891199Y-75791045D01*
X152894233Y-75787134D01*
X152903613Y-75775041D01*
X152921176Y-75734457D01*
X152926383Y-75723827D01*
X152947695Y-75685060D01*
X152949666Y-75677383D01*
X152949668Y-75677378D01*
X152952732Y-75665442D01*
X152959138Y-75646730D01*
X152964034Y-75635417D01*
X152967181Y-75628145D01*
X152972082Y-75597206D01*
X152974097Y-75584481D01*
X152976504Y-75572860D01*
X152985528Y-75537711D01*
X152985528Y-75537710D01*
X152987500Y-75530030D01*
X152987500Y-75509769D01*
X152989051Y-75490058D01*
X152990979Y-75477885D01*
X152992219Y-75470057D01*
X152988059Y-75426046D01*
X152987500Y-75414189D01*
X152987500Y-70818524D01*
X153007502Y-70750403D01*
X153019858Y-70734221D01*
X153093040Y-70652944D01*
X153159714Y-70537461D01*
X153185223Y-70493279D01*
X153185224Y-70493278D01*
X153188527Y-70487556D01*
X153247542Y-70305928D01*
X153250431Y-70278447D01*
X153266814Y-70122565D01*
X153267504Y-70116000D01*
X153260938Y-70053531D01*
X153248232Y-69932635D01*
X153248232Y-69932633D01*
X153247542Y-69926072D01*
X153188527Y-69744444D01*
X153093040Y-69579056D01*
X153068835Y-69552173D01*
X153038119Y-69488169D01*
X153046882Y-69417715D01*
X153088411Y-69365929D01*
X153210960Y-69276891D01*
X153219253Y-69270866D01*
X153347040Y-69128944D01*
X153442527Y-68963556D01*
X153501542Y-68781928D01*
X153521504Y-68592000D01*
X153520814Y-68585435D01*
X153520814Y-68585426D01*
X153520691Y-68584255D01*
X153520814Y-68583583D01*
X153520814Y-68578830D01*
X153521683Y-68578830D01*
X153533466Y-68514417D01*
X153556906Y-68481996D01*
X153818917Y-68219985D01*
X153881229Y-68185959D01*
X153952044Y-68191024D01*
X154001647Y-68224768D01*
X154028747Y-68254866D01*
X154183248Y-68367118D01*
X154189276Y-68369802D01*
X154189278Y-68369803D01*
X154261756Y-68402072D01*
X154357712Y-68444794D01*
X154451112Y-68464647D01*
X154538056Y-68483128D01*
X154538061Y-68483128D01*
X154544513Y-68484500D01*
X154735487Y-68484500D01*
X154741939Y-68483128D01*
X154741944Y-68483128D01*
X154828888Y-68464647D01*
X154922288Y-68444794D01*
X155018244Y-68402072D01*
X155090722Y-68369803D01*
X155090724Y-68369802D01*
X155096752Y-68367118D01*
X155251253Y-68254866D01*
X155255668Y-68249963D01*
X155260580Y-68245540D01*
X155261705Y-68246789D01*
X155315014Y-68213949D01*
X155348200Y-68209500D01*
X165483233Y-68209500D01*
X165494416Y-68210027D01*
X165501909Y-68211702D01*
X165509835Y-68211453D01*
X165509836Y-68211453D01*
X165569986Y-68209562D01*
X165573945Y-68209500D01*
X165601856Y-68209500D01*
X165605791Y-68209003D01*
X165605856Y-68208995D01*
X165617693Y-68208062D01*
X165649951Y-68207048D01*
X165653970Y-68206922D01*
X165661889Y-68206673D01*
X165681343Y-68201021D01*
X165700700Y-68197013D01*
X165712930Y-68195468D01*
X165712931Y-68195468D01*
X165720797Y-68194474D01*
X165728168Y-68191555D01*
X165728170Y-68191555D01*
X165761912Y-68178196D01*
X165773142Y-68174351D01*
X165807983Y-68164229D01*
X165807984Y-68164229D01*
X165815593Y-68162018D01*
X165822412Y-68157985D01*
X165822417Y-68157983D01*
X165833028Y-68151707D01*
X165850776Y-68143012D01*
X165869617Y-68135552D01*
X165905387Y-68109564D01*
X165915307Y-68103048D01*
X165946535Y-68084580D01*
X165946538Y-68084578D01*
X165953362Y-68080542D01*
X165967683Y-68066221D01*
X165982717Y-68053380D01*
X165999107Y-68041472D01*
X166027298Y-68007395D01*
X166035288Y-67998616D01*
X166208247Y-67825657D01*
X166216537Y-67818113D01*
X166223018Y-67814000D01*
X166269659Y-67764332D01*
X166272413Y-67761491D01*
X166292134Y-67741770D01*
X166294614Y-67738573D01*
X166302318Y-67729553D01*
X166327158Y-67703101D01*
X166332586Y-67697321D01*
X166340492Y-67682940D01*
X166342346Y-67679568D01*
X166353199Y-67663045D01*
X166360753Y-67653306D01*
X166365613Y-67647041D01*
X166383176Y-67606457D01*
X166388383Y-67595827D01*
X166409695Y-67557060D01*
X166411666Y-67549383D01*
X166411668Y-67549378D01*
X166414732Y-67537442D01*
X166421138Y-67518730D01*
X166426033Y-67507419D01*
X166429181Y-67500145D01*
X166430421Y-67492317D01*
X166430423Y-67492310D01*
X166436099Y-67456476D01*
X166438505Y-67444856D01*
X166447528Y-67409711D01*
X166447528Y-67409710D01*
X166449500Y-67402030D01*
X166449500Y-67381776D01*
X166451051Y-67362065D01*
X166452980Y-67349886D01*
X166454220Y-67342057D01*
X166450059Y-67298038D01*
X166449500Y-67286181D01*
X166449500Y-61292752D01*
X166469502Y-61224631D01*
X166520068Y-61179601D01*
X166527316Y-61176050D01*
X166535043Y-61172265D01*
X166535048Y-61172262D01*
X166539684Y-61169991D01*
X166543888Y-61166993D01*
X166543892Y-61166990D01*
X166645804Y-61094297D01*
X166728243Y-61035494D01*
X166892303Y-60872005D01*
X166898604Y-60863237D01*
X166953879Y-60786313D01*
X167027458Y-60683917D01*
X167130078Y-60476280D01*
X167197408Y-60254671D01*
X167227640Y-60025041D01*
X167229327Y-59956000D01*
X167223032Y-59879434D01*
X167210773Y-59730318D01*
X167210772Y-59730312D01*
X167210349Y-59725167D01*
X167174492Y-59582415D01*
X167155184Y-59505544D01*
X167155183Y-59505540D01*
X167153925Y-59500533D01*
X167151866Y-59495797D01*
X167063630Y-59292868D01*
X167063628Y-59292865D01*
X167061570Y-59288131D01*
X166935764Y-59093665D01*
X166779887Y-58922358D01*
X166775836Y-58919159D01*
X166775832Y-58919155D01*
X166602177Y-58782011D01*
X166602172Y-58782008D01*
X166598123Y-58778810D01*
X166593607Y-58776317D01*
X166593604Y-58776315D01*
X166399879Y-58669373D01*
X166399875Y-58669371D01*
X166395355Y-58666876D01*
X166390486Y-58665152D01*
X166390482Y-58665150D01*
X166181903Y-58591288D01*
X166181899Y-58591287D01*
X166177028Y-58589562D01*
X166171935Y-58588655D01*
X166171932Y-58588654D01*
X165954095Y-58549851D01*
X165954089Y-58549850D01*
X165949006Y-58548945D01*
X165876096Y-58548054D01*
X165722581Y-58546179D01*
X165722579Y-58546179D01*
X165717411Y-58546116D01*
X165488464Y-58581150D01*
X165268314Y-58653106D01*
X165263726Y-58655494D01*
X165263722Y-58655496D01*
X165094103Y-58743794D01*
X165062872Y-58760052D01*
X165058739Y-58763155D01*
X165058736Y-58763157D01*
X164986088Y-58817703D01*
X164877655Y-58899117D01*
X164717639Y-59066564D01*
X164650306Y-59165271D01*
X164595397Y-59210271D01*
X164524872Y-59218442D01*
X164461125Y-59187188D01*
X164440428Y-59162705D01*
X164398571Y-59098004D01*
X164395764Y-59093665D01*
X164239887Y-58922358D01*
X164235836Y-58919159D01*
X164235832Y-58919155D01*
X164062177Y-58782011D01*
X164062172Y-58782008D01*
X164058123Y-58778810D01*
X164053607Y-58776317D01*
X164053604Y-58776315D01*
X163859879Y-58669373D01*
X163859875Y-58669371D01*
X163855355Y-58666876D01*
X163850486Y-58665152D01*
X163850482Y-58665150D01*
X163641903Y-58591288D01*
X163641899Y-58591287D01*
X163637028Y-58589562D01*
X163631935Y-58588655D01*
X163631932Y-58588654D01*
X163414095Y-58549851D01*
X163414089Y-58549850D01*
X163409006Y-58548945D01*
X163336096Y-58548054D01*
X163182581Y-58546179D01*
X163182579Y-58546179D01*
X163177411Y-58546116D01*
X162948464Y-58581150D01*
X162728314Y-58653106D01*
X162723726Y-58655494D01*
X162723722Y-58655496D01*
X162554103Y-58743794D01*
X162522872Y-58760052D01*
X162518739Y-58763155D01*
X162518736Y-58763157D01*
X162446088Y-58817703D01*
X162337655Y-58899117D01*
X162323342Y-58914095D01*
X162320170Y-58917414D01*
X162258646Y-58952844D01*
X162187733Y-58949387D01*
X162129947Y-58908141D01*
X162111094Y-58874592D01*
X162089768Y-58817705D01*
X162089767Y-58817703D01*
X162086615Y-58809295D01*
X161999261Y-58692739D01*
X161882705Y-58605385D01*
X161746316Y-58554255D01*
X161684134Y-58547500D01*
X159787866Y-58547500D01*
X159725684Y-58554255D01*
X159718286Y-58557028D01*
X159718279Y-58557030D01*
X159687981Y-58568388D01*
X159617174Y-58573571D01*
X159554805Y-58539649D01*
X159520677Y-58477393D01*
X159525624Y-58406569D01*
X159559443Y-58356769D01*
X159563905Y-58352752D01*
X159569253Y-58348866D01*
X159596156Y-58318988D01*
X159692621Y-58211852D01*
X159692622Y-58211851D01*
X159697040Y-58206944D01*
X159792527Y-58041556D01*
X159851542Y-57859928D01*
X159871504Y-57670000D01*
X159851542Y-57480072D01*
X159792527Y-57298444D01*
X159697040Y-57133056D01*
X159569253Y-56991134D01*
X159414752Y-56878882D01*
X159408724Y-56876198D01*
X159408722Y-56876197D01*
X159246319Y-56803891D01*
X159246318Y-56803891D01*
X159240288Y-56801206D01*
X159146888Y-56781353D01*
X159059944Y-56762872D01*
X159059939Y-56762872D01*
X159053487Y-56761500D01*
X158997594Y-56761500D01*
X158929473Y-56741498D01*
X158908499Y-56724595D01*
X157429652Y-55245747D01*
X157422112Y-55237461D01*
X157418000Y-55230982D01*
X157368348Y-55184356D01*
X157365507Y-55181602D01*
X157345770Y-55161865D01*
X157342573Y-55159385D01*
X157333551Y-55151680D01*
X157307100Y-55126841D01*
X157301321Y-55121414D01*
X157294375Y-55117595D01*
X157294372Y-55117593D01*
X157283566Y-55111652D01*
X157267047Y-55100801D01*
X157261048Y-55096148D01*
X157251041Y-55088386D01*
X157243772Y-55085241D01*
X157243768Y-55085238D01*
X157210463Y-55070826D01*
X157199813Y-55065609D01*
X157161060Y-55044305D01*
X157141437Y-55039267D01*
X157122734Y-55032863D01*
X157111420Y-55027967D01*
X157111419Y-55027967D01*
X157104145Y-55024819D01*
X157096322Y-55023580D01*
X157096312Y-55023577D01*
X157060476Y-55017901D01*
X157048856Y-55015495D01*
X157013711Y-55006472D01*
X157013710Y-55006472D01*
X157006030Y-55004500D01*
X156985776Y-55004500D01*
X156966065Y-55002949D01*
X156953886Y-55001020D01*
X156946057Y-54999780D01*
X156938165Y-55000526D01*
X156902039Y-55003941D01*
X156890181Y-55004500D01*
X154332200Y-55004500D01*
X154264079Y-54984498D01*
X154244853Y-54968157D01*
X154244580Y-54968460D01*
X154239668Y-54964037D01*
X154235253Y-54959134D01*
X154080752Y-54846882D01*
X154074724Y-54844198D01*
X154074722Y-54844197D01*
X153912319Y-54771891D01*
X153912318Y-54771891D01*
X153906288Y-54769206D01*
X153812888Y-54749353D01*
X153725944Y-54730872D01*
X153725939Y-54730872D01*
X153719487Y-54729500D01*
X153528513Y-54729500D01*
X153522061Y-54730872D01*
X153522056Y-54730872D01*
X153435112Y-54749353D01*
X153341712Y-54769206D01*
X153335682Y-54771891D01*
X153335681Y-54771891D01*
X153173278Y-54844197D01*
X153173276Y-54844198D01*
X153167248Y-54846882D01*
X153012747Y-54959134D01*
X153008326Y-54964044D01*
X153008325Y-54964045D01*
X152899203Y-55085238D01*
X152884960Y-55101056D01*
X152789473Y-55266444D01*
X152730458Y-55448072D01*
X152710496Y-55638000D01*
X152730458Y-55827928D01*
X152789473Y-56009556D01*
X152884960Y-56174944D01*
X153012747Y-56316866D01*
X153167248Y-56429118D01*
X153173276Y-56431802D01*
X153173278Y-56431803D01*
X153335681Y-56504109D01*
X153341712Y-56506794D01*
X153435112Y-56526647D01*
X153522056Y-56545128D01*
X153522061Y-56545128D01*
X153528513Y-56546500D01*
X153719487Y-56546500D01*
X153725939Y-56545128D01*
X153725944Y-56545128D01*
X153812887Y-56526647D01*
X153906288Y-56506794D01*
X153912319Y-56504109D01*
X154074722Y-56431803D01*
X154074724Y-56431802D01*
X154080752Y-56429118D01*
X154235253Y-56316866D01*
X154239668Y-56311963D01*
X154244580Y-56307540D01*
X154245705Y-56308789D01*
X154299014Y-56275949D01*
X154332200Y-56271500D01*
X156611406Y-56271500D01*
X156679527Y-56291502D01*
X156700501Y-56308405D01*
X158010878Y-57618783D01*
X158044904Y-57681095D01*
X158047093Y-57694706D01*
X158064458Y-57859928D01*
X158123473Y-58041556D01*
X158218960Y-58206944D01*
X158223378Y-58211851D01*
X158223379Y-58211852D01*
X158319845Y-58318988D01*
X158346747Y-58348866D01*
X158501248Y-58461118D01*
X158507276Y-58463802D01*
X158507278Y-58463803D01*
X158669681Y-58536109D01*
X158675712Y-58538794D01*
X158761505Y-58557030D01*
X158856056Y-58577128D01*
X158856061Y-58577128D01*
X158862513Y-58578500D01*
X159053487Y-58578500D01*
X159059939Y-58577128D01*
X159059944Y-58577128D01*
X159154495Y-58557030D01*
X159240288Y-58538794D01*
X159273173Y-58524153D01*
X159319605Y-58503480D01*
X159389972Y-58494046D01*
X159454269Y-58524153D01*
X159492083Y-58584241D01*
X159491407Y-58655235D01*
X159471680Y-58694152D01*
X159385385Y-58809295D01*
X159334255Y-58945684D01*
X159327500Y-59007866D01*
X159327500Y-60904134D01*
X159334255Y-60966316D01*
X159385385Y-61102705D01*
X159472739Y-61219261D01*
X159589295Y-61306615D01*
X159725684Y-61357745D01*
X159787866Y-61364500D01*
X159976500Y-61364500D01*
X160044621Y-61384502D01*
X160091114Y-61438158D01*
X160102500Y-61490500D01*
X160102500Y-65991405D01*
X160082498Y-66059526D01*
X160065595Y-66080500D01*
X160002500Y-66143595D01*
X159940188Y-66177621D01*
X159913405Y-66180500D01*
X154407766Y-66180500D01*
X154396583Y-66179973D01*
X154389090Y-66178298D01*
X154381164Y-66178547D01*
X154381163Y-66178547D01*
X154321000Y-66180438D01*
X154317042Y-66180500D01*
X154289142Y-66180500D01*
X154285152Y-66181004D01*
X154273318Y-66181936D01*
X154229109Y-66183326D01*
X154221495Y-66185538D01*
X154221490Y-66185539D01*
X154209657Y-66188977D01*
X154190294Y-66192988D01*
X154170201Y-66195526D01*
X154162834Y-66198443D01*
X154162829Y-66198444D01*
X154129090Y-66211802D01*
X154117863Y-66215646D01*
X154075405Y-66227982D01*
X154068579Y-66232019D01*
X154057970Y-66238293D01*
X154040222Y-66246988D01*
X154021381Y-66254448D01*
X154014965Y-66259110D01*
X154014964Y-66259110D01*
X153985611Y-66280436D01*
X153975691Y-66286952D01*
X153944463Y-66305420D01*
X153944460Y-66305422D01*
X153937636Y-66309458D01*
X153923315Y-66323779D01*
X153908282Y-66336619D01*
X153891891Y-66348528D01*
X153886840Y-66354634D01*
X153863700Y-66382605D01*
X153855710Y-66391384D01*
X152600368Y-67646725D01*
X152538056Y-67680751D01*
X152524443Y-67682940D01*
X152519113Y-67683500D01*
X152512513Y-67683500D01*
X152506061Y-67684872D01*
X152506056Y-67684872D01*
X152420646Y-67703027D01*
X152325712Y-67723206D01*
X152319682Y-67725891D01*
X152319681Y-67725891D01*
X152157278Y-67798197D01*
X152157276Y-67798198D01*
X152151248Y-67800882D01*
X152145907Y-67804762D01*
X152145906Y-67804763D01*
X152128144Y-67817668D01*
X151996747Y-67913134D01*
X151868960Y-68055056D01*
X151865659Y-68060774D01*
X151779792Y-68209500D01*
X151773473Y-68220444D01*
X151714458Y-68402072D01*
X151713768Y-68408633D01*
X151713768Y-68408635D01*
X151702650Y-68514417D01*
X151694496Y-68592000D01*
X151714458Y-68781928D01*
X151773473Y-68963556D01*
X151868960Y-69128944D01*
X151893165Y-69155827D01*
X151923881Y-69219831D01*
X151915118Y-69290285D01*
X151873589Y-69342071D01*
X151742747Y-69437134D01*
X151614960Y-69579056D01*
X151519473Y-69744444D01*
X151460458Y-69926072D01*
X151459768Y-69932633D01*
X151459768Y-69932635D01*
X151447062Y-70053531D01*
X151440496Y-70116000D01*
X151441186Y-70122565D01*
X151457570Y-70278447D01*
X151460458Y-70305928D01*
X151519473Y-70487556D01*
X151522776Y-70493278D01*
X151522777Y-70493279D01*
X151548286Y-70537461D01*
X151614960Y-70652944D01*
X151688137Y-70734215D01*
X151718853Y-70798221D01*
X151720500Y-70818524D01*
X151720500Y-75135405D01*
X151700498Y-75203526D01*
X151683595Y-75224500D01*
X150437747Y-76470348D01*
X150429461Y-76477888D01*
X150422982Y-76482000D01*
X150417557Y-76487777D01*
X150376357Y-76531651D01*
X150373602Y-76534493D01*
X150353865Y-76554230D01*
X150351385Y-76557427D01*
X150343682Y-76566447D01*
X150313414Y-76598679D01*
X150309595Y-76605625D01*
X150309593Y-76605628D01*
X150303652Y-76616434D01*
X150292801Y-76632953D01*
X150280386Y-76648959D01*
X150277241Y-76656228D01*
X150277238Y-76656232D01*
X150262826Y-76689537D01*
X150257609Y-76700187D01*
X150236305Y-76738940D01*
X150234334Y-76746615D01*
X150234334Y-76746616D01*
X150231267Y-76758562D01*
X150224863Y-76777266D01*
X150216819Y-76795855D01*
X150215580Y-76803678D01*
X150215577Y-76803688D01*
X150209901Y-76839524D01*
X150207495Y-76851144D01*
X150196500Y-76893970D01*
X150196500Y-76914224D01*
X150194949Y-76933934D01*
X150191780Y-76953943D01*
X150195872Y-76997226D01*
X150195941Y-76997961D01*
X150196500Y-77009819D01*
X150196500Y-83517405D01*
X150176498Y-83585526D01*
X150159595Y-83606501D01*
X149842499Y-83923596D01*
X149780187Y-83957621D01*
X149753404Y-83960500D01*
X145696200Y-83960500D01*
X145628079Y-83940498D01*
X145608853Y-83924157D01*
X145608580Y-83924460D01*
X145603668Y-83920037D01*
X145599253Y-83915134D01*
X145523211Y-83859886D01*
X145450094Y-83806763D01*
X145450093Y-83806762D01*
X145444752Y-83802882D01*
X145438724Y-83800198D01*
X145438722Y-83800197D01*
X145276319Y-83727891D01*
X145276318Y-83727891D01*
X145270288Y-83725206D01*
X145162242Y-83702240D01*
X145089944Y-83686872D01*
X145089939Y-83686872D01*
X145083487Y-83685500D01*
X144892513Y-83685500D01*
X144886061Y-83686872D01*
X144886056Y-83686872D01*
X144813758Y-83702240D01*
X144705712Y-83725206D01*
X144699682Y-83727891D01*
X144699681Y-83727891D01*
X144537278Y-83800197D01*
X144537276Y-83800198D01*
X144531248Y-83802882D01*
X144376747Y-83915134D01*
X144372326Y-83920044D01*
X144372325Y-83920045D01*
X144266268Y-84037834D01*
X144248960Y-84057056D01*
X144153473Y-84222444D01*
X144094458Y-84404072D01*
X144093768Y-84410633D01*
X144093768Y-84410635D01*
X144077334Y-84567000D01*
X144074496Y-84594000D01*
X117456600Y-84594000D01*
X117456600Y-84567000D01*
X117476602Y-84498879D01*
X117530258Y-84452386D01*
X117582600Y-84441000D01*
X119028944Y-84441000D01*
X119042475Y-84437027D01*
X119043780Y-84427947D01*
X119001814Y-84260875D01*
X118998494Y-84251124D01*
X118913572Y-84055814D01*
X118908705Y-84046739D01*
X118793026Y-83867926D01*
X118786736Y-83859757D01*
X118643406Y-83702240D01*
X118635873Y-83695215D01*
X118468739Y-83563222D01*
X118460156Y-83557520D01*
X118423202Y-83537120D01*
X118373231Y-83486687D01*
X118358459Y-83417245D01*
X118383575Y-83350839D01*
X118410927Y-83324232D01*
X118434397Y-83307491D01*
X118590460Y-83196173D01*
X118748696Y-83038489D01*
X118879053Y-82857077D01*
X118978030Y-82656811D01*
X119042970Y-82443069D01*
X119072129Y-82221590D01*
X119073756Y-82155000D01*
X119055452Y-81932361D01*
X119001031Y-81715702D01*
X118911954Y-81510840D01*
X118855878Y-81424160D01*
X118793422Y-81327617D01*
X118793420Y-81327614D01*
X118790614Y-81323277D01*
X118640270Y-81158051D01*
X118636219Y-81154852D01*
X118636215Y-81154848D01*
X118469014Y-81022800D01*
X118469010Y-81022798D01*
X118464959Y-81019598D01*
X118423653Y-80996796D01*
X118373684Y-80946364D01*
X118358912Y-80876921D01*
X118384028Y-80810516D01*
X118411380Y-80783909D01*
X118455203Y-80752650D01*
X118590460Y-80656173D01*
X118646193Y-80600635D01*
X118745035Y-80502137D01*
X118748696Y-80498489D01*
X118879053Y-80317077D01*
X118910834Y-80252774D01*
X118975736Y-80121453D01*
X118975737Y-80121451D01*
X118978030Y-80116811D01*
X119010500Y-80009940D01*
X119041465Y-79908023D01*
X119041465Y-79908021D01*
X119042970Y-79903069D01*
X119072129Y-79681590D01*
X119073756Y-79615000D01*
X119055452Y-79392361D01*
X119001031Y-79175702D01*
X118911954Y-78970840D01*
X118855878Y-78884160D01*
X118793422Y-78787617D01*
X118793420Y-78787614D01*
X118790614Y-78783277D01*
X118640270Y-78618051D01*
X118636219Y-78614852D01*
X118636215Y-78614848D01*
X118469014Y-78482800D01*
X118469010Y-78482798D01*
X118464959Y-78479598D01*
X118423653Y-78456796D01*
X118373684Y-78406364D01*
X118358912Y-78336921D01*
X118384028Y-78270516D01*
X118411380Y-78243909D01*
X118455203Y-78212650D01*
X118590460Y-78116173D01*
X118748696Y-77958489D01*
X118879053Y-77777077D01*
X118881346Y-77772437D01*
X118883046Y-77769608D01*
X118935274Y-77721518D01*
X118991051Y-77708500D01*
X120546233Y-77708500D01*
X120557416Y-77709027D01*
X120564909Y-77710702D01*
X120572835Y-77710453D01*
X120572836Y-77710453D01*
X120632986Y-77708562D01*
X120636945Y-77708500D01*
X120664856Y-77708500D01*
X120668791Y-77708003D01*
X120668856Y-77707995D01*
X120680693Y-77707062D01*
X120712951Y-77706048D01*
X120716970Y-77705922D01*
X120724889Y-77705673D01*
X120744343Y-77700021D01*
X120763700Y-77696013D01*
X120775930Y-77694468D01*
X120775931Y-77694468D01*
X120783797Y-77693474D01*
X120791168Y-77690555D01*
X120791170Y-77690555D01*
X120824912Y-77677196D01*
X120836142Y-77673351D01*
X120870983Y-77663229D01*
X120870984Y-77663229D01*
X120878593Y-77661018D01*
X120885412Y-77656985D01*
X120885417Y-77656983D01*
X120896028Y-77650707D01*
X120913776Y-77642012D01*
X120932617Y-77634552D01*
X120968387Y-77608564D01*
X120978307Y-77602048D01*
X121009535Y-77583580D01*
X121009538Y-77583578D01*
X121016362Y-77579542D01*
X121030683Y-77565221D01*
X121045717Y-77552380D01*
X121055694Y-77545131D01*
X121062107Y-77540472D01*
X121090298Y-77506395D01*
X121098288Y-77497616D01*
X122129904Y-76466000D01*
X127818496Y-76466000D01*
X127819186Y-76472565D01*
X127837726Y-76648959D01*
X127838458Y-76655928D01*
X127897473Y-76837556D01*
X127992960Y-77002944D01*
X127997378Y-77007851D01*
X127997379Y-77007852D01*
X128079899Y-77099500D01*
X128120747Y-77144866D01*
X128275248Y-77257118D01*
X128281276Y-77259802D01*
X128281278Y-77259803D01*
X128443681Y-77332109D01*
X128449712Y-77334794D01*
X128543113Y-77354647D01*
X128630056Y-77373128D01*
X128630061Y-77373128D01*
X128636513Y-77374500D01*
X128827487Y-77374500D01*
X128833939Y-77373128D01*
X128833944Y-77373128D01*
X128920887Y-77354647D01*
X129014288Y-77334794D01*
X129020319Y-77332109D01*
X129182722Y-77259803D01*
X129182724Y-77259802D01*
X129188752Y-77257118D01*
X129268058Y-77199499D01*
X129321671Y-77160546D01*
X129343253Y-77144866D01*
X129347668Y-77139963D01*
X129352580Y-77135540D01*
X129353705Y-77136789D01*
X129407014Y-77103949D01*
X129440200Y-77099500D01*
X131325800Y-77099500D01*
X131393921Y-77119502D01*
X131413147Y-77135843D01*
X131413420Y-77135540D01*
X131418332Y-77139963D01*
X131422747Y-77144866D01*
X131444329Y-77160546D01*
X131497943Y-77199499D01*
X131577248Y-77257118D01*
X131583276Y-77259802D01*
X131583278Y-77259803D01*
X131745681Y-77332109D01*
X131751712Y-77334794D01*
X131845113Y-77354647D01*
X131932056Y-77373128D01*
X131932061Y-77373128D01*
X131938513Y-77374500D01*
X132129487Y-77374500D01*
X132135939Y-77373128D01*
X132135944Y-77373128D01*
X132222887Y-77354647D01*
X132316288Y-77334794D01*
X132322319Y-77332109D01*
X132484722Y-77259803D01*
X132484724Y-77259802D01*
X132490752Y-77257118D01*
X132645253Y-77144866D01*
X132686101Y-77099500D01*
X132768621Y-77007852D01*
X132768622Y-77007851D01*
X132773040Y-77002944D01*
X132868527Y-76837556D01*
X132927542Y-76655928D01*
X132928275Y-76648959D01*
X132946814Y-76472565D01*
X132947504Y-76466000D01*
X132932503Y-76323271D01*
X132928232Y-76282635D01*
X132928232Y-76282633D01*
X132927542Y-76276072D01*
X132868527Y-76094444D01*
X132861268Y-76081870D01*
X132787243Y-75953657D01*
X132773040Y-75929056D01*
X132752985Y-75906782D01*
X132649675Y-75792045D01*
X132649674Y-75792044D01*
X132645253Y-75787134D01*
X132490752Y-75674882D01*
X132484724Y-75672198D01*
X132484722Y-75672197D01*
X132322319Y-75599891D01*
X132322318Y-75599891D01*
X132316288Y-75597206D01*
X132201750Y-75572860D01*
X132135944Y-75558872D01*
X132135939Y-75558872D01*
X132129487Y-75557500D01*
X131938513Y-75557500D01*
X131932061Y-75558872D01*
X131932056Y-75558872D01*
X131866250Y-75572860D01*
X131751712Y-75597206D01*
X131745682Y-75599891D01*
X131745681Y-75599891D01*
X131583278Y-75672197D01*
X131583276Y-75672198D01*
X131577248Y-75674882D01*
X131571907Y-75678762D01*
X131571906Y-75678763D01*
X131508210Y-75725041D01*
X131422747Y-75787134D01*
X131418332Y-75792037D01*
X131413420Y-75796460D01*
X131412295Y-75795211D01*
X131358986Y-75828051D01*
X131325800Y-75832500D01*
X129440200Y-75832500D01*
X129372079Y-75812498D01*
X129352853Y-75796157D01*
X129352580Y-75796460D01*
X129347668Y-75792037D01*
X129343253Y-75787134D01*
X129257790Y-75725041D01*
X129194094Y-75678763D01*
X129194093Y-75678762D01*
X129188752Y-75674882D01*
X129182724Y-75672198D01*
X129182722Y-75672197D01*
X129020319Y-75599891D01*
X129020318Y-75599891D01*
X129014288Y-75597206D01*
X128899750Y-75572860D01*
X128833944Y-75558872D01*
X128833939Y-75558872D01*
X128827487Y-75557500D01*
X128636513Y-75557500D01*
X128630061Y-75558872D01*
X128630056Y-75558872D01*
X128564250Y-75572860D01*
X128449712Y-75597206D01*
X128443682Y-75599891D01*
X128443681Y-75599891D01*
X128281278Y-75672197D01*
X128281276Y-75672198D01*
X128275248Y-75674882D01*
X128120747Y-75787134D01*
X128116326Y-75792044D01*
X128116325Y-75792045D01*
X128013016Y-75906782D01*
X127992960Y-75929056D01*
X127978757Y-75953657D01*
X127904733Y-76081870D01*
X127897473Y-76094444D01*
X127838458Y-76276072D01*
X127837768Y-76282633D01*
X127837768Y-76282635D01*
X127833497Y-76323271D01*
X127818496Y-76466000D01*
X122129904Y-76466000D01*
X122692247Y-75903657D01*
X122700537Y-75896113D01*
X122707018Y-75892000D01*
X122753659Y-75842332D01*
X122756413Y-75839491D01*
X122776135Y-75819769D01*
X122778619Y-75816567D01*
X122786317Y-75807555D01*
X122811161Y-75781098D01*
X122816586Y-75775321D01*
X122826347Y-75757566D01*
X122837198Y-75741047D01*
X122849614Y-75725041D01*
X122863910Y-75692005D01*
X122867174Y-75684463D01*
X122872391Y-75673813D01*
X122893695Y-75635060D01*
X122898733Y-75615437D01*
X122905137Y-75596734D01*
X122910033Y-75585420D01*
X122910033Y-75585419D01*
X122913181Y-75578145D01*
X122914420Y-75570322D01*
X122914423Y-75570312D01*
X122920099Y-75534476D01*
X122922505Y-75522856D01*
X122931528Y-75487711D01*
X122931528Y-75487710D01*
X122933500Y-75480030D01*
X122933500Y-75459776D01*
X122935051Y-75440065D01*
X122936980Y-75427886D01*
X122938220Y-75420057D01*
X122934059Y-75376038D01*
X122933500Y-75364181D01*
X122933500Y-72419004D01*
X122953502Y-72350883D01*
X122970405Y-72329909D01*
X123243909Y-72056405D01*
X123306221Y-72022379D01*
X123333004Y-72019500D01*
X127003643Y-72019500D01*
X127014826Y-72020027D01*
X127022319Y-72021702D01*
X127030245Y-72021453D01*
X127030246Y-72021453D01*
X127090396Y-72019562D01*
X127094355Y-72019500D01*
X127122266Y-72019500D01*
X127126201Y-72019003D01*
X127126266Y-72018995D01*
X127138103Y-72018062D01*
X127170361Y-72017048D01*
X127174380Y-72016922D01*
X127182299Y-72016673D01*
X127201753Y-72011021D01*
X127221110Y-72007013D01*
X127233340Y-72005468D01*
X127233341Y-72005468D01*
X127241207Y-72004474D01*
X127248578Y-72001555D01*
X127248580Y-72001555D01*
X127282322Y-71988196D01*
X127293552Y-71984351D01*
X127328393Y-71974229D01*
X127328394Y-71974229D01*
X127336003Y-71972018D01*
X127342822Y-71967985D01*
X127342827Y-71967983D01*
X127353438Y-71961707D01*
X127371186Y-71953012D01*
X127390027Y-71945552D01*
X127425797Y-71919564D01*
X127435717Y-71913048D01*
X127466945Y-71894580D01*
X127466948Y-71894578D01*
X127473772Y-71890542D01*
X127488093Y-71876221D01*
X127503127Y-71863380D01*
X127519517Y-71851472D01*
X127547708Y-71817395D01*
X127555698Y-71808616D01*
X127622746Y-71741568D01*
X127685058Y-71707542D01*
X127755873Y-71712607D01*
X127812709Y-71755154D01*
X127837151Y-71817492D01*
X127838458Y-71829928D01*
X127897473Y-72011556D01*
X127900776Y-72017278D01*
X127900777Y-72017279D01*
X127902059Y-72019500D01*
X127992960Y-72176944D01*
X127997378Y-72181851D01*
X127997379Y-72181852D01*
X128079899Y-72273500D01*
X128120747Y-72318866D01*
X128219843Y-72390864D01*
X128258575Y-72419004D01*
X128275248Y-72431118D01*
X128281276Y-72433802D01*
X128281278Y-72433803D01*
X128443681Y-72506109D01*
X128449712Y-72508794D01*
X128541965Y-72528403D01*
X128630056Y-72547128D01*
X128630061Y-72547128D01*
X128636513Y-72548500D01*
X128827487Y-72548500D01*
X128833939Y-72547128D01*
X128833944Y-72547128D01*
X128922035Y-72528403D01*
X129014288Y-72508794D01*
X129020319Y-72506109D01*
X129182722Y-72433803D01*
X129182724Y-72433802D01*
X129188752Y-72431118D01*
X129205426Y-72419004D01*
X129328054Y-72329909D01*
X129343253Y-72318866D01*
X129347668Y-72313963D01*
X129352580Y-72309540D01*
X129353705Y-72310789D01*
X129407014Y-72277949D01*
X129440200Y-72273500D01*
X132849800Y-72273500D01*
X132917921Y-72293502D01*
X132937147Y-72309843D01*
X132937420Y-72309540D01*
X132942332Y-72313963D01*
X132946747Y-72318866D01*
X132961946Y-72329909D01*
X133084575Y-72419004D01*
X133101248Y-72431118D01*
X133107276Y-72433802D01*
X133107278Y-72433803D01*
X133269681Y-72506109D01*
X133275712Y-72508794D01*
X133367965Y-72528403D01*
X133456056Y-72547128D01*
X133456061Y-72547128D01*
X133462513Y-72548500D01*
X133653487Y-72548500D01*
X133659939Y-72547128D01*
X133659944Y-72547128D01*
X133748035Y-72528403D01*
X133840288Y-72508794D01*
X133846319Y-72506109D01*
X134008722Y-72433803D01*
X134008724Y-72433802D01*
X134014752Y-72431118D01*
X134031426Y-72419004D01*
X134070157Y-72390864D01*
X134169253Y-72318866D01*
X134210101Y-72273500D01*
X134292621Y-72181852D01*
X134292622Y-72181851D01*
X134297040Y-72176944D01*
X134387941Y-72019500D01*
X134389223Y-72017279D01*
X134389224Y-72017278D01*
X134392527Y-72011556D01*
X134430724Y-71894000D01*
X135692496Y-71894000D01*
X135693186Y-71900565D01*
X135704212Y-72005468D01*
X135712458Y-72083928D01*
X135771473Y-72265556D01*
X135866960Y-72430944D01*
X135940137Y-72512215D01*
X135970853Y-72576221D01*
X135972500Y-72596524D01*
X135972500Y-77403233D01*
X135971973Y-77414416D01*
X135970298Y-77421909D01*
X135970547Y-77429835D01*
X135970547Y-77429836D01*
X135972438Y-77489986D01*
X135972500Y-77493945D01*
X135972500Y-77521856D01*
X135972997Y-77525790D01*
X135972997Y-77525791D01*
X135973005Y-77525856D01*
X135973938Y-77537693D01*
X135975327Y-77581889D01*
X135980978Y-77601339D01*
X135984987Y-77620700D01*
X135987526Y-77640797D01*
X135990445Y-77648168D01*
X135990445Y-77648170D01*
X136003804Y-77681912D01*
X136007649Y-77693142D01*
X136015893Y-77721518D01*
X136019982Y-77735593D01*
X136024015Y-77742412D01*
X136024017Y-77742417D01*
X136030293Y-77753028D01*
X136038988Y-77770776D01*
X136046448Y-77789617D01*
X136051110Y-77796033D01*
X136051110Y-77796034D01*
X136072436Y-77825387D01*
X136078952Y-77835307D01*
X136101458Y-77873362D01*
X136115779Y-77887683D01*
X136128619Y-77902716D01*
X136140528Y-77919107D01*
X136146634Y-77924158D01*
X136174605Y-77947298D01*
X136183384Y-77955288D01*
X138960878Y-80732782D01*
X138994904Y-80795094D01*
X138997093Y-80808707D01*
X139013170Y-80961669D01*
X139014458Y-80973928D01*
X139073473Y-81155556D01*
X139168960Y-81320944D01*
X139296747Y-81462866D01*
X139451248Y-81575118D01*
X139457276Y-81577802D01*
X139457278Y-81577803D01*
X139619681Y-81650109D01*
X139625712Y-81652794D01*
X139719112Y-81672647D01*
X139806056Y-81691128D01*
X139806061Y-81691128D01*
X139812513Y-81692500D01*
X140003487Y-81692500D01*
X140009939Y-81691128D01*
X140009944Y-81691128D01*
X140096888Y-81672647D01*
X140190288Y-81652794D01*
X140196319Y-81650109D01*
X140358722Y-81577803D01*
X140358724Y-81577802D01*
X140364752Y-81575118D01*
X140519253Y-81462866D01*
X140647040Y-81320944D01*
X140742527Y-81155556D01*
X140801542Y-80973928D01*
X140802831Y-80961669D01*
X140820814Y-80790565D01*
X140821504Y-80784000D01*
X140801542Y-80594072D01*
X140742527Y-80412444D01*
X140647040Y-80247056D01*
X140525307Y-80111857D01*
X140523675Y-80110045D01*
X140523674Y-80110044D01*
X140519253Y-80105134D01*
X140364752Y-79992882D01*
X140358724Y-79990198D01*
X140358722Y-79990197D01*
X140196319Y-79917891D01*
X140196318Y-79917891D01*
X140190288Y-79915206D01*
X140096888Y-79895353D01*
X140009944Y-79876872D01*
X140009939Y-79876872D01*
X140003487Y-79875500D01*
X139947595Y-79875500D01*
X139879474Y-79855498D01*
X139858500Y-79838595D01*
X137276405Y-77256500D01*
X137242379Y-77194188D01*
X137239500Y-77167405D01*
X137239500Y-72596524D01*
X137259502Y-72528403D01*
X137271858Y-72512221D01*
X137345040Y-72430944D01*
X137440527Y-72265556D01*
X137499542Y-72083928D01*
X137507789Y-72005468D01*
X137518814Y-71900565D01*
X137519504Y-71894000D01*
X137511453Y-71817395D01*
X137500232Y-71710635D01*
X137500232Y-71710633D01*
X137499542Y-71704072D01*
X137440527Y-71522444D01*
X137345040Y-71357056D01*
X137265254Y-71268444D01*
X137221675Y-71220045D01*
X137221674Y-71220044D01*
X137217253Y-71215134D01*
X137062752Y-71102882D01*
X137056724Y-71100198D01*
X137056722Y-71100197D01*
X136894319Y-71027891D01*
X136894318Y-71027891D01*
X136888288Y-71025206D01*
X136779353Y-71002051D01*
X136707944Y-70986872D01*
X136707939Y-70986872D01*
X136701487Y-70985500D01*
X136510513Y-70985500D01*
X136504061Y-70986872D01*
X136504056Y-70986872D01*
X136432647Y-71002051D01*
X136323712Y-71025206D01*
X136317682Y-71027891D01*
X136317681Y-71027891D01*
X136155278Y-71100197D01*
X136155276Y-71100198D01*
X136149248Y-71102882D01*
X135994747Y-71215134D01*
X135990326Y-71220044D01*
X135990325Y-71220045D01*
X135946747Y-71268444D01*
X135866960Y-71357056D01*
X135771473Y-71522444D01*
X135712458Y-71704072D01*
X135711768Y-71710633D01*
X135711768Y-71710635D01*
X135700547Y-71817395D01*
X135692496Y-71894000D01*
X134430724Y-71894000D01*
X134451542Y-71829928D01*
X134453340Y-71812827D01*
X134470814Y-71646565D01*
X134471504Y-71640000D01*
X134458547Y-71516721D01*
X134452232Y-71456635D01*
X134452232Y-71456633D01*
X134451542Y-71450072D01*
X134392527Y-71268444D01*
X134297040Y-71103056D01*
X134169253Y-70961134D01*
X134014752Y-70848882D01*
X134008724Y-70846198D01*
X134008722Y-70846197D01*
X133846319Y-70773891D01*
X133846318Y-70773891D01*
X133840288Y-70771206D01*
X133727721Y-70747279D01*
X133659944Y-70732872D01*
X133659939Y-70732872D01*
X133653487Y-70731500D01*
X133462513Y-70731500D01*
X133456061Y-70732872D01*
X133456056Y-70732872D01*
X133388279Y-70747279D01*
X133275712Y-70771206D01*
X133269682Y-70773891D01*
X133269681Y-70773891D01*
X133107278Y-70846197D01*
X133107276Y-70846198D01*
X133101248Y-70848882D01*
X133095907Y-70852762D01*
X133095906Y-70852763D01*
X133021333Y-70906944D01*
X132946747Y-70961134D01*
X132942332Y-70966037D01*
X132937420Y-70970460D01*
X132936295Y-70969211D01*
X132882986Y-71002051D01*
X132849800Y-71006500D01*
X129440200Y-71006500D01*
X129372079Y-70986498D01*
X129352853Y-70970157D01*
X129352580Y-70970460D01*
X129347668Y-70966037D01*
X129343253Y-70961134D01*
X129268667Y-70906944D01*
X129194094Y-70852763D01*
X129194093Y-70852762D01*
X129188752Y-70848882D01*
X129182724Y-70846198D01*
X129182722Y-70846197D01*
X129020319Y-70773891D01*
X129020318Y-70773891D01*
X129014288Y-70771206D01*
X128837235Y-70733572D01*
X128774762Y-70699843D01*
X128740440Y-70637694D01*
X128745168Y-70566855D01*
X128753017Y-70549626D01*
X128755882Y-70544414D01*
X128755883Y-70544412D01*
X128759704Y-70537461D01*
X128761675Y-70529784D01*
X128761677Y-70529779D01*
X128764741Y-70517843D01*
X128771147Y-70499131D01*
X128776043Y-70487818D01*
X128779190Y-70480546D01*
X128786106Y-70436882D01*
X128788513Y-70425261D01*
X128797537Y-70390112D01*
X128797537Y-70390111D01*
X128799509Y-70382431D01*
X128799509Y-70370000D01*
X141026496Y-70370000D01*
X141027186Y-70376565D01*
X141044097Y-70537461D01*
X141046458Y-70559928D01*
X141105473Y-70741556D01*
X141200960Y-70906944D01*
X141274137Y-70988215D01*
X141304853Y-71052221D01*
X141306500Y-71072524D01*
X141306500Y-74863233D01*
X141305973Y-74874416D01*
X141304298Y-74881909D01*
X141304547Y-74889835D01*
X141304547Y-74889836D01*
X141306438Y-74949986D01*
X141306500Y-74953945D01*
X141306500Y-74981856D01*
X141306997Y-74985790D01*
X141306997Y-74985791D01*
X141307005Y-74985856D01*
X141307938Y-74997693D01*
X141309327Y-75041889D01*
X141311937Y-75050872D01*
X141314978Y-75061339D01*
X141318987Y-75080700D01*
X141321526Y-75100797D01*
X141324445Y-75108168D01*
X141324445Y-75108170D01*
X141337804Y-75141912D01*
X141341649Y-75153142D01*
X141351658Y-75187595D01*
X141353982Y-75195593D01*
X141358015Y-75202412D01*
X141358017Y-75202417D01*
X141364293Y-75213028D01*
X141372988Y-75230776D01*
X141380448Y-75249617D01*
X141385110Y-75256033D01*
X141385110Y-75256034D01*
X141406436Y-75285387D01*
X141412952Y-75295307D01*
X141429683Y-75323597D01*
X141435458Y-75333362D01*
X141449779Y-75347683D01*
X141462619Y-75362716D01*
X141474528Y-75379107D01*
X141480634Y-75384158D01*
X141508605Y-75407298D01*
X141517384Y-75415288D01*
X142008878Y-75906782D01*
X142042904Y-75969094D01*
X142045092Y-75982703D01*
X142062458Y-76147928D01*
X142121473Y-76329556D01*
X142124776Y-76335278D01*
X142124777Y-76335279D01*
X142152327Y-76382997D01*
X142216960Y-76494944D01*
X142221378Y-76499851D01*
X142221379Y-76499852D01*
X142270341Y-76554230D01*
X142344747Y-76636866D01*
X142499248Y-76749118D01*
X142505276Y-76751802D01*
X142505278Y-76751803D01*
X142667681Y-76824109D01*
X142673712Y-76826794D01*
X142761194Y-76845389D01*
X142854056Y-76865128D01*
X142854061Y-76865128D01*
X142860513Y-76866500D01*
X143051487Y-76866500D01*
X143057939Y-76865128D01*
X143057944Y-76865128D01*
X143150806Y-76845389D01*
X143238288Y-76826794D01*
X143244319Y-76824109D01*
X143406722Y-76751803D01*
X143406724Y-76751802D01*
X143412752Y-76749118D01*
X143567253Y-76636866D01*
X143641659Y-76554230D01*
X143690621Y-76499852D01*
X143690622Y-76499851D01*
X143695040Y-76494944D01*
X143735882Y-76424204D01*
X143787263Y-76375212D01*
X143856977Y-76361776D01*
X143922888Y-76388162D01*
X143954118Y-76424204D01*
X143994960Y-76494944D01*
X143999378Y-76499851D01*
X143999379Y-76499852D01*
X144048341Y-76554230D01*
X144122747Y-76636866D01*
X144277248Y-76749118D01*
X144283276Y-76751802D01*
X144283278Y-76751803D01*
X144445681Y-76824109D01*
X144451712Y-76826794D01*
X144539194Y-76845389D01*
X144632056Y-76865128D01*
X144632061Y-76865128D01*
X144638513Y-76866500D01*
X144829487Y-76866500D01*
X144835939Y-76865128D01*
X144835944Y-76865128D01*
X144928806Y-76845389D01*
X145016288Y-76826794D01*
X145022319Y-76824109D01*
X145184722Y-76751803D01*
X145184724Y-76751802D01*
X145190752Y-76749118D01*
X145345253Y-76636866D01*
X145419659Y-76554230D01*
X145468621Y-76499852D01*
X145468622Y-76499851D01*
X145473040Y-76494944D01*
X145513882Y-76424204D01*
X145565263Y-76375212D01*
X145634977Y-76361776D01*
X145700888Y-76388162D01*
X145732118Y-76424204D01*
X145772960Y-76494944D01*
X145777378Y-76499851D01*
X145777379Y-76499852D01*
X145826341Y-76554230D01*
X145900747Y-76636866D01*
X146055248Y-76749118D01*
X146061276Y-76751802D01*
X146061278Y-76751803D01*
X146223681Y-76824109D01*
X146229712Y-76826794D01*
X146317194Y-76845389D01*
X146410056Y-76865128D01*
X146410061Y-76865128D01*
X146416513Y-76866500D01*
X146607487Y-76866500D01*
X146613939Y-76865128D01*
X146613944Y-76865128D01*
X146706806Y-76845389D01*
X146794288Y-76826794D01*
X146800319Y-76824109D01*
X146962722Y-76751803D01*
X146962724Y-76751802D01*
X146968752Y-76749118D01*
X147123253Y-76636866D01*
X147197659Y-76554230D01*
X147246621Y-76499852D01*
X147246622Y-76499851D01*
X147251040Y-76494944D01*
X147315673Y-76382997D01*
X147343223Y-76335279D01*
X147343224Y-76335278D01*
X147346527Y-76329556D01*
X147405542Y-76147928D01*
X147414850Y-76059373D01*
X147424814Y-75964565D01*
X147425504Y-75958000D01*
X147421946Y-75924148D01*
X147406232Y-75774635D01*
X147406232Y-75774633D01*
X147405542Y-75768072D01*
X147346527Y-75586444D01*
X147342007Y-75578614D01*
X147254341Y-75426774D01*
X147251040Y-75421056D01*
X147245847Y-75415288D01*
X147127675Y-75284045D01*
X147127674Y-75284044D01*
X147123253Y-75279134D01*
X146968752Y-75166882D01*
X146962724Y-75164198D01*
X146962722Y-75164197D01*
X146800319Y-75091891D01*
X146800318Y-75091891D01*
X146794288Y-75089206D01*
X146700888Y-75069353D01*
X146613944Y-75050872D01*
X146613939Y-75050872D01*
X146607487Y-75049500D01*
X146551595Y-75049500D01*
X146483474Y-75029498D01*
X146462500Y-75012595D01*
X146420405Y-74970500D01*
X146386379Y-74908188D01*
X146383500Y-74881405D01*
X146383500Y-67008524D01*
X146403502Y-66940403D01*
X146415858Y-66924221D01*
X146489040Y-66842944D01*
X146584527Y-66677556D01*
X146643542Y-66495928D01*
X146644781Y-66484145D01*
X146662814Y-66312565D01*
X146663504Y-66306000D01*
X146651893Y-66195526D01*
X146644232Y-66122635D01*
X146644232Y-66122633D01*
X146643542Y-66116072D01*
X146584527Y-65934444D01*
X146489040Y-65769056D01*
X146361253Y-65627134D01*
X146206752Y-65514882D01*
X146200724Y-65512198D01*
X146200722Y-65512197D01*
X146038319Y-65439891D01*
X146038318Y-65439891D01*
X146032288Y-65437206D01*
X145938888Y-65417353D01*
X145851944Y-65398872D01*
X145851939Y-65398872D01*
X145845487Y-65397500D01*
X145654513Y-65397500D01*
X145648061Y-65398872D01*
X145648056Y-65398872D01*
X145561112Y-65417353D01*
X145467712Y-65437206D01*
X145461682Y-65439891D01*
X145461681Y-65439891D01*
X145299278Y-65512197D01*
X145299276Y-65512198D01*
X145293248Y-65514882D01*
X145138747Y-65627134D01*
X145010960Y-65769056D01*
X144915473Y-65934444D01*
X144856458Y-66116072D01*
X144855768Y-66122633D01*
X144855768Y-66122635D01*
X144848107Y-66195526D01*
X144836496Y-66306000D01*
X144837186Y-66312565D01*
X144855220Y-66484145D01*
X144856458Y-66495928D01*
X144915473Y-66677556D01*
X145010960Y-66842944D01*
X145084137Y-66924215D01*
X145114853Y-66988221D01*
X145116500Y-67008524D01*
X145116500Y-69911246D01*
X145096498Y-69979367D01*
X145042842Y-70025860D01*
X144972568Y-70035964D01*
X144907988Y-70006470D01*
X144869604Y-69946744D01*
X144867254Y-69937444D01*
X144866232Y-69932634D01*
X144865542Y-69926072D01*
X144806527Y-69744444D01*
X144711040Y-69579056D01*
X144583253Y-69437134D01*
X144428752Y-69324882D01*
X144422724Y-69322198D01*
X144422722Y-69322197D01*
X144260319Y-69249891D01*
X144260318Y-69249891D01*
X144254288Y-69247206D01*
X144160888Y-69227353D01*
X144073944Y-69208872D01*
X144073939Y-69208872D01*
X144067487Y-69207500D01*
X143876513Y-69207500D01*
X143870061Y-69208872D01*
X143870056Y-69208872D01*
X143783112Y-69227353D01*
X143689712Y-69247206D01*
X143683682Y-69249891D01*
X143683681Y-69249891D01*
X143521278Y-69322197D01*
X143521276Y-69322198D01*
X143515248Y-69324882D01*
X143360747Y-69437134D01*
X143232960Y-69579056D01*
X143137473Y-69744444D01*
X143078458Y-69926072D01*
X143077769Y-69932631D01*
X143077768Y-69932634D01*
X143060388Y-70097996D01*
X143033375Y-70163652D01*
X142975153Y-70204282D01*
X142904208Y-70206985D01*
X142843064Y-70170903D01*
X142815245Y-70123761D01*
X142814857Y-70122565D01*
X142774527Y-69998444D01*
X142766152Y-69983937D01*
X142736532Y-69932635D01*
X142679040Y-69833056D01*
X142650542Y-69801405D01*
X142555675Y-69696045D01*
X142555674Y-69696044D01*
X142551253Y-69691134D01*
X142396752Y-69578882D01*
X142390724Y-69576198D01*
X142390722Y-69576197D01*
X142228319Y-69503891D01*
X142228318Y-69503891D01*
X142222288Y-69501206D01*
X142128888Y-69481353D01*
X142041944Y-69462872D01*
X142041939Y-69462872D01*
X142035487Y-69461500D01*
X141844513Y-69461500D01*
X141838061Y-69462872D01*
X141838056Y-69462872D01*
X141751112Y-69481353D01*
X141657712Y-69501206D01*
X141651682Y-69503891D01*
X141651681Y-69503891D01*
X141489278Y-69576197D01*
X141489276Y-69576198D01*
X141483248Y-69578882D01*
X141328747Y-69691134D01*
X141324326Y-69696044D01*
X141324325Y-69696045D01*
X141229459Y-69801405D01*
X141200960Y-69833056D01*
X141143468Y-69932635D01*
X141113849Y-69983937D01*
X141105473Y-69998444D01*
X141046458Y-70180072D01*
X141026496Y-70370000D01*
X128799509Y-70370000D01*
X128799509Y-70362170D01*
X128801060Y-70342459D01*
X128802988Y-70330286D01*
X128804228Y-70322458D01*
X128800068Y-70278447D01*
X128799509Y-70266590D01*
X128799510Y-64916224D01*
X128819512Y-64848103D01*
X128873168Y-64801610D01*
X128943442Y-64791507D01*
X129008022Y-64821000D01*
X129026333Y-64840656D01*
X129092739Y-64929261D01*
X129209295Y-65016615D01*
X129345684Y-65067745D01*
X129407866Y-65074500D01*
X131104134Y-65074500D01*
X131166316Y-65067745D01*
X131302705Y-65016615D01*
X131419261Y-64929261D01*
X131477119Y-64852062D01*
X132034493Y-64852062D01*
X132043789Y-64864077D01*
X132094994Y-64899931D01*
X132104489Y-64905414D01*
X132301947Y-64997490D01*
X132312239Y-65001236D01*
X132522688Y-65057625D01*
X132533481Y-65059528D01*
X132750525Y-65078517D01*
X132761475Y-65078517D01*
X132978519Y-65059528D01*
X132989312Y-65057625D01*
X133199761Y-65001236D01*
X133210053Y-64997490D01*
X133407511Y-64905414D01*
X133417006Y-64899931D01*
X133469048Y-64863491D01*
X133477424Y-64853012D01*
X133470356Y-64839566D01*
X132768812Y-64138022D01*
X132754868Y-64130408D01*
X132753035Y-64130539D01*
X132746420Y-64134790D01*
X132040923Y-64840287D01*
X132034493Y-64852062D01*
X131477119Y-64852062D01*
X131506615Y-64812705D01*
X131557745Y-64676316D01*
X131564500Y-64614134D01*
X131564500Y-64610815D01*
X131588153Y-64543890D01*
X131634156Y-64508196D01*
X131633141Y-64506266D01*
X131644000Y-64500558D01*
X131644245Y-64500368D01*
X131644403Y-64500347D01*
X131682434Y-64480356D01*
X132383978Y-63778812D01*
X132390356Y-63767132D01*
X133120408Y-63767132D01*
X133120539Y-63768965D01*
X133124790Y-63775580D01*
X133830287Y-64481077D01*
X133842062Y-64487507D01*
X133854077Y-64478211D01*
X133889931Y-64427006D01*
X133895414Y-64417511D01*
X133987490Y-64220053D01*
X133991236Y-64209761D01*
X134047625Y-63999312D01*
X134049528Y-63988519D01*
X134068517Y-63771475D01*
X134068517Y-63760525D01*
X134049528Y-63543481D01*
X134047625Y-63532688D01*
X133991236Y-63322239D01*
X133987490Y-63311947D01*
X133895414Y-63114489D01*
X133889931Y-63104994D01*
X133853491Y-63052952D01*
X133843012Y-63044576D01*
X133829566Y-63051644D01*
X133128022Y-63753188D01*
X133120408Y-63767132D01*
X132390356Y-63767132D01*
X132391592Y-63764868D01*
X132391461Y-63763035D01*
X132387210Y-63756420D01*
X131681713Y-63050923D01*
X131639971Y-63028129D01*
X131629971Y-63025953D01*
X131579773Y-62975747D01*
X131564549Y-62922186D01*
X131564500Y-62921281D01*
X131564500Y-62917866D01*
X131557745Y-62855684D01*
X131506615Y-62719295D01*
X131476407Y-62678988D01*
X132034576Y-62678988D01*
X132041644Y-62692434D01*
X132743188Y-63393978D01*
X132757132Y-63401592D01*
X132758965Y-63401461D01*
X132765580Y-63397210D01*
X133471077Y-62691713D01*
X133477507Y-62679938D01*
X133468211Y-62667923D01*
X133417006Y-62632069D01*
X133407511Y-62626586D01*
X133210053Y-62534510D01*
X133199761Y-62530764D01*
X132989312Y-62474375D01*
X132978519Y-62472472D01*
X132761475Y-62453483D01*
X132750525Y-62453483D01*
X132533481Y-62472472D01*
X132522688Y-62474375D01*
X132312239Y-62530764D01*
X132301947Y-62534510D01*
X132104489Y-62626586D01*
X132094994Y-62632069D01*
X132042952Y-62668509D01*
X132034576Y-62678988D01*
X131476407Y-62678988D01*
X131419261Y-62602739D01*
X131302705Y-62515385D01*
X131166316Y-62464255D01*
X131104134Y-62457500D01*
X129407866Y-62457500D01*
X129345684Y-62464255D01*
X129209295Y-62515385D01*
X129092739Y-62602739D01*
X129087358Y-62609919D01*
X129087357Y-62609920D01*
X129026336Y-62691340D01*
X128969477Y-62733855D01*
X128898658Y-62738881D01*
X128836365Y-62704821D01*
X128802375Y-62642490D01*
X128799510Y-62615775D01*
X128799510Y-60328585D01*
X128819512Y-60260464D01*
X128836415Y-60239489D01*
X128957501Y-60118404D01*
X129019813Y-60084379D01*
X129046596Y-60081500D01*
X152368339Y-60081500D01*
X152440657Y-60104320D01*
X152560032Y-60187989D01*
X152604335Y-60243467D01*
X152610045Y-60261999D01*
X152610458Y-60265928D01*
X152669473Y-60447556D01*
X152764960Y-60612944D01*
X152769378Y-60617851D01*
X152769379Y-60617852D01*
X152888325Y-60749955D01*
X152892747Y-60754866D01*
X153047248Y-60867118D01*
X153053276Y-60869802D01*
X153053278Y-60869803D01*
X153215681Y-60942109D01*
X153221712Y-60944794D01*
X153302081Y-60961877D01*
X153402056Y-60983128D01*
X153402061Y-60983128D01*
X153408513Y-60984500D01*
X153599487Y-60984500D01*
X153605939Y-60983128D01*
X153605944Y-60983128D01*
X153705919Y-60961877D01*
X153786288Y-60944794D01*
X153792319Y-60942109D01*
X153954722Y-60869803D01*
X153954724Y-60869802D01*
X153960752Y-60867118D01*
X154115253Y-60754866D01*
X154119675Y-60749955D01*
X154238621Y-60617852D01*
X154238622Y-60617851D01*
X154243040Y-60612944D01*
X154338527Y-60447556D01*
X154397542Y-60265928D01*
X154414528Y-60104320D01*
X154416814Y-60082565D01*
X154417504Y-60076000D01*
X154397542Y-59886072D01*
X154338527Y-59704444D01*
X154313846Y-59661695D01*
X154297108Y-59592699D01*
X154320329Y-59525608D01*
X154329329Y-59514385D01*
X154358617Y-59481857D01*
X154358620Y-59481853D01*
X154363040Y-59476944D01*
X154458527Y-59311556D01*
X154517542Y-59129928D01*
X154521354Y-59093665D01*
X154536814Y-58946565D01*
X154537504Y-58940000D01*
X154530629Y-58874592D01*
X154518232Y-58756635D01*
X154518232Y-58756633D01*
X154517542Y-58750072D01*
X154458527Y-58568444D01*
X154449843Y-58553402D01*
X154415573Y-58494046D01*
X154363040Y-58403056D01*
X154346882Y-58385110D01*
X154239675Y-58266045D01*
X154239674Y-58266044D01*
X154235253Y-58261134D01*
X154080752Y-58148882D01*
X154074724Y-58146198D01*
X154074722Y-58146197D01*
X153912319Y-58073891D01*
X153912318Y-58073891D01*
X153906288Y-58071206D01*
X153793721Y-58047279D01*
X153725944Y-58032872D01*
X153725939Y-58032872D01*
X153719487Y-58031500D01*
X153528513Y-58031500D01*
X153522061Y-58032872D01*
X153522056Y-58032872D01*
X153454279Y-58047279D01*
X153341712Y-58071206D01*
X153335682Y-58073891D01*
X153335681Y-58073891D01*
X153173278Y-58146197D01*
X153173276Y-58146198D01*
X153167248Y-58148882D01*
X153161907Y-58152762D01*
X153161906Y-58152763D01*
X153034329Y-58245454D01*
X153012747Y-58261134D01*
X153008332Y-58266037D01*
X153003420Y-58270460D01*
X153002295Y-58269211D01*
X152948986Y-58302051D01*
X152915800Y-58306500D01*
X128556768Y-58306500D01*
X128545585Y-58305973D01*
X128538092Y-58304298D01*
X128530166Y-58304547D01*
X128530165Y-58304547D01*
X128470002Y-58306438D01*
X128466044Y-58306500D01*
X128438144Y-58306500D01*
X128434154Y-58307004D01*
X128422320Y-58307936D01*
X128378111Y-58309326D01*
X128370497Y-58311538D01*
X128370492Y-58311539D01*
X128358659Y-58314977D01*
X128339296Y-58318988D01*
X128319203Y-58321526D01*
X128311836Y-58324443D01*
X128311831Y-58324444D01*
X128278092Y-58337802D01*
X128266865Y-58341646D01*
X128224407Y-58353982D01*
X128217581Y-58358019D01*
X128206972Y-58364293D01*
X128189224Y-58372988D01*
X128170383Y-58380448D01*
X128163967Y-58385110D01*
X128163966Y-58385110D01*
X128134613Y-58406436D01*
X128124693Y-58412952D01*
X128093465Y-58431420D01*
X128093462Y-58431422D01*
X128086638Y-58435458D01*
X128072317Y-58449779D01*
X128057284Y-58462619D01*
X128040893Y-58474528D01*
X128016942Y-58503480D01*
X128012712Y-58508593D01*
X128004722Y-58517373D01*
X127823095Y-58699000D01*
X127760783Y-58733026D01*
X127689968Y-58727961D01*
X127633132Y-58685414D01*
X127608321Y-58618894D01*
X127608000Y-58609905D01*
X127608000Y-54034000D01*
X127628002Y-53965879D01*
X127681658Y-53919386D01*
X127734000Y-53908000D01*
X168466000Y-53908000D01*
X168534121Y-53928002D01*
G37*
%TD.AperFunction*%
%TA.AperFunction,Conductor*%
G36*
X122022936Y-71269502D02*
G01*
X122069429Y-71323158D01*
X122079533Y-71393432D01*
X122050039Y-71458012D01*
X122043910Y-71464595D01*
X121907747Y-71600758D01*
X121899461Y-71608298D01*
X121892982Y-71612410D01*
X121887557Y-71618187D01*
X121846357Y-71662061D01*
X121843602Y-71664903D01*
X121823865Y-71684640D01*
X121821385Y-71687837D01*
X121813682Y-71696857D01*
X121783414Y-71729089D01*
X121779595Y-71736035D01*
X121779593Y-71736038D01*
X121773652Y-71746844D01*
X121762801Y-71763363D01*
X121750386Y-71779369D01*
X121747241Y-71786638D01*
X121747238Y-71786642D01*
X121732826Y-71819947D01*
X121727609Y-71830597D01*
X121706305Y-71869350D01*
X121704334Y-71877025D01*
X121704334Y-71877026D01*
X121701267Y-71888972D01*
X121694863Y-71907676D01*
X121686819Y-71926265D01*
X121685580Y-71934088D01*
X121685577Y-71934098D01*
X121679901Y-71969934D01*
X121677495Y-71981554D01*
X121669046Y-72014462D01*
X121666500Y-72024380D01*
X121666500Y-72044634D01*
X121664949Y-72064344D01*
X121661780Y-72084353D01*
X121662526Y-72092245D01*
X121665941Y-72128371D01*
X121666500Y-72140229D01*
X121666500Y-75085406D01*
X121646498Y-75153527D01*
X121629595Y-75174501D01*
X120399500Y-76404595D01*
X120337188Y-76438621D01*
X120310405Y-76441500D01*
X118987405Y-76441500D01*
X118919284Y-76421498D01*
X118881613Y-76383940D01*
X118793422Y-76247617D01*
X118793420Y-76247614D01*
X118790614Y-76243277D01*
X118640270Y-76078051D01*
X118636219Y-76074852D01*
X118636215Y-76074848D01*
X118469014Y-75942800D01*
X118469010Y-75942798D01*
X118464959Y-75939598D01*
X118423653Y-75916796D01*
X118373684Y-75866364D01*
X118358912Y-75796921D01*
X118384028Y-75730516D01*
X118411380Y-75703909D01*
X118478780Y-75655833D01*
X118590460Y-75576173D01*
X118609199Y-75557500D01*
X118740382Y-75426774D01*
X118748696Y-75418489D01*
X118816883Y-75323597D01*
X118876035Y-75241277D01*
X118879053Y-75237077D01*
X118886721Y-75221563D01*
X118975736Y-75041453D01*
X118975737Y-75041451D01*
X118978030Y-75036811D01*
X119042970Y-74823069D01*
X119072129Y-74601590D01*
X119073756Y-74535000D01*
X119055452Y-74312361D01*
X119027421Y-74200765D01*
X119030225Y-74129823D01*
X119060530Y-74080974D01*
X121855100Y-71286405D01*
X121917412Y-71252379D01*
X121944195Y-71249500D01*
X121954815Y-71249500D01*
X122022936Y-71269502D01*
G37*
%TD.AperFunction*%
%TD*%
M02*
