%TF.GenerationSoftware,KiCad,Pcbnew,6.0.2+dfsg-1*%
%TF.CreationDate,2022-06-15T15:33:45+02:00*%
%TF.ProjectId,vscp-din-wireless-esp32-can,76736370-2d64-4696-9e2d-776972656c65,rev?*%
%TF.SameCoordinates,Original*%
%TF.FileFunction,Legend,Top*%
%TF.FilePolarity,Positive*%
%FSLAX46Y46*%
G04 Gerber Fmt 4.6, Leading zero omitted, Abs format (unit mm)*
G04 Created by KiCad (PCBNEW 6.0.2+dfsg-1) date 2022-06-15 15:33:45*
%MOMM*%
%LPD*%
G01*
G04 APERTURE LIST*
%ADD10C,0.150000*%
%ADD11C,0.120000*%
%ADD12C,0.010000*%
G04 APERTURE END LIST*
D10*
%TO.C,J1*%
X126222380Y-97933333D02*
X126936666Y-97933333D01*
X127079523Y-97980952D01*
X127174761Y-98076190D01*
X127222380Y-98219047D01*
X127222380Y-98314285D01*
X127222380Y-96933333D02*
X127222380Y-97504761D01*
X127222380Y-97219047D02*
X126222380Y-97219047D01*
X126365238Y-97314285D01*
X126460476Y-97409523D01*
X126508095Y-97504761D01*
%TO.C,Y1*%
X150304190Y-86340190D02*
X150780380Y-86340190D01*
X149780380Y-86673523D02*
X150304190Y-86340190D01*
X149780380Y-86006857D01*
X150780380Y-85149714D02*
X150780380Y-85721142D01*
X150780380Y-85435428D02*
X149780380Y-85435428D01*
X149923238Y-85530666D01*
X150018476Y-85625904D01*
X150066095Y-85721142D01*
%TO.C,U3*%
X143972095Y-94968380D02*
X143972095Y-95777904D01*
X144019714Y-95873142D01*
X144067333Y-95920761D01*
X144162571Y-95968380D01*
X144353047Y-95968380D01*
X144448285Y-95920761D01*
X144495904Y-95873142D01*
X144543523Y-95777904D01*
X144543523Y-94968380D01*
X144924476Y-94968380D02*
X145543523Y-94968380D01*
X145210190Y-95349333D01*
X145353047Y-95349333D01*
X145448285Y-95396952D01*
X145495904Y-95444571D01*
X145543523Y-95539809D01*
X145543523Y-95777904D01*
X145495904Y-95873142D01*
X145448285Y-95920761D01*
X145353047Y-95968380D01*
X145067333Y-95968380D01*
X144972095Y-95920761D01*
X144924476Y-95873142D01*
%TO.C,U2*%
X144480095Y-86532380D02*
X144480095Y-87341904D01*
X144527714Y-87437142D01*
X144575333Y-87484761D01*
X144670571Y-87532380D01*
X144861047Y-87532380D01*
X144956285Y-87484761D01*
X145003904Y-87437142D01*
X145051523Y-87341904D01*
X145051523Y-86532380D01*
X145480095Y-86627619D02*
X145527714Y-86580000D01*
X145622952Y-86532380D01*
X145861047Y-86532380D01*
X145956285Y-86580000D01*
X146003904Y-86627619D01*
X146051523Y-86722857D01*
X146051523Y-86818095D01*
X146003904Y-86960952D01*
X145432476Y-87532380D01*
X146051523Y-87532380D01*
%TO.C,R9*%
X129327333Y-89746380D02*
X128994000Y-89270190D01*
X128755904Y-89746380D02*
X128755904Y-88746380D01*
X129136857Y-88746380D01*
X129232095Y-88794000D01*
X129279714Y-88841619D01*
X129327333Y-88936857D01*
X129327333Y-89079714D01*
X129279714Y-89174952D01*
X129232095Y-89222571D01*
X129136857Y-89270190D01*
X128755904Y-89270190D01*
X129803523Y-89746380D02*
X129994000Y-89746380D01*
X130089238Y-89698761D01*
X130136857Y-89651142D01*
X130232095Y-89508285D01*
X130279714Y-89317809D01*
X130279714Y-88936857D01*
X130232095Y-88841619D01*
X130184476Y-88794000D01*
X130089238Y-88746380D01*
X129898761Y-88746380D01*
X129803523Y-88794000D01*
X129755904Y-88841619D01*
X129708285Y-88936857D01*
X129708285Y-89174952D01*
X129755904Y-89270190D01*
X129803523Y-89317809D01*
X129898761Y-89365428D01*
X130089238Y-89365428D01*
X130184476Y-89317809D01*
X130232095Y-89270190D01*
X130279714Y-89174952D01*
%TO.C,R7*%
X135931333Y-78950380D02*
X135598000Y-78474190D01*
X135359904Y-78950380D02*
X135359904Y-77950380D01*
X135740857Y-77950380D01*
X135836095Y-77998000D01*
X135883714Y-78045619D01*
X135931333Y-78140857D01*
X135931333Y-78283714D01*
X135883714Y-78378952D01*
X135836095Y-78426571D01*
X135740857Y-78474190D01*
X135359904Y-78474190D01*
X136264666Y-77950380D02*
X136931333Y-77950380D01*
X136502761Y-78950380D01*
%TO.C,R4*%
X135677333Y-83268380D02*
X135344000Y-82792190D01*
X135105904Y-83268380D02*
X135105904Y-82268380D01*
X135486857Y-82268380D01*
X135582095Y-82316000D01*
X135629714Y-82363619D01*
X135677333Y-82458857D01*
X135677333Y-82601714D01*
X135629714Y-82696952D01*
X135582095Y-82744571D01*
X135486857Y-82792190D01*
X135105904Y-82792190D01*
X136534476Y-82601714D02*
X136534476Y-83268380D01*
X136296380Y-82220761D02*
X136058285Y-82935047D01*
X136677333Y-82935047D01*
%TO.C,J4*%
X125350666Y-88066380D02*
X125350666Y-88780666D01*
X125303047Y-88923523D01*
X125207809Y-89018761D01*
X125064952Y-89066380D01*
X124969714Y-89066380D01*
X126255428Y-88399714D02*
X126255428Y-89066380D01*
X126017333Y-88018761D02*
X125779238Y-88733047D01*
X126398285Y-88733047D01*
%TO.C,D2*%
X135613904Y-88348380D02*
X135613904Y-87348380D01*
X135852000Y-87348380D01*
X135994857Y-87396000D01*
X136090095Y-87491238D01*
X136137714Y-87586476D01*
X136185333Y-87776952D01*
X136185333Y-87919809D01*
X136137714Y-88110285D01*
X136090095Y-88205523D01*
X135994857Y-88300761D01*
X135852000Y-88348380D01*
X135613904Y-88348380D01*
X136566285Y-87443619D02*
X136613904Y-87396000D01*
X136709142Y-87348380D01*
X136947238Y-87348380D01*
X137042476Y-87396000D01*
X137090095Y-87443619D01*
X137137714Y-87538857D01*
X137137714Y-87634095D01*
X137090095Y-87776952D01*
X136518666Y-88348380D01*
X137137714Y-88348380D01*
%TO.C,C7*%
X156863333Y-94227142D02*
X156815714Y-94274761D01*
X156672857Y-94322380D01*
X156577619Y-94322380D01*
X156434761Y-94274761D01*
X156339523Y-94179523D01*
X156291904Y-94084285D01*
X156244285Y-93893809D01*
X156244285Y-93750952D01*
X156291904Y-93560476D01*
X156339523Y-93465238D01*
X156434761Y-93370000D01*
X156577619Y-93322380D01*
X156672857Y-93322380D01*
X156815714Y-93370000D01*
X156863333Y-93417619D01*
X157196666Y-93322380D02*
X157863333Y-93322380D01*
X157434761Y-94322380D01*
%TO.C,C6*%
X153899333Y-76413142D02*
X153851714Y-76460761D01*
X153708857Y-76508380D01*
X153613619Y-76508380D01*
X153470761Y-76460761D01*
X153375523Y-76365523D01*
X153327904Y-76270285D01*
X153280285Y-76079809D01*
X153280285Y-75936952D01*
X153327904Y-75746476D01*
X153375523Y-75651238D01*
X153470761Y-75556000D01*
X153613619Y-75508380D01*
X153708857Y-75508380D01*
X153851714Y-75556000D01*
X153899333Y-75603619D01*
X154756476Y-75508380D02*
X154566000Y-75508380D01*
X154470761Y-75556000D01*
X154423142Y-75603619D01*
X154327904Y-75746476D01*
X154280285Y-75936952D01*
X154280285Y-76317904D01*
X154327904Y-76413142D01*
X154375523Y-76460761D01*
X154470761Y-76508380D01*
X154661238Y-76508380D01*
X154756476Y-76460761D01*
X154804095Y-76413142D01*
X154851714Y-76317904D01*
X154851714Y-76079809D01*
X154804095Y-75984571D01*
X154756476Y-75936952D01*
X154661238Y-75889333D01*
X154470761Y-75889333D01*
X154375523Y-75936952D01*
X154327904Y-75984571D01*
X154280285Y-76079809D01*
%TO.C,C5*%
X135677333Y-85713142D02*
X135629714Y-85760761D01*
X135486857Y-85808380D01*
X135391619Y-85808380D01*
X135248761Y-85760761D01*
X135153523Y-85665523D01*
X135105904Y-85570285D01*
X135058285Y-85379809D01*
X135058285Y-85236952D01*
X135105904Y-85046476D01*
X135153523Y-84951238D01*
X135248761Y-84856000D01*
X135391619Y-84808380D01*
X135486857Y-84808380D01*
X135629714Y-84856000D01*
X135677333Y-84903619D01*
X136582095Y-84808380D02*
X136105904Y-84808380D01*
X136058285Y-85284571D01*
X136105904Y-85236952D01*
X136201142Y-85189333D01*
X136439238Y-85189333D01*
X136534476Y-85236952D01*
X136582095Y-85284571D01*
X136629714Y-85379809D01*
X136629714Y-85617904D01*
X136582095Y-85713142D01*
X136534476Y-85760761D01*
X136439238Y-85808380D01*
X136201142Y-85808380D01*
X136105904Y-85760761D01*
X136058285Y-85713142D01*
%TO.C,C4*%
X136947333Y-95775142D02*
X136899714Y-95822761D01*
X136756857Y-95870380D01*
X136661619Y-95870380D01*
X136518761Y-95822761D01*
X136423523Y-95727523D01*
X136375904Y-95632285D01*
X136328285Y-95441809D01*
X136328285Y-95298952D01*
X136375904Y-95108476D01*
X136423523Y-95013238D01*
X136518761Y-94918000D01*
X136661619Y-94870380D01*
X136756857Y-94870380D01*
X136899714Y-94918000D01*
X136947333Y-94965619D01*
X137804476Y-95203714D02*
X137804476Y-95870380D01*
X137566380Y-94822761D02*
X137328285Y-95537047D01*
X137947333Y-95537047D01*
%TO.C,R6*%
X162078380Y-65456666D02*
X161602190Y-65790000D01*
X162078380Y-66028095D02*
X161078380Y-66028095D01*
X161078380Y-65647142D01*
X161126000Y-65551904D01*
X161173619Y-65504285D01*
X161268857Y-65456666D01*
X161411714Y-65456666D01*
X161506952Y-65504285D01*
X161554571Y-65551904D01*
X161602190Y-65647142D01*
X161602190Y-66028095D01*
X161078380Y-64599523D02*
X161078380Y-64790000D01*
X161126000Y-64885238D01*
X161173619Y-64932857D01*
X161316476Y-65028095D01*
X161506952Y-65075714D01*
X161887904Y-65075714D01*
X161983142Y-65028095D01*
X162030761Y-64980476D01*
X162078380Y-64885238D01*
X162078380Y-64694761D01*
X162030761Y-64599523D01*
X161983142Y-64551904D01*
X161887904Y-64504285D01*
X161649809Y-64504285D01*
X161554571Y-64551904D01*
X161506952Y-64599523D01*
X161459333Y-64694761D01*
X161459333Y-64885238D01*
X161506952Y-64980476D01*
X161554571Y-65028095D01*
X161649809Y-65075714D01*
%TO.C,D1*%
X166093904Y-62948380D02*
X166093904Y-61948380D01*
X166332000Y-61948380D01*
X166474857Y-61996000D01*
X166570095Y-62091238D01*
X166617714Y-62186476D01*
X166665333Y-62376952D01*
X166665333Y-62519809D01*
X166617714Y-62710285D01*
X166570095Y-62805523D01*
X166474857Y-62900761D01*
X166332000Y-62948380D01*
X166093904Y-62948380D01*
X167617714Y-62948380D02*
X167046285Y-62948380D01*
X167332000Y-62948380D02*
X167332000Y-61948380D01*
X167236761Y-62091238D01*
X167141523Y-62186476D01*
X167046285Y-62234095D01*
%TO.C,U1*%
X136862380Y-72442904D02*
X137671904Y-72442904D01*
X137767142Y-72395285D01*
X137814761Y-72347666D01*
X137862380Y-72252428D01*
X137862380Y-72061952D01*
X137814761Y-71966714D01*
X137767142Y-71919095D01*
X137671904Y-71871476D01*
X136862380Y-71871476D01*
X137862380Y-70871476D02*
X137862380Y-71442904D01*
X137862380Y-71157190D02*
X136862380Y-71157190D01*
X137005238Y-71252428D01*
X137100476Y-71347666D01*
X137148095Y-71442904D01*
%TO.C,R8*%
X163220380Y-55550666D02*
X162744190Y-55884000D01*
X163220380Y-56122095D02*
X162220380Y-56122095D01*
X162220380Y-55741142D01*
X162268000Y-55645904D01*
X162315619Y-55598285D01*
X162410857Y-55550666D01*
X162553714Y-55550666D01*
X162648952Y-55598285D01*
X162696571Y-55645904D01*
X162744190Y-55741142D01*
X162744190Y-56122095D01*
X162648952Y-54979238D02*
X162601333Y-55074476D01*
X162553714Y-55122095D01*
X162458476Y-55169714D01*
X162410857Y-55169714D01*
X162315619Y-55122095D01*
X162268000Y-55074476D01*
X162220380Y-54979238D01*
X162220380Y-54788761D01*
X162268000Y-54693523D01*
X162315619Y-54645904D01*
X162410857Y-54598285D01*
X162458476Y-54598285D01*
X162553714Y-54645904D01*
X162601333Y-54693523D01*
X162648952Y-54788761D01*
X162648952Y-54979238D01*
X162696571Y-55074476D01*
X162744190Y-55122095D01*
X162839428Y-55169714D01*
X163029904Y-55169714D01*
X163125142Y-55122095D01*
X163172761Y-55074476D01*
X163220380Y-54979238D01*
X163220380Y-54788761D01*
X163172761Y-54693523D01*
X163125142Y-54645904D01*
X163029904Y-54598285D01*
X162839428Y-54598285D01*
X162744190Y-54645904D01*
X162696571Y-54693523D01*
X162648952Y-54788761D01*
%TO.C,R2*%
X131613333Y-59900380D02*
X131280000Y-59424190D01*
X131041904Y-59900380D02*
X131041904Y-58900380D01*
X131422857Y-58900380D01*
X131518095Y-58948000D01*
X131565714Y-58995619D01*
X131613333Y-59090857D01*
X131613333Y-59233714D01*
X131565714Y-59328952D01*
X131518095Y-59376571D01*
X131422857Y-59424190D01*
X131041904Y-59424190D01*
X131994285Y-58995619D02*
X132041904Y-58948000D01*
X132137142Y-58900380D01*
X132375238Y-58900380D01*
X132470476Y-58948000D01*
X132518095Y-58995619D01*
X132565714Y-59090857D01*
X132565714Y-59186095D01*
X132518095Y-59328952D01*
X131946666Y-59900380D01*
X132565714Y-59900380D01*
%TO.C,R5*%
X124581333Y-72452380D02*
X124248000Y-71976190D01*
X124009904Y-72452380D02*
X124009904Y-71452380D01*
X124390857Y-71452380D01*
X124486095Y-71500000D01*
X124533714Y-71547619D01*
X124581333Y-71642857D01*
X124581333Y-71785714D01*
X124533714Y-71880952D01*
X124486095Y-71928571D01*
X124390857Y-71976190D01*
X124009904Y-71976190D01*
X125486095Y-71452380D02*
X125009904Y-71452380D01*
X124962285Y-71928571D01*
X125009904Y-71880952D01*
X125105142Y-71833333D01*
X125343238Y-71833333D01*
X125438476Y-71880952D01*
X125486095Y-71928571D01*
X125533714Y-72023809D01*
X125533714Y-72261904D01*
X125486095Y-72357142D01*
X125438476Y-72404761D01*
X125343238Y-72452380D01*
X125105142Y-72452380D01*
X125009904Y-72404761D01*
X124962285Y-72357142D01*
%TO.C,R3*%
X124755333Y-80002380D02*
X124422000Y-79526190D01*
X124183904Y-80002380D02*
X124183904Y-79002380D01*
X124564857Y-79002380D01*
X124660095Y-79050000D01*
X124707714Y-79097619D01*
X124755333Y-79192857D01*
X124755333Y-79335714D01*
X124707714Y-79430952D01*
X124660095Y-79478571D01*
X124564857Y-79526190D01*
X124183904Y-79526190D01*
X125088666Y-79002380D02*
X125707714Y-79002380D01*
X125374380Y-79383333D01*
X125517238Y-79383333D01*
X125612476Y-79430952D01*
X125660095Y-79478571D01*
X125707714Y-79573809D01*
X125707714Y-79811904D01*
X125660095Y-79907142D01*
X125612476Y-79954761D01*
X125517238Y-80002380D01*
X125231523Y-80002380D01*
X125136285Y-79954761D01*
X125088666Y-79907142D01*
%TO.C,R1*%
X159030380Y-67488666D02*
X158554190Y-67822000D01*
X159030380Y-68060095D02*
X158030380Y-68060095D01*
X158030380Y-67679142D01*
X158078000Y-67583904D01*
X158125619Y-67536285D01*
X158220857Y-67488666D01*
X158363714Y-67488666D01*
X158458952Y-67536285D01*
X158506571Y-67583904D01*
X158554190Y-67679142D01*
X158554190Y-68060095D01*
X159030380Y-66536285D02*
X159030380Y-67107714D01*
X159030380Y-66822000D02*
X158030380Y-66822000D01*
X158173238Y-66917238D01*
X158268476Y-67012476D01*
X158316095Y-67107714D01*
%TO.C,C8*%
X174699142Y-93638666D02*
X174746761Y-93686285D01*
X174794380Y-93829142D01*
X174794380Y-93924380D01*
X174746761Y-94067238D01*
X174651523Y-94162476D01*
X174556285Y-94210095D01*
X174365809Y-94257714D01*
X174222952Y-94257714D01*
X174032476Y-94210095D01*
X173937238Y-94162476D01*
X173842000Y-94067238D01*
X173794380Y-93924380D01*
X173794380Y-93829142D01*
X173842000Y-93686285D01*
X173889619Y-93638666D01*
X174222952Y-93067238D02*
X174175333Y-93162476D01*
X174127714Y-93210095D01*
X174032476Y-93257714D01*
X173984857Y-93257714D01*
X173889619Y-93210095D01*
X173842000Y-93162476D01*
X173794380Y-93067238D01*
X173794380Y-92876761D01*
X173842000Y-92781523D01*
X173889619Y-92733904D01*
X173984857Y-92686285D01*
X174032476Y-92686285D01*
X174127714Y-92733904D01*
X174175333Y-92781523D01*
X174222952Y-92876761D01*
X174222952Y-93067238D01*
X174270571Y-93162476D01*
X174318190Y-93210095D01*
X174413428Y-93257714D01*
X174603904Y-93257714D01*
X174699142Y-93210095D01*
X174746761Y-93162476D01*
X174794380Y-93067238D01*
X174794380Y-92876761D01*
X174746761Y-92781523D01*
X174699142Y-92733904D01*
X174603904Y-92686285D01*
X174413428Y-92686285D01*
X174318190Y-92733904D01*
X174270571Y-92781523D01*
X174222952Y-92876761D01*
%TO.C,C1*%
X134423142Y-56566666D02*
X134470761Y-56614285D01*
X134518380Y-56757142D01*
X134518380Y-56852380D01*
X134470761Y-56995238D01*
X134375523Y-57090476D01*
X134280285Y-57138095D01*
X134089809Y-57185714D01*
X133946952Y-57185714D01*
X133756476Y-57138095D01*
X133661238Y-57090476D01*
X133566000Y-56995238D01*
X133518380Y-56852380D01*
X133518380Y-56757142D01*
X133566000Y-56614285D01*
X133613619Y-56566666D01*
X134518380Y-55614285D02*
X134518380Y-56185714D01*
X134518380Y-55900000D02*
X133518380Y-55900000D01*
X133661238Y-55995238D01*
X133756476Y-56090476D01*
X133804095Y-56185714D01*
%TO.C,C3*%
X135677333Y-65901142D02*
X135629714Y-65948761D01*
X135486857Y-65996380D01*
X135391619Y-65996380D01*
X135248761Y-65948761D01*
X135153523Y-65853523D01*
X135105904Y-65758285D01*
X135058285Y-65567809D01*
X135058285Y-65424952D01*
X135105904Y-65234476D01*
X135153523Y-65139238D01*
X135248761Y-65044000D01*
X135391619Y-64996380D01*
X135486857Y-64996380D01*
X135629714Y-65044000D01*
X135677333Y-65091619D01*
X136010666Y-64996380D02*
X136629714Y-64996380D01*
X136296380Y-65377333D01*
X136439238Y-65377333D01*
X136534476Y-65424952D01*
X136582095Y-65472571D01*
X136629714Y-65567809D01*
X136629714Y-65805904D01*
X136582095Y-65901142D01*
X136534476Y-65948761D01*
X136439238Y-65996380D01*
X136153523Y-65996380D01*
X136058285Y-65948761D01*
X136010666Y-65901142D01*
%TO.C,C2*%
X133243333Y-67407142D02*
X133195714Y-67454761D01*
X133052857Y-67502380D01*
X132957619Y-67502380D01*
X132814761Y-67454761D01*
X132719523Y-67359523D01*
X132671904Y-67264285D01*
X132624285Y-67073809D01*
X132624285Y-66930952D01*
X132671904Y-66740476D01*
X132719523Y-66645238D01*
X132814761Y-66550000D01*
X132957619Y-66502380D01*
X133052857Y-66502380D01*
X133195714Y-66550000D01*
X133243333Y-66597619D01*
X133624285Y-66597619D02*
X133671904Y-66550000D01*
X133767142Y-66502380D01*
X134005238Y-66502380D01*
X134100476Y-66550000D01*
X134148095Y-66597619D01*
X134195714Y-66692857D01*
X134195714Y-66788095D01*
X134148095Y-66930952D01*
X133576666Y-67502380D01*
X134195714Y-67502380D01*
%TO.C,J2*%
X156572380Y-97883333D02*
X157286666Y-97883333D01*
X157429523Y-97930952D01*
X157524761Y-98026190D01*
X157572380Y-98169047D01*
X157572380Y-98264285D01*
X156667619Y-97454761D02*
X156620000Y-97407142D01*
X156572380Y-97311904D01*
X156572380Y-97073809D01*
X156620000Y-96978571D01*
X156667619Y-96930952D01*
X156762857Y-96883333D01*
X156858095Y-96883333D01*
X157000952Y-96930952D01*
X157572380Y-97502380D01*
X157572380Y-96883333D01*
%TO.C,J3*%
X117222666Y-87602380D02*
X117222666Y-88316666D01*
X117175047Y-88459523D01*
X117079809Y-88554761D01*
X116936952Y-88602380D01*
X116841714Y-88602380D01*
X117603619Y-87602380D02*
X118222666Y-87602380D01*
X117889333Y-87983333D01*
X118032190Y-87983333D01*
X118127428Y-88030952D01*
X118175047Y-88078571D01*
X118222666Y-88173809D01*
X118222666Y-88411904D01*
X118175047Y-88507142D01*
X118127428Y-88554761D01*
X118032190Y-88602380D01*
X117746476Y-88602380D01*
X117651238Y-88554761D01*
X117603619Y-88507142D01*
D11*
%TO.C,J1*%
X127770000Y-98930000D02*
X127770000Y-97600000D01*
X129100000Y-98930000D02*
X127770000Y-98930000D01*
X130370000Y-98930000D02*
X130370000Y-96270000D01*
X130370000Y-96270000D02*
X138050000Y-96270000D01*
X130370000Y-98930000D02*
X138050000Y-98930000D01*
X138050000Y-98930000D02*
X138050000Y-96270000D01*
%TO.C,Y1*%
X156428000Y-92564000D02*
X156428000Y-79964000D01*
X151328000Y-92564000D02*
X156428000Y-92564000D01*
X151328000Y-79964000D02*
X151328000Y-92564000D01*
%TO.C,U3*%
X144988000Y-88892000D02*
X141538000Y-88892000D01*
X144988000Y-88892000D02*
X146938000Y-88892000D01*
X144988000Y-94012000D02*
X143038000Y-94012000D01*
X144988000Y-94012000D02*
X146938000Y-94012000D01*
%TO.C,U2*%
X145242000Y-86235000D02*
X148692000Y-86235000D01*
X145242000Y-86235000D02*
X143292000Y-86235000D01*
X145242000Y-77365000D02*
X147192000Y-77365000D01*
X145242000Y-77365000D02*
X143292000Y-77365000D01*
%TO.C,R9*%
X129266936Y-91679000D02*
X129721064Y-91679000D01*
X129266936Y-90209000D02*
X129721064Y-90209000D01*
%TO.C,R7*%
X139119064Y-77763000D02*
X138664936Y-77763000D01*
X139119064Y-79233000D02*
X138664936Y-79233000D01*
%TO.C,R4*%
X138664936Y-83551000D02*
X139119064Y-83551000D01*
X138664936Y-82081000D02*
X139119064Y-82081000D01*
%TO.C,J4*%
X124354000Y-89614000D02*
X125684000Y-89614000D01*
X124354000Y-90944000D02*
X124354000Y-89614000D01*
X124354000Y-92214000D02*
X127014000Y-92214000D01*
X127014000Y-92214000D02*
X127014000Y-94814000D01*
X124354000Y-92214000D02*
X124354000Y-94814000D01*
X124354000Y-94814000D02*
X127014000Y-94814000D01*
%TO.C,D2*%
X136354000Y-88856000D02*
X137814000Y-88856000D01*
X136354000Y-92016000D02*
X138514000Y-92016000D01*
X136354000Y-92016000D02*
X136354000Y-91086000D01*
X136354000Y-88856000D02*
X136354000Y-89786000D01*
%TO.C,C7*%
X153870748Y-94981000D02*
X154393252Y-94981000D01*
X153870748Y-93511000D02*
X154393252Y-93511000D01*
%TO.C,C6*%
X153804748Y-78471000D02*
X154327252Y-78471000D01*
X153804748Y-77001000D02*
X154327252Y-77001000D01*
%TO.C,C5*%
X139153252Y-84621000D02*
X138630748Y-84621000D01*
X139153252Y-86091000D02*
X138630748Y-86091000D01*
%TO.C,C4*%
X137375252Y-93003000D02*
X136852748Y-93003000D01*
X137375252Y-94473000D02*
X136852748Y-94473000D01*
D12*
%TO.C,REF\u002A\u002A*%
X169159014Y-75352998D02*
X169317006Y-75353863D01*
X169317006Y-75353863D02*
X169431347Y-75356205D01*
X169431347Y-75356205D02*
X169509407Y-75360762D01*
X169509407Y-75360762D02*
X169558554Y-75368270D01*
X169558554Y-75368270D02*
X169586159Y-75379466D01*
X169586159Y-75379466D02*
X169599592Y-75395088D01*
X169599592Y-75395088D02*
X169606221Y-75415873D01*
X169606221Y-75415873D02*
X169606865Y-75418563D01*
X169606865Y-75418563D02*
X169616935Y-75467113D01*
X169616935Y-75467113D02*
X169635575Y-75562905D01*
X169635575Y-75562905D02*
X169660845Y-75695743D01*
X169660845Y-75695743D02*
X169690807Y-75855431D01*
X169690807Y-75855431D02*
X169723522Y-76031774D01*
X169723522Y-76031774D02*
X169724664Y-76037967D01*
X169724664Y-76037967D02*
X169757433Y-76210782D01*
X169757433Y-76210782D02*
X169788093Y-76363469D01*
X169788093Y-76363469D02*
X169814664Y-76486871D01*
X169814664Y-76486871D02*
X169835167Y-76571831D01*
X169835167Y-76571831D02*
X169847626Y-76609190D01*
X169847626Y-76609190D02*
X169848220Y-76609852D01*
X169848220Y-76609852D02*
X169884919Y-76628095D01*
X169884919Y-76628095D02*
X169960586Y-76658497D01*
X169960586Y-76658497D02*
X170058878Y-76694493D01*
X170058878Y-76694493D02*
X170059425Y-76694685D01*
X170059425Y-76694685D02*
X170183233Y-76741222D01*
X170183233Y-76741222D02*
X170329196Y-76800504D01*
X170329196Y-76800504D02*
X170466781Y-76860109D01*
X170466781Y-76860109D02*
X170473293Y-76863056D01*
X170473293Y-76863056D02*
X170697390Y-76964765D01*
X170697390Y-76964765D02*
X171193619Y-76625897D01*
X171193619Y-76625897D02*
X171345846Y-76522592D01*
X171345846Y-76522592D02*
X171483741Y-76430237D01*
X171483741Y-76430237D02*
X171599315Y-76354084D01*
X171599315Y-76354084D02*
X171684579Y-76299385D01*
X171684579Y-76299385D02*
X171731544Y-76271393D01*
X171731544Y-76271393D02*
X171736004Y-76269317D01*
X171736004Y-76269317D02*
X171770134Y-76278560D01*
X171770134Y-76278560D02*
X171833881Y-76323156D01*
X171833881Y-76323156D02*
X171929731Y-76405209D01*
X171929731Y-76405209D02*
X172060169Y-76526821D01*
X172060169Y-76526821D02*
X172193328Y-76656205D01*
X172193328Y-76656205D02*
X172321694Y-76783702D01*
X172321694Y-76783702D02*
X172436581Y-76900046D01*
X172436581Y-76900046D02*
X172531073Y-76998052D01*
X172531073Y-76998052D02*
X172598253Y-77070536D01*
X172598253Y-77070536D02*
X172631206Y-77110313D01*
X172631206Y-77110313D02*
X172632432Y-77112361D01*
X172632432Y-77112361D02*
X172636074Y-77139656D01*
X172636074Y-77139656D02*
X172622350Y-77184234D01*
X172622350Y-77184234D02*
X172587869Y-77252112D01*
X172587869Y-77252112D02*
X172529239Y-77349311D01*
X172529239Y-77349311D02*
X172443070Y-77481851D01*
X172443070Y-77481851D02*
X172328200Y-77652476D01*
X172328200Y-77652476D02*
X172226254Y-77802655D01*
X172226254Y-77802655D02*
X172135123Y-77937350D01*
X172135123Y-77937350D02*
X172060073Y-78048740D01*
X172060073Y-78048740D02*
X172006369Y-78129005D01*
X172006369Y-78129005D02*
X171979280Y-78170325D01*
X171979280Y-78170325D02*
X171977574Y-78173130D01*
X171977574Y-78173130D02*
X171980882Y-78212721D01*
X171980882Y-78212721D02*
X172005953Y-78289669D01*
X172005953Y-78289669D02*
X172047798Y-78389432D01*
X172047798Y-78389432D02*
X172062712Y-78421291D01*
X172062712Y-78421291D02*
X172127786Y-78563226D01*
X172127786Y-78563226D02*
X172197212Y-78724273D01*
X172197212Y-78724273D02*
X172253609Y-78863621D01*
X172253609Y-78863621D02*
X172294247Y-78967044D01*
X172294247Y-78967044D02*
X172326526Y-79045642D01*
X172326526Y-79045642D02*
X172345178Y-79086720D01*
X172345178Y-79086720D02*
X172347497Y-79089885D01*
X172347497Y-79089885D02*
X172381803Y-79095128D01*
X172381803Y-79095128D02*
X172462669Y-79109494D01*
X172462669Y-79109494D02*
X172579343Y-79130937D01*
X172579343Y-79130937D02*
X172721075Y-79157413D01*
X172721075Y-79157413D02*
X172877110Y-79186877D01*
X172877110Y-79186877D02*
X173036698Y-79217283D01*
X173036698Y-79217283D02*
X173189085Y-79246588D01*
X173189085Y-79246588D02*
X173323521Y-79272745D01*
X173323521Y-79272745D02*
X173429252Y-79293710D01*
X173429252Y-79293710D02*
X173495526Y-79307439D01*
X173495526Y-79307439D02*
X173511782Y-79311320D01*
X173511782Y-79311320D02*
X173528573Y-79320900D01*
X173528573Y-79320900D02*
X173541249Y-79342536D01*
X173541249Y-79342536D02*
X173550378Y-79383531D01*
X173550378Y-79383531D02*
X173556531Y-79451189D01*
X173556531Y-79451189D02*
X173560280Y-79552812D01*
X173560280Y-79552812D02*
X173562192Y-79695703D01*
X173562192Y-79695703D02*
X173562840Y-79887165D01*
X173562840Y-79887165D02*
X173562874Y-79965645D01*
X173562874Y-79965645D02*
X173562874Y-80603906D01*
X173562874Y-80603906D02*
X173409598Y-80634160D01*
X173409598Y-80634160D02*
X173324322Y-80650564D01*
X173324322Y-80650564D02*
X173197070Y-80674509D01*
X173197070Y-80674509D02*
X173043315Y-80703107D01*
X173043315Y-80703107D02*
X172878534Y-80733467D01*
X172878534Y-80733467D02*
X172832989Y-80741806D01*
X172832989Y-80741806D02*
X172680932Y-80771370D01*
X172680932Y-80771370D02*
X172548468Y-80800442D01*
X172548468Y-80800442D02*
X172446714Y-80826329D01*
X172446714Y-80826329D02*
X172386788Y-80846337D01*
X172386788Y-80846337D02*
X172376805Y-80852301D01*
X172376805Y-80852301D02*
X172352293Y-80894534D01*
X172352293Y-80894534D02*
X172317148Y-80976370D01*
X172317148Y-80976370D02*
X172278173Y-81081683D01*
X172278173Y-81081683D02*
X172270442Y-81104368D01*
X172270442Y-81104368D02*
X172219360Y-81245018D01*
X172219360Y-81245018D02*
X172155954Y-81403714D01*
X172155954Y-81403714D02*
X172093904Y-81546225D01*
X172093904Y-81546225D02*
X172093598Y-81546886D01*
X172093598Y-81546886D02*
X171990267Y-81770440D01*
X171990267Y-81770440D02*
X172669961Y-82770232D01*
X172669961Y-82770232D02*
X172233621Y-83207300D01*
X172233621Y-83207300D02*
X172101649Y-83337381D01*
X172101649Y-83337381D02*
X171981279Y-83452048D01*
X171981279Y-83452048D02*
X171879273Y-83545181D01*
X171879273Y-83545181D02*
X171802391Y-83610658D01*
X171802391Y-83610658D02*
X171757393Y-83642357D01*
X171757393Y-83642357D02*
X171750938Y-83644368D01*
X171750938Y-83644368D02*
X171713040Y-83628529D01*
X171713040Y-83628529D02*
X171635708Y-83584496D01*
X171635708Y-83584496D02*
X171527389Y-83517490D01*
X171527389Y-83517490D02*
X171396532Y-83432734D01*
X171396532Y-83432734D02*
X171255052Y-83337816D01*
X171255052Y-83337816D02*
X171111461Y-83240998D01*
X171111461Y-83240998D02*
X170983435Y-83156751D01*
X170983435Y-83156751D02*
X170879105Y-83090258D01*
X170879105Y-83090258D02*
X170806600Y-83046702D01*
X170806600Y-83046702D02*
X170774158Y-83031264D01*
X170774158Y-83031264D02*
X170734576Y-83044328D01*
X170734576Y-83044328D02*
X170659519Y-83078750D01*
X170659519Y-83078750D02*
X170564468Y-83127380D01*
X170564468Y-83127380D02*
X170554392Y-83132785D01*
X170554392Y-83132785D02*
X170426391Y-83196980D01*
X170426391Y-83196980D02*
X170338618Y-83228463D01*
X170338618Y-83228463D02*
X170284028Y-83228798D01*
X170284028Y-83228798D02*
X170255575Y-83199548D01*
X170255575Y-83199548D02*
X170255410Y-83199138D01*
X170255410Y-83199138D02*
X170241188Y-83164498D01*
X170241188Y-83164498D02*
X170207269Y-83082269D01*
X170207269Y-83082269D02*
X170156284Y-82958814D01*
X170156284Y-82958814D02*
X170090862Y-82800498D01*
X170090862Y-82800498D02*
X170013634Y-82613686D01*
X170013634Y-82613686D02*
X169927229Y-82404742D01*
X169927229Y-82404742D02*
X169843551Y-82202446D01*
X169843551Y-82202446D02*
X169751588Y-81979200D01*
X169751588Y-81979200D02*
X169667150Y-81772392D01*
X169667150Y-81772392D02*
X169592769Y-81588362D01*
X169592769Y-81588362D02*
X169530974Y-81433451D01*
X169530974Y-81433451D02*
X169484297Y-81313996D01*
X169484297Y-81313996D02*
X169455268Y-81236339D01*
X169455268Y-81236339D02*
X169446322Y-81207356D01*
X169446322Y-81207356D02*
X169468756Y-81174110D01*
X169468756Y-81174110D02*
X169527439Y-81121123D01*
X169527439Y-81121123D02*
X169605689Y-81062704D01*
X169605689Y-81062704D02*
X169828534Y-80877952D01*
X169828534Y-80877952D02*
X170002718Y-80666182D01*
X170002718Y-80666182D02*
X170126154Y-80431856D01*
X170126154Y-80431856D02*
X170196754Y-80179434D01*
X170196754Y-80179434D02*
X170212431Y-79913377D01*
X170212431Y-79913377D02*
X170201036Y-79790575D01*
X170201036Y-79790575D02*
X170138950Y-79535793D01*
X170138950Y-79535793D02*
X170032023Y-79310801D01*
X170032023Y-79310801D02*
X169886889Y-79117817D01*
X169886889Y-79117817D02*
X169710178Y-78959061D01*
X169710178Y-78959061D02*
X169508522Y-78836750D01*
X169508522Y-78836750D02*
X169288554Y-78753105D01*
X169288554Y-78753105D02*
X169056906Y-78710344D01*
X169056906Y-78710344D02*
X168820209Y-78710687D01*
X168820209Y-78710687D02*
X168585095Y-78756352D01*
X168585095Y-78756352D02*
X168358196Y-78849559D01*
X168358196Y-78849559D02*
X168146144Y-78992527D01*
X168146144Y-78992527D02*
X168057636Y-79073383D01*
X168057636Y-79073383D02*
X167887889Y-79281007D01*
X167887889Y-79281007D02*
X167769699Y-79507895D01*
X167769699Y-79507895D02*
X167702278Y-79747433D01*
X167702278Y-79747433D02*
X167684840Y-79993007D01*
X167684840Y-79993007D02*
X167716598Y-80238003D01*
X167716598Y-80238003D02*
X167796765Y-80475808D01*
X167796765Y-80475808D02*
X167924555Y-80699807D01*
X167924555Y-80699807D02*
X168099180Y-80903387D01*
X168099180Y-80903387D02*
X168294312Y-81062704D01*
X168294312Y-81062704D02*
X168375591Y-81123602D01*
X168375591Y-81123602D02*
X168433009Y-81176015D01*
X168433009Y-81176015D02*
X168453678Y-81207406D01*
X168453678Y-81207406D02*
X168442856Y-81241639D01*
X168442856Y-81241639D02*
X168412077Y-81323419D01*
X168412077Y-81323419D02*
X168363874Y-81446407D01*
X168363874Y-81446407D02*
X168300778Y-81604263D01*
X168300778Y-81604263D02*
X168225322Y-81790649D01*
X168225322Y-81790649D02*
X168140038Y-81999226D01*
X168140038Y-81999226D02*
X168056219Y-82202496D01*
X168056219Y-82202496D02*
X167963745Y-82425933D01*
X167963745Y-82425933D02*
X167878089Y-82632984D01*
X167878089Y-82632984D02*
X167801882Y-82817286D01*
X167801882Y-82817286D02*
X167737753Y-82972475D01*
X167737753Y-82972475D02*
X167688332Y-83092188D01*
X167688332Y-83092188D02*
X167656248Y-83170061D01*
X167656248Y-83170061D02*
X167644359Y-83199138D01*
X167644359Y-83199138D02*
X167616274Y-83228677D01*
X167616274Y-83228677D02*
X167561949Y-83228591D01*
X167561949Y-83228591D02*
X167474395Y-83197326D01*
X167474395Y-83197326D02*
X167346619Y-83133329D01*
X167346619Y-83133329D02*
X167345608Y-83132785D01*
X167345608Y-83132785D02*
X167249402Y-83083121D01*
X167249402Y-83083121D02*
X167171631Y-83046945D01*
X167171631Y-83046945D02*
X167127777Y-83031408D01*
X167127777Y-83031408D02*
X167125842Y-83031264D01*
X167125842Y-83031264D02*
X167092829Y-83047024D01*
X167092829Y-83047024D02*
X167019946Y-83090850D01*
X167019946Y-83090850D02*
X166915322Y-83157557D01*
X166915322Y-83157557D02*
X166787090Y-83241964D01*
X166787090Y-83241964D02*
X166644948Y-83337816D01*
X166644948Y-83337816D02*
X166500233Y-83434867D01*
X166500233Y-83434867D02*
X166369804Y-83519270D01*
X166369804Y-83519270D02*
X166262110Y-83585801D01*
X166262110Y-83585801D02*
X166185598Y-83629238D01*
X166185598Y-83629238D02*
X166149062Y-83644368D01*
X166149062Y-83644368D02*
X166115418Y-83624482D01*
X166115418Y-83624482D02*
X166047776Y-83568903D01*
X166047776Y-83568903D02*
X165952893Y-83483754D01*
X165952893Y-83483754D02*
X165837530Y-83375153D01*
X165837530Y-83375153D02*
X165708445Y-83249221D01*
X165708445Y-83249221D02*
X165666229Y-83207149D01*
X165666229Y-83207149D02*
X165229739Y-82769931D01*
X165229739Y-82769931D02*
X165561977Y-82282340D01*
X165561977Y-82282340D02*
X165662946Y-82132605D01*
X165662946Y-82132605D02*
X165751562Y-81998220D01*
X165751562Y-81998220D02*
X165822854Y-81886969D01*
X165822854Y-81886969D02*
X165871850Y-81806639D01*
X165871850Y-81806639D02*
X165893578Y-81765014D01*
X165893578Y-81765014D02*
X165894215Y-81762053D01*
X165894215Y-81762053D02*
X165882760Y-81722818D01*
X165882760Y-81722818D02*
X165851949Y-81643895D01*
X165851949Y-81643895D02*
X165807116Y-81538509D01*
X165807116Y-81538509D02*
X165775647Y-81467954D01*
X165775647Y-81467954D02*
X165716808Y-81332876D01*
X165716808Y-81332876D02*
X165661396Y-81196409D01*
X165661396Y-81196409D02*
X165618436Y-81081103D01*
X165618436Y-81081103D02*
X165606766Y-81045977D01*
X165606766Y-81045977D02*
X165573611Y-80952174D01*
X165573611Y-80952174D02*
X165541201Y-80879694D01*
X165541201Y-80879694D02*
X165523399Y-80852301D01*
X165523399Y-80852301D02*
X165484114Y-80835536D01*
X165484114Y-80835536D02*
X165398374Y-80811770D01*
X165398374Y-80811770D02*
X165277303Y-80783697D01*
X165277303Y-80783697D02*
X165132027Y-80754009D01*
X165132027Y-80754009D02*
X165067012Y-80741806D01*
X165067012Y-80741806D02*
X164901913Y-80711468D01*
X164901913Y-80711468D02*
X164743552Y-80682093D01*
X164743552Y-80682093D02*
X164607404Y-80656569D01*
X164607404Y-80656569D02*
X164508943Y-80637785D01*
X164508943Y-80637785D02*
X164490402Y-80634160D01*
X164490402Y-80634160D02*
X164337127Y-80603906D01*
X164337127Y-80603906D02*
X164337127Y-79965645D01*
X164337127Y-79965645D02*
X164337471Y-79755770D01*
X164337471Y-79755770D02*
X164338884Y-79596980D01*
X164338884Y-79596980D02*
X164341936Y-79481973D01*
X164341936Y-79481973D02*
X164347197Y-79403446D01*
X164347197Y-79403446D02*
X164355237Y-79354096D01*
X164355237Y-79354096D02*
X164366627Y-79326619D01*
X164366627Y-79326619D02*
X164381937Y-79313713D01*
X164381937Y-79313713D02*
X164388218Y-79311320D01*
X164388218Y-79311320D02*
X164426104Y-79302833D01*
X164426104Y-79302833D02*
X164509805Y-79285900D01*
X164509805Y-79285900D02*
X164628567Y-79262566D01*
X164628567Y-79262566D02*
X164771639Y-79234875D01*
X164771639Y-79234875D02*
X164928268Y-79204873D01*
X164928268Y-79204873D02*
X165087703Y-79174604D01*
X165087703Y-79174604D02*
X165239191Y-79146115D01*
X165239191Y-79146115D02*
X165371981Y-79121449D01*
X165371981Y-79121449D02*
X165475319Y-79102651D01*
X165475319Y-79102651D02*
X165538455Y-79091767D01*
X165538455Y-79091767D02*
X165552503Y-79089885D01*
X165552503Y-79089885D02*
X165565230Y-79064704D01*
X165565230Y-79064704D02*
X165593400Y-78997622D01*
X165593400Y-78997622D02*
X165631748Y-78901333D01*
X165631748Y-78901333D02*
X165646391Y-78863621D01*
X165646391Y-78863621D02*
X165705452Y-78717921D01*
X165705452Y-78717921D02*
X165775000Y-78556951D01*
X165775000Y-78556951D02*
X165837288Y-78421291D01*
X165837288Y-78421291D02*
X165883121Y-78317561D01*
X165883121Y-78317561D02*
X165913613Y-78232326D01*
X165913613Y-78232326D02*
X165923792Y-78180126D01*
X165923792Y-78180126D02*
X165922169Y-78173130D01*
X165922169Y-78173130D02*
X165900657Y-78140102D01*
X165900657Y-78140102D02*
X165851535Y-78066643D01*
X165851535Y-78066643D02*
X165780077Y-77960577D01*
X165780077Y-77960577D02*
X165691555Y-77829726D01*
X165691555Y-77829726D02*
X165591241Y-77681912D01*
X165591241Y-77681912D02*
X165571406Y-77652734D01*
X165571406Y-77652734D02*
X165455012Y-77479863D01*
X165455012Y-77479863D02*
X165369452Y-77348226D01*
X165369452Y-77348226D02*
X165311316Y-77251761D01*
X165311316Y-77251761D02*
X165277192Y-77184408D01*
X165277192Y-77184408D02*
X165263669Y-77140106D01*
X165263669Y-77140106D02*
X165267336Y-77112794D01*
X165267336Y-77112794D02*
X165267430Y-77112620D01*
X165267430Y-77112620D02*
X165296293Y-77076746D01*
X165296293Y-77076746D02*
X165360133Y-77007391D01*
X165360133Y-77007391D02*
X165452031Y-76911745D01*
X165452031Y-76911745D02*
X165565067Y-76796999D01*
X165565067Y-76796999D02*
X165692321Y-76670341D01*
X165692321Y-76670341D02*
X165706672Y-76656205D01*
X165706672Y-76656205D02*
X165867043Y-76500903D01*
X165867043Y-76500903D02*
X165990805Y-76386870D01*
X165990805Y-76386870D02*
X166080445Y-76312002D01*
X166080445Y-76312002D02*
X166138448Y-76274196D01*
X166138448Y-76274196D02*
X166163996Y-76269317D01*
X166163996Y-76269317D02*
X166201282Y-76290603D01*
X166201282Y-76290603D02*
X166278657Y-76339773D01*
X166278657Y-76339773D02*
X166388133Y-76411575D01*
X166388133Y-76411575D02*
X166521720Y-76500755D01*
X166521720Y-76500755D02*
X166671430Y-76602063D01*
X166671430Y-76602063D02*
X166706382Y-76625897D01*
X166706382Y-76625897D02*
X167202610Y-76964765D01*
X167202610Y-76964765D02*
X167426707Y-76863056D01*
X167426707Y-76863056D02*
X167562989Y-76803783D01*
X167562989Y-76803783D02*
X167709276Y-76744170D01*
X167709276Y-76744170D02*
X167835035Y-76696640D01*
X167835035Y-76696640D02*
X167840575Y-76694685D01*
X167840575Y-76694685D02*
X167938943Y-76658677D01*
X167938943Y-76658677D02*
X168014771Y-76628229D01*
X168014771Y-76628229D02*
X168051718Y-76609905D01*
X168051718Y-76609905D02*
X168051780Y-76609852D01*
X168051780Y-76609852D02*
X168063504Y-76576729D01*
X168063504Y-76576729D02*
X168083432Y-76495267D01*
X168083432Y-76495267D02*
X168109587Y-76374625D01*
X168109587Y-76374625D02*
X168139990Y-76223959D01*
X168139990Y-76223959D02*
X168172663Y-76052428D01*
X168172663Y-76052428D02*
X168175336Y-76037967D01*
X168175336Y-76037967D02*
X168208110Y-75861235D01*
X168208110Y-75861235D02*
X168238198Y-75700810D01*
X168238198Y-75700810D02*
X168263661Y-75566888D01*
X168263661Y-75566888D02*
X168282559Y-75469663D01*
X168282559Y-75469663D02*
X168292953Y-75419332D01*
X168292953Y-75419332D02*
X168293135Y-75418563D01*
X168293135Y-75418563D02*
X168299461Y-75397153D01*
X168299461Y-75397153D02*
X168311761Y-75380988D01*
X168311761Y-75380988D02*
X168337406Y-75369331D01*
X168337406Y-75369331D02*
X168383765Y-75361445D01*
X168383765Y-75361445D02*
X168458208Y-75356593D01*
X168458208Y-75356593D02*
X168568105Y-75354039D01*
X168568105Y-75354039D02*
X168720825Y-75353045D01*
X168720825Y-75353045D02*
X168923738Y-75352874D01*
X168923738Y-75352874D02*
X168950000Y-75352874D01*
X168950000Y-75352874D02*
X169159014Y-75352998D01*
X169159014Y-75352998D02*
X169159014Y-75352998D01*
G36*
X169159014Y-75352998D02*
G01*
X169317006Y-75353863D01*
X169431347Y-75356205D01*
X169509407Y-75360762D01*
X169558554Y-75368270D01*
X169586159Y-75379466D01*
X169599592Y-75395088D01*
X169606221Y-75415873D01*
X169606865Y-75418563D01*
X169616935Y-75467113D01*
X169635575Y-75562905D01*
X169660845Y-75695743D01*
X169690807Y-75855431D01*
X169723522Y-76031774D01*
X169724664Y-76037967D01*
X169757433Y-76210782D01*
X169788093Y-76363469D01*
X169814664Y-76486871D01*
X169835167Y-76571831D01*
X169847626Y-76609190D01*
X169848220Y-76609852D01*
X169884919Y-76628095D01*
X169960586Y-76658497D01*
X170058878Y-76694493D01*
X170059425Y-76694685D01*
X170183233Y-76741222D01*
X170329196Y-76800504D01*
X170466781Y-76860109D01*
X170473293Y-76863056D01*
X170697390Y-76964765D01*
X171193619Y-76625897D01*
X171345846Y-76522592D01*
X171483741Y-76430237D01*
X171599315Y-76354084D01*
X171684579Y-76299385D01*
X171731544Y-76271393D01*
X171736004Y-76269317D01*
X171770134Y-76278560D01*
X171833881Y-76323156D01*
X171929731Y-76405209D01*
X172060169Y-76526821D01*
X172193328Y-76656205D01*
X172321694Y-76783702D01*
X172436581Y-76900046D01*
X172531073Y-76998052D01*
X172598253Y-77070536D01*
X172631206Y-77110313D01*
X172632432Y-77112361D01*
X172636074Y-77139656D01*
X172622350Y-77184234D01*
X172587869Y-77252112D01*
X172529239Y-77349311D01*
X172443070Y-77481851D01*
X172328200Y-77652476D01*
X172226254Y-77802655D01*
X172135123Y-77937350D01*
X172060073Y-78048740D01*
X172006369Y-78129005D01*
X171979280Y-78170325D01*
X171977574Y-78173130D01*
X171980882Y-78212721D01*
X172005953Y-78289669D01*
X172047798Y-78389432D01*
X172062712Y-78421291D01*
X172127786Y-78563226D01*
X172197212Y-78724273D01*
X172253609Y-78863621D01*
X172294247Y-78967044D01*
X172326526Y-79045642D01*
X172345178Y-79086720D01*
X172347497Y-79089885D01*
X172381803Y-79095128D01*
X172462669Y-79109494D01*
X172579343Y-79130937D01*
X172721075Y-79157413D01*
X172877110Y-79186877D01*
X173036698Y-79217283D01*
X173189085Y-79246588D01*
X173323521Y-79272745D01*
X173429252Y-79293710D01*
X173495526Y-79307439D01*
X173511782Y-79311320D01*
X173528573Y-79320900D01*
X173541249Y-79342536D01*
X173550378Y-79383531D01*
X173556531Y-79451189D01*
X173560280Y-79552812D01*
X173562192Y-79695703D01*
X173562840Y-79887165D01*
X173562874Y-79965645D01*
X173562874Y-80603906D01*
X173409598Y-80634160D01*
X173324322Y-80650564D01*
X173197070Y-80674509D01*
X173043315Y-80703107D01*
X172878534Y-80733467D01*
X172832989Y-80741806D01*
X172680932Y-80771370D01*
X172548468Y-80800442D01*
X172446714Y-80826329D01*
X172386788Y-80846337D01*
X172376805Y-80852301D01*
X172352293Y-80894534D01*
X172317148Y-80976370D01*
X172278173Y-81081683D01*
X172270442Y-81104368D01*
X172219360Y-81245018D01*
X172155954Y-81403714D01*
X172093904Y-81546225D01*
X172093598Y-81546886D01*
X171990267Y-81770440D01*
X172669961Y-82770232D01*
X172233621Y-83207300D01*
X172101649Y-83337381D01*
X171981279Y-83452048D01*
X171879273Y-83545181D01*
X171802391Y-83610658D01*
X171757393Y-83642357D01*
X171750938Y-83644368D01*
X171713040Y-83628529D01*
X171635708Y-83584496D01*
X171527389Y-83517490D01*
X171396532Y-83432734D01*
X171255052Y-83337816D01*
X171111461Y-83240998D01*
X170983435Y-83156751D01*
X170879105Y-83090258D01*
X170806600Y-83046702D01*
X170774158Y-83031264D01*
X170734576Y-83044328D01*
X170659519Y-83078750D01*
X170564468Y-83127380D01*
X170554392Y-83132785D01*
X170426391Y-83196980D01*
X170338618Y-83228463D01*
X170284028Y-83228798D01*
X170255575Y-83199548D01*
X170255410Y-83199138D01*
X170241188Y-83164498D01*
X170207269Y-83082269D01*
X170156284Y-82958814D01*
X170090862Y-82800498D01*
X170013634Y-82613686D01*
X169927229Y-82404742D01*
X169843551Y-82202446D01*
X169751588Y-81979200D01*
X169667150Y-81772392D01*
X169592769Y-81588362D01*
X169530974Y-81433451D01*
X169484297Y-81313996D01*
X169455268Y-81236339D01*
X169446322Y-81207356D01*
X169468756Y-81174110D01*
X169527439Y-81121123D01*
X169605689Y-81062704D01*
X169828534Y-80877952D01*
X170002718Y-80666182D01*
X170126154Y-80431856D01*
X170196754Y-80179434D01*
X170212431Y-79913377D01*
X170201036Y-79790575D01*
X170138950Y-79535793D01*
X170032023Y-79310801D01*
X169886889Y-79117817D01*
X169710178Y-78959061D01*
X169508522Y-78836750D01*
X169288554Y-78753105D01*
X169056906Y-78710344D01*
X168820209Y-78710687D01*
X168585095Y-78756352D01*
X168358196Y-78849559D01*
X168146144Y-78992527D01*
X168057636Y-79073383D01*
X167887889Y-79281007D01*
X167769699Y-79507895D01*
X167702278Y-79747433D01*
X167684840Y-79993007D01*
X167716598Y-80238003D01*
X167796765Y-80475808D01*
X167924555Y-80699807D01*
X168099180Y-80903387D01*
X168294312Y-81062704D01*
X168375591Y-81123602D01*
X168433009Y-81176015D01*
X168453678Y-81207406D01*
X168442856Y-81241639D01*
X168412077Y-81323419D01*
X168363874Y-81446407D01*
X168300778Y-81604263D01*
X168225322Y-81790649D01*
X168140038Y-81999226D01*
X168056219Y-82202496D01*
X167963745Y-82425933D01*
X167878089Y-82632984D01*
X167801882Y-82817286D01*
X167737753Y-82972475D01*
X167688332Y-83092188D01*
X167656248Y-83170061D01*
X167644359Y-83199138D01*
X167616274Y-83228677D01*
X167561949Y-83228591D01*
X167474395Y-83197326D01*
X167346619Y-83133329D01*
X167345608Y-83132785D01*
X167249402Y-83083121D01*
X167171631Y-83046945D01*
X167127777Y-83031408D01*
X167125842Y-83031264D01*
X167092829Y-83047024D01*
X167019946Y-83090850D01*
X166915322Y-83157557D01*
X166787090Y-83241964D01*
X166644948Y-83337816D01*
X166500233Y-83434867D01*
X166369804Y-83519270D01*
X166262110Y-83585801D01*
X166185598Y-83629238D01*
X166149062Y-83644368D01*
X166115418Y-83624482D01*
X166047776Y-83568903D01*
X165952893Y-83483754D01*
X165837530Y-83375153D01*
X165708445Y-83249221D01*
X165666229Y-83207149D01*
X165229739Y-82769931D01*
X165561977Y-82282340D01*
X165662946Y-82132605D01*
X165751562Y-81998220D01*
X165822854Y-81886969D01*
X165871850Y-81806639D01*
X165893578Y-81765014D01*
X165894215Y-81762053D01*
X165882760Y-81722818D01*
X165851949Y-81643895D01*
X165807116Y-81538509D01*
X165775647Y-81467954D01*
X165716808Y-81332876D01*
X165661396Y-81196409D01*
X165618436Y-81081103D01*
X165606766Y-81045977D01*
X165573611Y-80952174D01*
X165541201Y-80879694D01*
X165523399Y-80852301D01*
X165484114Y-80835536D01*
X165398374Y-80811770D01*
X165277303Y-80783697D01*
X165132027Y-80754009D01*
X165067012Y-80741806D01*
X164901913Y-80711468D01*
X164743552Y-80682093D01*
X164607404Y-80656569D01*
X164508943Y-80637785D01*
X164490402Y-80634160D01*
X164337127Y-80603906D01*
X164337127Y-79965645D01*
X164337471Y-79755770D01*
X164338884Y-79596980D01*
X164341936Y-79481973D01*
X164347197Y-79403446D01*
X164355237Y-79354096D01*
X164366627Y-79326619D01*
X164381937Y-79313713D01*
X164388218Y-79311320D01*
X164426104Y-79302833D01*
X164509805Y-79285900D01*
X164628567Y-79262566D01*
X164771639Y-79234875D01*
X164928268Y-79204873D01*
X165087703Y-79174604D01*
X165239191Y-79146115D01*
X165371981Y-79121449D01*
X165475319Y-79102651D01*
X165538455Y-79091767D01*
X165552503Y-79089885D01*
X165565230Y-79064704D01*
X165593400Y-78997622D01*
X165631748Y-78901333D01*
X165646391Y-78863621D01*
X165705452Y-78717921D01*
X165775000Y-78556951D01*
X165837288Y-78421291D01*
X165883121Y-78317561D01*
X165913613Y-78232326D01*
X165923792Y-78180126D01*
X165922169Y-78173130D01*
X165900657Y-78140102D01*
X165851535Y-78066643D01*
X165780077Y-77960577D01*
X165691555Y-77829726D01*
X165591241Y-77681912D01*
X165571406Y-77652734D01*
X165455012Y-77479863D01*
X165369452Y-77348226D01*
X165311316Y-77251761D01*
X165277192Y-77184408D01*
X165263669Y-77140106D01*
X165267336Y-77112794D01*
X165267430Y-77112620D01*
X165296293Y-77076746D01*
X165360133Y-77007391D01*
X165452031Y-76911745D01*
X165565067Y-76796999D01*
X165692321Y-76670341D01*
X165706672Y-76656205D01*
X165867043Y-76500903D01*
X165990805Y-76386870D01*
X166080445Y-76312002D01*
X166138448Y-76274196D01*
X166163996Y-76269317D01*
X166201282Y-76290603D01*
X166278657Y-76339773D01*
X166388133Y-76411575D01*
X166521720Y-76500755D01*
X166671430Y-76602063D01*
X166706382Y-76625897D01*
X167202610Y-76964765D01*
X167426707Y-76863056D01*
X167562989Y-76803783D01*
X167709276Y-76744170D01*
X167835035Y-76696640D01*
X167840575Y-76694685D01*
X167938943Y-76658677D01*
X168014771Y-76628229D01*
X168051718Y-76609905D01*
X168051780Y-76609852D01*
X168063504Y-76576729D01*
X168083432Y-76495267D01*
X168109587Y-76374625D01*
X168139990Y-76223959D01*
X168172663Y-76052428D01*
X168175336Y-76037967D01*
X168208110Y-75861235D01*
X168238198Y-75700810D01*
X168263661Y-75566888D01*
X168282559Y-75469663D01*
X168292953Y-75419332D01*
X168293135Y-75418563D01*
X168299461Y-75397153D01*
X168311761Y-75380988D01*
X168337406Y-75369331D01*
X168383765Y-75361445D01*
X168458208Y-75356593D01*
X168568105Y-75354039D01*
X168720825Y-75353045D01*
X168923738Y-75352874D01*
X168950000Y-75352874D01*
X169159014Y-75352998D01*
G37*
X169159014Y-75352998D02*
X169317006Y-75353863D01*
X169431347Y-75356205D01*
X169509407Y-75360762D01*
X169558554Y-75368270D01*
X169586159Y-75379466D01*
X169599592Y-75395088D01*
X169606221Y-75415873D01*
X169606865Y-75418563D01*
X169616935Y-75467113D01*
X169635575Y-75562905D01*
X169660845Y-75695743D01*
X169690807Y-75855431D01*
X169723522Y-76031774D01*
X169724664Y-76037967D01*
X169757433Y-76210782D01*
X169788093Y-76363469D01*
X169814664Y-76486871D01*
X169835167Y-76571831D01*
X169847626Y-76609190D01*
X169848220Y-76609852D01*
X169884919Y-76628095D01*
X169960586Y-76658497D01*
X170058878Y-76694493D01*
X170059425Y-76694685D01*
X170183233Y-76741222D01*
X170329196Y-76800504D01*
X170466781Y-76860109D01*
X170473293Y-76863056D01*
X170697390Y-76964765D01*
X171193619Y-76625897D01*
X171345846Y-76522592D01*
X171483741Y-76430237D01*
X171599315Y-76354084D01*
X171684579Y-76299385D01*
X171731544Y-76271393D01*
X171736004Y-76269317D01*
X171770134Y-76278560D01*
X171833881Y-76323156D01*
X171929731Y-76405209D01*
X172060169Y-76526821D01*
X172193328Y-76656205D01*
X172321694Y-76783702D01*
X172436581Y-76900046D01*
X172531073Y-76998052D01*
X172598253Y-77070536D01*
X172631206Y-77110313D01*
X172632432Y-77112361D01*
X172636074Y-77139656D01*
X172622350Y-77184234D01*
X172587869Y-77252112D01*
X172529239Y-77349311D01*
X172443070Y-77481851D01*
X172328200Y-77652476D01*
X172226254Y-77802655D01*
X172135123Y-77937350D01*
X172060073Y-78048740D01*
X172006369Y-78129005D01*
X171979280Y-78170325D01*
X171977574Y-78173130D01*
X171980882Y-78212721D01*
X172005953Y-78289669D01*
X172047798Y-78389432D01*
X172062712Y-78421291D01*
X172127786Y-78563226D01*
X172197212Y-78724273D01*
X172253609Y-78863621D01*
X172294247Y-78967044D01*
X172326526Y-79045642D01*
X172345178Y-79086720D01*
X172347497Y-79089885D01*
X172381803Y-79095128D01*
X172462669Y-79109494D01*
X172579343Y-79130937D01*
X172721075Y-79157413D01*
X172877110Y-79186877D01*
X173036698Y-79217283D01*
X173189085Y-79246588D01*
X173323521Y-79272745D01*
X173429252Y-79293710D01*
X173495526Y-79307439D01*
X173511782Y-79311320D01*
X173528573Y-79320900D01*
X173541249Y-79342536D01*
X173550378Y-79383531D01*
X173556531Y-79451189D01*
X173560280Y-79552812D01*
X173562192Y-79695703D01*
X173562840Y-79887165D01*
X173562874Y-79965645D01*
X173562874Y-80603906D01*
X173409598Y-80634160D01*
X173324322Y-80650564D01*
X173197070Y-80674509D01*
X173043315Y-80703107D01*
X172878534Y-80733467D01*
X172832989Y-80741806D01*
X172680932Y-80771370D01*
X172548468Y-80800442D01*
X172446714Y-80826329D01*
X172386788Y-80846337D01*
X172376805Y-80852301D01*
X172352293Y-80894534D01*
X172317148Y-80976370D01*
X172278173Y-81081683D01*
X172270442Y-81104368D01*
X172219360Y-81245018D01*
X172155954Y-81403714D01*
X172093904Y-81546225D01*
X172093598Y-81546886D01*
X171990267Y-81770440D01*
X172669961Y-82770232D01*
X172233621Y-83207300D01*
X172101649Y-83337381D01*
X171981279Y-83452048D01*
X171879273Y-83545181D01*
X171802391Y-83610658D01*
X171757393Y-83642357D01*
X171750938Y-83644368D01*
X171713040Y-83628529D01*
X171635708Y-83584496D01*
X171527389Y-83517490D01*
X171396532Y-83432734D01*
X171255052Y-83337816D01*
X171111461Y-83240998D01*
X170983435Y-83156751D01*
X170879105Y-83090258D01*
X170806600Y-83046702D01*
X170774158Y-83031264D01*
X170734576Y-83044328D01*
X170659519Y-83078750D01*
X170564468Y-83127380D01*
X170554392Y-83132785D01*
X170426391Y-83196980D01*
X170338618Y-83228463D01*
X170284028Y-83228798D01*
X170255575Y-83199548D01*
X170255410Y-83199138D01*
X170241188Y-83164498D01*
X170207269Y-83082269D01*
X170156284Y-82958814D01*
X170090862Y-82800498D01*
X170013634Y-82613686D01*
X169927229Y-82404742D01*
X169843551Y-82202446D01*
X169751588Y-81979200D01*
X169667150Y-81772392D01*
X169592769Y-81588362D01*
X169530974Y-81433451D01*
X169484297Y-81313996D01*
X169455268Y-81236339D01*
X169446322Y-81207356D01*
X169468756Y-81174110D01*
X169527439Y-81121123D01*
X169605689Y-81062704D01*
X169828534Y-80877952D01*
X170002718Y-80666182D01*
X170126154Y-80431856D01*
X170196754Y-80179434D01*
X170212431Y-79913377D01*
X170201036Y-79790575D01*
X170138950Y-79535793D01*
X170032023Y-79310801D01*
X169886889Y-79117817D01*
X169710178Y-78959061D01*
X169508522Y-78836750D01*
X169288554Y-78753105D01*
X169056906Y-78710344D01*
X168820209Y-78710687D01*
X168585095Y-78756352D01*
X168358196Y-78849559D01*
X168146144Y-78992527D01*
X168057636Y-79073383D01*
X167887889Y-79281007D01*
X167769699Y-79507895D01*
X167702278Y-79747433D01*
X167684840Y-79993007D01*
X167716598Y-80238003D01*
X167796765Y-80475808D01*
X167924555Y-80699807D01*
X168099180Y-80903387D01*
X168294312Y-81062704D01*
X168375591Y-81123602D01*
X168433009Y-81176015D01*
X168453678Y-81207406D01*
X168442856Y-81241639D01*
X168412077Y-81323419D01*
X168363874Y-81446407D01*
X168300778Y-81604263D01*
X168225322Y-81790649D01*
X168140038Y-81999226D01*
X168056219Y-82202496D01*
X167963745Y-82425933D01*
X167878089Y-82632984D01*
X167801882Y-82817286D01*
X167737753Y-82972475D01*
X167688332Y-83092188D01*
X167656248Y-83170061D01*
X167644359Y-83199138D01*
X167616274Y-83228677D01*
X167561949Y-83228591D01*
X167474395Y-83197326D01*
X167346619Y-83133329D01*
X167345608Y-83132785D01*
X167249402Y-83083121D01*
X167171631Y-83046945D01*
X167127777Y-83031408D01*
X167125842Y-83031264D01*
X167092829Y-83047024D01*
X167019946Y-83090850D01*
X166915322Y-83157557D01*
X166787090Y-83241964D01*
X166644948Y-83337816D01*
X166500233Y-83434867D01*
X166369804Y-83519270D01*
X166262110Y-83585801D01*
X166185598Y-83629238D01*
X166149062Y-83644368D01*
X166115418Y-83624482D01*
X166047776Y-83568903D01*
X165952893Y-83483754D01*
X165837530Y-83375153D01*
X165708445Y-83249221D01*
X165666229Y-83207149D01*
X165229739Y-82769931D01*
X165561977Y-82282340D01*
X165662946Y-82132605D01*
X165751562Y-81998220D01*
X165822854Y-81886969D01*
X165871850Y-81806639D01*
X165893578Y-81765014D01*
X165894215Y-81762053D01*
X165882760Y-81722818D01*
X165851949Y-81643895D01*
X165807116Y-81538509D01*
X165775647Y-81467954D01*
X165716808Y-81332876D01*
X165661396Y-81196409D01*
X165618436Y-81081103D01*
X165606766Y-81045977D01*
X165573611Y-80952174D01*
X165541201Y-80879694D01*
X165523399Y-80852301D01*
X165484114Y-80835536D01*
X165398374Y-80811770D01*
X165277303Y-80783697D01*
X165132027Y-80754009D01*
X165067012Y-80741806D01*
X164901913Y-80711468D01*
X164743552Y-80682093D01*
X164607404Y-80656569D01*
X164508943Y-80637785D01*
X164490402Y-80634160D01*
X164337127Y-80603906D01*
X164337127Y-79965645D01*
X164337471Y-79755770D01*
X164338884Y-79596980D01*
X164341936Y-79481973D01*
X164347197Y-79403446D01*
X164355237Y-79354096D01*
X164366627Y-79326619D01*
X164381937Y-79313713D01*
X164388218Y-79311320D01*
X164426104Y-79302833D01*
X164509805Y-79285900D01*
X164628567Y-79262566D01*
X164771639Y-79234875D01*
X164928268Y-79204873D01*
X165087703Y-79174604D01*
X165239191Y-79146115D01*
X165371981Y-79121449D01*
X165475319Y-79102651D01*
X165538455Y-79091767D01*
X165552503Y-79089885D01*
X165565230Y-79064704D01*
X165593400Y-78997622D01*
X165631748Y-78901333D01*
X165646391Y-78863621D01*
X165705452Y-78717921D01*
X165775000Y-78556951D01*
X165837288Y-78421291D01*
X165883121Y-78317561D01*
X165913613Y-78232326D01*
X165923792Y-78180126D01*
X165922169Y-78173130D01*
X165900657Y-78140102D01*
X165851535Y-78066643D01*
X165780077Y-77960577D01*
X165691555Y-77829726D01*
X165591241Y-77681912D01*
X165571406Y-77652734D01*
X165455012Y-77479863D01*
X165369452Y-77348226D01*
X165311316Y-77251761D01*
X165277192Y-77184408D01*
X165263669Y-77140106D01*
X165267336Y-77112794D01*
X165267430Y-77112620D01*
X165296293Y-77076746D01*
X165360133Y-77007391D01*
X165452031Y-76911745D01*
X165565067Y-76796999D01*
X165692321Y-76670341D01*
X165706672Y-76656205D01*
X165867043Y-76500903D01*
X165990805Y-76386870D01*
X166080445Y-76312002D01*
X166138448Y-76274196D01*
X166163996Y-76269317D01*
X166201282Y-76290603D01*
X166278657Y-76339773D01*
X166388133Y-76411575D01*
X166521720Y-76500755D01*
X166671430Y-76602063D01*
X166706382Y-76625897D01*
X167202610Y-76964765D01*
X167426707Y-76863056D01*
X167562989Y-76803783D01*
X167709276Y-76744170D01*
X167835035Y-76696640D01*
X167840575Y-76694685D01*
X167938943Y-76658677D01*
X168014771Y-76628229D01*
X168051718Y-76609905D01*
X168051780Y-76609852D01*
X168063504Y-76576729D01*
X168083432Y-76495267D01*
X168109587Y-76374625D01*
X168139990Y-76223959D01*
X168172663Y-76052428D01*
X168175336Y-76037967D01*
X168208110Y-75861235D01*
X168238198Y-75700810D01*
X168263661Y-75566888D01*
X168282559Y-75469663D01*
X168292953Y-75419332D01*
X168293135Y-75418563D01*
X168299461Y-75397153D01*
X168311761Y-75380988D01*
X168337406Y-75369331D01*
X168383765Y-75361445D01*
X168458208Y-75356593D01*
X168568105Y-75354039D01*
X168720825Y-75353045D01*
X168923738Y-75352874D01*
X168950000Y-75352874D01*
X169159014Y-75352998D01*
X175293439Y-84856540D02*
X175408950Y-84932034D01*
X175408950Y-84932034D02*
X175464664Y-84999617D01*
X175464664Y-84999617D02*
X175508804Y-85122255D01*
X175508804Y-85122255D02*
X175512309Y-85219298D01*
X175512309Y-85219298D02*
X175504368Y-85349056D01*
X175504368Y-85349056D02*
X175205115Y-85480039D01*
X175205115Y-85480039D02*
X175059611Y-85546958D01*
X175059611Y-85546958D02*
X174964537Y-85600790D01*
X174964537Y-85600790D02*
X174915101Y-85647416D01*
X174915101Y-85647416D02*
X174906511Y-85692720D01*
X174906511Y-85692720D02*
X174933972Y-85742582D01*
X174933972Y-85742582D02*
X174964253Y-85775632D01*
X174964253Y-85775632D02*
X175052363Y-85828633D01*
X175052363Y-85828633D02*
X175148196Y-85832347D01*
X175148196Y-85832347D02*
X175236212Y-85791041D01*
X175236212Y-85791041D02*
X175300869Y-85708983D01*
X175300869Y-85708983D02*
X175312433Y-85680008D01*
X175312433Y-85680008D02*
X175367825Y-85589509D01*
X175367825Y-85589509D02*
X175431553Y-85550940D01*
X175431553Y-85550940D02*
X175518966Y-85517946D01*
X175518966Y-85517946D02*
X175518966Y-85643034D01*
X175518966Y-85643034D02*
X175511238Y-85728156D01*
X175511238Y-85728156D02*
X175480966Y-85799938D01*
X175480966Y-85799938D02*
X175417518Y-85882356D01*
X175417518Y-85882356D02*
X175408088Y-85893066D01*
X175408088Y-85893066D02*
X175337513Y-85966391D01*
X175337513Y-85966391D02*
X175276847Y-86005742D01*
X175276847Y-86005742D02*
X175200950Y-86023845D01*
X175200950Y-86023845D02*
X175138030Y-86029774D01*
X175138030Y-86029774D02*
X175025487Y-86031251D01*
X175025487Y-86031251D02*
X174945370Y-86012535D01*
X174945370Y-86012535D02*
X174895390Y-85984747D01*
X174895390Y-85984747D02*
X174816838Y-85923641D01*
X174816838Y-85923641D02*
X174762463Y-85857554D01*
X174762463Y-85857554D02*
X174728052Y-85774441D01*
X174728052Y-85774441D02*
X174709388Y-85662254D01*
X174709388Y-85662254D02*
X174702256Y-85508946D01*
X174702256Y-85508946D02*
X174701687Y-85431136D01*
X174701687Y-85431136D02*
X174703622Y-85337853D01*
X174703622Y-85337853D02*
X174879899Y-85337853D01*
X174879899Y-85337853D02*
X174881944Y-85387896D01*
X174881944Y-85387896D02*
X174887039Y-85396092D01*
X174887039Y-85396092D02*
X174920666Y-85384958D01*
X174920666Y-85384958D02*
X174993030Y-85355493D01*
X174993030Y-85355493D02*
X175089747Y-85313601D01*
X175089747Y-85313601D02*
X175109973Y-85304597D01*
X175109973Y-85304597D02*
X175232203Y-85242442D01*
X175232203Y-85242442D02*
X175299547Y-85187815D01*
X175299547Y-85187815D02*
X175314348Y-85136649D01*
X175314348Y-85136649D02*
X175278947Y-85084876D01*
X175278947Y-85084876D02*
X175249711Y-85062000D01*
X175249711Y-85062000D02*
X175144216Y-85016250D01*
X175144216Y-85016250D02*
X175045476Y-85023808D01*
X175045476Y-85023808D02*
X174962812Y-85079651D01*
X174962812Y-85079651D02*
X174905548Y-85178753D01*
X174905548Y-85178753D02*
X174887188Y-85257414D01*
X174887188Y-85257414D02*
X174879899Y-85337853D01*
X174879899Y-85337853D02*
X174703622Y-85337853D01*
X174703622Y-85337853D02*
X174705459Y-85249351D01*
X174705459Y-85249351D02*
X174719359Y-85114853D01*
X174719359Y-85114853D02*
X174746894Y-85016916D01*
X174746894Y-85016916D02*
X174791572Y-84944811D01*
X174791572Y-84944811D02*
X174856901Y-84887813D01*
X174856901Y-84887813D02*
X174885383Y-84869393D01*
X174885383Y-84869393D02*
X175014763Y-84821422D01*
X175014763Y-84821422D02*
X175156412Y-84818403D01*
X175156412Y-84818403D02*
X175293439Y-84856540D01*
X175293439Y-84856540D02*
X175293439Y-84856540D01*
G36*
X174719359Y-85114853D02*
G01*
X174746894Y-85016916D01*
X174791572Y-84944811D01*
X174856901Y-84887813D01*
X174885383Y-84869393D01*
X175014763Y-84821422D01*
X175156412Y-84818403D01*
X175293439Y-84856540D01*
X175408950Y-84932034D01*
X175464664Y-84999617D01*
X175508804Y-85122255D01*
X175512309Y-85219298D01*
X175504368Y-85349056D01*
X175205115Y-85480039D01*
X175059611Y-85546958D01*
X174964537Y-85600790D01*
X174915101Y-85647416D01*
X174906511Y-85692720D01*
X174933972Y-85742582D01*
X174964253Y-85775632D01*
X175052363Y-85828633D01*
X175148196Y-85832347D01*
X175236212Y-85791041D01*
X175300869Y-85708983D01*
X175312433Y-85680008D01*
X175367825Y-85589509D01*
X175431553Y-85550940D01*
X175518966Y-85517946D01*
X175518966Y-85643034D01*
X175511238Y-85728156D01*
X175480966Y-85799938D01*
X175417518Y-85882356D01*
X175408088Y-85893066D01*
X175337513Y-85966391D01*
X175276847Y-86005742D01*
X175200950Y-86023845D01*
X175138030Y-86029774D01*
X175025487Y-86031251D01*
X174945370Y-86012535D01*
X174895390Y-85984747D01*
X174816838Y-85923641D01*
X174762463Y-85857554D01*
X174728052Y-85774441D01*
X174709388Y-85662254D01*
X174702256Y-85508946D01*
X174701687Y-85431136D01*
X174703622Y-85337853D01*
X174879899Y-85337853D01*
X174881944Y-85387896D01*
X174887039Y-85396092D01*
X174920666Y-85384958D01*
X174993030Y-85355493D01*
X175089747Y-85313601D01*
X175109973Y-85304597D01*
X175232203Y-85242442D01*
X175299547Y-85187815D01*
X175314348Y-85136649D01*
X175278947Y-85084876D01*
X175249711Y-85062000D01*
X175144216Y-85016250D01*
X175045476Y-85023808D01*
X174962812Y-85079651D01*
X174905548Y-85178753D01*
X174887188Y-85257414D01*
X174879899Y-85337853D01*
X174703622Y-85337853D01*
X174705459Y-85249351D01*
X174719359Y-85114853D01*
G37*
X174719359Y-85114853D02*
X174746894Y-85016916D01*
X174791572Y-84944811D01*
X174856901Y-84887813D01*
X174885383Y-84869393D01*
X175014763Y-84821422D01*
X175156412Y-84818403D01*
X175293439Y-84856540D01*
X175408950Y-84932034D01*
X175464664Y-84999617D01*
X175508804Y-85122255D01*
X175512309Y-85219298D01*
X175504368Y-85349056D01*
X175205115Y-85480039D01*
X175059611Y-85546958D01*
X174964537Y-85600790D01*
X174915101Y-85647416D01*
X174906511Y-85692720D01*
X174933972Y-85742582D01*
X174964253Y-85775632D01*
X175052363Y-85828633D01*
X175148196Y-85832347D01*
X175236212Y-85791041D01*
X175300869Y-85708983D01*
X175312433Y-85680008D01*
X175367825Y-85589509D01*
X175431553Y-85550940D01*
X175518966Y-85517946D01*
X175518966Y-85643034D01*
X175511238Y-85728156D01*
X175480966Y-85799938D01*
X175417518Y-85882356D01*
X175408088Y-85893066D01*
X175337513Y-85966391D01*
X175276847Y-86005742D01*
X175200950Y-86023845D01*
X175138030Y-86029774D01*
X175025487Y-86031251D01*
X174945370Y-86012535D01*
X174895390Y-85984747D01*
X174816838Y-85923641D01*
X174762463Y-85857554D01*
X174728052Y-85774441D01*
X174709388Y-85662254D01*
X174702256Y-85508946D01*
X174701687Y-85431136D01*
X174703622Y-85337853D01*
X174879899Y-85337853D01*
X174881944Y-85387896D01*
X174887039Y-85396092D01*
X174920666Y-85384958D01*
X174993030Y-85355493D01*
X175089747Y-85313601D01*
X175109973Y-85304597D01*
X175232203Y-85242442D01*
X175299547Y-85187815D01*
X175314348Y-85136649D01*
X175278947Y-85084876D01*
X175249711Y-85062000D01*
X175144216Y-85016250D01*
X175045476Y-85023808D01*
X174962812Y-85079651D01*
X174905548Y-85178753D01*
X174887188Y-85257414D01*
X174879899Y-85337853D01*
X174703622Y-85337853D01*
X174705459Y-85249351D01*
X174719359Y-85114853D01*
X174285690Y-84840018D02*
X174320585Y-84855269D01*
X174320585Y-84855269D02*
X174403877Y-84921235D01*
X174403877Y-84921235D02*
X174475103Y-85016618D01*
X174475103Y-85016618D02*
X174519153Y-85118406D01*
X174519153Y-85118406D02*
X174526322Y-85168587D01*
X174526322Y-85168587D02*
X174502285Y-85238647D01*
X174502285Y-85238647D02*
X174449561Y-85275717D01*
X174449561Y-85275717D02*
X174393031Y-85298164D01*
X174393031Y-85298164D02*
X174367146Y-85302300D01*
X174367146Y-85302300D02*
X174354542Y-85272283D01*
X174354542Y-85272283D02*
X174329654Y-85206961D01*
X174329654Y-85206961D02*
X174318735Y-85177445D01*
X174318735Y-85177445D02*
X174257508Y-85075348D01*
X174257508Y-85075348D02*
X174168861Y-85024423D01*
X174168861Y-85024423D02*
X174055193Y-85025989D01*
X174055193Y-85025989D02*
X174046774Y-85027994D01*
X174046774Y-85027994D02*
X173986088Y-85056767D01*
X173986088Y-85056767D02*
X173941474Y-85112859D01*
X173941474Y-85112859D02*
X173911002Y-85203163D01*
X173911002Y-85203163D02*
X173892744Y-85334571D01*
X173892744Y-85334571D02*
X173884771Y-85513974D01*
X173884771Y-85513974D02*
X173884023Y-85609433D01*
X173884023Y-85609433D02*
X173883652Y-85759913D01*
X173883652Y-85759913D02*
X173881223Y-85862495D01*
X173881223Y-85862495D02*
X173874760Y-85927672D01*
X173874760Y-85927672D02*
X173862288Y-85965938D01*
X173862288Y-85965938D02*
X173841833Y-85987785D01*
X173841833Y-85987785D02*
X173811419Y-86003707D01*
X173811419Y-86003707D02*
X173809661Y-86004509D01*
X173809661Y-86004509D02*
X173751091Y-86029272D01*
X173751091Y-86029272D02*
X173722075Y-86038391D01*
X173722075Y-86038391D02*
X173717616Y-86010822D01*
X173717616Y-86010822D02*
X173713799Y-85934620D01*
X173713799Y-85934620D02*
X173710899Y-85819541D01*
X173710899Y-85819541D02*
X173709191Y-85675341D01*
X173709191Y-85675341D02*
X173708851Y-85569814D01*
X173708851Y-85569814D02*
X173710588Y-85365613D01*
X173710588Y-85365613D02*
X173717382Y-85210697D01*
X173717382Y-85210697D02*
X173731607Y-85096024D01*
X173731607Y-85096024D02*
X173755638Y-85012551D01*
X173755638Y-85012551D02*
X173791848Y-84951236D01*
X173791848Y-84951236D02*
X173842612Y-84903034D01*
X173842612Y-84903034D02*
X173892739Y-84869393D01*
X173892739Y-84869393D02*
X174013275Y-84824619D01*
X174013275Y-84824619D02*
X174153557Y-84814521D01*
X174153557Y-84814521D02*
X174285690Y-84840018D01*
X174285690Y-84840018D02*
X174285690Y-84840018D01*
G36*
X174285690Y-84840018D02*
G01*
X174320585Y-84855269D01*
X174403877Y-84921235D01*
X174475103Y-85016618D01*
X174519153Y-85118406D01*
X174526322Y-85168587D01*
X174502285Y-85238647D01*
X174449561Y-85275717D01*
X174393031Y-85298164D01*
X174367146Y-85302300D01*
X174354542Y-85272283D01*
X174329654Y-85206961D01*
X174318735Y-85177445D01*
X174257508Y-85075348D01*
X174168861Y-85024423D01*
X174055193Y-85025989D01*
X174046774Y-85027994D01*
X173986088Y-85056767D01*
X173941474Y-85112859D01*
X173911002Y-85203163D01*
X173892744Y-85334571D01*
X173884771Y-85513974D01*
X173884023Y-85609433D01*
X173883652Y-85759913D01*
X173881223Y-85862495D01*
X173874760Y-85927672D01*
X173862288Y-85965938D01*
X173841833Y-85987785D01*
X173811419Y-86003707D01*
X173809661Y-86004509D01*
X173751091Y-86029272D01*
X173722075Y-86038391D01*
X173717616Y-86010822D01*
X173713799Y-85934620D01*
X173710899Y-85819541D01*
X173709191Y-85675341D01*
X173708851Y-85569814D01*
X173710588Y-85365613D01*
X173717382Y-85210697D01*
X173731607Y-85096024D01*
X173755638Y-85012551D01*
X173791848Y-84951236D01*
X173842612Y-84903034D01*
X173892739Y-84869393D01*
X174013275Y-84824619D01*
X174153557Y-84814521D01*
X174285690Y-84840018D01*
G37*
X174285690Y-84840018D02*
X174320585Y-84855269D01*
X174403877Y-84921235D01*
X174475103Y-85016618D01*
X174519153Y-85118406D01*
X174526322Y-85168587D01*
X174502285Y-85238647D01*
X174449561Y-85275717D01*
X174393031Y-85298164D01*
X174367146Y-85302300D01*
X174354542Y-85272283D01*
X174329654Y-85206961D01*
X174318735Y-85177445D01*
X174257508Y-85075348D01*
X174168861Y-85024423D01*
X174055193Y-85025989D01*
X174046774Y-85027994D01*
X173986088Y-85056767D01*
X173941474Y-85112859D01*
X173911002Y-85203163D01*
X173892744Y-85334571D01*
X173884771Y-85513974D01*
X173884023Y-85609433D01*
X173883652Y-85759913D01*
X173881223Y-85862495D01*
X173874760Y-85927672D01*
X173862288Y-85965938D01*
X173841833Y-85987785D01*
X173811419Y-86003707D01*
X173809661Y-86004509D01*
X173751091Y-86029272D01*
X173722075Y-86038391D01*
X173717616Y-86010822D01*
X173713799Y-85934620D01*
X173710899Y-85819541D01*
X173709191Y-85675341D01*
X173708851Y-85569814D01*
X173710588Y-85365613D01*
X173717382Y-85210697D01*
X173731607Y-85096024D01*
X173755638Y-85012551D01*
X173791848Y-84951236D01*
X173842612Y-84903034D01*
X173892739Y-84869393D01*
X174013275Y-84824619D01*
X174153557Y-84814521D01*
X174285690Y-84840018D01*
X173264406Y-84835156D02*
X173348469Y-84873393D01*
X173348469Y-84873393D02*
X173414450Y-84919726D01*
X173414450Y-84919726D02*
X173462794Y-84971532D01*
X173462794Y-84971532D02*
X173496172Y-85038363D01*
X173496172Y-85038363D02*
X173517253Y-85129769D01*
X173517253Y-85129769D02*
X173528707Y-85255301D01*
X173528707Y-85255301D02*
X173533203Y-85424508D01*
X173533203Y-85424508D02*
X173533678Y-85535933D01*
X173533678Y-85535933D02*
X173533678Y-85970627D01*
X173533678Y-85970627D02*
X173459316Y-86004509D01*
X173459316Y-86004509D02*
X173400746Y-86029272D01*
X173400746Y-86029272D02*
X173371730Y-86038391D01*
X173371730Y-86038391D02*
X173366179Y-86011257D01*
X173366179Y-86011257D02*
X173361775Y-85938094D01*
X173361775Y-85938094D02*
X173359078Y-85831263D01*
X173359078Y-85831263D02*
X173358506Y-85746437D01*
X173358506Y-85746437D02*
X173356046Y-85623887D01*
X173356046Y-85623887D02*
X173349412Y-85526668D01*
X173349412Y-85526668D02*
X173339726Y-85467134D01*
X173339726Y-85467134D02*
X173332032Y-85454483D01*
X173332032Y-85454483D02*
X173280311Y-85467402D01*
X173280311Y-85467402D02*
X173199117Y-85500539D01*
X173199117Y-85500539D02*
X173105102Y-85545461D01*
X173105102Y-85545461D02*
X173014917Y-85593735D01*
X173014917Y-85593735D02*
X172945215Y-85636928D01*
X172945215Y-85636928D02*
X172912648Y-85666608D01*
X172912648Y-85666608D02*
X172912519Y-85666929D01*
X172912519Y-85666929D02*
X172915320Y-85721857D01*
X172915320Y-85721857D02*
X172940439Y-85774292D01*
X172940439Y-85774292D02*
X172984541Y-85816881D01*
X172984541Y-85816881D02*
X173048909Y-85831126D01*
X173048909Y-85831126D02*
X173103921Y-85829466D01*
X173103921Y-85829466D02*
X173181835Y-85828245D01*
X173181835Y-85828245D02*
X173222732Y-85846498D01*
X173222732Y-85846498D02*
X173247295Y-85894726D01*
X173247295Y-85894726D02*
X173250392Y-85903820D01*
X173250392Y-85903820D02*
X173261040Y-85972598D01*
X173261040Y-85972598D02*
X173232565Y-86014360D01*
X173232565Y-86014360D02*
X173158344Y-86034263D01*
X173158344Y-86034263D02*
X173078168Y-86037944D01*
X173078168Y-86037944D02*
X172933890Y-86010658D01*
X172933890Y-86010658D02*
X172859203Y-85971690D01*
X172859203Y-85971690D02*
X172766963Y-85880148D01*
X172766963Y-85880148D02*
X172718043Y-85767782D01*
X172718043Y-85767782D02*
X172713654Y-85649051D01*
X172713654Y-85649051D02*
X172755001Y-85538411D01*
X172755001Y-85538411D02*
X172817197Y-85469080D01*
X172817197Y-85469080D02*
X172879294Y-85430265D01*
X172879294Y-85430265D02*
X172976895Y-85381125D01*
X172976895Y-85381125D02*
X173090632Y-85331292D01*
X173090632Y-85331292D02*
X173109590Y-85323677D01*
X173109590Y-85323677D02*
X173234521Y-85268545D01*
X173234521Y-85268545D02*
X173306539Y-85219954D01*
X173306539Y-85219954D02*
X173329700Y-85171647D01*
X173329700Y-85171647D02*
X173308064Y-85117370D01*
X173308064Y-85117370D02*
X173270920Y-85074943D01*
X173270920Y-85074943D02*
X173183127Y-85022702D01*
X173183127Y-85022702D02*
X173086530Y-85018784D01*
X173086530Y-85018784D02*
X172997944Y-85059041D01*
X172997944Y-85059041D02*
X172934186Y-85139326D01*
X172934186Y-85139326D02*
X172925817Y-85160040D01*
X172925817Y-85160040D02*
X172877096Y-85236225D01*
X172877096Y-85236225D02*
X172805965Y-85292785D01*
X172805965Y-85292785D02*
X172716207Y-85339201D01*
X172716207Y-85339201D02*
X172716207Y-85207584D01*
X172716207Y-85207584D02*
X172721490Y-85127168D01*
X172721490Y-85127168D02*
X172744142Y-85063786D01*
X172744142Y-85063786D02*
X172794367Y-84996163D01*
X172794367Y-84996163D02*
X172842582Y-84944076D01*
X172842582Y-84944076D02*
X172917554Y-84870322D01*
X172917554Y-84870322D02*
X172975806Y-84830702D01*
X172975806Y-84830702D02*
X173038372Y-84814810D01*
X173038372Y-84814810D02*
X173109193Y-84812184D01*
X173109193Y-84812184D02*
X173264406Y-84835156D01*
X173264406Y-84835156D02*
X173264406Y-84835156D01*
G36*
X173264406Y-84835156D02*
G01*
X173348469Y-84873393D01*
X173414450Y-84919726D01*
X173462794Y-84971532D01*
X173496172Y-85038363D01*
X173517253Y-85129769D01*
X173528707Y-85255301D01*
X173533203Y-85424508D01*
X173533678Y-85535933D01*
X173533678Y-85970627D01*
X173459316Y-86004509D01*
X173400746Y-86029272D01*
X173371730Y-86038391D01*
X173366179Y-86011257D01*
X173361775Y-85938094D01*
X173359078Y-85831263D01*
X173358506Y-85746437D01*
X173356046Y-85623887D01*
X173349412Y-85526668D01*
X173339726Y-85467134D01*
X173332032Y-85454483D01*
X173280311Y-85467402D01*
X173199117Y-85500539D01*
X173105102Y-85545461D01*
X173014917Y-85593735D01*
X172945215Y-85636928D01*
X172912648Y-85666608D01*
X172912519Y-85666929D01*
X172915320Y-85721857D01*
X172940439Y-85774292D01*
X172984541Y-85816881D01*
X173048909Y-85831126D01*
X173103921Y-85829466D01*
X173181835Y-85828245D01*
X173222732Y-85846498D01*
X173247295Y-85894726D01*
X173250392Y-85903820D01*
X173261040Y-85972598D01*
X173232565Y-86014360D01*
X173158344Y-86034263D01*
X173078168Y-86037944D01*
X172933890Y-86010658D01*
X172859203Y-85971690D01*
X172766963Y-85880148D01*
X172718043Y-85767782D01*
X172713654Y-85649051D01*
X172755001Y-85538411D01*
X172817197Y-85469080D01*
X172879294Y-85430265D01*
X172976895Y-85381125D01*
X173090632Y-85331292D01*
X173109590Y-85323677D01*
X173234521Y-85268545D01*
X173306539Y-85219954D01*
X173329700Y-85171647D01*
X173308064Y-85117370D01*
X173270920Y-85074943D01*
X173183127Y-85022702D01*
X173086530Y-85018784D01*
X172997944Y-85059041D01*
X172934186Y-85139326D01*
X172925817Y-85160040D01*
X172877096Y-85236225D01*
X172805965Y-85292785D01*
X172716207Y-85339201D01*
X172716207Y-85207584D01*
X172721490Y-85127168D01*
X172744142Y-85063786D01*
X172794367Y-84996163D01*
X172842582Y-84944076D01*
X172917554Y-84870322D01*
X172975806Y-84830702D01*
X173038372Y-84814810D01*
X173109193Y-84812184D01*
X173264406Y-84835156D01*
G37*
X173264406Y-84835156D02*
X173348469Y-84873393D01*
X173414450Y-84919726D01*
X173462794Y-84971532D01*
X173496172Y-85038363D01*
X173517253Y-85129769D01*
X173528707Y-85255301D01*
X173533203Y-85424508D01*
X173533678Y-85535933D01*
X173533678Y-85970627D01*
X173459316Y-86004509D01*
X173400746Y-86029272D01*
X173371730Y-86038391D01*
X173366179Y-86011257D01*
X173361775Y-85938094D01*
X173359078Y-85831263D01*
X173358506Y-85746437D01*
X173356046Y-85623887D01*
X173349412Y-85526668D01*
X173339726Y-85467134D01*
X173332032Y-85454483D01*
X173280311Y-85467402D01*
X173199117Y-85500539D01*
X173105102Y-85545461D01*
X173014917Y-85593735D01*
X172945215Y-85636928D01*
X172912648Y-85666608D01*
X172912519Y-85666929D01*
X172915320Y-85721857D01*
X172940439Y-85774292D01*
X172984541Y-85816881D01*
X173048909Y-85831126D01*
X173103921Y-85829466D01*
X173181835Y-85828245D01*
X173222732Y-85846498D01*
X173247295Y-85894726D01*
X173250392Y-85903820D01*
X173261040Y-85972598D01*
X173232565Y-86014360D01*
X173158344Y-86034263D01*
X173078168Y-86037944D01*
X172933890Y-86010658D01*
X172859203Y-85971690D01*
X172766963Y-85880148D01*
X172718043Y-85767782D01*
X172713654Y-85649051D01*
X172755001Y-85538411D01*
X172817197Y-85469080D01*
X172879294Y-85430265D01*
X172976895Y-85381125D01*
X173090632Y-85331292D01*
X173109590Y-85323677D01*
X173234521Y-85268545D01*
X173306539Y-85219954D01*
X173329700Y-85171647D01*
X173308064Y-85117370D01*
X173270920Y-85074943D01*
X173183127Y-85022702D01*
X173086530Y-85018784D01*
X172997944Y-85059041D01*
X172934186Y-85139326D01*
X172925817Y-85160040D01*
X172877096Y-85236225D01*
X172805965Y-85292785D01*
X172716207Y-85339201D01*
X172716207Y-85207584D01*
X172721490Y-85127168D01*
X172744142Y-85063786D01*
X172794367Y-84996163D01*
X172842582Y-84944076D01*
X172917554Y-84870322D01*
X172975806Y-84830702D01*
X173038372Y-84814810D01*
X173109193Y-84812184D01*
X173264406Y-84835156D01*
X172530124Y-84839840D02*
X172534579Y-84916653D01*
X172534579Y-84916653D02*
X172538071Y-85033391D01*
X172538071Y-85033391D02*
X172540315Y-85180821D01*
X172540315Y-85180821D02*
X172541035Y-85335455D01*
X172541035Y-85335455D02*
X172541035Y-85858727D01*
X172541035Y-85858727D02*
X172448645Y-85951117D01*
X172448645Y-85951117D02*
X172384978Y-86008047D01*
X172384978Y-86008047D02*
X172329089Y-86031107D01*
X172329089Y-86031107D02*
X172252702Y-86029647D01*
X172252702Y-86029647D02*
X172222380Y-86025934D01*
X172222380Y-86025934D02*
X172127610Y-86015126D01*
X172127610Y-86015126D02*
X172049222Y-86008933D01*
X172049222Y-86008933D02*
X172030115Y-86008361D01*
X172030115Y-86008361D02*
X171965699Y-86012102D01*
X171965699Y-86012102D02*
X171873571Y-86021494D01*
X171873571Y-86021494D02*
X171837850Y-86025934D01*
X171837850Y-86025934D02*
X171750114Y-86032801D01*
X171750114Y-86032801D02*
X171691153Y-86017885D01*
X171691153Y-86017885D02*
X171632690Y-85971835D01*
X171632690Y-85971835D02*
X171611585Y-85951117D01*
X171611585Y-85951117D02*
X171519195Y-85858727D01*
X171519195Y-85858727D02*
X171519195Y-84879947D01*
X171519195Y-84879947D02*
X171593558Y-84846066D01*
X171593558Y-84846066D02*
X171657590Y-84820970D01*
X171657590Y-84820970D02*
X171695052Y-84812184D01*
X171695052Y-84812184D02*
X171704657Y-84839950D01*
X171704657Y-84839950D02*
X171713635Y-84917530D01*
X171713635Y-84917530D02*
X171721386Y-85036348D01*
X171721386Y-85036348D02*
X171727314Y-85187828D01*
X171727314Y-85187828D02*
X171730173Y-85315805D01*
X171730173Y-85315805D02*
X171738161Y-85819425D01*
X171738161Y-85819425D02*
X171807848Y-85829278D01*
X171807848Y-85829278D02*
X171871229Y-85822389D01*
X171871229Y-85822389D02*
X171902286Y-85800083D01*
X171902286Y-85800083D02*
X171910967Y-85758379D01*
X171910967Y-85758379D02*
X171918378Y-85669544D01*
X171918378Y-85669544D02*
X171923931Y-85544834D01*
X171923931Y-85544834D02*
X171927036Y-85395507D01*
X171927036Y-85395507D02*
X171927484Y-85318661D01*
X171927484Y-85318661D02*
X171927931Y-84876287D01*
X171927931Y-84876287D02*
X172019874Y-84844235D01*
X172019874Y-84844235D02*
X172084949Y-84822443D01*
X172084949Y-84822443D02*
X172120347Y-84812281D01*
X172120347Y-84812281D02*
X172121368Y-84812184D01*
X172121368Y-84812184D02*
X172124920Y-84839809D01*
X172124920Y-84839809D02*
X172128823Y-84916411D01*
X172128823Y-84916411D02*
X172132751Y-85032579D01*
X172132751Y-85032579D02*
X172136376Y-85178904D01*
X172136376Y-85178904D02*
X172138908Y-85315805D01*
X172138908Y-85315805D02*
X172146897Y-85819425D01*
X172146897Y-85819425D02*
X172322069Y-85819425D01*
X172322069Y-85819425D02*
X172330107Y-85359965D01*
X172330107Y-85359965D02*
X172338146Y-84900505D01*
X172338146Y-84900505D02*
X172423543Y-84856344D01*
X172423543Y-84856344D02*
X172486593Y-84826019D01*
X172486593Y-84826019D02*
X172523910Y-84812258D01*
X172523910Y-84812258D02*
X172524987Y-84812184D01*
X172524987Y-84812184D02*
X172530124Y-84839840D01*
X172530124Y-84839840D02*
X172530124Y-84839840D01*
G36*
X172530124Y-84839840D02*
G01*
X172534579Y-84916653D01*
X172538071Y-85033391D01*
X172540315Y-85180821D01*
X172541035Y-85335455D01*
X172541035Y-85858727D01*
X172448645Y-85951117D01*
X172384978Y-86008047D01*
X172329089Y-86031107D01*
X172252702Y-86029647D01*
X172222380Y-86025934D01*
X172127610Y-86015126D01*
X172049222Y-86008933D01*
X172030115Y-86008361D01*
X171965699Y-86012102D01*
X171873571Y-86021494D01*
X171837850Y-86025934D01*
X171750114Y-86032801D01*
X171691153Y-86017885D01*
X171632690Y-85971835D01*
X171611585Y-85951117D01*
X171519195Y-85858727D01*
X171519195Y-84879947D01*
X171593558Y-84846066D01*
X171657590Y-84820970D01*
X171695052Y-84812184D01*
X171704657Y-84839950D01*
X171713635Y-84917530D01*
X171721386Y-85036348D01*
X171727314Y-85187828D01*
X171730173Y-85315805D01*
X171738161Y-85819425D01*
X171807848Y-85829278D01*
X171871229Y-85822389D01*
X171902286Y-85800083D01*
X171910967Y-85758379D01*
X171918378Y-85669544D01*
X171923931Y-85544834D01*
X171927036Y-85395507D01*
X171927484Y-85318661D01*
X171927931Y-84876287D01*
X172019874Y-84844235D01*
X172084949Y-84822443D01*
X172120347Y-84812281D01*
X172121368Y-84812184D01*
X172124920Y-84839809D01*
X172128823Y-84916411D01*
X172132751Y-85032579D01*
X172136376Y-85178904D01*
X172138908Y-85315805D01*
X172146897Y-85819425D01*
X172322069Y-85819425D01*
X172330107Y-85359965D01*
X172338146Y-84900505D01*
X172423543Y-84856344D01*
X172486593Y-84826019D01*
X172523910Y-84812258D01*
X172524987Y-84812184D01*
X172530124Y-84839840D01*
G37*
X172530124Y-84839840D02*
X172534579Y-84916653D01*
X172538071Y-85033391D01*
X172540315Y-85180821D01*
X172541035Y-85335455D01*
X172541035Y-85858727D01*
X172448645Y-85951117D01*
X172384978Y-86008047D01*
X172329089Y-86031107D01*
X172252702Y-86029647D01*
X172222380Y-86025934D01*
X172127610Y-86015126D01*
X172049222Y-86008933D01*
X172030115Y-86008361D01*
X171965699Y-86012102D01*
X171873571Y-86021494D01*
X171837850Y-86025934D01*
X171750114Y-86032801D01*
X171691153Y-86017885D01*
X171632690Y-85971835D01*
X171611585Y-85951117D01*
X171519195Y-85858727D01*
X171519195Y-84879947D01*
X171593558Y-84846066D01*
X171657590Y-84820970D01*
X171695052Y-84812184D01*
X171704657Y-84839950D01*
X171713635Y-84917530D01*
X171721386Y-85036348D01*
X171727314Y-85187828D01*
X171730173Y-85315805D01*
X171738161Y-85819425D01*
X171807848Y-85829278D01*
X171871229Y-85822389D01*
X171902286Y-85800083D01*
X171910967Y-85758379D01*
X171918378Y-85669544D01*
X171923931Y-85544834D01*
X171927036Y-85395507D01*
X171927484Y-85318661D01*
X171927931Y-84876287D01*
X172019874Y-84844235D01*
X172084949Y-84822443D01*
X172120347Y-84812281D01*
X172121368Y-84812184D01*
X172124920Y-84839809D01*
X172128823Y-84916411D01*
X172132751Y-85032579D01*
X172136376Y-85178904D01*
X172138908Y-85315805D01*
X172146897Y-85819425D01*
X172322069Y-85819425D01*
X172330107Y-85359965D01*
X172338146Y-84900505D01*
X172423543Y-84856344D01*
X172486593Y-84826019D01*
X172523910Y-84812258D01*
X172524987Y-84812184D01*
X172530124Y-84839840D01*
X171343914Y-85054455D02*
X171343543Y-85272661D01*
X171343543Y-85272661D02*
X171342108Y-85440519D01*
X171342108Y-85440519D02*
X171339002Y-85566070D01*
X171339002Y-85566070D02*
X171333622Y-85657355D01*
X171333622Y-85657355D02*
X171325362Y-85722415D01*
X171325362Y-85722415D02*
X171313616Y-85769291D01*
X171313616Y-85769291D02*
X171297781Y-85806024D01*
X171297781Y-85806024D02*
X171285790Y-85826991D01*
X171285790Y-85826991D02*
X171186490Y-85940694D01*
X171186490Y-85940694D02*
X171060588Y-86011965D01*
X171060588Y-86011965D02*
X170921291Y-86037538D01*
X170921291Y-86037538D02*
X170781805Y-86014150D01*
X170781805Y-86014150D02*
X170698743Y-85972119D01*
X170698743Y-85972119D02*
X170611545Y-85899411D01*
X170611545Y-85899411D02*
X170552117Y-85810612D01*
X170552117Y-85810612D02*
X170516261Y-85694320D01*
X170516261Y-85694320D02*
X170499781Y-85539135D01*
X170499781Y-85539135D02*
X170497447Y-85425287D01*
X170497447Y-85425287D02*
X170497761Y-85417106D01*
X170497761Y-85417106D02*
X170701724Y-85417106D01*
X170701724Y-85417106D02*
X170702970Y-85547657D01*
X170702970Y-85547657D02*
X170708678Y-85634080D01*
X170708678Y-85634080D02*
X170721804Y-85690618D01*
X170721804Y-85690618D02*
X170745306Y-85731514D01*
X170745306Y-85731514D02*
X170773386Y-85762362D01*
X170773386Y-85762362D02*
X170867688Y-85821905D01*
X170867688Y-85821905D02*
X170968940Y-85826992D01*
X170968940Y-85826992D02*
X171064636Y-85777279D01*
X171064636Y-85777279D02*
X171072084Y-85770543D01*
X171072084Y-85770543D02*
X171103874Y-85735502D01*
X171103874Y-85735502D02*
X171123808Y-85693811D01*
X171123808Y-85693811D02*
X171134600Y-85631762D01*
X171134600Y-85631762D02*
X171138965Y-85535644D01*
X171138965Y-85535644D02*
X171139655Y-85429379D01*
X171139655Y-85429379D02*
X171138159Y-85295880D01*
X171138159Y-85295880D02*
X171131964Y-85206822D01*
X171131964Y-85206822D02*
X171118514Y-85148293D01*
X171118514Y-85148293D02*
X171095251Y-85106382D01*
X171095251Y-85106382D02*
X171076175Y-85084123D01*
X171076175Y-85084123D02*
X170987563Y-85027985D01*
X170987563Y-85027985D02*
X170885508Y-85021235D01*
X170885508Y-85021235D02*
X170788095Y-85064114D01*
X170788095Y-85064114D02*
X170769296Y-85080032D01*
X170769296Y-85080032D02*
X170737293Y-85115382D01*
X170737293Y-85115382D02*
X170717318Y-85157502D01*
X170717318Y-85157502D02*
X170706593Y-85220251D01*
X170706593Y-85220251D02*
X170702339Y-85317487D01*
X170702339Y-85317487D02*
X170701724Y-85417106D01*
X170701724Y-85417106D02*
X170497761Y-85417106D01*
X170497761Y-85417106D02*
X170504504Y-85241947D01*
X170504504Y-85241947D02*
X170528472Y-85104195D01*
X170528472Y-85104195D02*
X170573548Y-85000632D01*
X170573548Y-85000632D02*
X170643928Y-84919856D01*
X170643928Y-84919856D02*
X170698743Y-84878455D01*
X170698743Y-84878455D02*
X170798376Y-84833728D01*
X170798376Y-84833728D02*
X170913855Y-84812967D01*
X170913855Y-84812967D02*
X171021199Y-84818525D01*
X171021199Y-84818525D02*
X171081264Y-84840943D01*
X171081264Y-84840943D02*
X171104835Y-84847323D01*
X171104835Y-84847323D02*
X171120477Y-84823535D01*
X171120477Y-84823535D02*
X171131395Y-84759788D01*
X171131395Y-84759788D02*
X171139655Y-84662687D01*
X171139655Y-84662687D02*
X171148699Y-84554541D01*
X171148699Y-84554541D02*
X171161261Y-84489475D01*
X171161261Y-84489475D02*
X171184119Y-84452268D01*
X171184119Y-84452268D02*
X171224051Y-84427699D01*
X171224051Y-84427699D02*
X171249138Y-84416819D01*
X171249138Y-84416819D02*
X171344023Y-84377072D01*
X171344023Y-84377072D02*
X171343914Y-85054455D01*
X171343914Y-85054455D02*
X171343914Y-85054455D01*
G36*
X170528472Y-85104195D02*
G01*
X170573548Y-85000632D01*
X170643928Y-84919856D01*
X170698743Y-84878455D01*
X170798376Y-84833728D01*
X170913855Y-84812967D01*
X171021199Y-84818525D01*
X171081264Y-84840943D01*
X171104835Y-84847323D01*
X171120477Y-84823535D01*
X171131395Y-84759788D01*
X171139655Y-84662687D01*
X171148699Y-84554541D01*
X171161261Y-84489475D01*
X171184119Y-84452268D01*
X171224051Y-84427699D01*
X171249138Y-84416819D01*
X171344023Y-84377072D01*
X171343914Y-85054455D01*
X171343543Y-85272661D01*
X171342108Y-85440519D01*
X171339002Y-85566070D01*
X171333622Y-85657355D01*
X171325362Y-85722415D01*
X171313616Y-85769291D01*
X171297781Y-85806024D01*
X171285790Y-85826991D01*
X171186490Y-85940694D01*
X171060588Y-86011965D01*
X170921291Y-86037538D01*
X170781805Y-86014150D01*
X170698743Y-85972119D01*
X170611545Y-85899411D01*
X170552117Y-85810612D01*
X170516261Y-85694320D01*
X170499781Y-85539135D01*
X170497447Y-85425287D01*
X170497761Y-85417106D01*
X170701724Y-85417106D01*
X170702970Y-85547657D01*
X170708678Y-85634080D01*
X170721804Y-85690618D01*
X170745306Y-85731514D01*
X170773386Y-85762362D01*
X170867688Y-85821905D01*
X170968940Y-85826992D01*
X171064636Y-85777279D01*
X171072084Y-85770543D01*
X171103874Y-85735502D01*
X171123808Y-85693811D01*
X171134600Y-85631762D01*
X171138965Y-85535644D01*
X171139655Y-85429379D01*
X171138159Y-85295880D01*
X171131964Y-85206822D01*
X171118514Y-85148293D01*
X171095251Y-85106382D01*
X171076175Y-85084123D01*
X170987563Y-85027985D01*
X170885508Y-85021235D01*
X170788095Y-85064114D01*
X170769296Y-85080032D01*
X170737293Y-85115382D01*
X170717318Y-85157502D01*
X170706593Y-85220251D01*
X170702339Y-85317487D01*
X170701724Y-85417106D01*
X170497761Y-85417106D01*
X170504504Y-85241947D01*
X170528472Y-85104195D01*
G37*
X170528472Y-85104195D02*
X170573548Y-85000632D01*
X170643928Y-84919856D01*
X170698743Y-84878455D01*
X170798376Y-84833728D01*
X170913855Y-84812967D01*
X171021199Y-84818525D01*
X171081264Y-84840943D01*
X171104835Y-84847323D01*
X171120477Y-84823535D01*
X171131395Y-84759788D01*
X171139655Y-84662687D01*
X171148699Y-84554541D01*
X171161261Y-84489475D01*
X171184119Y-84452268D01*
X171224051Y-84427699D01*
X171249138Y-84416819D01*
X171344023Y-84377072D01*
X171343914Y-85054455D01*
X171343543Y-85272661D01*
X171342108Y-85440519D01*
X171339002Y-85566070D01*
X171333622Y-85657355D01*
X171325362Y-85722415D01*
X171313616Y-85769291D01*
X171297781Y-85806024D01*
X171285790Y-85826991D01*
X171186490Y-85940694D01*
X171060588Y-86011965D01*
X170921291Y-86037538D01*
X170781805Y-86014150D01*
X170698743Y-85972119D01*
X170611545Y-85899411D01*
X170552117Y-85810612D01*
X170516261Y-85694320D01*
X170499781Y-85539135D01*
X170497447Y-85425287D01*
X170497761Y-85417106D01*
X170701724Y-85417106D01*
X170702970Y-85547657D01*
X170708678Y-85634080D01*
X170721804Y-85690618D01*
X170745306Y-85731514D01*
X170773386Y-85762362D01*
X170867688Y-85821905D01*
X170968940Y-85826992D01*
X171064636Y-85777279D01*
X171072084Y-85770543D01*
X171103874Y-85735502D01*
X171123808Y-85693811D01*
X171134600Y-85631762D01*
X171138965Y-85535644D01*
X171139655Y-85429379D01*
X171138159Y-85295880D01*
X171131964Y-85206822D01*
X171118514Y-85148293D01*
X171095251Y-85106382D01*
X171076175Y-85084123D01*
X170987563Y-85027985D01*
X170885508Y-85021235D01*
X170788095Y-85064114D01*
X170769296Y-85080032D01*
X170737293Y-85115382D01*
X170717318Y-85157502D01*
X170706593Y-85220251D01*
X170702339Y-85317487D01*
X170701724Y-85417106D01*
X170497761Y-85417106D01*
X170504504Y-85241947D01*
X170528472Y-85104195D01*
X170015943Y-84821920D02*
X170148565Y-84870859D01*
X170148565Y-84870859D02*
X170256010Y-84957419D01*
X170256010Y-84957419D02*
X170298032Y-85018352D01*
X170298032Y-85018352D02*
X170343843Y-85130161D01*
X170343843Y-85130161D02*
X170342891Y-85211006D01*
X170342891Y-85211006D02*
X170294808Y-85265378D01*
X170294808Y-85265378D02*
X170277017Y-85274624D01*
X170277017Y-85274624D02*
X170200204Y-85303450D01*
X170200204Y-85303450D02*
X170160976Y-85296065D01*
X170160976Y-85296065D02*
X170147689Y-85247658D01*
X170147689Y-85247658D02*
X170147012Y-85220920D01*
X170147012Y-85220920D02*
X170122686Y-85122548D01*
X170122686Y-85122548D02*
X170059281Y-85053734D01*
X170059281Y-85053734D02*
X169971154Y-85020498D01*
X169971154Y-85020498D02*
X169872663Y-85028861D01*
X169872663Y-85028861D02*
X169792602Y-85072296D01*
X169792602Y-85072296D02*
X169765561Y-85097072D01*
X169765561Y-85097072D02*
X169746394Y-85127129D01*
X169746394Y-85127129D02*
X169733446Y-85172565D01*
X169733446Y-85172565D02*
X169725064Y-85243476D01*
X169725064Y-85243476D02*
X169719593Y-85349960D01*
X169719593Y-85349960D02*
X169715378Y-85502112D01*
X169715378Y-85502112D02*
X169714287Y-85550287D01*
X169714287Y-85550287D02*
X169710307Y-85715095D01*
X169710307Y-85715095D02*
X169705781Y-85831088D01*
X169705781Y-85831088D02*
X169698995Y-85907833D01*
X169698995Y-85907833D02*
X169688231Y-85954893D01*
X169688231Y-85954893D02*
X169671773Y-85981835D01*
X169671773Y-85981835D02*
X169647906Y-85998223D01*
X169647906Y-85998223D02*
X169632626Y-86005463D01*
X169632626Y-86005463D02*
X169567733Y-86030220D01*
X169567733Y-86030220D02*
X169529534Y-86038391D01*
X169529534Y-86038391D02*
X169516912Y-86011103D01*
X169516912Y-86011103D02*
X169509208Y-85928603D01*
X169509208Y-85928603D02*
X169506380Y-85789941D01*
X169506380Y-85789941D02*
X169508386Y-85594162D01*
X169508386Y-85594162D02*
X169509011Y-85563965D01*
X169509011Y-85563965D02*
X169513421Y-85385349D01*
X169513421Y-85385349D02*
X169518635Y-85254923D01*
X169518635Y-85254923D02*
X169526055Y-85162492D01*
X169526055Y-85162492D02*
X169537082Y-85097858D01*
X169537082Y-85097858D02*
X169553117Y-85050825D01*
X169553117Y-85050825D02*
X169575561Y-85011196D01*
X169575561Y-85011196D02*
X169587302Y-84994215D01*
X169587302Y-84994215D02*
X169654619Y-84919080D01*
X169654619Y-84919080D02*
X169729910Y-84860638D01*
X169729910Y-84860638D02*
X169739128Y-84855536D01*
X169739128Y-84855536D02*
X169874133Y-84815260D01*
X169874133Y-84815260D02*
X170015943Y-84821920D01*
X170015943Y-84821920D02*
X170015943Y-84821920D01*
G36*
X170015943Y-84821920D02*
G01*
X170148565Y-84870859D01*
X170256010Y-84957419D01*
X170298032Y-85018352D01*
X170343843Y-85130161D01*
X170342891Y-85211006D01*
X170294808Y-85265378D01*
X170277017Y-85274624D01*
X170200204Y-85303450D01*
X170160976Y-85296065D01*
X170147689Y-85247658D01*
X170147012Y-85220920D01*
X170122686Y-85122548D01*
X170059281Y-85053734D01*
X169971154Y-85020498D01*
X169872663Y-85028861D01*
X169792602Y-85072296D01*
X169765561Y-85097072D01*
X169746394Y-85127129D01*
X169733446Y-85172565D01*
X169725064Y-85243476D01*
X169719593Y-85349960D01*
X169715378Y-85502112D01*
X169714287Y-85550287D01*
X169710307Y-85715095D01*
X169705781Y-85831088D01*
X169698995Y-85907833D01*
X169688231Y-85954893D01*
X169671773Y-85981835D01*
X169647906Y-85998223D01*
X169632626Y-86005463D01*
X169567733Y-86030220D01*
X169529534Y-86038391D01*
X169516912Y-86011103D01*
X169509208Y-85928603D01*
X169506380Y-85789941D01*
X169508386Y-85594162D01*
X169509011Y-85563965D01*
X169513421Y-85385349D01*
X169518635Y-85254923D01*
X169526055Y-85162492D01*
X169537082Y-85097858D01*
X169553117Y-85050825D01*
X169575561Y-85011196D01*
X169587302Y-84994215D01*
X169654619Y-84919080D01*
X169729910Y-84860638D01*
X169739128Y-84855536D01*
X169874133Y-84815260D01*
X170015943Y-84821920D01*
G37*
X170015943Y-84821920D02*
X170148565Y-84870859D01*
X170256010Y-84957419D01*
X170298032Y-85018352D01*
X170343843Y-85130161D01*
X170342891Y-85211006D01*
X170294808Y-85265378D01*
X170277017Y-85274624D01*
X170200204Y-85303450D01*
X170160976Y-85296065D01*
X170147689Y-85247658D01*
X170147012Y-85220920D01*
X170122686Y-85122548D01*
X170059281Y-85053734D01*
X169971154Y-85020498D01*
X169872663Y-85028861D01*
X169792602Y-85072296D01*
X169765561Y-85097072D01*
X169746394Y-85127129D01*
X169733446Y-85172565D01*
X169725064Y-85243476D01*
X169719593Y-85349960D01*
X169715378Y-85502112D01*
X169714287Y-85550287D01*
X169710307Y-85715095D01*
X169705781Y-85831088D01*
X169698995Y-85907833D01*
X169688231Y-85954893D01*
X169671773Y-85981835D01*
X169647906Y-85998223D01*
X169632626Y-86005463D01*
X169567733Y-86030220D01*
X169529534Y-86038391D01*
X169516912Y-86011103D01*
X169509208Y-85928603D01*
X169506380Y-85789941D01*
X169508386Y-85594162D01*
X169509011Y-85563965D01*
X169513421Y-85385349D01*
X169518635Y-85254923D01*
X169526055Y-85162492D01*
X169537082Y-85097858D01*
X169553117Y-85050825D01*
X169575561Y-85011196D01*
X169587302Y-84994215D01*
X169654619Y-84919080D01*
X169729910Y-84860638D01*
X169739128Y-84855536D01*
X169874133Y-84815260D01*
X170015943Y-84821920D01*
X169029944Y-84824360D02*
X169144343Y-84866842D01*
X169144343Y-84866842D02*
X169145652Y-84867658D01*
X169145652Y-84867658D02*
X169216403Y-84919730D01*
X169216403Y-84919730D02*
X169268636Y-84980584D01*
X169268636Y-84980584D02*
X169305371Y-85059887D01*
X169305371Y-85059887D02*
X169329634Y-85167309D01*
X169329634Y-85167309D02*
X169344445Y-85312517D01*
X169344445Y-85312517D02*
X169352829Y-85505179D01*
X169352829Y-85505179D02*
X169353564Y-85532628D01*
X169353564Y-85532628D02*
X169364120Y-85946521D01*
X169364120Y-85946521D02*
X169275291Y-85992456D01*
X169275291Y-85992456D02*
X169211018Y-86023498D01*
X169211018Y-86023498D02*
X169172210Y-86038206D01*
X169172210Y-86038206D02*
X169170415Y-86038391D01*
X169170415Y-86038391D02*
X169163700Y-86011250D01*
X169163700Y-86011250D02*
X169158365Y-85938041D01*
X169158365Y-85938041D02*
X169155083Y-85831081D01*
X169155083Y-85831081D02*
X169154368Y-85744469D01*
X169154368Y-85744469D02*
X169154351Y-85604162D01*
X169154351Y-85604162D02*
X169147937Y-85516051D01*
X169147937Y-85516051D02*
X169125580Y-85474025D01*
X169125580Y-85474025D02*
X169077732Y-85471975D01*
X169077732Y-85471975D02*
X168994849Y-85503790D01*
X168994849Y-85503790D02*
X168869713Y-85562272D01*
X168869713Y-85562272D02*
X168777697Y-85610845D01*
X168777697Y-85610845D02*
X168730371Y-85652986D01*
X168730371Y-85652986D02*
X168716458Y-85698916D01*
X168716458Y-85698916D02*
X168716437Y-85701189D01*
X168716437Y-85701189D02*
X168739395Y-85780311D01*
X168739395Y-85780311D02*
X168807370Y-85823055D01*
X168807370Y-85823055D02*
X168911398Y-85829246D01*
X168911398Y-85829246D02*
X168986330Y-85828172D01*
X168986330Y-85828172D02*
X169025839Y-85849753D01*
X169025839Y-85849753D02*
X169050478Y-85901591D01*
X169050478Y-85901591D02*
X169064659Y-85967632D01*
X169064659Y-85967632D02*
X169044223Y-86005104D01*
X169044223Y-86005104D02*
X169036528Y-86010467D01*
X169036528Y-86010467D02*
X168964083Y-86032006D01*
X168964083Y-86032006D02*
X168862633Y-86035055D01*
X168862633Y-86035055D02*
X168758157Y-86020778D01*
X168758157Y-86020778D02*
X168684125Y-85994688D01*
X168684125Y-85994688D02*
X168581772Y-85907785D01*
X168581772Y-85907785D02*
X168523591Y-85786816D01*
X168523591Y-85786816D02*
X168512069Y-85692308D01*
X168512069Y-85692308D02*
X168520862Y-85607062D01*
X168520862Y-85607062D02*
X168552680Y-85537476D01*
X168552680Y-85537476D02*
X168615684Y-85475672D01*
X168615684Y-85475672D02*
X168718031Y-85413772D01*
X168718031Y-85413772D02*
X168867882Y-85343897D01*
X168867882Y-85343897D02*
X168877012Y-85339948D01*
X168877012Y-85339948D02*
X169011997Y-85277588D01*
X169011997Y-85277588D02*
X169095294Y-85226446D01*
X169095294Y-85226446D02*
X169130997Y-85180488D01*
X169130997Y-85180488D02*
X169123203Y-85133683D01*
X169123203Y-85133683D02*
X169076007Y-85079998D01*
X169076007Y-85079998D02*
X169061894Y-85067644D01*
X169061894Y-85067644D02*
X168967359Y-85019741D01*
X168967359Y-85019741D02*
X168869406Y-85021758D01*
X168869406Y-85021758D02*
X168784097Y-85068724D01*
X168784097Y-85068724D02*
X168727496Y-85155669D01*
X168727496Y-85155669D02*
X168722237Y-85172734D01*
X168722237Y-85172734D02*
X168671023Y-85255504D01*
X168671023Y-85255504D02*
X168606037Y-85295372D01*
X168606037Y-85295372D02*
X168512069Y-85334882D01*
X168512069Y-85334882D02*
X168512069Y-85232658D01*
X168512069Y-85232658D02*
X168540653Y-85084072D01*
X168540653Y-85084072D02*
X168625495Y-84947784D01*
X168625495Y-84947784D02*
X168669645Y-84902191D01*
X168669645Y-84902191D02*
X168770005Y-84843674D01*
X168770005Y-84843674D02*
X168897635Y-84817184D01*
X168897635Y-84817184D02*
X169029944Y-84824360D01*
X169029944Y-84824360D02*
X169029944Y-84824360D01*
G36*
X169029944Y-84824360D02*
G01*
X169144343Y-84866842D01*
X169145652Y-84867658D01*
X169216403Y-84919730D01*
X169268636Y-84980584D01*
X169305371Y-85059887D01*
X169329634Y-85167309D01*
X169344445Y-85312517D01*
X169352829Y-85505179D01*
X169353564Y-85532628D01*
X169364120Y-85946521D01*
X169275291Y-85992456D01*
X169211018Y-86023498D01*
X169172210Y-86038206D01*
X169170415Y-86038391D01*
X169163700Y-86011250D01*
X169158365Y-85938041D01*
X169155083Y-85831081D01*
X169154368Y-85744469D01*
X169154351Y-85604162D01*
X169147937Y-85516051D01*
X169125580Y-85474025D01*
X169077732Y-85471975D01*
X168994849Y-85503790D01*
X168869713Y-85562272D01*
X168777697Y-85610845D01*
X168730371Y-85652986D01*
X168716458Y-85698916D01*
X168716437Y-85701189D01*
X168739395Y-85780311D01*
X168807370Y-85823055D01*
X168911398Y-85829246D01*
X168986330Y-85828172D01*
X169025839Y-85849753D01*
X169050478Y-85901591D01*
X169064659Y-85967632D01*
X169044223Y-86005104D01*
X169036528Y-86010467D01*
X168964083Y-86032006D01*
X168862633Y-86035055D01*
X168758157Y-86020778D01*
X168684125Y-85994688D01*
X168581772Y-85907785D01*
X168523591Y-85786816D01*
X168512069Y-85692308D01*
X168520862Y-85607062D01*
X168552680Y-85537476D01*
X168615684Y-85475672D01*
X168718031Y-85413772D01*
X168867882Y-85343897D01*
X168877012Y-85339948D01*
X169011997Y-85277588D01*
X169095294Y-85226446D01*
X169130997Y-85180488D01*
X169123203Y-85133683D01*
X169076007Y-85079998D01*
X169061894Y-85067644D01*
X168967359Y-85019741D01*
X168869406Y-85021758D01*
X168784097Y-85068724D01*
X168727496Y-85155669D01*
X168722237Y-85172734D01*
X168671023Y-85255504D01*
X168606037Y-85295372D01*
X168512069Y-85334882D01*
X168512069Y-85232658D01*
X168540653Y-85084072D01*
X168625495Y-84947784D01*
X168669645Y-84902191D01*
X168770005Y-84843674D01*
X168897635Y-84817184D01*
X169029944Y-84824360D01*
G37*
X169029944Y-84824360D02*
X169144343Y-84866842D01*
X169145652Y-84867658D01*
X169216403Y-84919730D01*
X169268636Y-84980584D01*
X169305371Y-85059887D01*
X169329634Y-85167309D01*
X169344445Y-85312517D01*
X169352829Y-85505179D01*
X169353564Y-85532628D01*
X169364120Y-85946521D01*
X169275291Y-85992456D01*
X169211018Y-86023498D01*
X169172210Y-86038206D01*
X169170415Y-86038391D01*
X169163700Y-86011250D01*
X169158365Y-85938041D01*
X169155083Y-85831081D01*
X169154368Y-85744469D01*
X169154351Y-85604162D01*
X169147937Y-85516051D01*
X169125580Y-85474025D01*
X169077732Y-85471975D01*
X168994849Y-85503790D01*
X168869713Y-85562272D01*
X168777697Y-85610845D01*
X168730371Y-85652986D01*
X168716458Y-85698916D01*
X168716437Y-85701189D01*
X168739395Y-85780311D01*
X168807370Y-85823055D01*
X168911398Y-85829246D01*
X168986330Y-85828172D01*
X169025839Y-85849753D01*
X169050478Y-85901591D01*
X169064659Y-85967632D01*
X169044223Y-86005104D01*
X169036528Y-86010467D01*
X168964083Y-86032006D01*
X168862633Y-86035055D01*
X168758157Y-86020778D01*
X168684125Y-85994688D01*
X168581772Y-85907785D01*
X168523591Y-85786816D01*
X168512069Y-85692308D01*
X168520862Y-85607062D01*
X168552680Y-85537476D01*
X168615684Y-85475672D01*
X168718031Y-85413772D01*
X168867882Y-85343897D01*
X168877012Y-85339948D01*
X169011997Y-85277588D01*
X169095294Y-85226446D01*
X169130997Y-85180488D01*
X169123203Y-85133683D01*
X169076007Y-85079998D01*
X169061894Y-85067644D01*
X168967359Y-85019741D01*
X168869406Y-85021758D01*
X168784097Y-85068724D01*
X168727496Y-85155669D01*
X168722237Y-85172734D01*
X168671023Y-85255504D01*
X168606037Y-85295372D01*
X168512069Y-85334882D01*
X168512069Y-85232658D01*
X168540653Y-85084072D01*
X168625495Y-84947784D01*
X168669645Y-84902191D01*
X168770005Y-84843674D01*
X168897635Y-84817184D01*
X169029944Y-84824360D01*
X167694598Y-84623857D02*
X167703154Y-84743188D01*
X167703154Y-84743188D02*
X167712981Y-84813506D01*
X167712981Y-84813506D02*
X167726599Y-84844179D01*
X167726599Y-84844179D02*
X167746527Y-84844571D01*
X167746527Y-84844571D02*
X167752989Y-84840910D01*
X167752989Y-84840910D02*
X167838940Y-84814398D01*
X167838940Y-84814398D02*
X167950745Y-84815946D01*
X167950745Y-84815946D02*
X168064414Y-84843199D01*
X168064414Y-84843199D02*
X168135510Y-84878455D01*
X168135510Y-84878455D02*
X168208405Y-84934778D01*
X168208405Y-84934778D02*
X168261693Y-84998519D01*
X168261693Y-84998519D02*
X168298275Y-85079510D01*
X168298275Y-85079510D02*
X168321050Y-85187586D01*
X168321050Y-85187586D02*
X168332919Y-85332580D01*
X168332919Y-85332580D02*
X168336782Y-85524326D01*
X168336782Y-85524326D02*
X168336851Y-85561109D01*
X168336851Y-85561109D02*
X168336897Y-85974288D01*
X168336897Y-85974288D02*
X168244954Y-86006339D01*
X168244954Y-86006339D02*
X168179652Y-86028144D01*
X168179652Y-86028144D02*
X168143824Y-86038297D01*
X168143824Y-86038297D02*
X168142770Y-86038391D01*
X168142770Y-86038391D02*
X168139242Y-86010860D01*
X168139242Y-86010860D02*
X168136239Y-85934923D01*
X168136239Y-85934923D02*
X168133990Y-85820565D01*
X168133990Y-85820565D02*
X168132724Y-85677769D01*
X168132724Y-85677769D02*
X168132529Y-85590951D01*
X168132529Y-85590951D02*
X168132123Y-85419773D01*
X168132123Y-85419773D02*
X168130032Y-85297088D01*
X168130032Y-85297088D02*
X168124947Y-85213000D01*
X168124947Y-85213000D02*
X168115560Y-85157614D01*
X168115560Y-85157614D02*
X168100561Y-85121032D01*
X168100561Y-85121032D02*
X168078642Y-85093359D01*
X168078642Y-85093359D02*
X168064957Y-85080032D01*
X168064957Y-85080032D02*
X167970949Y-85026328D01*
X167970949Y-85026328D02*
X167868364Y-85022307D01*
X167868364Y-85022307D02*
X167775290Y-85067725D01*
X167775290Y-85067725D02*
X167758078Y-85084123D01*
X167758078Y-85084123D02*
X167732832Y-85114957D01*
X167732832Y-85114957D02*
X167715320Y-85151531D01*
X167715320Y-85151531D02*
X167704142Y-85204415D01*
X167704142Y-85204415D02*
X167697896Y-85284177D01*
X167697896Y-85284177D02*
X167695182Y-85401385D01*
X167695182Y-85401385D02*
X167694598Y-85562991D01*
X167694598Y-85562991D02*
X167694598Y-85974288D01*
X167694598Y-85974288D02*
X167602655Y-86006339D01*
X167602655Y-86006339D02*
X167537353Y-86028144D01*
X167537353Y-86028144D02*
X167501525Y-86038297D01*
X167501525Y-86038297D02*
X167500471Y-86038391D01*
X167500471Y-86038391D02*
X167497775Y-86010448D01*
X167497775Y-86010448D02*
X167495345Y-85931630D01*
X167495345Y-85931630D02*
X167493278Y-85809453D01*
X167493278Y-85809453D02*
X167491671Y-85651432D01*
X167491671Y-85651432D02*
X167490623Y-85465083D01*
X167490623Y-85465083D02*
X167490231Y-85257920D01*
X167490231Y-85257920D02*
X167490230Y-85248706D01*
X167490230Y-85248706D02*
X167490230Y-84459020D01*
X167490230Y-84459020D02*
X167585115Y-84418997D01*
X167585115Y-84418997D02*
X167680000Y-84378973D01*
X167680000Y-84378973D02*
X167694598Y-84623857D01*
X167694598Y-84623857D02*
X167694598Y-84623857D01*
G36*
X167694598Y-84623857D02*
G01*
X167703154Y-84743188D01*
X167712981Y-84813506D01*
X167726599Y-84844179D01*
X167746527Y-84844571D01*
X167752989Y-84840910D01*
X167838940Y-84814398D01*
X167950745Y-84815946D01*
X168064414Y-84843199D01*
X168135510Y-84878455D01*
X168208405Y-84934778D01*
X168261693Y-84998519D01*
X168298275Y-85079510D01*
X168321050Y-85187586D01*
X168332919Y-85332580D01*
X168336782Y-85524326D01*
X168336851Y-85561109D01*
X168336897Y-85974288D01*
X168244954Y-86006339D01*
X168179652Y-86028144D01*
X168143824Y-86038297D01*
X168142770Y-86038391D01*
X168139242Y-86010860D01*
X168136239Y-85934923D01*
X168133990Y-85820565D01*
X168132724Y-85677769D01*
X168132529Y-85590951D01*
X168132123Y-85419773D01*
X168130032Y-85297088D01*
X168124947Y-85213000D01*
X168115560Y-85157614D01*
X168100561Y-85121032D01*
X168078642Y-85093359D01*
X168064957Y-85080032D01*
X167970949Y-85026328D01*
X167868364Y-85022307D01*
X167775290Y-85067725D01*
X167758078Y-85084123D01*
X167732832Y-85114957D01*
X167715320Y-85151531D01*
X167704142Y-85204415D01*
X167697896Y-85284177D01*
X167695182Y-85401385D01*
X167694598Y-85562991D01*
X167694598Y-85974288D01*
X167602655Y-86006339D01*
X167537353Y-86028144D01*
X167501525Y-86038297D01*
X167500471Y-86038391D01*
X167497775Y-86010448D01*
X167495345Y-85931630D01*
X167493278Y-85809453D01*
X167491671Y-85651432D01*
X167490623Y-85465083D01*
X167490231Y-85257920D01*
X167490230Y-85248706D01*
X167490230Y-84459020D01*
X167585115Y-84418997D01*
X167680000Y-84378973D01*
X167694598Y-84623857D01*
G37*
X167694598Y-84623857D02*
X167703154Y-84743188D01*
X167712981Y-84813506D01*
X167726599Y-84844179D01*
X167746527Y-84844571D01*
X167752989Y-84840910D01*
X167838940Y-84814398D01*
X167950745Y-84815946D01*
X168064414Y-84843199D01*
X168135510Y-84878455D01*
X168208405Y-84934778D01*
X168261693Y-84998519D01*
X168298275Y-85079510D01*
X168321050Y-85187586D01*
X168332919Y-85332580D01*
X168336782Y-85524326D01*
X168336851Y-85561109D01*
X168336897Y-85974288D01*
X168244954Y-86006339D01*
X168179652Y-86028144D01*
X168143824Y-86038297D01*
X168142770Y-86038391D01*
X168139242Y-86010860D01*
X168136239Y-85934923D01*
X168133990Y-85820565D01*
X168132724Y-85677769D01*
X168132529Y-85590951D01*
X168132123Y-85419773D01*
X168130032Y-85297088D01*
X168124947Y-85213000D01*
X168115560Y-85157614D01*
X168100561Y-85121032D01*
X168078642Y-85093359D01*
X168064957Y-85080032D01*
X167970949Y-85026328D01*
X167868364Y-85022307D01*
X167775290Y-85067725D01*
X167758078Y-85084123D01*
X167732832Y-85114957D01*
X167715320Y-85151531D01*
X167704142Y-85204415D01*
X167697896Y-85284177D01*
X167695182Y-85401385D01*
X167694598Y-85562991D01*
X167694598Y-85974288D01*
X167602655Y-86006339D01*
X167537353Y-86028144D01*
X167501525Y-86038297D01*
X167500471Y-86038391D01*
X167497775Y-86010448D01*
X167495345Y-85931630D01*
X167493278Y-85809453D01*
X167491671Y-85651432D01*
X167490623Y-85465083D01*
X167490231Y-85257920D01*
X167490230Y-85248706D01*
X167490230Y-84459020D01*
X167585115Y-84418997D01*
X167680000Y-84378973D01*
X167694598Y-84623857D01*
X165265552Y-84784676D02*
X165380658Y-84862111D01*
X165380658Y-84862111D02*
X165469611Y-84973949D01*
X165469611Y-84973949D02*
X165522749Y-85116265D01*
X165522749Y-85116265D02*
X165533497Y-85221015D01*
X165533497Y-85221015D02*
X165532276Y-85264726D01*
X165532276Y-85264726D02*
X165522056Y-85298194D01*
X165522056Y-85298194D02*
X165493961Y-85328179D01*
X165493961Y-85328179D02*
X165439116Y-85361440D01*
X165439116Y-85361440D02*
X165348645Y-85404738D01*
X165348645Y-85404738D02*
X165213672Y-85464833D01*
X165213672Y-85464833D02*
X165212989Y-85465134D01*
X165212989Y-85465134D02*
X165088751Y-85522037D01*
X165088751Y-85522037D02*
X164986873Y-85572565D01*
X164986873Y-85572565D02*
X164917767Y-85611280D01*
X164917767Y-85611280D02*
X164891846Y-85632740D01*
X164891846Y-85632740D02*
X164891839Y-85632913D01*
X164891839Y-85632913D02*
X164914685Y-85679644D01*
X164914685Y-85679644D02*
X164968109Y-85731154D01*
X164968109Y-85731154D02*
X165029442Y-85768261D01*
X165029442Y-85768261D02*
X165060515Y-85775632D01*
X165060515Y-85775632D02*
X165145289Y-85750138D01*
X165145289Y-85750138D02*
X165218293Y-85686291D01*
X165218293Y-85686291D02*
X165253913Y-85616094D01*
X165253913Y-85616094D02*
X165288180Y-85564343D01*
X165288180Y-85564343D02*
X165355303Y-85505409D01*
X165355303Y-85505409D02*
X165434208Y-85454496D01*
X165434208Y-85454496D02*
X165503821Y-85426809D01*
X165503821Y-85426809D02*
X165518377Y-85425287D01*
X165518377Y-85425287D02*
X165534763Y-85450321D01*
X165534763Y-85450321D02*
X165535750Y-85514311D01*
X165535750Y-85514311D02*
X165523708Y-85600593D01*
X165523708Y-85600593D02*
X165501007Y-85692501D01*
X165501007Y-85692501D02*
X165470014Y-85773369D01*
X165470014Y-85773369D02*
X165468448Y-85776509D01*
X165468448Y-85776509D02*
X165375181Y-85906734D01*
X165375181Y-85906734D02*
X165254304Y-85995311D01*
X165254304Y-85995311D02*
X165117027Y-86038786D01*
X165117027Y-86038786D02*
X164974560Y-86033706D01*
X164974560Y-86033706D02*
X164838112Y-85976616D01*
X164838112Y-85976616D02*
X164832045Y-85972602D01*
X164832045Y-85972602D02*
X164724710Y-85875326D01*
X164724710Y-85875326D02*
X164654132Y-85748409D01*
X164654132Y-85748409D02*
X164615074Y-85581526D01*
X164615074Y-85581526D02*
X164609832Y-85534639D01*
X164609832Y-85534639D02*
X164600548Y-85313329D01*
X164600548Y-85313329D02*
X164611678Y-85210124D01*
X164611678Y-85210124D02*
X164891839Y-85210124D01*
X164891839Y-85210124D02*
X164895479Y-85274503D01*
X164895479Y-85274503D02*
X164915389Y-85293291D01*
X164915389Y-85293291D02*
X164965026Y-85279235D01*
X164965026Y-85279235D02*
X165043267Y-85246009D01*
X165043267Y-85246009D02*
X165130726Y-85204359D01*
X165130726Y-85204359D02*
X165132899Y-85203256D01*
X165132899Y-85203256D02*
X165207030Y-85164265D01*
X165207030Y-85164265D02*
X165236781Y-85138244D01*
X165236781Y-85138244D02*
X165229445Y-85110965D01*
X165229445Y-85110965D02*
X165198553Y-85075121D01*
X165198553Y-85075121D02*
X165119960Y-85023251D01*
X165119960Y-85023251D02*
X165035323Y-85019439D01*
X165035323Y-85019439D02*
X164959403Y-85057189D01*
X164959403Y-85057189D02*
X164906965Y-85130001D01*
X164906965Y-85130001D02*
X164891839Y-85210124D01*
X164891839Y-85210124D02*
X164611678Y-85210124D01*
X164611678Y-85210124D02*
X164619644Y-85136261D01*
X164619644Y-85136261D02*
X164668634Y-84995829D01*
X164668634Y-84995829D02*
X164736836Y-84897447D01*
X164736836Y-84897447D02*
X164859935Y-84798030D01*
X164859935Y-84798030D02*
X164995528Y-84748711D01*
X164995528Y-84748711D02*
X165133955Y-84745568D01*
X165133955Y-84745568D02*
X165265552Y-84784676D01*
X165265552Y-84784676D02*
X165265552Y-84784676D01*
G36*
X164668634Y-84995829D02*
G01*
X164736836Y-84897447D01*
X164859935Y-84798030D01*
X164995528Y-84748711D01*
X165133955Y-84745568D01*
X165265552Y-84784676D01*
X165380658Y-84862111D01*
X165469611Y-84973949D01*
X165522749Y-85116265D01*
X165533497Y-85221015D01*
X165532276Y-85264726D01*
X165522056Y-85298194D01*
X165493961Y-85328179D01*
X165439116Y-85361440D01*
X165348645Y-85404738D01*
X165213672Y-85464833D01*
X165212989Y-85465134D01*
X165088751Y-85522037D01*
X164986873Y-85572565D01*
X164917767Y-85611280D01*
X164891846Y-85632740D01*
X164891839Y-85632913D01*
X164914685Y-85679644D01*
X164968109Y-85731154D01*
X165029442Y-85768261D01*
X165060515Y-85775632D01*
X165145289Y-85750138D01*
X165218293Y-85686291D01*
X165253913Y-85616094D01*
X165288180Y-85564343D01*
X165355303Y-85505409D01*
X165434208Y-85454496D01*
X165503821Y-85426809D01*
X165518377Y-85425287D01*
X165534763Y-85450321D01*
X165535750Y-85514311D01*
X165523708Y-85600593D01*
X165501007Y-85692501D01*
X165470014Y-85773369D01*
X165468448Y-85776509D01*
X165375181Y-85906734D01*
X165254304Y-85995311D01*
X165117027Y-86038786D01*
X164974560Y-86033706D01*
X164838112Y-85976616D01*
X164832045Y-85972602D01*
X164724710Y-85875326D01*
X164654132Y-85748409D01*
X164615074Y-85581526D01*
X164609832Y-85534639D01*
X164600548Y-85313329D01*
X164611678Y-85210124D01*
X164891839Y-85210124D01*
X164895479Y-85274503D01*
X164915389Y-85293291D01*
X164965026Y-85279235D01*
X165043267Y-85246009D01*
X165130726Y-85204359D01*
X165132899Y-85203256D01*
X165207030Y-85164265D01*
X165236781Y-85138244D01*
X165229445Y-85110965D01*
X165198553Y-85075121D01*
X165119960Y-85023251D01*
X165035323Y-85019439D01*
X164959403Y-85057189D01*
X164906965Y-85130001D01*
X164891839Y-85210124D01*
X164611678Y-85210124D01*
X164619644Y-85136261D01*
X164668634Y-84995829D01*
G37*
X164668634Y-84995829D02*
X164736836Y-84897447D01*
X164859935Y-84798030D01*
X164995528Y-84748711D01*
X165133955Y-84745568D01*
X165265552Y-84784676D01*
X165380658Y-84862111D01*
X165469611Y-84973949D01*
X165522749Y-85116265D01*
X165533497Y-85221015D01*
X165532276Y-85264726D01*
X165522056Y-85298194D01*
X165493961Y-85328179D01*
X165439116Y-85361440D01*
X165348645Y-85404738D01*
X165213672Y-85464833D01*
X165212989Y-85465134D01*
X165088751Y-85522037D01*
X164986873Y-85572565D01*
X164917767Y-85611280D01*
X164891846Y-85632740D01*
X164891839Y-85632913D01*
X164914685Y-85679644D01*
X164968109Y-85731154D01*
X165029442Y-85768261D01*
X165060515Y-85775632D01*
X165145289Y-85750138D01*
X165218293Y-85686291D01*
X165253913Y-85616094D01*
X165288180Y-85564343D01*
X165355303Y-85505409D01*
X165434208Y-85454496D01*
X165503821Y-85426809D01*
X165518377Y-85425287D01*
X165534763Y-85450321D01*
X165535750Y-85514311D01*
X165523708Y-85600593D01*
X165501007Y-85692501D01*
X165470014Y-85773369D01*
X165468448Y-85776509D01*
X165375181Y-85906734D01*
X165254304Y-85995311D01*
X165117027Y-86038786D01*
X164974560Y-86033706D01*
X164838112Y-85976616D01*
X164832045Y-85972602D01*
X164724710Y-85875326D01*
X164654132Y-85748409D01*
X164615074Y-85581526D01*
X164609832Y-85534639D01*
X164600548Y-85313329D01*
X164611678Y-85210124D01*
X164891839Y-85210124D01*
X164895479Y-85274503D01*
X164915389Y-85293291D01*
X164965026Y-85279235D01*
X165043267Y-85246009D01*
X165130726Y-85204359D01*
X165132899Y-85203256D01*
X165207030Y-85164265D01*
X165236781Y-85138244D01*
X165229445Y-85110965D01*
X165198553Y-85075121D01*
X165119960Y-85023251D01*
X165035323Y-85019439D01*
X164959403Y-85057189D01*
X164906965Y-85130001D01*
X164891839Y-85210124D01*
X164611678Y-85210124D01*
X164619644Y-85136261D01*
X164668634Y-84995829D01*
X162998221Y-84766015D02*
X163135061Y-84837968D01*
X163135061Y-84837968D02*
X163236051Y-84953766D01*
X163236051Y-84953766D02*
X163271925Y-85028213D01*
X163271925Y-85028213D02*
X163299839Y-85139992D01*
X163299839Y-85139992D02*
X163314129Y-85281227D01*
X163314129Y-85281227D02*
X163315484Y-85435371D01*
X163315484Y-85435371D02*
X163304595Y-85585879D01*
X163304595Y-85585879D02*
X163282153Y-85716205D01*
X163282153Y-85716205D02*
X163248850Y-85809803D01*
X163248850Y-85809803D02*
X163238615Y-85825922D01*
X163238615Y-85825922D02*
X163117382Y-85946249D01*
X163117382Y-85946249D02*
X162973387Y-86018317D01*
X162973387Y-86018317D02*
X162817139Y-86039408D01*
X162817139Y-86039408D02*
X162659148Y-86006802D01*
X162659148Y-86006802D02*
X162615180Y-85987253D01*
X162615180Y-85987253D02*
X162529556Y-85927012D01*
X162529556Y-85927012D02*
X162454408Y-85847135D01*
X162454408Y-85847135D02*
X162447306Y-85837004D01*
X162447306Y-85837004D02*
X162418439Y-85788181D01*
X162418439Y-85788181D02*
X162399357Y-85735990D01*
X162399357Y-85735990D02*
X162388084Y-85667285D01*
X162388084Y-85667285D02*
X162382645Y-85568918D01*
X162382645Y-85568918D02*
X162381062Y-85427744D01*
X162381062Y-85427744D02*
X162381035Y-85396092D01*
X162381035Y-85396092D02*
X162381107Y-85386019D01*
X162381107Y-85386019D02*
X162672989Y-85386019D01*
X162672989Y-85386019D02*
X162674687Y-85519256D01*
X162674687Y-85519256D02*
X162681372Y-85607674D01*
X162681372Y-85607674D02*
X162695425Y-85664785D01*
X162695425Y-85664785D02*
X162719229Y-85704102D01*
X162719229Y-85704102D02*
X162731379Y-85717241D01*
X162731379Y-85717241D02*
X162801236Y-85767172D01*
X162801236Y-85767172D02*
X162869059Y-85764895D01*
X162869059Y-85764895D02*
X162937635Y-85721584D01*
X162937635Y-85721584D02*
X162978535Y-85675346D01*
X162978535Y-85675346D02*
X163002758Y-85607857D01*
X163002758Y-85607857D02*
X163016361Y-85501433D01*
X163016361Y-85501433D02*
X163017294Y-85489020D01*
X163017294Y-85489020D02*
X163019616Y-85296147D01*
X163019616Y-85296147D02*
X162995350Y-85152900D01*
X162995350Y-85152900D02*
X162944824Y-85060160D01*
X162944824Y-85060160D02*
X162868368Y-85018807D01*
X162868368Y-85018807D02*
X162841076Y-85016552D01*
X162841076Y-85016552D02*
X162769411Y-85027893D01*
X162769411Y-85027893D02*
X162720390Y-85067184D01*
X162720390Y-85067184D02*
X162690418Y-85142326D01*
X162690418Y-85142326D02*
X162675899Y-85261222D01*
X162675899Y-85261222D02*
X162672989Y-85386019D01*
X162672989Y-85386019D02*
X162381107Y-85386019D01*
X162381107Y-85386019D02*
X162382122Y-85245659D01*
X162382122Y-85245659D02*
X162386688Y-85140549D01*
X162386688Y-85140549D02*
X162396688Y-85067714D01*
X162396688Y-85067714D02*
X162414079Y-85014108D01*
X162414079Y-85014108D02*
X162440816Y-84966681D01*
X162440816Y-84966681D02*
X162446724Y-84957864D01*
X162446724Y-84957864D02*
X162546032Y-84839007D01*
X162546032Y-84839007D02*
X162654242Y-84770008D01*
X162654242Y-84770008D02*
X162785981Y-84742619D01*
X162785981Y-84742619D02*
X162830717Y-84741281D01*
X162830717Y-84741281D02*
X162998221Y-84766015D01*
X162998221Y-84766015D02*
X162998221Y-84766015D01*
G36*
X162386688Y-85140549D02*
G01*
X162396688Y-85067714D01*
X162414079Y-85014108D01*
X162440816Y-84966681D01*
X162446724Y-84957864D01*
X162546032Y-84839007D01*
X162654242Y-84770008D01*
X162785981Y-84742619D01*
X162830717Y-84741281D01*
X162998221Y-84766015D01*
X163135061Y-84837968D01*
X163236051Y-84953766D01*
X163271925Y-85028213D01*
X163299839Y-85139992D01*
X163314129Y-85281227D01*
X163315484Y-85435371D01*
X163304595Y-85585879D01*
X163282153Y-85716205D01*
X163248850Y-85809803D01*
X163238615Y-85825922D01*
X163117382Y-85946249D01*
X162973387Y-86018317D01*
X162817139Y-86039408D01*
X162659148Y-86006802D01*
X162615180Y-85987253D01*
X162529556Y-85927012D01*
X162454408Y-85847135D01*
X162447306Y-85837004D01*
X162418439Y-85788181D01*
X162399357Y-85735990D01*
X162388084Y-85667285D01*
X162382645Y-85568918D01*
X162381062Y-85427744D01*
X162381035Y-85396092D01*
X162381107Y-85386019D01*
X162672989Y-85386019D01*
X162674687Y-85519256D01*
X162681372Y-85607674D01*
X162695425Y-85664785D01*
X162719229Y-85704102D01*
X162731379Y-85717241D01*
X162801236Y-85767172D01*
X162869059Y-85764895D01*
X162937635Y-85721584D01*
X162978535Y-85675346D01*
X163002758Y-85607857D01*
X163016361Y-85501433D01*
X163017294Y-85489020D01*
X163019616Y-85296147D01*
X162995350Y-85152900D01*
X162944824Y-85060160D01*
X162868368Y-85018807D01*
X162841076Y-85016552D01*
X162769411Y-85027893D01*
X162720390Y-85067184D01*
X162690418Y-85142326D01*
X162675899Y-85261222D01*
X162672989Y-85386019D01*
X162381107Y-85386019D01*
X162382122Y-85245659D01*
X162386688Y-85140549D01*
G37*
X162386688Y-85140549D02*
X162396688Y-85067714D01*
X162414079Y-85014108D01*
X162440816Y-84966681D01*
X162446724Y-84957864D01*
X162546032Y-84839007D01*
X162654242Y-84770008D01*
X162785981Y-84742619D01*
X162830717Y-84741281D01*
X162998221Y-84766015D01*
X163135061Y-84837968D01*
X163236051Y-84953766D01*
X163271925Y-85028213D01*
X163299839Y-85139992D01*
X163314129Y-85281227D01*
X163315484Y-85435371D01*
X163304595Y-85585879D01*
X163282153Y-85716205D01*
X163248850Y-85809803D01*
X163238615Y-85825922D01*
X163117382Y-85946249D01*
X162973387Y-86018317D01*
X162817139Y-86039408D01*
X162659148Y-86006802D01*
X162615180Y-85987253D01*
X162529556Y-85927012D01*
X162454408Y-85847135D01*
X162447306Y-85837004D01*
X162418439Y-85788181D01*
X162399357Y-85735990D01*
X162388084Y-85667285D01*
X162382645Y-85568918D01*
X162381062Y-85427744D01*
X162381035Y-85396092D01*
X162381107Y-85386019D01*
X162672989Y-85386019D01*
X162674687Y-85519256D01*
X162681372Y-85607674D01*
X162695425Y-85664785D01*
X162719229Y-85704102D01*
X162731379Y-85717241D01*
X162801236Y-85767172D01*
X162869059Y-85764895D01*
X162937635Y-85721584D01*
X162978535Y-85675346D01*
X163002758Y-85607857D01*
X163016361Y-85501433D01*
X163017294Y-85489020D01*
X163019616Y-85296147D01*
X162995350Y-85152900D01*
X162944824Y-85060160D01*
X162868368Y-85018807D01*
X162841076Y-85016552D01*
X162769411Y-85027893D01*
X162720390Y-85067184D01*
X162690418Y-85142326D01*
X162675899Y-85261222D01*
X162672989Y-85386019D01*
X162381107Y-85386019D01*
X162382122Y-85245659D01*
X162386688Y-85140549D01*
X166367429Y-84777719D02*
X166461123Y-84831914D01*
X166461123Y-84831914D02*
X166526264Y-84885707D01*
X166526264Y-84885707D02*
X166573907Y-84942066D01*
X166573907Y-84942066D02*
X166606728Y-85010987D01*
X166606728Y-85010987D02*
X166627406Y-85102468D01*
X166627406Y-85102468D02*
X166638620Y-85226506D01*
X166638620Y-85226506D02*
X166643049Y-85393098D01*
X166643049Y-85393098D02*
X166643563Y-85512851D01*
X166643563Y-85512851D02*
X166643563Y-85953659D01*
X166643563Y-85953659D02*
X166519483Y-86009283D01*
X166519483Y-86009283D02*
X166395402Y-86064907D01*
X166395402Y-86064907D02*
X166380805Y-85582095D01*
X166380805Y-85582095D02*
X166374773Y-85401779D01*
X166374773Y-85401779D02*
X166368445Y-85270901D01*
X166368445Y-85270901D02*
X166360606Y-85180511D01*
X166360606Y-85180511D02*
X166350037Y-85121664D01*
X166350037Y-85121664D02*
X166335523Y-85085413D01*
X166335523Y-85085413D02*
X166315848Y-85062810D01*
X166315848Y-85062810D02*
X166309535Y-85057917D01*
X166309535Y-85057917D02*
X166213888Y-85019706D01*
X166213888Y-85019706D02*
X166117207Y-85034827D01*
X166117207Y-85034827D02*
X166059655Y-85074943D01*
X166059655Y-85074943D02*
X166036245Y-85103370D01*
X166036245Y-85103370D02*
X166020039Y-85140672D01*
X166020039Y-85140672D02*
X166009741Y-85197223D01*
X166009741Y-85197223D02*
X166004049Y-85283394D01*
X166004049Y-85283394D02*
X166001664Y-85409558D01*
X166001664Y-85409558D02*
X166001264Y-85541042D01*
X166001264Y-85541042D02*
X166001186Y-85705999D01*
X166001186Y-85705999D02*
X165998361Y-85822761D01*
X165998361Y-85822761D02*
X165988907Y-85901510D01*
X165988907Y-85901510D02*
X165968940Y-85952431D01*
X165968940Y-85952431D02*
X165934576Y-85985706D01*
X165934576Y-85985706D02*
X165881932Y-86011520D01*
X165881932Y-86011520D02*
X165811617Y-86038344D01*
X165811617Y-86038344D02*
X165734820Y-86067542D01*
X165734820Y-86067542D02*
X165743962Y-85549346D01*
X165743962Y-85549346D02*
X165747643Y-85362539D01*
X165747643Y-85362539D02*
X165751950Y-85224490D01*
X165751950Y-85224490D02*
X165758123Y-85125568D01*
X165758123Y-85125568D02*
X165767402Y-85056145D01*
X165767402Y-85056145D02*
X165781027Y-85006590D01*
X165781027Y-85006590D02*
X165800239Y-84967273D01*
X165800239Y-84967273D02*
X165823402Y-84932584D01*
X165823402Y-84932584D02*
X165935152Y-84821770D01*
X165935152Y-84821770D02*
X166071513Y-84757689D01*
X166071513Y-84757689D02*
X166219825Y-84742339D01*
X166219825Y-84742339D02*
X166367429Y-84777719D01*
X166367429Y-84777719D02*
X166367429Y-84777719D01*
G36*
X166367429Y-84777719D02*
G01*
X166461123Y-84831914D01*
X166526264Y-84885707D01*
X166573907Y-84942066D01*
X166606728Y-85010987D01*
X166627406Y-85102468D01*
X166638620Y-85226506D01*
X166643049Y-85393098D01*
X166643563Y-85512851D01*
X166643563Y-85953659D01*
X166519483Y-86009283D01*
X166395402Y-86064907D01*
X166380805Y-85582095D01*
X166374773Y-85401779D01*
X166368445Y-85270901D01*
X166360606Y-85180511D01*
X166350037Y-85121664D01*
X166335523Y-85085413D01*
X166315848Y-85062810D01*
X166309535Y-85057917D01*
X166213888Y-85019706D01*
X166117207Y-85034827D01*
X166059655Y-85074943D01*
X166036245Y-85103370D01*
X166020039Y-85140672D01*
X166009741Y-85197223D01*
X166004049Y-85283394D01*
X166001664Y-85409558D01*
X166001264Y-85541042D01*
X166001186Y-85705999D01*
X165998361Y-85822761D01*
X165988907Y-85901510D01*
X165968940Y-85952431D01*
X165934576Y-85985706D01*
X165881932Y-86011520D01*
X165811617Y-86038344D01*
X165734820Y-86067542D01*
X165743962Y-85549346D01*
X165747643Y-85362539D01*
X165751950Y-85224490D01*
X165758123Y-85125568D01*
X165767402Y-85056145D01*
X165781027Y-85006590D01*
X165800239Y-84967273D01*
X165823402Y-84932584D01*
X165935152Y-84821770D01*
X166071513Y-84757689D01*
X166219825Y-84742339D01*
X166367429Y-84777719D01*
G37*
X166367429Y-84777719D02*
X166461123Y-84831914D01*
X166526264Y-84885707D01*
X166573907Y-84942066D01*
X166606728Y-85010987D01*
X166627406Y-85102468D01*
X166638620Y-85226506D01*
X166643049Y-85393098D01*
X166643563Y-85512851D01*
X166643563Y-85953659D01*
X166519483Y-86009283D01*
X166395402Y-86064907D01*
X166380805Y-85582095D01*
X166374773Y-85401779D01*
X166368445Y-85270901D01*
X166360606Y-85180511D01*
X166350037Y-85121664D01*
X166335523Y-85085413D01*
X166315848Y-85062810D01*
X166309535Y-85057917D01*
X166213888Y-85019706D01*
X166117207Y-85034827D01*
X166059655Y-85074943D01*
X166036245Y-85103370D01*
X166020039Y-85140672D01*
X166009741Y-85197223D01*
X166004049Y-85283394D01*
X166001664Y-85409558D01*
X166001264Y-85541042D01*
X166001186Y-85705999D01*
X165998361Y-85822761D01*
X165988907Y-85901510D01*
X165968940Y-85952431D01*
X165934576Y-85985706D01*
X165881932Y-86011520D01*
X165811617Y-86038344D01*
X165734820Y-86067542D01*
X165743962Y-85549346D01*
X165747643Y-85362539D01*
X165751950Y-85224490D01*
X165758123Y-85125568D01*
X165767402Y-85056145D01*
X165781027Y-85006590D01*
X165800239Y-84967273D01*
X165823402Y-84932584D01*
X165935152Y-84821770D01*
X166071513Y-84757689D01*
X166219825Y-84742339D01*
X166367429Y-84777719D01*
X164121900Y-84761903D02*
X164233450Y-84817522D01*
X164233450Y-84817522D02*
X164331908Y-84919931D01*
X164331908Y-84919931D02*
X164359023Y-84957864D01*
X164359023Y-84957864D02*
X164388562Y-85007500D01*
X164388562Y-85007500D02*
X164407728Y-85061412D01*
X164407728Y-85061412D02*
X164418693Y-85133364D01*
X164418693Y-85133364D02*
X164423629Y-85237122D01*
X164423629Y-85237122D02*
X164424713Y-85374101D01*
X164424713Y-85374101D02*
X164419818Y-85561815D01*
X164419818Y-85561815D02*
X164402804Y-85702758D01*
X164402804Y-85702758D02*
X164370177Y-85807908D01*
X164370177Y-85807908D02*
X164318442Y-85888243D01*
X164318442Y-85888243D02*
X164244104Y-85954741D01*
X164244104Y-85954741D02*
X164238642Y-85958678D01*
X164238642Y-85958678D02*
X164165380Y-85998953D01*
X164165380Y-85998953D02*
X164077160Y-86018880D01*
X164077160Y-86018880D02*
X163964962Y-86023793D01*
X163964962Y-86023793D02*
X163782567Y-86023793D01*
X163782567Y-86023793D02*
X163782491Y-86200857D01*
X163782491Y-86200857D02*
X163780793Y-86299470D01*
X163780793Y-86299470D02*
X163770450Y-86357314D01*
X163770450Y-86357314D02*
X163743422Y-86392006D01*
X163743422Y-86392006D02*
X163691668Y-86421164D01*
X163691668Y-86421164D02*
X163679239Y-86427121D01*
X163679239Y-86427121D02*
X163621077Y-86455039D01*
X163621077Y-86455039D02*
X163576044Y-86472672D01*
X163576044Y-86472672D02*
X163542559Y-86474194D01*
X163542559Y-86474194D02*
X163519038Y-86453781D01*
X163519038Y-86453781D02*
X163503900Y-86405607D01*
X163503900Y-86405607D02*
X163495563Y-86323846D01*
X163495563Y-86323846D02*
X163492444Y-86202672D01*
X163492444Y-86202672D02*
X163492960Y-86036260D01*
X163492960Y-86036260D02*
X163495529Y-85818785D01*
X163495529Y-85818785D02*
X163496332Y-85753736D01*
X163496332Y-85753736D02*
X163499222Y-85529502D01*
X163499222Y-85529502D02*
X163501812Y-85382821D01*
X163501812Y-85382821D02*
X163782414Y-85382821D01*
X163782414Y-85382821D02*
X163783991Y-85507326D01*
X163783991Y-85507326D02*
X163791000Y-85588787D01*
X163791000Y-85588787D02*
X163806858Y-85642515D01*
X163806858Y-85642515D02*
X163834981Y-85683823D01*
X163834981Y-85683823D02*
X163854075Y-85703971D01*
X163854075Y-85703971D02*
X163932135Y-85762921D01*
X163932135Y-85762921D02*
X164001247Y-85767720D01*
X164001247Y-85767720D02*
X164072560Y-85719038D01*
X164072560Y-85719038D02*
X164074368Y-85717241D01*
X164074368Y-85717241D02*
X164103383Y-85679618D01*
X164103383Y-85679618D02*
X164121033Y-85628484D01*
X164121033Y-85628484D02*
X164129936Y-85549738D01*
X164129936Y-85549738D02*
X164132709Y-85429276D01*
X164132709Y-85429276D02*
X164132759Y-85402588D01*
X164132759Y-85402588D02*
X164126058Y-85236583D01*
X164126058Y-85236583D02*
X164104248Y-85121505D01*
X164104248Y-85121505D02*
X164064765Y-85051254D01*
X164064765Y-85051254D02*
X164005044Y-85019729D01*
X164005044Y-85019729D02*
X163970528Y-85016552D01*
X163970528Y-85016552D02*
X163888611Y-85031460D01*
X163888611Y-85031460D02*
X163832421Y-85080548D01*
X163832421Y-85080548D02*
X163798598Y-85170362D01*
X163798598Y-85170362D02*
X163783780Y-85307445D01*
X163783780Y-85307445D02*
X163782414Y-85382821D01*
X163782414Y-85382821D02*
X163501812Y-85382821D01*
X163501812Y-85382821D02*
X163502287Y-85355952D01*
X163502287Y-85355952D02*
X163506247Y-85225382D01*
X163506247Y-85225382D02*
X163511826Y-85130087D01*
X163511826Y-85130087D02*
X163519746Y-85062364D01*
X163519746Y-85062364D02*
X163530731Y-85014507D01*
X163530731Y-85014507D02*
X163545501Y-84978813D01*
X163545501Y-84978813D02*
X163564782Y-84947578D01*
X163564782Y-84947578D02*
X163573049Y-84935824D01*
X163573049Y-84935824D02*
X163682712Y-84824797D01*
X163682712Y-84824797D02*
X163821365Y-84761847D01*
X163821365Y-84761847D02*
X163981754Y-84744297D01*
X163981754Y-84744297D02*
X164121900Y-84761903D01*
X164121900Y-84761903D02*
X164121900Y-84761903D01*
G36*
X163506247Y-85225382D02*
G01*
X163511826Y-85130087D01*
X163519746Y-85062364D01*
X163530731Y-85014507D01*
X163545501Y-84978813D01*
X163564782Y-84947578D01*
X163573049Y-84935824D01*
X163682712Y-84824797D01*
X163821365Y-84761847D01*
X163981754Y-84744297D01*
X164121900Y-84761903D01*
X164233450Y-84817522D01*
X164331908Y-84919931D01*
X164359023Y-84957864D01*
X164388562Y-85007500D01*
X164407728Y-85061412D01*
X164418693Y-85133364D01*
X164423629Y-85237122D01*
X164424713Y-85374101D01*
X164419818Y-85561815D01*
X164402804Y-85702758D01*
X164370177Y-85807908D01*
X164318442Y-85888243D01*
X164244104Y-85954741D01*
X164238642Y-85958678D01*
X164165380Y-85998953D01*
X164077160Y-86018880D01*
X163964962Y-86023793D01*
X163782567Y-86023793D01*
X163782491Y-86200857D01*
X163780793Y-86299470D01*
X163770450Y-86357314D01*
X163743422Y-86392006D01*
X163691668Y-86421164D01*
X163679239Y-86427121D01*
X163621077Y-86455039D01*
X163576044Y-86472672D01*
X163542559Y-86474194D01*
X163519038Y-86453781D01*
X163503900Y-86405607D01*
X163495563Y-86323846D01*
X163492444Y-86202672D01*
X163492960Y-86036260D01*
X163495529Y-85818785D01*
X163496332Y-85753736D01*
X163499222Y-85529502D01*
X163501812Y-85382821D01*
X163782414Y-85382821D01*
X163783991Y-85507326D01*
X163791000Y-85588787D01*
X163806858Y-85642515D01*
X163834981Y-85683823D01*
X163854075Y-85703971D01*
X163932135Y-85762921D01*
X164001247Y-85767720D01*
X164072560Y-85719038D01*
X164074368Y-85717241D01*
X164103383Y-85679618D01*
X164121033Y-85628484D01*
X164129936Y-85549738D01*
X164132709Y-85429276D01*
X164132759Y-85402588D01*
X164126058Y-85236583D01*
X164104248Y-85121505D01*
X164064765Y-85051254D01*
X164005044Y-85019729D01*
X163970528Y-85016552D01*
X163888611Y-85031460D01*
X163832421Y-85080548D01*
X163798598Y-85170362D01*
X163783780Y-85307445D01*
X163782414Y-85382821D01*
X163501812Y-85382821D01*
X163502287Y-85355952D01*
X163506247Y-85225382D01*
G37*
X163506247Y-85225382D02*
X163511826Y-85130087D01*
X163519746Y-85062364D01*
X163530731Y-85014507D01*
X163545501Y-84978813D01*
X163564782Y-84947578D01*
X163573049Y-84935824D01*
X163682712Y-84824797D01*
X163821365Y-84761847D01*
X163981754Y-84744297D01*
X164121900Y-84761903D01*
X164233450Y-84817522D01*
X164331908Y-84919931D01*
X164359023Y-84957864D01*
X164388562Y-85007500D01*
X164407728Y-85061412D01*
X164418693Y-85133364D01*
X164423629Y-85237122D01*
X164424713Y-85374101D01*
X164419818Y-85561815D01*
X164402804Y-85702758D01*
X164370177Y-85807908D01*
X164318442Y-85888243D01*
X164244104Y-85954741D01*
X164238642Y-85958678D01*
X164165380Y-85998953D01*
X164077160Y-86018880D01*
X163964962Y-86023793D01*
X163782567Y-86023793D01*
X163782491Y-86200857D01*
X163780793Y-86299470D01*
X163770450Y-86357314D01*
X163743422Y-86392006D01*
X163691668Y-86421164D01*
X163679239Y-86427121D01*
X163621077Y-86455039D01*
X163576044Y-86472672D01*
X163542559Y-86474194D01*
X163519038Y-86453781D01*
X163503900Y-86405607D01*
X163495563Y-86323846D01*
X163492444Y-86202672D01*
X163492960Y-86036260D01*
X163495529Y-85818785D01*
X163496332Y-85753736D01*
X163499222Y-85529502D01*
X163501812Y-85382821D01*
X163782414Y-85382821D01*
X163783991Y-85507326D01*
X163791000Y-85588787D01*
X163806858Y-85642515D01*
X163834981Y-85683823D01*
X163854075Y-85703971D01*
X163932135Y-85762921D01*
X164001247Y-85767720D01*
X164072560Y-85719038D01*
X164074368Y-85717241D01*
X164103383Y-85679618D01*
X164121033Y-85628484D01*
X164129936Y-85549738D01*
X164132709Y-85429276D01*
X164132759Y-85402588D01*
X164126058Y-85236583D01*
X164104248Y-85121505D01*
X164064765Y-85051254D01*
X164005044Y-85019729D01*
X163970528Y-85016552D01*
X163888611Y-85031460D01*
X163832421Y-85080548D01*
X163798598Y-85170362D01*
X163783780Y-85307445D01*
X163782414Y-85382821D01*
X163501812Y-85382821D01*
X163502287Y-85355952D01*
X163506247Y-85225382D01*
D11*
%TO.C,R6*%
X164011000Y-65517064D02*
X164011000Y-65062936D01*
X162541000Y-65517064D02*
X162541000Y-65062936D01*
%TO.C,D1*%
X160716000Y-61036000D02*
X160716000Y-61501000D01*
X160716000Y-58411000D02*
X160716000Y-58876000D01*
X161021316Y-61036000D02*
G75*
G03*
X165530479Y-61036429I2254684J1080000D01*
G01*
X165530479Y-58875571D02*
G75*
G03*
X161021316Y-58876000I-2254479J-1080429D01*
G01*
X160716000Y-61500830D02*
G75*
G03*
X166063815Y-61036827I2560000J1544830D01*
G01*
X166063815Y-58875173D02*
G75*
G03*
X160716000Y-58411170I-2787815J-1080827D01*
G01*
%TO.C,U1*%
X138900000Y-53806000D02*
X138520000Y-53806000D01*
X138900000Y-47386000D02*
X138900000Y-53806000D01*
X157140000Y-47386000D02*
X157140000Y-53806000D01*
X138900000Y-47386000D02*
X157140000Y-47386000D01*
X157140000Y-73131000D02*
X156140000Y-73131000D01*
X157140000Y-72351000D02*
X157140000Y-73131000D01*
X138900000Y-73131000D02*
X139900000Y-73131000D01*
X138900000Y-72351000D02*
X138900000Y-73131000D01*
%TO.C,R8*%
X160000936Y-56119000D02*
X160455064Y-56119000D01*
X160000936Y-54649000D02*
X160455064Y-54649000D01*
%TO.C,R2*%
X134854936Y-60183000D02*
X135309064Y-60183000D01*
X134854936Y-58713000D02*
X135309064Y-58713000D01*
%TO.C,R5*%
X121927064Y-71265000D02*
X121472936Y-71265000D01*
X121927064Y-72735000D02*
X121472936Y-72735000D01*
%TO.C,R3*%
X121646936Y-80285000D02*
X122101064Y-80285000D01*
X121646936Y-78815000D02*
X122101064Y-78815000D01*
%TO.C,R1*%
X160963000Y-67549064D02*
X160963000Y-67094936D01*
X159493000Y-67549064D02*
X159493000Y-67094936D01*
%TO.C,C8*%
X176757000Y-93733252D02*
X176757000Y-93210748D01*
X175287000Y-93733252D02*
X175287000Y-93210748D01*
%TO.C,C1*%
X136579000Y-56661252D02*
X136579000Y-56138748D01*
X135109000Y-56661252D02*
X135109000Y-56138748D01*
%TO.C,C3*%
X135109000Y-62488748D02*
X135109000Y-63011252D01*
X136579000Y-62488748D02*
X136579000Y-63011252D01*
%TO.C,C2*%
X134126000Y-63766000D02*
G75*
G03*
X134126000Y-63766000I-2620000J0D01*
G01*
X131506000Y-61186000D02*
X131506000Y-66346000D01*
X131546000Y-61186000D02*
X131546000Y-66346000D01*
X131586000Y-61187000D02*
X131586000Y-66345000D01*
X131626000Y-61188000D02*
X131626000Y-66344000D01*
X131666000Y-61190000D02*
X131666000Y-66342000D01*
X131706000Y-61193000D02*
X131706000Y-66339000D01*
X131746000Y-61197000D02*
X131746000Y-62726000D01*
X131746000Y-64806000D02*
X131746000Y-66335000D01*
X131786000Y-61201000D02*
X131786000Y-62726000D01*
X131786000Y-64806000D02*
X131786000Y-66331000D01*
X131826000Y-61205000D02*
X131826000Y-62726000D01*
X131826000Y-64806000D02*
X131826000Y-66327000D01*
X131866000Y-61210000D02*
X131866000Y-62726000D01*
X131866000Y-64806000D02*
X131866000Y-66322000D01*
X131906000Y-61216000D02*
X131906000Y-62726000D01*
X131906000Y-64806000D02*
X131906000Y-66316000D01*
X131946000Y-61223000D02*
X131946000Y-62726000D01*
X131946000Y-64806000D02*
X131946000Y-66309000D01*
X131986000Y-61230000D02*
X131986000Y-62726000D01*
X131986000Y-64806000D02*
X131986000Y-66302000D01*
X132026000Y-61238000D02*
X132026000Y-62726000D01*
X132026000Y-64806000D02*
X132026000Y-66294000D01*
X132066000Y-61246000D02*
X132066000Y-62726000D01*
X132066000Y-64806000D02*
X132066000Y-66286000D01*
X132106000Y-61255000D02*
X132106000Y-62726000D01*
X132106000Y-64806000D02*
X132106000Y-66277000D01*
X132146000Y-61265000D02*
X132146000Y-62726000D01*
X132146000Y-64806000D02*
X132146000Y-66267000D01*
X132186000Y-61275000D02*
X132186000Y-62726000D01*
X132186000Y-64806000D02*
X132186000Y-66257000D01*
X132227000Y-61286000D02*
X132227000Y-62726000D01*
X132227000Y-64806000D02*
X132227000Y-66246000D01*
X132267000Y-61298000D02*
X132267000Y-62726000D01*
X132267000Y-64806000D02*
X132267000Y-66234000D01*
X132307000Y-61311000D02*
X132307000Y-62726000D01*
X132307000Y-64806000D02*
X132307000Y-66221000D01*
X132347000Y-61324000D02*
X132347000Y-62726000D01*
X132347000Y-64806000D02*
X132347000Y-66208000D01*
X132387000Y-61338000D02*
X132387000Y-62726000D01*
X132387000Y-64806000D02*
X132387000Y-66194000D01*
X132427000Y-61352000D02*
X132427000Y-62726000D01*
X132427000Y-64806000D02*
X132427000Y-66180000D01*
X132467000Y-61368000D02*
X132467000Y-62726000D01*
X132467000Y-64806000D02*
X132467000Y-66164000D01*
X132507000Y-61384000D02*
X132507000Y-62726000D01*
X132507000Y-64806000D02*
X132507000Y-66148000D01*
X132547000Y-61401000D02*
X132547000Y-62726000D01*
X132547000Y-64806000D02*
X132547000Y-66131000D01*
X132587000Y-61418000D02*
X132587000Y-62726000D01*
X132587000Y-64806000D02*
X132587000Y-66114000D01*
X132627000Y-61437000D02*
X132627000Y-62726000D01*
X132627000Y-64806000D02*
X132627000Y-66095000D01*
X132667000Y-61456000D02*
X132667000Y-62726000D01*
X132667000Y-64806000D02*
X132667000Y-66076000D01*
X132707000Y-61476000D02*
X132707000Y-62726000D01*
X132707000Y-64806000D02*
X132707000Y-66056000D01*
X132747000Y-61498000D02*
X132747000Y-62726000D01*
X132747000Y-64806000D02*
X132747000Y-66034000D01*
X132787000Y-61519000D02*
X132787000Y-62726000D01*
X132787000Y-64806000D02*
X132787000Y-66013000D01*
X132827000Y-61542000D02*
X132827000Y-62726000D01*
X132827000Y-64806000D02*
X132827000Y-65990000D01*
X132867000Y-61566000D02*
X132867000Y-62726000D01*
X132867000Y-64806000D02*
X132867000Y-65966000D01*
X132907000Y-61591000D02*
X132907000Y-62726000D01*
X132907000Y-64806000D02*
X132907000Y-65941000D01*
X132947000Y-61617000D02*
X132947000Y-62726000D01*
X132947000Y-64806000D02*
X132947000Y-65915000D01*
X132987000Y-61644000D02*
X132987000Y-62726000D01*
X132987000Y-64806000D02*
X132987000Y-65888000D01*
X133027000Y-61671000D02*
X133027000Y-62726000D01*
X133027000Y-64806000D02*
X133027000Y-65861000D01*
X133067000Y-61701000D02*
X133067000Y-62726000D01*
X133067000Y-64806000D02*
X133067000Y-65831000D01*
X133107000Y-61731000D02*
X133107000Y-62726000D01*
X133107000Y-64806000D02*
X133107000Y-65801000D01*
X133147000Y-61762000D02*
X133147000Y-62726000D01*
X133147000Y-64806000D02*
X133147000Y-65770000D01*
X133187000Y-61795000D02*
X133187000Y-62726000D01*
X133187000Y-64806000D02*
X133187000Y-65737000D01*
X133227000Y-61829000D02*
X133227000Y-62726000D01*
X133227000Y-64806000D02*
X133227000Y-65703000D01*
X133267000Y-61865000D02*
X133267000Y-62726000D01*
X133267000Y-64806000D02*
X133267000Y-65667000D01*
X133307000Y-61902000D02*
X133307000Y-62726000D01*
X133307000Y-64806000D02*
X133307000Y-65630000D01*
X133347000Y-61940000D02*
X133347000Y-62726000D01*
X133347000Y-64806000D02*
X133347000Y-65592000D01*
X133387000Y-61981000D02*
X133387000Y-62726000D01*
X133387000Y-64806000D02*
X133387000Y-65551000D01*
X133427000Y-62023000D02*
X133427000Y-62726000D01*
X133427000Y-64806000D02*
X133427000Y-65509000D01*
X133467000Y-62067000D02*
X133467000Y-62726000D01*
X133467000Y-64806000D02*
X133467000Y-65465000D01*
X133507000Y-62113000D02*
X133507000Y-62726000D01*
X133507000Y-64806000D02*
X133507000Y-65419000D01*
X133547000Y-62161000D02*
X133547000Y-62726000D01*
X133547000Y-64806000D02*
X133547000Y-65371000D01*
X133587000Y-62212000D02*
X133587000Y-62726000D01*
X133587000Y-64806000D02*
X133587000Y-65320000D01*
X133627000Y-62266000D02*
X133627000Y-62726000D01*
X133627000Y-64806000D02*
X133627000Y-65266000D01*
X133667000Y-62323000D02*
X133667000Y-62726000D01*
X133667000Y-64806000D02*
X133667000Y-65209000D01*
X133707000Y-62383000D02*
X133707000Y-62726000D01*
X133707000Y-64806000D02*
X133707000Y-65149000D01*
X133747000Y-62447000D02*
X133747000Y-62726000D01*
X133747000Y-64806000D02*
X133747000Y-65085000D01*
X133787000Y-62515000D02*
X133787000Y-62726000D01*
X133787000Y-64806000D02*
X133787000Y-65017000D01*
X133827000Y-62588000D02*
X133827000Y-64944000D01*
X133867000Y-62668000D02*
X133867000Y-64864000D01*
X133907000Y-62755000D02*
X133907000Y-64777000D01*
X133947000Y-62851000D02*
X133947000Y-64681000D01*
X133987000Y-62961000D02*
X133987000Y-64571000D01*
X134027000Y-63089000D02*
X134027000Y-64443000D01*
X134067000Y-63248000D02*
X134067000Y-64284000D01*
X134107000Y-63482000D02*
X134107000Y-64050000D01*
X128701225Y-62291000D02*
X129201225Y-62291000D01*
X128951225Y-62041000D02*
X128951225Y-62541000D01*
%TO.C,J2*%
X158120000Y-98880000D02*
X158120000Y-97550000D01*
X159450000Y-98880000D02*
X158120000Y-98880000D01*
X160720000Y-98880000D02*
X160720000Y-96220000D01*
X160720000Y-96220000D02*
X168400000Y-96220000D01*
X160720000Y-98880000D02*
X168400000Y-98880000D01*
X168400000Y-98880000D02*
X168400000Y-96220000D01*
%TO.C,J3*%
X116380600Y-70665000D02*
X117710600Y-70665000D01*
X116380600Y-71995000D02*
X116380600Y-70665000D01*
X116380600Y-73265000D02*
X119040600Y-73265000D01*
X119040600Y-73265000D02*
X119040600Y-86025000D01*
X116380600Y-73265000D02*
X116380600Y-86025000D01*
X116380600Y-86025000D02*
X119040600Y-86025000D01*
%TD*%
M02*
